# Blender 4.5.4 LTS
# www.blender.org
mtllib tree1_apples.mtl
o Lowpoly_Tree_04_Material.003_0
v -0.011117 0.976212 0.315629
v 0.011597 0.993564 0.332132
v -0.019792 0.993564 0.342331
v 0.011597 0.993564 0.332132
v -0.011117 0.976212 0.315629
v 0.011597 0.993564 0.299127
v -0.011117 0.976212 0.315629
v -0.019792 0.993564 0.342331
v -0.039193 0.993564 0.315629
v -0.011117 0.976212 0.315629
v -0.039193 0.993564 0.315629
v -0.019792 0.993564 0.288928
v -0.011117 0.976212 0.315629
v -0.019792 0.993564 0.288928
v 0.011597 0.993564 0.299127
v 0.011597 0.993564 0.332132
v 0.011597 0.993564 0.299127
v 0.016959 1.021640 0.315629
v -0.019792 0.993564 0.342331
v 0.011597 0.993564 0.332132
v -0.002441 1.021640 0.342331
v -0.039193 0.993564 0.315629
v -0.019792 0.993564 0.342331
v -0.033830 1.021640 0.332132
v -0.019792 0.993564 0.288928
v -0.039193 0.993564 0.315629
v -0.033830 1.021640 0.299127
v 0.011597 0.993564 0.299127
v -0.019792 0.993564 0.288928
v -0.002441 1.021640 0.288928
v 0.011597 0.993564 0.332132
v 0.016959 1.021640 0.315629
v -0.002441 1.021640 0.342331
v -0.019792 0.993564 0.342331
v -0.002441 1.021640 0.342331
v -0.033830 1.021640 0.332132
v -0.039193 0.993564 0.315629
v -0.033830 1.021640 0.332132
v -0.033830 1.021640 0.299127
v -0.019792 0.993564 0.288928
v -0.033830 1.021640 0.299127
v -0.002441 1.021640 0.288928
v 0.011597 0.993564 0.299127
v -0.002441 1.021640 0.288928
v 0.016959 1.021640 0.315629
v -0.002441 1.021640 0.342331
v 0.016959 1.021640 0.315629
v -0.011117 1.038991 0.315629
v -0.033830 1.021640 0.332132
v -0.002441 1.021640 0.342331
v -0.011117 1.038991 0.315629
v -0.033830 1.021640 0.299127
v -0.033830 1.021640 0.332132
v -0.011117 1.038991 0.315629
v -0.002441 1.021640 0.288928
v -0.033830 1.021640 0.299127
v -0.011117 1.038991 0.315629
v 0.016959 1.021640 0.315629
v -0.002441 1.021640 0.288928
v -0.011117 1.038991 0.315629
v -0.148619 0.880211 0.232293
v -0.125905 0.897563 0.248796
v -0.157294 0.897563 0.258995
v -0.125905 0.897563 0.248796
v -0.148619 0.880211 0.232293
v -0.125905 0.897563 0.215791
v -0.148619 0.880211 0.232293
v -0.157294 0.897563 0.258995
v -0.176694 0.897563 0.232293
v -0.148619 0.880211 0.232293
v -0.176694 0.897563 0.232293
v -0.157294 0.897563 0.205592
v -0.148619 0.880211 0.232293
v -0.157294 0.897563 0.205592
v -0.125905 0.897563 0.215791
v -0.125905 0.897563 0.248796
v -0.125905 0.897563 0.215791
v -0.120543 0.925639 0.232293
v -0.157294 0.897563 0.258995
v -0.125905 0.897563 0.248796
v -0.139943 0.925639 0.258995
v -0.176694 0.897563 0.232293
v -0.157294 0.897563 0.258995
v -0.171332 0.925639 0.248796
v -0.157294 0.897563 0.205592
v -0.176694 0.897563 0.232293
v -0.171332 0.925639 0.215791
v -0.125905 0.897563 0.215791
v -0.157294 0.897563 0.205592
v -0.139943 0.925639 0.205592
v -0.125905 0.897563 0.248796
v -0.120543 0.925639 0.232293
v -0.139943 0.925639 0.258995
v -0.157294 0.897563 0.258995
v -0.139943 0.925639 0.258995
v -0.171332 0.925639 0.248796
v -0.176694 0.897563 0.232293
v -0.171332 0.925639 0.248796
v -0.171332 0.925639 0.215791
v -0.157294 0.897563 0.205592
v -0.171332 0.925639 0.215791
v -0.139943 0.925639 0.205592
v -0.125905 0.897563 0.215791
v -0.139943 0.925639 0.205592
v -0.120543 0.925639 0.232293
v -0.139943 0.925639 0.258995
v -0.120543 0.925639 0.232293
v -0.148619 0.942991 0.232293
v -0.171332 0.925639 0.248796
v -0.139943 0.925639 0.258995
v -0.148619 0.942991 0.232293
v -0.171332 0.925639 0.215791
v -0.171332 0.925639 0.248796
v -0.148619 0.942991 0.232293
v -0.139943 0.925639 0.205592
v -0.171332 0.925639 0.215791
v -0.148619 0.942991 0.232293
v -0.120543 0.925639 0.232293
v -0.139943 0.925639 0.205592
v -0.148619 0.942991 0.232293
v -0.139916 0.850722 -0.250755
v -0.117202 0.868074 -0.234252
v -0.148591 0.868074 -0.224053
v -0.117202 0.868074 -0.234252
v -0.139916 0.850722 -0.250755
v -0.117202 0.868074 -0.267257
v -0.139916 0.850722 -0.250755
v -0.148591 0.868074 -0.224053
v -0.167992 0.868074 -0.250755
v -0.139916 0.850722 -0.250755
v -0.167992 0.868074 -0.250755
v -0.148591 0.868074 -0.277456
v -0.139916 0.850722 -0.250755
v -0.148591 0.868074 -0.277456
v -0.117202 0.868074 -0.267257
v -0.117202 0.868074 -0.234252
v -0.117202 0.868074 -0.267257
v -0.111840 0.896150 -0.250755
v -0.148591 0.868074 -0.224053
v -0.117202 0.868074 -0.234252
v -0.131240 0.896150 -0.224053
v -0.167992 0.868074 -0.250755
v -0.148591 0.868074 -0.224053
v -0.162629 0.896150 -0.234252
v -0.148591 0.868074 -0.277456
v -0.167992 0.868074 -0.250755
v -0.162629 0.896150 -0.267257
v -0.117202 0.868074 -0.267257
v -0.148591 0.868074 -0.277456
v -0.131240 0.896150 -0.277456
v -0.117202 0.868074 -0.234252
v -0.111840 0.896150 -0.250755
v -0.131240 0.896150 -0.224053
v -0.148591 0.868074 -0.224053
v -0.131240 0.896150 -0.224053
v -0.162629 0.896150 -0.234252
v -0.167992 0.868074 -0.250755
v -0.162629 0.896150 -0.234252
v -0.162629 0.896150 -0.267257
v -0.148591 0.868074 -0.277456
v -0.162629 0.896150 -0.267257
v -0.131240 0.896150 -0.277456
v -0.117202 0.868074 -0.267257
v -0.131240 0.896150 -0.277456
v -0.111840 0.896150 -0.250755
v -0.131240 0.896150 -0.224053
v -0.111840 0.896150 -0.250755
v -0.139916 0.913501 -0.250755
v -0.162629 0.896150 -0.234252
v -0.131240 0.896150 -0.224053
v -0.139916 0.913501 -0.250755
v -0.162629 0.896150 -0.267257
v -0.162629 0.896150 -0.234252
v -0.139916 0.913501 -0.250755
v -0.131240 0.896150 -0.277456
v -0.162629 0.896150 -0.267257
v -0.139916 0.913501 -0.250755
v -0.111840 0.896150 -0.250755
v -0.131240 0.896150 -0.277456
v -0.139916 0.913501 -0.250755
v 0.204697 0.895143 -0.144759
v 0.227410 0.912495 -0.128257
v 0.196021 0.912495 -0.118058
v 0.227410 0.912495 -0.128257
v 0.204697 0.895143 -0.144759
v 0.227410 0.912495 -0.161261
v 0.204697 0.895143 -0.144759
v 0.196021 0.912495 -0.118058
v 0.176621 0.912495 -0.144759
v 0.204697 0.895143 -0.144759
v 0.176621 0.912495 -0.144759
v 0.196021 0.912495 -0.171461
v 0.204697 0.895143 -0.144759
v 0.196021 0.912495 -0.171461
v 0.227410 0.912495 -0.161261
v 0.227410 0.912495 -0.128257
v 0.227410 0.912495 -0.161261
v 0.232773 0.940571 -0.144759
v 0.196021 0.912495 -0.118058
v 0.227410 0.912495 -0.128257
v 0.213372 0.940571 -0.118058
v 0.176621 0.912495 -0.144759
v 0.196021 0.912495 -0.118058
v 0.181983 0.940571 -0.128257
v 0.196021 0.912495 -0.171461
v 0.176621 0.912495 -0.144759
v 0.181983 0.940571 -0.161261
v 0.227410 0.912495 -0.161261
v 0.196021 0.912495 -0.171461
v 0.213372 0.940571 -0.171461
v 0.227410 0.912495 -0.128257
v 0.232773 0.940571 -0.144759
v 0.213372 0.940571 -0.118058
v 0.196021 0.912495 -0.118058
v 0.213372 0.940571 -0.118058
v 0.181983 0.940571 -0.128257
v 0.176621 0.912495 -0.144759
v 0.181983 0.940571 -0.128257
v 0.181983 0.940571 -0.161261
v 0.196021 0.912495 -0.171461
v 0.181983 0.940571 -0.161261
v 0.213372 0.940571 -0.171461
v 0.227410 0.912495 -0.161261
v 0.213372 0.940571 -0.171461
v 0.232773 0.940571 -0.144759
v 0.213372 0.940571 -0.118058
v 0.232773 0.940571 -0.144759
v 0.204697 0.957923 -0.144759
v 0.181983 0.940571 -0.128257
v 0.213372 0.940571 -0.118058
v 0.204697 0.957923 -0.144759
v 0.181983 0.940571 -0.161261
v 0.181983 0.940571 -0.128257
v 0.204697 0.957923 -0.144759
v 0.213372 0.940571 -0.171461
v 0.181983 0.940571 -0.161261
v 0.204697 0.957923 -0.144759
v 0.232773 0.940571 -0.144759
v 0.213372 0.940571 -0.171461
v 0.204697 0.957923 -0.144759
v 0.224106 0.932646 0.258520
v 0.246820 0.949997 0.275022
v 0.215430 0.949997 0.285221
v 0.246820 0.949997 0.275022
v 0.224106 0.932646 0.258520
v 0.246820 0.949997 0.242018
v 0.224106 0.932646 0.258520
v 0.215430 0.949997 0.285221
v 0.196030 0.949997 0.258520
v 0.224106 0.932646 0.258520
v 0.196030 0.949997 0.258520
v 0.215430 0.949997 0.231819
v 0.224106 0.932646 0.258520
v 0.215430 0.949997 0.231819
v 0.246820 0.949997 0.242018
v 0.246820 0.949997 0.275022
v 0.246820 0.949997 0.242018
v 0.252182 0.978073 0.258520
v 0.215430 0.949997 0.285221
v 0.246820 0.949997 0.275022
v 0.232782 0.978073 0.285221
v 0.196030 0.949997 0.258520
v 0.215430 0.949997 0.285221
v 0.201392 0.978073 0.275022
v 0.215430 0.949997 0.231819
v 0.196030 0.949997 0.258520
v 0.201392 0.978073 0.242018
v 0.246820 0.949997 0.242018
v 0.215430 0.949997 0.231819
v 0.232782 0.978073 0.231819
v 0.246820 0.949997 0.275022
v 0.252182 0.978073 0.258520
v 0.232782 0.978073 0.285221
v 0.215430 0.949997 0.285221
v 0.232782 0.978073 0.285221
v 0.201392 0.978073 0.275022
v 0.196030 0.949997 0.258520
v 0.201392 0.978073 0.275022
v 0.201392 0.978073 0.242018
v 0.215430 0.949997 0.231819
v 0.201392 0.978073 0.242018
v 0.232782 0.978073 0.231819
v 0.246820 0.949997 0.242018
v 0.232782 0.978073 0.231819
v 0.252182 0.978073 0.258520
v 0.232782 0.978073 0.285221
v 0.252182 0.978073 0.258520
v 0.224106 0.995425 0.258520
v 0.201392 0.978073 0.275022
v 0.232782 0.978073 0.285221
v 0.224106 0.995425 0.258520
v 0.201392 0.978073 0.242018
v 0.201392 0.978073 0.275022
v 0.224106 0.995425 0.258520
v 0.232782 0.978073 0.231819
v 0.201392 0.978073 0.242018
v 0.224106 0.995425 0.258520
v 0.252182 0.978073 0.258520
v 0.232782 0.978073 0.231819
v 0.224106 0.995425 0.258520
v 0.369009 0.935202 0.186154
v 0.391722 0.952554 0.202656
v 0.360333 0.952554 0.212855
v 0.391722 0.952554 0.202656
v 0.369009 0.935202 0.186154
v 0.391722 0.952554 0.169652
v 0.369009 0.935202 0.186154
v 0.360333 0.952554 0.212855
v 0.340933 0.952554 0.186154
v 0.369009 0.935202 0.186154
v 0.340933 0.952554 0.186154
v 0.360333 0.952554 0.159452
v 0.369009 0.935202 0.186154
v 0.360333 0.952554 0.159452
v 0.391722 0.952554 0.169652
v 0.391722 0.952554 0.202656
v 0.391722 0.952554 0.169652
v 0.397084 0.980630 0.186154
v 0.360333 0.952554 0.212855
v 0.391722 0.952554 0.202656
v 0.377684 0.980630 0.212855
v 0.340933 0.952554 0.186154
v 0.360333 0.952554 0.212855
v 0.346295 0.980630 0.202656
v 0.360333 0.952554 0.159452
v 0.340933 0.952554 0.186154
v 0.346295 0.980630 0.169652
v 0.391722 0.952554 0.169652
v 0.360333 0.952554 0.159452
v 0.377684 0.980630 0.159452
v 0.391722 0.952554 0.202656
v 0.397084 0.980630 0.186154
v 0.377684 0.980630 0.212855
v 0.360333 0.952554 0.212855
v 0.377684 0.980630 0.212855
v 0.346295 0.980630 0.202656
v 0.340933 0.952554 0.186154
v 0.346295 0.980630 0.202656
v 0.346295 0.980630 0.169652
v 0.360333 0.952554 0.159452
v 0.346295 0.980630 0.169652
v 0.377684 0.980630 0.159452
v 0.391722 0.952554 0.169652
v 0.377684 0.980630 0.159452
v 0.397084 0.980630 0.186154
v 0.377684 0.980630 0.212855
v 0.397084 0.980630 0.186154
v 0.369009 0.997982 0.186154
v 0.346295 0.980630 0.202656
v 0.377684 0.980630 0.212855
v 0.369009 0.997982 0.186154
v 0.346295 0.980630 0.169652
v 0.346295 0.980630 0.202656
v 0.369009 0.997982 0.186154
v 0.377684 0.980630 0.159452
v 0.346295 0.980630 0.169652
v 0.369009 0.997982 0.186154
v 0.397084 0.980630 0.186154
v 0.377684 0.980630 0.159452
v 0.369009 0.997982 0.186154
v 0.446618 1.001305 -0.068857
v 0.469332 1.018657 -0.052355
v 0.437943 1.018657 -0.042156
v 0.469332 1.018657 -0.052355
v 0.446618 1.001305 -0.068857
v 0.469332 1.018657 -0.085359
v 0.446618 1.001305 -0.068857
v 0.437943 1.018657 -0.042156
v 0.418542 1.018657 -0.068857
v 0.446618 1.001305 -0.068857
v 0.418542 1.018657 -0.068857
v 0.437943 1.018657 -0.095559
v 0.446618 1.001305 -0.068857
v 0.437943 1.018657 -0.095559
v 0.469332 1.018657 -0.085359
v 0.469332 1.018657 -0.052355
v 0.469332 1.018657 -0.085359
v 0.474694 1.046733 -0.068857
v 0.437943 1.018657 -0.042156
v 0.469332 1.018657 -0.052355
v 0.455294 1.046733 -0.042156
v 0.418542 1.018657 -0.068857
v 0.437943 1.018657 -0.042156
v 0.423905 1.046733 -0.052355
v 0.437943 1.018657 -0.095559
v 0.418542 1.018657 -0.068857
v 0.423905 1.046733 -0.085359
v 0.469332 1.018657 -0.085359
v 0.437943 1.018657 -0.095559
v 0.455294 1.046733 -0.095559
v 0.469332 1.018657 -0.052355
v 0.474694 1.046733 -0.068857
v 0.455294 1.046733 -0.042156
v 0.437943 1.018657 -0.042156
v 0.455294 1.046733 -0.042156
v 0.423905 1.046733 -0.052355
v 0.418542 1.018657 -0.068857
v 0.423905 1.046733 -0.052355
v 0.423905 1.046733 -0.085359
v 0.437943 1.018657 -0.095559
v 0.423905 1.046733 -0.085359
v 0.455294 1.046733 -0.095559
v 0.469332 1.018657 -0.085359
v 0.455294 1.046733 -0.095559
v 0.474694 1.046733 -0.068857
v 0.455294 1.046733 -0.042156
v 0.474694 1.046733 -0.068857
v 0.446618 1.064084 -0.068857
v 0.423905 1.046733 -0.052355
v 0.455294 1.046733 -0.042156
v 0.446618 1.064084 -0.068857
v 0.423905 1.046733 -0.085359
v 0.423905 1.046733 -0.052355
v 0.446618 1.064084 -0.068857
v 0.455294 1.046733 -0.095559
v 0.423905 1.046733 -0.085359
v 0.446618 1.064084 -0.068857
v 0.474694 1.046733 -0.068857
v 0.455294 1.046733 -0.095559
v 0.446618 1.064084 -0.068857
v 0.188453 0.897135 -0.089118
v 0.211167 0.914487 -0.072616
v 0.179778 0.914487 -0.062417
v 0.211167 0.914487 -0.072616
v 0.188453 0.897135 -0.089118
v 0.211167 0.914487 -0.105620
v 0.188453 0.897135 -0.089118
v 0.179778 0.914487 -0.062417
v 0.160378 0.914487 -0.089118
v 0.188453 0.897135 -0.089118
v 0.160378 0.914487 -0.089118
v 0.179778 0.914487 -0.115820
v 0.188453 0.897135 -0.089118
v 0.179778 0.914487 -0.115820
v 0.211167 0.914487 -0.105620
v 0.211167 0.914487 -0.072616
v 0.211167 0.914487 -0.105620
v 0.216529 0.942563 -0.089118
v 0.179778 0.914487 -0.062417
v 0.211167 0.914487 -0.072616
v 0.197129 0.942563 -0.062417
v 0.160378 0.914487 -0.089118
v 0.179778 0.914487 -0.062417
v 0.165740 0.942563 -0.072616
v 0.179778 0.914487 -0.115820
v 0.160378 0.914487 -0.089118
v 0.165740 0.942563 -0.105620
v 0.211167 0.914487 -0.105620
v 0.179778 0.914487 -0.115820
v 0.197129 0.942563 -0.115820
v 0.211167 0.914487 -0.072616
v 0.216529 0.942563 -0.089118
v 0.197129 0.942563 -0.062417
v 0.179778 0.914487 -0.062417
v 0.197129 0.942563 -0.062417
v 0.165740 0.942563 -0.072616
v 0.160378 0.914487 -0.089118
v 0.165740 0.942563 -0.072616
v 0.165740 0.942563 -0.105620
v 0.179778 0.914487 -0.115820
v 0.165740 0.942563 -0.105620
v 0.197129 0.942563 -0.115820
v 0.211167 0.914487 -0.105620
v 0.197129 0.942563 -0.115820
v 0.216529 0.942563 -0.089118
v 0.197129 0.942563 -0.062417
v 0.216529 0.942563 -0.089118
v 0.188453 0.959915 -0.089118
v 0.165740 0.942563 -0.072616
v 0.197129 0.942563 -0.062417
v 0.188453 0.959915 -0.089118
v 0.165740 0.942563 -0.105620
v 0.165740 0.942563 -0.072616
v 0.188453 0.959915 -0.089118
v 0.197129 0.942563 -0.115820
v 0.165740 0.942563 -0.105620
v 0.188453 0.959915 -0.089118
v 0.216529 0.942563 -0.089118
v 0.197129 0.942563 -0.115820
v 0.188453 0.959915 -0.089118
v -0.006286 0.886912 -0.132503
v 0.016427 0.904264 -0.116001
v -0.014962 0.904264 -0.105802
v 0.016427 0.904264 -0.116001
v -0.006286 0.886912 -0.132503
v 0.016427 0.904264 -0.149005
v -0.006286 0.886912 -0.132503
v -0.014962 0.904264 -0.105802
v -0.034362 0.904264 -0.132503
v -0.006286 0.886912 -0.132503
v -0.034362 0.904264 -0.132503
v -0.014962 0.904264 -0.159205
v -0.006286 0.886912 -0.132503
v -0.014962 0.904264 -0.159205
v 0.016427 0.904264 -0.149005
v 0.016427 0.904264 -0.116001
v 0.016427 0.904264 -0.149005
v 0.021789 0.932340 -0.132503
v -0.014962 0.904264 -0.105802
v 0.016427 0.904264 -0.116001
v 0.002389 0.932340 -0.105802
v -0.034362 0.904264 -0.132503
v -0.014962 0.904264 -0.105802
v -0.029000 0.932340 -0.116001
v -0.014962 0.904264 -0.159205
v -0.034362 0.904264 -0.132503
v -0.029000 0.932340 -0.149005
v 0.016427 0.904264 -0.149005
v -0.014962 0.904264 -0.159205
v 0.002389 0.932340 -0.159205
v 0.016427 0.904264 -0.116001
v 0.021789 0.932340 -0.132503
v 0.002389 0.932340 -0.105802
v -0.014962 0.904264 -0.105802
v 0.002389 0.932340 -0.105802
v -0.029000 0.932340 -0.116001
v -0.034362 0.904264 -0.132503
v -0.029000 0.932340 -0.116001
v -0.029000 0.932340 -0.149005
v -0.014962 0.904264 -0.159205
v -0.029000 0.932340 -0.149005
v 0.002389 0.932340 -0.159205
v 0.016427 0.904264 -0.149005
v 0.002389 0.932340 -0.159205
v 0.021789 0.932340 -0.132503
v 0.002389 0.932340 -0.105802
v 0.021789 0.932340 -0.132503
v -0.006286 0.949692 -0.132503
v -0.029000 0.932340 -0.116001
v 0.002389 0.932340 -0.105802
v -0.006286 0.949692 -0.132503
v -0.029000 0.932340 -0.149005
v -0.029000 0.932340 -0.116001
v -0.006286 0.949692 -0.132503
v 0.002389 0.932340 -0.159205
v -0.029000 0.932340 -0.149005
v -0.006286 0.949692 -0.132503
v 0.021789 0.932340 -0.132503
v 0.002389 0.932340 -0.159205
v -0.006286 0.949692 -0.132503
v -0.194501 0.797634 0.042281
v -0.171787 0.814986 0.058783
v -0.203176 0.814986 0.068982
v -0.171787 0.814986 0.058783
v -0.194501 0.797634 0.042281
v -0.171787 0.814986 0.025779
v -0.194501 0.797634 0.042281
v -0.203176 0.814986 0.068982
v -0.222576 0.814986 0.042281
v -0.194501 0.797634 0.042281
v -0.222576 0.814986 0.042281
v -0.203176 0.814986 0.015580
v -0.194501 0.797634 0.042281
v -0.203176 0.814986 0.015580
v -0.171787 0.814986 0.025779
v -0.171787 0.814986 0.058783
v -0.171787 0.814986 0.025779
v -0.166425 0.843062 0.042281
v -0.203176 0.814986 0.068982
v -0.171787 0.814986 0.058783
v -0.185825 0.843062 0.068982
v -0.222576 0.814986 0.042281
v -0.203176 0.814986 0.068982
v -0.217214 0.843062 0.058783
v -0.203176 0.814986 0.015580
v -0.222576 0.814986 0.042281
v -0.217214 0.843062 0.025779
v -0.171787 0.814986 0.025779
v -0.203176 0.814986 0.015580
v -0.185825 0.843062 0.015580
v -0.171787 0.814986 0.058783
v -0.166425 0.843062 0.042281
v -0.185825 0.843062 0.068982
v -0.203176 0.814986 0.068982
v -0.185825 0.843062 0.068982
v -0.217214 0.843062 0.058783
v -0.222576 0.814986 0.042281
v -0.217214 0.843062 0.058783
v -0.217214 0.843062 0.025779
v -0.203176 0.814986 0.015580
v -0.217214 0.843062 0.025779
v -0.185825 0.843062 0.015580
v -0.171787 0.814986 0.025779
v -0.185825 0.843062 0.015580
v -0.166425 0.843062 0.042281
v -0.185825 0.843062 0.068982
v -0.166425 0.843062 0.042281
v -0.194501 0.860414 0.042281
v -0.217214 0.843062 0.058783
v -0.185825 0.843062 0.068982
v -0.194501 0.860414 0.042281
v -0.217214 0.843062 0.025779
v -0.217214 0.843062 0.058783
v -0.194501 0.860414 0.042281
v -0.185825 0.843062 0.015580
v -0.217214 0.843062 0.025779
v -0.194501 0.860414 0.042281
v -0.166425 0.843062 0.042281
v -0.185825 0.843062 0.015580
v -0.194501 0.860414 0.042281
v 0.030653 0.862357 0.096416
v 0.053366 0.879708 0.112918
v 0.021977 0.879708 0.123118
v 0.053366 0.879708 0.112918
v 0.030653 0.862357 0.096416
v 0.053366 0.879708 0.079914
v 0.030653 0.862357 0.096416
v 0.021977 0.879708 0.123118
v 0.002577 0.879708 0.096416
v 0.030653 0.862357 0.096416
v 0.002577 0.879708 0.096416
v 0.021977 0.879708 0.069715
v 0.030653 0.862357 0.096416
v 0.021977 0.879708 0.069715
v 0.053366 0.879708 0.079914
v 0.053366 0.879708 0.112918
v 0.053366 0.879708 0.079914
v 0.058728 0.907784 0.096416
v 0.021977 0.879708 0.123118
v 0.053366 0.879708 0.112918
v 0.039328 0.907784 0.123118
v 0.002577 0.879708 0.096416
v 0.021977 0.879708 0.123118
v 0.007939 0.907784 0.112918
v 0.021977 0.879708 0.069715
v 0.002577 0.879708 0.096416
v 0.007939 0.907784 0.079914
v 0.053366 0.879708 0.079914
v 0.021977 0.879708 0.069715
v 0.039328 0.907784 0.069715
v 0.053366 0.879708 0.112918
v 0.058728 0.907784 0.096416
v 0.039328 0.907784 0.123118
v 0.021977 0.879708 0.123118
v 0.039328 0.907784 0.123118
v 0.007939 0.907784 0.112918
v 0.002577 0.879708 0.096416
v 0.007939 0.907784 0.112918
v 0.007939 0.907784 0.079914
v 0.021977 0.879708 0.069715
v 0.007939 0.907784 0.079914
v 0.039328 0.907784 0.069715
v 0.053366 0.879708 0.079914
v 0.039328 0.907784 0.069715
v 0.058728 0.907784 0.096416
v 0.039328 0.907784 0.123118
v 0.058728 0.907784 0.096416
v 0.030653 0.925136 0.096416
v 0.007939 0.907784 0.112918
v 0.039328 0.907784 0.123118
v 0.030653 0.925136 0.096416
v 0.007939 0.907784 0.079914
v 0.007939 0.907784 0.112918
v 0.030653 0.925136 0.096416
v 0.039328 0.907784 0.069715
v 0.007939 0.907784 0.079914
v 0.030653 0.925136 0.096416
v 0.058728 0.907784 0.096416
v 0.039328 0.907784 0.069715
v 0.030653 0.925136 0.096416
v -0.365743 0.954919 0.008320
v -0.343030 0.972271 0.024822
v -0.374419 0.972271 0.035021
v -0.343030 0.972271 0.024822
v -0.365743 0.954919 0.008320
v -0.343030 0.972271 -0.008182
v -0.365743 0.954919 0.008320
v -0.374419 0.972271 0.035021
v -0.393819 0.972271 0.008320
v -0.365743 0.954919 0.008320
v -0.393819 0.972271 0.008320
v -0.374419 0.972271 -0.018381
v -0.365743 0.954919 0.008320
v -0.374419 0.972271 -0.018381
v -0.343030 0.972271 -0.008182
v -0.343030 0.972271 0.024822
v -0.343030 0.972271 -0.008182
v -0.337668 1.000347 0.008320
v -0.374419 0.972271 0.035021
v -0.343030 0.972271 0.024822
v -0.357068 1.000347 0.035021
v -0.393819 0.972271 0.008320
v -0.374419 0.972271 0.035021
v -0.388457 1.000347 0.024822
v -0.374419 0.972271 -0.018381
v -0.393819 0.972271 0.008320
v -0.388457 1.000347 -0.008182
v -0.343030 0.972271 -0.008182
v -0.374419 0.972271 -0.018381
v -0.357068 1.000347 -0.018381
v -0.343030 0.972271 0.024822
v -0.337668 1.000347 0.008320
v -0.357068 1.000347 0.035021
v -0.374419 0.972271 0.035021
v -0.357068 1.000347 0.035021
v -0.388457 1.000347 0.024822
v -0.393819 0.972271 0.008320
v -0.388457 1.000347 0.024822
v -0.388457 1.000347 -0.008182
v -0.374419 0.972271 -0.018381
v -0.388457 1.000347 -0.008182
v -0.357068 1.000347 -0.018381
v -0.343030 0.972271 -0.008182
v -0.357068 1.000347 -0.018381
v -0.337668 1.000347 0.008320
v -0.357068 1.000347 0.035021
v -0.337668 1.000347 0.008320
v -0.365743 1.017699 0.008320
v -0.388457 1.000347 0.024822
v -0.357068 1.000347 0.035021
v -0.365743 1.017699 0.008320
v -0.388457 1.000347 -0.008182
v -0.388457 1.000347 0.024822
v -0.365743 1.017699 0.008320
v -0.357068 1.000347 -0.018381
v -0.388457 1.000347 -0.008182
v -0.365743 1.017699 0.008320
v -0.337668 1.000347 0.008320
v -0.357068 1.000347 -0.018381
v -0.365743 1.017699 0.008320
vn 0.1876 -0.7947 0.5774
vn 0.6071 -0.7947 -0.0000
vn -0.4911 -0.7947 0.3568
vn -0.4911 -0.7947 -0.3568
vn 0.1876 -0.7947 -0.5774
vn 0.9822 -0.1876 -0.0000
vn 0.3035 -0.1876 0.9342
vn -0.7947 -0.1876 0.5774
vn -0.7947 -0.1876 -0.5774
vn 0.3035 -0.1876 -0.9342
vn 0.7946 0.1876 0.5774
vn -0.3035 0.1876 0.9342
vn -0.9822 0.1876 -0.0000
vn -0.3035 0.1876 -0.9342
vn 0.7946 0.1876 -0.5774
vn 0.4911 0.7947 0.3568
vn -0.1876 0.7947 0.5774
vn -0.6071 0.7947 -0.0000
vn -0.1876 0.7947 -0.5774
vn 0.4911 0.7947 -0.3568
vn -0.7946 -0.1876 0.5774
vn -0.7946 -0.1876 -0.5774
vn 0.7947 0.1876 -0.5774
vn 0.6071 -0.7946 -0.0000
vn 0.7947 0.1876 0.5774
vt 0.181819 1.000000
vt 0.272728 0.842539
vt 0.090910 0.842539
vt 0.363637 1.000000
vt 0.454546 0.842539
vt 0.909091 1.000000
vt 1.000000 0.842539
vt 0.818182 0.842539
vt 0.727273 1.000000
vt 0.636364 0.842539
vt 0.545455 1.000000
vt 0.363637 0.685079
vt 0.181819 0.685079
vt 0.909091 0.685079
vt 0.727273 0.685079
vt 0.545455 0.685079
vt 0.000000 0.685079
vt 0.272728 0.527618
vt 0.090910 0.527618
vt 0.818182 0.527618
vt 0.636364 0.527618
vt 0.454546 0.527618
s 0
usemtl Material.008
f 1/1/1 2/2/1 3/3/1
f 4/2/2 5/4/2 6/5/2
f 7/6/3 8/7/3 9/8/3
f 10/9/4 11/8/4 12/10/4
f 13/11/5 14/10/5 15/5/5
f 16/2/6 17/5/6 18/12/6
f 19/3/7 20/2/7 21/13/7
f 22/8/8 23/7/8 24/14/8
f 25/10/9 26/8/9 27/15/9
f 28/5/10 29/10/10 30/16/10
f 31/2/11 32/12/11 33/13/11
f 34/3/12 35/13/12 36/17/12
f 37/8/13 38/14/13 39/15/13
f 40/10/14 41/15/14 42/16/14
f 43/5/15 44/16/15 45/12/15
f 46/13/16 47/12/16 48/18/16
f 49/17/17 50/13/17 51/19/17
f 52/15/18 53/14/18 54/20/18
f 55/16/19 56/15/19 57/21/19
f 58/12/20 59/16/20 60/22/20
f 61/1/1 62/2/1 63/3/1
f 64/2/2 65/4/2 66/5/2
f 67/6/3 68/7/3 69/8/3
f 70/9/4 71/8/4 72/10/4
f 73/11/5 74/10/5 75/5/5
f 76/2/6 77/5/6 78/12/6
f 79/3/7 80/2/7 81/13/7
f 82/8/8 83/7/8 84/14/8
f 85/10/9 86/8/9 87/15/9
f 88/5/10 89/10/10 90/16/10
f 91/2/11 92/12/11 93/13/11
f 94/3/12 95/13/12 96/17/12
f 97/8/13 98/14/13 99/15/13
f 100/10/14 101/15/14 102/16/14
f 103/5/15 104/16/15 105/12/15
f 106/13/16 107/12/16 108/18/16
f 109/17/17 110/13/17 111/19/17
f 112/15/18 113/14/18 114/20/18
f 115/16/19 116/15/19 117/21/19
f 118/12/20 119/16/20 120/22/20
f 121/1/1 122/2/1 123/3/1
s 1
f 124/2/2 125/4/2 126/5/2
s 0
f 127/6/3 128/7/3 129/8/3
f 130/9/4 131/8/4 132/10/4
f 133/11/5 134/10/5 135/5/5
f 136/2/6 137/5/6 138/12/6
f 139/3/7 140/2/7 141/13/7
f 142/8/21 143/7/21 144/14/21
f 145/10/22 146/8/22 147/15/22
f 148/5/10 149/10/10 150/16/10
f 151/2/11 152/12/11 153/13/11
f 154/3/12 155/13/12 156/17/12
f 157/8/13 158/14/13 159/15/13
f 160/10/14 161/15/14 162/16/14
f 163/5/15 164/16/15 165/12/15
f 166/13/16 167/12/16 168/18/16
f 169/17/17 170/13/17 171/19/17
f 172/15/18 173/14/18 174/20/18
f 175/16/19 176/15/19 177/21/19
f 178/12/20 179/16/20 180/22/20
f 181/1/1 182/2/1 183/3/1
f 184/2/2 185/4/2 186/5/2
f 187/6/3 188/7/3 189/8/3
f 190/9/4 191/8/4 192/10/4
f 193/11/5 194/10/5 195/5/5
f 196/2/6 197/5/6 198/12/6
f 199/3/7 200/2/7 201/13/7
f 202/8/21 203/7/21 204/14/21
f 205/10/22 206/8/22 207/15/22
f 208/5/10 209/10/10 210/16/10
f 211/2/11 212/12/11 213/13/11
f 214/3/12 215/13/12 216/17/12
f 217/8/13 218/14/13 219/15/13
f 220/10/14 221/15/14 222/16/14
f 223/5/23 224/16/23 225/12/23
f 226/13/16 227/12/16 228/18/16
f 229/17/17 230/13/17 231/19/17
f 232/15/18 233/14/18 234/20/18
f 235/16/19 236/15/19 237/21/19
f 238/12/20 239/16/20 240/22/20
f 241/1/1 242/2/1 243/3/1
f 244/2/24 245/4/24 246/5/24
f 247/6/3 248/7/3 249/8/3
f 250/9/4 251/8/4 252/10/4
f 253/11/5 254/10/5 255/5/5
f 256/2/6 257/5/6 258/12/6
f 259/3/7 260/2/7 261/13/7
f 262/8/21 263/7/21 264/14/21
f 265/10/22 266/8/22 267/15/22
f 268/5/10 269/10/10 270/16/10
f 271/2/11 272/12/11 273/13/11
f 274/3/12 275/13/12 276/17/12
f 277/8/13 278/14/13 279/15/13
f 280/10/14 281/15/14 282/16/14
f 283/5/15 284/16/15 285/12/15
f 286/13/16 287/12/16 288/18/16
f 289/17/17 290/13/17 291/19/17
f 292/15/18 293/14/18 294/20/18
f 295/16/19 296/15/19 297/21/19
f 298/12/20 299/16/20 300/22/20
s 1
f 301/1/1 302/2/1 303/3/1
s 0
f 304/2/2 305/4/2 306/5/2
f 307/6/3 308/7/3 309/8/3
f 310/9/4 311/8/4 312/10/4
s 1
f 313/11/5 314/10/5 315/5/5
s 0
f 316/2/6 317/5/6 318/12/6
f 319/3/7 320/2/7 321/13/7
f 322/8/8 323/7/8 324/14/8
f 325/10/9 326/8/9 327/15/9
f 328/5/10 329/10/10 330/16/10
f 331/2/11 332/12/11 333/13/11
f 334/3/12 335/13/12 336/17/12
f 337/8/13 338/14/13 339/15/13
f 340/10/14 341/15/14 342/16/14
f 343/5/15 344/16/15 345/12/15
f 346/13/16 347/12/16 348/18/16
f 349/17/17 350/13/17 351/19/17
f 352/15/18 353/14/18 354/20/18
f 355/16/19 356/15/19 357/21/19
f 358/12/20 359/16/20 360/22/20
f 361/1/1 362/2/1 363/3/1
f 364/2/2 365/4/2 366/5/2
f 367/6/3 368/7/3 369/8/3
s 1
f 370/9/4 371/8/4 372/10/4
s 0
f 373/11/5 374/10/5 375/5/5
f 376/2/6 377/5/6 378/12/6
f 379/3/7 380/2/7 381/13/7
f 382/8/21 383/7/21 384/14/21
f 385/10/22 386/8/22 387/15/22
f 388/5/10 389/10/10 390/16/10
f 391/2/11 392/12/11 393/13/11
f 394/3/12 395/13/12 396/17/12
f 397/8/13 398/14/13 399/15/13
f 400/10/14 401/15/14 402/16/14
f 403/5/15 404/16/15 405/12/15
f 406/13/16 407/12/16 408/18/16
f 409/17/17 410/13/17 411/19/17
f 412/15/18 413/14/18 414/20/18
f 415/16/19 416/15/19 417/21/19
f 418/12/20 419/16/20 420/22/20
f 421/1/1 422/2/1 423/3/1
f 424/2/2 425/4/2 426/5/2
f 427/6/3 428/7/3 429/8/3
f 430/9/4 431/8/4 432/10/4
f 433/11/5 434/10/5 435/5/5
s 1
f 436/2/6 437/5/6 438/12/6
s 0
f 439/3/7 440/2/7 441/13/7
f 442/8/21 443/7/21 444/14/21
f 445/10/22 446/8/22 447/15/22
f 448/5/10 449/10/10 450/16/10
f 451/2/11 452/12/11 453/13/11
f 454/3/12 455/13/12 456/17/12
f 457/8/13 458/14/13 459/15/13
f 460/10/14 461/15/14 462/16/14
f 463/5/15 464/16/15 465/12/15
f 466/13/16 467/12/16 468/18/16
f 469/17/17 470/13/17 471/19/17
f 472/15/18 473/14/18 474/20/18
f 475/16/19 476/15/19 477/21/19
f 478/12/20 479/16/20 480/22/20
f 481/1/1 482/2/1 483/3/1
f 484/2/2 485/4/2 486/5/2
f 487/6/3 488/7/3 489/8/3
f 490/9/4 491/8/4 492/10/4
f 493/11/5 494/10/5 495/5/5
f 496/2/6 497/5/6 498/12/6
f 499/3/7 500/2/7 501/13/7
f 502/8/21 503/7/21 504/14/21
f 505/10/22 506/8/22 507/15/22
f 508/5/10 509/10/10 510/16/10
f 511/2/25 512/12/25 513/13/25
f 514/3/12 515/13/12 516/17/12
f 517/8/13 518/14/13 519/15/13
f 520/10/14 521/15/14 522/16/14
f 523/5/23 524/16/23 525/12/23
f 526/13/16 527/12/16 528/18/16
f 529/17/17 530/13/17 531/19/17
f 532/15/18 533/14/18 534/20/18
f 535/16/19 536/15/19 537/21/19
f 538/12/20 539/16/20 540/22/20
f 541/1/1 542/2/1 543/3/1
f 544/2/2 545/4/2 546/5/2
f 547/6/3 548/7/3 549/8/3
f 550/9/4 551/8/4 552/10/4
f 553/11/5 554/10/5 555/5/5
f 556/2/6 557/5/6 558/12/6
f 559/3/7 560/2/7 561/13/7
f 562/8/21 563/7/21 564/14/21
f 565/10/22 566/8/22 567/15/22
f 568/5/10 569/10/10 570/16/10
f 571/2/11 572/12/11 573/13/11
f 574/3/12 575/13/12 576/17/12
f 577/8/13 578/14/13 579/15/13
f 580/10/14 581/15/14 582/16/14
f 583/5/15 584/16/15 585/12/15
f 586/13/16 587/12/16 588/18/16
f 589/17/17 590/13/17 591/19/17
f 592/15/18 593/14/18 594/20/18
f 595/16/19 596/15/19 597/21/19
f 598/12/20 599/16/20 600/22/20
f 601/1/1 602/2/1 603/3/1
f 604/2/2 605/4/2 606/5/2
f 607/6/3 608/7/3 609/8/3
f 610/9/4 611/8/4 612/10/4
f 613/11/5 614/10/5 615/5/5
f 616/2/6 617/5/6 618/12/6
f 619/3/7 620/2/7 621/13/7
s 1
f 622/8/8 623/7/8 624/14/8
s 0
f 625/10/9 626/8/9 627/15/9
f 628/5/10 629/10/10 630/16/10
f 631/2/11 632/12/11 633/13/11
f 634/3/12 635/13/12 636/17/12
f 637/8/13 638/14/13 639/15/13
f 640/10/14 641/15/14 642/16/14
f 643/5/15 644/16/15 645/12/15
f 646/13/16 647/12/16 648/18/16
f 649/17/17 650/13/17 651/19/17
f 652/15/18 653/14/18 654/20/18
f 655/16/19 656/15/19 657/21/19
f 658/12/20 659/16/20 660/22/20
f 661/1/1 662/2/1 663/3/1
f 664/2/24 665/4/24 666/5/24
f 667/6/3 668/7/3 669/8/3
f 670/9/4 671/8/4 672/10/4
f 673/11/5 674/10/5 675/5/5
f 676/2/6 677/5/6 678/12/6
f 679/3/7 680/2/7 681/13/7
f 682/8/21 683/7/21 684/14/21
f 685/10/22 686/8/22 687/15/22
f 688/5/10 689/10/10 690/16/10
f 691/2/11 692/12/11 693/13/11
f 694/3/12 695/13/12 696/17/12
f 697/8/13 698/14/13 699/15/13
f 700/10/14 701/15/14 702/16/14
f 703/5/15 704/16/15 705/12/15
f 706/13/16 707/12/16 708/18/16
f 709/17/17 710/13/17 711/19/17
f 712/15/18 713/14/18 714/20/18
f 715/16/19 716/15/19 717/21/19
f 718/12/20 719/16/20 720/22/20
