# Blender 4.5.4 LTS
# www.blender.org
mtllib tree4_log.mtl
o Lowpoly_Tree_05_Material_0
v -0.245315 0.901972 -0.109377
v -0.177176 0.829786 -0.170869
v -0.267954 0.889374 -0.118144
v -0.267954 0.889374 -0.118144
v -0.177176 0.829786 -0.170869
v -0.184671 0.806992 -0.156808
v -0.256940 0.887372 -0.096236
v -0.184671 0.806992 -0.156808
v -0.180984 0.827230 -0.133642
v -0.137620 0.789398 -0.133441
v -0.155497 0.815798 -0.180170
v -0.140690 0.837614 -0.165995
v -0.100155 0.735749 -0.124647
v 0.026110 0.686965 -0.036612
v -0.107301 0.709649 -0.139065
v -0.139888 0.710255 -0.099049
v -0.132634 0.697231 -0.127504
v -0.040394 0.685319 -0.018094
v -0.040394 0.685319 -0.018094
v -0.008415 0.719398 0.011787
v -0.116944 0.740657 -0.096456
v -0.142065 0.965766 -0.195811
v -0.114172 0.961607 -0.205956
v -0.133922 0.960410 -0.214568
v -0.120650 0.963104 -0.188802
v -0.114172 0.961607 -0.205956
v -0.142065 0.965766 -0.195811
v -0.017572 0.675056 -0.051575
v 0.026110 0.686965 -0.036612
v -0.003522 0.642757 -0.028908
v -0.003522 0.642757 -0.028908
v 0.026110 0.686965 -0.036612
v 0.040707 0.647746 -0.010221
v -0.003522 0.642757 -0.028908
v -0.020829 0.644657 0.016197
v -0.040394 0.685319 -0.018094
v -0.267954 0.889374 -0.118144
v -0.256940 0.887372 -0.096236
v -0.245315 0.901972 -0.109377
v 0.334171 1.099140 0.081398
v 0.351902 1.092955 0.081533
v 0.341331 1.095947 0.061798
v 0.063772 0.000000 -0.079676
v 0.087505 0.000000 -0.012913
v 0.000000 0.000000 -0.017072
v -0.091330 0.000000 -0.028276
v -0.058458 0.000000 -0.087808
v 0.015278 0.678914 0.031411
v -0.008415 0.719398 0.011787
v -0.020829 0.644657 0.016197
v 0.072728 0.922289 0.010867
v 0.108219 0.900491 0.026007
v 0.112698 0.924310 0.036195
v -0.180984 0.827230 -0.133642
v -0.184671 0.806992 -0.156808
v -0.137620 0.789398 -0.133441
v 0.128655 0.933242 0.015215
v 0.104201 0.932002 -0.008567
v 0.091219 0.953043 0.015740
v 0.051342 1.028236 -0.017815
v 0.066602 1.027818 -0.012455
v 0.077618 0.912983 -0.008536
v 0.351902 1.092955 0.081533
v 0.245150 0.929819 0.121764
v 0.256686 0.914657 0.116289
v 0.261997 0.916702 0.095796
v 0.252316 0.934044 0.085066
v 0.341331 1.095947 0.061798
v 0.341331 1.095947 0.061798
v 0.351902 1.092955 0.081533
v 0.261997 0.916702 0.095796
v 0.108219 0.900491 0.026007
v 0.109919 0.898160 0.000704
v 0.261997 0.916702 0.095796
v 0.245150 0.929819 0.121764
v 0.108219 0.900491 0.026007
v 0.256686 0.914657 0.116289
v 0.065304 0.800750 0.050266
v 0.076518 0.797097 0.020392
v 0.109919 0.898160 0.000704
v 0.072728 0.922289 0.010867
v 0.048698 0.809094 0.008852
v 0.037666 0.811111 0.038820
v 0.108219 0.900491 0.026007
v 0.072728 0.922289 0.010867
v 0.065304 0.800750 0.050266
v 0.109919 0.898160 0.000704
v 0.048698 0.809094 0.008852
v 0.077618 0.912983 -0.008536
v 0.013007 0.450417 -0.006247
v 0.025191 0.442446 0.024301
v 0.030908 0.313011 -0.056724
v -0.120650 0.963104 -0.188802
v -0.164950 0.838205 -0.151339
v -0.140690 0.837614 -0.165995
v -0.120650 0.963104 -0.188802
v -0.140690 0.837614 -0.165995
v -0.114172 0.961607 -0.205956
v -0.142065 0.965766 -0.195811
v -0.177176 0.829786 -0.170869
v -0.164950 0.838205 -0.151339
v -0.114172 0.961607 -0.205956
v -0.155497 0.815798 -0.180170
v -0.133922 0.960410 -0.214568
v -0.120650 0.963104 -0.188802
v -0.142065 0.965766 -0.195811
v -0.164950 0.838205 -0.151339
v 0.065304 0.800750 0.050266
v 0.015278 0.678914 0.031411
v 0.037427 0.683448 0.024065
v 0.076518 0.797097 0.020392
v 0.040707 0.647746 -0.010221
v 0.026110 0.686965 -0.036612
v 0.048698 0.809094 0.008852
v 0.076518 0.797097 0.020392
v 0.010720 0.728462 -0.025810
v -0.132634 0.697231 -0.127504
v -0.139888 0.710255 -0.099049
v -0.184671 0.806992 -0.156808
v -0.155497 0.815798 -0.180170
v -0.100155 0.735749 -0.124647
v -0.107301 0.709649 -0.139065
v -0.139888 0.710255 -0.099049
v -0.116944 0.740657 -0.096456
v -0.137620 0.789398 -0.133441
v -0.184671 0.806992 -0.156808
v -0.155497 0.815798 -0.180170
v -0.132634 0.697231 -0.127504
v 0.013581 0.407411 0.055827
v 0.025191 0.442446 0.024301
v 0.040707 0.647746 -0.010221
v 0.037427 0.683448 0.024065
v 0.015278 0.678914 0.031411
v 0.013581 0.407411 0.055827
v -0.050070 0.445203 0.056226
v -0.018648 0.439859 0.067993
v 0.015278 0.678914 0.031411
v -0.020829 0.644657 0.016197
v -0.051271 0.405249 -0.009430
v -0.061953 0.442176 0.024672
v -0.003522 0.642757 -0.028908
v -0.018539 0.448283 -0.017956
v -0.051271 0.405249 -0.009430
v 0.073838 0.000000 0.045042
v 0.087505 0.000000 -0.012913
v 0.066959 0.272567 -0.007425
v -0.065777 0.000000 0.054624
v -0.005112 0.000000 0.076708
v 0.013581 0.407411 0.055827
v -0.040634 0.260722 0.037461
v -0.051271 0.405249 -0.009430
v -0.065777 0.000000 0.054624
v -0.051271 0.405249 -0.009430
v -0.058458 0.000000 -0.087808
v -0.091330 0.000000 -0.028276
v 0.030908 0.313011 -0.056724
v 0.063772 0.000000 -0.079676
v -0.004438 0.000000 -0.104280
v 0.097516 1.116832 0.038825
v 0.050260 1.022119 0.008178
v 0.068682 1.032022 0.006973
v 0.103683 1.120523 0.018525
v 0.066602 1.027818 -0.012455
v 0.058974 1.056373 -0.007316
v 0.058974 1.056373 -0.007316
v 0.066602 1.027818 -0.012455
v 0.025003 1.091297 -0.047967
v 0.015069 1.096365 -0.028223
v 0.058974 1.056373 -0.007316
v 0.025003 1.091297 -0.047967
v 0.015069 1.096365 -0.028223
v 0.050260 1.022119 0.008178
v 0.051188 1.052557 0.003879
v -0.177176 0.829786 -0.170869
v -0.245315 0.901972 -0.109377
v -0.164950 0.838205 -0.151339
v -0.267954 0.889374 -0.118144
v -0.184671 0.806992 -0.156808
v -0.256940 0.887372 -0.096236
v -0.116944 0.740657 -0.096456
v -0.139888 0.710255 -0.099049
v -0.040394 0.685319 -0.018094
v -0.116944 0.740657 -0.096456
v 0.010720 0.728462 -0.025810
v -0.100155 0.735749 -0.124647
v -0.107301 0.709649 -0.139065
v 0.026110 0.686965 -0.036612
v -0.017572 0.675056 -0.051575
v -0.107301 0.709649 -0.139065
v -0.017572 0.675056 -0.051575
v -0.132634 0.697231 -0.127504
v -0.040394 0.685319 -0.018094
v -0.132634 0.697231 -0.127504
v -0.017572 0.675056 -0.051575
v -0.116944 0.740657 -0.096456
v -0.008415 0.719398 0.011787
v 0.010720 0.728462 -0.025810
v 0.026110 0.686965 -0.036612
v -0.100155 0.735749 -0.124647
v 0.010720 0.728462 -0.025810
v -0.008415 0.719398 0.011787
v -0.040394 0.685319 -0.018094
v -0.020829 0.644657 0.016197
v 0.077618 0.912983 -0.008536
v 0.104201 0.932002 -0.008567
v 0.109919 0.898160 0.000704
v -0.155497 0.815798 -0.180170
v -0.184671 0.806992 -0.156808
v -0.177176 0.829786 -0.170869
v 0.091219 0.953043 0.015740
v 0.072728 0.922289 0.010867
v 0.112698 0.924310 0.036195
v -0.017572 0.675056 -0.051575
v -0.003522 0.642757 -0.028908
v -0.040394 0.685319 -0.018094
v 0.091219 0.953043 0.015740
v 0.112698 0.924310 0.036195
v 0.128655 0.933242 0.015215
v 0.050260 1.022119 0.008178
v 0.051342 1.028236 -0.017815
v 0.072728 0.922289 0.010867
v 0.077618 0.912983 -0.008536
v 0.066602 1.027818 -0.012455
v 0.104201 0.932002 -0.008567
v 0.051342 1.028236 -0.017815
v 0.077618 0.912983 -0.008536
v 0.072728 0.922289 0.010867
v 0.050260 1.022119 0.008178
v 0.072728 0.922289 0.010867
v 0.091219 0.953043 0.015740
v 0.068682 1.032022 0.006973
v 0.050260 1.022119 0.008178
v 0.091219 0.953043 0.015740
v 0.261997 0.916702 0.095796
v 0.351902 1.092955 0.081533
v 0.256686 0.914657 0.116289
v 0.334171 1.099140 0.081398
v 0.238491 0.944265 0.105668
v 0.245150 0.929819 0.121764
v 0.341331 1.095947 0.061798
v 0.252316 0.934044 0.085066
v 0.238491 0.944265 0.105668
v 0.351902 1.092955 0.081533
v 0.334171 1.099140 0.081398
v 0.245150 0.929819 0.121764
v 0.334171 1.099140 0.081398
v 0.341331 1.095947 0.061798
v 0.238491 0.944265 0.105668
v 0.245150 0.929819 0.121764
v 0.238491 0.944265 0.105668
v 0.112698 0.924310 0.036195
v 0.245150 0.929819 0.121764
v 0.112698 0.924310 0.036195
v 0.108219 0.900491 0.026007
v 0.238491 0.944265 0.105668
v 0.128655 0.933242 0.015215
v 0.112698 0.924310 0.036195
v 0.252316 0.934044 0.085066
v 0.104201 0.932002 -0.008567
v 0.128655 0.933242 0.015215
v 0.256686 0.914657 0.116289
v 0.108219 0.900491 0.026007
v 0.261997 0.916702 0.095796
v 0.238491 0.944265 0.105668
v 0.252316 0.934044 0.085066
v 0.128655 0.933242 0.015215
v 0.065304 0.800750 0.050266
v 0.072728 0.922289 0.010867
v 0.037666 0.811111 0.038820
v 0.109919 0.898160 0.000704
v 0.076518 0.797097 0.020392
v 0.048698 0.809094 0.008852
v 0.108219 0.900491 0.026007
v 0.065304 0.800750 0.050266
v 0.109919 0.898160 0.000704
v 0.072728 0.922289 0.010867
v 0.077618 0.912983 -0.008536
v 0.048698 0.809094 0.008852
v 0.030908 0.313011 -0.056724
v 0.025191 0.442446 0.024301
v 0.066959 0.272567 -0.007425
v 0.013007 0.450417 -0.006247
v 0.030908 0.313011 -0.056724
v -0.018539 0.448283 -0.017956
v -0.155497 0.815798 -0.180170
v -0.114172 0.961607 -0.205956
v -0.140690 0.837614 -0.165995
v -0.142065 0.965766 -0.195811
v -0.133922 0.960410 -0.214568
v -0.177176 0.829786 -0.170869
v -0.133922 0.960410 -0.214568
v -0.155497 0.815798 -0.180170
v -0.177176 0.829786 -0.170869
v 0.010720 0.728462 -0.025810
v 0.076518 0.797097 0.020392
v 0.026110 0.686965 -0.036612
v -0.132634 0.697231 -0.127504
v -0.155497 0.815798 -0.180170
v -0.107301 0.709649 -0.139065
v -0.100155 0.735749 -0.124647
v -0.137620 0.789398 -0.133441
v -0.116944 0.740657 -0.096456
v -0.155497 0.815798 -0.180170
v -0.137620 0.789398 -0.133441
v -0.100155 0.735749 -0.124647
v -0.184671 0.806992 -0.156808
v -0.139888 0.710255 -0.099049
v -0.137620 0.789398 -0.133441
v 0.037427 0.683448 0.024065
v 0.013581 0.407411 0.055827
v 0.040707 0.647746 -0.010221
v 0.040707 0.647746 -0.010221
v 0.025191 0.442446 0.024301
v 0.013007 0.450417 -0.006247
v -0.020829 0.644657 0.016197
v -0.050070 0.445203 0.056226
v 0.015278 0.678914 0.031411
v 0.015278 0.678914 0.031411
v -0.018648 0.439859 0.067993
v 0.013581 0.407411 0.055827
v -0.003522 0.642757 -0.028908
v -0.051271 0.405249 -0.009430
v -0.020829 0.644657 0.016197
v -0.050070 0.445203 0.056226
v -0.020829 0.644657 0.016197
v -0.061953 0.442176 0.024672
v 0.073838 0.000000 0.045042
v -0.005112 0.000000 0.076708
v -0.004438 0.000000 -0.104280
v -0.065777 0.000000 0.054624
v -0.040634 0.260722 0.037461
v -0.065777 0.000000 0.054624
v 0.013581 0.407411 0.055827
v 0.013581 0.407411 0.055827
v -0.005112 0.000000 0.076708
v 0.073838 0.000000 0.045042
v -0.065777 0.000000 0.054624
v -0.051271 0.405249 -0.009430
v -0.091330 0.000000 -0.028276
v -0.058458 0.000000 -0.087808
v 0.030908 0.313011 -0.056724
v -0.004438 0.000000 -0.104280
v 0.097516 1.116832 0.038825
v 0.051188 1.052557 0.003879
v 0.050260 1.022119 0.008178
v 0.051342 1.028236 -0.017815
v 0.025003 1.091297 -0.047967
v 0.066602 1.027818 -0.012455
v 0.058974 1.056373 -0.007316
v 0.015069 1.096365 -0.028223
v 0.051188 1.052557 0.003879
v -0.180984 0.827230 -0.133642
v -0.164950 0.838205 -0.151339
v -0.245315 0.901972 -0.109377
v -0.256940 0.887372 -0.096236
v -0.140690 0.837614 -0.165995
v -0.164950 0.838205 -0.151339
v -0.180984 0.827230 -0.133642
v -0.137620 0.789398 -0.133441
v 0.091219 0.953043 0.015740
v 0.104201 0.932002 -0.008567
v 0.066602 1.027818 -0.012455
v 0.068682 1.032022 0.006973
v 0.109919 0.898160 0.000704
v 0.104201 0.932002 -0.008567
v 0.252316 0.934044 0.085066
v 0.261997 0.916702 0.095796
v 0.073838 0.000000 0.045042
v 0.066959 0.272567 -0.007425
v 0.025191 0.442446 0.024301
v 0.013581 0.407411 0.055827
v -0.040634 0.260722 0.037461
v 0.013581 0.407411 0.055827
v -0.018648 0.439859 0.067993
v -0.050070 0.445203 0.056226
v -0.040634 0.260722 0.037461
v -0.050070 0.445203 0.056226
v -0.061953 0.442176 0.024672
v -0.051271 0.405249 -0.009430
v -0.058458 0.000000 -0.087808
v -0.051271 0.405249 -0.009430
v -0.018539 0.448283 -0.017956
v 0.030908 0.313011 -0.056724
v 0.037427 0.683448 0.024065
v 0.040707 0.647746 -0.010221
v 0.076518 0.797097 0.020392
v 0.065304 0.800750 0.050266
v -0.008415 0.719398 0.011787
v 0.015278 0.678914 0.031411
v 0.065304 0.800750 0.050266
v 0.037666 0.811111 0.038820
v -0.008415 0.719398 0.011787
v 0.037666 0.811111 0.038820
v 0.048698 0.809094 0.008852
v 0.010720 0.728462 -0.025810
v 0.013007 0.450417 -0.006247
v -0.018539 0.448283 -0.017956
v -0.003522 0.642757 -0.028908
v 0.040707 0.647746 -0.010221
v 0.063772 0.000000 -0.079676
v 0.030908 0.313011 -0.056724
v 0.066959 0.272567 -0.007425
v 0.087505 0.000000 -0.012913
v 0.068682 1.032022 0.006973
v 0.066602 1.027818 -0.012455
v 0.103683 1.120523 0.018525
v 0.097516 1.116832 0.038825
v 0.058974 1.056373 -0.007316
v 0.051188 1.052557 0.003879
v 0.097516 1.116832 0.038825
v 0.103683 1.120523 0.018525
v 0.051342 1.028236 -0.017815
v 0.050260 1.022119 0.008178
v 0.015069 1.096365 -0.028223
v 0.025003 1.091297 -0.047967
vn -0.0444 0.6232 -0.7808
vn -0.6077 -0.2626 -0.7495
vn -0.2388 -0.7122 0.6601
vn 0.8413 -0.2647 -0.4714
vn 0.6164 0.2447 -0.7485
vn -0.4404 -0.8535 0.2784
vn -0.7022 0.0355 0.7111
vn 0.0519 0.9660 -0.2533
vn 0.1347 0.9902 -0.0355
vn 0.3934 -0.4073 -0.8242
vn 0.3940 -0.4077 -0.8237
vn -0.7609 -0.5913 -0.2671
vn -0.5552 0.7554 0.3481
vn 0.3294 0.9436 -0.0334
vn -0.0000 -1.0000 -0.0000
vn -0.4887 0.1321 0.8624
vn -0.5081 -0.2562 0.8223
vn -0.5246 -0.5981 0.6059
vn 0.4096 0.7866 -0.4621
vn 0.3314 -0.0004 -0.9435
vn 0.3944 -0.0316 0.9184
vn 0.3721 -0.3293 -0.8678
vn 0.7672 -0.4299 -0.4761
vn 0.0613 -0.9935 0.0956
vn -0.3905 -0.5607 0.7301
vn 0.9024 -0.2268 0.3665
vn -0.9149 0.2005 -0.3503
vn -0.2034 0.3131 0.9277
vn 0.1784 -0.2105 -0.9612
vn 0.9227 0.2330 -0.3072
vn 0.5170 0.0724 0.8529
vn 0.9298 -0.0833 0.3584
vn -0.8616 0.2979 0.4110
vn 0.3987 -0.2681 -0.8770
vn -0.2498 0.3584 0.8995
vn 0.3536 -0.2832 0.8915
vn 0.8178 -0.0792 -0.5701
vn 0.4398 0.1718 -0.8815
vn -0.9000 -0.4348 -0.0304
vn 0.7848 0.1209 -0.6079
vn -0.5460 0.3470 0.7626
vn -0.4808 -0.4317 -0.7632
vn 0.9439 -0.0159 0.3300
vn 0.2982 0.0836 0.9508
vn -0.3164 0.1872 0.9300
vn -0.8794 0.1598 -0.4485
vn -0.2030 -0.0394 -0.9784
vn 0.9710 0.0686 0.2290
vn -0.3414 0.0637 0.9378
vn -0.8299 0.1160 0.5457
vn -0.8703 0.1084 -0.4805
vn 0.3375 0.1040 -0.9356
vn 0.2821 -0.4199 0.8626
vn 0.2192 0.2292 -0.9484
vn 0.8432 0.3049 -0.4427
vn 0.6353 0.7623 0.1240
vn -0.5640 0.1323 0.8151
vn 0.3313 0.7733 -0.5407
vn -0.6221 -0.7437 0.2448
vn -0.5400 0.3420 0.7690
vn 0.1423 0.9860 -0.0869
vn 0.3996 -0.6352 -0.6610
vn 0.1771 -0.8395 -0.5136
vn -0.2611 -0.9583 0.1158
vn -0.0288 0.9750 0.2204
vn 0.6230 0.4052 -0.6690
vn -0.7609 0.1634 0.6279
vn 0.1665 -0.2342 -0.9578
vn -0.5361 -0.3084 -0.7858
vn -0.5324 0.1894 0.8250
vn -0.7519 -0.5652 -0.3393
vn 0.3830 0.7084 0.5929
vn -0.9709 -0.2210 -0.0924
vn 0.0218 -0.0320 -0.9993
vn -0.9640 -0.2305 -0.1324
vn -0.2188 -0.0230 0.9755
vn 0.0049 0.1117 0.9937
vn 0.8814 -0.4346 0.1851
vn -0.5872 0.4664 0.6615
vn -0.7152 0.3026 -0.6300
vn 0.0624 0.2003 0.9777
vn -0.8151 0.4455 -0.3703
vn -0.4684 0.5524 0.6895
vn -0.5177 -0.2524 0.8175
vn -0.2617 0.9436 0.2027
vn 0.0544 0.9927 -0.1077
vn 0.1334 -0.9890 -0.0641
vn 0.1834 0.9241 -0.3353
vn -0.2613 0.3121 0.9134
vn 0.2679 -0.2688 -0.9252
vn 0.9226 -0.3735 0.0964
vn -0.9225 0.2017 -0.3292
vn 0.8701 0.2886 -0.3996
vn 0.3025 0.3631 -0.8813
vn 0.8562 -0.3151 -0.4095
vn -0.8903 0.1511 -0.4296
vn -0.4647 -0.1387 -0.8745
vn 0.2791 0.3375 -0.8990
vn -0.1924 -0.4291 -0.8825
vn 0.7430 0.5750 0.3424
vn 0.8190 0.5737 0.0108
vn -0.2893 0.3885 0.8749
vn 0.9844 -0.0663 0.1632
vn 0.9076 -0.1354 -0.3973
vn -0.5622 0.2412 0.7911
vn 0.4204 0.0787 0.9039
vn -0.9201 0.1555 -0.3596
vn -0.9229 0.2012 0.3283
vn -0.5697 0.1086 0.8146
vn 0.3721 0.0305 0.9277
vn -0.9525 0.0805 0.2936
vn -0.2871 0.1755 -0.9417
vn -0.6992 0.1208 0.7047
vn 0.3085 -0.3024 -0.9019
vn 0.4132 0.7348 0.5379
vn 0.5964 0.2676 0.7568
vn 0.5963 0.2676 0.7568
vn 0.4503 0.5182 0.7271
vn 0.4501 0.5186 0.7270
vn 0.4500 0.5187 0.7269
vn 0.9436 0.3280 0.0459
vn 0.9436 0.3279 0.0459
vn 0.9436 0.3279 0.0458
vn 0.5331 -0.1640 -0.8300
vn 0.8686 0.1181 0.4813
vn -0.0870 -0.1570 0.9838
vn -0.0871 -0.1570 0.9838
vn -0.9902 -0.1103 0.0852
vn -0.9902 -0.1103 0.0853
vn -0.3370 0.1742 -0.9253
vn -0.3370 0.1742 -0.9252
vn -0.3369 0.1742 -0.9253
vn 0.8796 -0.2904 0.3768
vn -0.4922 0.0346 0.8698
vn -0.8071 0.5038 -0.3078
vn 0.3774 -0.0763 -0.9229
vn 0.8984 0.1027 -0.4270
vn 0.9208 -0.3772 0.0996
vn 0.9208 -0.3772 0.0997
vn -0.7581 0.6248 -0.1871
vn -0.7576 0.6254 -0.1866
vn -0.7577 0.6254 -0.1866
vn -0.8480 -0.4844 -0.2153
vn -0.8479 -0.4844 -0.2153
vt 0.000000 1.000000
s 0
usemtl Material.004
f 1/1/1 2/1/1 3/1/1
f 4/1/2 5/1/2 6/1/2
f 7/1/3 8/1/3 9/1/3
f 10/1/4 11/1/4 12/1/4
f 13/1/5 14/1/5 15/1/5
f 16/1/6 17/1/6 18/1/6
f 19/1/7 20/1/7 21/1/7
f 22/1/8 23/1/8 24/1/8
f 25/1/9 26/1/9 27/1/9
f 28/1/10 29/1/10 30/1/10
f 31/1/11 32/1/11 33/1/11
f 34/1/12 35/1/12 36/1/12
f 37/1/13 38/1/13 39/1/13
f 40/1/14 41/1/14 42/1/14
f 43/1/15 44/1/15 45/1/15
f 46/1/15 47/1/15 45/1/15
f 48/1/16 49/1/16 50/1/16
f 51/1/17 52/1/17 53/1/17
f 54/1/18 55/1/18 56/1/18
f 57/1/19 58/1/19 59/1/19
f 60/1/20 61/1/20 62/1/20
f 63/1/21 64/1/21 65/1/21
f 66/1/22 67/1/22 68/1/22
s 1
f 69/1/23 70/1/23 71/1/23
s 0
f 72/1/24 73/1/24 74/1/24
f 75/1/25 76/1/25 77/1/25
f 78/1/26 79/1/26 80/1/26
f 81/1/27 82/1/27 83/1/27
f 84/1/28 85/1/28 86/1/28
f 87/1/29 88/1/29 89/1/29
f 90/1/30 91/1/30 92/1/30
f 93/1/31 94/1/31 95/1/31
f 96/1/32 97/1/32 98/1/32
f 99/1/33 100/1/33 101/1/33
f 102/1/34 103/1/34 104/1/34
f 105/1/35 106/1/35 107/1/35
f 108/1/36 109/1/36 110/1/36
f 111/1/37 112/1/37 113/1/37
f 114/1/38 115/1/38 116/1/38
f 117/1/39 118/1/39 119/1/39
f 120/1/40 121/1/40 122/1/40
f 123/1/41 124/1/41 125/1/41
f 126/1/42 127/1/42 128/1/42
f 129/1/43 130/1/43 131/1/43
f 132/1/44 133/1/44 134/1/44
f 135/1/45 136/1/45 137/1/45
f 138/1/46 139/1/46 140/1/46
f 141/1/47 142/1/47 143/1/47
f 144/1/48 145/1/48 146/1/48
f 147/1/49 148/1/49 149/1/49
f 150/1/50 151/1/50 152/1/50
f 153/1/51 154/1/51 155/1/51
f 156/1/52 157/1/52 158/1/52
f 159/1/53 160/1/53 161/1/53
f 162/1/54 163/1/54 164/1/54
f 165/1/55 166/1/55 167/1/55
f 168/1/56 169/1/56 170/1/56
f 171/1/57 172/1/57 173/1/57
f 174/1/58 175/1/58 176/1/58
f 177/1/59 178/1/59 179/1/59
f 180/1/60 181/1/60 182/1/60
f 183/1/61 184/1/61 185/1/61
s 1
f 186/1/62 187/1/62 188/1/62
s 0
f 189/1/63 190/1/63 191/1/63
f 192/1/64 193/1/64 194/1/64
f 195/1/65 196/1/65 197/1/65
f 198/1/66 199/1/66 200/1/66
f 201/1/67 202/1/67 203/1/67
f 204/1/68 205/1/68 206/1/68
f 207/1/69 208/1/69 209/1/69
f 210/1/70 211/1/70 212/1/70
f 213/1/71 214/1/71 215/1/71
f 216/1/72 217/1/72 218/1/72
f 219/1/73 220/1/73 221/1/73
f 222/1/74 223/1/74 224/1/74
f 225/1/75 226/1/75 227/1/75
f 228/1/76 229/1/76 230/1/76
f 231/1/77 232/1/77 233/1/77
f 234/1/78 235/1/78 236/1/78
f 237/1/79 238/1/79 239/1/79
f 240/1/80 241/1/80 242/1/80
f 243/1/81 244/1/81 245/1/81
f 246/1/82 247/1/82 248/1/82
f 249/1/83 250/1/83 251/1/83
f 252/1/84 253/1/84 254/1/84
f 255/1/85 256/1/85 257/1/85
f 258/1/86 259/1/86 260/1/86
f 261/1/87 262/1/87 263/1/87
f 264/1/88 265/1/88 266/1/88
f 267/1/89 268/1/89 269/1/89
f 270/1/90 271/1/90 272/1/90
f 273/1/91 274/1/91 275/1/91
f 276/1/92 277/1/92 278/1/92
f 279/1/93 280/1/93 281/1/93
f 282/1/94 283/1/94 284/1/94
f 285/1/95 286/1/95 287/1/95
f 288/1/96 289/1/96 290/1/96
f 291/1/97 292/1/97 293/1/97
f 294/1/98 295/1/98 296/1/98
f 297/1/99 298/1/99 299/1/99
f 300/1/100 301/1/100 302/1/100
f 303/1/101 304/1/101 305/1/101
f 306/1/102 307/1/102 308/1/102
f 309/1/103 310/1/103 311/1/103
f 312/1/104 313/1/104 314/1/104
f 315/1/105 316/1/105 317/1/105
f 318/1/106 319/1/106 320/1/106
f 321/1/107 322/1/107 323/1/107
f 324/1/108 325/1/108 326/1/108
f 44/1/15 327/1/15 45/1/15
f 327/1/15 328/1/15 45/1/15
f 47/1/15 329/1/15 45/1/15
f 330/1/15 46/1/15 45/1/15
f 329/1/15 43/1/15 45/1/15
s 1
f 331/1/109 332/1/109 333/1/109
s 0
f 334/1/110 335/1/110 336/1/110
f 337/1/111 338/1/111 339/1/111
f 340/1/112 341/1/112 342/1/112
f 343/1/113 344/1/113 345/1/113
f 346/1/114 347/1/114 348/1/114
f 349/1/115 350/1/115 351/1/115
f 328/1/15 330/1/15 45/1/15
s 1
f 352/1/116 353/1/116 354/1/117
f 352/1/116 354/1/117 355/1/116
f 356/1/118 357/1/119 358/1/119
f 356/1/118 358/1/119 359/1/120
f 360/1/121 361/1/121 362/1/122
f 360/1/121 362/1/122 363/1/123
f 364/1/124 365/1/124 366/1/124
f 364/1/124 366/1/124 367/1/124
f 368/1/125 369/1/125 370/1/125
f 368/1/125 370/1/125 371/1/125
f 372/1/126 373/1/126 374/1/127
f 372/1/126 374/1/127 375/1/127
f 376/1/128 377/1/129 378/1/129
f 376/1/128 378/1/129 379/1/128
f 380/1/130 381/1/131 382/1/130
f 380/1/130 382/1/130 383/1/132
f 384/1/133 385/1/133 386/1/133
f 384/1/133 386/1/133 387/1/133
f 388/1/134 389/1/134 390/1/134
f 388/1/134 390/1/134 391/1/134
f 392/1/135 393/1/135 394/1/135
f 392/1/135 394/1/135 395/1/135
f 396/1/136 397/1/136 398/1/136
f 396/1/136 398/1/136 399/1/136
f 400/1/137 401/1/137 402/1/137
f 400/1/137 402/1/137 403/1/137
f 404/1/138 405/1/138 406/1/138
f 404/1/138 406/1/138 407/1/139
f 408/1/140 409/1/141 410/1/142
f 408/1/140 410/1/142 411/1/142
f 412/1/143 413/1/143 414/1/143
f 412/1/143 414/1/143 415/1/144
