# Blender 4.5.4 LTS
# www.blender.org
mtllib tree1_leaves.mtl
o Lowpoly_Tree_04_Material.002_0
v -0.331287 0.981888 0.139199
v -0.229969 1.284221 0.024062
v -0.369320 0.976230 -0.001994
v -0.222403 1.111670 0.257108
v -0.229969 1.284221 0.024062
v -0.331287 0.981888 0.139199
v -0.222403 1.111670 0.257108
v -0.109693 1.287500 0.265483
v -0.229969 1.284221 0.024062
v -0.328358 1.130459 -0.148218
v -0.275499 1.038668 -0.290795
v -0.308870 0.896635 -0.185226
v -0.369320 0.976230 -0.001994
v -0.308870 0.896635 -0.185226
v -0.272119 0.828897 0.048592
v -0.331287 0.981888 0.139199
v -0.272119 0.828897 0.048592
v -0.240627 0.893406 0.210694
v -0.135313 1.178564 -0.326255
v 0.073160 1.031858 -0.332288
v -0.139150 0.929455 -0.319232
v -0.275499 1.038668 -0.290795
v -0.139150 0.929455 -0.319232
v -0.308870 0.896635 -0.185226
v -0.213731 1.261613 -0.210542
v -0.135313 1.178564 -0.326255
v -0.275499 1.038668 -0.290795
v -0.036288 1.376913 -0.147323
v 0.148767 1.305817 -0.225381
v -0.135313 1.178564 -0.326255
v 0.113843 1.152294 -0.322653
v 0.329419 1.019758 -0.189417
v 0.073160 1.031858 -0.332288
v 0.073160 1.031858 -0.332288
v 0.329419 1.019758 -0.189417
v -0.139150 0.929455 -0.319232
v 0.440838 0.998890 -0.051789
v 0.496071 1.148748 0.086444
v 0.465548 0.981598 0.093001
v 0.496071 1.148748 0.086444
v 0.398801 0.999379 0.277750
v 0.465548 0.981598 0.093001
v 0.329419 1.019758 -0.189417
v 0.456258 1.166130 -0.073942
v 0.440838 0.998890 -0.051789
v 0.352260 1.183345 -0.185554
v 0.295489 1.343685 0.019090
v 0.456258 1.166130 -0.073942
v 0.456258 1.166130 -0.073942
v 0.295489 1.343685 0.019090
v 0.496071 1.148748 0.086444
v 0.295489 1.343685 0.019090
v 0.443344 1.161501 0.249752
v 0.496071 1.148748 0.086444
v 0.231203 1.329181 0.294771
v 0.330998 1.176807 0.358353
v 0.443344 1.161501 0.249752
v 0.443344 1.161501 0.249752
v 0.294702 1.046669 0.364691
v 0.398801 0.999379 0.277750
v 0.173101 1.200225 0.402048
v 0.001001 1.283147 0.359406
v -0.093361 1.042700 0.338998
v 0.398801 0.999379 0.277750
v 0.294702 1.046669 0.364691
v -0.240627 0.893406 0.210694
v 0.231203 1.329181 0.294771
v 0.173101 1.200225 0.402048
v 0.330998 1.176807 0.358353
v 0.001001 1.283147 0.359406
v -0.109693 1.287500 0.265483
v -0.222403 1.111670 0.257108
v -0.093361 1.042700 0.338998
v -0.222403 1.111670 0.257108
v -0.240627 0.893406 0.210694
v 0.440838 0.998890 -0.051789
v -0.272119 0.828897 0.048592
v -0.155365 0.850245 -0.167100
v 0.329419 1.019758 -0.189417
v -0.155365 0.850245 -0.167100
v -0.139150 0.929455 -0.319232
v 0.139137 0.926930 0.155955
v 0.398801 0.999379 0.277750
v -0.240627 0.893406 0.210694
v 0.139137 0.926930 0.155955
v -0.240627 0.893406 0.210694
v -0.272119 0.828897 0.048592
v 0.011059 1.388141 0.174277
v 0.231203 1.329181 0.294771
v 0.295489 1.343685 0.019090
v 0.148767 1.305817 -0.225381
v -0.036288 1.376913 -0.147323
v 0.295489 1.343685 0.019090
v -0.036288 1.376913 -0.147323
v -0.229969 1.284221 0.024062
v 0.011059 1.388141 0.174277
v 0.011059 1.388141 0.174277
v -0.109693 1.287500 0.265483
v 0.001001 1.283147 0.359406
v -0.369320 0.976230 -0.001994
v -0.328358 1.130459 -0.148218
v -0.308870 0.896635 -0.185226
v -0.369320 0.976230 -0.001994
v -0.229969 1.284221 0.024062
v -0.328358 1.130459 -0.148218
v -0.240627 0.893406 0.210694
v -0.222403 1.111670 0.257108
v -0.331287 0.981888 0.139199
v -0.328358 1.130459 -0.148218
v -0.229969 1.284221 0.024062
v -0.213731 1.261613 -0.210542
v -0.328358 1.130459 -0.148218
v -0.213731 1.261613 -0.210542
v -0.275499 1.038668 -0.290795
v -0.331287 0.981888 0.139199
v -0.369320 0.976230 -0.001994
v -0.272119 0.828897 0.048592
v -0.135313 1.178564 -0.326255
v 0.113843 1.152294 -0.322653
v 0.073160 1.031858 -0.332288
v -0.135313 1.178564 -0.326255
v 0.148767 1.305817 -0.225381
v 0.113843 1.152294 -0.322653
v -0.275499 1.038668 -0.290795
v -0.135313 1.178564 -0.326255
v -0.139150 0.929455 -0.319232
v -0.213731 1.261613 -0.210542
v -0.036288 1.376913 -0.147323
v -0.135313 1.178564 -0.326255
v 0.113843 1.152294 -0.322653
v 0.148767 1.305817 -0.225381
v 0.352260 1.183345 -0.185554
v 0.113843 1.152294 -0.322653
v 0.352260 1.183345 -0.185554
v 0.329419 1.019758 -0.189417
v 0.440838 0.998890 -0.051789
v 0.456258 1.166130 -0.073942
v 0.496071 1.148748 0.086444
v 0.496071 1.148748 0.086444
v 0.443344 1.161501 0.249752
v 0.398801 0.999379 0.277750
v 0.329419 1.019758 -0.189417
v 0.352260 1.183345 -0.185554
v 0.456258 1.166130 -0.073942
v 0.352260 1.183345 -0.185554
v 0.148767 1.305817 -0.225381
v 0.295489 1.343685 0.019090
v 0.295489 1.343685 0.019090
v 0.231203 1.329181 0.294771
v 0.443344 1.161501 0.249752
v 0.443344 1.161501 0.249752
v 0.330998 1.176807 0.358353
v 0.294702 1.046669 0.364691
v 0.294702 1.046669 0.364691
v 0.173101 1.200225 0.402048
v -0.093361 1.042700 0.338998
v 0.294702 1.046669 0.364691
v 0.330998 1.176807 0.358353
v 0.173101 1.200225 0.402048
v 0.173101 1.200225 0.402048
v 0.231203 1.329181 0.294771
v 0.001001 1.283147 0.359406
v -0.093361 1.042700 0.338998
v 0.001001 1.283147 0.359406
v -0.222403 1.111670 0.257108
v -0.240627 0.893406 0.210694
v 0.294702 1.046669 0.364691
v -0.093361 1.042700 0.338998
v 0.440838 0.998890 -0.051789
v 0.139137 0.926930 0.155955
v -0.272119 0.828897 0.048592
v -0.308870 0.896635 -0.185226
v -0.139150 0.929455 -0.319232
v -0.155365 0.850245 -0.167100
v 0.329419 1.019758 -0.189417
v 0.440838 0.998890 -0.051789
v -0.155365 0.850245 -0.167100
v 0.440838 0.998890 -0.051789
v 0.465548 0.981598 0.093001
v 0.139137 0.926930 0.155955
v 0.465548 0.981598 0.093001
v 0.398801 0.999379 0.277750
v 0.139137 0.926930 0.155955
v -0.308870 0.896635 -0.185226
v -0.155365 0.850245 -0.167100
v -0.272119 0.828897 0.048592
v 0.295489 1.343685 0.019090
v -0.036288 1.376913 -0.147323
v 0.011059 1.388141 0.174277
v -0.036288 1.376913 -0.147323
v -0.213731 1.261613 -0.210542
v -0.229969 1.284221 0.024062
v 0.011059 1.388141 0.174277
v -0.229969 1.284221 0.024062
v -0.109693 1.287500 0.265483
v 0.011059 1.388141 0.174277
v 0.001001 1.283147 0.359406
v 0.231203 1.329181 0.294771
vn -0.8946 0.3857 0.2255
vn -0.8491 0.4109 0.3318
vn -0.7853 0.4851 0.3847
vn -0.9426 -0.0259 -0.3328
vn -0.8293 -0.5579 -0.0313
vn -0.7812 -0.5129 0.3559
vn -0.0482 -0.0274 -0.9985
vn -0.5044 -0.4356 -0.7455
vn -0.5882 0.4132 -0.6952
vn -0.0461 0.6817 -0.7302
vn 0.4815 -0.0929 -0.8715
vn 0.3104 -0.7223 -0.6179
vn 0.9651 -0.1836 -0.1866
vn 0.9243 -0.1551 0.3488
vn 0.7564 -0.1540 -0.6357
vn 0.5590 0.7209 -0.4097
vn 0.7106 0.6963 -0.1009
vn 0.6609 0.7340 0.1561
vn 0.5929 0.6084 0.5276
vn 0.6300 -0.0391 0.7756
vn -0.2359 0.0101 0.9717
vn 0.0804 -0.8321 0.5488
vn 0.2984 0.5274 0.7955
vn -0.5982 0.3491 0.7213
vn -0.5779 -0.1233 0.8068
vn 0.2360 -0.9712 0.0316
vn 0.2824 -0.8629 -0.4192
vn 0.1261 -0.9472 0.2947
vn 0.1317 -0.9296 0.3443
vn 0.2063 0.9734 0.0993
vn 0.2363 0.9287 -0.2857
vn -0.4108 0.9113 0.0287
vn -0.3479 0.8235 0.4481
vn -0.9532 -0.0319 -0.3006
vn -0.9039 0.3952 0.1636
vn -0.6741 -0.0994 0.7319
vn -0.7742 0.6227 -0.1136
vn -0.7461 0.3987 -0.5333
vn -0.8457 -0.4732 0.2468
vn 0.0220 0.0723 -0.9971
vn 0.0674 0.5230 -0.8497
vn -0.2225 -0.0241 -0.9746
vn -0.2261 0.7123 -0.6645
vn 0.4109 0.4194 -0.8095
vn 0.5027 -0.0498 -0.8630
vn 0.9601 -0.1219 -0.2515
vn 0.9276 -0.2004 0.3152
vn 0.7224 -0.0847 -0.6862
vn 0.5259 0.7342 -0.4294
vn 0.6333 0.7509 0.1872
vn 0.6759 -0.1534 0.7208
vn -0.0605 -0.2810 0.9578
vn 0.2630 -0.0264 0.9644
vn 0.0989 0.6097 0.7865
vn -0.4866 0.1175 0.8657
vn -0.0452 -0.6251 0.7792
vn 0.2319 -0.9727 -0.0001
vn -0.2043 -0.8592 -0.4691
vn 0.2915 -0.8822 -0.3697
vn 0.1371 -0.9805 -0.1405
vn 0.1935 -0.9675 0.1630
vn -0.2563 -0.9385 -0.2316
vn 0.1259 0.9906 -0.0531
vn -0.5113 0.8513 -0.1174
vn -0.5072 0.8273 0.2414
vn -0.0360 0.8701 0.4915
vt 0.454939 0.937500
vt 0.603018 0.858070
vt 0.455739 0.875000
vt 0.520991 1.000000
vt 0.625000 0.990163
vt 0.522980 0.812500
vt 0.466117 0.750000
vt 0.396397 0.792433
vt 0.375000 0.875000
vt 0.388256 0.971367
vt 0.527066 0.687500
vt 0.437500 0.603495
vt 0.396609 0.677127
vt 0.591279 0.750000
vt 0.625000 0.659003
vt 0.597115 0.560165
vt 0.500000 0.591740
vt 0.406197 0.500000
vt 0.375000 0.513867
vt 0.424360 0.437500
vt 0.515538 0.375000
vt 0.420607 0.375000
vt 0.414576 0.298323
vt 0.521212 0.437500
vt 0.524481 0.500000
vt 0.653690 0.407376
vt 0.521000 0.312500
vt 0.659114 0.272283
vt 0.526785 0.250000
vt 0.437500 0.237948
vt 0.536794 0.187500
vt 0.588736 0.109213
vt 0.464204 0.077298
vt 0.385832 0.012671
vt 0.625000 0.033408
vt 0.520991 -0.000000
vt 0.153639 0.360562
vt 0.195482 0.437500
vt 0.203355 0.500000
vt 0.298593 0.323475
vt 0.137671 0.279696
vt 0.776627 0.334155
vt 0.784337 0.477833
vt 0.875000 0.416356
vt 0.841592 0.254579
vt 0.750000 0.250000
vt 0.625000 0.215488
vt 0.125000 0.468013
vt 0.875000 0.500000
s 0
usemtl Material.006
f 1/1/1 2/2/1 3/3/1
f 4/4/2 5/2/2 6/1/2
f 7/4/3 8/5/3 9/2/3
f 10/6/4 11/7/4 12/8/4
f 13/3/5 14/8/5 15/9/5
f 16/1/6 17/9/6 18/10/6
f 19/11/7 20/12/7 21/13/7
f 22/7/8 23/13/8 24/8/8
f 25/14/9 26/11/9 27/7/9
f 28/15/10 29/16/10 30/11/10
f 31/17/11 32/18/11 33/12/11
f 34/12/12 35/19/12 36/13/12
f 37/20/13 38/21/13 39/22/13
f 40/21/14 41/23/14 42/22/14
f 43/18/15 44/24/15 45/20/15
f 46/25/16 47/26/16 48/24/16
f 49/24/17 50/26/17 51/21/17
f 52/26/18 53/27/18 54/21/18
f 55/28/19 56/29/19 57/27/19
f 58/27/20 59/30/20 60/23/20
f 61/31/21 62/32/21 63/33/21
f 64/23/22 65/30/22 66/34/22
f 67/28/23 68/31/23 69/29/23
f 70/32/24 71/35/24 72/36/24
f 73/33/25 74/36/25 75/34/25
f 76/20/26 77/37/26 78/38/26
f 79/18/27 80/38/27 81/39/27
f 82/40/28 83/23/28 84/41/28
f 85/40/29 86/41/29 87/37/29
f 88/42/30 89/28/30 90/26/30
f 91/16/31 92/43/31 93/26/31
f 94/43/32 95/44/32 96/42/32
f 97/42/33 98/45/33 99/46/33
f 100/3/34 101/6/34 102/8/34
f 103/3/35 104/2/35 105/6/35
f 106/10/36 107/4/36 108/1/36
f 109/6/37 110/2/37 111/14/37
f 112/6/38 113/14/38 114/7/38
f 115/1/39 116/3/39 117/9/39
f 118/11/40 119/17/40 120/12/40
f 121/11/41 122/16/41 123/17/41
f 124/7/42 125/11/42 126/13/42
f 127/14/43 128/15/43 129/11/43
f 130/17/44 131/16/44 132/25/44
f 133/17/45 134/25/45 135/18/45
f 136/20/46 137/24/46 138/21/46
f 139/21/47 140/27/47 141/23/47
f 142/18/48 143/25/48 144/24/48
f 145/25/49 146/16/49 147/26/49
f 148/26/50 149/28/50 150/27/50
f 151/27/51 152/29/51 153/30/51
f 154/30/52 155/31/52 156/33/52
f 157/30/53 158/29/53 159/31/53
s 1
f 160/31/54 161/47/54 162/32/54
s 0
f 163/33/55 164/32/55 165/36/55
f 166/34/56 167/30/56 168/33/56
f 169/20/57 170/40/57 171/37/57
f 172/48/58 173/39/58 174/38/58
f 175/18/59 176/20/59 177/38/59
f 178/20/60 179/22/60 180/40/60
f 181/22/61 182/23/61 183/40/61
f 184/48/62 185/38/62 186/37/62
f 187/26/63 188/43/63 189/42/63
f 190/43/64 191/49/64 192/44/64
f 193/42/65 194/44/65 195/45/65
f 196/42/66 197/46/66 198/28/66
