# Blender 4.5.4 LTS
# www.blender.org
mtllib left_wing_white.mtl
o 2.006
v 64.886353 2.382322 7.468772
v 67.284187 2.483212 5.751583
v 71.269241 2.070184 10.577942
v 67.919670 1.965111 12.702503
v 63.956600 1.894822 10.783203
v 67.230682 1.593973 16.016083
v 70.571411 1.691619 13.690143
v 67.082870 2.024880 8.157859
v 68.844566 2.154108 6.299620
v 67.082870 2.024880 8.157859
v 70.571411 1.691619 13.690143
v 73.249046 1.819366 11.443477
v 68.844566 2.154108 6.299620
v 73.249046 1.819366 11.443477
v 74.900970 1.904500 9.813252
v 74.543541 2.217378 7.661108
v 77.087502 1.611020 12.289549
v 73.510078 2.159400 8.972104
v 77.087502 1.611020 12.289549
v 74.138779 1.507633 14.461116
v 71.269241 2.070184 10.577942
v 73.510078 2.159400 8.972104
v 77.087502 1.611020 12.289549
v 78.056519 1.536165 13.654250
v 74.660141 1.322063 17.015144
v 74.138779 1.507633 14.461116
v 74.660141 1.322063 17.015144
v 70.721512 1.284097 20.499966
v 69.311287 1.523229 16.796705
v 74.138779 1.507633 14.461116
v 74.660141 1.322063 17.015144
v 78.056519 1.536165 13.654250
v 78.880379 1.108288 16.782343
v 75.452087 0.982573 19.748716
v 74.660141 1.322063 17.015144
v 75.452087 0.982573 19.748716
v 70.873802 0.935467 23.094574
v 70.721512 1.284097 20.499966
v 70.873802 0.935467 23.094574
v 75.452087 0.982573 19.748716
v 76.103111 0.743304 22.203533
v 71.355309 0.716766 25.457003
v 70.774834 0.675641 24.467262
v 76.444481 0.292124 24.617664
v 75.291870 0.680622 21.730198
v 70.774834 0.675641 24.467262
v 75.291870 0.680622 21.730198
v 73.496964 1.224100 18.139187
v 69.318550 1.131310 20.601509
v 73.496964 1.224100 18.139187
v 75.291870 0.680622 21.730198
v 78.966072 0.785555 19.463964
v 77.089851 1.186573 16.235657
v 73.496964 1.224100 18.139187
v 77.089851 1.186573 16.235657
v 73.249046 1.819366 11.443477
v 70.571411 1.691619 13.690143
v 73.496964 1.224100 18.139187
v 70.571411 1.691619 13.690143
v 67.230682 1.593973 16.016083
v 69.318550 1.131310 20.601509
v 77.089851 1.186573 16.235657
v 74.900970 1.904500 9.813252
v 73.249046 1.819366 11.443477
v 79.776604 1.008308 18.758112
v 76.103111 0.743304 22.203533
v 75.452087 0.982573 19.748716
v 78.880379 1.108288 16.782343
v 79.776604 1.008308 18.758112
v 80.058571 0.680672 21.279104
v 76.583801 0.382390 24.473099
v 76.103111 0.743304 22.203533
v 76.583801 0.382390 24.473099
v 71.355309 0.716766 25.457003
v 76.103111 0.743304 22.203533
v 79.864250 0.347159 22.613066
v 78.966072 0.785555 19.463964
v 75.291870 0.680622 21.730198
v 76.444481 0.292124 24.617664
v 74.138779 1.507633 14.461116
v 69.311287 1.523229 16.796705
v 67.919670 1.965111 12.702503
v 71.269241 2.070184 10.577942
v 73.510078 2.159400 8.972104
v 71.269241 2.070184 10.577942
v 67.284187 2.483212 5.751583
vn 0.0131 0.9972 0.0732
vn 0.0132 0.9972 0.0730
vn 0.0132 0.9972 0.0731
vn -0.0066 -0.9985 -0.0548
vn -0.0067 -0.9985 -0.0546
vn -0.0067 -0.9985 -0.0545
vn -0.0000 -0.9980 -0.0625
vn -0.0000 -0.9980 -0.0624
vn -0.0145 -0.9985 -0.0533
vn -0.0013 -0.9976 -0.0687
vn -0.0045 -0.9978 -0.0657
vn 0.0616 0.9935 0.0962
vn 0.0642 0.9937 0.0918
vn 0.0594 0.9935 0.0975
vn 0.0452 0.9926 0.1127
vn 0.0452 0.9926 0.1126
vn 0.0059 0.9979 0.0641
vn 0.0352 0.9978 0.0569
vn 0.0352 0.9978 0.0568
vn 0.0565 0.9918 0.1143
vn 0.0565 0.9918 0.1142
vn 0.0811 0.9902 0.1135
vn 0.0506 0.9953 0.0826
vn 0.0507 0.9953 0.0829
vn 0.0507 0.9953 0.0828
vn 0.0507 0.9953 0.0827
vn -0.0618 -0.9924 -0.1065
vn -0.0641 -0.9918 -0.1102
vn -0.0640 -0.9914 -0.1146
vn -0.0542 -0.9925 -0.1093
vn -0.0542 -0.9925 -0.1094
vn -0.0531 -0.9926 -0.1092
vn -0.0532 -0.9926 -0.1088
vn -0.0533 -0.9926 -0.1088
vn -0.0432 -0.9953 -0.0869
vn -0.0296 -0.9958 -0.0862
vn -0.0296 -0.9958 -0.0861
vn -0.0297 -0.9959 -0.0860
vn -0.0437 -0.9944 -0.0966
vn -0.0441 -0.9944 -0.0962
vn -0.0445 -0.9944 -0.0960
vn 0.0107 0.9973 0.0726
vn 0.0472 0.9898 0.1348
vn 0.0471 0.9898 0.1347
vn 0.0883 0.9871 0.1338
vn 0.0939 0.9861 0.1373
vn 0.0878 0.9875 0.1308
vn -0.0493 -0.9917 -0.1190
vn -0.0493 -0.9917 -0.1191
vn 0.0445 0.9939 0.1013
vn 0.0444 0.9939 0.1014
vn 0.0131 0.9971 0.0750
vn 0.0127 0.9970 0.0757
vn 0.0149 0.9971 0.0741
vt 0.343230 0.392030
vt 0.335390 0.402970
vt 0.357450 0.421140
vt 0.367150 0.405860
vt 0.358130 0.546720
vt 0.334230 0.531790
vt 0.344850 0.516550
vt 0.370120 0.532460
vt 0.378610 0.524430
vt 0.355110 0.504340
vt 0.362550 0.496810
vt 0.344130 0.436070
vt 0.365320 0.447670
vt 0.350120 0.431360
vt 0.375240 0.434230
vt 0.371550 0.452090
vt 0.386910 0.436600
vt 0.402790 0.418640
vt 0.385880 0.412210
vt 0.385880 0.455850
vt 0.399420 0.440220
vt 0.414670 0.419340
vt 0.410640 0.443180
vt 0.425480 0.421530
vt 0.295570 0.515630
vt 0.294820 0.489770
vt 0.308040 0.495030
vt 0.324500 0.503210
vt 0.313260 0.522270
vt 0.318390 0.478270
vt 0.333170 0.486830
vt 0.394900 0.459940
vt 0.406440 0.461220
vt 0.421050 0.445380
vt 0.303970 0.474180
s 1
usemtl BLy_Orange.002
f 1/1/1 3/3/2 2/2/1
f 1/1/1 4/4/3 3/3/2
f 5/5/4 7/7/6 6/6/5
f 5/5/4 8/8/5 7/7/6
f 9/9/7 11/7/8 10/8/7
f 9/9/7 12/10/7 11/7/8
f 13/9/9 15/11/11 14/10/10
f 16/12/12 18/14/14 17/13/13
f 19/13/15 21/3/15 20/15/16
f 19/13/15 22/14/15 21/3/15
f 23/13/17 25/17/17 24/16/17
f 23/13/17 26/15/17 25/17/17
f 27/17/18 29/19/18 28/18/18
f 27/17/18 30/15/19 29/19/18
f 31/17/20 33/20/20 32/16/20
f 31/17/20 34/21/21 33/20/20
f 35/17/22 37/22/22 36/21/22
f 35/17/22 38/18/22 37/22/22
f 39/22/23 41/23/25 40/21/24
f 39/22/23 42/24/26 41/23/25
f 43/25/27 45/27/29 44/26/28
f 46/25/30 48/28/31 47/27/31
f 46/25/30 49/29/31 48/28/31
f 50/28/32 52/30/34 51/27/33
f 50/28/32 53/31/33 52/30/34
f 54/28/35 56/10/35 55/31/35
f 54/28/35 57/7/35 56/10/35
f 58/28/36 60/6/38 59/7/37
f 58/28/36 61/29/37 60/6/38
f 62/31/39 64/10/41 63/11/40
f 65/32/42 67/21/42 66/23/42
f 65/32/42 68/20/42 67/21/42
f 69/32/43 71/34/43 70/33/44
f 69/32/43 72/23/43 71/34/43
f 73/34/45 75/23/47 74/24/46
f 76/35/48 78/27/48 77/30/49
f 76/35/48 79/26/49 78/27/48
f 80/15/50 82/4/51 81/19/51
f 80/15/50 83/3/51 82/4/51
f 84/14/52 86/2/54 85/3/53
