# Blender 4.5.4 LTS
# www.blender.org
mtllib left_wing_orange.mtl
o 2.005
v 49.317829 2.660236 -9.187531
v 46.364288 2.487224 -8.975554
v 45.841209 2.261735 -11.874969
v 49.952202 2.574327 -10.961116
v 49.317829 2.660236 -9.187531
v 49.952202 2.574327 -10.961116
v 53.845490 2.742770 -9.436419
v 51.433182 2.681689 -7.226956
v 49.317829 2.660236 -9.187531
v 51.433182 2.681689 -7.226956
v 48.043930 2.638502 -5.755667
v 46.364288 2.487224 -8.975554
v 49.545521 2.587809 -7.519030
v 46.884850 2.538949 -6.726350
v 49.084202 2.605535 -3.536019
v 51.977081 2.663292 -5.606394
v 49.545521 2.587809 -7.519030
v 51.977081 2.663292 -5.606394
v 54.115429 2.702337 -8.319460
v 49.960861 2.524296 -9.777730
v 49.545521 2.587809 -7.519030
v 49.960861 2.524296 -9.777730
v 45.776009 2.176456 -10.596844
v 46.884850 2.538949 -6.726350
v 39.292770 1.757069 9.921886
v 33.538288 1.417872 11.082904
v 38.070240 1.456304 13.795365
v 39.292770 1.757069 9.921886
v 38.070240 1.456304 13.795365
v 43.190411 1.469913 15.654806
v 43.317699 1.777652 11.542265
v 38.487560 2.053739 3.962630
v 36.185371 2.107727 0.377226
v 32.512642 1.765864 3.710377
v 38.487560 2.053739 3.962630
v 42.069920 2.328810 1.215900
v 39.799969 2.331364 -2.514242
v 36.185371 2.107727 0.377226
v 39.799969 2.331364 -2.514242
v 37.683830 2.075787 -6.633235
v 33.882778 1.945719 -3.745602
v 36.185371 2.107727 0.377226
v 39.799969 2.331364 -2.514242
v 42.069920 2.328810 1.215900
v 45.655869 2.495038 -1.210305
v 43.304642 2.448123 -5.055109
v 39.799969 2.331364 -2.514242
v 43.304642 2.448123 -5.055109
v 41.579552 2.105298 -9.006176
v 37.683830 2.075787 -6.633235
v 41.579552 2.105298 -9.006176
v 40.934441 2.001957 -10.877147
v 36.707100 1.964806 -8.756314
v 37.683830 2.075787 -6.633235
v 41.579552 2.105298 -9.006176
v 43.304642 2.448123 -5.055109
v 46.884850 2.538949 -6.726350
v 45.776009 2.176456 -10.596844
v 41.579552 2.105298 -9.006176
v 45.776009 2.176456 -10.596844
v 45.558781 2.087389 -12.315095
v 40.934441 2.001957 -10.877147
v 45.558781 2.087389 -12.315095
v 45.421558 2.074778 -13.501853
v 40.563641 1.975127 -12.019373
v 40.934441 2.001957 -10.877147
v 45.558781 2.087389 -12.315095
v 45.776009 2.176456 -10.596844
v 49.960861 2.524296 -9.777730
v 50.545841 2.401574 -12.203482
v 45.558781 2.087389 -12.315095
v 50.545841 2.401574 -12.203482
v 50.837090 2.384302 -13.406372
v 45.421558 2.074778 -13.501853
v 50.837090 2.384302 -13.406372
v 51.082211 2.396083 -14.495353
v 45.303711 2.115339 -14.592954
v 45.421558 2.074778 -13.501853
v 50.837090 2.384302 -13.406372
v 50.545841 2.401574 -12.203482
v 55.127811 2.636583 -9.715323
v 50.837090 2.384302 -13.406372
v 56.438049 2.688963 -11.764303
v 51.082211 2.396083 -14.495353
v 56.438049 2.688963 -11.764303
v 51.307232 2.469190 -15.538610
v 51.082211 2.396083 -14.495353
v 51.307232 2.469190 -15.538610
v 51.211140 2.567101 -15.198796
v 45.250591 2.379702 -15.392015
v 45.193401 2.227629 -15.597964
v 51.307232 2.469190 -15.538610
v 45.193401 2.227629 -15.597964
v 45.303711 2.115339 -14.592954
v 51.082211 2.396083 -14.495353
v 51.307232 2.469190 -15.538610
v 56.544102 2.886106 -12.260592
v 51.211140 2.567101 -15.198796
v 56.544102 2.886106 -12.260592
v 50.938240 2.528820 -14.159418
v 51.211140 2.567101 -15.198796
v 50.938240 2.528820 -14.159418
v 50.637600 2.522846 -13.071677
v 45.598541 2.234398 -13.214653
v 45.413120 2.272545 -14.385215
v 50.938240 2.528820 -14.159418
v 45.413120 2.272545 -14.385215
v 45.250591 2.379702 -15.392015
v 51.211140 2.567101 -15.198796
v 50.938240 2.528820 -14.159418
v 55.794941 2.842300 -11.486907
v 54.947819 2.783103 -10.580448
v 50.637600 2.522846 -13.071677
v 54.947819 2.783103 -10.580448
v 53.845490 2.742770 -9.436419
v 49.952202 2.574327 -10.961116
v 50.637600 2.522846 -13.071677
v 52.752060 2.015266 13.711370
v 57.078930 2.163154 11.957754
v 57.922421 1.838296 16.623007
v 52.647171 1.667660 18.035152
v 52.752060 2.015266 13.711370
v 52.647171 1.667660 18.035152
v 46.383461 1.522968 17.891638
v 47.160400 1.865278 13.815593
v 46.383461 1.522968 17.891638
v 40.644749 1.421781 17.103470
v 41.950779 1.771873 13.173463
v 47.160400 1.865278 13.815593
v 46.383461 1.522968 17.891638
v 52.647171 1.667660 18.035152
v 52.042622 1.212412 22.452543
v 46.383461 1.522968 17.891638
v 39.183071 0.949249 21.230713
v 40.644749 1.421781 17.103470
v 39.183071 0.949249 21.230713
v 33.060909 0.872882 19.701429
v 35.181278 1.338540 15.696539
v 7.922410 0.563580 3.832955
v 8.141400 0.523819 2.770677
v 13.252340 0.644652 0.655560
v 13.431800 0.717731 1.431114
v 7.922410 0.563580 3.832955
v 13.431800 0.717731 1.431114
v 14.142510 0.839001 2.561790
v 8.802200 0.723210 5.229127
v 14.142510 0.839001 2.561790
v 15.229380 0.976299 4.273377
v 10.254190 0.905757 7.390611
v 8.802200 0.723210 5.229127
v 14.142510 0.839001 2.561790
v 13.431800 0.717731 1.431114
v 18.573050 1.014223 -0.797257
v 19.266500 1.057298 0.341093
v 14.142510 0.839001 2.561790
v 19.266500 1.057298 0.341093
v 20.257990 1.105643 1.948980
v 15.229380 0.976299 4.273377
v 20.257990 1.105643 1.948980
v 22.076380 1.152985 5.032467
v 17.916731 1.038726 8.345398
v 15.229380 0.976299 4.273377
v 20.257990 1.105643 1.948980
v 19.266500 1.057298 0.341093
v 23.900829 1.418605 -2.270164
v 24.725410 1.457664 -0.975981
v 20.257990 1.105643 1.948980
v 24.725410 1.457664 -0.975981
v 26.715839 1.552059 2.290675
v 22.076380 1.152985 5.032467
v 26.715839 1.552059 2.290675
v 24.725410 1.457664 -0.975981
v 29.230740 1.804559 -3.444362
v 31.355700 1.939355 0.028154
v 26.715839 1.552059 2.290675
v 31.355700 1.939355 0.028154
v 33.889400 1.982132 3.863918
v 29.279221 1.583346 6.321888
v 33.889400 1.982132 3.863918
v 31.355700 1.939355 0.028154
v 35.809780 2.238704 -1.816255
v 38.111179 2.278732 2.162781
v 33.889400 1.982132 3.863918
v 38.111179 2.278732 2.162781
v 40.406872 2.181907 5.815735
v 38.111179 2.278732 2.162781
v 35.809780 2.238704 -1.816255
v 39.938240 2.473432 -3.329652
v 42.192741 2.499090 0.858560
v 44.424541 2.375783 4.842083
v 42.192741 2.499090 0.858560
v 46.178360 2.649037 -0.357188
v 46.178360 2.649037 -0.357188
v 42.192741 2.499090 0.858560
v 39.938240 2.473432 -3.329652
v 43.871422 2.640631 -4.525067
v 46.178360 2.649037 -0.357188
v 43.871422 2.640631 -4.525067
v 48.043930 2.638502 -5.755667
v 43.871422 2.640631 -4.525067
v 39.938240 2.473432 -3.329652
v 37.892220 2.230977 -7.331296
v 42.138432 2.305915 -8.785971
v 43.871422 2.640631 -4.525067
v 42.138432 2.305915 -8.785971
v 46.364288 2.487224 -8.975554
v 48.043930 2.638502 -5.755667
v 42.138432 2.305915 -8.785971
v 37.892220 2.230977 -7.331296
v 36.925549 2.125614 -9.105120
v 41.299149 2.172314 -10.899632
v 42.138432 2.305915 -8.785971
v 41.299149 2.172314 -10.899632
v 45.841209 2.261735 -11.874969
v 46.364288 2.487224 -8.975554
v 41.299149 2.172314 -10.899632
v 36.925549 2.125614 -9.105120
v 36.335152 2.077159 -10.130628
v 40.793571 2.136903 -12.110368
v 41.299149 2.172314 -10.899632
v 40.793571 2.136903 -12.110368
v 45.598541 2.234398 -13.214653
v 45.841209 2.261735 -11.874969
v 40.793571 2.136903 -12.110368
v 36.335152 2.077159 -10.130628
v 35.792480 2.046603 -10.982577
v 40.356541 2.130542 -13.099899
v 40.793571 2.136903 -12.110368
v 40.356541 2.130542 -13.099899
v 45.413120 2.272545 -14.385215
v 45.598541 2.234398 -13.214653
v 40.356541 2.130542 -13.099899
v 35.792480 2.046603 -10.982577
v 35.254230 2.006921 -11.757459
v 39.960541 2.161783 -13.975132
v 40.356541 2.130542 -13.099899
v 39.960541 2.161783 -13.975132
v 45.250591 2.379702 -15.392015
v 45.413120 2.272545 -14.385215
v 39.960541 2.161783 -13.975132
v 35.254230 2.006921 -11.757459
v 35.350201 1.913050 -11.516870
v 39.927292 2.040027 -13.938548
v 39.960541 2.161783 -13.975132
v 39.927292 2.040027 -13.938548
v 45.193401 2.227629 -15.597964
v 45.250591 2.379702 -15.392015
v 39.927292 2.040027 -13.938548
v 35.350201 1.913050 -11.516870
v 35.795280 1.902245 -10.696649
v 40.239712 1.979555 -13.011571
v 39.927292 2.040027 -13.938548
v 40.239712 1.979555 -13.011571
v 45.303711 2.115339 -14.592954
v 45.193401 2.227629 -15.597964
v 40.239712 1.979555 -13.011571
v 35.795280 1.902245 -10.696649
v 36.237209 1.923204 -9.795022
v 40.563641 1.975127 -12.019373
v 40.239712 1.979555 -13.011571
v 40.563641 1.975127 -12.019373
v 45.421558 2.074778 -13.501853
v 45.303711 2.115339 -14.592954
v 36.237209 1.923204 -9.795022
v 35.795280 1.902245 -10.696649
v 31.744640 1.786933 -8.145086
v 32.130020 1.806498 -7.280070
v 36.237209 1.923204 -9.795022
v 32.130020 1.806498 -7.280070
v 32.642681 1.841997 -6.196898
v 36.707100 1.964806 -8.756314
v 36.237209 1.923204 -9.795022
v 36.707100 1.964806 -8.756314
v 40.934441 2.001957 -10.877147
v 40.563641 1.975127 -12.019373
v 32.642681 1.841997 -6.196898
v 32.130020 1.806498 -7.280070
v 27.758400 1.553686 -5.045205
v 28.421659 1.597581 -3.643968
v 32.642681 1.841997 -6.196898
v 28.421659 1.597581 -3.643968
v 30.124310 1.716102 -0.363214
v 33.882778 1.945719 -3.745602
v 32.642681 1.841997 -6.196898
v 33.882778 1.945719 -3.745602
v 37.683830 2.075787 -6.633235
v 36.707100 1.964806 -8.756314
v 30.124310 1.716102 -0.363214
v 28.421659 1.597581 -3.643968
v 24.272570 1.268750 -0.458882
v 26.682261 1.355600 3.681810
v 30.124310 1.716102 -0.363214
v 26.682261 1.355600 3.681810
v 29.702520 1.385800 7.618958
v 32.512642 1.765864 3.710377
v 30.124310 1.716102 -0.363214
v 32.512642 1.765864 3.710377
v 36.185371 2.107727 0.377226
v 33.882778 1.945719 -3.745602
v 29.702520 1.385800 7.618958
v 27.234980 0.945058 11.836744
v 31.856840 1.033796 15.398282
v 33.538288 1.417872 11.082904
v 31.856840 1.033796 15.398282
v 27.234980 0.945058 11.836744
v 25.282881 0.465629 16.078138
v 30.433350 0.508959 20.114655
v 31.856840 1.033796 15.398282
v 30.433350 0.508959 20.114655
v 36.604080 0.538607 22.642067
v 31.856840 1.033796 15.398282
v 37.076191 1.046797 18.293110
v 38.070240 1.456304 13.795365
v 33.538288 1.417872 11.082904
v 37.076191 1.046797 18.293110
v 43.271900 1.096027 19.853107
v 43.190411 1.469913 15.654806
v 38.070240 1.456304 13.795365
v 43.271900 1.096027 19.853107
v 49.887451 1.219479 20.552509
v 49.443581 1.597502 16.199478
v 43.190411 1.469913 15.654806
v 49.443581 1.597502 16.199478
v 49.887451 1.219479 20.552509
v 56.479080 1.378855 20.159218
v 55.718449 1.738335 15.414635
v 49.443581 1.597502 16.199478
v 55.718449 1.738335 15.414635
v 53.213032 2.027492 10.492234
v 48.081070 1.880339 11.552185
v 49.443581 1.597502 16.199478
v 48.081070 1.880339 11.552185
v 43.317699 1.777652 11.542265
v 43.190411 1.469913 15.654806
v 53.213032 2.027492 10.492234
v 55.718449 1.738335 15.414635
v 60.157330 1.818073 13.374193
v 48.064640 2.382151 2.326069
v 49.084202 2.605535 -3.536019
v 45.655869 2.495038 -1.210305
v 48.064640 2.382151 2.326069
v 45.655869 2.495038 -1.210305
v 42.069920 2.328810 1.215900
v 62.980099 1.903029 14.738467
v 57.922421 1.838296 16.623007
v 57.078930 2.163154 11.957754
v 62.980099 1.903029 14.738467
v 58.348671 1.424764 21.266747
v 57.922421 1.838296 16.623007
v 58.348671 1.424764 21.266747
v 52.647171 1.667660 18.035152
v 57.922421 1.838296 16.623007
v 10.536580 0.771243 7.659613
v 14.788050 0.838297 4.608627
v 13.527840 0.641999 2.334316
v 7.938190 0.453528 4.986033
v 13.527840 0.641999 2.334316
v 12.965940 0.518734 1.073041
v 7.476240 0.360477 3.778312
v 7.938190 0.453528 4.986033
v 13.527840 0.641999 2.334316
v 14.788050 0.838297 4.608627
v 19.090290 0.910579 1.061933
v 18.488510 0.873384 -0.302409
v 13.527840 0.641999 2.334316
v 18.488510 0.873384 -0.302409
v 18.042850 0.850972 -1.395351
v 12.965940 0.518734 1.073041
v 18.042850 0.850972 -1.395351
v 17.666719 0.885715 -2.404154
v 13.072590 0.482311 0.450786
v 12.965940 0.518734 1.073041
v 18.042850 0.850972 -1.395351
v 18.488510 0.873384 -0.302409
v 23.055710 1.231915 -2.967565
v 22.559860 1.226078 -3.931923
v 18.042850 0.850972 -1.395351
v 22.559860 1.226078 -3.931923
v 22.071920 1.272201 -4.847993
v 17.666719 0.885715 -2.404154
v 22.071920 1.272201 -4.847993
v 22.652090 1.352600 -4.066231
v 18.017929 0.973168 -1.776099
v 17.666719 0.885715 -2.404154
v 22.071920 1.272201 -4.847993
v 22.559860 1.226078 -3.931923
v 27.016621 1.523481 -6.769392
v 26.756910 1.594071 -7.467748
v 22.071920 1.272201 -4.847993
v 26.756910 1.594071 -7.467748
v 27.225401 1.667378 -6.651042
v 22.652090 1.352600 -4.066231
v 27.225401 1.667378 -6.651042
v 27.732510 1.702154 -5.817986
v 23.269409 1.388916 -3.204705
v 22.652090 1.352600 -4.066231
v 27.225401 1.667378 -6.651042
v 26.756910 1.594071 -7.467748
v 31.229080 1.893147 -9.416069
v 31.685869 1.927754 -8.657225
v 27.225401 1.667378 -6.651042
v 31.685869 1.927754 -8.657225
v 32.169540 1.955503 -7.886431
v 27.732510 1.702154 -5.817986
v 32.169540 1.955503 -7.886431
v 32.710320 1.989455 -7.047862
v 28.309219 1.739883 -4.897395
v 27.732510 1.702154 -5.817986
v 32.169540 1.955503 -7.886431
v 31.685869 1.927754 -8.657225
v 35.792480 2.046603 -10.982577
v 36.335152 2.077159 -10.130628
v 32.169540 1.955503 -7.886431
v 36.335152 2.077159 -10.130628
v 36.925549 2.125614 -9.105120
v 32.710320 1.989455 -7.047862
v 28.309219 1.739883 -4.897395
v 29.230740 1.804559 -3.444362
v 24.725410 1.457664 -0.975981
v 23.900829 1.418605 -2.270164
v 28.309219 1.739883 -4.897395
v 23.900829 1.418605 -2.270164
v 23.269409 1.388916 -3.204705
v 27.732510 1.702154 -5.817986
v 28.309219 1.739883 -4.897395
v 32.710320 1.989455 -7.047862
v 33.705399 2.058103 -5.444290
v 29.230740 1.804559 -3.444362
v 33.705399 2.058103 -5.444290
v 35.809780 2.238704 -1.816255
v 31.355700 1.939355 0.028154
v 29.230740 1.804559 -3.444362
v 33.705399 2.058103 -5.444290
v 32.710320 1.989455 -7.047862
v 36.925549 2.125614 -9.105120
v 37.892220 2.230977 -7.331296
v 33.705399 2.058103 -5.444290
v 37.892220 2.230977 -7.331296
v 39.938240 2.473432 -3.329652
v 35.809780 2.238704 -1.816255
v 31.685869 1.927754 -8.657225
v 31.229080 1.893147 -9.416069
v 35.254230 2.006921 -11.757459
v 35.792480 2.046603 -10.982577
v 31.229080 1.893147 -9.416069
v 26.756910 1.594071 -7.467748
v 27.016621 1.523481 -6.769392
v 31.388981 1.793098 -8.971962
v 31.229080 1.893147 -9.416069
v 31.388981 1.793098 -8.971962
v 35.350201 1.913050 -11.516870
v 35.254230 2.006921 -11.757459
v 31.388981 1.793098 -8.971962
v 27.016621 1.523481 -6.769392
v 27.383970 1.533439 -5.889161
v 31.744640 1.786933 -8.145086
v 31.388981 1.793098 -8.971962
v 31.744640 1.786933 -8.145086
v 35.795280 1.902245 -10.696649
v 35.350201 1.913050 -11.516870
v 27.383970 1.533439 -5.889161
v 27.016621 1.523481 -6.769392
v 22.559860 1.226078 -3.931923
v 23.055710 1.231915 -2.967565
v 27.383970 1.533439 -5.889161
v 23.055710 1.231915 -2.967565
v 23.585951 1.245202 -1.887808
v 27.758400 1.553686 -5.045205
v 27.383970 1.533439 -5.889161
v 27.758400 1.553686 -5.045205
v 32.130020 1.806498 -7.280070
v 31.744640 1.786933 -8.145086
v 23.585951 1.245202 -1.887808
v 23.055710 1.231915 -2.967565
v 18.488510 0.873384 -0.302409
v 19.090290 0.910579 1.061933
v 23.585951 1.245202 -1.887808
v 19.090290 0.910579 1.061933
v 20.637850 0.953958 3.995260
v 24.272570 1.268750 -0.458882
v 23.585951 1.245202 -1.887808
v 24.272570 1.268750 -0.458882
v 28.421659 1.597581 -3.643968
v 27.758400 1.553686 -5.045205
v 20.637850 0.953958 3.995260
v 19.090290 0.910579 1.061933
v 14.788050 0.838297 4.608627
v 17.243111 0.898354 8.003115
v 20.637850 0.953958 3.995260
v 23.475410 0.951258 7.916314
v 26.682261 1.355600 3.681810
v 24.272570 1.268750 -0.458882
v 20.847521 0.601544 11.975952
v 14.322520 0.765388 11.367005
v 18.830780 0.151802 15.399443
v 20.847521 0.601544 11.975952
v 18.830780 0.151802 15.399443
v 23.590580 -0.092572 20.042141
v 20.847521 0.601544 11.975952
v 25.282881 0.465629 16.078138
v 27.234980 0.945058 11.836744
v 62.484322 1.499618 18.650887
v 60.157330 1.818073 13.374193
v 55.718449 1.738335 15.414635
v 56.479080 1.378855 20.159218
v 23.269409 1.388916 -3.204705
v 23.900829 1.418605 -2.270164
v 19.266500 1.057298 0.341093
v 18.573050 1.014223 -0.797257
v 23.269409 1.388916 -3.204705
v 18.573050 1.014223 -0.797257
v 18.017929 0.973168 -1.776099
v 22.652090 1.352600 -4.066231
v 18.017929 0.973168 -1.776099
v 18.573050 1.014223 -0.797257
v 13.431800 0.717731 1.431114
v 13.252340 0.644652 0.655560
v 18.017929 0.973168 -1.776099
v 13.252340 0.644652 0.655560
v 13.072590 0.482311 0.450786
v 17.666719 0.885715 -2.404154
v 13.072590 0.482311 0.450786
v 13.252340 0.644652 0.655560
v 8.141400 0.523819 2.770677
v 8.003350 0.368739 2.751617
v 13.072590 0.482311 0.450786
v 8.003350 0.368739 2.751617
v 7.476240 0.360477 3.778312
v 12.965940 0.518734 1.073041
v 24.773090 1.070035 9.416727
v 29.714001 1.194757 13.188294
v 27.212330 0.708449 16.894556
v 21.847799 0.656809 13.014225
v 21.847799 0.656809 13.014225
v 27.212330 0.708449 16.894556
v 24.922609 0.175398 20.243040
v 19.307421 0.177344 16.256582
v 21.847799 0.656809 13.014225
v 19.307421 0.177344 16.256582
v 14.336100 0.863039 11.818007
v 29.714001 1.194757 13.188294
v 33.222061 1.641201 9.618150
v 37.315899 1.697702 11.932729
v 35.181278 1.338540 15.696539
v 29.714001 1.194757 13.188294
v 35.181278 1.338540 15.696539
v 33.060909 0.872882 19.701429
v 27.212330 0.708449 16.894556
v 35.181278 1.338540 15.696539
v 37.315899 1.697702 11.932729
v 41.950779 1.771873 13.173463
v 40.644749 1.421781 17.103470
v 50.433651 2.675653 -2.096826
v 48.043930 2.638502 -5.755667
v 51.433182 2.681689 -7.226956
v 45.598541 2.234398 -13.214653
v 50.637600 2.522846 -13.071677
v 49.952202 2.574327 -10.961116
v 45.841209 2.261735 -11.874969
v 55.127811 2.636583 -9.715323
v 50.545841 2.401574 -12.203482
v 49.960861 2.524296 -9.777730
v 54.115429 2.702337 -8.319460
v 43.304642 2.448123 -5.055109
v 45.655869 2.495038 -1.210305
v 49.084202 2.605535 -3.536019
v 46.884850 2.538949 -6.726350
v 44.199741 1.538186 -19.271046
v 40.339420 1.524155 -19.999266
v 42.642429 1.614279 -25.239075
v 47.166908 1.562747 -22.146544
v 44.199741 1.538186 -19.271046
v 47.166908 1.562747 -22.146544
v 50.286308 1.438604 -17.785923
v 44.827042 1.415146 -15.773817
v 44.199741 1.538186 -19.271046
v 44.827042 1.415146 -15.773817
v 39.362301 1.332428 -14.939273
v 40.339420 1.524155 -19.999266
v 13.196390 0.366948 2.307116
v 11.428720 0.204954 4.747056
v 8.400460 0.376350 -1.355037
v 11.502770 0.513968 -2.483391
v 13.196390 0.366948 2.307116
v 17.620180 0.407043 2.879128
v 17.290939 0.241446 6.982271
v 11.428720 0.204954 4.747056
v 13.196390 0.366948 2.307116
v 11.502770 0.513968 -2.483391
v 16.642050 0.606680 -2.531273
v 17.620180 0.407043 2.879128
v 50.161701 1.156572 -9.021416
v 53.090080 1.079942 -7.849082
v 48.833080 0.695997 -3.448130
v 46.468681 1.078643 -6.948763
v 50.161701 1.156572 -9.021416
v 46.468681 1.078643 -6.948763
v 45.262772 1.242474 -11.220680
v 50.467331 1.245878 -12.819611
v 50.161701 1.156572 -9.021416
v 50.467331 1.245878 -12.819611
v 55.958271 1.229984 -13.483746
v 53.090080 1.079942 -7.849082
v 8.525980 0.167655 0.603756
v 11.644570 0.206141 1.940816
v 11.473580 0.401419 -3.248762
v 8.525980 0.167655 0.603756
v 8.600650 -0.121087 8.218931
v 11.644570 0.206141 1.940816
v 49.702679 1.017409 -8.823220
v 48.858002 1.161011 -12.524375
v 44.628010 1.051448 -9.848526
v 46.441921 0.903407 -5.904700
v 49.702679 1.017409 -8.823220
v 54.066490 0.869795 -7.821240
v 53.516232 1.036887 -13.821881
v 48.858002 1.161011 -12.524375
v 49.702679 1.017409 -8.823220
v 46.441921 0.903407 -5.904700
v 49.253368 0.605255 -2.962384
v 54.066490 0.869795 -7.821240
v 38.326969 1.181531 -14.635981
v 40.797890 1.318312 -17.528212
v 36.828571 1.366861 -19.800800
v 34.874290 1.156962 -14.919759
v 38.326969 1.181531 -14.635981
v 34.874290 1.156962 -14.919759
v 34.383320 0.955107 -9.957356
v 39.054081 1.057346 -11.385763
v 38.326969 1.181531 -14.635981
v 39.054081 1.057346 -11.385763
v 43.103710 1.204181 -14.020199
v 40.797890 1.318312 -17.528212
v 19.253241 0.194831 -36.005836
v 12.598800 0.337338 -30.513777
v 17.676180 0.674558 -30.059404
v 19.253241 0.194831 -36.005836
v 17.676180 0.674558 -30.059404
v 21.977961 1.215083 -28.873922
v 24.635050 0.961957 -33.750557
v 22.401979 0.939438 -35.105019
v 27.366980 1.458572 -34.023911
v 26.061689 1.502257 -28.215147
v 21.099770 1.303577 -29.085421
v 22.401979 0.939438 -35.105019
v 21.099770 1.303577 -29.085421
v 16.533131 0.722266 -30.111706
v 16.533131 0.722266 -30.111706
v 11.893770 0.381325 -30.724936
v 15.809310 0.059481 -35.813423
v 16.533131 0.722266 -30.111706
v 21.099770 1.303577 -29.085421
v 19.166470 1.331134 -22.742046
v 13.895320 0.819542 -24.073940
v 10.086160 0.492263 -25.031212
v 13.895320 0.819542 -24.073940
v 11.578540 0.581165 -17.371056
v 8.801900 0.165932 -18.022041
v 13.354480 0.674290 -16.984587
v 15.365820 0.860897 -23.772549
v 10.922850 0.456374 -24.740826
v 11.961270 0.513779 -9.817722
v 17.921070 0.747770 -9.453377
v 18.936970 0.993474 -16.108648
v 13.354480 0.674290 -16.984587
v 11.961270 0.513779 -9.817722
v 11.473580 0.401419 -3.248762
v 17.587500 0.503356 -3.038907
v 17.921070 0.747770 -9.453377
v 17.587500 0.503356 -3.038907
v 23.484190 0.565060 -2.933335
v 23.673820 0.811134 -9.191532
v 17.921070 0.747770 -9.453377
v 17.587500 0.503356 -3.038907
v 11.473580 0.401419 -3.248762
v 11.644570 0.206141 1.940816
v 17.188761 0.241693 3.564328
v 17.587500 0.503356 -3.038907
v 17.188761 0.241693 3.564328
v 23.548140 0.315646 3.383942
v 23.484190 0.565060 -2.933335
v 23.548140 0.315646 3.383942
v 17.188761 0.241693 3.564328
v 16.322380 0.029943 8.715149
v 23.548140 0.315646 3.383942
v 31.014250 0.259509 6.686590
v 30.146070 0.425018 2.319594
v 23.548140 0.315646 3.383942
v 30.146070 0.425018 2.319594
v 29.461300 0.644407 -3.406530
v 23.484190 0.565060 -2.933335
v 29.461300 0.644407 -3.406530
v 30.146070 0.425018 2.319594
v 36.641350 0.556975 0.658771
v 35.189121 0.753633 -4.694769
v 29.461300 0.644407 -3.406530
v 35.189121 0.753633 -4.694769
v 34.383320 0.955107 -9.957356
v 29.187300 0.876163 -9.285457
v 29.461300 0.644407 -3.406530
v 29.187300 0.876163 -9.285457
v 23.673820 0.811134 -9.191532
v 23.484190 0.565060 -2.933335
v 29.187300 0.876163 -9.285457
v 34.383320 0.955107 -9.957356
v 34.874290 1.156962 -14.919759
v 29.813841 1.116200 -15.222900
v 29.187300 0.876163 -9.285457
v 29.813841 1.116200 -15.222900
v 24.492599 1.061064 -15.534587
v 23.673820 0.811134 -9.191532
v 24.492599 1.061064 -15.534587
v 29.813841 1.116200 -15.222900
v 31.712790 1.338154 -20.917517
v 26.131060 1.294521 -21.686480
v 24.492599 1.061064 -15.534587
v 26.131060 1.294521 -21.686480
v 20.408529 1.234743 -22.722427
v 18.936970 0.993474 -16.108648
v 24.492599 1.061064 -15.534587
v 18.936970 0.993474 -16.108648
v 17.921070 0.747770 -9.453377
v 23.673820 0.811134 -9.191532
v 20.408529 1.234743 -22.722427
v 26.131060 1.294521 -21.686480
v 28.360161 1.493413 -27.335451
v 21.977961 1.215083 -28.873922
v 20.408529 1.234743 -22.722427
v 21.977961 1.215083 -28.873922
v 17.676180 0.674558 -30.059404
v 15.365820 0.860897 -23.772549
v 20.408529 1.234743 -22.722427
v 15.365820 0.860897 -23.772549
v 13.354480 0.674290 -16.984587
v 18.936970 0.993474 -16.108648
v 28.360161 1.493413 -27.335451
v 26.131060 1.294521 -21.686480
v 31.712790 1.338154 -20.917517
v 34.393040 1.465180 -26.331446
v 28.360161 1.493413 -27.335451
v 34.393040 1.465180 -26.331446
v 37.265701 1.527493 -31.771444
v 30.781691 1.676931 -32.637276
v 28.360161 1.493413 -27.335451
v 30.781691 1.676931 -32.637276
v 24.635050 0.961957 -33.750557
v 21.977961 1.215083 -28.873922
v 30.781691 1.676931 -32.637276
v 26.719540 1.241190 -37.714577
v 24.635050 0.961957 -33.750557
v 33.912811 1.939565 -37.255791
v 33.212341 1.729739 -33.262054
v 27.366980 1.458572 -34.023911
v 33.212341 1.729739 -33.262054
v 39.275211 1.728316 -32.388588
v 37.234909 1.645552 -26.772535
v 31.670460 1.651368 -27.547192
v 33.212341 1.729739 -33.262054
v 31.670460 1.651368 -27.547192
v 26.061689 1.502257 -28.215147
v 27.366980 1.458572 -34.023911
v 31.670460 1.651368 -27.547192
v 37.234909 1.645552 -26.772535
v 35.165199 1.505380 -20.694721
v 29.877850 1.455983 -21.223770
v 31.670460 1.651368 -27.547192
v 29.877850 1.455983 -21.223770
v 24.521049 1.404714 -21.798094
v 26.061689 1.502257 -28.215147
v 24.521049 1.404714 -21.798094
v 19.166470 1.331134 -22.742046
v 21.099770 1.303577 -29.085421
v 26.061689 1.502257 -28.215147
v 24.521049 1.404714 -21.798094
v 29.877850 1.455983 -21.223770
v 28.051689 1.196714 -14.447948
v 22.790239 1.153932 -15.041858
v 24.521049 1.404714 -21.798094
v 22.790239 1.153932 -15.041858
v 17.160999 1.080191 -16.032333
v 19.166470 1.331134 -22.742046
v 17.160999 1.080191 -16.032333
v 11.578540 0.581165 -17.371056
v 13.895320 0.819542 -24.073940
v 19.166470 1.331134 -22.742046
v 17.160999 1.080191 -16.032333
v 22.790239 1.153932 -15.041858
v 21.480030 0.879042 -8.201659
v 15.429650 0.811002 -8.857594
v 17.160999 1.080191 -16.032333
v 15.429650 0.811002 -8.857594
v 9.288670 0.321063 -9.418678
v 11.578540 0.581165 -17.371056
v 9.288670 0.321063 -9.418678
v 15.429650 0.811002 -8.857594
v 16.642050 0.606680 -2.531273
v 11.502770 0.513968 -2.483391
v 15.429650 0.811002 -8.857594
v 21.480030 0.879042 -8.201659
v 22.624241 0.665385 -2.394806
v 16.642050 0.606680 -2.531273
v 22.624241 0.665385 -2.394806
v 21.480030 0.879042 -8.201659
v 28.036270 0.959132 -8.422376
v 29.029140 0.745057 -2.725574
v 22.624241 0.665385 -2.394806
v 29.029140 0.745057 -2.725574
v 30.229839 0.528562 3.006835
v 23.632240 0.436553 3.653644
v 22.624241 0.665385 -2.394806
v 23.632240 0.436553 3.653644
v 17.620180 0.407043 2.879128
v 16.642050 0.606680 -2.531273
v 23.632240 0.436553 3.653644
v 30.229839 0.528562 3.006835
v 31.071091 0.385962 6.790675
v 23.632240 0.436553 3.653644
v 17.290939 0.241446 6.982271
v 17.620180 0.407043 2.879128
v 37.950161 0.409073 4.717903
v 44.446430 0.563755 1.906963
v 42.354610 0.706090 -2.005464
v 36.641350 0.556975 0.658771
v 37.950161 0.409073 4.717903
v 36.641350 0.556975 0.658771
v 30.146070 0.425018 2.319594
v 31.014250 0.259509 6.686590
v 42.354610 0.706090 -2.005464
v 44.446430 0.563755 1.906963
v 49.253368 0.605255 -2.962384
v 46.441921 0.903407 -5.904700
v 42.354610 0.706090 -2.005464
v 46.441921 0.903407 -5.904700
v 44.628010 1.051448 -9.848526
v 40.208172 0.890644 -6.887689
v 42.354610 0.706090 -2.005464
v 40.208172 0.890644 -6.887689
v 35.189121 0.753633 -4.694769
v 36.641350 0.556975 0.658771
v 40.208172 0.890644 -6.887689
v 44.628010 1.051448 -9.848526
v 43.103710 1.204181 -14.020199
v 39.054081 1.057346 -11.385763
v 40.208172 0.890644 -6.887689
v 39.054081 1.057346 -11.385763
v 34.383320 0.955107 -9.957356
v 35.189121 0.753633 -4.694769
v 44.446430 0.563755 1.906963
v 45.417992 0.512378 3.775187
v 51.989979 0.606122 -0.168010
v 49.253368 0.605255 -2.962384
v 58.209839 1.222113 -14.291700
v 52.885571 1.385690 -20.422741
v 53.516232 1.036887 -13.821881
v 45.321442 1.673073 -30.181803
v 51.301041 1.729486 -26.340822
v 47.166908 1.562747 -22.146544
v 42.642429 1.614279 -25.239075
v 45.321442 1.673073 -30.181803
v 42.642429 1.614279 -25.239075
v 37.234909 1.645552 -26.772535
v 39.275211 1.728316 -32.388588
v 51.301041 1.729486 -26.340822
v 55.077881 1.512105 -20.490181
v 50.286308 1.438604 -17.785923
v 47.166908 1.562747 -22.146544
v 55.077881 1.512105 -20.490181
v 55.958271 1.229984 -13.483746
v 50.467331 1.245878 -12.819611
v 50.286308 1.438604 -17.785923
v 37.997871 0.522071 5.169259
v 30.229839 0.528562 3.006835
v 36.924160 0.639688 1.936074
v 37.997871 0.522071 5.169259
v 36.924160 0.639688 1.936074
v 43.518940 0.741964 0.461790
v 43.518940 0.741964 0.461790
v 36.924160 0.639688 1.936074
v 35.283321 0.838420 -3.493109
v 41.225319 0.943394 -4.654990
v 43.518940 0.741964 0.461790
v 41.225319 0.943394 -4.654990
v 46.468681 1.078643 -6.948763
v 48.833080 0.695997 -3.448130
v 43.518940 0.741964 0.461790
v 48.833080 0.695997 -3.448130
v 51.797531 0.722199 -0.038621
v 44.912571 0.658680 3.126366
v 41.225319 0.943394 -4.654990
v 35.283321 0.838420 -3.493109
v 34.079201 1.049526 -9.138023
v 39.765530 1.140947 -9.966773
v 41.225319 0.943394 -4.654990
v 39.765530 1.140947 -9.966773
v 45.262772 1.242474 -11.220680
v 46.468681 1.078643 -6.948763
v 39.765530 1.140947 -9.966773
v 34.079201 1.049526 -9.138023
v 33.651958 1.266444 -14.704427
v 39.362301 1.332428 -14.939273
v 39.765530 1.140947 -9.966773
v 39.362301 1.332428 -14.939273
v 44.827042 1.415146 -15.773817
v 45.262772 1.242474 -11.220680
v 33.651958 1.266444 -14.704427
v 28.051689 1.196714 -14.447948
v 29.877850 1.455983 -21.223770
v 35.165199 1.505380 -20.694721
v 33.651958 1.266444 -14.704427
v 35.165199 1.505380 -20.694721
v 40.339420 1.524155 -19.999266
v 39.362301 1.332428 -14.939273
v 33.651958 1.266444 -14.704427
v 34.079201 1.049526 -9.138023
v 28.036270 0.959132 -8.422376
v 28.051689 1.196714 -14.447948
v 34.079201 1.049526 -9.138023
v 35.283321 0.838420 -3.493109
v 29.029140 0.745057 -2.725574
v 28.036270 0.959132 -8.422376
v 35.283321 0.838420 -3.493109
v 36.924160 0.639688 1.936074
v 30.229839 0.528562 3.006835
v 29.029140 0.745057 -2.725574
v 52.037182 1.706373 -28.227591
v 43.268780 1.627333 -29.426729
v 48.807121 1.490864 -25.478127
v 52.037182 1.706373 -28.227591
v 52.885571 1.385690 -20.422741
v 56.540211 1.459761 -22.283752
v 48.807121 1.490864 -25.478127
v 43.268780 1.627333 -29.426729
v 39.926201 1.553474 -24.632933
v 44.720390 1.484631 -21.607866
v 48.807121 1.490864 -25.478127
v 44.720390 1.484631 -21.607866
v 47.744450 1.300258 -17.317524
v 52.885571 1.385690 -20.422741
v 47.744450 1.300258 -17.317524
v 44.720390 1.484631 -21.607866
v 40.797890 1.318312 -17.528212
v 43.103710 1.204181 -14.020199
v 47.744450 1.300258 -17.317524
v 43.103710 1.204181 -14.020199
v 44.628010 1.051448 -9.848526
v 48.858002 1.161011 -12.524375
v 47.744450 1.300258 -17.317524
v 48.858002 1.161011 -12.524375
v 53.516232 1.036887 -13.821881
v 52.885571 1.385690 -20.422741
v 44.720390 1.484631 -21.607866
v 39.926201 1.553474 -24.632933
v 36.828571 1.366861 -19.800800
v 40.797890 1.318312 -17.528212
v 39.926201 1.553474 -24.632933
v 34.393040 1.465180 -26.331446
v 31.712790 1.338154 -20.917517
v 36.828571 1.366861 -19.800800
v 39.926201 1.553474 -24.632933
v 43.268780 1.627333 -29.426729
v 37.265701 1.527493 -31.771444
v 34.393040 1.465180 -26.331446
v 28.036270 0.959132 -8.422376
v 21.480030 0.879042 -8.201659
v 22.790239 1.153932 -15.041858
v 28.051689 1.196714 -14.447948
v 35.165199 1.505380 -20.694721
v 37.234909 1.645552 -26.772535
v 42.642429 1.614279 -25.239075
v 40.339420 1.524155 -19.999266
v 31.712790 1.338154 -20.917517
v 29.813841 1.116200 -15.222900
v 34.874290 1.156962 -14.919759
v 36.828571 1.366861 -19.800800
v 16.322380 0.029943 8.715149
v 17.188761 0.241693 3.564328
v 11.644570 0.206141 1.940816
v 10.922850 0.456374 -24.740826
v 15.365820 0.860897 -23.772549
v 17.676180 0.674558 -30.059404
v 50.467331 1.245878 -12.819611
v 45.262772 1.242474 -11.220680
v 44.827042 1.415146 -15.773817
v 50.286308 1.438604 -17.785923
vn -0.0617 0.9958 -0.0679
vn -0.0617 0.9958 -0.0678
vn -0.0618 0.9958 -0.0677
vn -0.0194 0.9996 -0.0211
vn -0.0194 0.9996 -0.0210
vn -0.0359 0.9993 -0.0070
vn -0.0358 0.9993 -0.0070
vn 0.0226 -0.9997 0.0071
vn 0.0228 -0.9997 0.0071
vn 0.0230 -0.9997 0.0071
vn 0.0229 -0.9997 0.0071
vn 0.0285 -0.9994 0.0196
vn 0.0285 -0.9994 0.0195
vn 0.0575 -0.9964 0.0628
vn 0.0575 -0.9964 0.0627
vn 0.0461 -0.9970 -0.0629
vn 0.0462 -0.9970 -0.0623
vn 0.0304 -0.9970 -0.0706
vn 0.0307 -0.9970 -0.0708
vn 0.0308 -0.9970 -0.0708
vn 0.0306 -0.9970 -0.0708
vn 0.0501 -0.9976 -0.0476
vn 0.0420 -0.9985 -0.0343
vn 0.0424 -0.9985 -0.0342
vn 0.0427 -0.9985 -0.0341
vn 0.0614 -0.9980 0.0177
vn 0.0614 -0.9980 0.0176
vn 0.0308 -0.9994 -0.0129
vn 0.0308 -0.9994 -0.0130
vn 0.0309 -0.9994 -0.0131
vn 0.0523 -0.9974 0.0491
vn 0.0526 -0.9974 0.0492
vn 0.0309 -0.9987 0.0410
vn 0.0508 -0.9962 0.0713
vn 0.0507 -0.9962 0.0714
vn 0.0507 -0.9962 0.0715
vn 0.0333 -0.9984 0.0455
vn 0.0334 -0.9984 0.0455
vn 0.0232 -0.9997 0.0119
vn 0.0661 -0.9962 0.0568
vn 0.0595 -0.9981 0.0163
vn 0.0532 -0.9984 -0.0208
vn 0.0530 -0.9984 -0.0209
vn 0.0394 -0.9990 0.0228
vn 0.0396 -0.9990 0.0222
vn 0.0381 -0.9990 0.0247
vn 0.0553 -0.9985 -0.0036
vn 0.0490 -0.9988 0.0017
vn 0.0558 -0.9984 -0.0050
vn 0.0796 -0.9959 -0.0434
vn 0.0875 -0.9944 -0.0591
vn 0.0885 -0.9941 -0.0624
vn -0.0235 0.9083 -0.4177
vn -0.0235 0.9083 -0.4178
vn 0.0449 -0.9951 -0.0876
vn 0.0449 -0.9952 -0.0875
vn 0.0459 0.9790 -0.1985
vn 0.0484 0.9602 -0.2750
vn 0.0419 0.9806 -0.1916
vn -0.0787 0.9967 0.0204
vn -0.0670 0.9977 0.0099
vn -0.0662 0.9978 0.0078
vn -0.0521 0.9985 0.0169
vn -0.0521 0.9985 0.0168
vn -0.0410 0.9968 0.0686
vn -0.0610 0.9981 -0.0025
vn -0.0611 0.9981 -0.0025
vn -0.0398 0.9989 -0.0253
vn -0.0082 0.9971 0.0752
vn -0.0083 0.9971 0.0753
vn -0.0250 0.9965 0.0792
vn -0.0250 0.9965 0.0793
vn -0.0279 0.9965 0.0788
vn -0.0281 0.9965 0.0790
vn -0.0280 0.9965 0.0789
vn -0.0252 0.9948 0.0991
vn -0.0257 0.9947 0.0997
vn -0.0256 0.9947 0.0992
vn -0.0316 0.9942 0.1026
vn -0.0326 0.9944 0.1005
vn -0.0364 0.9947 0.0957
vn -0.0385 0.9945 0.0978
vn -0.0369 0.9946 0.0966
vn -0.0523 0.9967 -0.0623
vn -0.0591 0.9955 -0.0735
vn -0.0470 0.9976 -0.0516
vn -0.0469 0.9976 -0.0515
vn -0.0641 0.9974 -0.0326
vn -0.0641 0.9974 -0.0325
vn -0.0462 0.9986 -0.0269
vn -0.0261 0.9997 0.0009
vn -0.0260 0.9997 0.0010
vn -0.0258 0.9997 0.0010
vn -0.0259 0.9997 0.0010
vn -0.0700 0.9975 0.0136
vn -0.0698 0.9975 0.0137
vn -0.0700 0.9974 0.0198
vn -0.0700 0.9974 0.0197
vn -0.0741 0.9972 0.0114
vn -0.0743 0.9972 0.0113
vn -0.0742 0.9972 0.0114
vn -0.0673 0.9971 0.0343
vn -0.0673 0.9972 0.0341
vn -0.0582 0.9980 0.0254
vn -0.0581 0.9980 0.0254
vn -0.0473 0.9973 0.0566
vn -0.0462 0.9976 0.0521
vn -0.0474 0.9973 0.0562
vn -0.0487 0.9986 0.0192
vn -0.0488 0.9986 0.0192
vn -0.0240 0.9987 0.0444
vn -0.0281 0.9987 0.0430
vn -0.0243 0.9987 0.0442
vn -0.0353 0.9993 0.0150
vn -0.0354 0.9993 0.0152
vn -0.0355 0.9992 0.0155
vn -0.0001 1.0000 -0.0020
vn -0.0041 1.0000 -0.0034
vn -0.0454 0.9978 -0.0489
vn -0.0454 0.9978 -0.0490
vn -0.0453 0.9978 -0.0492
vn -0.0301 0.9982 -0.0512
vn -0.0300 0.9982 -0.0512
vn -0.0299 0.9982 -0.0512
vn -0.0317 0.9984 -0.0467
vn -0.0317 0.9984 -0.0466
vn -0.0389 0.9974 -0.0609
vn -0.0232 0.9994 -0.0261
vn -0.0239 0.9996 -0.0177
vn -0.0239 0.9996 -0.0176
vn -0.0202 0.9998 -0.0093
vn -0.0201 0.9998 -0.0093
vn -0.0194 0.9996 0.0203
vn -0.0223 0.9997 0.0075
vn -0.0144 0.9969 0.0776
vn -0.2545 -0.7904 -0.5572
vn -0.2545 -0.7904 -0.5573
vn -0.2503 0.5678 -0.7842
vn -0.2504 0.5677 -0.7842
vn -0.2503 0.5677 -0.7842
vn 0.0010 -0.9992 -0.0412
vn 0.0030 -0.9960 -0.0897
vn 0.0030 -0.9960 -0.0898
vn 0.0159 -0.9999 0.0023
vn 0.0160 -0.9996 -0.0250
vn 0.0331 -0.9994 0.0076
vn 0.0331 -0.9994 0.0075
vn 0.0330 -0.9994 0.0074
vn 0.0403 -0.9990 0.0177
vn 0.0402 -0.9990 0.0177
vn 0.0220 -0.9995 0.0229
vn 0.0220 -0.9995 0.0228
vn 0.0598 -0.9982 0.0036
vn 0.0597 -0.9982 0.0035
vn 0.0598 -0.9982 0.0037
vn 0.0637 -0.9979 0.0060
vn 0.0637 -0.9980 0.0060
vn 0.0636 -0.9980 0.0059
vn 0.0483 -0.9986 0.0234
vn 0.0483 -0.9986 0.0235
vn 0.0765 -0.9970 -0.0148
vn 0.0704 -0.9968 -0.0375
vn 0.0703 -0.9968 -0.0375
vn 0.0659 -0.9978 -0.0118
vn 0.0659 -0.9978 -0.0120
vn 0.0659 -0.9978 -0.0119
vn 0.0672 -0.9957 -0.0637
vn 0.0671 -0.9957 -0.0636
vn 0.0669 -0.9957 -0.0636
vn 0.0670 -0.9957 -0.0636
vn 0.0774 -0.9936 -0.0823
vn 0.0774 -0.9936 -0.0822
vn 0.0460 -0.9942 -0.0975
vn 0.0524 -0.9934 -0.1022
vn 0.0428 -0.9945 -0.0957
vn 0.0484 -0.9960 -0.0750
vn 0.0483 -0.9960 -0.0753
vn 0.0317 -0.9958 -0.0863
vn 0.0316 -0.9958 -0.0864
vn 0.0280 -0.9956 -0.0893
vn 0.0281 -0.9956 -0.0892
vn 0.0157 -0.9964 -0.0829
vn 0.0157 -0.9964 -0.0828
vn 0.0142 -0.9977 -0.0658
vn 0.0149 -0.9978 -0.0654
vn 0.0244 -0.9972 -0.0707
vn 0.0245 -0.9972 -0.0708
vn -0.0075 -0.9985 -0.0546
vn -0.0055 -0.9982 -0.0593
vn -0.0073 -0.9985 -0.0549
vn 0.0072 -0.9993 -0.0368
vn -0.0005 -0.9993 -0.0382
vn 0.0169 -0.9989 -0.0434
vn 0.0163 -0.9991 -0.0402
vn 0.0123 0.9977 0.0672
vn 0.0184 0.9984 0.0543
vn 0.0199 0.9959 0.0881
vn 0.0181 0.9961 0.0860
vn 0.0086 0.9968 0.0791
vn -0.0093 0.9959 0.0900
vn -0.0080 0.9960 0.0885
vn -0.0116 0.9954 0.0952
vn 0.0592 -0.9966 0.0574
vn 0.0591 -0.9966 0.0574
vn 0.0611 -0.9962 0.0620
vn 0.0611 -0.9962 0.0619
vn 0.0562 -0.9978 0.0352
vn 0.0562 -0.9978 0.0353
vn 0.0717 -0.9969 0.0310
vn 0.0718 -0.9969 0.0310
vn 0.0701 -0.9975 -0.0106
vn 0.0701 -0.9975 -0.0105
vn 0.0700 -0.9974 -0.0183
vn 0.0700 -0.9974 -0.0184
vn 0.0493 -0.9967 -0.0640
vn -0.1085 0.9930 -0.0465
vn -0.1085 0.9930 -0.0466
vn 0.0192 -0.9965 -0.0809
vn 0.0192 -0.9965 -0.0810
vn -0.0892 0.9953 -0.0369
vn -0.0893 0.9953 -0.0372
vn -0.0893 0.9953 -0.0370
vn -0.0676 0.9977 0.0030
vn -0.0736 0.9970 -0.0251
vn -0.0735 0.9970 -0.0251
vn -0.0588 0.9983 -0.0026
vn -0.0585 0.9983 -0.0035
vn -0.0585 0.9983 -0.0036
vn -0.0364 0.9993 -0.0132
vn -0.0363 0.9993 -0.0131
vn -0.0407 0.9990 -0.0194
vn -0.0407 0.9990 -0.0195
vn -0.0706 0.9975 0.0072
vn -0.0670 0.9977 0.0074
vn -0.0595 0.9982 -0.0058
vn -0.0595 0.9982 -0.0067
vn -0.0644 0.9979 -0.0060
vn -0.0479 0.9986 -0.0237
vn -0.0478 0.9986 -0.0237
vn -0.0478 0.9986 -0.0236
vn -0.0585 0.9980 -0.0234
vn -0.0585 0.9980 -0.0235
vn -0.0411 0.9989 -0.0218
vn -0.0410 0.9989 -0.0217
vn -0.0049 -0.9893 -0.1460
vn -0.0049 -0.9893 -0.1459
vn -0.1133 -0.9663 -0.2313
vn -0.1132 -0.9663 -0.2313
vn -0.1133 -0.9663 -0.2314
vn 0.0501 -0.9986 -0.0190
vn 0.0174 -0.9997 -0.0187
vn 0.0174 -0.9997 -0.0188
vn 0.0563 -0.9983 -0.0178
vn 0.0564 -0.9983 -0.0178
vn 0.0629 -0.9979 -0.0122
vn 0.0569 -0.9984 -0.0018
vn 0.0569 -0.9984 -0.0019
vn 0.0568 -0.9984 -0.0022
vn 0.0692 -0.9975 -0.0114
vn 0.0692 -0.9975 -0.0115
vn 0.0639 -0.9978 -0.0174
vn 0.0638 -0.9978 -0.0174
vn 0.0693 -0.9976 -0.0093
vn 0.0202 -0.9998 0.0037
vn 0.0201 -0.9998 0.0032
vn 0.0646 -0.9974 -0.0317
vn 0.0646 -0.9974 -0.0316
vn -0.0123 -0.9916 -0.1286
vn -0.0057 -0.9898 -0.1421
vn -0.0159 -0.9952 -0.0970
vn 0.0513 -0.9935 -0.1018
vn 0.0594 -0.9926 -0.1056
vn 0.0460 -0.9939 -0.1007
vn 0.0534 -0.9945 -0.0905
vn 0.0520 -0.9961 -0.0708
vn 0.0518 -0.9949 -0.0864
vn -0.0036 -0.9978 -0.0661
vn -0.0034 -0.9978 -0.0664
vn -0.0033 -0.9978 -0.0666
vn -0.0725 0.9973 0.0114
vn -0.0726 0.9973 0.0114
vn -0.0726 0.9973 0.0113
vn -0.0770 0.9970 0.0072
vn -0.0770 0.9970 0.0071
vn -0.0780 0.9964 -0.0322
vn -0.1762 0.9681 -0.1780
vn -0.2872 0.7272 -0.6234
vn -0.2872 0.7272 -0.6235
vn -0.2872 0.7271 -0.6235
vn 0.0413 -0.9986 0.0329
vn 0.0413 -0.9986 0.0330
vn -0.0696 0.9951 0.0708
vn -0.0697 0.9951 0.0708
vn -0.0745 0.9924 0.0978
vn -0.0746 0.9924 0.0978
vn -0.0007 0.9902 0.1398
vn 0.0103 0.9943 0.1064
vn 0.0007 0.9877 0.1561
vn -0.0547 0.9962 0.0676
vn -0.0548 0.9962 0.0673
vn -0.0548 0.9962 0.0670
vn -0.0663 0.9943 0.0832
vn -0.0661 0.9943 0.0831
vn -0.0662 0.9943 0.0832
vn -0.0354 0.9965 0.0761
vn -0.0355 0.9965 0.0758
vn -0.0355 0.9965 0.0760
vn -0.0134 0.9999 -0.0014
vn -0.0033 1.0000 0.0005
vn -0.0131 0.9999 -0.0010
vn -0.0620 0.9976 -0.0307
vn 0.0210 -0.9981 0.0580
vn 0.0277 -0.9996 -0.0019
vn 0.0277 -0.9996 -0.0018
vn 0.0277 -0.9996 -0.0017
vn -0.0017 0.9999 0.0132
vn -0.0015 0.9999 0.0131
vn -0.0014 0.9999 0.0131
vn 0.0098 0.9996 0.0269
vn 0.0098 0.9996 0.0268
vn -0.0099 0.9993 0.0364
vn -0.0098 0.9993 0.0365
vn -0.0100 0.9993 0.0363
vn -0.0304 0.9986 0.0424
vn -0.0303 0.9986 0.0423
vn -0.0194 0.9989 0.0438
vn -0.0161 0.9991 0.0381
vn -0.0160 0.9991 0.0381
vn -0.0159 0.9991 0.0381
vn 0.0114 0.9963 0.0850
vn 0.0036 0.9995 0.0310
vn 0.0036 0.9995 0.0309
vn 0.0093 0.9995 0.0285
vn 0.0093 0.9996 0.0285
vn 0.0092 0.9996 0.0284
vn 0.0314 -0.9988 -0.0364
vn 0.0400 -0.9987 -0.0300
vn 0.0246 -0.9990 -0.0373
vn 0.0292 -0.9988 -0.0382
vn 0.0282 -0.9989 -0.0383
vn 0.0317 -0.9988 -0.0382
vn 0.0011 -0.9993 -0.0386
vn 0.0011 -0.9993 -0.0385
vn 0.0011 -0.9993 -0.0384
vn -0.0311 -0.9991 -0.0276
vn -0.0310 -0.9991 -0.0275
vn -0.0310 -0.9991 -0.0276
vn -0.0224 -0.9972 -0.0718
vn -0.0226 -0.9972 -0.0719
vn 0.0100 -0.9992 -0.0387
vn 0.0103 -0.9992 -0.0388
vn 0.0101 -0.9992 -0.0398
vn 0.0100 -0.9992 -0.0399
vn 0.0099 -0.9992 -0.0397
vn 0.0098 -0.9992 -0.0396
vn 0.0575 -0.9938 0.0954
vn 0.0576 -0.9937 0.0957
vn 0.0658 -0.9922 0.1055
vn 0.0965 -0.9898 0.1047
vn 0.0963 -0.9898 0.1048
vn 0.0964 -0.9898 0.1048
vn -0.0626 0.9969 -0.0482
vn -0.0968 0.9926 -0.0737
vn -0.1311 0.9851 -0.1113
vn -0.1099 0.9899 -0.0893
vn -0.0591 0.9924 -0.1078
vn -0.0612 0.9923 -0.1076
vn -0.0580 0.9926 -0.1069
vn -0.0992 0.9940 -0.0467
vn -0.0901 0.9959 0.0071
vn -0.0959 0.9954 0.0071
vn -0.0822 0.9966 0.0057
vn 0.1018 -0.9948 -0.0040
vn 0.0500 -0.9985 -0.0206
vn 0.0501 -0.9985 -0.0206
vn 0.0290 -0.9993 -0.0256
vn 0.0289 -0.9993 -0.0255
vn 0.0119 -0.9992 -0.0382
vn 0.0120 -0.9992 -0.0381
vn 0.0180 -0.9991 -0.0382
vn 0.0177 -0.9991 -0.0385
vn 0.0108 -0.9992 -0.0393
vn 0.0109 -0.9992 -0.0393
vn 0.0108 -0.9992 -0.0392
vn 0.0105 -0.9992 -0.0393
vn 0.0101 -0.9992 -0.0399
vn 0.0102 -0.9992 -0.0395
vn 0.0101 -0.9992 -0.0396
vn 0.0106 -0.9992 -0.0394
vn 0.0104 -0.9992 -0.0393
vn 0.0118 -0.9992 -0.0384
vn 0.0119 -0.9992 -0.0385
vn 0.0124 -0.9993 -0.0348
vn 0.0160 -0.9993 -0.0332
vn 0.0162 -0.9993 -0.0334
vn 0.0161 -0.9993 -0.0333
vn 0.0144 -0.9993 -0.0359
vn 0.0143 -0.9992 -0.0361
vn 0.0141 -0.9992 -0.0362
vn 0.0142 -0.9992 -0.0361
vn 0.0291 -0.9996 -0.0059
vn 0.0291 -0.9996 -0.0058
vn 0.0291 -0.9996 -0.0060
vn 0.0869 -0.9953 0.0436
vn 0.0870 -0.9953 0.0436
vn 0.0677 -0.9976 -0.0142
vn 0.0677 -0.9976 -0.0143
vn 0.0676 -0.9976 -0.0143
vn 0.0054 -0.9996 -0.0270
vn 0.0055 -0.9996 -0.0270
vn 0.0053 -0.9996 -0.0269
vn -0.0103 -0.9995 -0.0283
vn -0.0100 -0.9996 -0.0278
vn -0.0098 -0.9996 -0.0273
vn 0.0702 -0.9967 0.0418
vn 0.0701 -0.9967 0.0418
vn 0.1170 -0.9931 -0.0089
vn 0.1166 -0.9931 -0.0081
vn 0.1148 -0.9934 -0.0066
vn -0.0534 0.9977 0.0422
vn -0.0558 0.9978 0.0355
vn -0.0515 0.9977 0.0451
vn -0.0015 0.9999 0.0139
vn -0.0012 0.9999 0.0137
vn -0.0360 0.9993 -0.0060
vn -0.0359 0.9993 -0.0059
vn -0.0359 0.9993 -0.0058
vn -0.0070 0.9997 0.0248
vn -0.0070 0.9997 0.0249
vn -0.0203 0.9996 0.0177
vn -0.0261 0.9997 -0.0016
vn -0.0127 0.9993 0.0344
vn -0.0126 0.9993 0.0343
vn -0.0125 0.9993 0.0343
vn -0.0190 0.9993 0.0320
vn -0.0193 0.9993 0.0316
vn -0.0941 0.9955 0.0060
vn -0.0942 0.9955 0.0060
vn -0.0171 0.9992 0.0351
vn -0.0168 0.9992 0.0350
vn -0.0860 0.9962 0.0120
vn -0.0523 0.9985 0.0144
vn -0.0522 0.9985 0.0144
vn -0.0522 0.9985 0.0143
vn -0.0130 0.9992 0.0370
vn -0.0130 0.9992 0.0369
vn -0.0105 0.9992 0.0392
vn -0.0104 0.9992 0.0394
vn -0.0104 0.9991 0.0399
vn -0.0101 0.9992 0.0395
vn -0.0103 0.9992 0.0392
vn -0.0102 0.9992 0.0392
vn -0.0103 0.9992 0.0391
vn -0.0100 0.9992 0.0399
vn -0.0100 0.9992 0.0395
vn 0.0074 -0.9992 -0.0393
vn 0.0071 -0.9992 -0.0395
vn 0.0070 -0.9992 -0.0395
vn 0.0073 -0.9992 -0.0394
vn 0.0102 -0.9992 -0.0397
vn 0.0102 -0.9992 -0.0399
vn -0.0214 -0.9986 -0.0489
vn 0.0087 -0.9991 -0.0415
vn 0.0085 -0.9991 -0.0415
vn 0.0085 -0.9992 -0.0403
vn 0.0085 -0.9992 -0.0402
vn 0.0084 -0.9992 -0.0402
vn 0.0098 -0.9992 -0.0395
vn 0.0099 -0.9992 -0.0398
vn 0.0022 -0.9999 -0.0126
vn 0.0022 -0.9999 -0.0125
vn 0.0293 -0.9982 -0.0516
vn 0.0396 -0.9978 -0.0525
vn 0.0190 -0.9989 -0.0431
vn -0.0113 0.9998 0.0163
vn -0.0112 0.9998 0.0163
vn 0.0027 0.9999 0.0146
vn 0.0028 0.9999 0.0146
vn -0.0007 0.9994 0.0339
vn -0.0006 0.9994 0.0339
vn 0.0071 0.9992 0.0390
vn 0.0072 0.9992 0.0390
vn -0.0102 0.9992 0.0397
vn -0.0073 0.9992 0.0381
vn -0.0080 0.9993 0.0374
vn -0.0073 0.9992 0.0393
vn -0.0080 0.9991 0.0411
vn -0.0079 0.9991 0.0408
vn -0.0079 0.9991 0.0407
vn -0.0080 0.9991 0.0409
vn 0.0237 0.9982 0.0548
vn 0.0238 0.9982 0.0548
vn 0.0028 1.0000 0.0074
vn -0.0099 0.9992 0.0395
vn -0.0102 0.9991 0.0400
vn -0.0088 0.9992 0.0401
vn -0.0087 0.9992 0.0402
vn -0.0103 0.9992 0.0397
vn -0.0099 0.9992 0.0393
vn -0.0094 0.9992 0.0390
vn -0.0092 0.9992 0.0391
vn -0.0117 0.9993 0.0358
vn -0.0118 0.9993 0.0359
vn -0.0120 0.9993 0.0360
vn -0.0094 0.9993 0.0368
vn -0.0093 0.9993 0.0368
vn -0.0106 0.9992 0.0394
vn -0.0100 0.9992 0.0398
vn 0.0164 -0.9987 -0.0484
vn 0.0248 -0.9978 -0.0622
vn 0.0127 -0.9996 -0.0271
vn -0.0035 -0.9993 -0.0369
vn 0.0041 -0.9991 -0.0413
vn 0.0135 -0.9990 -0.0425
vn -0.0086 -0.9998 -0.0165
vn -0.0086 -0.9998 -0.0167
vn -0.0085 -0.9997 -0.0245
vn -0.0086 -0.9997 -0.0245
vn -0.0015 -0.9993 -0.0377
vn -0.0015 -0.9993 -0.0373
vn -0.0015 -0.9993 -0.0372
vn 0.0010 -0.9995 -0.0329
vn 0.0011 -0.9995 -0.0329
vn 0.0011 -0.9995 -0.0328
vn -0.0217 -0.9990 -0.0394
vn -0.0217 -0.9990 -0.0395
vn 0.0071 -0.9994 -0.0340
vn 0.0072 -0.9994 -0.0339
vn 0.0165 -0.9996 -0.0214
vn 0.0166 -0.9996 -0.0212
vn 0.0173 -0.9998 -0.0028
vn 0.0172 -0.9998 -0.0028
vn -0.0116 0.9992 0.0386
vn -0.0115 0.9992 0.0385
vn -0.0117 0.9992 0.0387
vn -0.0029 0.9998 0.0191
vn -0.0029 0.9998 0.0193
vn -0.0028 0.9998 0.0194
vn -0.0029 0.9998 0.0192
vn 0.0121 -0.9993 -0.0365
vn 0.0119 -0.9993 -0.0364
vn 0.0118 -0.9993 -0.0364
vn 0.0119 -0.9993 -0.0365
vn 0.0179 -0.9991 -0.0383
vn 0.0204 -0.9990 -0.0401
vn 0.0176 -0.9991 -0.0381
vn 0.0776 -0.9954 0.0561
vn 0.0704 -0.9963 0.0485
vn 0.0793 -0.9951 0.0594
vn 0.0102 0.9992 0.0378
vn 0.0103 0.9992 0.0376
vn 0.0102 0.9992 0.0377
vt 0.267270 0.321030
vt 0.268270 0.307560
vt 0.255090 0.305180
vt 0.259200 0.323930
vt 0.266120 0.341680
vt 0.276200 0.330680
vt 0.282920 0.315220
vt 0.441650 0.612440
vt 0.438030 0.624570
vt 0.423500 0.614540
vt 0.432950 0.601350
vt 0.445320 0.591600
vt 0.451940 0.610550
vt 0.455620 0.629630
vt 0.362030 0.659200
vt 0.356690 0.685440
vt 0.344330 0.664770
vt 0.335860 0.641420
vt 0.354650 0.640840
vt 0.389240 0.662870
vt 0.405590 0.673370
vt 0.390340 0.690120
vt 0.401800 0.646530
vt 0.418800 0.656880
vt 0.437540 0.666530
vt 0.424350 0.683870
vt 0.412890 0.630180
vt 0.430400 0.640900
vt 0.448360 0.648770
vt 0.456870 0.651710
vt 0.447190 0.670990
vt 0.463430 0.630620
vt 0.468840 0.631250
vt 0.462070 0.653400
vt 0.462970 0.607880
vt 0.468450 0.606550
vt 0.473420 0.605430
vt 0.473820 0.631790
vt 0.451670 0.586980
vt 0.461020 0.581010
vt 0.478190 0.604410
vt 0.238360 0.330110
vt 0.239890 0.329670
vt 0.239040 0.302480
vt 0.238120 0.302220
vt 0.478420 0.632290
vt 0.253230 0.353990
vt 0.244630 0.328420
vt 0.249590 0.327050
vt 0.248990 0.304070
vt 0.243640 0.303230
vt 0.256760 0.350570
vt 0.260900 0.346710
vt 0.371740 0.336690
vt 0.363720 0.356430
vt 0.385040 0.360270
vt 0.391500 0.336220
vt 0.390870 0.307650
vt 0.372240 0.311190
vt 0.387290 0.281480
vt 0.369330 0.287440
vt 0.411700 0.333460
vt 0.406180 0.274810
vt 0.399220 0.246900
vt 0.380890 0.256560
vt 0.326950 0.132250
vt 0.322110 0.133250
vt 0.312450 0.156560
vt 0.315980 0.157380
vt 0.321110 0.160620
vt 0.333280 0.136270
vt 0.328890 0.165580
vt 0.343110 0.142890
vt 0.305770 0.180830
vt 0.310950 0.183990
vt 0.318270 0.188510
vt 0.332320 0.196800
vt 0.347440 0.177830
vt 0.299000 0.205120
vt 0.304890 0.208880
vt 0.319760 0.217960
vt 0.293580 0.229430
vt 0.309390 0.239120
vt 0.326860 0.250670
vt 0.338130 0.229650
vt 0.300930 0.259430
vt 0.319060 0.269930
vt 0.335730 0.280400
vt 0.294000 0.278260
vt 0.313080 0.288540
vt 0.331260 0.298720
vt 0.307520 0.306720
vt 0.288520 0.296200
vt 0.275800 0.268930
vt 0.269160 0.288290
vt 0.267730 0.264520
vt 0.259550 0.284460
vt 0.263070 0.261830
vt 0.254030 0.282160
vt 0.259190 0.259350
vt 0.249520 0.280170
vt 0.255660 0.256900
vt 0.245530 0.278360
vt 0.321680 0.808410
vt 0.317690 0.806600
vt 0.311190 0.830730
vt 0.315800 0.831470
vt 0.471010 0.656150
vt 0.460880 0.677610
vt 0.459770 0.677180
vt 0.470820 0.656300
vt 0.337740 0.866490
vt 0.337920 0.866340
vt 0.330330 0.890360
vt 0.331250 0.890620
vt 0.456030 0.675150
vt 0.466590 0.654880
vt 0.451920 0.673130
vt 0.444380 0.693620
vt 0.440440 0.691860
vt 0.435510 0.689520
vt 0.430220 0.711800
vt 0.423840 0.708770
vt 0.408900 0.701010
vt 0.409270 0.727700
vt 0.390410 0.716710
vt 0.372470 0.702930
vt 0.353180 0.714190
vt 0.336960 0.693110
vt 0.333770 0.723090
vt 0.315380 0.699600
vt 0.303870 0.671460
vt 0.323770 0.669310
vt 0.316670 0.641050
vt 0.313500 0.610880
vt 0.333400 0.612910
vt 0.315320 0.580820
vt 0.337000 0.584290
vt 0.359480 0.595720
vt 0.354620 0.619120
vt 0.346310 0.564050
vt 0.396750 0.619190
vt 0.376440 0.383340
vt 0.406270 0.362220
vt 0.372190 0.790340
vt 0.386100 0.770950
vt 0.396440 0.776700
vt 0.384320 0.802190
vt 0.402170 0.779260
vt 0.389810 0.804290
vt 0.402280 0.751330
vt 0.408490 0.754070
vt 0.413470 0.756110
vt 0.418070 0.757820
vt 0.405000 0.778770
vt 0.420700 0.733240
vt 0.425090 0.735510
vt 0.429270 0.737730
vt 0.287270 0.196780
vt 0.290820 0.199430
vt 0.301320 0.178290
vt 0.298470 0.176690
vt 0.438070 0.715180
vt 0.441260 0.716370
vt 0.275280 0.218150
vt 0.278990 0.220280
vt 0.282780 0.222600
vt 0.294740 0.202240
vt 0.266350 0.238540
vt 0.269800 0.240620
vt 0.273310 0.242830
vt 0.277130 0.245300
vt 0.286970 0.225230
vt 0.284430 0.249830
vt 0.450190 0.695970
vt 0.448150 0.695240
vt 0.434060 0.713510
vt 0.415780 0.730830
vt 0.388920 0.744270
vt 0.370640 0.759750
vt 0.371050 0.731330
vt 0.352490 0.743310
vt 0.355290 0.773070
vt 0.336810 0.752510
vt 0.315620 0.730810
vt 0.322210 0.553430
vt 0.311540 0.155740
vt 0.322050 0.132620
vt 0.394490 0.801890
vt 0.352320 0.209100
vt 0.369480 0.231630
vt 0.386450 0.220220
vt 0.368780 0.195760
vt 0.401800 0.209780
vt 0.383630 0.184170
vt 0.363290 0.161500
vt 0.353140 0.247630
vt 0.363680 0.266300
vt 0.299590 0.326120
vt 0.723220 0.205090
vt 0.719900 0.187490
vt 0.696000 0.197990
vt 0.710110 0.218620
vt 0.730000 0.232850
vt 0.739180 0.207950
vt 0.742990 0.183030
vt 0.821750 0.063710
vt 0.832890 0.055640
vt 0.805060 0.041830
vt 0.799890 0.055980
vt 0.824350 0.083880
vt 0.843080 0.082380
vt 0.799660 0.079420
vt 0.769990 0.232280
vt 0.775350 0.245640
vt 0.795470 0.226220
vt 0.779450 0.215440
vt 0.759950 0.209940
vt 0.752670 0.233680
vt 0.749640 0.258720
vt 0.686060 0.957600
vt 0.679970 0.943380
vt 0.703650 0.944160
vt 0.651300 0.957260
vt 0.729160 0.769820
vt 0.746050 0.773670
vt 0.733830 0.792960
vt 0.715840 0.784690
vt 0.724570 0.749920
vt 0.751940 0.752430
vt 0.702380 0.771870
vt 0.755670 0.821700
vt 0.768880 0.810430
vt 0.779240 0.828530
vt 0.756960 0.837440
vt 0.734320 0.839680
vt 0.740840 0.818380
vt 0.752870 0.799910
vt 0.852910 0.908680
vt 0.827910 0.939030
vt 0.825890 0.915870
vt 0.820570 0.896260
vt 0.842760 0.884140
vt 0.651150 0.105690
vt 0.655990 0.128330
vt 0.682460 0.122380
vt 0.678520 0.099750
vt 0.673940 0.078920
vt 0.671200 0.057770
vt 0.648060 0.075620
vt 0.707430 0.090930
vt 0.701440 0.066890
vt 0.697130 0.049520
vt 0.732030 0.056330
vt 0.770950 0.956340
vt 0.766300 0.935580
vt 0.797260 0.926410
vt 0.801610 0.946670
vt 0.733610 0.941940
vt 0.731990 0.914760
vt 0.762360 0.910120
vt 0.702710 0.916280
vt 0.702240 0.889390
vt 0.730800 0.888520
vt 0.672580 0.918100
vt 0.673410 0.889090
vt 0.649070 0.922050
vt 0.658350 0.855050
vt 0.678280 0.859010
vt 0.704410 0.862130
vt 0.685870 0.829380
vt 0.710300 0.836010
vt 0.731240 0.863380
vt 0.758340 0.860520
vt 0.759750 0.884790
vt 0.784330 0.851860
vt 0.787830 0.877320
vt 0.792540 0.903410
vt 0.813600 0.867150
vt 0.809020 0.839640
vt 0.833830 0.826540
vt 0.837800 0.856110
vt 0.860870 0.874630
vt 0.641190 0.158180
vt 0.659420 0.154990
vt 0.663400 0.182640
vt 0.689010 0.173330
vt 0.685480 0.147950
vt 0.716730 0.163890
vt 0.714330 0.139780
vt 0.711720 0.115350
vt 0.745250 0.131450
vt 0.742550 0.107460
vt 0.738050 0.081790
vt 0.773770 0.101480
vt 0.770790 0.073890
vt 0.768310 0.045890
vt 0.800270 0.106700
vt 0.772750 0.131380
vt 0.798750 0.135910
vt 0.824910 0.141390
vt 0.827870 0.111300
vt 0.842180 0.145220
vt 0.667340 0.823420
vt 0.680180 0.793790
vt 0.698030 0.803330
vt 0.720310 0.813120
vt 0.671660 0.789360
vt 0.689640 0.759390
vt 0.754110 0.731020
vt 0.782080 0.755310
vt 0.673470 0.210210
vt 0.690970 0.237480
vt 0.717660 0.254700
vt 0.834770 0.176810
vt 0.820010 0.171910
vt 0.813280 0.201990
vt 0.795240 0.164430
vt 0.789930 0.191530
vt 0.811000 0.239740
vt 0.825440 0.208340
vt 0.769480 0.158940
vt 0.765690 0.184870
vt 0.744070 0.156990
vt 0.817700 0.759170
vt 0.823160 0.799160
vt 0.805140 0.773900
vt 0.790570 0.738640
vt 0.801300 0.814400
vt 0.787500 0.792540
vt 0.767920 0.778750
s 1
usemtl BLy_Orange.002
f 1/1/1 3/3/3 2/2/2
f 1/1/1 4/4/2 3/3/3
f 5/1/4 7/5/5 6/4/5
f 5/1/4 8/6/4 7/5/5
f 9/1/6 11/7/7 10/6/6
f 9/1/6 12/2/6 11/7/7
f 13/8/8 15/10/10 14/9/9
f 13/8/8 16/11/11 15/10/10
f 17/8/12 19/12/13 18/11/13
f 17/8/12 20/13/13 19/12/13
f 21/8/14 23/14/14 22/13/15
f 21/8/14 24/9/14 23/14/14
f 25/15/16 27/17/17 26/16/16
f 28/15/18 30/18/20 29/17/19
f 28/15/18 31/19/21 30/18/20
s 0
f 32/20/22 34/22/22 33/21/22
s 1
f 35/20/23 37/24/25 36/23/24
f 35/20/23 38/21/24 37/24/25
f 39/24/26 41/26/27 40/25/27
f 39/24/26 42/21/26 41/26/27
f 43/24/28 45/27/30 44/23/29
f 43/24/28 46/28/28 45/27/30
f 47/24/31 49/29/32 48/28/31
f 47/24/31 50/25/31 49/29/32
f 51/29/33 53/31/33 52/30/33
f 51/29/33 54/25/33 53/31/33
f 55/29/34 57/9/35 56/28/35
f 55/29/34 58/14/36 57/9/35
f 59/29/37 61/32/37 60/14/38
f 59/29/37 62/30/37 61/32/37
f 63/32/39 65/34/39 64/33/39
f 63/32/39 66/30/39 65/34/39
f 67/32/40 69/13/40 68/14/40
f 67/32/40 70/35/40 69/13/40
f 71/32/41 73/36/41 72/35/41
f 71/32/41 74/33/41 73/36/41
f 75/36/42 77/38/43 76/37/43
f 75/36/42 78/33/43 77/38/43
f 79/36/44 81/39/46 80/35/45
f 82/36/47 84/37/49 83/40/48
f 85/40/50 87/37/52 86/41/51
f 88/42/53 90/44/53 89/43/53
f 88/42/53 91/45/54 90/44/53
f 92/41/55 94/38/55 93/46/55
f 92/41/55 95/37/56 94/38/55
f 96/42/57 98/43/59 97/47/58
f 99/47/60 101/43/62 100/48/61
f 102/48/63 104/50/64 103/49/63
f 102/48/63 105/51/63 104/50/64
f 106/48/65 108/44/65 107/51/65
f 106/48/65 109/43/65 108/44/65
f 110/48/66 112/53/67 111/52/67
f 110/48/66 113/49/67 112/53/67
f 114/53/68 116/4/68 115/5/68
f 114/53/68 117/49/68 116/4/68
f 118/54/69 120/56/70 119/55/70
f 118/54/69 121/57/70 120/56/70
s 0
f 122/54/71 124/58/71 123/57/71
s 1
f 122/54/72 125/59/72 124/58/72
f 126/58/73 128/61/74 127/60/74
f 126/58/73 129/59/75 128/61/74
f 130/58/76 132/62/78 131/57/77
f 133/58/79 135/60/80 134/63/79
f 136/63/81 138/65/83 137/64/82
f 139/66/84 141/68/84 140/67/84
f 139/66/84 142/69/84 141/68/84
f 143/66/85 145/70/85 144/69/85
f 143/66/85 146/71/85 145/70/85
f 147/70/86 149/73/86 148/72/86
f 147/70/86 150/71/87 149/73/86
f 151/70/88 153/74/88 152/69/88
f 151/70/88 154/75/89 153/74/88
f 155/70/90 157/76/90 156/75/90
f 155/70/90 158/72/90 157/76/90
f 159/76/91 161/78/93 160/77/92
f 159/76/91 162/72/94 161/78/93
s 0
f 163/76/95 165/79/95 164/75/95
s 1
f 163/76/96 166/80/96 165/79/96
f 167/76/97 169/81/98 168/80/98
f 167/76/97 170/77/98 169/81/98
f 171/81/99 173/82/100 172/80/99
f 171/81/99 174/83/101 173/82/100
f 175/81/102 177/84/103 176/83/103
f 175/81/102 178/85/102 177/84/103
f 179/84/104 181/86/104 180/83/104
f 179/84/104 182/87/105 181/86/104
f 183/84/106 185/88/108 184/87/107
f 186/87/109 188/89/110 187/86/109
f 186/87/109 189/90/110 188/89/110
f 190/91/111 192/92/113 191/90/112
f 193/92/114 195/89/116 194/90/115
f 193/92/114 196/93/115 195/89/116
f 197/92/117 199/7/117 198/93/118
f 200/93/119 202/94/121 201/89/120
f 200/93/119 203/95/120 202/94/121
f 204/93/122 206/2/124 205/95/123
f 204/93/122 207/7/123 206/2/124
f 208/95/125 210/96/126 209/94/125
f 208/95/125 211/97/125 210/96/126
f 212/95/127 214/3/127 213/97/127
f 212/95/127 215/2/127 214/3/127
f 216/97/128 218/98/128 217/96/128
f 216/97/128 219/99/128 218/98/128
f 220/97/129 222/50/130 221/99/130
f 220/97/129 223/3/130 222/50/130
f 224/99/131 226/100/132 225/98/131
f 224/99/131 227/101/132 226/100/132
f 228/99/133 230/51/133 229/101/133
f 228/99/133 231/50/133 230/51/133
f 232/101/134 234/102/134 233/100/134
f 232/101/134 235/103/134 234/102/134
f 236/104/135 238/106/135 237/105/135
f 236/104/135 239/107/135 238/106/135
f 240/108/136 242/110/137 241/109/137
f 240/108/136 243/111/136 242/110/137
f 244/112/138 246/114/138 245/113/139
f 244/112/138 247/115/140 246/114/138
f 248/111/141 250/116/141 249/110/141
f 248/111/141 251/117/141 250/116/141
f 252/111/142 254/38/143 253/117/142
f 252/111/142 255/46/142 254/38/143
f 256/117/144 258/118/144 257/116/144
f 256/117/144 259/34/144 258/118/144
f 260/117/145 262/33/145 261/34/145
f 260/117/145 263/38/145 262/33/145
f 264/118/146 266/119/148 265/116/147
f 264/118/146 267/120/148 266/119/148
f 268/118/149 270/121/150 269/120/149
f 268/118/149 271/31/149 270/121/150
f 272/118/151 274/30/152 273/31/151
f 272/118/151 275/34/151 274/30/152
f 276/121/153 278/122/155 277/120/154
f 276/121/153 279/123/153 278/122/155
f 280/121/156 282/124/158 281/123/157
f 280/121/156 283/26/156 282/124/158
f 284/121/159 286/25/160 285/26/159
f 284/121/159 287/31/159 286/25/160
f 288/124/161 290/125/161 289/123/161
f 288/124/161 291/126/161 290/125/161
f 292/124/162 294/127/163 293/126/163
f 292/124/162 295/22/163 294/127/163
f 296/124/164 298/21/165 297/22/165
f 296/124/164 299/26/166 298/21/165
f 300/127/167 302/129/169 301/128/168
f 300/127/167 303/16/170 302/129/169
f 304/129/171 306/130/172 305/128/172
f 304/129/171 307/131/171 306/130/172
f 308/129/173 310/132/175 309/131/174
f 311/129/176 313/17/177 312/133/176
f 311/129/176 314/16/176 313/17/177
f 315/133/178 317/18/179 316/134/179
f 315/133/178 318/17/179 317/18/179
s 0
f 319/134/180 321/136/180 320/135/180
f 319/134/181 322/18/181 321/136/181
s 1
f 323/136/182 325/137/183 324/135/183
f 323/136/182 326/138/183 325/137/183
s 0
f 327/136/184 329/139/184 328/138/184
f 327/136/185 330/140/185 329/139/185
s 1
f 331/136/186 333/19/187 332/140/186
f 331/136/186 334/18/186 333/19/187
f 335/139/188 337/141/190 336/138/189
f 338/142/191 340/27/192 339/10/191
f 341/142/193 343/23/193 342/27/194
f 344/143/195 346/55/195 345/56/196
f 347/143/197 349/56/199 348/144/198
f 350/144/200 352/56/202 351/57/201
f 353/145/203 355/147/203 354/146/204
f 353/145/203 356/148/204 355/147/203
f 357/147/205 359/150/206 358/149/206
f 357/147/205 360/148/206 359/150/206
f 361/147/207 363/151/208 362/146/208
f 361/147/207 364/152/207 363/151/208
f 365/147/209 367/153/209 366/152/209
f 365/147/209 368/149/210 367/153/209
f 369/153/211 371/155/212 370/154/211
f 369/153/211 372/149/212 371/155/212
f 373/153/213 375/156/214 374/152/214
f 373/153/213 376/157/213 375/156/214
f 377/153/215 379/158/215 378/157/215
f 377/153/215 380/154/215 379/158/215
f 381/159/216 383/161/217 382/160/216
f 381/159/216 384/162/216 383/161/217
f 385/158/218 387/163/218 386/157/218
f 385/158/218 388/164/219 387/163/218
f 389/159/220 391/166/221 390/165/221
f 389/159/220 392/160/222 391/166/221
f 393/166/223 395/168/223 394/167/223
f 393/166/223 396/160/223 395/168/223
f 397/166/224 399/169/225 398/165/225
f 397/166/224 400/170/225 399/169/225
f 401/166/226 403/171/226 402/170/226
f 401/166/226 404/167/226 403/171/226
f 405/171/227 407/173/227 406/172/228
f 405/171/227 408/167/228 407/173/227
s 0
f 409/171/229 411/100/229 410/170/229
f 409/171/230 412/98/230 411/100/230
s 1
f 413/171/231 415/96/231 414/98/232
f 413/171/231 416/172/231 415/96/231
f 417/173/233 419/80/233 418/82/233
f 417/173/233 420/79/233 419/80/233
f 421/173/234 423/168/234 422/79/234
f 421/173/234 424/167/234 423/168/234
s 0
f 425/173/235 427/174/235 426/172/235
f 425/173/236 428/82/236 427/174/236
s 1
f 429/174/237 431/83/237 430/86/237
f 429/174/237 432/82/237 431/83/237
f 433/174/238 435/96/239 434/172/239
f 433/174/238 436/94/240 435/96/239
f 437/174/241 439/89/242 438/94/242
f 437/174/241 440/86/242 439/89/242
f 441/170/243 443/102/243 442/169/244
f 441/170/243 444/100/244 443/102/243
f 445/175/245 447/163/245 446/164/246
f 445/175/245 448/176/245 447/163/245
f 449/175/247 451/110/249 450/176/248
f 449/175/247 452/109/247 451/110/249
f 453/176/250 455/177/250 454/163/250
f 453/176/250 456/119/250 455/177/250
f 457/176/251 459/116/251 458/119/252
f 457/176/251 460/110/252 459/116/251
f 461/177/253 463/157/254 462/163/254
f 461/177/253 464/156/254 463/157/254
f 465/177/255 467/178/255 466/156/255
f 465/177/255 468/122/255 467/178/255
f 469/177/256 471/120/258 470/122/257
f 469/177/256 472/119/258 471/120/258
f 473/178/259 475/152/260 474/156/260
f 473/178/259 476/151/260 475/152/260
f 477/178/261 479/179/261 478/151/262
f 477/178/261 480/125/261 479/179/261
f 481/178/263 483/123/263 482/125/263
f 481/178/263 484/122/263 483/123/263
f 485/179/264 487/146/264 486/151/264
s 0
f 485/179/265 488/180/265 487/146/265
s 1
f 489/179/266 491/126/266 490/181/266
f 489/179/266 492/125/267 491/126/266
f 493/182/268 495/184/270 494/183/269
f 496/182/271 498/185/273 497/184/272
f 499/182/274 501/128/276 500/130/275
f 502/186/277 504/138/279 503/141/278
f 502/186/277 505/137/278 504/138/279
f 506/168/280 508/75/281 507/79/281
f 506/168/280 509/74/282 508/75/281
f 510/168/283 512/161/284 511/74/284
f 510/168/283 513/160/283 512/161/284
f 514/161/285 516/69/285 515/74/285
f 514/161/285 517/68/285 516/69/285
f 518/161/286 520/187/286 519/68/286
f 518/161/286 521/162/286 520/187/286
f 522/187/287 524/67/288 523/68/288
f 522/187/287 525/188/289 524/67/288
f 526/155/290 528/150/290 527/189/290
f 526/155/290 529/149/291 528/150/290
f 530/190/292 532/192/293 531/191/292
f 530/190/292 533/193/292 532/192/293
f 534/193/294 536/194/295 535/192/295
f 534/193/294 537/195/295 536/194/295
f 538/193/296 540/196/298 539/195/297
f 541/191/299 543/198/301 542/197/300
f 541/191/299 544/65/300 543/198/301
f 545/191/302 547/64/304 546/65/303
f 545/191/302 548/192/303 547/64/304
f 549/65/305 551/61/306 550/198/305
f 549/65/305 552/60/307 551/61/306
f 553/199/308 555/6/310 554/7/309
f 556/50/311 558/4/311 557/49/311
f 556/50/311 559/3/311 558/4/311
f 560/39/312 562/13/312 561/35/312
f 560/39/312 563/12/312 562/13/312
f 564/28/313 566/10/315 565/27/314
f 564/28/313 567/9/314 566/10/315
f 568/200/316 570/202/318 569/201/317
f 568/200/316 571/203/317 570/202/318
f 572/200/319 574/204/319 573/203/320
f 572/200/319 575/205/320 574/204/319
f 576/200/321 578/206/323 577/205/322
f 576/200/321 579/201/323 578/206/323
f 580/207/324 582/209/325 581/208/324
f 580/207/324 583/210/324 582/209/325
f 584/207/326 586/212/326 585/211/326
f 584/207/326 587/208/326 586/212/326
f 588/207/327 590/213/327 589/210/328
f 588/207/327 591/211/329 590/213/327
f 592/214/330 594/216/330 593/215/330
f 592/214/330 595/217/330 594/216/330
f 596/214/331 598/218/332 597/217/331
f 596/214/331 599/219/331 598/218/332
f 600/214/333 602/220/335 601/219/334
f 600/214/333 603/215/334 602/220/335
f 604/221/336 606/223/338 605/222/337
f 607/221/339 609/222/341 608/224/340
f 610/225/342 612/227/344 611/226/343
f 610/225/342 613/228/344 612/227/344
f 614/225/345 616/230/345 615/229/346
f 614/225/345 617/226/347 616/230/345
f 618/225/348 620/231/349 619/228/348
f 618/225/348 621/229/348 620/231/349
s 0
f 622/232/350 624/234/350 623/233/350
f 622/232/351 625/235/351 624/234/351
f 626/232/352 628/236/352 627/235/352
s 1
f 626/232/353 629/237/353 628/236/353
f 630/232/354 632/238/355 631/237/354
f 630/232/354 633/233/354 632/238/355
f 634/239/356 636/241/358 635/240/357
f 637/239/359 639/242/360 638/241/359
f 637/239/359 640/243/361 639/242/360
f 641/244/362 643/246/362 642/245/362
f 641/244/362 644/247/362 643/246/362
f 645/244/363 647/248/365 646/247/364
f 648/248/366 650/250/368 649/249/367
f 651/248/369 653/251/369 652/247/369
f 651/248/369 654/252/369 653/251/369
f 655/253/370 657/254/372 656/252/371
f 658/255/373 660/257/373 659/256/373
f 658/255/373 661/258/373 660/257/373
f 662/259/374 664/261/375 663/260/375
f 662/259/374 665/256/375 664/261/375
f 666/259/376 668/262/377 667/223/376
f 666/259/376 669/260/376 668/262/377
f 670/262/378 672/264/379 671/263/378
f 670/262/378 673/260/378 672/264/379
s 0
f 674/262/380 676/222/380 675/223/380
f 674/262/381 677/265/381 676/222/381
s 1
f 678/262/382 680/266/384 679/265/383
f 678/262/382 681/263/384 680/266/384
s 0
f 682/266/385 684/267/385 683/265/385
f 685/266/386 687/269/386 686/268/386
f 688/266/387 690/270/387 689/269/387
f 688/266/388 691/263/388 690/270/388
f 692/270/387 694/271/387 693/269/387
f 692/270/387 695/272/387 694/271/387
f 696/270/352 698/236/352 697/272/352
f 696/270/353 699/273/353 698/236/353
s 1
f 700/270/389 702/264/389 701/273/389
f 700/270/389 703/263/385 702/264/389
f 704/273/390 706/235/390 705/236/390
s 0
f 704/273/390 707/274/390 706/235/390
s 1
f 708/273/391 710/275/392 709/274/392
f 708/273/391 711/264/392 710/275/392
s 0
f 712/275/393 714/276/393 713/274/393
f 712/275/393 715/277/393 714/276/393
s 1
f 716/275/394 718/278/396 717/277/395
f 716/275/394 719/261/394 718/278/396
f 720/275/397 722/260/399 721/261/398
f 720/275/397 723/264/400 722/260/399
f 724/278/401 726/279/403 725/277/402
f 724/278/401 727/242/402 726/279/403
f 728/278/404 730/241/404 729/242/405
f 728/278/404 731/257/404 730/241/404
f 732/278/406 734/256/408 733/257/407
f 732/278/406 735/261/407 734/256/408
f 736/279/409 738/276/411 737/277/410
f 736/279/409 739/280/409 738/276/411
f 740/279/412 742/281/414 741/280/413
f 740/279/412 743/282/413 742/281/414
f 744/279/415 746/243/416 745/282/415
f 744/279/415 747/242/415 746/243/416
f 748/282/417 750/243/419 749/283/418
f 751/284/420 753/245/422 752/285/421
s 0
f 754/285/423 756/287/423 755/286/423
s 1
f 754/285/424 757/288/424 756/287/424
f 758/285/425 760/246/427 759/288/426
f 758/285/425 761/245/426 760/246/427
f 762/288/428 764/289/429 763/287/429
f 762/288/428 765/290/429 764/289/429
f 766/288/430 768/291/430 767/290/430
f 766/288/430 769/246/430 768/291/430
f 770/291/431 772/247/431 771/251/431
f 770/291/431 773/246/431 772/247/431
f 774/291/432 776/292/434 775/290/433
f 774/291/432 777/293/433 776/292/434
f 778/291/435 780/294/435 779/293/435
s 0
f 778/291/436 781/251/436 780/294/436
s 1
f 782/294/437 784/252/437 783/254/438
f 782/294/437 785/251/438 784/252/437
f 786/294/439 788/295/440 787/293/439
f 786/294/439 789/296/439 788/295/440
f 790/294/441 792/297/441 791/296/441
f 790/294/441 793/254/441 792/297/441
f 794/297/442 796/213/444 795/296/443
f 794/297/442 797/210/444 796/213/444
f 798/296/445 800/298/446 799/295/446
f 798/296/445 801/213/446 800/298/446
f 802/298/447 804/299/447 803/295/447
s 0
f 802/298/448 805/300/448 804/299/448
f 806/298/449 808/301/449 807/300/449
f 806/298/450 809/302/450 808/301/450
s 1
f 810/298/451 812/211/453 811/302/452
f 810/298/451 813/213/453 812/211/453
s 0
f 814/302/454 816/303/454 815/301/454
f 817/302/455 819/211/455 818/212/455
s 1
f 820/304/456 822/306/458 821/305/457
f 820/304/456 823/271/459 822/306/458
s 0
f 824/304/460 826/269/460 825/271/460
f 824/304/461 827/268/461 826/269/461
s 1
f 828/306/462 830/231/462 829/305/462
f 828/306/462 831/228/462 830/231/462
s 0
f 832/306/463 834/227/463 833/228/463
f 832/306/464 835/307/464 834/227/464
s 1
f 836/306/465 838/272/467 837/307/466
f 836/306/465 839/271/466 838/272/467
f 840/307/353 842/238/353 841/227/353
s 0
f 840/307/352 843/237/352 842/238/352
f 844/307/468 846/236/468 845/237/468
f 844/307/469 847/272/469 846/236/469
s 1
f 848/305/470 850/309/471 849/308/470
f 848/305/470 851/231/471 850/309/471
f 852/310/472 854/230/474 853/311/473
f 855/312/475 857/203/475 856/313/476
f 855/312/475 858/202/476 857/203/475
f 859/312/477 861/287/478 860/202/478
f 859/312/477 862/286/478 861/287/478
f 863/313/479 865/204/480 864/314/479
f 863/313/479 866/203/479 865/204/480
f 867/314/481 869/219/482 868/220/482
f 867/314/481 870/204/482 869/219/482
s 0
f 871/315/483 873/316/483 872/301/483
s 1
f 874/315/484 876/317/486 875/316/485
f 877/317/487 879/318/489 878/316/488
f 877/317/487 880/319/490 879/318/489
f 881/317/491 883/217/492 882/319/492
f 881/317/491 884/216/492 883/217/492
f 885/317/493 887/320/493 886/216/493
f 885/317/493 888/321/493 887/320/493
s 0
f 889/319/494 891/322/494 890/318/494
f 889/319/495 892/323/495 891/322/495
s 1
f 893/319/496 895/218/497 894/323/496
f 893/319/496 896/217/496 895/218/497
s 0
f 897/323/498 899/324/498 898/322/498
f 897/323/499 900/206/499 899/324/499
f 901/323/500 903/205/500 902/206/500
s 1
f 901/323/501 904/218/501 903/205/501
f 905/324/502 907/290/504 906/292/503
f 905/324/502 908/289/503 907/290/504
f 909/324/505 911/201/506 910/289/505
f 909/324/505 912/206/505 911/201/506
s 0
f 913/324/483 915/299/483 914/322/483
f 913/324/507 916/292/507 915/299/507
f 917/322/450 919/300/450 918/318/450
f 917/322/455 920/299/455 919/300/455
f 921/318/483 923/301/483 922/316/483
f 921/318/508 924/300/508 923/301/508
s 1
f 925/325/509 927/327/511 926/326/510
f 928/325/512 930/328/514 929/311/513
f 931/327/515 933/329/516 932/326/516
f 931/327/515 934/330/516 933/329/516
f 935/327/517 937/331/518 936/330/518
f 935/327/517 938/311/518 937/331/518
f 939/331/519 941/233/521 940/330/520
f 939/331/519 942/238/521 941/233/521
f 943/331/522 945/227/522 944/238/523
f 943/331/522 946/226/524 945/227/522
f 947/331/525 949/230/525 948/226/525
f 947/331/525 950/311/526 949/230/525
s 0
f 951/330/527 953/234/527 952/329/527
f 951/330/528 954/233/528 953/234/528
s 1
f 955/329/529 957/276/530 956/280/530
f 955/329/529 958/234/530 957/276/530
f 959/329/531 961/281/531 960/326/531
f 959/329/531 962/280/532 961/281/531
f 963/299/533 965/293/535 964/295/534
f 963/299/533 966/292/533 965/293/535
f 967/289/536 969/202/538 968/287/537
f 967/289/536 970/201/539 969/202/538
f 971/276/540 973/235/542 972/274/541
f 971/276/540 974/234/543 973/235/542
f 975/267/544 977/222/546 976/265/545
f 978/258/547 980/241/549 979/257/548
f 981/219/550 983/205/551 982/218/551
f 981/219/550 984/204/552 983/205/551
