# Blender 4.5.4 LTS
# www.blender.org
mtllib right_wing_orange.mtl
o 1.002
v -44.199741 1.538187 -19.271048
v -40.339420 1.524156 -19.999268
v -42.642429 1.614280 -25.239077
v -47.166908 1.562748 -22.146545
v -44.199741 1.538187 -19.271048
v -47.166908 1.562748 -22.146545
v -50.286308 1.438606 -17.785925
v -44.827042 1.415147 -15.773819
v -44.199741 1.538187 -19.271048
v -44.827042 1.415147 -15.773819
v -39.362301 1.332429 -14.939274
v -40.339420 1.524156 -19.999268
v -13.196390 0.366949 2.307116
v -11.428720 0.204955 4.747056
v -8.400460 0.376351 -1.355037
v -11.502770 0.513968 -2.483391
v -13.196390 0.366949 2.307116
v -17.620180 0.407043 2.879128
v -17.290939 0.241447 6.982271
v -11.428720 0.204955 4.747056
v -13.196390 0.366949 2.307116
v -11.502770 0.513968 -2.483391
v -16.642050 0.606681 -2.531273
v -17.620180 0.407043 2.879128
v -50.161701 1.156573 -9.021417
v -53.090080 1.079943 -7.849083
v -48.833080 0.695998 -3.448130
v -46.468681 1.078644 -6.948763
v -50.161701 1.156573 -9.021417
v -46.468681 1.078644 -6.948763
v -45.262772 1.242475 -11.220681
v -50.467331 1.245879 -12.819612
v -50.161701 1.156573 -9.021417
v -50.467331 1.245879 -12.819612
v -55.958271 1.229985 -13.483747
v -53.090080 1.079943 -7.849083
v -8.525980 0.167656 0.603757
v -11.644570 0.206141 1.940817
v -11.473580 0.401420 -3.248762
v -8.525980 0.167656 0.603757
v -8.600650 -0.121086 8.218932
v -11.644570 0.206141 1.940817
v -49.702679 1.017410 -8.823221
v -48.858002 1.161012 -12.524376
v -44.628010 1.051449 -9.848527
v -46.441921 0.903408 -5.904700
v -49.702679 1.017410 -8.823221
v -54.066490 0.869796 -7.821241
v -53.516232 1.036888 -13.821882
v -48.858002 1.161012 -12.524376
v -49.702679 1.017410 -8.823221
v -46.441921 0.903408 -5.904700
v -49.253368 0.605256 -2.962384
v -54.066490 0.869796 -7.821241
v -38.326969 1.181532 -14.635982
v -40.797890 1.318313 -17.528214
v -36.828571 1.366862 -19.800802
v -34.874290 1.156963 -14.919760
v -38.326969 1.181532 -14.635982
v -34.874290 1.156963 -14.919760
v -34.383320 0.955108 -9.957357
v -39.054081 1.057347 -11.385764
v -38.326969 1.181532 -14.635982
v -39.054081 1.057347 -11.385764
v -43.103710 1.204182 -14.020200
v -40.797890 1.318313 -17.528214
v -19.253241 0.194832 -36.005836
v -12.598800 0.337339 -30.513779
v -17.676180 0.674559 -30.059406
v -19.253241 0.194832 -36.005836
v -17.676180 0.674559 -30.059406
v -21.977961 1.215084 -28.873924
v -24.635050 0.961958 -33.750565
v -22.401979 0.939439 -35.105026
v -27.366980 1.458574 -34.023911
v -26.061689 1.502258 -28.215149
v -21.099770 1.303578 -29.085423
v -22.401979 0.939439 -35.105026
v -21.099770 1.303578 -29.085423
v -16.533131 0.722267 -30.111708
v -16.533131 0.722267 -30.111708
v -11.893770 0.381326 -30.724937
v -15.809310 0.059482 -35.813423
v -16.533131 0.722267 -30.111708
v -21.099770 1.303578 -29.085423
v -19.166470 1.331135 -22.742048
v -13.895320 0.819543 -24.073942
v -10.086160 0.492264 -25.031214
v -13.895320 0.819543 -24.073942
v -11.578540 0.581166 -17.371058
v -8.801900 0.165933 -18.022043
v -13.354480 0.674291 -16.984589
v -15.365820 0.860898 -23.772549
v -10.922850 0.456375 -24.740828
v -11.961270 0.513780 -9.817723
v -17.921070 0.747771 -9.453378
v -18.936970 0.993475 -16.108650
v -13.354480 0.674291 -16.984589
v -11.961270 0.513780 -9.817723
v -11.473580 0.401420 -3.248762
v -17.587500 0.503357 -3.038907
v -17.921070 0.747771 -9.453378
v -17.587500 0.503357 -3.038907
v -23.484190 0.565061 -2.933335
v -23.673820 0.811135 -9.191533
v -17.921070 0.747771 -9.453378
v -17.587500 0.503357 -3.038907
v -11.473580 0.401420 -3.248762
v -11.644570 0.206141 1.940817
v -17.188761 0.241693 3.564328
v -17.587500 0.503357 -3.038907
v -17.188761 0.241693 3.564328
v -23.548140 0.315647 3.383943
v -23.484190 0.565061 -2.933335
v -23.548140 0.315647 3.383943
v -17.188761 0.241693 3.564328
v -16.322380 0.029944 8.715150
v -23.548140 0.315647 3.383943
v -31.014250 0.259510 6.686590
v -30.146070 0.425019 2.319594
v -23.548140 0.315647 3.383943
v -30.146070 0.425019 2.319594
v -29.461300 0.644408 -3.406530
v -23.484190 0.565061 -2.933335
v -29.461300 0.644408 -3.406530
v -30.146070 0.425019 2.319594
v -36.641350 0.556976 0.658771
v -35.189121 0.753634 -4.694769
v -29.461300 0.644408 -3.406530
v -35.189121 0.753634 -4.694769
v -34.383320 0.955108 -9.957357
v -29.187300 0.876164 -9.285458
v -29.461300 0.644408 -3.406530
v -29.187300 0.876164 -9.285458
v -23.673820 0.811135 -9.191533
v -23.484190 0.565061 -2.933335
v -29.187300 0.876164 -9.285458
v -34.383320 0.955108 -9.957357
v -34.874290 1.156963 -14.919760
v -29.813841 1.116201 -15.222901
v -29.187300 0.876164 -9.285458
v -29.813841 1.116201 -15.222901
v -24.492599 1.061065 -15.534589
v -23.673820 0.811135 -9.191533
v -24.492599 1.061065 -15.534589
v -29.813841 1.116201 -15.222901
v -31.712790 1.338155 -20.917519
v -26.131060 1.294522 -21.686481
v -24.492599 1.061065 -15.534589
v -26.131060 1.294522 -21.686481
v -20.408529 1.234744 -22.722429
v -18.936970 0.993475 -16.108650
v -24.492599 1.061065 -15.534589
v -18.936970 0.993475 -16.108650
v -17.921070 0.747771 -9.453378
v -23.673820 0.811135 -9.191533
v -20.408529 1.234744 -22.722429
v -26.131060 1.294522 -21.686481
v -28.360161 1.493414 -27.335453
v -21.977961 1.215084 -28.873924
v -20.408529 1.234744 -22.722429
v -21.977961 1.215084 -28.873924
v -17.676180 0.674559 -30.059406
v -15.365820 0.860898 -23.772549
v -20.408529 1.234744 -22.722429
v -15.365820 0.860898 -23.772549
v -13.354480 0.674291 -16.984589
v -18.936970 0.993475 -16.108650
v -28.360161 1.493414 -27.335453
v -26.131060 1.294522 -21.686481
v -31.712790 1.338155 -20.917519
v -34.393040 1.465181 -26.331448
v -28.360161 1.493414 -27.335453
v -34.393040 1.465181 -26.331448
v -37.265701 1.527494 -31.771448
v -30.781691 1.676933 -32.637283
v -28.360161 1.493414 -27.335453
v -30.781691 1.676933 -32.637283
v -24.635050 0.961958 -33.750565
v -21.977961 1.215084 -28.873924
v -30.781691 1.676933 -32.637283
v -26.719540 1.241191 -37.714584
v -24.635050 0.961958 -33.750565
v -33.912811 1.939566 -37.255798
v -33.212341 1.729740 -33.262062
v -27.366980 1.458574 -34.023911
v -33.212341 1.729740 -33.262062
v -39.275211 1.728317 -32.388596
v -37.234909 1.645553 -26.772537
v -31.670460 1.651369 -27.547194
v -33.212341 1.729740 -33.262062
v -31.670460 1.651369 -27.547194
v -26.061689 1.502258 -28.215149
v -27.366980 1.458574 -34.023911
v -31.670460 1.651369 -27.547194
v -37.234909 1.645553 -26.772537
v -35.165199 1.505381 -20.694723
v -29.877850 1.455984 -21.223772
v -31.670460 1.651369 -27.547194
v -29.877850 1.455984 -21.223772
v -24.521049 1.404715 -21.798096
v -26.061689 1.502258 -28.215149
v -24.521049 1.404715 -21.798096
v -19.166470 1.331135 -22.742048
v -21.099770 1.303578 -29.085423
v -26.061689 1.502258 -28.215149
v -24.521049 1.404715 -21.798096
v -29.877850 1.455984 -21.223772
v -28.051689 1.196715 -14.447949
v -22.790239 1.153933 -15.041859
v -24.521049 1.404715 -21.798096
v -22.790239 1.153933 -15.041859
v -17.160999 1.080192 -16.032335
v -19.166470 1.331135 -22.742048
v -17.160999 1.080192 -16.032335
v -11.578540 0.581166 -17.371058
v -13.895320 0.819543 -24.073942
v -19.166470 1.331135 -22.742048
v -17.160999 1.080192 -16.032335
v -22.790239 1.153933 -15.041859
v -21.480030 0.879043 -8.201660
v -15.429650 0.811003 -8.857595
v -17.160999 1.080192 -16.032335
v -15.429650 0.811003 -8.857595
v -9.288670 0.321064 -9.418679
v -11.578540 0.581166 -17.371058
v -9.288670 0.321064 -9.418679
v -15.429650 0.811003 -8.857595
v -16.642050 0.606681 -2.531273
v -11.502770 0.513968 -2.483391
v -15.429650 0.811003 -8.857595
v -21.480030 0.879043 -8.201660
v -22.624241 0.665386 -2.394807
v -16.642050 0.606681 -2.531273
v -22.624241 0.665386 -2.394807
v -21.480030 0.879043 -8.201660
v -28.036270 0.959133 -8.422377
v -29.029140 0.745058 -2.725574
v -22.624241 0.665386 -2.394807
v -29.029140 0.745058 -2.725574
v -30.229839 0.528563 3.006835
v -23.632240 0.436554 3.653645
v -22.624241 0.665386 -2.394807
v -23.632240 0.436554 3.653645
v -17.620180 0.407043 2.879128
v -16.642050 0.606681 -2.531273
v -23.632240 0.436554 3.653645
v -30.229839 0.528563 3.006835
v -31.071091 0.385963 6.790676
v -23.632240 0.436554 3.653645
v -17.290939 0.241447 6.982271
v -17.620180 0.407043 2.879128
v -37.950161 0.409074 4.717903
v -44.446430 0.563756 1.906963
v -42.354610 0.706091 -2.005464
v -36.641350 0.556976 0.658771
v -37.950161 0.409074 4.717903
v -36.641350 0.556976 0.658771
v -30.146070 0.425019 2.319594
v -31.014250 0.259510 6.686590
v -42.354610 0.706091 -2.005464
v -44.446430 0.563756 1.906963
v -49.253368 0.605256 -2.962384
v -46.441921 0.903408 -5.904700
v -42.354610 0.706091 -2.005464
v -46.441921 0.903408 -5.904700
v -44.628010 1.051449 -9.848527
v -40.208172 0.890645 -6.887690
v -42.354610 0.706091 -2.005464
v -40.208172 0.890645 -6.887690
v -35.189121 0.753634 -4.694769
v -36.641350 0.556976 0.658771
v -40.208172 0.890645 -6.887690
v -44.628010 1.051449 -9.848527
v -43.103710 1.204182 -14.020200
v -39.054081 1.057347 -11.385764
v -40.208172 0.890645 -6.887690
v -39.054081 1.057347 -11.385764
v -34.383320 0.955108 -9.957357
v -35.189121 0.753634 -4.694769
v -44.446430 0.563756 1.906963
v -45.417992 0.512379 3.775187
v -51.989979 0.606123 -0.168010
v -49.253368 0.605256 -2.962384
v -58.209839 1.222114 -14.291701
v -52.885571 1.385691 -20.422743
v -53.516232 1.036888 -13.821882
v -45.321442 1.673074 -30.181805
v -51.301041 1.729487 -26.340824
v -47.166908 1.562748 -22.146545
v -42.642429 1.614280 -25.239077
v -45.321442 1.673074 -30.181805
v -42.642429 1.614280 -25.239077
v -37.234909 1.645553 -26.772537
v -39.275211 1.728317 -32.388596
v -51.301041 1.729487 -26.340824
v -55.077881 1.512106 -20.490183
v -50.286308 1.438606 -17.785925
v -47.166908 1.562748 -22.146545
v -55.077881 1.512106 -20.490183
v -55.958271 1.229985 -13.483747
v -50.467331 1.245879 -12.819612
v -50.286308 1.438606 -17.785925
v -37.997871 0.522072 5.169260
v -30.229839 0.528563 3.006835
v -36.924160 0.639689 1.936074
v -37.997871 0.522072 5.169260
v -36.924160 0.639689 1.936074
v -43.518940 0.741965 0.461790
v -43.518940 0.741965 0.461790
v -36.924160 0.639689 1.936074
v -35.283321 0.838421 -3.493110
v -41.225319 0.943395 -4.654990
v -43.518940 0.741965 0.461790
v -41.225319 0.943395 -4.654990
v -46.468681 1.078644 -6.948763
v -48.833080 0.695998 -3.448130
v -43.518940 0.741965 0.461790
v -48.833080 0.695998 -3.448130
v -51.797531 0.722200 -0.038621
v -44.912571 0.658681 3.126366
v -41.225319 0.943395 -4.654990
v -35.283321 0.838421 -3.493110
v -34.079201 1.049527 -9.138024
v -39.765530 1.140948 -9.966774
v -41.225319 0.943395 -4.654990
v -39.765530 1.140948 -9.966774
v -45.262772 1.242475 -11.220681
v -46.468681 1.078644 -6.948763
v -39.765530 1.140948 -9.966774
v -34.079201 1.049527 -9.138024
v -33.651958 1.266445 -14.704428
v -39.362301 1.332429 -14.939274
v -39.765530 1.140948 -9.966774
v -39.362301 1.332429 -14.939274
v -44.827042 1.415147 -15.773819
v -45.262772 1.242475 -11.220681
v -33.651958 1.266445 -14.704428
v -28.051689 1.196715 -14.447949
v -29.877850 1.455984 -21.223772
v -35.165199 1.505381 -20.694723
v -33.651958 1.266445 -14.704428
v -35.165199 1.505381 -20.694723
v -40.339420 1.524156 -19.999268
v -39.362301 1.332429 -14.939274
v -33.651958 1.266445 -14.704428
v -34.079201 1.049527 -9.138024
v -28.036270 0.959133 -8.422377
v -28.051689 1.196715 -14.447949
v -34.079201 1.049527 -9.138024
v -35.283321 0.838421 -3.493110
v -29.029140 0.745058 -2.725574
v -28.036270 0.959133 -8.422377
v -35.283321 0.838421 -3.493110
v -36.924160 0.639689 1.936074
v -30.229839 0.528563 3.006835
v -29.029140 0.745058 -2.725574
v -52.037182 1.706374 -28.227592
v -43.268780 1.627335 -29.426731
v -48.807121 1.490865 -25.478128
v -52.037182 1.706374 -28.227592
v -52.885571 1.385691 -20.422743
v -56.540211 1.459762 -22.283754
v -48.807121 1.490865 -25.478128
v -43.268780 1.627335 -29.426731
v -39.926201 1.553475 -24.632935
v -44.720390 1.484632 -21.607868
v -48.807121 1.490865 -25.478128
v -44.720390 1.484632 -21.607868
v -47.744450 1.300259 -17.317526
v -52.885571 1.385691 -20.422743
v -47.744450 1.300259 -17.317526
v -44.720390 1.484632 -21.607868
v -40.797890 1.318313 -17.528214
v -43.103710 1.204182 -14.020200
v -47.744450 1.300259 -17.317526
v -43.103710 1.204182 -14.020200
v -44.628010 1.051449 -9.848527
v -48.858002 1.161012 -12.524376
v -47.744450 1.300259 -17.317526
v -48.858002 1.161012 -12.524376
v -53.516232 1.036888 -13.821882
v -52.885571 1.385691 -20.422743
v -44.720390 1.484632 -21.607868
v -39.926201 1.553475 -24.632935
v -36.828571 1.366862 -19.800802
v -40.797890 1.318313 -17.528214
v -39.926201 1.553475 -24.632935
v -34.393040 1.465181 -26.331448
v -31.712790 1.338155 -20.917519
v -36.828571 1.366862 -19.800802
v -39.926201 1.553475 -24.632935
v -43.268780 1.627335 -29.426731
v -37.265701 1.527494 -31.771448
v -34.393040 1.465181 -26.331448
v -28.036270 0.959133 -8.422377
v -21.480030 0.879043 -8.201660
v -22.790239 1.153933 -15.041859
v -28.051689 1.196715 -14.447949
v -35.165199 1.505381 -20.694723
v -37.234909 1.645553 -26.772537
v -42.642429 1.614280 -25.239077
v -40.339420 1.524156 -19.999268
v -31.712790 1.338155 -20.917519
v -29.813841 1.116201 -15.222901
v -34.874290 1.156963 -14.919760
v -36.828571 1.366862 -19.800802
v -16.322380 0.029944 8.715150
v -17.188761 0.241693 3.564328
v -11.644570 0.206141 1.940817
v -10.922850 0.456375 -24.740828
v -15.365820 0.860898 -23.772549
v -17.676180 0.674559 -30.059406
v -50.467331 1.245879 -12.819612
v -45.262772 1.242475 -11.220681
v -44.827042 1.415147 -15.773819
v -50.286308 1.438606 -17.785925
v -49.317829 2.660235 -9.187530
v -46.364288 2.487223 -8.975554
v -45.841209 2.261734 -11.874969
v -49.952202 2.574326 -10.961115
v -49.317829 2.660235 -9.187530
v -49.952202 2.574326 -10.961115
v -53.845490 2.742769 -9.436418
v -51.433182 2.681688 -7.226955
v -49.317829 2.660235 -9.187530
v -51.433182 2.681688 -7.226955
v -48.043930 2.638501 -5.755667
v -46.364288 2.487223 -8.975554
v -49.545521 2.587808 -7.519029
v -46.884850 2.538948 -6.726350
v -49.084202 2.605534 -3.536018
v -51.977081 2.663291 -5.606393
v -49.545521 2.587808 -7.519029
v -51.977081 2.663291 -5.606393
v -54.115429 2.702336 -8.319459
v -49.960861 2.524295 -9.777729
v -49.545521 2.587808 -7.519029
v -49.960861 2.524295 -9.777729
v -45.776009 2.176455 -10.596843
v -46.884850 2.538948 -6.726350
v -39.292770 1.757068 9.921885
v -33.538288 1.417871 11.082903
v -38.070240 1.456303 13.795364
v -39.292770 1.757068 9.921885
v -38.070240 1.456303 13.795364
v -43.190411 1.469912 15.654805
v -43.317699 1.777651 11.542264
v -38.487560 2.053738 3.962630
v -36.185371 2.107726 0.377226
v -32.512642 1.765863 3.710377
v -38.487560 2.053738 3.962630
v -42.069920 2.328809 1.215899
v -39.799969 2.331363 -2.514242
v -36.185371 2.107726 0.377226
v -39.799969 2.331363 -2.514242
v -37.683830 2.075786 -6.633235
v -33.882778 1.945718 -3.745602
v -36.185371 2.107726 0.377226
v -39.799969 2.331363 -2.514242
v -42.069920 2.328809 1.215899
v -45.655869 2.495037 -1.210305
v -43.304642 2.448122 -5.055109
v -39.799969 2.331363 -2.514242
v -43.304642 2.448122 -5.055109
v -41.579552 2.105297 -9.006175
v -37.683830 2.075786 -6.633235
v -41.579552 2.105297 -9.006175
v -40.934441 2.001956 -10.877146
v -36.707100 1.964805 -8.756313
v -37.683830 2.075786 -6.633235
v -41.579552 2.105297 -9.006175
v -43.304642 2.448122 -5.055109
v -46.884850 2.538948 -6.726350
v -45.776009 2.176455 -10.596843
v -41.579552 2.105297 -9.006175
v -45.776009 2.176455 -10.596843
v -45.558781 2.087388 -12.315094
v -40.934441 2.001956 -10.877146
v -45.558781 2.087388 -12.315094
v -45.421558 2.074777 -13.501852
v -40.563641 1.975126 -12.019372
v -40.934441 2.001956 -10.877146
v -45.558781 2.087388 -12.315094
v -45.776009 2.176455 -10.596843
v -49.960861 2.524295 -9.777729
v -50.545841 2.401573 -12.203481
v -45.558781 2.087388 -12.315094
v -50.545841 2.401573 -12.203481
v -50.837090 2.384300 -13.406371
v -45.421558 2.074777 -13.501852
v -50.837090 2.384300 -13.406371
v -51.082211 2.396082 -14.495352
v -45.303711 2.115338 -14.592953
v -45.421558 2.074777 -13.501852
v -50.837090 2.384300 -13.406371
v -50.545841 2.401573 -12.203481
v -55.127811 2.636582 -9.715322
v -50.837090 2.384300 -13.406371
v -56.438049 2.688962 -11.764302
v -51.082211 2.396082 -14.495352
v -56.438049 2.688962 -11.764302
v -51.307232 2.469189 -15.538608
v -51.082211 2.396082 -14.495352
v -51.307232 2.469189 -15.538608
v -51.211140 2.567100 -15.198795
v -45.250591 2.379701 -15.392015
v -45.193401 2.227628 -15.597962
v -51.307232 2.469189 -15.538608
v -45.193401 2.227628 -15.597962
v -45.303711 2.115338 -14.592953
v -51.082211 2.396082 -14.495352
v -51.307232 2.469189 -15.538608
v -56.544102 2.886106 -12.260591
v -51.211140 2.567100 -15.198795
v -56.544102 2.886106 -12.260591
v -50.938240 2.528819 -14.159418
v -51.211140 2.567100 -15.198795
v -50.938240 2.528819 -14.159418
v -50.637600 2.522845 -13.071676
v -45.598541 2.234397 -13.214652
v -45.413120 2.272544 -14.385214
v -50.938240 2.528819 -14.159418
v -45.413120 2.272544 -14.385214
v -45.250591 2.379701 -15.392015
v -51.211140 2.567100 -15.198795
v -50.938240 2.528819 -14.159418
v -55.794941 2.842299 -11.486906
v -54.947819 2.783102 -10.580447
v -50.637600 2.522845 -13.071676
v -54.947819 2.783102 -10.580447
v -53.845490 2.742769 -9.436418
v -49.952202 2.574326 -10.961115
v -50.637600 2.522845 -13.071676
v -52.752060 2.015265 13.711370
v -57.078930 2.163153 11.957753
v -57.922421 1.838295 16.623005
v -52.647171 1.667660 18.035151
v -52.752060 2.015265 13.711370
v -52.647171 1.667660 18.035151
v -46.383461 1.522967 17.891636
v -47.160400 1.865277 13.815592
v -46.383461 1.522967 17.891636
v -40.644749 1.421780 17.103468
v -41.950779 1.771872 13.173462
v -47.160400 1.865277 13.815592
v -46.383461 1.522967 17.891636
v -52.647171 1.667660 18.035151
v -52.042622 1.212411 22.452541
v -46.383461 1.522967 17.891636
v -39.183071 0.949249 21.230711
v -40.644749 1.421780 17.103468
v -39.183071 0.949249 21.230711
v -33.060909 0.872881 19.701427
v -35.181278 1.338539 15.696538
v -7.922410 0.563579 3.832954
v -8.141400 0.523818 2.770676
v -13.252340 0.644651 0.655560
v -13.431800 0.717731 1.431114
v -7.922410 0.563579 3.832954
v -13.431800 0.717731 1.431114
v -14.142510 0.839000 2.561790
v -8.802200 0.723209 5.229126
v -14.142510 0.839000 2.561790
v -15.229380 0.976298 4.273376
v -10.254190 0.905756 7.390611
v -8.802200 0.723209 5.229126
v -14.142510 0.839000 2.561790
v -13.431800 0.717731 1.431114
v -18.573050 1.014222 -0.797257
v -19.266500 1.057297 0.341092
v -14.142510 0.839000 2.561790
v -19.266500 1.057297 0.341092
v -20.257990 1.105642 1.948980
v -15.229380 0.976298 4.273376
v -20.257990 1.105642 1.948980
v -22.076380 1.152984 5.032466
v -17.916731 1.038725 8.345397
v -15.229380 0.976298 4.273376
v -20.257990 1.105642 1.948980
v -19.266500 1.057297 0.341092
v -23.900829 1.418604 -2.270164
v -24.725410 1.457663 -0.975980
v -20.257990 1.105642 1.948980
v -24.725410 1.457663 -0.975980
v -26.715839 1.552058 2.290675
v -22.076380 1.152984 5.032466
v -26.715839 1.552058 2.290675
v -24.725410 1.457663 -0.975980
v -29.230740 1.804558 -3.444362
v -31.355700 1.939354 0.028154
v -26.715839 1.552058 2.290675
v -31.355700 1.939354 0.028154
v -33.889400 1.982131 3.863918
v -29.279221 1.583345 6.321887
v -33.889400 1.982131 3.863918
v -31.355700 1.939354 0.028154
v -35.809780 2.238703 -1.816254
v -38.111179 2.278731 2.162780
v -33.889400 1.982131 3.863918
v -38.111179 2.278731 2.162780
v -40.406872 2.181906 5.815734
v -38.111179 2.278731 2.162780
v -35.809780 2.238703 -1.816254
v -39.938240 2.473431 -3.329652
v -42.192741 2.499089 0.858560
v -44.424541 2.375782 4.842082
v -42.192741 2.499089 0.858560
v -46.178360 2.649036 -0.357188
v -46.178360 2.649036 -0.357188
v -42.192741 2.499089 0.858560
v -39.938240 2.473431 -3.329652
v -43.871422 2.640630 -4.525066
v -46.178360 2.649036 -0.357188
v -43.871422 2.640630 -4.525066
v -48.043930 2.638501 -5.755667
v -43.871422 2.640630 -4.525066
v -39.938240 2.473431 -3.329652
v -37.892220 2.230976 -7.331296
v -42.138432 2.305914 -8.785970
v -43.871422 2.640630 -4.525066
v -42.138432 2.305914 -8.785970
v -46.364288 2.487223 -8.975554
v -48.043930 2.638501 -5.755667
v -42.138432 2.305914 -8.785970
v -37.892220 2.230976 -7.331296
v -36.925549 2.125613 -9.105119
v -41.299149 2.172313 -10.899631
v -42.138432 2.305914 -8.785970
v -41.299149 2.172313 -10.899631
v -45.841209 2.261734 -11.874969
v -46.364288 2.487223 -8.975554
v -41.299149 2.172313 -10.899631
v -36.925549 2.125613 -9.105119
v -36.335152 2.077158 -10.130627
v -40.793571 2.136902 -12.110367
v -41.299149 2.172313 -10.899631
v -40.793571 2.136902 -12.110367
v -45.598541 2.234397 -13.214652
v -45.841209 2.261734 -11.874969
v -40.793571 2.136902 -12.110367
v -36.335152 2.077158 -10.130627
v -35.792480 2.046602 -10.982576
v -40.356541 2.130540 -13.099898
v -40.793571 2.136902 -12.110367
v -40.356541 2.130540 -13.099898
v -45.413120 2.272544 -14.385214
v -45.598541 2.234397 -13.214652
v -40.356541 2.130540 -13.099898
v -35.792480 2.046602 -10.982576
v -35.254230 2.006920 -11.757458
v -39.960541 2.161782 -13.975131
v -40.356541 2.130540 -13.099898
v -39.960541 2.161782 -13.975131
v -45.250591 2.379701 -15.392015
v -45.413120 2.272544 -14.385214
v -39.960541 2.161782 -13.975131
v -35.254230 2.006920 -11.757458
v -35.350201 1.913049 -11.516869
v -39.927292 2.040026 -13.938547
v -39.960541 2.161782 -13.975131
v -39.927292 2.040026 -13.938547
v -45.193401 2.227628 -15.597962
v -45.250591 2.379701 -15.392015
v -39.927292 2.040026 -13.938547
v -35.350201 1.913049 -11.516869
v -35.795280 1.902244 -10.696648
v -40.239712 1.979554 -13.011570
v -39.927292 2.040026 -13.938547
v -40.239712 1.979554 -13.011570
v -45.303711 2.115338 -14.592953
v -45.193401 2.227628 -15.597962
v -40.239712 1.979554 -13.011570
v -35.795280 1.902244 -10.696648
v -36.237209 1.923203 -9.795021
v -40.563641 1.975126 -12.019372
v -40.239712 1.979554 -13.011570
v -40.563641 1.975126 -12.019372
v -45.421558 2.074777 -13.501852
v -45.303711 2.115338 -14.592953
v -36.237209 1.923203 -9.795021
v -35.795280 1.902244 -10.696648
v -31.744640 1.786932 -8.145085
v -32.130020 1.806497 -7.280069
v -36.237209 1.923203 -9.795021
v -32.130020 1.806497 -7.280069
v -32.642681 1.841996 -6.196898
v -36.707100 1.964805 -8.756313
v -36.237209 1.923203 -9.795021
v -36.707100 1.964805 -8.756313
v -40.934441 2.001956 -10.877146
v -40.563641 1.975126 -12.019372
v -32.642681 1.841996 -6.196898
v -32.130020 1.806497 -7.280069
v -27.758400 1.553685 -5.045204
v -28.421659 1.597580 -3.643967
v -32.642681 1.841996 -6.196898
v -28.421659 1.597580 -3.643967
v -30.124310 1.716101 -0.363214
v -33.882778 1.945718 -3.745602
v -32.642681 1.841996 -6.196898
v -33.882778 1.945718 -3.745602
v -37.683830 2.075786 -6.633235
v -36.707100 1.964805 -8.756313
v -30.124310 1.716101 -0.363214
v -28.421659 1.597580 -3.643967
v -24.272570 1.268749 -0.458882
v -26.682261 1.355599 3.681810
v -30.124310 1.716101 -0.363214
v -26.682261 1.355599 3.681810
v -29.702520 1.385799 7.618958
v -32.512642 1.765863 3.710377
v -30.124310 1.716101 -0.363214
v -32.512642 1.765863 3.710377
v -36.185371 2.107726 0.377226
v -33.882778 1.945718 -3.745602
v -29.702520 1.385799 7.618958
v -27.234980 0.945057 11.836742
v -31.856840 1.033795 15.398281
v -33.538288 1.417871 11.082903
v -31.856840 1.033795 15.398281
v -27.234980 0.945057 11.836742
v -25.282881 0.465628 16.078136
v -30.433350 0.508958 20.114653
v -31.856840 1.033795 15.398281
v -30.433350 0.508958 20.114653
v -36.604080 0.538606 22.642065
v -31.856840 1.033795 15.398281
v -37.076191 1.046796 18.293108
v -38.070240 1.456303 13.795364
v -33.538288 1.417871 11.082903
v -37.076191 1.046796 18.293108
v -43.271900 1.096026 19.853106
v -43.190411 1.469912 15.654805
v -38.070240 1.456303 13.795364
v -43.271900 1.096026 19.853106
v -49.887451 1.219479 20.552507
v -49.443581 1.597501 16.199476
v -43.190411 1.469912 15.654805
v -49.443581 1.597501 16.199476
v -49.887451 1.219479 20.552507
v -56.479080 1.378854 20.159216
v -55.718449 1.738334 15.414633
v -49.443581 1.597501 16.199476
v -55.718449 1.738334 15.414633
v -53.213032 2.027491 10.492233
v -48.081070 1.880338 11.552184
v -49.443581 1.597501 16.199476
v -48.081070 1.880338 11.552184
v -43.317699 1.777651 11.542264
v -43.190411 1.469912 15.654805
v -53.213032 2.027491 10.492233
v -55.718449 1.738334 15.414633
v -60.157330 1.818072 13.374192
v -48.064640 2.382150 2.326069
v -49.084202 2.605534 -3.536018
v -45.655869 2.495037 -1.210305
v -48.064640 2.382150 2.326069
v -45.655869 2.495037 -1.210305
v -42.069920 2.328809 1.215899
v -62.980099 1.903028 14.738466
v -57.922421 1.838295 16.623005
v -57.078930 2.163153 11.957753
v -62.980099 1.903028 14.738466
v -58.348671 1.424763 21.266745
v -57.922421 1.838295 16.623005
v -58.348671 1.424763 21.266745
v -52.647171 1.667660 18.035151
v -57.922421 1.838295 16.623005
v -10.536580 0.771242 7.659612
v -14.788050 0.838296 4.608626
v -13.527840 0.641998 2.334316
v -7.938190 0.453527 4.986032
v -13.527840 0.641998 2.334316
v -12.965940 0.518733 1.073041
v -7.476240 0.360476 3.778312
v -7.938190 0.453527 4.986032
v -13.527840 0.641998 2.334316
v -14.788050 0.838296 4.608626
v -19.090290 0.910578 1.061933
v -18.488510 0.873384 -0.302409
v -13.527840 0.641998 2.334316
v -18.488510 0.873384 -0.302409
v -18.042850 0.850971 -1.395351
v -12.965940 0.518733 1.073041
v -18.042850 0.850971 -1.395351
v -17.666719 0.885715 -2.404154
v -13.072590 0.482310 0.450786
v -12.965940 0.518733 1.073041
v -18.042850 0.850971 -1.395351
v -18.488510 0.873384 -0.302409
v -23.055710 1.231915 -2.967565
v -22.559860 1.226077 -3.931923
v -18.042850 0.850971 -1.395351
v -22.559860 1.226077 -3.931923
v -22.071920 1.272200 -4.847992
v -17.666719 0.885715 -2.404154
v -22.071920 1.272200 -4.847992
v -22.652090 1.352599 -4.066230
v -18.017929 0.973167 -1.776099
v -17.666719 0.885715 -2.404154
v -22.071920 1.272200 -4.847992
v -22.559860 1.226077 -3.931923
v -27.016621 1.523480 -6.769391
v -26.756910 1.594070 -7.467747
v -22.071920 1.272200 -4.847992
v -26.756910 1.594070 -7.467747
v -27.225401 1.667377 -6.651041
v -22.652090 1.352599 -4.066230
v -27.225401 1.667377 -6.651041
v -27.732510 1.702153 -5.817986
v -23.269409 1.388915 -3.204704
v -22.652090 1.352599 -4.066230
v -27.225401 1.667377 -6.651041
v -26.756910 1.594070 -7.467747
v -31.229080 1.893146 -9.416068
v -31.685869 1.927753 -8.657224
v -27.225401 1.667377 -6.651041
v -31.685869 1.927753 -8.657224
v -32.169540 1.955503 -7.886430
v -27.732510 1.702153 -5.817986
v -32.169540 1.955503 -7.886430
v -32.710320 1.989454 -7.047861
v -28.309219 1.739882 -4.897394
v -27.732510 1.702153 -5.817986
v -32.169540 1.955503 -7.886430
v -31.685869 1.927753 -8.657224
v -35.792480 2.046602 -10.982576
v -36.335152 2.077158 -10.130627
v -32.169540 1.955503 -7.886430
v -36.335152 2.077158 -10.130627
v -36.925549 2.125613 -9.105119
v -32.710320 1.989454 -7.047861
v -28.309219 1.739882 -4.897394
v -29.230740 1.804558 -3.444362
v -24.725410 1.457663 -0.975980
v -23.900829 1.418604 -2.270164
v -28.309219 1.739882 -4.897394
v -23.900829 1.418604 -2.270164
v -23.269409 1.388915 -3.204704
v -27.732510 1.702153 -5.817986
v -28.309219 1.739882 -4.897394
v -32.710320 1.989454 -7.047861
v -33.705399 2.058102 -5.444290
v -29.230740 1.804558 -3.444362
v -33.705399 2.058102 -5.444290
v -35.809780 2.238703 -1.816254
v -31.355700 1.939354 0.028154
v -29.230740 1.804558 -3.444362
v -33.705399 2.058102 -5.444290
v -32.710320 1.989454 -7.047861
v -36.925549 2.125613 -9.105119
v -37.892220 2.230976 -7.331296
v -33.705399 2.058102 -5.444290
v -37.892220 2.230976 -7.331296
v -39.938240 2.473431 -3.329652
v -35.809780 2.238703 -1.816254
v -31.685869 1.927753 -8.657224
v -31.229080 1.893146 -9.416068
v -35.254230 2.006920 -11.757458
v -35.792480 2.046602 -10.982576
v -31.229080 1.893146 -9.416068
v -26.756910 1.594070 -7.467747
v -27.016621 1.523480 -6.769391
v -31.388981 1.793097 -8.971961
v -31.229080 1.893146 -9.416068
v -31.388981 1.793097 -8.971961
v -35.350201 1.913049 -11.516869
v -35.254230 2.006920 -11.757458
v -31.388981 1.793097 -8.971961
v -27.016621 1.523480 -6.769391
v -27.383970 1.533438 -5.889161
v -31.744640 1.786932 -8.145085
v -31.388981 1.793097 -8.971961
v -31.744640 1.786932 -8.145085
v -35.795280 1.902244 -10.696648
v -35.350201 1.913049 -11.516869
v -27.383970 1.533438 -5.889161
v -27.016621 1.523480 -6.769391
v -22.559860 1.226077 -3.931923
v -23.055710 1.231915 -2.967565
v -27.383970 1.533438 -5.889161
v -23.055710 1.231915 -2.967565
v -23.585951 1.245201 -1.887808
v -27.758400 1.553685 -5.045204
v -27.383970 1.533438 -5.889161
v -27.758400 1.553685 -5.045204
v -32.130020 1.806497 -7.280069
v -31.744640 1.786932 -8.145085
v -23.585951 1.245201 -1.887808
v -23.055710 1.231915 -2.967565
v -18.488510 0.873384 -0.302409
v -19.090290 0.910578 1.061933
v -23.585951 1.245201 -1.887808
v -19.090290 0.910578 1.061933
v -20.637850 0.953957 3.995260
v -24.272570 1.268749 -0.458882
v -23.585951 1.245201 -1.887808
v -24.272570 1.268749 -0.458882
v -28.421659 1.597580 -3.643967
v -27.758400 1.553685 -5.045204
v -20.637850 0.953957 3.995260
v -19.090290 0.910578 1.061933
v -14.788050 0.838296 4.608626
v -17.243111 0.898353 8.003115
v -20.637850 0.953957 3.995260
v -23.475410 0.951257 7.916313
v -26.682261 1.355599 3.681810
v -24.272570 1.268749 -0.458882
v -20.847521 0.601543 11.975951
v -14.322520 0.765387 11.367004
v -18.830780 0.151800 15.399442
v -20.847521 0.601543 11.975951
v -18.830780 0.151800 15.399442
v -23.590580 -0.092573 20.042139
v -20.847521 0.601543 11.975951
v -25.282881 0.465628 16.078136
v -27.234980 0.945057 11.836742
v -62.484322 1.499617 18.650885
v -60.157330 1.818072 13.374192
v -55.718449 1.738334 15.414633
v -56.479080 1.378854 20.159216
v -23.269409 1.388915 -3.204704
v -23.900829 1.418604 -2.270164
v -19.266500 1.057297 0.341092
v -18.573050 1.014222 -0.797257
v -23.269409 1.388915 -3.204704
v -18.573050 1.014222 -0.797257
v -18.017929 0.973167 -1.776099
v -22.652090 1.352599 -4.066230
v -18.017929 0.973167 -1.776099
v -18.573050 1.014222 -0.797257
v -13.431800 0.717731 1.431114
v -13.252340 0.644651 0.655560
v -18.017929 0.973167 -1.776099
v -13.252340 0.644651 0.655560
v -13.072590 0.482310 0.450786
v -17.666719 0.885715 -2.404154
v -13.072590 0.482310 0.450786
v -13.252340 0.644651 0.655560
v -8.141400 0.523818 2.770676
v -8.003350 0.368738 2.751617
v -13.072590 0.482310 0.450786
v -8.003350 0.368738 2.751617
v -7.476240 0.360476 3.778312
v -12.965940 0.518733 1.073041
v -24.773090 1.070034 9.416726
v -29.714001 1.194756 13.188293
v -27.212330 0.708448 16.894554
v -21.847799 0.656808 13.014224
v -21.847799 0.656808 13.014224
v -27.212330 0.708448 16.894554
v -24.922609 0.175397 20.243038
v -19.307421 0.177343 16.256580
v -21.847799 0.656808 13.014224
v -19.307421 0.177343 16.256580
v -14.336100 0.863038 11.818007
v -29.714001 1.194756 13.188293
v -33.222061 1.641200 9.618149
v -37.315899 1.697701 11.932728
v -35.181278 1.338539 15.696538
v -29.714001 1.194756 13.188293
v -35.181278 1.338539 15.696538
v -33.060909 0.872881 19.701427
v -27.212330 0.708448 16.894554
v -35.181278 1.338539 15.696538
v -37.315899 1.697701 11.932728
v -41.950779 1.771872 13.173462
v -40.644749 1.421780 17.103468
v -50.433651 2.675653 -2.096826
v -48.043930 2.638501 -5.755667
v -51.433182 2.681688 -7.226955
v -45.598541 2.234397 -13.214652
v -50.637600 2.522845 -13.071676
v -49.952202 2.574326 -10.961115
v -45.841209 2.261734 -11.874969
v -55.127811 2.636582 -9.715322
v -50.545841 2.401573 -12.203481
v -49.960861 2.524295 -9.777729
v -54.115429 2.702336 -8.319459
v -43.304642 2.448122 -5.055109
v -45.655869 2.495037 -1.210305
v -49.084202 2.605534 -3.536018
v -46.884850 2.538948 -6.726350
vn 0.0017 0.9999 0.0132
vn 0.0015 0.9999 0.0131
vn 0.0014 0.9999 0.0131
vn -0.0098 0.9996 0.0269
vn -0.0098 0.9996 0.0268
vn 0.0099 0.9993 0.0364
vn 0.0098 0.9993 0.0365
vn 0.0100 0.9993 0.0363
vn 0.0304 0.9986 0.0424
vn 0.0303 0.9986 0.0423
vn 0.0194 0.9989 0.0438
vn 0.0161 0.9991 0.0381
vn 0.0160 0.9991 0.0381
vn -0.0114 0.9963 0.0850
vn -0.0036 0.9995 0.0310
vn -0.0036 0.9995 0.0309
vn -0.0093 0.9995 0.0285
vn -0.0093 0.9996 0.0285
vn -0.0092 0.9996 0.0284
vn -0.0314 -0.9988 -0.0364
vn -0.0400 -0.9987 -0.0300
vn -0.0246 -0.9990 -0.0373
vn -0.0292 -0.9988 -0.0382
vn -0.0282 -0.9989 -0.0383
vn -0.0317 -0.9988 -0.0382
vn -0.0011 -0.9993 -0.0386
vn -0.0011 -0.9993 -0.0385
vn -0.0011 -0.9993 -0.0384
vn 0.0311 -0.9991 -0.0276
vn 0.0310 -0.9991 -0.0275
vn 0.0310 -0.9991 -0.0276
vn 0.0224 -0.9972 -0.0718
vn 0.0226 -0.9972 -0.0719
vn -0.0100 -0.9992 -0.0387
vn -0.0103 -0.9992 -0.0388
vn -0.0101 -0.9992 -0.0398
vn -0.0100 -0.9992 -0.0399
vn -0.0099 -0.9992 -0.0397
vn -0.0098 -0.9992 -0.0396
vn -0.0575 -0.9938 0.0954
vn -0.0576 -0.9937 0.0957
vn -0.0658 -0.9922 0.1055
vn -0.0965 -0.9898 0.1047
vn -0.0963 -0.9898 0.1048
vn -0.0964 -0.9898 0.1048
vn 0.0626 0.9969 -0.0482
vn 0.0968 0.9926 -0.0737
vn 0.1311 0.9851 -0.1113
vn 0.1099 0.9899 -0.0893
vn 0.0591 0.9924 -0.1078
vn 0.0612 0.9923 -0.1076
vn 0.0580 0.9926 -0.1069
vn 0.0992 0.9940 -0.0467
vn 0.0901 0.9959 0.0071
vn 0.0959 0.9954 0.0071
vn 0.0822 0.9966 0.0057
vn -0.1018 -0.9948 -0.0040
vn -0.0500 -0.9985 -0.0206
vn -0.0501 -0.9985 -0.0206
vn -0.0290 -0.9993 -0.0256
vn -0.0289 -0.9993 -0.0255
vn -0.0119 -0.9992 -0.0382
vn -0.0120 -0.9992 -0.0381
vn -0.0180 -0.9991 -0.0382
vn -0.0177 -0.9991 -0.0385
vn -0.0108 -0.9992 -0.0393
vn -0.0109 -0.9992 -0.0393
vn -0.0108 -0.9992 -0.0392
vn -0.0105 -0.9992 -0.0393
vn -0.0101 -0.9992 -0.0399
vn -0.0102 -0.9992 -0.0395
vn -0.0101 -0.9992 -0.0396
vn -0.0106 -0.9992 -0.0394
vn -0.0104 -0.9992 -0.0393
vn -0.0118 -0.9992 -0.0384
vn -0.0119 -0.9992 -0.0385
vn -0.0124 -0.9993 -0.0348
vn -0.0160 -0.9993 -0.0332
vn -0.0162 -0.9993 -0.0334
vn -0.0161 -0.9993 -0.0333
vn -0.0144 -0.9993 -0.0359
vn -0.0143 -0.9992 -0.0361
vn -0.0141 -0.9992 -0.0362
vn -0.0142 -0.9992 -0.0361
vn -0.0291 -0.9996 -0.0059
vn -0.0291 -0.9996 -0.0058
vn -0.0291 -0.9996 -0.0060
vn -0.0869 -0.9953 0.0436
vn -0.0870 -0.9953 0.0436
vn -0.0677 -0.9976 -0.0142
vn -0.0677 -0.9976 -0.0143
vn -0.0676 -0.9976 -0.0143
vn -0.0054 -0.9996 -0.0270
vn -0.0055 -0.9996 -0.0270
vn -0.0053 -0.9996 -0.0269
vn 0.0103 -0.9995 -0.0283
vn 0.0100 -0.9996 -0.0278
vn 0.0098 -0.9996 -0.0273
vn -0.0702 -0.9967 0.0418
vn -0.0701 -0.9967 0.0418
vn -0.1170 -0.9931 -0.0089
vn -0.1166 -0.9931 -0.0081
vn -0.1148 -0.9934 -0.0066
vn 0.0534 0.9977 0.0422
vn 0.0558 0.9978 0.0355
vn 0.0515 0.9977 0.0451
vn 0.0015 0.9999 0.0139
vn 0.0012 0.9999 0.0137
vn 0.0360 0.9993 -0.0060
vn 0.0359 0.9993 -0.0059
vn 0.0359 0.9993 -0.0058
vn 0.0070 0.9997 0.0248
vn 0.0070 0.9997 0.0249
vn 0.0203 0.9996 0.0177
vn 0.0261 0.9997 -0.0016
vn 0.0127 0.9993 0.0344
vn 0.0126 0.9993 0.0343
vn 0.0125 0.9993 0.0343
vn 0.0190 0.9993 0.0320
vn 0.0193 0.9993 0.0316
vn 0.0941 0.9955 0.0060
vn 0.0942 0.9955 0.0060
vn 0.0171 0.9992 0.0351
vn 0.0168 0.9992 0.0350
vn 0.0860 0.9962 0.0120
vn 0.0523 0.9985 0.0144
vn 0.0522 0.9985 0.0144
vn 0.0522 0.9985 0.0143
vn 0.0130 0.9992 0.0370
vn 0.0130 0.9992 0.0369
vn 0.0105 0.9992 0.0392
vn 0.0104 0.9992 0.0394
vn 0.0104 0.9991 0.0399
vn 0.0101 0.9992 0.0395
vn 0.0103 0.9992 0.0392
vn 0.0102 0.9992 0.0392
vn 0.0103 0.9992 0.0391
vn 0.0100 0.9992 0.0399
vn 0.0100 0.9992 0.0395
vn -0.0074 -0.9992 -0.0393
vn -0.0071 -0.9992 -0.0395
vn -0.0070 -0.9992 -0.0395
vn -0.0073 -0.9992 -0.0394
vn -0.0102 -0.9992 -0.0397
vn -0.0102 -0.9992 -0.0399
vn 0.0214 -0.9986 -0.0489
vn -0.0087 -0.9991 -0.0415
vn -0.0085 -0.9991 -0.0415
vn -0.0085 -0.9992 -0.0403
vn -0.0085 -0.9992 -0.0402
vn -0.0084 -0.9992 -0.0402
vn -0.0098 -0.9992 -0.0395
vn -0.0099 -0.9992 -0.0398
vn -0.0022 -0.9999 -0.0126
vn -0.0022 -0.9999 -0.0125
vn -0.0294 -0.9982 -0.0516
vn -0.0396 -0.9978 -0.0525
vn -0.0190 -0.9989 -0.0431
vn 0.0113 0.9998 0.0163
vn 0.0112 0.9998 0.0163
vn -0.0027 0.9999 0.0146
vn -0.0028 0.9999 0.0146
vn 0.0007 0.9994 0.0339
vn 0.0006 0.9994 0.0339
vn -0.0071 0.9992 0.0390
vn -0.0072 0.9992 0.0390
vn 0.0102 0.9992 0.0397
vn 0.0073 0.9992 0.0381
vn 0.0080 0.9993 0.0374
vn 0.0073 0.9992 0.0393
vn 0.0080 0.9991 0.0411
vn 0.0079 0.9991 0.0408
vn 0.0079 0.9991 0.0407
vn 0.0080 0.9991 0.0409
vn -0.0237 0.9982 0.0548
vn -0.0238 0.9982 0.0548
vn -0.0028 1.0000 0.0074
vn 0.0099 0.9992 0.0395
vn 0.0102 0.9991 0.0400
vn 0.0088 0.9992 0.0401
vn 0.0087 0.9992 0.0402
vn 0.0103 0.9992 0.0397
vn 0.0099 0.9992 0.0393
vn 0.0094 0.9992 0.0390
vn 0.0092 0.9992 0.0391
vn 0.0117 0.9993 0.0358
vn 0.0118 0.9993 0.0359
vn 0.0120 0.9993 0.0360
vn 0.0094 0.9993 0.0368
vn 0.0093 0.9993 0.0368
vn 0.0106 0.9992 0.0394
vn 0.0100 0.9992 0.0398
vn -0.0164 -0.9987 -0.0484
vn -0.0248 -0.9978 -0.0622
vn -0.0127 -0.9996 -0.0271
vn 0.0035 -0.9993 -0.0369
vn -0.0041 -0.9991 -0.0413
vn -0.0135 -0.9990 -0.0425
vn 0.0086 -0.9998 -0.0165
vn 0.0086 -0.9998 -0.0167
vn 0.0085 -0.9997 -0.0245
vn 0.0086 -0.9997 -0.0245
vn 0.0015 -0.9993 -0.0377
vn 0.0015 -0.9993 -0.0373
vn 0.0015 -0.9993 -0.0372
vn -0.0010 -0.9995 -0.0329
vn -0.0011 -0.9995 -0.0329
vn -0.0011 -0.9995 -0.0328
vn 0.0217 -0.9990 -0.0394
vn 0.0217 -0.9990 -0.0395
vn -0.0071 -0.9994 -0.0340
vn -0.0072 -0.9994 -0.0339
vn -0.0165 -0.9996 -0.0214
vn -0.0166 -0.9996 -0.0212
vn -0.0173 -0.9998 -0.0028
vn -0.0172 -0.9998 -0.0028
vn 0.0116 0.9992 0.0386
vn 0.0115 0.9992 0.0385
vn 0.0117 0.9992 0.0387
vn 0.0029 0.9998 0.0191
vn 0.0029 0.9998 0.0193
vn 0.0028 0.9998 0.0194
vn 0.0029 0.9998 0.0192
vn -0.0121 -0.9993 -0.0365
vn -0.0119 -0.9993 -0.0364
vn -0.0118 -0.9993 -0.0364
vn -0.0119 -0.9993 -0.0365
vn -0.0179 -0.9991 -0.0383
vn -0.0204 -0.9990 -0.0401
vn -0.0176 -0.9991 -0.0381
vn -0.0776 -0.9954 0.0561
vn -0.0704 -0.9963 0.0485
vn -0.0793 -0.9951 0.0594
vn -0.0102 0.9992 0.0378
vn -0.0103 0.9992 0.0376
vn -0.0102 0.9992 0.0377
vn 0.0617 0.9958 -0.0679
vn 0.0617 0.9958 -0.0678
vn 0.0618 0.9958 -0.0677
vn 0.0194 0.9996 -0.0211
vn 0.0194 0.9996 -0.0210
vn 0.0359 0.9993 -0.0070
vn 0.0358 0.9993 -0.0070
vn -0.0226 -0.9997 0.0071
vn -0.0228 -0.9997 0.0071
vn -0.0230 -0.9997 0.0071
vn -0.0229 -0.9997 0.0071
vn -0.0285 -0.9994 0.0196
vn -0.0285 -0.9994 0.0195
vn -0.0575 -0.9964 0.0628
vn -0.0575 -0.9964 0.0627
vn -0.0461 -0.9970 -0.0629
vn -0.0462 -0.9970 -0.0623
vn -0.0304 -0.9970 -0.0706
vn -0.0307 -0.9970 -0.0708
vn -0.0308 -0.9970 -0.0708
vn -0.0306 -0.9970 -0.0708
vn -0.0501 -0.9976 -0.0476
vn -0.0420 -0.9985 -0.0343
vn -0.0424 -0.9985 -0.0342
vn -0.0427 -0.9985 -0.0341
vn -0.0614 -0.9980 0.0177
vn -0.0614 -0.9980 0.0176
vn -0.0308 -0.9994 -0.0129
vn -0.0308 -0.9994 -0.0130
vn -0.0309 -0.9994 -0.0131
vn -0.0523 -0.9974 0.0491
vn -0.0526 -0.9974 0.0492
vn -0.0309 -0.9987 0.0410
vn -0.0508 -0.9962 0.0713
vn -0.0507 -0.9962 0.0714
vn -0.0507 -0.9962 0.0715
vn -0.0333 -0.9984 0.0455
vn -0.0334 -0.9984 0.0455
vn -0.0232 -0.9997 0.0119
vn -0.0661 -0.9962 0.0568
vn -0.0595 -0.9981 0.0163
vn -0.0532 -0.9984 -0.0208
vn -0.0530 -0.9984 -0.0209
vn -0.0394 -0.9990 0.0228
vn -0.0397 -0.9990 0.0222
vn -0.0381 -0.9990 0.0247
vn -0.0553 -0.9985 -0.0036
vn -0.0490 -0.9988 0.0017
vn -0.0558 -0.9984 -0.0050
vn -0.0796 -0.9959 -0.0434
vn -0.0875 -0.9944 -0.0591
vn -0.0885 -0.9941 -0.0624
vn 0.0235 0.9083 -0.4177
vn 0.0235 0.9083 -0.4178
vn -0.0449 -0.9951 -0.0876
vn -0.0449 -0.9952 -0.0875
vn -0.0459 0.9790 -0.1985
vn -0.0484 0.9602 -0.2750
vn -0.0419 0.9806 -0.1916
vn 0.0787 0.9967 0.0204
vn 0.0670 0.9977 0.0099
vn 0.0662 0.9978 0.0078
vn 0.0521 0.9985 0.0169
vn 0.0521 0.9985 0.0168
vn 0.0410 0.9968 0.0686
vn 0.0610 0.9981 -0.0025
vn 0.0611 0.9981 -0.0025
vn 0.0398 0.9989 -0.0253
vn 0.0082 0.9971 0.0752
vn 0.0083 0.9971 0.0753
vn 0.0250 0.9965 0.0792
vn 0.0250 0.9965 0.0793
vn 0.0279 0.9965 0.0788
vn 0.0281 0.9965 0.0790
vn 0.0280 0.9965 0.0789
vn 0.0252 0.9948 0.0991
vn 0.0257 0.9947 0.0997
vn 0.0256 0.9947 0.0992
vn 0.0316 0.9942 0.1026
vn 0.0326 0.9944 0.1005
vn 0.0364 0.9947 0.0957
vn 0.0385 0.9945 0.0978
vn 0.0369 0.9946 0.0966
vn 0.0523 0.9967 -0.0623
vn 0.0591 0.9955 -0.0735
vn 0.0470 0.9976 -0.0516
vn 0.0469 0.9976 -0.0515
vn 0.0641 0.9974 -0.0326
vn 0.0641 0.9974 -0.0325
vn 0.0462 0.9986 -0.0269
vn 0.0261 0.9997 0.0009
vn 0.0260 0.9997 0.0010
vn 0.0258 0.9997 0.0010
vn 0.0259 0.9997 0.0010
vn 0.0700 0.9975 0.0136
vn 0.0698 0.9975 0.0137
vn 0.0700 0.9974 0.0198
vn 0.0700 0.9974 0.0197
vn 0.0741 0.9972 0.0114
vn 0.0743 0.9972 0.0113
vn 0.0742 0.9972 0.0114
vn 0.0673 0.9971 0.0343
vn 0.0673 0.9972 0.0341
vn 0.0582 0.9980 0.0254
vn 0.0581 0.9980 0.0254
vn 0.0473 0.9973 0.0566
vn 0.0462 0.9976 0.0521
vn 0.0474 0.9973 0.0562
vn 0.0487 0.9986 0.0192
vn 0.0488 0.9986 0.0192
vn 0.0240 0.9987 0.0444
vn 0.0281 0.9987 0.0430
vn 0.0243 0.9987 0.0442
vn 0.0353 0.9993 0.0150
vn 0.0354 0.9993 0.0152
vn 0.0355 0.9992 0.0155
vn 0.0001 1.0000 -0.0020
vn 0.0041 1.0000 -0.0034
vn 0.0454 0.9978 -0.0489
vn 0.0454 0.9978 -0.0490
vn 0.0453 0.9978 -0.0492
vn 0.0301 0.9982 -0.0512
vn 0.0300 0.9982 -0.0512
vn 0.0299 0.9982 -0.0512
vn 0.0317 0.9984 -0.0467
vn 0.0317 0.9984 -0.0466
vn 0.0389 0.9974 -0.0609
vn 0.0232 0.9994 -0.0261
vn 0.0239 0.9996 -0.0177
vn 0.0239 0.9996 -0.0176
vn 0.0202 0.9998 -0.0093
vn 0.0201 0.9998 -0.0093
vn 0.0194 0.9996 0.0203
vn 0.0223 0.9997 0.0075
vn 0.0222 0.9997 0.0075
vn 0.0144 0.9969 0.0776
vn 0.2545 -0.7904 -0.5572
vn 0.2545 -0.7904 -0.5573
vn 0.2503 0.5677 -0.7842
vn 0.2504 0.5677 -0.7842
vn 0.2503 0.5678 -0.7842
vn -0.0010 -0.9992 -0.0412
vn -0.0030 -0.9960 -0.0897
vn -0.0030 -0.9960 -0.0898
vn -0.0159 -0.9999 0.0023
vn -0.0160 -0.9996 -0.0250
vn -0.0331 -0.9994 0.0076
vn -0.0331 -0.9994 0.0075
vn -0.0330 -0.9994 0.0074
vn -0.0403 -0.9990 0.0177
vn -0.0402 -0.9990 0.0177
vn -0.0220 -0.9995 0.0229
vn -0.0220 -0.9995 0.0228
vn -0.0598 -0.9982 0.0036
vn -0.0597 -0.9982 0.0035
vn -0.0598 -0.9982 0.0037
vn -0.0637 -0.9979 0.0060
vn -0.0637 -0.9980 0.0060
vn -0.0636 -0.9980 0.0059
vn -0.0483 -0.9986 0.0234
vn -0.0483 -0.9986 0.0235
vn -0.0765 -0.9970 -0.0148
vn -0.0704 -0.9968 -0.0375
vn -0.0703 -0.9968 -0.0375
vn -0.0659 -0.9978 -0.0118
vn -0.0659 -0.9978 -0.0120
vn -0.0659 -0.9978 -0.0119
vn -0.0672 -0.9957 -0.0637
vn -0.0671 -0.9957 -0.0636
vn -0.0669 -0.9957 -0.0636
vn -0.0670 -0.9957 -0.0636
vn -0.0774 -0.9936 -0.0823
vn -0.0774 -0.9936 -0.0822
vn -0.0460 -0.9942 -0.0975
vn -0.0524 -0.9934 -0.1022
vn -0.0428 -0.9945 -0.0957
vn -0.0484 -0.9960 -0.0750
vn -0.0483 -0.9960 -0.0753
vn -0.0317 -0.9958 -0.0863
vn -0.0316 -0.9958 -0.0864
vn -0.0280 -0.9956 -0.0893
vn -0.0281 -0.9956 -0.0892
vn -0.0157 -0.9964 -0.0829
vn -0.0157 -0.9964 -0.0828
vn -0.0142 -0.9977 -0.0658
vn -0.0149 -0.9978 -0.0654
vn -0.0244 -0.9972 -0.0707
vn -0.0245 -0.9972 -0.0708
vn 0.0075 -0.9985 -0.0546
vn 0.0055 -0.9982 -0.0593
vn 0.0073 -0.9985 -0.0549
vn -0.0072 -0.9993 -0.0368
vn 0.0005 -0.9993 -0.0382
vn -0.0169 -0.9989 -0.0434
vn -0.0163 -0.9991 -0.0402
vn -0.0123 0.9977 0.0672
vn -0.0184 0.9984 0.0543
vn -0.0199 0.9959 0.0881
vn -0.0181 0.9961 0.0860
vn -0.0086 0.9968 0.0791
vn 0.0093 0.9959 0.0900
vn 0.0080 0.9960 0.0885
vn 0.0116 0.9954 0.0952
vn -0.0592 -0.9966 0.0574
vn -0.0591 -0.9966 0.0574
vn -0.0611 -0.9962 0.0620
vn -0.0611 -0.9962 0.0619
vn -0.0562 -0.9978 0.0352
vn -0.0562 -0.9978 0.0353
vn -0.0717 -0.9969 0.0310
vn -0.0718 -0.9969 0.0310
vn -0.0701 -0.9975 -0.0106
vn -0.0701 -0.9975 -0.0105
vn -0.0700 -0.9974 -0.0183
vn -0.0700 -0.9974 -0.0184
vn -0.0494 -0.9967 -0.0640
vn -0.0493 -0.9967 -0.0640
vn 0.1085 0.9930 -0.0465
vn 0.1085 0.9930 -0.0466
vn -0.0192 -0.9965 -0.0809
vn -0.0192 -0.9965 -0.0810
vn 0.0893 0.9953 -0.0369
vn 0.0893 0.9953 -0.0372
vn 0.0893 0.9953 -0.0370
vn 0.0676 0.9977 0.0030
vn 0.0736 0.9970 -0.0251
vn 0.0735 0.9970 -0.0251
vn 0.0588 0.9983 -0.0026
vn 0.0585 0.9983 -0.0035
vn 0.0585 0.9983 -0.0036
vn 0.0364 0.9993 -0.0132
vn 0.0363 0.9993 -0.0131
vn 0.0407 0.9990 -0.0194
vn 0.0407 0.9990 -0.0195
vn 0.0706 0.9975 0.0072
vn 0.0670 0.9977 0.0074
vn 0.0595 0.9982 -0.0058
vn 0.0595 0.9982 -0.0067
vn 0.0644 0.9979 -0.0060
vn 0.0479 0.9986 -0.0237
vn 0.0478 0.9986 -0.0237
vn 0.0478 0.9986 -0.0236
vn 0.0585 0.9980 -0.0234
vn 0.0585 0.9980 -0.0235
vn 0.0411 0.9989 -0.0218
vn 0.0410 0.9989 -0.0217
vn 0.0049 -0.9893 -0.1460
vn 0.0049 -0.9893 -0.1459
vn 0.1133 -0.9663 -0.2313
vn 0.1132 -0.9663 -0.2313
vn 0.1133 -0.9663 -0.2314
vn -0.0501 -0.9986 -0.0190
vn -0.0174 -0.9997 -0.0187
vn -0.0174 -0.9997 -0.0188
vn -0.0563 -0.9983 -0.0178
vn -0.0564 -0.9983 -0.0178
vn -0.0629 -0.9979 -0.0122
vn -0.0569 -0.9984 -0.0018
vn -0.0569 -0.9984 -0.0019
vn -0.0568 -0.9984 -0.0022
vn -0.0692 -0.9975 -0.0114
vn -0.0692 -0.9975 -0.0115
vn -0.0639 -0.9978 -0.0174
vn -0.0638 -0.9978 -0.0174
vn -0.0693 -0.9976 -0.0093
vn -0.0202 -0.9998 0.0037
vn -0.0201 -0.9998 0.0032
vn -0.0646 -0.9974 -0.0317
vn -0.0646 -0.9974 -0.0316
vn 0.0123 -0.9916 -0.1286
vn 0.0057 -0.9898 -0.1421
vn 0.0159 -0.9952 -0.0970
vn -0.0513 -0.9935 -0.1018
vn -0.0594 -0.9926 -0.1056
vn -0.0460 -0.9939 -0.1007
vn -0.0534 -0.9945 -0.0905
vn -0.0520 -0.9961 -0.0708
vn -0.0518 -0.9949 -0.0864
vn 0.0036 -0.9978 -0.0661
vn 0.0034 -0.9978 -0.0664
vn 0.0033 -0.9978 -0.0666
vn 0.0725 0.9973 0.0114
vn 0.0726 0.9973 0.0114
vn 0.0726 0.9973 0.0113
vn 0.0770 0.9970 0.0072
vn 0.0770 0.9970 0.0071
vn 0.0780 0.9964 -0.0322
vn 0.1762 0.9681 -0.1780
vn 0.1763 0.9681 -0.1780
vn 0.2872 0.7272 -0.6234
vn 0.2872 0.7272 -0.6235
vn 0.2872 0.7271 -0.6235
vn -0.0413 -0.9986 0.0329
vn -0.0413 -0.9986 0.0330
vn 0.0696 0.9951 0.0708
vn 0.0697 0.9951 0.0708
vn 0.0745 0.9924 0.0978
vn 0.0746 0.9924 0.0978
vn 0.0007 0.9902 0.1398
vn -0.0103 0.9943 0.1064
vn -0.0007 0.9877 0.1561
vn 0.0547 0.9962 0.0676
vn 0.0548 0.9962 0.0673
vn 0.0548 0.9962 0.0670
vn 0.0663 0.9943 0.0832
vn 0.0661 0.9943 0.0831
vn 0.0662 0.9943 0.0832
vn 0.0354 0.9965 0.0761
vn 0.0355 0.9965 0.0758
vn 0.0355 0.9965 0.0760
vn 0.0134 0.9999 -0.0014
vn 0.0033 1.0000 0.0005
vn 0.0131 0.9999 -0.0010
vn 0.0620 0.9976 -0.0307
vn -0.0210 -0.9981 0.0580
vn -0.0277 -0.9996 -0.0019
vn -0.0277 -0.9996 -0.0018
vn -0.0277 -0.9996 -0.0017
vt 0.723220 0.205090
vt 0.719900 0.187490
vt 0.696000 0.197990
vt 0.710110 0.218620
vt 0.730000 0.232850
vt 0.739180 0.207950
vt 0.742990 0.183030
vt 0.821750 0.063710
vt 0.832890 0.055640
vt 0.805060 0.041830
vt 0.799890 0.055980
vt 0.824350 0.083880
vt 0.843080 0.082380
vt 0.799660 0.079420
vt 0.769990 0.232280
vt 0.775350 0.245640
vt 0.795470 0.226220
vt 0.779450 0.215440
vt 0.759950 0.209940
vt 0.752670 0.233680
vt 0.749640 0.258720
vt 0.686060 0.957600
vt 0.679970 0.943380
vt 0.703650 0.944160
vt 0.651300 0.957260
vt 0.729160 0.769820
vt 0.746050 0.773670
vt 0.733830 0.792960
vt 0.715840 0.784690
vt 0.724570 0.749920
vt 0.751940 0.752430
vt 0.702380 0.771870
vt 0.755670 0.821700
vt 0.768880 0.810430
vt 0.779240 0.828530
vt 0.756960 0.837440
vt 0.734320 0.839680
vt 0.740840 0.818380
vt 0.752870 0.799910
vt 0.852910 0.908680
vt 0.827910 0.939030
vt 0.825890 0.915870
vt 0.820570 0.896260
vt 0.842760 0.884140
vt 0.651150 0.105690
vt 0.655990 0.128330
vt 0.682460 0.122380
vt 0.678520 0.099750
vt 0.673940 0.078920
vt 0.671200 0.057770
vt 0.648060 0.075620
vt 0.707430 0.090930
vt 0.701440 0.066890
vt 0.697130 0.049520
vt 0.732030 0.056330
vt 0.770950 0.956340
vt 0.766300 0.935580
vt 0.797260 0.926410
vt 0.801610 0.946670
vt 0.733610 0.941940
vt 0.731990 0.914760
vt 0.762360 0.910120
vt 0.702710 0.916280
vt 0.702240 0.889390
vt 0.730800 0.888520
vt 0.672580 0.918100
vt 0.673410 0.889090
vt 0.649070 0.922050
vt 0.658350 0.855050
vt 0.678280 0.859010
vt 0.704410 0.862130
vt 0.685870 0.829380
vt 0.710300 0.836010
vt 0.731240 0.863380
vt 0.758340 0.860520
vt 0.759750 0.884790
vt 0.784330 0.851860
vt 0.787830 0.877320
vt 0.792540 0.903410
vt 0.813600 0.867150
vt 0.809020 0.839640
vt 0.833830 0.826540
vt 0.837800 0.856110
vt 0.860870 0.874630
vt 0.641190 0.158180
vt 0.659420 0.154990
vt 0.663400 0.182640
vt 0.689010 0.173330
vt 0.685480 0.147950
vt 0.716730 0.163890
vt 0.714330 0.139780
vt 0.711720 0.115350
vt 0.745250 0.131450
vt 0.742550 0.107460
vt 0.738050 0.081790
vt 0.773770 0.101480
vt 0.770790 0.073890
vt 0.768310 0.045890
vt 0.800270 0.106700
vt 0.772750 0.131380
vt 0.798750 0.135910
vt 0.824910 0.141390
vt 0.827870 0.111300
vt 0.842180 0.145220
vt 0.667340 0.823420
vt 0.680180 0.793790
vt 0.698030 0.803330
vt 0.720310 0.813120
vt 0.671660 0.789360
vt 0.689640 0.759390
vt 0.754110 0.731020
vt 0.782080 0.755310
vt 0.673470 0.210210
vt 0.690970 0.237480
vt 0.717660 0.254700
vt 0.834770 0.176810
vt 0.820010 0.171910
vt 0.813280 0.201990
vt 0.795240 0.164430
vt 0.789930 0.191530
vt 0.811000 0.239740
vt 0.825440 0.208340
vt 0.769480 0.158940
vt 0.765690 0.184870
vt 0.744070 0.156990
vt 0.817700 0.759170
vt 0.823160 0.799160
vt 0.805140 0.773900
vt 0.790570 0.738640
vt 0.801300 0.814400
vt 0.787500 0.792540
vt 0.767920 0.778750
vt 0.267270 0.321030
vt 0.268270 0.307560
vt 0.255090 0.305180
vt 0.259200 0.323930
vt 0.266120 0.341680
vt 0.276200 0.330680
vt 0.282920 0.315220
vt 0.441650 0.612440
vt 0.438030 0.624570
vt 0.423500 0.614540
vt 0.432950 0.601350
vt 0.445320 0.591600
vt 0.451940 0.610550
vt 0.455620 0.629630
vt 0.362030 0.659200
vt 0.356690 0.685440
vt 0.344330 0.664770
vt 0.335860 0.641420
vt 0.354650 0.640840
vt 0.389240 0.662870
vt 0.405590 0.673370
vt 0.390340 0.690120
vt 0.401800 0.646530
vt 0.418800 0.656880
vt 0.437540 0.666530
vt 0.424350 0.683870
vt 0.412890 0.630180
vt 0.430400 0.640900
vt 0.448360 0.648770
vt 0.456870 0.651710
vt 0.447190 0.670990
vt 0.463430 0.630620
vt 0.468840 0.631250
vt 0.462070 0.653400
vt 0.462970 0.607880
vt 0.468450 0.606550
vt 0.473420 0.605430
vt 0.473820 0.631790
vt 0.451670 0.586980
vt 0.461020 0.581010
vt 0.478190 0.604410
vt 0.238360 0.330110
vt 0.239890 0.329670
vt 0.239040 0.302480
vt 0.238120 0.302220
vt 0.478420 0.632290
vt 0.253230 0.353990
vt 0.244630 0.328420
vt 0.249590 0.327050
vt 0.248990 0.304070
vt 0.243640 0.303230
vt 0.256760 0.350570
vt 0.260900 0.346710
vt 0.371740 0.336690
vt 0.363720 0.356430
vt 0.385040 0.360270
vt 0.391500 0.336220
vt 0.390870 0.307650
vt 0.372240 0.311190
vt 0.387290 0.281480
vt 0.369330 0.287440
vt 0.411700 0.333460
vt 0.406180 0.274810
vt 0.399220 0.246900
vt 0.380890 0.256560
vt 0.326950 0.132250
vt 0.322110 0.133250
vt 0.312450 0.156560
vt 0.315980 0.157380
vt 0.321110 0.160620
vt 0.333280 0.136270
vt 0.328890 0.165580
vt 0.343110 0.142890
vt 0.305770 0.180830
vt 0.310950 0.183990
vt 0.318270 0.188510
vt 0.332320 0.196800
vt 0.347440 0.177830
vt 0.299000 0.205120
vt 0.304890 0.208880
vt 0.319760 0.217960
vt 0.293580 0.229430
vt 0.309390 0.239120
vt 0.326860 0.250670
vt 0.338130 0.229650
vt 0.300930 0.259430
vt 0.319060 0.269930
vt 0.335730 0.280400
vt 0.294000 0.278260
vt 0.313080 0.288540
vt 0.331260 0.298720
vt 0.307520 0.306720
vt 0.288520 0.296200
vt 0.275800 0.268930
vt 0.269160 0.288290
vt 0.267730 0.264520
vt 0.259550 0.284460
vt 0.263070 0.261830
vt 0.254030 0.282160
vt 0.259190 0.259350
vt 0.249520 0.280170
vt 0.255660 0.256900
vt 0.245530 0.278360
vt 0.321680 0.808410
vt 0.317690 0.806600
vt 0.311190 0.830730
vt 0.315800 0.831470
vt 0.471010 0.656150
vt 0.460880 0.677610
vt 0.459770 0.677180
vt 0.470820 0.656300
vt 0.337740 0.866490
vt 0.337920 0.866340
vt 0.330330 0.890360
vt 0.331250 0.890620
vt 0.456030 0.675150
vt 0.466590 0.654880
vt 0.451920 0.673130
vt 0.444380 0.693620
vt 0.440440 0.691860
vt 0.435510 0.689520
vt 0.430220 0.711800
vt 0.423840 0.708770
vt 0.408900 0.701010
vt 0.409270 0.727700
vt 0.390410 0.716710
vt 0.372470 0.702930
vt 0.353180 0.714190
vt 0.336960 0.693110
vt 0.333770 0.723090
vt 0.315380 0.699600
vt 0.303870 0.671460
vt 0.323770 0.669310
vt 0.316670 0.641050
vt 0.313500 0.610880
vt 0.333400 0.612910
vt 0.315320 0.580820
vt 0.337000 0.584290
vt 0.359480 0.595720
vt 0.354620 0.619120
vt 0.346310 0.564050
vt 0.396750 0.619190
vt 0.376440 0.383340
vt 0.406270 0.362220
vt 0.372190 0.790340
vt 0.386100 0.770950
vt 0.396440 0.776700
vt 0.384320 0.802190
vt 0.402170 0.779260
vt 0.389810 0.804290
vt 0.402280 0.751330
vt 0.408490 0.754070
vt 0.413470 0.756110
vt 0.418070 0.757820
vt 0.405000 0.778770
vt 0.420700 0.733240
vt 0.425090 0.735510
vt 0.429270 0.737730
vt 0.287270 0.196780
vt 0.290820 0.199430
vt 0.301320 0.178290
vt 0.298470 0.176690
vt 0.438070 0.715180
vt 0.441260 0.716370
vt 0.275280 0.218150
vt 0.278990 0.220280
vt 0.282780 0.222600
vt 0.294740 0.202240
vt 0.266350 0.238540
vt 0.269800 0.240620
vt 0.273310 0.242830
vt 0.277130 0.245300
vt 0.286970 0.225230
vt 0.284430 0.249830
vt 0.450190 0.695970
vt 0.448150 0.695240
vt 0.434060 0.713510
vt 0.415780 0.730830
vt 0.388920 0.744270
vt 0.370640 0.759750
vt 0.371050 0.731330
vt 0.352490 0.743310
vt 0.355290 0.773070
vt 0.336810 0.752510
vt 0.315620 0.730810
vt 0.322210 0.553430
vt 0.311540 0.155740
vt 0.322050 0.132620
vt 0.394490 0.801890
vt 0.352320 0.209100
vt 0.369480 0.231630
vt 0.386450 0.220220
vt 0.368780 0.195760
vt 0.401800 0.209780
vt 0.383630 0.184170
vt 0.363290 0.161500
vt 0.353140 0.247630
vt 0.363680 0.266300
vt 0.299590 0.326120
s 1
usemtl BLy_Orange.002
f 1/1/1 2/2/2 3/3/3
f 1/1/1 3/3/3 4/4/2
f 5/1/4 6/4/5 7/5/4
f 5/1/4 7/5/4 8/6/5
f 9/1/6 10/6/7 11/7/8
f 9/1/6 11/7/8 12/2/8
f 13/8/9 14/9/9 15/10/10
f 13/8/9 15/10/10 16/11/9
f 17/8/11 18/12/11 19/13/11
f 17/8/11 19/13/11 20/9/11
f 21/8/12 22/11/13 23/14/12
f 21/8/12 23/14/12 24/12/13
f 25/15/14 26/16/14 27/17/14
f 25/15/14 27/17/14 28/18/14
f 29/15/15 30/18/15 31/19/16
f 29/15/15 31/19/16 32/20/15
f 33/15/17 34/20/18 35/21/19
f 33/15/17 35/21/19 36/16/18
f 37/22/20 38/23/21 39/24/22
f 40/22/23 41/25/24 42/23/25
f 43/26/26 44/27/27 45/28/28
f 43/26/26 45/28/28 46/29/28
f 47/26/29 48/30/30 49/31/29
f 47/26/29 49/31/29 50/27/31
f 51/26/32 52/29/32 53/32/33
f 51/26/32 53/32/33 54/30/32
s 0
f 55/33/34 56/34/34 57/35/34
f 55/33/35 57/35/35 58/36/35
f 59/33/36 60/36/36 61/37/36
s 1
f 59/33/37 61/37/37 62/38/37
f 63/33/38 64/38/38 65/39/39
f 63/33/38 65/39/39 66/34/38
f 67/40/40 68/41/41 69/42/42
f 70/40/43 71/42/43 72/43/44
f 70/40/43 72/43/44 73/44/45
f 74/45/46 75/46/46 76/47/46
f 74/45/46 76/47/46 77/48/46
f 78/45/47 79/48/48 80/49/49
f 81/49/50 82/50/51 83/51/52
f 84/49/53 85/48/53 86/52/53
f 84/49/53 86/52/53 87/53/53
f 88/54/54 89/53/55 90/55/56
f 91/56/57 92/57/57 93/58/57
f 91/56/57 93/58/57 94/59/57
f 95/60/58 96/61/59 97/62/59
f 95/60/58 97/62/59 98/57/59
f 99/60/60 100/24/60 101/63/61
f 99/60/60 101/63/61 102/61/60
f 103/63/62 104/64/62 105/65/63
f 103/63/62 105/65/63 106/61/62
s 0
f 107/63/64 108/24/64 109/23/64
f 107/63/65 109/23/65 110/66/65
s 1
f 111/63/66 112/66/67 113/67/68
f 111/63/66 113/67/68 114/64/68
s 0
f 115/67/69 116/66/69 117/68/69
f 118/67/70 119/69/70 120/70/70
f 121/67/71 122/70/71 123/71/71
f 121/67/72 123/71/72 124/64/72
f 125/71/71 126/70/71 127/72/71
f 125/71/71 127/72/71 128/73/71
f 129/71/36 130/73/36 131/37/36
f 129/71/37 131/37/37 132/74/37
s 1
f 133/71/73 134/74/73 135/65/73
f 133/71/73 135/65/73 136/64/69
f 137/74/74 138/37/74 139/36/74
s 0
f 137/74/74 139/36/74 140/75/74
s 1
f 141/74/75 142/75/76 143/76/76
f 141/74/75 143/76/76 144/65/76
s 0
f 145/76/77 146/75/77 147/77/77
f 145/76/77 147/77/77 148/78/77
s 1
f 149/76/78 150/78/79 151/79/80
f 149/76/78 151/79/80 152/62/78
f 153/76/81 154/62/82 155/61/83
f 153/76/81 155/61/83 156/65/84
f 157/79/85 158/78/86 159/80/87
f 157/79/85 159/80/87 160/43/86
f 161/79/88 162/43/89 163/42/88
f 161/79/88 163/42/88 164/58/88
f 165/79/90 166/58/91 167/57/92
f 165/79/90 167/57/92 168/62/91
f 169/80/93 170/78/94 171/77/95
f 169/80/93 171/77/95 172/81/93
f 173/80/96 174/81/97 175/82/98
f 173/80/96 175/82/98 176/83/97
f 177/80/99 178/83/99 179/44/100
f 177/80/99 179/44/100 180/43/99
f 181/83/101 182/84/102 183/44/103
f 184/85/104 185/86/105 186/46/106
s 0
f 187/86/107 188/87/107 189/88/107
s 1
f 187/86/108 189/88/108 190/89/108
f 191/86/109 192/89/110 193/47/111
f 191/86/109 193/47/111 194/46/110
f 195/89/112 196/88/113 197/90/113
f 195/89/112 197/90/113 198/91/113
f 199/89/114 200/91/114 201/92/114
f 199/89/114 201/92/114 202/47/114
f 203/92/115 204/52/115 205/48/115
f 203/92/115 205/48/115 206/47/115
f 207/92/116 208/91/117 209/93/118
f 207/92/116 209/93/118 210/94/117
f 211/92/119 212/94/119 213/95/119
s 0
f 211/92/120 213/95/120 214/52/120
s 1
f 215/95/121 216/55/122 217/53/121
f 215/95/121 217/53/121 218/52/122
f 219/95/123 220/94/123 221/96/124
f 219/95/123 221/96/124 222/97/123
f 223/95/125 224/97/125 225/98/125
f 223/95/125 225/98/125 226/55/125
f 227/98/126 228/97/127 229/14/128
f 227/98/126 229/14/128 230/11/128
f 231/97/129 232/96/130 233/99/130
f 231/97/129 233/99/130 234/14/130
f 235/99/131 236/96/131 237/100/131
s 0
f 235/99/132 237/100/132 238/101/132
f 239/99/133 240/101/133 241/102/133
f 239/99/134 241/102/134 242/103/134
s 1
f 243/99/135 244/103/136 245/12/137
f 243/99/135 245/12/137 246/14/137
s 0
f 247/103/138 248/102/138 249/104/138
f 250/103/139 251/13/139 252/12/139
s 1
f 253/105/140 254/106/141 255/107/142
f 253/105/140 255/107/142 256/72/143
s 0
f 257/105/144 258/72/144 259/70/144
f 257/105/145 259/70/145 260/69/145
s 1
f 261/107/146 262/106/146 263/32/146
f 261/107/146 263/32/146 264/29/146
s 0
f 265/107/147 266/29/147 267/28/147
f 265/107/148 267/28/148 268/108/148
s 1
f 269/107/149 270/108/150 271/73/151
f 269/107/149 271/73/151 272/72/150
f 273/108/37 274/28/37 275/39/37
s 0
f 273/108/36 275/39/36 276/38/36
f 277/108/152 278/38/152 279/37/152
f 277/108/153 279/37/153 280/73/153
s 1
f 281/106/154 282/109/154 283/110/155
f 281/106/154 283/110/155 284/32/155
f 285/111/156 286/112/157 287/31/158
f 288/113/159 289/114/160 290/4/159
f 288/113/159 290/4/159 291/3/160
f 292/113/161 293/3/162 294/88/162
f 292/113/161 294/88/162 295/87/162
f 296/114/163 297/115/163 298/5/164
f 296/114/163 298/5/164 299/4/163
f 300/115/165 301/21/166 302/20/166
f 300/115/165 302/20/166 303/5/166
s 0
f 304/116/167 305/102/167 306/117/167
s 1
f 307/116/168 308/117/169 309/118/170
f 310/118/171 311/117/172 312/119/173
f 310/118/171 312/119/173 313/120/174
f 314/118/175 315/120/176 316/18/176
f 314/118/175 316/18/176 317/17/176
f 318/118/177 319/17/177 320/121/177
f 318/118/177 320/121/177 321/122/177
s 0
f 322/120/178 323/119/178 324/123/178
f 322/120/179 324/123/179 325/124/179
s 1
f 326/120/180 327/124/180 328/19/181
f 326/120/180 328/19/181 329/18/180
s 0
f 330/124/182 331/123/182 332/125/182
f 330/124/183 332/125/183 333/7/183
f 334/124/184 335/7/184 336/6/184
s 1
f 334/124/185 336/6/185 337/19/185
f 338/125/186 339/93/187 340/91/188
f 338/125/186 340/91/188 341/90/187
f 342/125/189 343/90/189 344/2/190
f 342/125/189 344/2/190 345/7/189
s 0
f 346/125/167 347/123/167 348/100/167
f 346/125/191 348/100/191 349/93/191
f 350/123/134 351/119/134 352/101/134
f 350/123/139 352/101/139 353/100/139
f 354/119/167 355/117/167 356/102/167
f 354/119/192 356/102/192 357/101/192
s 1
f 358/126/193 359/127/194 360/128/195
f 361/126/196 362/112/197 363/129/198
f 364/128/199 365/127/200 366/130/200
f 364/128/199 366/130/200 367/131/200
f 368/128/201 369/131/202 370/132/202
f 368/128/201 370/132/202 371/112/202
f 372/132/203 373/131/204 374/34/205
f 372/132/203 374/34/205 375/39/205
f 376/132/206 377/39/207 378/28/206
f 376/132/206 378/28/206 379/27/208
f 380/132/209 381/27/209 382/31/209
f 380/132/209 382/31/209 383/112/210
s 0
f 384/131/211 385/130/211 386/35/211
f 384/131/212 386/35/212 387/34/212
s 1
f 388/130/213 389/81/214 390/77/214
f 388/130/213 390/77/214 391/35/214
f 392/130/215 393/127/215 394/82/215
f 392/130/215 394/82/215 395/81/216
f 396/100/217 397/96/218 398/94/219
f 396/100/217 398/94/219 399/93/217
f 400/90/220 401/88/221 402/3/222
f 400/90/220 402/3/222 403/2/223
f 404/77/224 405/75/225 406/36/226
f 404/77/224 406/36/226 407/35/227
f 408/68/228 409/66/229 410/23/230
f 411/59/231 412/58/232 413/42/233
f 414/20/234 415/19/235 416/6/235
f 414/20/234 416/6/235 417/5/236
f 418/133/237 419/134/238 420/135/239
f 418/133/237 420/135/239 421/136/238
f 422/133/240 423/136/241 424/137/241
f 422/133/240 424/137/241 425/138/240
f 426/133/242 427/138/242 428/139/243
f 426/133/242 428/139/243 429/134/242
f 430/140/244 431/141/245 432/142/246
f 430/140/244 432/142/246 433/143/247
f 434/140/248 435/143/249 436/144/249
f 434/140/248 436/144/249 437/145/249
f 438/140/250 439/145/251 440/146/250
f 438/140/250 440/146/250 441/141/250
f 442/147/252 443/148/252 444/149/253
f 445/147/254 446/149/255 447/150/256
f 445/147/254 447/150/256 448/151/257
s 0
f 449/152/258 450/153/258 451/154/258
s 1
f 452/152/259 453/155/260 454/156/261
f 452/152/259 454/156/261 455/153/260
f 456/156/262 457/157/262 458/158/263
f 456/156/262 458/158/263 459/153/262
f 460/156/264 461/155/265 462/159/266
f 460/156/264 462/159/266 463/160/264
f 464/156/267 465/160/267 466/161/268
f 464/156/267 466/161/268 467/157/267
f 468/161/269 469/162/269 470/163/269
f 468/161/269 470/163/269 471/157/269
f 472/161/270 473/160/271 474/141/271
f 472/161/270 474/141/271 475/146/272
f 476/161/273 477/146/274 478/164/273
f 476/161/273 478/164/273 479/162/273
f 480/164/275 481/165/275 482/166/275
f 480/164/275 482/166/275 483/162/275
f 484/164/276 485/146/276 486/145/276
f 484/164/276 486/145/276 487/167/276
f 488/164/277 489/167/277 490/168/277
f 488/164/277 490/168/277 491/165/277
f 492/168/278 493/169/279 494/170/279
f 492/168/278 494/170/279 495/165/279
f 496/168/280 497/167/281 498/171/282
f 499/168/283 500/172/284 501/169/285
f 502/172/286 503/173/287 504/169/288
f 505/174/289 506/175/289 507/176/289
f 505/174/289 507/176/289 508/177/290
f 509/173/291 510/178/291 511/170/291
f 509/173/291 511/170/291 512/169/292
f 513/174/293 514/179/294 515/175/295
f 516/179/296 517/180/297 518/175/298
f 519/180/299 520/181/299 521/182/300
f 519/180/299 521/182/300 522/183/299
f 523/180/301 524/183/301 525/176/301
f 523/180/301 525/176/301 526/175/301
f 527/180/302 528/184/303 529/185/303
f 527/180/302 529/185/303 530/181/303
f 531/185/304 532/137/304 533/136/304
f 531/185/304 533/136/304 534/181/304
f 535/186/305 536/187/306 537/188/306
f 535/186/305 537/188/306 538/189/306
s 0
f 539/186/307 540/189/307 541/190/307
s 1
f 539/186/308 541/190/308 542/191/308
f 543/190/309 544/192/310 545/193/310
f 543/190/309 545/193/310 546/191/311
f 547/190/312 548/189/313 549/194/314
f 550/190/315 551/195/315 552/192/316
f 553/195/317 554/196/318 555/197/319
f 556/198/320 557/199/320 558/200/320
f 556/198/320 558/200/320 559/201/320
f 560/198/321 561/201/321 562/202/321
f 560/198/321 562/202/321 563/203/321
f 564/202/322 565/204/322 566/205/322
f 564/202/322 566/205/322 567/203/323
f 568/202/324 569/201/324 570/206/324
f 568/202/324 570/206/324 571/207/325
f 572/202/326 573/207/326 574/208/326
f 572/202/326 574/208/326 575/204/326
f 576/208/327 577/209/328 578/210/329
f 576/208/327 578/210/329 579/204/330
s 0
f 580/208/331 581/207/331 582/211/331
s 1
f 580/208/332 582/211/332 583/212/332
f 584/208/333 585/212/334 586/213/334
f 584/208/333 586/213/334 587/209/334
f 588/213/335 589/212/335 590/214/336
f 588/213/335 590/214/336 591/215/337
f 592/213/338 593/215/339 594/216/339
f 592/213/338 594/216/339 595/217/338
f 596/216/340 597/215/340 598/218/340
f 596/216/340 598/218/340 599/219/341
f 600/216/342 601/219/343 602/220/344
f 603/219/345 604/218/345 605/221/346
f 603/219/345 605/221/346 606/222/346
f 607/223/347 608/222/348 609/224/349
f 610/224/350 611/222/351 612/221/352
f 610/224/350 612/221/352 613/225/351
f 614/224/353 615/225/354 616/139/353
f 617/225/355 618/221/356 619/226/357
f 617/225/355 619/226/357 620/227/356
f 621/225/358 622/227/359 623/134/360
f 621/225/358 623/134/360 624/139/359
f 625/227/361 626/226/361 627/228/362
f 625/227/361 627/228/362 628/229/361
f 629/227/363 630/229/363 631/135/363
f 629/227/363 631/135/363 632/134/363
f 633/229/364 634/228/364 635/230/364
f 633/229/364 635/230/364 636/231/364
f 637/229/365 638/231/366 639/182/366
f 637/229/365 639/182/366 640/135/366
f 641/231/367 642/230/367 643/232/368
f 641/231/367 643/232/368 644/233/367
f 645/231/369 646/233/369 647/183/369
f 645/231/369 647/183/369 648/182/369
f 649/233/370 650/232/371 651/234/370
f 649/233/370 651/234/370 652/235/370
f 653/236/372 654/237/372 655/238/372
f 653/236/372 655/238/372 656/239/372
f 657/240/373 658/241/374 659/242/374
f 657/240/373 659/242/374 660/243/374
f 661/244/375 662/245/376 663/246/377
f 661/244/375 663/246/377 664/247/375
f 665/243/378 666/242/378 667/248/378
f 665/243/378 667/248/378 668/249/378
f 669/243/379 670/249/379 671/170/380
f 669/243/379 671/170/380 672/178/379
f 673/249/381 674/248/381 675/250/381
f 673/249/381 675/250/381 676/166/381
f 677/249/382 678/166/382 679/165/382
f 677/249/382 679/165/382 680/170/382
f 681/250/383 682/248/384 683/251/385
f 681/250/383 683/251/385 684/252/385
f 685/250/386 686/252/386 687/253/387
f 685/250/386 687/253/387 688/163/386
f 689/250/388 690/163/388 691/162/389
f 689/250/388 691/162/389 692/166/388
f 693/253/390 694/252/391 695/254/392
f 693/253/390 695/254/392 696/255/390
f 697/253/393 698/255/394 699/256/395
f 697/253/393 699/256/395 700/158/393
f 701/253/396 702/158/396 703/157/397
f 701/253/396 703/157/397 704/163/396
f 705/256/398 706/255/398 707/257/398
f 705/256/398 707/257/398 708/258/398
f 709/256/399 710/258/400 711/259/400
f 709/256/399 711/259/400 712/154/400
f 713/256/401 714/154/402 715/153/402
f 713/256/401 715/153/402 716/158/403
f 717/259/404 718/260/405 719/261/406
f 717/259/404 719/261/406 720/148/407
f 721/261/408 722/260/409 723/262/409
f 721/261/408 723/262/409 724/263/408
f 725/261/410 726/263/411 727/264/412
f 728/261/413 729/265/413 730/149/414
f 728/261/413 730/149/414 731/148/413
f 732/265/415 733/266/416 734/150/416
f 732/265/415 734/150/416 735/149/416
s 0
f 736/266/417 737/267/417 738/268/417
f 736/266/418 738/268/418 739/150/418
s 1
f 740/268/419 741/267/420 742/269/420
f 740/268/419 742/269/420 743/270/420
s 0
f 744/268/421 745/270/421 746/271/421
f 744/268/422 746/271/422 747/272/422
s 1
f 748/268/423 749/272/423 750/151/424
f 748/268/423 750/151/424 751/150/423
f 752/271/425 753/270/426 754/273/427
f 755/274/428 756/142/428 757/159/429
f 758/274/430 759/159/431 760/155/430
f 761/275/432 762/188/433 763/187/432
f 764/275/434 765/276/435 766/188/436
f 767/276/437 768/189/438 769/188/439
f 770/277/440 771/278/441 772/279/440
f 770/277/440 772/279/440 773/280/441
f 774/279/442 775/281/443 776/282/443
f 774/279/442 776/282/443 777/280/443
f 778/279/444 779/278/445 780/283/445
f 778/279/444 780/283/445 781/284/444
f 782/279/446 783/284/446 784/285/446
f 782/279/446 784/285/446 785/281/447
f 786/285/448 787/286/448 788/287/449
f 786/285/448 788/287/449 789/281/449
f 790/285/450 791/284/451 792/288/451
f 790/285/450 792/288/451 793/289/450
f 794/285/452 795/289/453 796/290/453
f 794/285/452 796/290/453 797/286/452
f 798/291/454 799/292/454 800/293/455
f 798/291/454 800/293/455 801/294/454
f 802/290/456 803/289/456 804/295/456
f 802/290/456 804/295/456 805/296/457
f 806/291/458 807/297/459 808/298/459
f 806/291/458 808/298/459 809/292/460
f 810/298/461 811/299/461 812/300/461
f 810/298/461 812/300/461 813/292/461
f 814/298/462 815/297/463 816/301/463
f 814/298/462 816/301/463 817/302/463
f 818/298/464 819/302/464 820/303/464
f 818/298/464 820/303/464 821/299/464
f 822/303/465 823/304/466 824/305/465
f 822/303/465 824/305/465 825/299/466
s 0
f 826/303/467 827/302/467 828/232/467
f 826/303/468 828/232/468 829/230/468
s 1
f 830/303/469 831/230/470 832/228/469
f 830/303/469 832/228/469 833/304/469
f 834/305/471 835/214/471 836/212/471
f 834/305/471 836/212/471 837/211/471
f 838/305/472 839/211/472 840/300/472
f 838/305/472 840/300/472 841/299/472
s 0
f 842/305/473 843/304/473 844/306/473
f 842/305/474 844/306/474 845/214/474
s 1
f 846/306/475 847/218/475 848/215/475
f 846/306/475 848/215/475 849/214/475
f 850/306/476 851/304/477 852/228/477
f 850/306/476 852/228/477 853/226/478
f 854/306/479 855/226/480 856/221/480
f 854/306/479 856/221/480 857/218/480
f 858/302/481 859/301/482 860/234/481
f 858/302/481 860/234/481 861/232/482
f 862/307/483 863/296/484 864/295/483
f 862/307/483 864/295/483 865/308/483
f 866/307/485 867/308/486 868/242/487
f 866/307/485 868/242/487 869/241/485
f 870/308/488 871/295/488 872/309/488
f 870/308/488 872/309/488 873/251/488
f 874/308/489 875/251/490 876/248/489
f 874/308/489 876/248/489 877/242/490
f 878/309/491 879/295/492 880/289/492
f 878/309/491 880/289/492 881/288/492
f 882/309/493 883/288/493 884/310/493
f 882/309/493 884/310/493 885/254/493
f 886/309/494 887/254/495 888/252/496
f 886/309/494 888/252/496 889/251/496
f 890/310/497 891/288/498 892/284/498
f 890/310/497 892/284/498 893/283/498
f 894/310/499 895/283/500 896/311/499
f 894/310/499 896/311/499 897/257/499
f 898/310/501 899/257/501 900/255/501
f 898/310/501 900/255/501 901/254/501
f 902/311/502 903/283/502 904/278/502
s 0
f 902/311/503 904/278/503 905/312/503
s 1
f 906/311/504 907/313/504 908/258/504
f 906/311/504 908/258/504 909/257/505
f 910/314/506 911/315/507 912/316/508
f 913/314/509 914/316/510 915/317/511
f 916/314/512 917/262/513 918/260/514
f 919/318/515 920/273/516 921/270/517
f 919/318/515 921/270/517 922/269/516
f 923/300/518 924/211/519 925/207/519
f 923/300/518 925/207/519 926/206/520
f 927/300/521 928/206/522 929/293/522
f 927/300/521 929/293/522 930/292/521
f 931/293/523 932/206/523 933/201/523
f 931/293/523 933/201/523 934/200/523
f 935/293/524 936/200/525 937/319/524
f 935/293/524 937/319/524 938/294/524
f 939/319/526 940/200/527 941/199/527
f 939/319/526 941/199/527 942/320/528
f 943/287/529 944/321/529 945/282/529
f 943/287/529 945/282/529 946/281/530
f 947/322/531 948/323/531 949/324/532
f 947/322/531 949/324/532 950/325/531
f 951/325/533 952/324/534 953/326/534
f 951/325/533 953/326/534 954/327/534
f 955/325/535 956/327/536 957/328/537
f 958/323/538 959/329/539 960/330/540
f 958/323/538 960/330/540 961/197/539
f 962/323/541 963/197/542 964/196/543
f 962/323/541 964/196/543 965/324/542
f 966/197/544 967/330/544 968/193/545
f 966/197/544 968/193/545 969/192/546
f 970/331/547 971/139/548 972/138/549
f 973/182/550 974/181/550 975/136/550
f 973/182/550 975/136/550 976/135/550
f 977/171/551 978/167/551 979/145/551
f 977/171/551 979/145/551 980/144/551
f 981/160/552 982/159/553 983/142/554
f 981/160/552 983/142/554 984/141/553
