# Blender 4.5.4 LTS
# www.blender.org
mtllib tree.mtl
o pCylinder4_Tree_0
v -3.391492 5.798486 -0.000000
v 0.000000 5.798486 -3.391493
v 0.000000 5.847301 0.000000
v -0.000000 5.798486 3.391493
v -3.391492 5.798486 -0.000000
v 0.000000 5.847301 0.000000
v 3.391492 5.798486 0.000000
v -0.000000 5.798486 3.391493
v 0.000000 5.847301 0.000000
v 0.000000 5.798486 -3.391493
v 3.391492 5.798486 0.000000
v 0.000000 5.847301 0.000000
v 0.000000 12.581471 -3.391493
v -3.391492 12.581471 -0.000000
v 0.000000 13.230906 0.000000
v -3.391492 12.581471 -0.000000
v -0.000000 12.581471 3.391493
v 0.000000 13.230906 0.000000
v -0.000000 12.581471 3.391493
v 3.391492 12.581471 0.000000
v 0.000000 13.230906 0.000000
v 3.391492 12.581471 0.000000
v 0.000000 12.581471 -3.391493
v 0.000000 13.230906 0.000000
v 0.425047 0.375445 -1.467859
v -1.300525 0.375445 -0.907187
v -1.044975 0.980593 -0.741121
v 0.364719 0.980593 -1.199158
v -1.300525 0.375445 -0.907187
v -1.300525 0.375445 0.907187
v -1.044976 0.980593 0.741120
v -1.044975 0.980593 -0.741121
v -1.300525 0.375445 0.907187
v 0.425046 0.375445 1.467859
v 0.364719 0.980593 1.199158
v -1.044976 0.980593 0.741120
v 0.425046 0.375445 1.467859
v 1.491508 0.375445 0.000000
v 1.235958 0.980593 0.000000
v 0.364719 0.980593 1.199158
v 1.491508 0.375445 0.000000
v 0.425047 0.375445 -1.467859
v 0.364719 0.980593 -1.199158
v 1.235958 0.980593 0.000000
v 0.707439 -0.446742 -2.725652
v -2.496756 -0.446742 -1.684545
v -2.496756 -0.446742 -1.684545
v -2.496756 -0.446742 1.684545
v -2.496756 -0.446742 1.684545
v 0.707438 -0.446742 2.725652
v 0.707438 -0.446742 2.725652
v 2.687739 -0.446742 0.000000
v 2.687739 -0.446742 0.000000
v 0.707439 -0.446742 -2.725652
v 0.309017 5.854011 -0.951057
v 1.000000 5.854011 0.000000
v 1.000000 5.854011 0.000000
v 0.309017 5.854011 0.951057
v 0.309017 5.854011 0.951057
v -0.809017 5.854011 0.587785
v -0.809017 5.854011 0.587785
v -0.809017 5.854011 -0.587785
v -0.809017 5.854011 -0.587785
v 0.309017 5.854011 -0.951057
v 0.000000 5.798486 -3.391493
v -3.391492 5.798486 -0.000000
v -4.796294 9.189979 -0.000000
v 0.000001 9.189979 -4.796295
v -3.391492 5.798486 -0.000000
v -0.000000 5.798486 3.391493
v -0.000000 9.189979 4.796295
v -4.796294 9.189979 -0.000000
v -0.000000 5.798486 3.391493
v 3.391492 5.798486 0.000000
v 4.796294 9.189979 0.000000
v -0.000000 9.189979 4.796295
v 3.391492 5.798486 0.000000
v 0.000000 5.798486 -3.391493
v 0.000001 9.189979 -4.796295
v 4.796294 9.189979 0.000000
v 0.000001 9.189979 -4.796295
v -4.796294 9.189979 -0.000000
v -3.391492 12.581471 -0.000000
v 0.000000 12.581471 -3.391493
v -4.796294 9.189979 -0.000000
v -0.000000 9.189979 4.796295
v -0.000000 12.581471 3.391493
v -3.391492 12.581471 -0.000000
v -0.000000 9.189979 4.796295
v 4.796294 9.189979 0.000000
v 3.391492 12.581471 0.000000
v -0.000000 12.581471 3.391493
v 4.796294 9.189979 0.000000
v 0.000001 9.189979 -4.796295
v 0.000000 12.581471 -3.391493
v 3.391492 12.581471 0.000000
vn 0.0144 -0.9998 0.0144
vn 0.0144 -0.9998 -0.0144
vn -0.0144 -0.9998 -0.0144
vn -0.0144 -0.9998 0.0144
vn -0.1848 0.9652 -0.1848
vn -0.1848 0.9652 0.1848
vn 0.1848 0.9652 0.1848
vn 0.1848 0.9652 -0.1848
vn -0.2059 0.7457 -0.6337
vn -0.2038 0.7516 -0.6274
vn -0.3075 0.0989 -0.9464
vn -0.3076 0.0968 -0.9466
vn -0.6350 0.7725 -0.0000
vn -0.6351 0.7725 -0.0000
vn -0.9944 0.1054 -0.0000
vn -0.2038 0.7516 0.6273
vn -0.2059 0.7457 0.6337
vn -0.3076 0.0968 0.9466
vn -0.3075 0.0989 0.9464
vn 0.5737 0.7050 0.4168
vn 0.5769 0.7011 0.4191
vn 0.8061 0.0850 0.5857
vn 0.8060 0.0862 0.5856
vn 0.5769 0.7011 -0.4191
vn 0.5737 0.7050 -0.4168
vn 0.8060 0.0862 -0.5856
vn 0.8061 0.0850 -0.5857
vn -0.1840 0.8033 -0.5664
vn -0.5664 0.8241 -0.0000
vn -0.1840 0.8033 0.5664
vn 0.5238 0.7621 0.3806
vn 0.5238 0.7621 -0.3806
vn 0.8084 0.0391 -0.5873
vn 0.8084 0.0391 0.5873
vn -0.3087 0.0448 0.9501
vn -0.9988 0.0484 -0.0000
vn -0.3087 0.0448 -0.9501
vn -0.6786 -0.2811 -0.6786
vn -0.6786 -0.2811 0.6786
vn 0.6786 -0.2811 0.6786
vn 0.6786 -0.2811 -0.6786
vn -0.6786 0.2811 -0.6786
vn -0.6786 0.2811 0.6786
vn 0.6786 0.2811 0.6786
vn 0.6786 0.2811 -0.6786
vt 0.664487 0.363772
vt 0.516091 0.363771
vt 0.604686 0.465229
vt 0.848457 0.363772
vt 0.769207 0.465229
vt 0.367695 0.363772
vt 0.183726 0.363771
vt 0.260207 0.465229
vt 0.424728 0.465229
vt 0.516091 0.110663
vt 0.664487 0.110664
vt 0.600552 0.021664
vt 0.848457 0.110664
vt 0.754982 0.021664
vt 0.183726 0.110663
vt 0.367695 0.110664
vt 0.277200 0.021664
vt 0.431630 0.021664
vt 0.223350 0.854293
vt 0.251587 0.945082
vt 0.325506 0.928734
vt 0.318523 0.835039
vt 0.264580 0.489857
vt 0.227242 0.594002
vt 0.322861 0.605424
vt 0.336522 0.510034
vt 0.213867 0.685196
vt 0.317800 0.688789
vt 0.214316 0.767217
vt 0.318788 0.765562
vt 0.134962 0.875715
vt 0.163927 0.968503
vt 0.198637 0.459206
vt 0.134793 0.578373
vt 0.122142 0.679619
vt 0.123174 0.767700
vt 0.872687 0.818377
vt 0.872521 0.761570
vt 0.872181 0.704763
vt 0.875776 0.638036
vt 0.882381 0.568163
vt 0.874243 0.885088
vt 0.663994 0.237218
vt 0.516091 0.237218
vt 0.850192 0.237218
vt 0.368188 0.237218
vt 0.181990 0.237218
s 0
usemtl tree.mtl
f 1/1/1 2/2/1 3/3/1
f 4/4/2 5/1/2 6/5/2
f 7/6/3 8/7/3 9/8/3
f 10/2/4 11/6/4 12/9/4
f 13/10/5 14/11/5 15/12/5
f 16/11/6 17/13/6 18/14/6
f 19/15/7 20/16/7 21/17/7
f 22/16/8 23/10/8 24/18/8
s 1
f 25/19/9 26/20/10 27/21/11
f 25/19/9 27/21/11 28/22/12
f 29/23/13 30/24/14 31/25/15
f 29/23/13 31/25/15 32/26/15
f 33/24/16 34/27/17 35/28/18
f 33/24/16 35/28/18 36/25/19
f 37/27/20 38/29/21 39/30/22
f 37/27/20 39/30/22 40/28/23
f 41/29/24 42/19/25 43/22/26
f 41/29/24 43/22/26 44/30/27
f 45/31/28 46/32/28 26/20/10
f 45/31/28 26/20/10 25/19/9
f 47/33/29 48/34/29 30/24/14
f 47/33/29 30/24/14 29/23/13
f 49/34/30 50/35/30 34/27/17
f 49/34/30 34/27/17 33/24/16
f 51/35/31 52/36/31 38/29/21
f 51/35/31 38/29/21 37/27/20
f 53/36/32 54/31/32 42/19/25
f 53/36/32 42/19/25 41/29/24
f 44/30/27 43/22/26 55/37/33
f 44/30/27 55/37/33 56/38/33
f 40/28/23 39/30/22 57/38/34
f 40/28/23 57/38/34 58/39/34
f 36/25/19 35/28/18 59/39/35
f 36/25/19 59/39/35 60/40/35
f 32/26/15 31/25/15 61/40/36
f 32/26/15 61/40/36 62/41/36
f 28/22/12 27/21/11 63/42/37
f 28/22/12 63/42/37 64/37/37
s 0
f 65/2/38 66/1/38 67/43/38
f 65/2/38 67/43/38 68/44/38
f 69/1/39 70/4/39 71/45/39
f 69/1/39 71/45/39 72/43/39
s 1
f 73/7/40 74/6/40 75/46/40
f 73/7/40 75/46/40 76/47/40
s 0
f 77/6/41 78/2/41 79/44/41
f 77/6/41 79/44/41 80/46/41
f 81/44/42 82/43/42 83/11/42
f 81/44/42 83/11/42 84/10/42
f 85/43/43 86/45/43 87/13/43
f 85/43/43 87/13/43 88/11/43
f 89/47/44 90/46/44 91/16/44
f 89/47/44 91/16/44 92/15/44
f 93/46/45 94/44/45 95/10/45
s 1
f 93/46/45 95/10/45 96/16/45
