# Blender 4.5.4 LTS
# www.blender.org
mtllib tree5_leaves.mtl
o Lowpoly_Tree_15_Material.001_0
v -0.433450 1.450333 -0.019133
v -0.543442 1.613484 -0.361288
v -0.452217 1.281578 -0.414439
v -0.452217 1.281578 -0.414439
v -0.415786 1.655507 -0.600364
v -0.285875 1.314624 -0.656303
v 0.206604 1.919905 -0.170419
v 0.264329 1.736091 0.025841
v 0.378837 1.578249 -0.315949
v 0.106272 1.616386 -0.661637
v 0.378837 1.578249 -0.315949
v 0.158834 1.304175 -0.541028
v -0.016582 1.894168 -0.470282
v 0.206604 1.919905 -0.170419
v 0.106272 1.616386 -0.661637
v 0.378837 1.578249 -0.315949
v 0.290031 1.393243 -0.063265
v 0.158834 1.304175 -0.541028
v 0.264329 1.736091 0.025841
v -0.026561 1.532385 0.193629
v 0.290031 1.393243 -0.063265
v 0.206604 1.919905 -0.170419
v -0.042763 1.818372 0.125467
v 0.264329 1.736091 0.025841
v 0.290031 1.393243 -0.063265
v -0.026561 1.532385 0.193629
v -0.203050 1.265733 -0.035346
v 0.290031 1.393243 -0.063265
v -0.203050 1.265733 -0.035346
v -0.160532 1.182628 -0.388707
v -0.285875 1.314624 -0.656303
v -0.160532 1.182628 -0.388707
v -0.452217 1.281578 -0.414439
v 0.158834 1.304175 -0.541028
v -0.160532 1.182628 -0.388707
v -0.285875 1.314624 -0.656303
v -0.160532 1.182628 -0.388707
v -0.203050 1.265733 -0.035346
v -0.452217 1.281578 -0.414439
v -0.016582 1.894168 -0.470282
v -0.227929 1.919773 -0.130208
v 0.206604 1.919905 -0.170419
v -0.415786 1.655507 -0.600364
v -0.543442 1.613484 -0.361288
v -0.227929 1.919773 -0.130208
v -0.227929 1.919773 -0.130208
v -0.365107 1.701393 0.081203
v -0.042763 1.818372 0.125467
v -0.227929 1.919773 -0.130208
v -0.042763 1.818372 0.125467
v 0.206604 1.919905 -0.170419
v -0.433450 1.450333 -0.019133
v -0.365107 1.701393 0.081203
v -0.543442 1.613484 -0.361288
v -0.452217 1.281578 -0.414439
v -0.543442 1.613484 -0.361288
v -0.415786 1.655507 -0.600364
v -0.203050 1.265733 -0.035346
v -0.433450 1.450333 -0.019133
v -0.452217 1.281578 -0.414439
v -0.285875 1.314624 -0.656303
v -0.415786 1.655507 -0.600364
v 0.106272 1.616386 -0.661637
v -0.415786 1.655507 -0.600364
v -0.016582 1.894168 -0.470282
v 0.106272 1.616386 -0.661637
v 0.158834 1.304175 -0.541028
v -0.285875 1.314624 -0.656303
v 0.106272 1.616386 -0.661637
v 0.378837 1.578249 -0.315949
v 0.264329 1.736091 0.025841
v 0.290031 1.393243 -0.063265
v 0.106272 1.616386 -0.661637
v 0.206604 1.919905 -0.170419
v 0.378837 1.578249 -0.315949
v -0.026561 1.532385 0.193629
v -0.042763 1.818372 0.125467
v -0.365107 1.701393 0.081203
v 0.264329 1.736091 0.025841
v -0.042763 1.818372 0.125467
v -0.026561 1.532385 0.193629
v -0.026561 1.532385 0.193629
v -0.365107 1.701393 0.081203
v -0.433450 1.450333 -0.019133
v -0.203050 1.265733 -0.035346
v -0.026561 1.532385 0.193629
v -0.433450 1.450333 -0.019133
v 0.158834 1.304175 -0.541028
v 0.290031 1.393243 -0.063265
v -0.160532 1.182628 -0.388707
v -0.016582 1.894168 -0.470282
v -0.415786 1.655507 -0.600364
v -0.227929 1.919773 -0.130208
v -0.227929 1.919773 -0.130208
v -0.543442 1.613484 -0.361288
v -0.365107 1.701393 0.081203
v 0.236287 0.984076 0.414462
v 0.213626 1.060772 0.361739
v 0.245838 0.941660 0.324343
v 0.264440 1.122840 0.385019
v 0.213626 1.060772 0.361739
v 0.267654 1.052140 0.456688
v 0.236287 1.078830 0.270772
v 0.267654 1.010766 0.228546
v 0.245838 0.941660 0.324343
v 0.328731 1.130370 0.251635
v 0.385365 1.022186 0.204247
v 0.267654 1.010766 0.228546
v 0.245838 0.941660 0.324343
v 0.267654 1.010766 0.228546
v 0.331135 0.923970 0.278122
v 0.328731 1.130370 0.251635
v 0.437790 1.124723 0.301493
v 0.385365 1.022186 0.204247
v 0.385365 1.022186 0.204247
v 0.437790 1.124723 0.301493
v 0.481511 1.040327 0.278838
v 0.385365 1.022186 0.204247
v 0.420176 0.938784 0.282542
v 0.331135 0.923970 0.278122
v 0.481511 1.040327 0.278838
v 0.437790 1.124723 0.301493
v 0.451642 1.082283 0.428080
v 0.451642 1.082283 0.428080
v 0.408127 1.037601 0.477229
v 0.463352 0.965318 0.368273
v 0.408127 1.037601 0.477229
v 0.355656 1.127826 0.429013
v 0.267654 1.052140 0.456688
v 0.267654 1.052140 0.456688
v 0.236287 0.984076 0.414462
v 0.363455 0.947395 0.452403
v 0.420176 0.938784 0.282542
v 0.463352 0.965318 0.368273
v 0.363455 0.947395 0.452403
v 0.328731 1.130370 0.251635
v 0.355656 1.127826 0.429013
v 0.437790 1.124723 0.301493
v 0.328731 1.130370 0.251635
v 0.264440 1.122840 0.385019
v 0.355656 1.127826 0.429013
v 0.236287 1.078830 0.270772
v 0.264440 1.122840 0.385019
v 0.328731 1.130370 0.251635
v 0.355656 1.127826 0.429013
v 0.451642 1.082283 0.428080
v 0.437790 1.124723 0.301493
v 0.213626 1.060772 0.361739
v 0.236287 1.078830 0.270772
v 0.245838 0.941660 0.324343
v 0.267654 1.052140 0.456688
v 0.213626 1.060772 0.361739
v 0.236287 0.984076 0.414462
v 0.213626 1.060772 0.361739
v 0.264440 1.122840 0.385019
v 0.236287 1.078830 0.270772
v 0.236287 1.078830 0.270772
v 0.328731 1.130370 0.251635
v 0.267654 1.010766 0.228546
v 0.385365 1.022186 0.204247
v 0.481511 1.040327 0.278838
v 0.420176 0.938784 0.282542
v 0.331135 0.923970 0.278122
v 0.267654 1.010766 0.228546
v 0.385365 1.022186 0.204247
v 0.481511 1.040327 0.278838
v 0.451642 1.082283 0.428080
v 0.463352 0.965318 0.368273
v 0.463352 0.965318 0.368273
v 0.408127 1.037601 0.477229
v 0.363455 0.947395 0.452403
v 0.420176 0.938784 0.282542
v 0.481511 1.040327 0.278838
v 0.463352 0.965318 0.368273
v 0.408127 1.037601 0.477229
v 0.267654 1.052140 0.456688
v 0.363455 0.947395 0.452403
v 0.451642 1.082283 0.428080
v 0.355656 1.127826 0.429013
v 0.408127 1.037601 0.477229
v 0.267654 1.052140 0.456688
v 0.355656 1.127826 0.429013
v 0.264440 1.122840 0.385019
v 0.331135 0.923970 0.278122
v 0.363455 0.947395 0.452403
v 0.245838 0.941660 0.324343
v 0.331135 0.923970 0.278122
v 0.420176 0.938784 0.282542
v 0.363455 0.947395 0.452403
v 0.245838 0.941660 0.324343
v 0.363455 0.947395 0.452403
v 0.236287 0.984076 0.414462
vn -0.9436 -0.2861 0.1669
vn -0.7924 -0.2079 -0.5734
vn 0.9059 0.4076 0.1153
vn 0.7745 -0.1102 -0.6229
vn 0.6062 0.6153 -0.5040
vn 0.8203 -0.5590 -0.1210
vn 0.5768 -0.1647 0.8001
vn 0.3801 0.7282 0.5702
vn 0.2226 -0.7157 0.6620
vn 0.2557 -0.9338 0.2504
vn -0.2796 -0.9065 -0.3162
vn 0.1036 -0.8719 -0.4786
vn -0.3302 -0.9269 0.1783
vn -0.0077 0.9968 -0.0798
vn -0.6088 0.7703 -0.1897
vn -0.3502 0.7557 0.5534
vn 0.0320 0.9368 0.3484
vn -0.9292 0.1122 0.3522
vn -0.8592 -0.1582 -0.4866
vn -0.5720 -0.7442 0.3449
vn -0.1067 0.1213 -0.9869
vn -0.0567 0.5493 -0.8337
vn 0.2310 -0.3165 -0.9200
vn 0.9463 -0.0130 0.3230
vn 0.6846 0.5492 -0.4792
vn -0.2092 0.2155 0.9538
vn 0.3565 0.2357 0.9041
vn -0.4115 -0.2394 0.8794
vn -0.3281 -0.4810 0.8130
vn 0.3826 -0.9215 0.0667
vn -0.4080 0.8558 -0.3180
vn -0.7487 0.6395 0.1747
vn -0.9631 -0.2680 0.0241
vn -0.7603 0.4450 0.4731
vn -0.9134 -0.2017 -0.3535
vn -0.2205 0.2922 -0.9306
vn -0.4566 -0.6690 -0.5865
vn 0.3752 0.5296 -0.7607
vn 0.4911 0.4540 -0.7434
vn 0.1445 -0.6445 -0.7508
vn 0.8924 0.4482 0.0526
vn 0.8159 -0.1964 0.5438
vn -0.0869 0.4297 0.8988
vn -0.3614 -0.3656 0.8578
vn 0.2921 -0.9453 0.1455
vn 0.0485 0.9988 0.0070
vn -0.0663 0.9975 0.0244
vn -0.5082 0.8382 -0.1977
vn 0.4173 0.8744 0.2475
vn -0.9475 -0.1714 -0.2701
vn -0.8623 0.0880 0.4987
vn -0.7609 0.6459 -0.0613
vn -0.3761 0.3571 -0.8550
vn 0.6088 -0.3929 -0.6892
vn -0.1161 -0.5553 -0.8235
vn 0.9804 -0.0025 0.1969
vn 0.6146 -0.4772 0.6281
vn 0.8229 -0.5064 -0.2577
vn -0.1611 -0.1869 0.9691
vn 0.2798 0.5740 0.7696
vn -0.3563 0.6571 0.6642
vn -0.1199 -0.9808 0.1541
vn 0.1583 -0.9820 0.1026
vn -0.3572 -0.8591 0.3665
vt 0.471364 0.971620
vt 0.556249 0.842109
vt 0.409063 0.837297
vt 0.562285 0.724918
vt 0.412207 0.706901
vt 0.622424 0.357353
vt 0.527679 0.279938
vt 0.465524 0.407362
vt 0.512537 0.562142
vt 0.327932 0.476462
vt 0.701905 0.476018
vt 0.375773 0.306521
vt 0.466683 0.136730
vt 0.593260 0.154422
vt 0.375000 0.224602
vt 0.375000 0.056222
vt 0.180513 0.279402
vt 0.201590 0.405154
vt 0.154011 0.500000
vt 0.125000 0.412444
vt 0.780476 0.340138
vt 0.837781 0.481810
vt 0.875000 0.400039
vt 0.853974 0.272312
vt 0.725663 0.250000
vt 0.602707 0.977688
vt 0.375000 0.964935
vt 0.625000 0.589271
vt 0.375000 0.570553
vt 0.580485 0.036502
vt 0.473287 -0.000000
vt 0.429796 0.961568
vt 0.538561 0.894460
vt 0.393365 0.841292
vt 0.625000 0.915327
vt 0.526592 1.000000
vt 0.570204 0.788432
vt 0.471683 0.720032
vt 0.591639 0.654865
vt 0.489057 0.588250
vt 0.375000 0.652945
vt 0.625000 0.499539
vt 0.650805 0.422640
vt 0.509106 0.443166
vt 0.375000 0.530091
vt 0.586892 0.273652
vt 0.502145 0.185610
vt 0.408361 0.345135
vt 0.625000 0.097055
vt 0.528317 0.029968
vt 0.397732 -0.000000
vt 0.392057 0.156113
vt 0.338592 0.452265
vt 0.267866 0.264111
vt 0.774863 0.465178
vt 0.748715 0.280535
vt 0.853028 0.323464
vt 0.875000 0.469909
vt 0.625000 0.219909
vt 0.625000 -0.000000
vt 0.226566 0.449029
vt 0.142141 0.418584
vt 0.125000 0.280090
s 0
usemtl Material.002
f 1/1/1 2/2/1 3/3/1
f 4/3/2 5/4/2 6/5/2
s 1
f 7/6/3 8/7/3 9/8/3
f 10/9/4 11/8/4 12/10/4
s 0
f 13/11/5 14/6/5 15/9/5
f 16/8/6 17/12/6 18/10/6
f 19/7/7 20/13/7 21/12/7
s 1
f 22/6/8 23/14/8 24/7/8
s 0
f 25/15/9 26/13/9 27/16/9
f 28/12/10 29/17/10 30/18/10
f 31/19/11 32/18/11 33/20/11
f 34/10/12 35/18/12 36/19/12
f 37/18/13 38/17/13 39/20/13
f 40/11/14 41/21/14 42/6/14
f 43/22/15 44/23/15 45/21/15
f 46/21/16 47/24/16 48/25/16
f 49/21/17 50/25/17 51/6/17
f 52/1/18 53/26/18 54/2/18
f 55/3/19 56/2/19 57/4/19
f 58/27/20 59/1/20 60/3/20
f 61/5/21 62/4/21 63/9/21
f 64/4/22 65/28/22 66/9/22
f 67/29/23 68/5/23 69/9/23
f 70/8/24 71/7/24 72/12/24
f 73/9/25 74/6/25 75/8/25
f 76/13/26 77/14/26 78/30/26
f 79/7/27 80/14/27 81/13/27
f 82/13/28 83/30/28 84/31/28
f 85/16/29 86/13/29 87/31/29
f 88/10/30 89/12/30 90/18/30
f 91/11/31 92/22/31 93/21/31
f 94/21/32 95/23/32 96/24/32
f 97/32/33 98/33/33 99/34/33
f 100/35/34 101/33/34 102/36/34
s 1
f 103/37/35 104/38/35 105/34/35
s 0
f 106/39/36 107/40/36 108/38/36
f 109/34/37 110/38/37 111/41/37
f 112/39/38 113/42/38 114/40/38
f 115/40/39 116/43/39 117/44/39
f 118/40/40 119/45/40 120/41/40
s 1
f 121/44/41 122/43/41 123/46/41
f 124/46/42 125/47/42 126/48/42
s 0
f 127/47/43 128/49/43 129/50/43
f 130/50/44 131/51/44 132/52/44
f 133/53/45 134/48/45 135/54/45
f 136/55/46 137/56/46 138/43/46
f 139/55/47 140/57/47 141/56/47
f 142/58/48 143/57/48 144/55/48
f 145/56/49 146/46/49 147/43/49
f 148/33/50 149/37/50 150/34/50
f 151/36/51 152/33/51 153/32/51
f 154/33/52 155/35/52 156/37/52
f 157/37/53 158/39/53 159/38/53
f 160/40/54 161/44/54 162/53/54
f 163/41/55 164/38/55 165/40/55
f 166/44/56 167/46/56 168/48/56
f 169/48/57 170/47/57 171/54/57
f 172/53/58 173/44/58 174/48/58
f 175/47/59 176/50/59 177/52/59
f 178/59/60 179/49/60 180/47/60
f 181/50/61 182/49/61 183/60/61
f 184/61/62 185/54/62 186/62/62
f 187/61/63 188/53/63 189/54/63
f 190/62/64 191/54/64 192/63/64
o Lowpoly_Tree_15_Material.002_0
v -0.721846 0.883238 -0.087949
v -0.663106 1.002142 -0.240439
v -0.677950 0.845846 -0.246126
v -0.621089 0.875837 0.052766
v -0.721846 0.883238 -0.087949
v -0.620262 0.761299 -0.137570
v -0.624086 1.031494 -0.007902
v -0.721846 0.883238 -0.087949
v -0.621089 0.875837 0.052766
v -0.721846 0.883238 -0.087949
v -0.677950 0.845846 -0.246126
v -0.620262 0.761299 -0.137570
v -0.663106 1.002142 -0.240439
v -0.586610 0.928055 -0.317028
v -0.677950 0.845846 -0.246126
v -0.586610 0.928055 -0.317028
v -0.437920 1.018705 -0.252776
v -0.419288 0.924098 -0.286020
v -0.350183 0.883238 -0.167146
v -0.411466 1.016112 -0.024111
v -0.379809 0.887038 -0.016954
v -0.437920 1.018705 -0.252776
v -0.350183 0.883238 -0.167146
v -0.419288 0.924098 -0.286020
v -0.460900 0.792558 -0.251553
v -0.350183 0.883238 -0.167146
v -0.448334 0.784573 -0.033856
v -0.411466 1.016112 -0.024111
v -0.483357 0.928474 0.063063
v -0.379809 0.887038 -0.016954
v -0.483357 0.928474 0.063063
v -0.624086 1.031494 -0.007902
v -0.621089 0.875837 0.052766
v -0.448334 0.784573 -0.033856
v -0.621089 0.875837 0.052766
v -0.620262 0.761299 -0.137570
v -0.575943 1.070585 -0.167477
v -0.411466 1.016112 -0.024111
v -0.391691 1.032455 -0.156185
v -0.437920 1.018705 -0.252776
v -0.575943 1.070585 -0.167477
v -0.391691 1.032455 -0.156185
v -0.663106 1.002142 -0.240439
v -0.575943 1.070585 -0.167477
v -0.437920 1.018705 -0.252776
v -0.721846 0.883238 -0.087949
v -0.695625 1.011717 -0.115574
v -0.663106 1.002142 -0.240439
v -0.624086 1.031494 -0.007902
v -0.695625 1.011717 -0.115574
v -0.721846 0.883238 -0.087949
v -0.586610 0.928055 -0.317028
v -0.419288 0.924098 -0.286020
v -0.460900 0.792558 -0.251553
v -0.663106 1.002142 -0.240439
v -0.437920 1.018705 -0.252776
v -0.586610 0.928055 -0.317028
v -0.677950 0.845846 -0.246126
v -0.586610 0.928055 -0.317028
v -0.460900 0.792558 -0.251553
v -0.350183 0.883238 -0.167146
v -0.391691 1.032455 -0.156185
v -0.411466 1.016112 -0.024111
v -0.460900 0.792558 -0.251553
v -0.419288 0.924098 -0.286020
v -0.350183 0.883238 -0.167146
v -0.437920 1.018705 -0.252776
v -0.391691 1.032455 -0.156185
v -0.350183 0.883238 -0.167146
v -0.350183 0.883238 -0.167146
v -0.379809 0.887038 -0.016954
v -0.448334 0.784573 -0.033856
v -0.448334 0.784573 -0.033856
v -0.379809 0.887038 -0.016954
v -0.483357 0.928474 0.063063
v -0.411466 1.016112 -0.024111
v -0.624086 1.031494 -0.007902
v -0.483357 0.928474 0.063063
v -0.448334 0.784573 -0.033856
v -0.483357 0.928474 0.063063
v -0.621089 0.875837 0.052766
v -0.620262 0.761299 -0.137570
v -0.460900 0.792558 -0.251553
v -0.448334 0.784573 -0.033856
v -0.677950 0.845846 -0.246126
v -0.460900 0.792558 -0.251553
v -0.620262 0.761299 -0.137570
v -0.575943 1.070585 -0.167477
v -0.624086 1.031494 -0.007902
v -0.411466 1.016112 -0.024111
v -0.663106 1.002142 -0.240439
v -0.695625 1.011717 -0.115574
v -0.575943 1.070585 -0.167477
v -0.575943 1.070585 -0.167477
v -0.695625 1.011717 -0.115574
v -0.624086 1.031494 -0.007902
v -0.137346 1.382433 0.146884
v -0.038242 1.583043 -0.110391
v -0.063287 1.319347 -0.119986
v 0.032646 1.369947 0.384294
v -0.137346 1.382433 0.146884
v 0.034042 1.176702 0.063166
v 0.027591 1.632565 0.281937
v -0.137346 1.382433 0.146884
v 0.032646 1.369947 0.384294
v -0.137346 1.382433 0.146884
v -0.063287 1.319347 -0.119986
v 0.034042 1.176702 0.063166
v -0.038242 1.583043 -0.110391
v 0.090818 1.458047 -0.239609
v -0.063287 1.319347 -0.119986
v 0.090818 1.458047 -0.239609
v 0.341683 1.610988 -0.131206
v 0.373118 1.451370 -0.187295
v 0.489709 1.382433 0.013265
v 0.386315 1.606613 0.254590
v 0.439725 1.388843 0.266665
v 0.341683 1.610988 -0.131206
v 0.489709 1.382433 0.013265
v 0.373118 1.451370 -0.187295
v 0.302911 1.229441 -0.129143
v 0.489709 1.382433 0.013265
v 0.324112 1.215968 0.238148
v 0.386315 1.606613 0.254590
v 0.265024 1.458753 0.401666
v 0.439725 1.388843 0.266665
v 0.265024 1.458753 0.401666
v 0.027591 1.632565 0.281937
v 0.032646 1.369947 0.384294
v 0.324112 1.215968 0.238148
v 0.032646 1.369947 0.384294
v 0.034042 1.176702 0.063166
v 0.108815 1.698519 0.012708
v 0.386315 1.606613 0.254590
v 0.419679 1.634187 0.031759
v 0.341683 1.610988 -0.131206
v 0.108815 1.698519 0.012708
v 0.419679 1.634187 0.031759
v -0.038242 1.583043 -0.110391
v 0.108815 1.698519 0.012708
v 0.341683 1.610988 -0.131206
v -0.137346 1.382433 0.146884
v -0.093107 1.599198 0.100277
v -0.038242 1.583043 -0.110391
v 0.027591 1.632565 0.281937
v -0.093107 1.599198 0.100277
v -0.137346 1.382433 0.146884
v 0.090818 1.458047 -0.239609
v 0.373118 1.451370 -0.187295
v 0.302911 1.229441 -0.129143
v -0.038242 1.583043 -0.110391
v 0.341683 1.610988 -0.131206
v 0.090818 1.458047 -0.239609
v -0.063287 1.319347 -0.119986
v 0.090818 1.458047 -0.239609
v 0.302911 1.229441 -0.129143
v 0.489709 1.382433 0.013265
v 0.419679 1.634187 0.031759
v 0.386315 1.606613 0.254590
v 0.302911 1.229441 -0.129143
v 0.373118 1.451370 -0.187295
v 0.489709 1.382433 0.013265
v 0.341683 1.610988 -0.131206
v 0.419679 1.634187 0.031759
v 0.489709 1.382433 0.013265
v 0.489709 1.382433 0.013265
v 0.439725 1.388843 0.266665
v 0.324112 1.215968 0.238148
v 0.324112 1.215968 0.238148
v 0.439725 1.388843 0.266665
v 0.265024 1.458753 0.401666
v 0.386315 1.606613 0.254590
v 0.027591 1.632565 0.281937
v 0.265024 1.458753 0.401666
v 0.324112 1.215968 0.238148
v 0.265024 1.458753 0.401666
v 0.032646 1.369947 0.384294
v 0.034042 1.176702 0.063166
v 0.302911 1.229441 -0.129143
v 0.324112 1.215968 0.238148
v -0.063287 1.319347 -0.119986
v 0.302911 1.229441 -0.129143
v 0.034042 1.176702 0.063166
v 0.108815 1.698519 0.012708
v 0.027591 1.632565 0.281937
v 0.386315 1.606613 0.254590
v -0.038242 1.583043 -0.110391
v -0.093107 1.599198 0.100277
v 0.108815 1.698519 0.012708
v 0.108815 1.698519 0.012708
v -0.093107 1.599198 0.100277
v 0.027591 1.632565 0.281937
v -0.158307 1.187067 0.462820
v -0.056122 1.358166 0.243393
v -0.081946 1.133262 0.235210
v 0.016969 1.176418 0.665305
v -0.158307 1.187067 0.462820
v 0.018408 1.011601 0.391418
v 0.011756 1.400403 0.578006
v -0.158307 1.187067 0.462820
v 0.016969 1.176418 0.665305
v -0.158307 1.187067 0.462820
v -0.081946 1.133262 0.235210
v 0.018408 1.011601 0.391418
v -0.056122 1.358166 0.243393
v 0.076949 1.251558 0.133184
v -0.081946 1.133262 0.235210
v 0.076949 1.251558 0.133184
v 0.335610 1.382000 0.225641
v 0.368022 1.245863 0.177803
v 0.488237 1.187067 0.348859
v 0.381630 1.378269 0.554682
v 0.436700 1.192535 0.564981
v 0.335610 1.382000 0.225641
v 0.488237 1.187067 0.348859
v 0.368022 1.245863 0.177803
v 0.295634 1.056582 0.227400
v 0.488237 1.187067 0.348859
v 0.317494 1.045091 0.540659
v 0.381630 1.378269 0.554682
v 0.256569 1.252160 0.680122
v 0.436700 1.192535 0.564981
v 0.256569 1.252160 0.680122
v 0.011756 1.400403 0.578006
v 0.016969 1.176418 0.665305
v 0.317494 1.045091 0.540659
v 0.016969 1.176418 0.665305
v 0.018408 1.011601 0.391418
v 0.095505 1.456654 0.348383
v 0.381630 1.378269 0.554682
v 0.416031 1.401786 0.364631
v 0.335610 1.382000 0.225641
v 0.095505 1.456654 0.348383
v 0.416031 1.401786 0.364631
v -0.056122 1.358166 0.243393
v 0.095505 1.456654 0.348383
v 0.335610 1.382000 0.225641
v -0.158307 1.187067 0.462820
v -0.112693 1.371944 0.423070
v -0.056122 1.358166 0.243393
v 0.011756 1.400403 0.578006
v -0.112693 1.371944 0.423070
v -0.158307 1.187067 0.462820
v 0.076949 1.251558 0.133184
v 0.368022 1.245863 0.177803
v 0.295634 1.056582 0.227400
v -0.056122 1.358166 0.243393
v 0.335610 1.382000 0.225641
v 0.076949 1.251558 0.133184
v -0.081946 1.133262 0.235210
v 0.076949 1.251558 0.133184
v 0.295634 1.056582 0.227400
v 0.488237 1.187067 0.348859
v 0.416031 1.401786 0.364631
v 0.381630 1.378269 0.554682
v 0.295634 1.056582 0.227400
v 0.368022 1.245863 0.177803
v 0.488237 1.187067 0.348859
v 0.335610 1.382000 0.225641
v 0.416031 1.401786 0.364631
v 0.488237 1.187067 0.348859
v 0.488237 1.187067 0.348859
v 0.436700 1.192535 0.564981
v 0.317494 1.045091 0.540659
v 0.317494 1.045091 0.540659
v 0.436700 1.192535 0.564981
v 0.256569 1.252160 0.680122
v 0.381630 1.378269 0.554682
v 0.011756 1.400403 0.578006
v 0.256569 1.252160 0.680122
v 0.317494 1.045091 0.540659
v 0.256569 1.252160 0.680122
v 0.016969 1.176418 0.665305
v 0.018408 1.011601 0.391418
v 0.295634 1.056582 0.227400
v 0.317494 1.045091 0.540659
v -0.081946 1.133262 0.235210
v 0.295634 1.056582 0.227400
v 0.018408 1.011601 0.391418
v 0.095505 1.456654 0.348383
v 0.011756 1.400403 0.578006
v 0.381630 1.378269 0.554682
v -0.056122 1.358166 0.243393
v -0.112693 1.371944 0.423070
v 0.095505 1.456654 0.348383
v 0.095505 1.456654 0.348383
v -0.112693 1.371944 0.423070
v 0.011756 1.400403 0.578006
vn -0.9523 0.1009 -0.2881
vn -0.6149 -0.6769 0.4047
vn -0.7898 0.2095 0.5765
vn -0.7802 -0.6217 -0.0696
vn -0.6599 0.0898 -0.7460
vn 0.1783 0.3573 -0.9168
vn 0.9527 0.2437 0.1818
vn 0.8645 0.3095 -0.3962
vn 0.6617 -0.7469 -0.0656
vn 0.6479 0.1997 0.7351
vn -0.2029 0.3522 0.9137
vn -0.1910 -0.8414 0.5055
vn 0.1916 0.9701 0.1487
vn 0.2108 0.9486 -0.2359
vn -0.0913 0.7784 -0.6211
vn -0.9556 0.1392 -0.2596
vn -0.8233 0.2748 0.4966
vn 0.1670 -0.2990 -0.9395
vn -0.0896 0.6696 -0.7373
vn -0.1537 -0.5419 -0.8263
vn 0.9520 0.2521 0.1737
vn 0.7371 -0.3797 -0.5590
vn 0.8530 0.2701 -0.4467
vn 0.8052 -0.5671 0.1732
vn 0.4408 -0.4252 0.7905
vn 0.1044 0.6570 0.7466
vn 0.1398 -0.5295 0.8367
vn 0.1609 -0.9859 -0.0455
vn -0.2151 -0.8226 -0.5264
vn 0.0895 0.9608 0.2624
vn -0.4997 0.8440 -0.1948
vn -0.4035 0.9094 0.1010
vn -0.9324 0.1195 -0.3411
vn -0.5420 -0.7213 0.4312
vn -0.7290 0.2338 0.6433
vn -0.7181 -0.6917 -0.0774
vn -0.5878 0.0967 -0.8032
vn 0.1483 0.3591 -0.9214
vn 0.9330 0.2886 0.2152
vn 0.8181 0.3540 -0.4532
vn 0.5896 -0.8046 -0.0707
vn 0.5755 0.2144 0.7892
vn -0.1689 0.3545 0.9197
vn -0.1589 -0.8463 0.5084
vn 0.1595 0.9758 0.1496
vn 0.1756 0.9554 -0.2376
vn -0.0756 0.7794 -0.6219
vn -0.9371 0.1650 -0.3077
vn -0.7682 0.3100 0.5601
vn 0.1388 -0.3003 -0.9437
vn -0.0742 0.6705 -0.7382
vn -0.1276 -0.5439 -0.8294
vn 0.9321 0.2983 0.2056
vn 0.6699 -0.4171 -0.6142
vn 0.8039 0.3077 -0.5090
vn 0.7469 -0.6359 0.1942
vn 0.3763 -0.4388 0.8160
vn 0.0865 0.6581 0.7479
vn 0.1160 -0.5311 0.8393
vn 0.1336 -0.9900 -0.0456
vn -0.1793 -0.8287 -0.5302
vn 0.0741 0.9620 0.2627
vn -0.4306 0.8794 -0.2030
vn -0.3427 0.9337 0.1037
vt 0.471000 0.907761
vt 0.593314 0.749052
vt 0.427889 0.766185
vt 0.421285 1.000000
vt 0.375000 0.902945
vt 0.602268 0.980854
vt 0.510943 0.661750
vt 0.610070 0.520735
vt 0.501566 0.530994
vt 0.471000 0.407761
vt 0.619926 0.273194
vt 0.471683 0.279968
vt 0.643380 0.487425
vt 0.310551 0.471686
vt 0.327138 0.290085
vt 0.513744 0.172826
vt 0.613026 0.045933
vt 0.460692 0.057985
vt 0.155091 0.250000
vt 0.187342 0.376904
vt 0.783292 0.406039
vt 0.621822 0.387249
vt 0.844910 0.500000
vt 0.589732 0.880623
vt 0.378599 0.521326
vt 0.625000 0.219909
vt 0.375000 0.187064
vt 0.145462 0.480000
vt 0.829884 0.278805
vt 0.875000 0.402945
s 0
usemtl Material.006
f 193/64/65 194/65/65 195/66/65
f 196/67/66 197/64/66 198/68/66
f 199/69/67 200/64/67 201/67/67
f 202/64/68 203/66/68 204/68/68
f 205/65/69 206/70/69 207/66/69
f 208/70/70 209/71/70 210/72/70
s 1
f 211/73/71 212/74/71 213/75/71
s 0
f 214/76/72 215/73/72 216/72/72
f 217/77/73 218/73/73 219/78/73
s 1
f 220/74/74 221/79/74 222/75/74
s 0
f 223/79/75 224/80/75 225/81/75
f 226/78/76 227/82/76 228/83/76
f 229/84/77 230/74/77 231/85/77
f 232/76/78 233/84/78 234/85/78
f 235/86/79 236/84/79 237/76/79
f 238/64/80 239/87/80 240/65/80
f 241/69/81 242/87/81 243/64/81
f 244/70/82 245/72/82 246/88/82
f 247/65/83 248/71/83 249/70/83
f 250/66/84 251/70/84 252/88/84
f 253/73/85 254/85/85 255/74/85
f 256/77/86 257/72/86 258/73/86
f 259/76/87 260/85/87 261/73/87
f 262/73/88 263/75/88 264/78/88
f 265/78/89 266/75/89 267/79/89
f 268/89/90 269/80/90 270/79/90
f 271/90/91 272/79/91 273/81/91
f 274/83/92 275/77/92 276/78/92
f 277/91/93 278/77/93 279/83/93
f 280/84/94 281/92/94 282/74/94
f 283/86/95 284/93/95 285/84/95
f 286/84/96 287/93/96 288/92/96
f 289/64/65 290/65/65 291/66/65
f 292/67/66 293/64/66 294/68/66
f 295/69/67 296/64/67 297/67/67
f 298/64/68 299/66/68 300/68/68
f 301/65/69 302/70/69 303/66/69
f 304/70/70 305/71/70 306/72/70
f 307/73/71 308/74/71 309/75/71
f 310/76/72 311/73/72 312/72/72
s 1
f 313/77/73 314/73/73 315/78/73
s 0
f 316/74/74 317/79/74 318/75/74
f 319/79/75 320/80/75 321/81/75
f 322/78/76 323/82/76 324/83/76
f 325/84/77 326/74/77 327/85/77
f 328/76/78 329/84/78 330/85/78
f 331/86/79 332/84/79 333/76/79
f 334/64/80 335/87/80 336/65/80
f 337/69/81 338/87/81 339/64/81
f 340/70/82 341/72/82 342/88/82
f 343/65/83 344/71/83 345/70/83
f 346/66/84 347/70/84 348/88/84
f 349/73/85 350/85/85 351/74/85
f 352/77/86 353/72/86 354/73/86
f 355/76/87 356/85/87 357/73/87
f 358/73/88 359/75/88 360/78/88
f 361/78/89 362/75/89 363/79/89
f 364/89/90 365/80/90 366/79/90
f 367/90/91 368/79/91 369/81/91
f 370/83/92 371/77/92 372/78/92
f 373/91/93 374/77/93 375/83/93
f 376/84/94 377/92/94 378/74/94
f 379/86/95 380/93/95 381/84/95
f 382/84/96 383/93/96 384/92/96
f 385/64/97 386/65/97 387/66/97
f 388/67/98 389/64/98 390/68/98
f 391/69/99 392/64/99 393/67/99
f 394/64/100 395/66/100 396/68/100
f 397/65/101 398/70/101 399/66/101
f 400/70/102 401/71/102 402/72/102
f 403/73/103 404/74/103 405/75/103
f 406/76/104 407/73/104 408/72/104
f 409/77/105 410/73/105 411/78/105
f 412/74/106 413/79/106 414/75/106
f 415/79/107 416/80/107 417/81/107
f 418/78/108 419/82/108 420/83/108
f 421/84/109 422/74/109 423/85/109
f 424/76/110 425/84/110 426/85/110
f 427/86/111 428/84/111 429/76/111
f 430/64/112 431/87/112 432/65/112
f 433/69/113 434/87/113 435/64/113
f 436/70/114 437/72/114 438/88/114
f 439/65/115 440/71/115 441/70/115
f 442/66/116 443/70/116 444/88/116
f 445/73/117 446/85/117 447/74/117
f 448/77/118 449/72/118 450/73/118
f 451/76/119 452/85/119 453/73/119
f 454/73/120 455/75/120 456/78/120
f 457/78/121 458/75/121 459/79/121
f 460/89/122 461/80/122 462/79/122
f 463/90/123 464/79/123 465/81/123
f 466/83/124 467/77/124 468/78/124
f 469/91/125 470/77/125 471/83/125
f 472/84/126 473/92/126 474/74/126
f 475/86/127 476/93/127 477/84/127
f 478/84/128 479/93/128 480/92/128
