# Blender 4.5.4 LTS
# www.blender.org
mtllib tree5_log.mtl
o Lowpoly_Tree_15_Material_0
v -0.063032 0.445285 0.086264
v -0.046352 0.483610 0.062632
v -0.069832 0.510889 0.067154
v 0.025386 0.609316 -0.010340
v 0.024492 0.675266 -0.035417
v 0.056004 0.671624 0.005084
v 0.000707 0.617091 -0.021238
v 0.024492 0.675266 -0.035417
v 0.025386 0.609316 -0.010340
v 0.152245 0.934779 0.292001
v 0.153471 0.827040 0.204098
v 0.157355 0.815803 0.211905
v 0.161047 0.946531 0.273130
v 0.153471 0.827040 0.204098
v 0.152245 0.934779 0.292001
v 0.174266 0.966717 0.325152
v 0.171583 0.818711 0.222779
v 0.186684 0.823252 0.218262
v 0.073495 0.727704 0.018403
v 0.093909 0.718720 0.039898
v 0.056004 0.671624 0.005084
v 0.055163 0.265058 0.029212
v -0.086028 0.360674 0.083510
v 0.014229 0.261024 0.054630
v 0.192993 0.831658 0.204862
v 0.194518 0.825635 0.187305
v 0.182270 0.947535 0.283609
v 0.058459 0.698122 0.066227
v 0.038462 0.705064 0.056612
v 0.020334 0.654497 0.037071
v -0.063032 0.445285 0.086264
v -0.086028 0.360674 0.083510
v 0.055163 0.265058 0.029212
v -0.003337 0.349848 -0.052635
v -0.078349 0.394226 -0.044744
v -0.056973 0.444501 -0.031862
v -0.056973 0.444501 -0.031862
v -0.035215 0.450099 -0.009570
v -0.003337 0.349848 -0.052635
v 0.307098 0.965993 0.319782
v 0.315232 0.962615 0.322358
v 0.291041 0.905321 0.297972
v 0.307098 0.965993 0.319782
v 0.282433 0.909020 0.301384
v 0.278810 0.906349 0.310598
v 0.294792 0.897159 0.309197
v 0.291041 0.905321 0.297972
v 0.315232 0.962615 0.322358
v -0.341870 0.825561 -0.174376
v -0.345678 0.819992 -0.191338
v -0.316887 0.815614 -0.172780
v 0.291041 0.905321 0.297972
v 0.218196 0.820691 0.202292
v 0.194518 0.825635 0.187305
v 0.294792 0.897159 0.309197
v 0.174693 0.767988 0.175441
v 0.180264 0.768882 0.159703
v 0.144241 0.784115 0.122182
v 0.093909 0.718720 0.039898
v 0.073495 0.727704 0.018403
v 0.127308 0.783085 0.143500
v 0.054931 0.736511 0.032933
v 0.041144 0.728699 0.048363
v 0.167809 0.783641 0.195852
v 0.123098 0.766670 0.149587
v 0.058459 0.698122 0.066227
v 0.058459 0.698122 0.066227
v 0.071907 0.690147 0.054073
v 0.174693 0.767988 0.175441
v 0.028575 1.129405 0.023617
v 0.045272 1.114027 0.032422
v 0.032515 1.121116 0.015204
v 0.032515 1.121116 0.015204
v 0.016925 1.092954 0.023185
v 0.020636 1.118837 0.010637
v 0.180264 0.768882 0.159703
v 0.071907 0.690147 0.054073
v 0.056004 0.671624 0.005084
v -0.061249 0.248623 -0.050476
v -0.015277 0.214314 -0.089033
v -0.112493 -0.000000 -0.076771
v -0.029513 0.231326 0.045650
v 0.048720 0.000000 0.109972
v 0.014229 0.261024 0.054630
v -0.117774 0.000000 0.024110
v -0.063658 0.000000 0.094272
v -0.029513 0.231326 0.045650
v 0.048720 0.000000 0.109972
v 0.098094 0.000000 0.050315
v 0.066065 0.152342 0.020854
v 0.101028 0.000000 -0.035170
v 0.098094 0.000000 0.050315
v -0.004695 -0.000000 -0.008478
v -0.078349 0.394226 -0.044744
v -0.003337 0.349848 -0.052635
v -0.015277 0.214314 -0.089033
v -0.019627 0.444750 0.026350
v 0.055163 0.265058 0.029212
v 0.061450 0.268273 -0.030629
v 0.061450 0.268273 -0.030629
v 0.038874 0.212803 -0.083931
v -0.003337 0.349848 -0.052635
v -0.008890 0.641167 -0.014808
v -0.035270 0.622187 0.014257
v -0.017879 0.691957 -0.013674
v -0.008890 0.641167 -0.014808
v 0.000707 0.617091 -0.021238
v -0.036711 0.615588 -0.013801
v 0.056004 0.671624 0.005084
v 0.039170 0.648588 0.027978
v 0.027842 0.569100 0.027284
v -0.023966 1.314863 -0.147056
v -0.016238 1.311829 -0.152181
v -0.023137 1.311651 -0.153128
v -0.017322 1.313681 -0.145522
v -0.016238 1.311829 -0.152181
v -0.023966 1.314863 -0.147056
v -0.352171 1.297884 -0.248727
v -0.345749 1.298036 -0.241764
v -0.345530 1.298099 -0.250202
v 0.110089 1.234644 0.158247
v 0.113063 1.228432 0.165025
v 0.116156 1.231799 0.159957
v 0.106977 1.230244 0.162297
v 0.113063 1.228432 0.165025
v 0.110089 1.234644 0.158247
v -0.462355 0.820656 -0.136647
v -0.465327 0.803528 -0.144199
v -0.459021 0.808108 -0.133158
v -0.466199 0.816270 -0.148761
v -0.465327 0.803528 -0.144199
v -0.462355 0.820656 -0.136647
v -0.418589 0.908019 -0.289154
v -0.420027 0.893932 -0.301614
v -0.425333 0.897014 -0.290627
v -0.411165 0.903952 -0.299537
v -0.420027 0.893932 -0.301614
v -0.418589 0.908019 -0.289154
v 0.288607 1.096408 0.369247
v 0.296435 1.085437 0.382662
v 0.298048 1.086781 0.369244
v 0.285084 1.092955 0.381797
v 0.296435 1.085437 0.382662
v 0.288607 1.096408 0.369247
v 0.003849 1.067152 0.358278
v -0.008044 1.053088 0.354179
v -0.000376 1.055641 0.365118
v -0.001331 1.062902 0.347474
v -0.008044 1.053088 0.354179
v 0.003849 1.067152 0.358278
v -0.093222 0.930460 -0.075676
v -0.068701 0.991778 -0.017016
v -0.087938 0.981360 -0.104648
v 0.003934 0.725440 0.014532
v 0.038462 0.705064 0.056612
v 0.041144 0.728699 0.048363
v 0.003934 0.725440 0.014532
v 0.020334 0.654497 0.037071
v 0.038462 0.705064 0.056612
v 0.186684 0.823252 0.218262
v 0.171583 0.818711 0.222779
v 0.157355 0.815803 0.211905
v 0.098094 0.000000 0.050315
v 0.048720 0.000000 0.109972
v -0.004695 -0.000000 -0.008478
v -0.020158 0.558081 0.063961
v 0.027842 0.569100 0.027284
v 0.020334 0.654497 0.037071
v 0.020334 0.654497 0.037071
v 0.027842 0.569100 0.027284
v 0.039170 0.648588 0.027978
v 0.000707 0.617091 -0.021238
v 0.025386 0.609316 -0.010340
v -0.028436 0.580931 -0.042830
v -0.027470 0.488493 -0.003244
v 0.025386 0.609316 -0.010340
v 0.027842 0.569100 0.027284
v 0.056004 0.671624 0.005084
v 0.024492 0.675266 -0.035417
v 0.044977 0.702445 -0.023559
v 0.044977 0.702445 -0.023559
v 0.035024 0.739918 -0.023875
v 0.073495 0.727704 0.018403
v -0.020158 0.558081 0.063961
v -0.029732 0.600514 0.045076
v -0.069832 0.510889 0.067154
v 0.020334 0.654497 0.037071
v -0.029732 0.600514 0.045076
v -0.020158 0.558081 0.063961
v -0.072735 0.558982 -0.002299
v -0.073397 0.541111 0.040101
v -0.070358 0.582419 0.010981
v -0.056973 0.444501 -0.031862
v -0.078349 0.394226 -0.044744
v -0.061812 0.526114 -0.012951
v -0.061812 0.526114 -0.012951
v -0.078349 0.394226 -0.044744
v -0.110915 0.516499 0.009363
v -0.058488 0.551300 -0.025043
v -0.061812 0.526114 -0.012951
v -0.072735 0.558982 -0.002299
v 0.180264 0.768882 0.159703
v 0.093909 0.718720 0.039898
v 0.218196 0.820691 0.202292
v 0.218196 0.820691 0.202292
v 0.144241 0.784115 0.122182
v 0.194518 0.825635 0.187305
v -0.008890 0.641167 -0.014808
v 0.024492 0.675266 -0.035417
v 0.000707 0.617091 -0.021238
v -0.017879 0.691957 -0.013674
v -0.011811 0.721277 -0.049204
v -0.008890 0.641167 -0.014808
v 0.041144 0.728699 0.048363
v 0.054931 0.736511 0.032933
v 0.003934 0.725440 0.014532
v 0.054931 0.736511 0.032933
v 0.035024 0.739918 -0.023875
v 0.016853 0.755827 -0.014657
v 0.123098 0.766670 0.149587
v 0.167809 0.783641 0.195852
v 0.157355 0.815803 0.211905
v 0.174266 0.966717 0.325152
v 0.132349 0.973272 0.323634
v 0.152245 0.934779 0.292001
v 0.182270 0.947535 0.283609
v 0.161047 0.946531 0.273130
v 0.197391 0.992035 0.307897
v -0.074662 0.989151 -0.100720
v -0.055541 0.993190 -0.047659
v -0.055203 0.980344 -0.100885
v -0.098249 1.154203 -0.272611
v -0.091716 1.110227 -0.266610
v -0.123906 1.123216 -0.274678
v -0.091515 0.960123 -0.107421
v -0.093222 0.930460 -0.075676
v -0.087938 0.981360 -0.104648
v -0.055740 0.957224 -0.109919
v -0.058470 0.910264 -0.099458
v -0.075961 0.952885 -0.121479
v -0.070145 1.106606 -0.236902
v -0.079346 1.115265 -0.260657
v -0.079949 1.153997 -0.250111
v 0.199453 0.979849 0.317373
v 0.174266 0.966717 0.325152
v 0.182270 0.947535 0.283609
v -0.310306 0.813873 -0.197162
v -0.345678 0.819992 -0.191338
v -0.341761 0.836418 -0.218618
v 0.128862 0.980363 0.303953
v 0.152245 0.934779 0.292001
v 0.132349 0.973272 0.323634
v 0.142422 0.992331 0.327988
v 0.174266 0.966717 0.325152
v 0.184668 1.000851 0.332951
v 0.186684 0.823252 0.218262
v 0.157355 0.815803 0.211905
v 0.167809 0.783641 0.195852
v -0.128088 1.127943 -0.248501
v -0.102447 1.132121 -0.224907
v -0.095677 1.145710 -0.226988
v -0.128088 1.127943 -0.248501
v -0.120961 1.111545 -0.247685
v -0.102447 1.132121 -0.224907
v -0.102447 1.132121 -0.224907
v -0.120961 1.111545 -0.247685
v -0.094114 1.120455 -0.220965
v -0.058365 1.218221 -0.099581
v -0.055053 1.206804 -0.087373
v -0.049016 1.222962 -0.084103
v 0.016925 1.092954 0.023185
v 0.032515 1.121116 0.015204
v 0.024311 1.083805 0.031858
v 0.032515 1.121116 0.015204
v 0.045272 1.114027 0.032422
v 0.024311 1.083805 0.031858
v -0.318150 0.839539 -0.179791
v -0.341870 0.825561 -0.174376
v -0.316887 0.815614 -0.172780
v -0.128088 1.127943 -0.248501
v -0.104928 1.159048 -0.259119
v -0.121905 1.134806 -0.267097
v -0.332608 1.140381 -0.370549
v -0.333086 1.161309 -0.377388
v -0.320197 1.146001 -0.350626
v 0.034030 1.105142 0.043250
v 0.024311 1.083805 0.031858
v 0.045272 1.114027 0.032422
v -0.094917 1.155730 -0.247748
v -0.104928 1.159048 -0.259119
v -0.128088 1.127943 -0.248501
v -0.334879 1.159435 -0.342758
v -0.333086 1.161309 -0.377388
v -0.344717 1.165026 -0.372747
v -0.320197 1.146001 -0.350626
v -0.334879 1.159435 -0.342758
v -0.333805 1.144055 -0.343160
v -0.039069 1.238551 -0.102935
v -0.049016 1.222962 -0.084103
v -0.036582 1.220095 -0.086277
v -0.039069 1.238551 -0.102935
v -0.058365 1.218221 -0.099581
v -0.049016 1.222962 -0.084103
v -0.346990 0.840530 -0.197544
v -0.350088 0.846913 -0.214242
v -0.341761 0.836418 -0.218618
v -0.346990 0.840530 -0.197544
v -0.341761 0.836418 -0.218618
v -0.345678 0.819992 -0.191338
v 0.142422 0.992331 0.327988
v 0.140615 0.997310 0.309749
v 0.003849 1.067152 0.358278
v 0.003849 1.067152 0.358278
v -0.000376 1.055641 0.365118
v 0.142422 0.992331 0.327988
v -0.022241 0.481338 0.036153
v -0.046352 0.483610 0.062632
v -0.019627 0.444750 0.026350
v -0.110915 0.516499 0.009363
v -0.111247 0.528213 0.047445
v -0.073397 0.541111 0.040101
v -0.072735 0.558982 -0.002299
v -0.061812 0.526114 -0.012951
v -0.110915 0.516499 0.009363
v -0.418589 0.908019 -0.289154
v -0.350088 0.846913 -0.214242
v -0.320002 0.849155 -0.192891
v -0.425333 0.897014 -0.290627
v -0.420027 0.893932 -0.301614
v -0.350088 0.846913 -0.214242
v -0.058470 0.910264 -0.099458
v -0.008345 0.820908 -0.088767
v -0.025623 0.813001 -0.096827
v -0.051151 0.819469 -0.053143
v -0.031232 0.820549 -0.041931
v -0.058878 0.908377 -0.049372
v -0.058470 0.910264 -0.099458
v -0.044769 0.807416 -0.090318
v -0.091515 0.960123 -0.107421
v -0.058470 0.910264 -0.099458
v -0.041614 0.915026 -0.077489
v -0.008345 0.820908 -0.088767
v -0.002377 1.034994 0.052384
v -0.027484 1.024701 0.042699
v -0.018164 1.004708 0.044283
v -0.002377 1.034994 0.052384
v -0.000139 1.013560 0.033846
v 0.024311 1.083805 0.031858
v 0.015240 1.115349 0.036426
v 0.012721 1.106919 0.026551
v -0.027484 1.024701 0.042699
v -0.000139 1.013560 0.033846
v -0.015178 1.027630 0.024580
v 0.016925 1.092954 0.023185
v 0.027395 1.110931 0.045532
v -0.002377 1.034994 0.052384
v 0.034030 1.105142 0.043250
v 0.015240 1.115349 0.036426
v -0.002377 1.034994 0.052384
v 0.027395 1.110931 0.045532
v 0.031761 1.160488 -0.027486
v 0.023548 1.159594 -0.029275
v 0.022480 1.282834 -0.024844
v 0.019907 1.162570 -0.019936
v 0.026064 1.164569 -0.016240
v 0.014361 1.281953 -0.019690
v 0.023548 1.159594 -0.029275
v 0.019907 1.162570 -0.019936
v 0.014361 1.281953 -0.019690
v 0.014361 1.281953 -0.019690
v 0.022480 1.282834 -0.024844
v 0.023548 1.159594 -0.029275
v 0.022480 1.282834 -0.024844
v 0.014361 1.281953 -0.019690
v 0.032636 1.163700 -0.019348
v 0.113063 1.228432 0.165025
v 0.092278 1.145424 0.062613
v 0.100435 1.138399 0.061642
v 0.110089 1.234644 0.158247
v 0.104932 1.143477 0.053686
v 0.096580 1.150014 0.054097
v 0.116156 1.231799 0.159957
v 0.113063 1.228432 0.165025
v 0.104932 1.143477 0.053686
v 0.106977 1.230244 0.162297
v 0.110089 1.234644 0.158247
v 0.092278 1.145424 0.062613
v -0.070145 1.106606 -0.236902
v -0.055672 1.025128 -0.186246
v -0.030109 1.023001 -0.190055
v -0.093791 1.089135 -0.247654
v -0.091716 1.110227 -0.266610
v -0.053735 1.003636 -0.205841
v -0.079346 1.115265 -0.260657
v -0.070145 1.106606 -0.236902
v -0.029502 1.007539 -0.203860
v -0.078957 1.121608 -0.228217
v -0.090549 1.102615 -0.229980
v -0.070145 1.106606 -0.236902
v -0.320197 1.146001 -0.350626
v -0.263025 1.126011 -0.279747
v -0.256674 1.120780 -0.294455
v -0.333805 1.144055 -0.343160
v -0.263025 1.126011 -0.279747
v -0.320197 1.146001 -0.350626
v -0.333805 1.144055 -0.343160
v -0.267241 1.115375 -0.274572
v -0.263025 1.126011 -0.279747
v -0.333805 1.144055 -0.343160
v -0.329869 1.129383 -0.345608
v -0.267241 1.115375 -0.274572
v -0.345749 1.298036 -0.241764
v -0.355577 1.180686 -0.271659
v -0.345280 1.182318 -0.273782
v -0.345530 1.298099 -0.250202
v -0.345280 1.182318 -0.273782
v -0.347644 1.188903 -0.281740
v -0.352171 1.297884 -0.248727
v -0.345530 1.298099 -0.250202
v -0.357555 1.186658 -0.279984
v -0.345749 1.298036 -0.241764
v -0.352171 1.297884 -0.248727
v -0.355577 1.180686 -0.271659
v -0.355162 1.196503 -0.424309
v -0.355276 1.200143 -0.416660
v -0.353463 1.258312 -0.427385
v -0.353463 1.258312 -0.427385
v -0.346249 1.257624 -0.433040
v -0.355162 1.196503 -0.424309
v -0.346249 1.257624 -0.433040
v -0.353463 1.258312 -0.427385
v -0.342650 1.199971 -0.418833
v -0.049081 1.200559 -0.093476
v -0.066056 1.159615 -0.137016
v -0.038892 1.205463 -0.098950
v -0.038892 1.205463 -0.098950
v -0.066056 1.159615 -0.137016
v -0.051308 1.202577 -0.117520
v -0.066056 1.159615 -0.137016
v -0.073192 1.173270 -0.144364
v -0.051308 1.202577 -0.117520
v -0.055053 1.206804 -0.087373
v -0.058365 1.218221 -0.099581
v -0.081764 1.155488 -0.130449
v -0.023235 1.289937 -0.022979
v -0.031435 1.221787 -0.044401
v -0.026181 1.224167 -0.049491
v -0.038139 1.225247 -0.044405
v -0.031435 1.221787 -0.044401
v -0.023235 1.289937 -0.022979
v -0.037486 1.231818 -0.052492
v -0.038139 1.225247 -0.044405
v -0.030296 1.292228 -0.028679
v -0.029497 1.230171 -0.054153
v -0.037486 1.231818 -0.052492
v -0.030296 1.292228 -0.028679
v -0.023235 1.289937 -0.022979
v -0.030296 1.292228 -0.028679
v -0.038139 1.225247 -0.044405
v -0.030296 1.292228 -0.028679
v -0.023235 1.289937 -0.022979
v -0.029497 1.230171 -0.054153
v 0.024492 0.675266 -0.035417
v -0.011811 0.721277 -0.049204
v -0.044769 0.807416 -0.090318
v 0.035024 0.739918 -0.023875
v 0.044977 0.702445 -0.023559
v -0.008345 0.820908 -0.088767
v -0.031232 0.820549 -0.041931
v -0.018176 0.721805 -0.008669
v 0.003934 0.725440 0.014532
v -0.008345 0.820908 -0.088767
v 0.024492 0.675266 -0.035417
v -0.025623 0.813001 -0.096827
v -0.031232 0.820549 -0.041931
v 0.016853 0.755827 -0.014657
v -0.019955 0.843641 -0.052850
v -0.051151 0.819469 -0.053143
v -0.055358 0.807954 -0.071860
v -0.018176 0.721805 -0.008669
v -0.042419 0.967533 -0.042599
v -0.055541 0.993190 -0.047659
v -0.015178 1.027630 0.024580
v -0.068701 0.991778 -0.017016
v -0.071075 0.954728 -0.032552
v -0.018164 1.004708 0.044283
v -0.015178 1.027630 0.024580
v -0.068701 0.991778 -0.017016
v -0.027484 1.024701 0.042699
v 0.026064 1.164569 -0.016240
v 0.015240 1.115349 0.036426
v 0.028575 1.129405 0.023617
v 0.026064 1.164569 -0.016240
v 0.028575 1.129405 0.023617
v 0.032636 1.163700 -0.019348
v 0.042347 1.126971 0.036067
v 0.045272 1.114027 0.032422
v 0.028575 1.129405 0.023617
v 0.104932 1.143477 0.053686
v 0.100435 1.138399 0.061642
v 0.045272 1.114027 0.032422
v 0.100435 1.138399 0.061642
v 0.092278 1.145424 0.062613
v 0.034030 1.105142 0.043250
v 0.015240 1.115349 0.036426
v 0.027395 1.110931 0.045532
v 0.092278 1.145424 0.062613
v 0.092278 1.145424 0.062613
v 0.096580 1.150014 0.054097
v 0.015240 1.115349 0.036426
v -0.055203 0.980344 -0.100885
v -0.055740 0.957224 -0.109919
v -0.029502 1.007539 -0.203860
v -0.074662 0.989151 -0.100720
v -0.055203 0.980344 -0.100885
v -0.030109 1.023001 -0.190055
v -0.055672 1.025128 -0.186246
v -0.060710 1.011632 -0.197712
v -0.087938 0.981360 -0.104648
v -0.259715 1.104713 -0.289511
v -0.123906 1.123216 -0.274678
v -0.091716 1.110227 -0.266610
v -0.355577 1.180686 -0.271659
v -0.357555 1.186658 -0.279984
v -0.345682 1.143778 -0.342131
v -0.355276 1.200143 -0.416660
v -0.344717 1.165026 -0.372747
v -0.348382 1.201874 -0.414652
v -0.355162 1.196503 -0.424309
v -0.349994 1.156418 -0.380077
v -0.355276 1.200143 -0.416660
v -0.355276 1.200143 -0.416660
v -0.349994 1.156418 -0.380077
v -0.344717 1.165026 -0.372747
v -0.095677 1.145710 -0.226988
v -0.102447 1.132121 -0.224907
v -0.087711 1.168953 -0.136987
v -0.081764 1.155488 -0.130449
v -0.102447 1.132121 -0.224907
v -0.094114 1.120455 -0.220965
v -0.066056 1.159615 -0.137016
v -0.078957 1.121608 -0.228217
v -0.077006 1.143610 -0.219752
v -0.066056 1.159615 -0.137016
v -0.081764 1.155488 -0.130449
v -0.078957 1.121608 -0.228217
v -0.077006 1.143610 -0.219752
v -0.095677 1.145710 -0.226988
v -0.073192 1.173270 -0.144364
v -0.073192 1.173270 -0.144364
v -0.095677 1.145710 -0.226988
v -0.087711 1.168953 -0.136987
v -0.073192 1.173270 -0.144364
v -0.066056 1.159615 -0.137016
v -0.077006 1.143610 -0.219752
v -0.049016 1.222962 -0.084103
v -0.055053 1.206804 -0.087373
v -0.038139 1.225247 -0.044405
v -0.055053 1.206804 -0.087373
v -0.049081 1.200559 -0.093476
v -0.031435 1.221787 -0.044401
v -0.037486 1.231818 -0.052492
v -0.029497 1.230171 -0.054153
v -0.049016 1.222962 -0.084103
v -0.026181 1.224167 -0.049491
v -0.038892 1.205463 -0.098950
v -0.036582 1.220095 -0.086277
v -0.079346 1.115265 -0.260657
v -0.091716 1.110227 -0.266610
v -0.080145 1.243811 -0.283172
v -0.091716 1.110227 -0.266610
v -0.098249 1.154203 -0.272611
v -0.092468 1.244765 -0.283966
v -0.080145 1.243811 -0.283172
v -0.078801 1.246016 -0.266931
v -0.079346 1.115265 -0.260657
v -0.098918 1.241085 -0.272303
v -0.094917 1.155730 -0.247748
v -0.090157 1.251031 -0.267772
v -0.078801 1.246016 -0.266931
v -0.094917 1.155730 -0.247748
v -0.079949 1.153997 -0.250111
v -0.190504 0.514664 0.092898
v -0.206375 0.511643 0.069467
v -0.086028 0.360674 0.083510
v -0.148470 0.602803 -0.067662
v -0.134889 0.590927 -0.084665
v -0.072735 0.558982 -0.002299
v -0.050937 0.609251 -0.048760
v -0.028436 0.580931 -0.042830
v -0.111939 0.618813 -0.099826
v -0.109597 0.635365 -0.065690
v -0.050937 0.609251 -0.048760
v -0.112246 0.639100 -0.087887
v -0.031754 0.555729 -0.034704
v -0.058488 0.551300 -0.025043
v -0.134889 0.590927 -0.084665
v -0.109597 0.635365 -0.065690
v -0.118922 0.623549 -0.049051
v -0.036711 0.615588 -0.013801
v -0.050937 0.609251 -0.048760
v -0.036711 0.615588 -0.013801
v 0.000707 0.617091 -0.021238
v -0.136702 0.611691 -0.052202
v -0.072735 0.558982 -0.002299
v -0.070358 0.582419 0.010981
v -0.118922 0.623549 -0.049051
v -0.070358 0.582419 0.010981
v -0.035270 0.622187 0.014257
v -0.226395 0.745611 -0.109685
v -0.230902 0.748870 -0.095390
v -0.112246 0.639100 -0.087887
v -0.231505 0.735517 -0.119652
v -0.112246 0.639100 -0.087887
v -0.111939 0.618813 -0.099826
v -0.003337 0.349848 -0.052635
v -0.035215 0.450099 -0.009570
v -0.019627 0.444750 0.026350
v -0.029513 0.231326 0.045650
v 0.014229 0.261024 0.054630
v -0.086028 0.360674 0.083510
v 0.161047 0.946531 0.273130
v 0.166266 0.836633 0.189332
v 0.153471 0.827040 0.204098
v 0.307098 0.965993 0.319782
v 0.291041 0.905321 0.297972
v 0.282433 0.909020 0.301384
v 0.315232 0.962615 0.322358
v 0.285618 0.898747 0.315281
v 0.294792 0.897159 0.309197
v 0.199453 0.979849 0.317373
v 0.182270 0.947535 0.283609
v 0.197391 0.992035 0.307897
v 0.127308 0.783085 0.143500
v 0.144241 0.784115 0.122182
v 0.054931 0.736511 0.032933
v 0.144241 0.784115 0.122182
v 0.073495 0.727704 0.018403
v 0.054931 0.736511 0.032933
v 0.058459 0.698122 0.066227
v 0.123098 0.766670 0.149587
v 0.038462 0.705064 0.056612
v -0.058878 0.908377 -0.049372
v -0.071075 0.954728 -0.032552
v -0.083265 0.920937 -0.052497
v 0.167809 0.783641 0.195852
v 0.058459 0.698122 0.066227
v 0.174693 0.767988 0.175441
v 0.180264 0.768882 0.159703
v 0.174693 0.767988 0.175441
v 0.071907 0.690147 0.054073
v 0.093909 0.718720 0.039898
v 0.180264 0.768882 0.159703
v 0.056004 0.671624 0.005084
v -0.093791 1.089135 -0.247654
v -0.118295 1.107043 -0.260498
v -0.091716 1.110227 -0.266610
v -0.063454 0.232869 0.001111
v -0.117774 0.000000 0.024110
v -0.029513 0.231326 0.045650
v 0.015240 1.115349 0.036426
v 0.042347 1.126971 0.036067
v 0.028575 1.129405 0.023617
v 0.038874 0.212803 -0.083931
v 0.061450 0.268273 -0.030629
v 0.070404 0.161216 -0.039005
v -0.112493 -0.000000 -0.076771
v -0.015277 0.214314 -0.089033
v -0.043869 0.000000 -0.116508
v 0.048720 0.000000 0.109972
v -0.063658 0.000000 0.094272
v -0.004695 -0.000000 -0.008478
v 0.052394 0.000000 -0.118043
v 0.101028 0.000000 -0.035170
v -0.004695 -0.000000 -0.008478
v -0.029513 0.231326 0.045650
v -0.063658 0.000000 0.094272
v 0.048720 0.000000 0.109972
v -0.063658 0.000000 0.094272
v -0.117774 0.000000 0.024110
v -0.004695 -0.000000 -0.008478
v -0.078349 0.394226 -0.044744
v -0.015277 0.214314 -0.089033
v -0.061249 0.248623 -0.050476
v -0.003337 0.349848 -0.052635
v 0.038874 0.212803 -0.083931
v -0.015277 0.214314 -0.089033
v -0.019627 0.444750 0.026350
v 0.061450 0.268273 -0.030629
v -0.003337 0.349848 -0.052635
v -0.035270 0.622187 0.014257
v -0.008890 0.641167 -0.014808
v -0.036711 0.615588 -0.013801
v 0.003934 0.725440 0.014532
v -0.029732 0.600514 0.045076
v 0.020334 0.654497 0.037071
v 0.025386 0.609316 -0.010340
v 0.056004 0.671624 0.005084
v 0.027842 0.569100 0.027284
v -0.173380 0.555618 0.082498
v -0.186462 0.558019 0.044018
v -0.213658 0.532008 0.052330
v -0.173380 0.555618 0.082498
v -0.213658 0.532008 0.052330
v -0.185995 0.538234 0.093424
v -0.090157 1.251031 -0.267772
v -0.078801 1.246016 -0.266931
v -0.080145 1.243811 -0.283172
v -0.090157 1.251031 -0.267772
v -0.080145 1.243811 -0.283172
v -0.092468 1.244765 -0.283966
v -0.329869 1.129383 -0.345608
v -0.333805 1.144055 -0.343160
v -0.345682 1.143778 -0.342131
v -0.117774 0.000000 0.024110
v -0.112493 -0.000000 -0.076771
v -0.004695 -0.000000 -0.008478
v -0.018176 0.721805 -0.008669
v -0.017879 0.691957 -0.013674
v 0.003934 0.725440 0.014532
v -0.038892 1.205463 -0.098950
v -0.051308 1.202577 -0.117520
v -0.044531 1.232159 -0.119138
v -0.039069 1.238551 -0.102935
v -0.036582 1.220095 -0.086277
v -0.038892 1.205463 -0.098950
v -0.043869 0.000000 -0.116508
v 0.052394 0.000000 -0.118043
v -0.004695 -0.000000 -0.008478
v -0.112493 -0.000000 -0.076771
v -0.043869 0.000000 -0.116508
v -0.004695 -0.000000 -0.008478
v -0.069832 0.510889 0.067154
v -0.046352 0.483610 0.062632
v -0.020158 0.558081 0.063961
v 0.056004 0.671624 0.005084
v 0.044977 0.702445 -0.023559
v 0.073495 0.727704 0.018403
v -0.038014 0.508182 -0.015733
v -0.031754 0.555729 -0.034704
v -0.027470 0.488493 -0.003244
v -0.027470 0.488493 -0.003244
v 0.027842 0.569100 0.027284
v -0.022241 0.481338 0.036153
v -0.069832 0.510889 0.067154
v -0.029732 0.600514 0.045076
v -0.073397 0.541111 0.040101
v -0.078349 0.394226 -0.044744
v -0.061249 0.248623 -0.050476
v -0.213658 0.532008 0.052330
v 0.218196 0.820691 0.202292
v 0.093909 0.718720 0.039898
v 0.144241 0.784115 0.122182
v -0.008890 0.641167 -0.014808
v -0.011811 0.721277 -0.049204
v 0.024492 0.675266 -0.035417
v 0.166266 0.836633 0.189332
v 0.194518 0.825635 0.187305
v 0.144241 0.784115 0.122182
v 0.127308 0.783085 0.143500
v 0.166266 0.836633 0.189332
v 0.144241 0.784115 0.122182
v 0.071907 0.690147 0.054073
v 0.039170 0.648588 0.027978
v 0.056004 0.671624 0.005084
v 0.054931 0.736511 0.032933
v 0.073495 0.727704 0.018403
v 0.035024 0.739918 -0.023875
v 0.003934 0.725440 0.014532
v 0.054931 0.736511 0.032933
v 0.016853 0.755827 -0.014657
v 0.153471 0.827040 0.204098
v 0.123098 0.766670 0.149587
v 0.157355 0.815803 0.211905
v 0.197391 0.992035 0.307897
v 0.161047 0.946531 0.273130
v 0.186894 1.003246 0.312669
v -0.055203 0.980344 -0.100885
v -0.055541 0.993190 -0.047659
v -0.042419 0.967533 -0.042599
v -0.058878 0.908377 -0.049372
v -0.055422 0.957325 -0.031535
v -0.071075 0.954728 -0.032552
v -0.075961 0.952885 -0.121479
v -0.058470 0.910264 -0.099458
v -0.091515 0.960123 -0.107421
v -0.055740 0.957224 -0.109919
v -0.041614 0.915026 -0.077489
v -0.058470 0.910264 -0.099458
v -0.310306 0.813873 -0.197162
v -0.316887 0.815614 -0.172780
v -0.345678 0.819992 -0.191338
v 0.128862 0.980363 0.303953
v 0.161047 0.946531 0.273130
v 0.152245 0.934779 0.292001
v 0.142422 0.992331 0.327988
v 0.132349 0.973272 0.323634
v 0.174266 0.966717 0.325152
v 0.020636 1.118837 0.010637
v 0.016925 1.092954 0.023185
v 0.012721 1.106919 0.026551
v -0.349312 1.156164 -0.345776
v -0.349994 1.156418 -0.380077
v -0.345682 1.143778 -0.342131
v -0.349994 1.156418 -0.380077
v -0.349312 1.156164 -0.345776
v -0.344717 1.165026 -0.372747
v -0.095677 1.145710 -0.226988
v -0.079949 1.153997 -0.250111
v -0.094917 1.155730 -0.247748
v -0.095677 1.145710 -0.226988
v -0.094917 1.155730 -0.247748
v -0.128088 1.127943 -0.248501
v -0.349312 1.156164 -0.345776
v -0.334879 1.159435 -0.342758
v -0.344717 1.165026 -0.372747
v -0.044531 1.232159 -0.119138
v -0.051308 1.202577 -0.117520
v -0.058365 1.218221 -0.099581
v -0.320197 1.146001 -0.350626
v -0.333086 1.161309 -0.377388
v -0.334879 1.159435 -0.342758
v -0.346990 0.840530 -0.197544
v -0.320002 0.849155 -0.192891
v -0.350088 0.846913 -0.214242
v -0.008044 1.053088 0.354179
v 0.128862 0.980363 0.303953
v 0.132349 0.973272 0.323634
v -0.000376 1.055641 0.365118
v -0.008044 1.053088 0.354179
v 0.132349 0.973272 0.323634
v -0.001331 1.062902 0.347474
v 0.140615 0.997310 0.309749
v 0.128862 0.980363 0.303953
v -0.008044 1.053088 0.354179
v -0.001331 1.062902 0.347474
v 0.128862 0.980363 0.303953
v -0.001331 1.062902 0.347474
v 0.003849 1.067152 0.358278
v 0.140615 0.997310 0.309749
v -0.000376 1.055641 0.365118
v 0.132349 0.973272 0.323634
v 0.142422 0.992331 0.327988
v 0.296435 1.085437 0.382662
v 0.174266 0.966717 0.325152
v 0.199453 0.979849 0.317373
v 0.298048 1.086781 0.369244
v 0.296435 1.085437 0.382662
v 0.199453 0.979849 0.317373
v 0.298048 1.086781 0.369244
v 0.199453 0.979849 0.317373
v 0.197391 0.992035 0.307897
v -0.073397 0.541111 0.040101
v -0.072735 0.558982 -0.002299
v -0.110915 0.516499 0.009363
v -0.073397 0.541111 0.040101
v -0.111247 0.528213 0.047445
v -0.069832 0.510889 0.067154
v -0.038014 0.508182 -0.015733
v -0.056973 0.444501 -0.031862
v -0.061812 0.526114 -0.012951
v -0.310306 0.813873 -0.197162
v -0.242544 0.725297 -0.120734
v -0.253282 0.721086 -0.110712
v -0.308462 0.840600 -0.206932
v -0.226395 0.745611 -0.109685
v -0.231505 0.735517 -0.119652
v -0.316887 0.815614 -0.172780
v -0.258287 0.724861 -0.096869
v -0.253402 0.735236 -0.086915
v -0.420027 0.893932 -0.301614
v -0.310306 0.813873 -0.197162
v -0.341761 0.836418 -0.218618
v -0.350088 0.846913 -0.214242
v -0.420027 0.893932 -0.301614
v -0.341761 0.836418 -0.218618
v -0.418589 0.908019 -0.289154
v -0.425333 0.897014 -0.290627
v -0.350088 0.846913 -0.214242
v -0.462355 0.820656 -0.136647
v -0.318150 0.839539 -0.179791
v -0.320002 0.849155 -0.192891
v -0.058470 0.910264 -0.099458
v -0.025623 0.813001 -0.096827
v -0.044769 0.807416 -0.090318
v -0.019955 0.843641 -0.052850
v -0.058878 0.908377 -0.049372
v -0.031232 0.820549 -0.041931
v -0.041614 0.915026 -0.077489
v -0.058878 0.908377 -0.049372
v -0.019955 0.843641 -0.052850
v -0.083265 0.920937 -0.052497
v -0.051151 0.819469 -0.053143
v -0.058878 0.908377 -0.049372
v -0.002377 1.034994 0.052384
v -0.018164 1.004708 0.044283
v -0.000139 1.013560 0.033846
v -0.002377 1.034994 0.052384
v 0.015240 1.115349 0.036426
v -0.027484 1.024701 0.042699
v 0.012721 1.106919 0.026551
v 0.016925 1.092954 0.023185
v -0.015178 1.027630 0.024580
v -0.027484 1.024701 0.042699
v 0.012721 1.106919 0.026551
v -0.015178 1.027630 0.024580
v 0.024311 1.083805 0.031858
v -0.000139 1.013560 0.033846
v 0.016925 1.092954 0.023185
v 0.034030 1.105142 0.043250
v -0.002377 1.034994 0.052384
v 0.024311 1.083805 0.031858
v 0.031761 1.160488 -0.027486
v 0.022480 1.282834 -0.024844
v 0.032636 1.163700 -0.019348
v 0.032636 1.163700 -0.019348
v 0.014361 1.281953 -0.019690
v 0.026064 1.164569 -0.016240
v 0.104932 1.143477 0.053686
v 0.113063 1.228432 0.165025
v 0.100435 1.138399 0.061642
v 0.092278 1.145424 0.062613
v 0.110089 1.234644 0.158247
v 0.096580 1.150014 0.054097
v 0.113063 1.228432 0.165025
v 0.106977 1.230244 0.162297
v 0.092278 1.145424 0.062613
v 0.110089 1.234644 0.158247
v 0.116156 1.231799 0.159957
v 0.104932 1.143477 0.053686
v -0.029502 1.007539 -0.203860
v -0.070145 1.106606 -0.236902
v -0.030109 1.023001 -0.190055
v -0.053735 1.003636 -0.205841
v -0.091716 1.110227 -0.266610
v -0.041180 1.002585 -0.208364
v -0.070145 1.106606 -0.236902
v -0.090549 1.102615 -0.229980
v -0.055672 1.025128 -0.186246
v -0.093791 1.089135 -0.247654
v -0.053735 1.003636 -0.205841
v -0.060710 1.011632 -0.197712
v -0.266377 1.107173 -0.277514
v -0.329869 1.129383 -0.345608
v -0.259715 1.104713 -0.289511
v -0.320197 1.146001 -0.350626
v -0.256674 1.120780 -0.294455
v -0.332608 1.140381 -0.370549
v -0.259715 1.104713 -0.289511
v -0.332608 1.140381 -0.370549
v -0.256674 1.120780 -0.294455
v -0.329869 1.129383 -0.345608
v -0.266377 1.107173 -0.277514
v -0.267241 1.115375 -0.274572
v -0.332608 1.140381 -0.370549
v -0.259715 1.104713 -0.289511
v -0.329869 1.129383 -0.345608
v -0.357555 1.186658 -0.279984
v -0.345530 1.298099 -0.250202
v -0.347644 1.188903 -0.281740
v -0.355577 1.180686 -0.271659
v -0.352171 1.297884 -0.248727
v -0.357555 1.186658 -0.279984
v -0.345530 1.298099 -0.250202
v -0.345749 1.298036 -0.241764
v -0.345280 1.182318 -0.273782
v -0.355162 1.196503 -0.424309
v -0.346249 1.257624 -0.433040
v -0.347284 1.195636 -0.427050
v -0.347284 1.195636 -0.427050
v -0.346249 1.257624 -0.433040
v -0.342650 1.199971 -0.418833
v -0.353463 1.258312 -0.427385
v -0.355276 1.200143 -0.416660
v -0.348382 1.201874 -0.414652
v -0.342650 1.199971 -0.418833
v -0.353463 1.258312 -0.427385
v -0.348382 1.201874 -0.414652
v -0.049081 1.200559 -0.093476
v -0.081764 1.155488 -0.130449
v -0.066056 1.159615 -0.137016
v -0.081764 1.155488 -0.130449
v -0.058365 1.218221 -0.099581
v -0.087711 1.168953 -0.136987
v -0.049081 1.200559 -0.093476
v -0.055053 1.206804 -0.087373
v -0.081764 1.155488 -0.130449
v -0.029497 1.230171 -0.054153
v -0.023235 1.289937 -0.022979
v -0.026181 1.224167 -0.049491
v -0.008345 0.820908 -0.088767
v 0.044977 0.702445 -0.023559
v 0.024492 0.675266 -0.035417
v -0.031232 0.820549 -0.041931
v 0.003934 0.725440 0.014532
v 0.016853 0.755827 -0.014657
v -0.018176 0.721805 -0.008669
v -0.055358 0.807954 -0.071860
v -0.017879 0.691957 -0.013674
v -0.044769 0.807416 -0.090318
v -0.025623 0.813001 -0.096827
v 0.024492 0.675266 -0.035417
v -0.041614 0.915026 -0.077489
v 0.035024 0.739918 -0.023875
v -0.008345 0.820908 -0.088767
v -0.031232 0.820549 -0.041931
v -0.051151 0.819469 -0.053143
v -0.018176 0.721805 -0.008669
v -0.015178 1.027630 0.024580
v -0.055541 0.993190 -0.047659
v -0.068701 0.991778 -0.017016
v -0.018164 1.004708 0.044283
v -0.071075 0.954728 -0.032552
v -0.055422 0.957325 -0.031535
v -0.027484 1.024701 0.042699
v -0.068701 0.991778 -0.017016
v -0.018164 1.004708 0.044283
v -0.015178 1.027630 0.024580
v -0.000139 1.013560 0.033846
v -0.042419 0.967533 -0.042599
v 0.015240 1.115349 0.036426
v 0.019907 1.162570 -0.019936
v 0.012721 1.106919 0.026551
v 0.032636 1.163700 -0.019348
v 0.032515 1.121116 0.015204
v 0.031761 1.160488 -0.027486
v 0.032636 1.163700 -0.019348
v 0.028575 1.129405 0.023617
v 0.032515 1.121116 0.015204
v 0.026064 1.164569 -0.016240
v 0.019907 1.162570 -0.019936
v 0.015240 1.115349 0.036426
v 0.045272 1.114027 0.032422
v 0.100435 1.138399 0.061642
v 0.034030 1.105142 0.043250
v 0.034030 1.105142 0.043250
v 0.092278 1.145424 0.062613
v 0.027395 1.110931 0.045532
v 0.015240 1.115349 0.036426
v 0.096580 1.150014 0.054097
v 0.042347 1.126971 0.036067
v -0.053735 1.003636 -0.205841
v -0.041180 1.002585 -0.208364
v -0.075961 0.952885 -0.121479
v -0.030109 1.023001 -0.190055
v -0.055203 0.980344 -0.100885
v -0.029502 1.007539 -0.203860
v -0.055672 1.025128 -0.186246
v -0.087938 0.981360 -0.104648
v -0.074662 0.989151 -0.100720
v -0.087938 0.981360 -0.104648
v -0.060710 1.011632 -0.197712
v -0.091515 0.960123 -0.107421
v -0.055672 1.025128 -0.186246
v -0.074662 0.989151 -0.100720
v -0.030109 1.023001 -0.190055
v -0.259715 1.104713 -0.289511
v -0.091716 1.110227 -0.266610
v -0.118295 1.107043 -0.260498
v -0.256674 1.120780 -0.294455
v -0.121905 1.134806 -0.267097
v -0.123906 1.123216 -0.274678
v -0.263025 1.126011 -0.279747
v -0.128088 1.127943 -0.248501
v -0.121905 1.134806 -0.267097
v -0.256674 1.120780 -0.294455
v -0.263025 1.126011 -0.279747
v -0.121905 1.134806 -0.267097
v -0.263025 1.126011 -0.279747
v -0.267241 1.115375 -0.274572
v -0.128088 1.127943 -0.248501
v -0.259715 1.104713 -0.289511
v -0.256674 1.120780 -0.294455
v -0.123906 1.123216 -0.274678
v -0.345682 1.143778 -0.342131
v -0.357555 1.186658 -0.279984
v -0.349312 1.156164 -0.345776
v -0.345280 1.182318 -0.273782
v -0.333805 1.144055 -0.343160
v -0.334879 1.159435 -0.342758
v -0.347644 1.188903 -0.281740
v -0.345280 1.182318 -0.273782
v -0.334879 1.159435 -0.342758
v -0.077006 1.143610 -0.219752
v -0.079949 1.153997 -0.250111
v -0.095677 1.145710 -0.226988
v -0.078957 1.121608 -0.228217
v -0.081764 1.155488 -0.130449
v -0.094114 1.120455 -0.220965
v -0.081764 1.155488 -0.130449
v -0.087711 1.168953 -0.136987
v -0.102447 1.132121 -0.224907
v -0.038139 1.225247 -0.044405
v -0.055053 1.206804 -0.087373
v -0.031435 1.221787 -0.044401
v -0.049016 1.222962 -0.084103
v -0.029497 1.230171 -0.054153
v -0.036582 1.220095 -0.086277
v -0.029497 1.230171 -0.054153
v -0.026181 1.224167 -0.049491
v -0.036582 1.220095 -0.086277
v -0.037486 1.231818 -0.052492
v -0.049016 1.222962 -0.084103
v -0.038139 1.225247 -0.044405
v -0.016238 1.311829 -0.152181
v -0.038892 1.205463 -0.098950
v -0.044531 1.232159 -0.119138
v -0.023137 1.311651 -0.153128
v -0.016238 1.311829 -0.152181
v -0.044531 1.232159 -0.119138
v -0.023966 1.314863 -0.147056
v -0.058365 1.218221 -0.099581
v -0.039069 1.238551 -0.102935
v -0.017322 1.313681 -0.145522
v -0.023966 1.314863 -0.147056
v -0.039069 1.238551 -0.102935
v -0.092468 1.244765 -0.283966
v -0.080145 1.243811 -0.283172
v -0.091716 1.110227 -0.266610
v -0.094917 1.155730 -0.247748
v -0.098918 1.241085 -0.272303
v -0.104928 1.159048 -0.259119
v -0.079346 1.115265 -0.260657
v -0.078801 1.246016 -0.266931
v -0.079949 1.153997 -0.250111
v -0.078801 1.246016 -0.266931
v -0.090157 1.251031 -0.267772
v -0.094917 1.155730 -0.247748
v -0.090157 1.251031 -0.267772
v -0.092468 1.244765 -0.283966
v -0.098918 1.241085 -0.272303
v -0.213658 0.532008 0.052330
v -0.186462 0.558019 0.044018
v -0.194428 0.537194 0.033551
v -0.186462 0.558019 0.044018
v -0.173380 0.555618 0.082498
v -0.168815 0.560165 0.060790
v -0.213658 0.532008 0.052330
v -0.194428 0.537194 0.033551
v -0.078349 0.394226 -0.044744
v -0.124627 0.601793 -0.100184
v -0.031754 0.555729 -0.034704
v -0.134889 0.590927 -0.084665
v -0.112246 0.639100 -0.087887
v -0.050937 0.609251 -0.048760
v -0.111939 0.618813 -0.099826
v -0.136702 0.611691 -0.052202
v -0.148470 0.602803 -0.067662
v -0.072735 0.558982 -0.002299
v -0.072735 0.558982 -0.002299
v -0.134889 0.590927 -0.084665
v -0.058488 0.551300 -0.025043
v -0.050937 0.609251 -0.048760
v 0.000707 0.617091 -0.021238
v -0.028436 0.580931 -0.042830
v -0.050937 0.609251 -0.048760
v -0.109597 0.635365 -0.065690
v -0.036711 0.615588 -0.013801
v -0.118922 0.623549 -0.049051
v -0.035270 0.622187 0.014257
v -0.036711 0.615588 -0.013801
v -0.118922 0.623549 -0.049051
v -0.136702 0.611691 -0.052202
v -0.070358 0.582419 0.010981
v -0.226395 0.745611 -0.109685
v -0.112246 0.639100 -0.087887
v -0.231505 0.735517 -0.119652
v -0.112246 0.639100 -0.087887
v -0.230902 0.748870 -0.095390
v -0.109597 0.635365 -0.065690
v 0.192993 0.831658 0.204862
v 0.182270 0.947535 0.283609
v 0.174266 0.966717 0.325152
v 0.186684 0.823252 0.218262
v 0.171583 0.818711 0.222779
v 0.174266 0.966717 0.325152
v 0.152245 0.934779 0.292001
v 0.157355 0.815803 0.211905
v 0.166266 0.836633 0.189332
v 0.161047 0.946531 0.273130
v 0.182270 0.947535 0.283609
v 0.194518 0.825635 0.187305
v 0.278810 0.906349 0.310598
v 0.285618 0.898747 0.315281
v 0.315232 0.962615 0.322358
v 0.307098 0.965993 0.319782
v 0.218196 0.820691 0.202292
v 0.291041 0.905321 0.297972
v 0.294792 0.897159 0.309197
v 0.180264 0.768882 0.159703
v 0.192993 0.831658 0.204862
v 0.282433 0.909020 0.301384
v 0.291041 0.905321 0.297972
v 0.194518 0.825635 0.187305
v 0.192993 0.831658 0.204862
v 0.186684 0.823252 0.218262
v 0.278810 0.906349 0.310598
v 0.282433 0.909020 0.301384
v 0.186684 0.823252 0.218262
v 0.167809 0.783641 0.195852
v 0.285618 0.898747 0.315281
v 0.278810 0.906349 0.310598
v 0.174693 0.767988 0.175441
v 0.294792 0.897159 0.309197
v 0.285618 0.898747 0.315281
v 0.167809 0.783641 0.195852
v 0.038462 0.705064 0.056612
v 0.123098 0.766670 0.149587
v 0.127308 0.783085 0.143500
v 0.041144 0.728699 0.048363
v -0.112493 -0.000000 -0.076771
v -0.117774 0.000000 0.024110
v -0.063454 0.232869 0.001111
v -0.061249 0.248623 -0.050476
v 0.066065 0.152342 0.020854
v 0.055163 0.265058 0.029212
v 0.014229 0.261024 0.054630
v 0.048720 0.000000 0.109972
v 0.070404 0.161216 -0.039005
v 0.061450 0.268273 -0.030629
v 0.055163 0.265058 0.029212
v 0.066065 0.152342 0.020854
v 0.052394 0.000000 -0.118043
v -0.043869 0.000000 -0.116508
v -0.015277 0.214314 -0.089033
v 0.038874 0.212803 -0.083931
v 0.052394 0.000000 -0.118043
v 0.038874 0.212803 -0.083931
v 0.070404 0.161216 -0.039005
v 0.101028 0.000000 -0.035170
v 0.101028 0.000000 -0.035170
v 0.070404 0.161216 -0.039005
v 0.066065 0.152342 0.020854
v 0.098094 0.000000 0.050315
v -0.035270 0.622187 0.014257
v -0.029732 0.600514 0.045076
v 0.003934 0.725440 0.014532
v -0.017879 0.691957 -0.013674
v -0.093222 0.930460 -0.075676
v -0.083265 0.920937 -0.052497
v -0.071075 0.954728 -0.032552
v -0.068701 0.991778 -0.017016
v -0.046352 0.483610 0.062632
v -0.063032 0.445285 0.086264
v 0.055163 0.265058 0.029212
v -0.019627 0.444750 0.026350
v -0.020158 0.558081 0.063961
v -0.046352 0.483610 0.062632
v -0.022241 0.481338 0.036153
v 0.027842 0.569100 0.027284
v -0.027470 0.488493 -0.003244
v -0.031754 0.555729 -0.034704
v -0.028436 0.580931 -0.042830
v 0.025386 0.609316 -0.010340
v -0.029732 0.600514 0.045076
v -0.035270 0.622187 0.014257
v -0.070358 0.582419 0.010981
v -0.073397 0.541111 0.040101
v -0.061812 0.526114 -0.012951
v -0.058488 0.551300 -0.025043
v -0.031754 0.555729 -0.034704
v -0.038014 0.508182 -0.015733
v -0.206375 0.511643 0.069467
v -0.213658 0.532008 0.052330
v -0.061249 0.248623 -0.050476
v -0.063454 0.232869 0.001111
v -0.086028 0.360674 0.083510
v -0.206375 0.511643 0.069467
v -0.063454 0.232869 0.001111
v -0.029513 0.231326 0.045650
v 0.071907 0.690147 0.054073
v 0.058459 0.698122 0.066227
v 0.020334 0.654497 0.037071
v 0.039170 0.648588 0.027978
v 0.127308 0.783085 0.143500
v 0.123098 0.766670 0.149587
v 0.153471 0.827040 0.204098
v 0.166266 0.836633 0.189332
v 0.128862 0.980363 0.303953
v 0.140615 0.997310 0.309749
v 0.186894 1.003246 0.312669
v 0.161047 0.946531 0.273130
v -0.042419 0.967533 -0.042599
v -0.041614 0.915026 -0.077489
v -0.055740 0.957224 -0.109919
v -0.055203 0.980344 -0.100885
v -0.055541 0.993190 -0.047659
v -0.074662 0.989151 -0.100720
v -0.087938 0.981360 -0.104648
v -0.068701 0.991778 -0.017016
v -0.042419 0.967533 -0.042599
v -0.055422 0.957325 -0.031535
v -0.058878 0.908377 -0.049372
v -0.041614 0.915026 -0.077489
v -0.070145 1.106606 -0.236902
v -0.079949 1.153997 -0.250111
v -0.077006 1.143610 -0.219752
v -0.078957 1.121608 -0.228217
v 0.140615 0.997310 0.309749
v 0.142422 0.992331 0.327988
v 0.184668 1.000851 0.332951
v 0.186894 1.003246 0.312669
v -0.332608 1.140381 -0.370549
v -0.329869 1.129383 -0.345608
v -0.345682 1.143778 -0.342131
v -0.349994 1.156418 -0.380077
v -0.093791 1.089135 -0.247654
v -0.090549 1.102615 -0.229980
v -0.120961 1.111545 -0.247685
v -0.118295 1.107043 -0.260498
v -0.098249 1.154203 -0.272611
v -0.123906 1.123216 -0.274678
v -0.121905 1.134806 -0.267097
v -0.104928 1.159048 -0.259119
v -0.090549 1.102615 -0.229980
v -0.078957 1.121608 -0.228217
v -0.094114 1.120455 -0.220965
v -0.120961 1.111545 -0.247685
v 0.184668 1.000851 0.332951
v 0.174266 0.966717 0.325152
v 0.296435 1.085437 0.382662
v 0.285084 1.092955 0.381797
v 0.186894 1.003246 0.312669
v 0.184668 1.000851 0.332951
v 0.285084 1.092955 0.381797
v 0.288607 1.096408 0.369247
v 0.197391 0.992035 0.307897
v 0.186894 1.003246 0.312669
v 0.288607 1.096408 0.369247
v 0.298048 1.086781 0.369244
v -0.019627 0.444750 0.026350
v -0.035215 0.450099 -0.009570
v -0.027470 0.488493 -0.003244
v -0.022241 0.481338 0.036153
v -0.035215 0.450099 -0.009570
v -0.056973 0.444501 -0.031862
v -0.038014 0.508182 -0.015733
v -0.027470 0.488493 -0.003244
v -0.253282 0.721086 -0.110712
v -0.258287 0.724861 -0.096869
v -0.316887 0.815614 -0.172780
v -0.310306 0.813873 -0.197162
v -0.231505 0.735517 -0.119652
v -0.242544 0.725297 -0.120734
v -0.310306 0.813873 -0.197162
v -0.308462 0.840600 -0.206932
v -0.230902 0.748870 -0.095390
v -0.226395 0.745611 -0.109685
v -0.308462 0.840600 -0.206932
v -0.320002 0.849155 -0.192891
v -0.230902 0.748870 -0.095390
v -0.320002 0.849155 -0.192891
v -0.318150 0.839539 -0.179791
v -0.242098 0.745319 -0.085781
v -0.253402 0.735236 -0.086915
v -0.242098 0.745319 -0.085781
v -0.318150 0.839539 -0.179791
v -0.316887 0.815614 -0.172780
v -0.308462 0.840600 -0.206932
v -0.310306 0.813873 -0.197162
v -0.420027 0.893932 -0.301614
v -0.411165 0.903952 -0.299537
v -0.320002 0.849155 -0.192891
v -0.308462 0.840600 -0.206932
v -0.411165 0.903952 -0.299537
v -0.418589 0.908019 -0.289154
v -0.345678 0.819992 -0.191338
v -0.341870 0.825561 -0.174376
v -0.459021 0.808108 -0.133158
v -0.465327 0.803528 -0.144199
v -0.346990 0.840530 -0.197544
v -0.345678 0.819992 -0.191338
v -0.465327 0.803528 -0.144199
v -0.466199 0.816270 -0.148761
v -0.320002 0.849155 -0.192891
v -0.346990 0.840530 -0.197544
v -0.466199 0.816270 -0.148761
v -0.462355 0.820656 -0.136647
v -0.341870 0.825561 -0.174376
v -0.318150 0.839539 -0.179791
v -0.462355 0.820656 -0.136647
v -0.459021 0.808108 -0.133158
v -0.055358 0.807954 -0.071860
v -0.093222 0.930460 -0.075676
v -0.091515 0.960123 -0.107421
v -0.044769 0.807416 -0.090318
v -0.051151 0.819469 -0.053143
v -0.083265 0.920937 -0.052497
v -0.093222 0.930460 -0.075676
v -0.055358 0.807954 -0.071860
v -0.041180 1.002585 -0.208364
v -0.091716 1.110227 -0.266610
v -0.079346 1.115265 -0.260657
v -0.029502 1.007539 -0.203860
v -0.055672 1.025128 -0.186246
v -0.090549 1.102615 -0.229980
v -0.093791 1.089135 -0.247654
v -0.060710 1.011632 -0.197712
v -0.073192 1.173270 -0.144364
v -0.087711 1.168953 -0.136987
v -0.058365 1.218221 -0.099581
v -0.051308 1.202577 -0.117520
v -0.011811 0.721277 -0.049204
v -0.017879 0.691957 -0.013674
v -0.055358 0.807954 -0.071860
v -0.044769 0.807416 -0.090318
v 0.035024 0.739918 -0.023875
v -0.041614 0.915026 -0.077489
v -0.019955 0.843641 -0.052850
v 0.016853 0.755827 -0.014657
v -0.055422 0.957325 -0.031535
v -0.042419 0.967533 -0.042599
v -0.000139 1.013560 0.033846
v -0.018164 1.004708 0.044283
v 0.020636 1.118837 0.010637
v 0.023548 1.159594 -0.029275
v 0.031761 1.160488 -0.027486
v 0.032515 1.121116 0.015204
v 0.012721 1.106919 0.026551
v 0.019907 1.162570 -0.019936
v 0.023548 1.159594 -0.029275
v 0.020636 1.118837 0.010637
v 0.045272 1.114027 0.032422
v 0.042347 1.126971 0.036067
v 0.096580 1.150014 0.054097
v 0.104932 1.143477 0.053686
v -0.075961 0.952885 -0.121479
v -0.041180 1.002585 -0.208364
v -0.029502 1.007539 -0.203860
v -0.055740 0.957224 -0.109919
v -0.075961 0.952885 -0.121479
v -0.091515 0.960123 -0.107421
v -0.060710 1.011632 -0.197712
v -0.053735 1.003636 -0.205841
v -0.118295 1.107043 -0.260498
v -0.120961 1.111545 -0.247685
v -0.266377 1.107173 -0.277514
v -0.259715 1.104713 -0.289511
v -0.128088 1.127943 -0.248501
v -0.267241 1.115375 -0.274572
v -0.266377 1.107173 -0.277514
v -0.120961 1.111545 -0.247685
v -0.345682 1.143778 -0.342131
v -0.333805 1.144055 -0.343160
v -0.345280 1.182318 -0.273782
v -0.355577 1.180686 -0.271659
v -0.334879 1.159435 -0.342758
v -0.349312 1.156164 -0.345776
v -0.357555 1.186658 -0.279984
v -0.347644 1.188903 -0.281740
v -0.332608 1.140381 -0.370549
v -0.349994 1.156418 -0.380077
v -0.355162 1.196503 -0.424309
v -0.347284 1.195636 -0.427050
v -0.333086 1.161309 -0.377388
v -0.332608 1.140381 -0.370549
v -0.347284 1.195636 -0.427050
v -0.342650 1.199971 -0.418833
v -0.344717 1.165026 -0.372747
v -0.333086 1.161309 -0.377388
v -0.342650 1.199971 -0.418833
v -0.348382 1.201874 -0.414652
v -0.049081 1.200559 -0.093476
v -0.038892 1.205463 -0.098950
v -0.026181 1.224167 -0.049491
v -0.031435 1.221787 -0.044401
v -0.039069 1.238551 -0.102935
v -0.038892 1.205463 -0.098950
v -0.016238 1.311829 -0.152181
v -0.017322 1.313681 -0.145522
v -0.044531 1.232159 -0.119138
v -0.058365 1.218221 -0.099581
v -0.023966 1.314863 -0.147056
v -0.023137 1.311651 -0.153128
v -0.098249 1.154203 -0.272611
v -0.104928 1.159048 -0.259119
v -0.098918 1.241085 -0.272303
v -0.092468 1.244765 -0.283966
v -0.206375 0.511643 0.069467
v -0.190504 0.514664 0.092898
v -0.185995 0.538234 0.093424
v -0.213658 0.532008 0.052330
v -0.078349 0.394226 -0.044744
v -0.194428 0.537194 0.033551
v -0.186462 0.558019 0.044018
v -0.110915 0.516499 0.009363
v -0.111247 0.528213 0.047445
v -0.168815 0.560165 0.060790
v -0.173380 0.555618 0.082498
v -0.069832 0.510889 0.067154
v -0.110915 0.516499 0.009363
v -0.186462 0.558019 0.044018
v -0.168815 0.560165 0.060790
v -0.111247 0.528213 0.047445
v -0.063032 0.445285 0.086264
v -0.185995 0.538234 0.093424
v -0.190504 0.514664 0.092898
v -0.086028 0.360674 0.083510
v -0.063032 0.445285 0.086264
v -0.069832 0.510889 0.067154
v -0.173380 0.555618 0.082498
v -0.185995 0.538234 0.093424
v -0.031754 0.555729 -0.034704
v -0.124627 0.601793 -0.100184
v -0.111939 0.618813 -0.099826
v -0.028436 0.580931 -0.042830
v -0.148470 0.602803 -0.067662
v -0.258287 0.724861 -0.096869
v -0.253282 0.721086 -0.110712
v -0.134889 0.590927 -0.084665
v -0.134889 0.590927 -0.084665
v -0.253282 0.721086 -0.110712
v -0.242544 0.725297 -0.120734
v -0.124627 0.601793 -0.100184
v -0.111939 0.618813 -0.099826
v -0.124627 0.601793 -0.100184
v -0.242544 0.725297 -0.120734
v -0.231505 0.735517 -0.119652
v -0.109597 0.635365 -0.065690
v -0.230902 0.748870 -0.095390
v -0.242098 0.745319 -0.085781
v -0.118922 0.623549 -0.049051
v -0.118922 0.623549 -0.049051
v -0.242098 0.745319 -0.085781
v -0.253402 0.735236 -0.086915
v -0.136702 0.611691 -0.052202
v -0.136702 0.611691 -0.052202
v -0.253402 0.735236 -0.086915
v -0.258287 0.724861 -0.096869
v -0.148470 0.602803 -0.067662
vn 0.4946 0.2899 0.8193
vn 0.7598 -0.2221 -0.6111
vn 0.2896 -0.3368 -0.8960
vn -0.9597 -0.1842 0.2123
vn -0.9291 0.2274 -0.2917
vn 0.3853 -0.5297 0.7556
vn 0.7122 -0.0560 -0.6997
vn 0.4921 0.2537 0.8327
vn 0.9965 0.0435 0.0716
vn -0.4733 -0.1647 0.8654
vn 0.2910 -0.1100 0.9504
vn 0.0360 0.2336 -0.9717
vn 0.5695 0.4706 -0.6740
vn 0.3773 0.2233 -0.8988
vn -0.8697 0.4453 -0.2129
vn 0.8820 -0.1886 -0.4319
vn -0.3646 -0.8574 0.3633
vn 0.5507 0.3712 -0.7476
vn 0.6226 -0.7622 0.1771
vn 0.7512 0.2094 -0.6259
vn -0.5138 0.8576 -0.0249
vn -0.6414 -0.2689 0.7185
vn -0.0064 -0.8393 0.5437
vn 0.7260 0.6284 -0.2792
vn 0.3944 -0.4460 -0.8034
vn 0.4563 -0.8712 0.1812
vn -0.5391 0.1977 -0.8187
vn -0.3013 0.1595 0.9401
vn -0.7690 0.2382 0.5932
vn 0.7408 0.2743 0.6131
vn -0.0000 -1.0000 -0.0000
vn 0.0493 0.2550 -0.9657
vn 0.9162 0.3832 0.1168
vn 0.6690 0.3552 -0.6529
vn -0.7000 -0.1081 -0.7059
vn -0.1987 0.1782 -0.9637
vn 0.8556 -0.1263 0.5020
vn 0.0407 0.8855 -0.4628
vn 0.2213 0.9483 -0.2276
vn -0.0309 0.9995 0.0066
vn 0.1835 0.7635 0.6192
vn -0.1001 0.7112 0.6958
vn -0.8505 -0.0815 0.5196
vn -0.9564 0.0383 0.2897
vn -0.7146 0.5030 -0.4862
vn -0.5272 0.5925 -0.6091
vn 0.7054 0.6918 0.1542
vn 0.4968 0.7910 0.3570
vn -0.7526 0.5179 0.4067
vn -0.7754 0.6182 0.1285
vn -0.9607 0.2058 0.1864
vn -0.6535 0.3145 0.6885
vn -0.7664 0.0267 0.6418
vn 0.2629 -0.9609 -0.0870
vn 0.6120 -0.0367 0.7900
vn 0.4166 -0.0673 0.9066
vn 0.4423 0.1694 -0.8807
vn 0.8045 -0.3788 -0.4574
vn 0.7410 -0.2954 -0.6031
vn 0.7528 0.1946 -0.6288
vn -0.2662 0.3412 0.9015
vn -0.2334 0.3509 0.9068
vn -0.9958 0.0886 0.0218
vn 0.0492 0.2282 -0.9724
vn -0.4413 0.2622 -0.8582
vn -0.8592 -0.1248 -0.4961
vn 0.8321 -0.1772 -0.5256
vn 0.5424 0.4530 -0.7075
vn -0.5346 0.0126 -0.8450
vn -0.9425 -0.1603 -0.2932
vn -0.2822 0.9337 0.2205
vn 0.6015 0.7819 -0.1639
vn -0.5169 -0.5109 0.6869
vn -0.1311 -0.6690 0.7316
vn 0.4057 0.3278 -0.8532
vn 0.4014 0.8909 -0.2125
vn 0.2026 -0.1028 -0.9738
vn -0.9839 0.1538 0.0909
vn 0.5190 -0.2145 -0.8274
vn 0.9396 0.1035 -0.3263
vn 0.5182 -0.7341 0.4388
vn -0.2283 -0.8192 -0.5261
vn -0.8904 -0.4551 -0.0062
vn -0.0743 -0.2006 0.9769
vn -0.0733 -0.4644 0.8826
vn -0.6504 0.4209 0.6323
vn -0.6359 -0.2398 0.7335
vn -0.6508 -0.2192 0.7270
vn -0.8625 0.2311 0.4501
vn 0.3929 -0.4455 -0.8045
vn 0.6334 -0.4273 -0.6452
vn 0.0516 0.2833 0.9576
vn -0.8096 0.5845 -0.0535
vn 0.8577 -0.1419 -0.4942
vn 0.7655 -0.5375 0.3537
vn -0.5107 0.5928 0.6227
vn 0.3282 0.9422 0.0680
vn 0.4798 0.0106 0.8773
vn 0.2747 0.6644 0.6951
vn -0.6924 0.6913 0.2065
vn -0.7970 -0.5986 -0.0810
vn -0.9682 -0.1270 -0.2155
vn 0.4977 0.8480 0.1822
vn 0.3823 0.3643 0.8492
vn 0.7278 -0.1285 0.6737
vn -0.3577 0.8917 -0.2774
vn -0.4327 0.1446 -0.8899
vn -0.5663 0.3043 0.7660
vn -0.5377 -0.8428 -0.0232
vn 0.3810 0.1038 -0.9187
vn -0.4857 -0.0791 0.8705
vn 0.1322 -0.0703 -0.9887
vn 0.7143 0.3267 -0.6189
vn -0.3302 -0.0794 0.9405
vn 0.8550 -0.2853 0.4331
vn -0.9008 0.4159 -0.1252
vn 0.3703 -0.2014 -0.9068
vn 0.3002 -0.0317 0.9533
vn -0.5109 0.2738 0.8149
vn 0.2089 0.0369 -0.9772
vn -0.5086 -0.0254 0.8606
vn -0.9354 -0.0427 -0.3510
vn -0.5377 0.0256 -0.8427
vn 0.5275 0.0840 0.8454
vn -0.4738 -0.6346 0.6105
vn 0.4794 0.6496 -0.5900
vn 0.8721 -0.4176 0.2549
vn -0.8810 0.4165 -0.2245
vn 0.1678 0.5418 0.8236
vn -0.4864 -0.5571 -0.6731
vn 0.9223 0.2951 -0.2497
vn 0.3586 -0.3009 0.8837
vn 0.4546 0.8829 -0.1177
vn 0.0078 0.9641 0.2656
vn -0.4866 0.5306 0.6941
vn -0.7442 -0.2993 0.5971
vn 0.2342 -0.2584 0.9372
vn 0.9682 0.0519 -0.2447
vn -0.2170 0.2738 -0.9370
vn -0.7293 -0.1109 0.6751
vn -0.9993 0.0261 -0.0273
vn -0.6181 -0.0221 -0.7858
vn 0.6144 0.2247 0.7563
vn 0.5693 -0.6980 0.4344
vn 0.8333 -0.0357 -0.5516
vn 0.7528 0.0398 -0.6571
vn -0.9101 0.1493 0.3865
vn 0.7304 -0.2833 0.6215
vn -0.1454 -0.2807 0.9487
vn -0.9935 0.1135 0.0120
vn -0.1137 0.3760 -0.9196
vn -0.6447 -0.1024 0.7575
vn 0.6563 0.2937 -0.6950
vn -0.3449 -0.5085 -0.7890
vn 0.9187 0.2414 -0.3127
vn -0.7279 0.1305 0.6732
vn 0.4882 -0.2010 -0.8493
vn 0.0380 0.4119 0.9104
vn -0.9333 -0.1715 0.3153
vn 0.7732 0.2836 -0.5672
vn -0.7280 -0.2249 0.6476
vn -0.4552 0.8744 -0.1678
vn -0.1436 0.7376 0.6598
vn 0.3768 0.7063 0.5994
vn 0.6633 0.3379 -0.6677
vn 0.4985 -0.8305 -0.2484
vn -0.1251 -0.2770 0.9527
vn -0.4364 0.4292 0.7908
vn -0.4253 0.8688 0.2535
vn 0.9710 -0.1062 0.2143
vn 0.3644 0.7960 0.4833
vn -0.8925 0.4349 -0.1197
vn 0.1388 -0.2510 -0.9580
vn -0.9565 -0.2913 0.0183
vn -0.3570 0.6858 0.6342
vn -0.9950 -0.0949 0.0303
vn -0.8952 0.2174 0.3891
vn -0.8966 0.4414 -0.0346
vn -0.8213 -0.4853 0.2999
vn 0.9915 -0.0405 -0.1234
vn 0.3620 -0.8775 0.3145
vn 0.2428 0.8985 -0.3658
vn -0.3717 0.9063 -0.2012
vn 0.9084 0.3714 -0.1921
vn -0.9249 0.2977 0.2363
vn -0.3551 -0.8047 0.4758
vn 0.1295 0.9415 -0.3110
vn 0.9555 0.0919 -0.2803
vn 0.4774 -0.1487 -0.8660
vn 0.0518 -0.1275 -0.9905
vn 0.9966 -0.0081 -0.0814
vn -0.6136 0.1916 0.7660
vn 0.1733 0.1750 0.9692
vn -0.6867 -0.4982 0.5294
vn -0.5694 -0.8142 0.1139
vn 0.6317 0.3579 -0.6876
vn 0.3776 0.9194 0.1097
vn -0.0436 -0.8569 -0.5136
vn -0.1411 0.8428 0.5194
vn -0.0695 0.9862 -0.1505
vn -0.7240 -0.2830 0.6291
vn -0.5434 0.4196 0.7271
vn 0.6768 0.7347 0.0459
vn 0.5416 0.4324 -0.7209
vn 0.8585 0.4070 -0.3120
vn -0.0049 -0.2829 0.9591
vn -0.8089 0.3317 -0.4854
vn -0.1966 0.3773 -0.9050
vn 0.4859 -0.3156 0.8150
vn 0.9266 -0.1204 -0.3564
vn -0.3024 0.9330 -0.1951
vn 0.0278 0.8702 -0.4919
vn -0.5080 -0.4291 0.7468
vn -0.3144 -0.3958 0.8628
vn -0.0729 -0.8031 0.5913
vn 0.4985 -0.8574 0.1277
vn 0.8264 -0.3256 -0.4594
vn -0.0922 -0.6605 -0.7451
vn -0.7685 0.2379 0.5939
vn -0.3308 0.7876 0.5199
vn 0.8687 0.1104 -0.4829
vn -0.4934 0.1751 -0.8520
vn -0.1349 0.2228 0.9655
vn -0.6628 -0.0484 -0.7472
vn 0.0977 0.2501 -0.9633
vn 0.7601 0.4878 -0.4294
vn -0.6732 0.7268 -0.1364
vn -0.1393 0.2705 0.9526
vn 0.8577 -0.3223 -0.4005
vn -0.6253 0.7363 0.2585
vn -0.6503 0.6821 0.3344
vn 0.4086 0.8993 -0.1560
vn 0.0955 0.9237 -0.3710
vn 0.0887 -0.1408 0.9861
vn -0.7086 -0.1235 0.6947
vn 0.8267 -0.2178 -0.5189
vn 0.9865 -0.0144 -0.1632
vn 0.1209 -0.0602 0.9908
vn 0.8574 -0.1506 -0.4921
vn 0.3067 -0.3873 -0.8695
vn 0.8416 -0.5007 -0.2026
vn -0.6746 0.4466 0.5878
vn -0.6093 -0.0404 -0.7919
vn 0.5231 0.4819 -0.7030
vn -0.1561 -0.3945 -0.9055
vn 0.2364 0.7262 -0.6455
vn -0.5457 0.7375 -0.3978
vn 0.7937 -0.6077 -0.0279
vn 0.3775 0.9228 -0.0769
vn -0.3684 0.7207 0.5873
vn -0.8829 0.0207 0.4690
vn 0.1644 0.5126 -0.8427
vn 0.8937 0.4374 -0.0999
vn -0.0043 -0.3421 0.9396
vn -0.6898 -0.5351 -0.4877
vn 0.7991 -0.1746 -0.5753
vn -0.1663 -0.9857 0.0255
vn -0.7983 -0.2681 -0.5393
vn -0.0651 -0.1894 0.9797
vn -0.8456 -0.1298 -0.5178
vn -0.9608 -0.2766 0.0171
vn -0.8602 0.5096 0.0209
vn 0.1708 0.8849 0.4334
vn -0.6115 0.7211 0.3257
vn -0.2648 0.9286 0.2600
vn -0.8576 0.1699 -0.4855
vn 0.6947 0.7154 0.0747
vn -0.3407 0.8554 0.3902
vn -0.5172 -0.8303 -0.2075
vn -0.3665 -0.8158 0.4473
vn -0.0756 0.3692 -0.9263
vn -0.4545 -0.2692 -0.8491
vn 0.2682 0.8457 -0.4613
vn 0.1224 -0.2820 0.9516
vn 0.5182 -0.7405 0.4278
vn 0.7303 -0.6828 0.0194
vn 0.7072 -0.3556 -0.6111
vn -0.6755 0.6832 0.2774
vn -0.0797 0.6596 0.7474
vn 0.0587 0.2287 -0.9717
vn -0.2795 -0.7408 -0.6108
vn 0.8187 0.1362 -0.5578
vn -0.8445 -0.1061 0.5250
vn -0.5642 -0.8247 -0.0395
vn -0.7179 -0.6609 0.2190
vn -0.5954 0.2632 0.7591
vn 0.0688 0.8088 0.5840
vn -0.2872 -0.1227 -0.9500
vn 0.4256 0.2086 0.8806
vn 0.7308 0.4101 0.5457
vn -0.1549 -0.0553 0.9864
vn 0.6042 -0.4842 0.6328
vn -0.4401 0.2668 0.8574
vn -0.3115 0.1330 -0.9409
vn -0.8114 0.2980 -0.5029
vn 0.6057 -0.2324 -0.7610
vn 0.8888 -0.4503 0.0850
vn 0.9875 0.0779 -0.1369
vn 0.4340 0.0697 0.8982
vn 0.8829 -0.4022 0.2424
vn -0.8825 0.4145 -0.2223
vn -0.4649 -0.6393 0.6125
vn 0.4729 0.6524 -0.5922
vn 0.9178 0.2839 -0.2776
vn -0.2091 -0.5395 -0.8156
vn 0.1730 0.5420 0.8224
vn -0.8358 -0.5012 -0.2242
vn -0.3363 -0.9417 0.0064
vn 0.6814 0.4735 -0.5581
vn 0.6222 -0.3354 -0.7073
vn -0.7451 -0.2934 0.5990
vn 0.0009 -0.9150 -0.4036
vn -0.2277 0.2743 -0.9343
vn -0.9752 -0.0149 0.2210
vn 0.9997 -0.0031 0.0259
vn -0.3358 -0.0850 -0.9381
vn 0.8826 -0.0598 -0.4663
vn -0.3168 0.1815 0.9310
vn 0.6218 0.2252 0.7501
vn 0.4161 -0.7378 0.5316
vn -0.7679 -0.0284 0.6399
vn 0.0697 -0.6624 0.7459
vn 0.8834 0.1406 -0.4471
vn 0.6278 -0.1390 -0.7659
vn 0.3443 0.5701 0.7459
vn -0.9029 -0.0798 0.4224
vn -0.1664 -0.4514 -0.8767
vn 0.9201 0.3470 -0.1818
vn -0.4875 0.2201 0.8449
vn -0.4618 0.8728 -0.1581
vn 0.1121 -0.8665 0.4864
vn -0.7108 -0.2802 0.6451
vn 0.7091 0.3578 -0.6076
vn -0.9773 0.1952 0.0826
vn 0.9945 -0.0679 -0.0801
vn 0.9481 0.1987 0.2482
vn -0.5295 0.6713 0.5186
vn 0.4824 -0.8530 -0.1992
vn -0.0306 -0.3967 0.9174
vn -0.3939 0.9191 0.0102
vn -0.1776 -0.8219 -0.5412
vn 0.9684 -0.1439 0.2037
vn -0.5415 0.8112 0.2210
vn -0.9573 0.1897 -0.2183
vn 0.1361 0.9020 0.4097
vn 0.0633 -0.9710 -0.2306
vn 0.1154 0.5297 -0.8403
vn -0.0874 0.9437 0.3192
vn -0.0275 0.9380 -0.3455
vn -0.2030 0.4923 0.8464
vn 0.1455 -0.3160 -0.9375
vn -0.9603 -0.2788 0.0089
vn 0.9897 0.0658 0.1274
vn 0.9326 0.3603 0.0211
vn -0.0198 0.9454 0.3254
vn 0.2253 -0.9186 0.3248
vn -0.9223 -0.2761 0.2703
vn -0.4000 -0.7745 0.4899
vn 0.1576 0.9318 -0.3270
vn 0.9151 0.2803 -0.2898
vn -0.9020 0.3678 0.2260
vn 0.4546 -0.4742 -0.7540
vn 0.1341 -0.4199 -0.8976
vn -0.4129 0.5157 0.7507
vn -0.1054 0.5133 0.8517
vn 0.0539 -0.1275 -0.9904
vn -0.7168 0.1615 0.6783
vn 0.9981 -0.0012 0.0615
vn 0.0179 0.2047 0.9787
vn -0.7003 0.6937 -0.1684
vn -0.6636 0.5228 -0.5351
vn -0.2554 0.9557 0.1465
vn -0.6707 -0.1463 -0.7272
vn -0.0013 -0.8187 -0.5742
vn 0.6237 0.4034 -0.6695
vn -0.7081 -0.2260 0.6690
vn -0.4651 -0.8852 0.0076
vn 0.4436 0.1681 -0.8803
vn 0.4623 0.8202 -0.3368
vn 0.1926 0.9530 -0.2340
vn -0.4666 0.5070 0.7248
vn 0.5428 0.4347 -0.7186
vn 0.6770 0.7347 0.0429
vn 0.9566 -0.1082 0.2704
vn -0.4143 -0.5161 0.7497
vn 0.2513 0.6056 -0.7551
vn 0.2513 0.6056 -0.7550
vn -0.3967 0.0654 0.9156
vn -0.3966 0.0654 0.9156
vn 0.8636 -0.2694 -0.4261
vn -0.1824 0.8554 -0.4847
vn -0.1823 0.8554 -0.4848
vn -0.6903 0.7218 0.0504
vn -0.6486 -0.1167 0.7522
vn -0.6487 -0.1164 0.7521
vn -0.6485 -0.1167 0.7522
vn -0.6485 -0.1168 0.7522
vn 0.1587 -0.7808 0.6043
vn 0.1586 -0.7808 0.6043
vn -0.7912 0.3222 0.5197
vn -0.7912 0.3222 0.5198
vn -0.9764 0.2143 -0.0258
vn -0.9764 0.2142 -0.0258
vn 0.7640 0.1710 0.6222
vn 0.9919 0.0823 0.0964
vn 0.0249 0.1418 -0.9896
vn 0.8633 0.1411 -0.4846
vn 0.9775 0.2018 0.0612
vn 0.9775 0.2018 0.0613
vn -0.8792 0.3329 0.3408
vn -0.8730 -0.0628 0.4837
vn -0.8730 -0.0627 0.4836
vn 0.7795 0.2761 0.5623
vn 0.7795 0.2761 0.5622
vn 0.6523 -0.2738 0.7068
vn 0.6522 -0.2738 0.7068
vn 0.6031 -0.3087 -0.7355
vn 0.6031 -0.3087 -0.7356
vn -0.6776 0.4927 0.5460
vn -0.6776 0.4927 0.5459
vn -0.3093 -0.3387 -0.8886
vn -0.3093 -0.3388 -0.8886
vn -0.8932 -0.4218 -0.1557
vn -0.6822 -0.4775 0.5537
vn 0.2051 -0.6470 0.7344
vn 0.2051 -0.6469 0.7344
vn -0.8450 0.5343 -0.0227
vn -0.0956 0.5566 -0.8252
vn -0.0956 0.5566 -0.8253
vn -0.0956 0.5567 -0.8252
vn 0.9693 0.1260 -0.2111
vn 0.9693 0.1261 -0.2111
vn -0.3340 0.9426 -0.0058
vn -0.3340 0.9425 -0.0058
vn 0.8140 -0.2845 0.5064
vn 0.9837 0.1204 0.1336
vn 0.9837 0.1205 0.1336
vn 0.9837 0.1204 0.1337
vn -0.1743 0.9675 0.1833
vn -0.6405 -0.7398 -0.2062
vn -0.5768 -0.6988 0.4230
vn -0.5768 -0.6988 0.4231
vn -0.5957 0.5639 -0.5720
vn -0.2730 -0.4768 0.8355
vn -0.2730 -0.4768 0.8356
vn -0.2731 -0.4768 0.8355
vn -0.2950 -0.1634 0.9414
vn -0.2950 -0.1635 0.9414
vn -0.6791 0.7340 0.0121
vn -0.6790 0.7340 0.0119
vn 0.1779 0.3785 -0.9084
vn 0.1779 0.3784 -0.9084
vn 0.1780 0.3784 -0.9084
vn 0.9635 -0.0084 -0.2677
vn 0.9635 -0.0083 -0.2677
vn 0.7245 -0.0381 -0.6883
vn 0.7245 -0.0381 -0.6882
vn -0.7739 -0.6163 -0.1456
vn -0.7739 -0.6164 -0.1456
vn -0.7739 -0.6164 -0.1457
vn 0.4555 -0.3512 -0.8181
vn 0.4555 -0.3511 -0.8181
vn 0.6973 0.7099 0.0989
vn 0.2674 0.7817 0.5633
vn 0.2675 0.7818 0.5633
vn 0.2675 0.7817 0.5633
vn -0.5876 0.3032 0.7502
vn -0.5877 0.3031 0.7501
vn 0.5207 -0.3176 -0.7925
vn 0.5340 0.8452 -0.0222
vn 0.2302 -0.9386 0.2568
vn 0.2303 -0.9386 0.2569
vn -0.3080 -0.3111 -0.8991
vn -0.2764 0.9360 -0.2181
vn 0.2941 0.0933 0.9512
vn 0.2941 0.0934 0.9512
vn -0.8729 -0.2977 -0.3866
vn -0.8729 -0.2977 -0.3865
vn -0.9058 -0.2785 0.3195
vn 0.4684 -0.2364 -0.8513
vn -0.9035 -0.1545 0.3998
vn -0.9035 -0.1545 0.3997
vn -0.3375 0.7179 -0.6089
vn -0.3374 0.7179 -0.6089
vn -0.7240 -0.4905 -0.4849
vn -0.7241 -0.4905 -0.4849
vn 0.5099 0.4713 0.7197
vn 0.5098 0.4713 0.7197
vn 0.5980 -0.7836 0.1683
vn 0.3158 -0.6851 -0.6564
vn 0.3159 -0.6851 -0.6564
vn -0.7957 -0.3559 -0.4901
vn 0.1839 0.3013 -0.9356
vn 0.1840 0.3012 -0.9356
vn 0.4134 -0.8487 -0.3299
vn -0.7644 -0.4277 -0.4825
vn -0.0307 -0.9653 0.2594
vn -0.0306 -0.9653 0.2594
vn -0.0307 -0.9653 0.2593
vn -0.1826 -0.1433 0.9727
vn -0.1825 -0.1434 0.9727
vn -0.1825 -0.1433 0.9727
vn 0.1433 -0.8624 0.4855
vn 0.1432 -0.8624 0.4855
vn -0.1759 0.8783 -0.4445
vn -0.1760 0.8783 -0.4445
vn -0.3151 -0.7195 -0.6189
vn 0.9249 -0.1327 -0.3562
vn 0.9249 -0.1328 -0.3562
vn 0.4946 0.6817 0.5391
vn 0.5175 -0.8366 0.1796
vn 0.9070 0.0005 0.4212
vn 0.9070 0.0004 0.4212
vn -0.8766 0.0567 -0.4778
vn -0.8766 0.0567 -0.4779
vn -0.8866 -0.0052 -0.4625
vn -0.8294 0.1511 0.5378
vn -0.8294 0.1510 0.5379
vn -0.8293 0.1509 0.5380
vn -0.1688 0.3811 -0.9090
vn -0.1688 0.3812 -0.9090
vn 0.4400 0.8943 0.0807
vn 0.4400 0.8943 0.0808
vn 0.4400 0.8944 0.0807
vn 0.3604 0.8710 -0.3338
vn 0.3603 0.8710 -0.3339
vn 0.0312 -0.0382 0.9988
vn 0.2785 0.3096 0.9092
vn 0.2785 0.3095 0.9092
vn 0.4333 -0.3193 -0.8428
vn -0.7279 -0.6792 -0.0940
vn -0.4544 -0.5518 -0.6993
vn 0.1178 -0.0502 -0.9918
vn 0.4065 0.6135 0.6770
vn -0.2060 0.0826 0.9751
vn -0.6116 -0.3840 0.6917
vn -0.6115 -0.3840 0.6918
vt 0.000000 1.000000
s 0
usemtl Material.007
f 1/1/1 2/1/1 3/1/1
f 4/1/2 5/1/2 6/1/2
f 7/1/3 8/1/3 9/1/3
f 10/1/4 11/1/4 12/1/4
f 13/1/5 14/1/5 15/1/5
f 16/1/6 17/1/6 18/1/6
f 19/1/7 20/1/7 21/1/7
f 22/1/8 23/1/8 24/1/8
f 25/1/9 26/1/9 27/1/9
f 28/1/10 29/1/10 30/1/10
f 31/1/11 32/1/11 33/1/11
f 34/1/12 35/1/12 36/1/12
f 37/1/13 38/1/13 39/1/13
f 40/1/14 41/1/14 42/1/14
s 1
f 43/1/15 44/1/15 45/1/15
s 0
f 46/1/16 47/1/16 48/1/16
f 49/1/17 50/1/17 51/1/17
f 52/1/18 53/1/18 54/1/18
f 55/1/19 56/1/19 57/1/19
f 58/1/20 59/1/20 60/1/20
f 61/1/21 62/1/21 63/1/21
f 64/1/22 65/1/22 66/1/22
f 67/1/23 68/1/23 69/1/23
f 70/1/24 71/1/24 72/1/24
f 73/1/25 74/1/25 75/1/25
f 76/1/26 77/1/26 78/1/26
f 79/1/27 80/1/27 81/1/27
f 82/1/28 83/1/28 84/1/28
f 85/1/29 86/1/29 87/1/29
f 88/1/30 89/1/30 90/1/30
f 91/1/31 92/1/31 93/1/31
f 94/1/32 95/1/32 96/1/32
f 97/1/33 98/1/33 99/1/33
f 100/1/34 101/1/34 102/1/34
f 103/1/35 104/1/35 105/1/35
f 106/1/36 107/1/36 108/1/36
f 109/1/37 110/1/37 111/1/37
f 112/1/38 113/1/38 114/1/38
f 115/1/39 116/1/39 117/1/39
f 118/1/40 119/1/40 120/1/40
f 121/1/41 122/1/41 123/1/41
f 124/1/42 125/1/42 126/1/42
f 127/1/43 128/1/43 129/1/43
f 130/1/44 131/1/44 132/1/44
f 133/1/45 134/1/45 135/1/45
f 136/1/46 137/1/46 138/1/46
f 139/1/47 140/1/47 141/1/47
f 142/1/48 143/1/48 144/1/48
f 145/1/49 146/1/49 147/1/49
f 148/1/50 149/1/50 150/1/50
f 151/1/51 152/1/51 153/1/51
f 154/1/52 155/1/52 156/1/52
f 157/1/53 158/1/53 159/1/53
f 160/1/54 161/1/54 162/1/54
f 163/1/31 164/1/31 165/1/31
f 166/1/55 167/1/55 168/1/55
f 169/1/56 170/1/56 171/1/56
f 172/1/57 173/1/57 174/1/57
f 175/1/58 176/1/58 177/1/58
f 178/1/59 179/1/59 180/1/59
f 181/1/60 182/1/60 183/1/60
f 184/1/61 185/1/61 186/1/61
f 187/1/62 188/1/62 189/1/62
f 190/1/63 191/1/63 192/1/63
f 193/1/64 194/1/64 195/1/64
f 196/1/65 197/1/65 198/1/65
f 199/1/66 200/1/66 201/1/66
f 202/1/67 203/1/67 204/1/67
f 205/1/68 206/1/68 207/1/68
f 208/1/69 209/1/69 210/1/69
f 211/1/70 212/1/70 213/1/70
f 214/1/71 215/1/71 216/1/71
f 217/1/72 218/1/72 219/1/72
f 220/1/73 221/1/73 222/1/73
f 223/1/74 224/1/74 225/1/74
f 226/1/75 227/1/75 228/1/75
f 229/1/76 230/1/76 231/1/76
f 232/1/77 233/1/77 234/1/77
f 235/1/78 236/1/78 237/1/78
f 238/1/79 239/1/79 240/1/79
f 241/1/80 242/1/80 243/1/80
f 244/1/81 245/1/81 246/1/81
s 1
f 247/1/82 248/1/82 249/1/82
s 0
f 250/1/83 251/1/83 252/1/83
f 253/1/84 254/1/84 255/1/84
f 256/1/85 257/1/85 258/1/85
f 259/1/86 260/1/86 261/1/86
f 262/1/87 263/1/87 264/1/87
f 265/1/88 266/1/88 267/1/88
f 268/1/89 269/1/89 270/1/89
f 271/1/90 272/1/90 273/1/90
f 274/1/91 275/1/91 276/1/91
f 277/1/92 278/1/92 279/1/92
f 280/1/93 281/1/93 282/1/93
f 283/1/94 284/1/94 285/1/94
f 286/1/95 287/1/95 288/1/95
f 289/1/96 290/1/96 291/1/96
f 292/1/97 293/1/97 294/1/97
f 295/1/98 296/1/98 297/1/98
f 298/1/99 299/1/99 300/1/99
f 301/1/100 302/1/100 303/1/100
f 304/1/101 305/1/101 306/1/101
f 307/1/102 308/1/102 309/1/102
f 310/1/103 311/1/103 312/1/103
f 313/1/104 314/1/104 315/1/104
s 1
f 316/1/105 317/1/105 318/1/105
s 0
f 319/1/106 320/1/106 321/1/106
f 322/1/107 323/1/107 324/1/107
f 325/1/108 326/1/108 327/1/108
f 328/1/109 329/1/109 330/1/109
f 331/1/110 332/1/110 333/1/110
f 334/1/111 335/1/111 336/1/111
f 337/1/112 338/1/112 339/1/112
f 340/1/113 341/1/113 342/1/113
f 343/1/114 344/1/114 345/1/114
f 346/1/115 347/1/115 348/1/115
s 1
f 349/1/116 350/1/116 351/1/116
s 0
f 352/1/117 353/1/117 354/1/117
f 355/1/118 356/1/118 357/1/118
f 358/1/119 359/1/119 360/1/119
f 361/1/120 362/1/120 363/1/120
f 364/1/121 365/1/121 366/1/121
f 367/1/122 368/1/122 369/1/122
f 370/1/123 371/1/123 372/1/123
f 373/1/124 374/1/124 375/1/124
f 376/1/125 377/1/125 378/1/125
f 379/1/126 380/1/126 381/1/126
f 382/1/127 383/1/127 384/1/127
f 385/1/128 386/1/128 387/1/128
f 388/1/129 389/1/129 390/1/129
f 391/1/130 392/1/130 393/1/130
f 394/1/131 395/1/131 396/1/131
f 397/1/132 398/1/132 399/1/132
f 400/1/133 401/1/133 402/1/133
f 403/1/134 404/1/134 405/1/134
f 406/1/135 407/1/135 408/1/135
f 409/1/136 410/1/136 411/1/136
f 412/1/137 413/1/137 414/1/137
f 415/1/138 416/1/138 417/1/138
f 418/1/139 419/1/139 420/1/139
f 421/1/140 422/1/140 423/1/140
f 424/1/141 425/1/141 426/1/141
f 427/1/142 428/1/142 429/1/142
f 430/1/143 431/1/143 432/1/143
f 433/1/144 434/1/144 435/1/144
s 1
f 436/1/145 437/1/145 438/1/145
s 0
f 439/1/146 440/1/146 441/1/146
f 442/1/147 443/1/147 444/1/147
f 445/1/148 446/1/148 447/1/148
f 448/1/149 449/1/149 450/1/149
f 451/1/150 452/1/150 453/1/150
f 454/1/151 455/1/151 456/1/151
f 457/1/152 458/1/152 459/1/152
f 460/1/153 461/1/153 462/1/153
f 463/1/154 464/1/154 465/1/154
f 466/1/155 467/1/155 468/1/155
f 469/1/156 470/1/156 471/1/156
f 472/1/157 473/1/157 474/1/157
f 475/1/158 476/1/158 477/1/158
f 478/1/159 479/1/159 480/1/159
f 481/1/160 482/1/160 483/1/160
f 484/1/161 485/1/161 486/1/161
f 487/1/162 488/1/162 489/1/162
f 490/1/163 491/1/163 492/1/163
f 493/1/164 494/1/164 495/1/164
f 496/1/165 497/1/165 498/1/165
f 499/1/166 500/1/166 501/1/166
f 502/1/167 503/1/167 504/1/167
f 505/1/168 506/1/168 507/1/168
f 508/1/169 509/1/169 510/1/169
f 511/1/170 512/1/170 513/1/170
f 514/1/171 515/1/171 516/1/171
f 517/1/172 518/1/172 519/1/172
f 520/1/173 521/1/173 522/1/173
f 523/1/174 524/1/174 525/1/174
f 526/1/175 527/1/175 528/1/175
f 529/1/176 530/1/176 531/1/176
f 532/1/177 533/1/177 534/1/177
f 535/1/178 536/1/178 537/1/178
f 538/1/179 539/1/179 540/1/179
f 541/1/180 542/1/180 543/1/180
f 544/1/181 545/1/181 546/1/181
f 547/1/182 548/1/182 549/1/182
f 550/1/183 551/1/183 552/1/183
f 553/1/184 554/1/184 555/1/184
f 556/1/185 557/1/185 558/1/185
f 559/1/186 560/1/186 561/1/186
f 562/1/187 563/1/187 564/1/187
f 565/1/188 566/1/188 567/1/188
f 568/1/189 569/1/189 570/1/189
f 571/1/190 572/1/190 573/1/190
f 574/1/191 575/1/191 576/1/191
f 577/1/192 578/1/192 579/1/192
f 580/1/193 581/1/193 582/1/193
f 583/1/194 584/1/194 585/1/194
f 586/1/195 587/1/195 588/1/195
f 589/1/196 590/1/196 591/1/196
f 592/1/197 593/1/197 594/1/197
f 595/1/198 596/1/198 597/1/198
f 598/1/199 599/1/199 600/1/199
f 601/1/200 602/1/200 603/1/200
f 604/1/201 605/1/201 606/1/201
f 607/1/202 608/1/202 609/1/202
f 610/1/203 611/1/203 612/1/203
f 613/1/204 614/1/204 615/1/204
f 616/1/205 617/1/205 618/1/205
f 619/1/206 620/1/206 621/1/206
s 1
f 622/1/207 623/1/207 624/1/207
s 0
f 625/1/208 626/1/208 627/1/208
f 628/1/209 629/1/209 630/1/209
f 631/1/210 632/1/210 633/1/210
f 634/1/211 635/1/211 636/1/211
f 637/1/212 638/1/212 639/1/212
f 640/1/213 641/1/213 642/1/213
f 643/1/214 644/1/214 645/1/214
f 646/1/215 647/1/215 648/1/215
f 649/1/216 650/1/216 651/1/216
f 652/1/217 653/1/217 654/1/217
f 655/1/218 656/1/218 657/1/218
f 658/1/219 659/1/219 660/1/219
f 661/1/220 662/1/220 663/1/220
f 664/1/221 665/1/221 666/1/221
f 667/1/222 668/1/222 669/1/222
f 670/1/31 671/1/31 672/1/31
f 673/1/31 674/1/31 675/1/31
f 676/1/223 677/1/223 678/1/223
f 679/1/31 680/1/31 681/1/31
f 682/1/224 683/1/224 684/1/224
f 685/1/225 686/1/225 687/1/225
f 688/1/226 689/1/226 690/1/226
f 691/1/227 692/1/227 693/1/227
f 694/1/228 695/1/228 696/1/228
f 697/1/229 698/1/229 699/1/229
f 700/1/230 701/1/230 702/1/230
f 703/1/231 704/1/231 705/1/231
f 706/1/232 707/1/232 708/1/232
f 709/1/233 710/1/233 711/1/233
f 712/1/234 713/1/234 714/1/234
f 715/1/31 716/1/31 717/1/31
f 718/1/235 719/1/235 720/1/235
f 721/1/236 722/1/236 723/1/236
f 724/1/237 725/1/237 726/1/237
f 727/1/31 728/1/31 729/1/31
f 730/1/31 731/1/31 732/1/31
f 733/1/238 734/1/238 735/1/238
f 736/1/239 737/1/239 738/1/239
f 739/1/240 740/1/240 741/1/240
f 742/1/241 743/1/241 744/1/241
f 745/1/242 746/1/242 747/1/242
f 748/1/243 749/1/243 750/1/243
f 751/1/244 752/1/244 753/1/244
f 754/1/245 755/1/245 756/1/245
f 757/1/246 758/1/246 759/1/246
f 760/1/247 761/1/247 762/1/247
f 763/1/248 764/1/248 765/1/248
f 766/1/249 767/1/249 768/1/249
f 769/1/250 770/1/250 771/1/250
f 772/1/251 773/1/251 774/1/251
f 775/1/252 776/1/252 777/1/252
f 778/1/253 779/1/253 780/1/253
f 781/1/254 782/1/254 783/1/254
f 784/1/255 785/1/255 786/1/255
s 1
f 787/1/256 788/1/256 789/1/256
s 0
f 790/1/257 791/1/257 792/1/257
f 793/1/258 794/1/258 795/1/258
f 796/1/259 797/1/259 798/1/259
f 799/1/260 800/1/260 801/1/260
f 802/1/261 803/1/261 804/1/261
f 805/1/262 806/1/262 807/1/262
f 808/1/263 809/1/263 810/1/263
f 811/1/264 812/1/264 813/1/264
f 814/1/265 815/1/265 816/1/265
f 817/1/266 818/1/266 819/1/266
f 820/1/267 821/1/267 822/1/267
f 823/1/268 824/1/268 825/1/268
f 826/1/269 827/1/269 828/1/269
f 829/1/270 830/1/270 831/1/270
f 832/1/271 833/1/271 834/1/271
f 835/1/272 836/1/272 837/1/272
f 838/1/273 839/1/273 840/1/273
f 841/1/274 842/1/274 843/1/274
f 844/1/275 845/1/275 846/1/275
f 847/1/276 848/1/276 849/1/276
f 850/1/277 851/1/277 852/1/277
f 853/1/278 854/1/278 855/1/278
f 856/1/279 857/1/279 858/1/279
f 859/1/280 860/1/280 861/1/280
f 862/1/281 863/1/281 864/1/281
f 865/1/282 866/1/282 867/1/282
f 868/1/283 869/1/283 870/1/283
f 871/1/284 872/1/284 873/1/284
f 874/1/285 875/1/285 876/1/285
f 877/1/286 878/1/286 879/1/286
f 880/1/287 881/1/287 882/1/287
f 883/1/288 884/1/288 885/1/288
f 886/1/289 887/1/289 888/1/289
f 889/1/290 890/1/290 891/1/290
f 892/1/291 893/1/291 894/1/291
f 895/1/292 896/1/292 897/1/292
f 898/1/293 899/1/293 900/1/293
f 901/1/294 902/1/294 903/1/294
f 904/1/295 905/1/295 906/1/295
f 907/1/296 908/1/296 909/1/296
f 910/1/297 911/1/297 912/1/297
f 913/1/298 914/1/298 915/1/298
f 916/1/299 917/1/299 918/1/299
f 919/1/300 920/1/300 921/1/300
f 922/1/301 923/1/301 924/1/301
f 925/1/302 926/1/302 927/1/302
f 928/1/303 929/1/303 930/1/303
f 931/1/304 932/1/304 933/1/304
f 934/1/305 935/1/305 936/1/305
f 937/1/306 938/1/306 939/1/306
f 940/1/307 941/1/307 942/1/307
f 943/1/308 944/1/308 945/1/308
f 946/1/309 947/1/309 948/1/309
f 949/1/310 950/1/310 951/1/310
f 952/1/311 953/1/311 954/1/311
f 955/1/312 956/1/312 957/1/312
f 958/1/313 959/1/313 960/1/313
f 961/1/314 962/1/314 963/1/314
f 964/1/315 965/1/315 966/1/315
f 967/1/316 968/1/316 969/1/316
f 970/1/317 971/1/317 972/1/317
f 973/1/318 974/1/318 975/1/318
f 976/1/319 977/1/319 978/1/319
f 979/1/320 980/1/320 981/1/320
f 982/1/321 983/1/321 984/1/321
f 985/1/322 986/1/322 987/1/322
f 988/1/323 989/1/323 990/1/323
f 991/1/324 992/1/324 993/1/324
f 994/1/325 995/1/325 996/1/325
f 997/1/326 998/1/326 999/1/326
f 1000/1/327 1001/1/327 1002/1/327
f 1003/1/328 1004/1/328 1005/1/328
f 1006/1/329 1007/1/329 1008/1/329
f 1009/1/330 1010/1/330 1011/1/330
f 1012/1/331 1013/1/331 1014/1/331
f 1015/1/332 1016/1/332 1017/1/332
f 1018/1/333 1019/1/333 1020/1/333
f 1021/1/334 1022/1/334 1023/1/334
f 1024/1/335 1025/1/335 1026/1/335
f 1027/1/336 1028/1/336 1029/1/336
f 1030/1/337 1031/1/337 1032/1/337
f 1033/1/338 1034/1/338 1035/1/338
f 1036/1/339 1037/1/339 1038/1/339
f 1039/1/340 1040/1/340 1041/1/340
f 1042/1/341 1043/1/341 1044/1/341
f 1045/1/342 1046/1/342 1047/1/342
f 1048/1/343 1049/1/343 1050/1/343
f 1051/1/344 1052/1/344 1053/1/344
f 1054/1/345 1055/1/345 1056/1/345
f 1057/1/346 1058/1/346 1059/1/346
f 1060/1/347 1061/1/347 1062/1/347
f 1063/1/348 1064/1/348 1065/1/348
f 1066/1/349 1067/1/349 1068/1/349
s 1
f 1069/1/350 1070/1/350 1071/1/350
s 0
f 1072/1/351 1073/1/351 1074/1/351
f 1075/1/352 1076/1/352 1077/1/352
f 1078/1/353 1079/1/353 1080/1/353
s 1
f 1081/1/354 1082/1/354 1083/1/354
s 0
f 1084/1/355 1085/1/355 1086/1/355
f 1087/1/356 1088/1/356 1089/1/356
f 1090/1/357 1091/1/357 1092/1/357
f 1093/1/358 1094/1/358 1095/1/358
f 1096/1/359 1097/1/359 1098/1/359
f 1099/1/360 1100/1/360 1101/1/360
f 1102/1/361 1103/1/361 1104/1/361
f 1105/1/362 1106/1/362 1107/1/362
f 1108/1/363 1109/1/363 1110/1/363
s 1
f 1111/1/364 1112/1/364 1113/1/364
s 0
f 1114/1/365 1115/1/365 1116/1/365
f 1117/1/366 1118/1/366 1119/1/366
f 1120/1/367 1121/1/367 1122/1/367
f 1123/1/368 1124/1/368 1125/1/368
f 1126/1/369 1127/1/369 1128/1/369
f 1129/1/370 1130/1/370 1131/1/370
f 1132/1/371 1133/1/371 1134/1/371
f 1135/1/372 1136/1/372 1137/1/372
f 1138/1/373 1139/1/373 1140/1/373
f 1141/1/374 1142/1/374 1143/1/374
f 1144/1/375 1145/1/375 1146/1/375
f 1147/1/376 1148/1/376 1149/1/376
f 1150/1/377 1151/1/377 1152/1/377
f 1153/1/378 1154/1/378 1155/1/378
f 1156/1/379 1157/1/379 1158/1/379
f 1159/1/380 1160/1/380 1161/1/380
f 1162/1/381 1163/1/381 1164/1/381
f 1165/1/382 1166/1/382 1167/1/382
f 1168/1/383 1169/1/383 1170/1/383
s 1
f 1171/1/384 1172/1/384 1173/1/384
f 1171/1/384 1173/1/384 1174/1/384
f 1175/1/385 1176/1/385 1177/1/385
f 1175/1/385 1177/1/385 1178/1/385
f 1179/1/386 1180/1/387 1181/1/386
f 1179/1/386 1181/1/386 1182/1/386
f 1183/1/388 1184/1/388 1185/1/388
f 1183/1/388 1185/1/388 1186/1/389
f 1187/1/390 1188/1/390 1189/1/390
f 1187/1/390 1189/1/390 1190/1/390
f 1191/1/391 1192/1/392 1193/1/392
f 1191/1/391 1193/1/392 1194/1/391
f 1195/1/393 1196/1/393 1197/1/393
f 1195/1/393 1197/1/393 1198/1/393
f 1199/1/394 1200/1/395 1201/1/396
f 1199/1/394 1201/1/396 1202/1/397
f 1203/1/398 1204/1/398 1205/1/398
f 1203/1/398 1205/1/398 1206/1/399
f 1207/1/400 1208/1/400 1209/1/400
f 1207/1/400 1209/1/400 1210/1/401
f 1211/1/402 1212/1/403 1213/1/403
f 1211/1/402 1213/1/403 1214/1/402
f 1215/1/404 1216/1/404 1217/1/404
f 1215/1/404 1217/1/404 1218/1/404
f 1219/1/405 1220/1/405 1221/1/405
f 1219/1/405 1221/1/405 1222/1/405
f 1223/1/406 1224/1/406 1225/1/406
f 1223/1/406 1225/1/406 1226/1/406
f 1227/1/407 1228/1/407 1229/1/407
f 1227/1/407 1229/1/407 1230/1/407
f 1231/1/408 1232/1/408 1233/1/409
f 1231/1/408 1233/1/409 1234/1/408
f 1235/1/410 1236/1/410 1237/1/410
f 1235/1/410 1237/1/410 1238/1/410
f 1239/1/411 1240/1/412 1241/1/411
f 1239/1/411 1241/1/411 1242/1/411
f 1243/1/413 1244/1/413 1245/1/413
f 1243/1/413 1245/1/413 1246/1/414
f 1247/1/415 1248/1/415 1249/1/415
f 1247/1/415 1249/1/415 1250/1/416
f 1251/1/417 1252/1/417 1253/1/418
f 1251/1/417 1253/1/418 1254/1/417
f 1255/1/419 1256/1/420 1257/1/419
f 1255/1/419 1257/1/419 1258/1/419
f 1259/1/421 1260/1/422 1261/1/421
f 1259/1/421 1261/1/421 1262/1/421
f 1263/1/423 1264/1/423 1265/1/423
f 1263/1/423 1265/1/423 1266/1/423
f 1267/1/424 1268/1/424 1269/1/424
f 1267/1/424 1269/1/424 1270/1/424
f 1271/1/425 1272/1/425 1273/1/426
f 1271/1/425 1273/1/426 1274/1/425
f 1275/1/427 1276/1/427 1277/1/427
f 1275/1/427 1277/1/427 1278/1/427
f 1279/1/428 1280/1/429 1281/1/430
f 1279/1/428 1281/1/430 1282/1/430
f 1283/1/431 1284/1/432 1285/1/431
f 1283/1/431 1285/1/431 1286/1/431
f 1287/1/433 1288/1/434 1289/1/434
f 1287/1/433 1289/1/434 1290/1/433
f 1291/1/435 1292/1/435 1293/1/435
f 1291/1/435 1293/1/435 1294/1/435
f 1295/1/436 1296/1/437 1297/1/437
f 1295/1/436 1297/1/437 1298/1/438
f 1299/1/439 1300/1/439 1301/1/439
f 1299/1/439 1301/1/439 1302/1/439
f 1303/1/440 1304/1/440 1305/1/440
f 1303/1/440 1305/1/440 1306/1/440
f 1307/1/441 1308/1/442 1309/1/441
f 1307/1/441 1309/1/441 1310/1/441
f 1311/1/443 1312/1/443 1313/1/443
f 1311/1/443 1313/1/443 1314/1/443
f 1315/1/444 1316/1/444 1317/1/445
f 1315/1/444 1317/1/445 1318/1/446
f 1319/1/447 1320/1/448 1321/1/448
f 1319/1/447 1321/1/448 1322/1/448
s 0
f 1323/1/449 1324/1/449 1325/1/449
s 1
f 1323/1/450 1325/1/450 1326/1/450
f 1327/1/451 1328/1/452 1329/1/453
f 1327/1/451 1329/1/453 1330/1/453
f 1331/1/454 1332/1/454 1333/1/455
f 1331/1/454 1333/1/455 1334/1/455
f 1335/1/456 1336/1/456 1337/1/457
f 1335/1/456 1337/1/457 1338/1/456
f 1339/1/458 1340/1/459 1341/1/460
f 1339/1/458 1341/1/460 1342/1/459
f 1343/1/461 1344/1/461 1345/1/462
f 1343/1/461 1345/1/462 1346/1/461
f 1347/1/463 1348/1/463 1349/1/463
f 1347/1/463 1349/1/463 1350/1/463
f 1351/1/464 1352/1/465 1353/1/465
f 1351/1/464 1353/1/465 1354/1/466
f 1355/1/467 1356/1/467 1357/1/468
f 1355/1/467 1357/1/468 1358/1/468
f 1359/1/469 1360/1/469 1361/1/469
f 1359/1/469 1361/1/469 1362/1/469
f 1363/1/470 1364/1/470 1365/1/470
f 1363/1/470 1365/1/470 1366/1/470
s 0
f 1367/1/471 1368/1/471 1369/1/471
s 1
f 1367/1/472 1369/1/472 1370/1/472
f 1371/1/473 1372/1/473 1373/1/473
f 1371/1/473 1373/1/473 1374/1/473
f 1375/1/474 1376/1/474 1377/1/474
f 1375/1/474 1377/1/474 1378/1/474
f 1379/1/475 1380/1/475 1381/1/475
f 1379/1/475 1381/1/475 1382/1/476
f 1383/1/477 1384/1/478 1385/1/478
f 1383/1/477 1385/1/478 1386/1/477
f 1387/1/479 1388/1/479 1389/1/479
f 1387/1/479 1389/1/479 1390/1/479
f 1391/1/480 1392/1/480 1393/1/480
f 1391/1/480 1393/1/480 1394/1/480
f 1395/1/481 1396/1/482 1397/1/481
f 1395/1/481 1397/1/481 1398/1/481
f 1399/1/483 1400/1/483 1401/1/483
f 1399/1/483 1401/1/483 1402/1/484
f 1403/1/485 1404/1/485 1405/1/486
f 1403/1/485 1405/1/486 1406/1/486
f 1407/1/487 1408/1/488 1409/1/488
f 1407/1/487 1409/1/488 1410/1/487
f 1411/1/489 1412/1/489 1413/1/489
f 1411/1/489 1413/1/489 1414/1/489
f 1415/1/490 1416/1/490 1417/1/490
f 1415/1/490 1417/1/490 1418/1/491
f 1419/1/492 1420/1/492 1421/1/492
f 1419/1/492 1421/1/492 1422/1/492
f 1423/1/493 1424/1/493 1425/1/493
f 1423/1/493 1425/1/493 1426/1/494
f 1427/1/495 1428/1/495 1429/1/495
f 1427/1/495 1429/1/495 1430/1/495
f 1431/1/496 1432/1/496 1433/1/496
f 1431/1/496 1433/1/496 1434/1/496
f 1435/1/497 1436/1/498 1437/1/497
f 1435/1/497 1437/1/497 1438/1/499
f 1439/1/500 1440/1/501 1441/1/501
f 1439/1/500 1441/1/501 1442/1/502
f 1443/1/503 1444/1/504 1445/1/503
f 1443/1/503 1445/1/503 1446/1/503
f 1447/1/505 1448/1/505 1449/1/505
f 1447/1/505 1449/1/505 1450/1/506
f 1451/1/507 1452/1/507 1453/1/507
f 1451/1/507 1453/1/507 1454/1/507
f 1455/1/508 1456/1/508 1457/1/509
f 1455/1/508 1457/1/509 1458/1/509
f 1459/1/510 1460/1/510 1461/1/510
f 1459/1/510 1461/1/510 1462/1/510
f 1463/1/511 1464/1/511 1465/1/511
f 1463/1/511 1465/1/511 1466/1/511
f 1467/1/512 1468/1/512 1469/1/513
f 1467/1/512 1469/1/513 1470/1/513
f 1471/1/514 1472/1/515 1473/1/514
f 1471/1/514 1473/1/514 1474/1/514
f 1475/1/516 1476/1/516 1477/1/516
f 1475/1/516 1477/1/516 1478/1/516
f 1479/1/517 1480/1/518 1481/1/519
f 1479/1/517 1481/1/519 1482/1/518
f 1483/1/520 1484/1/521 1485/1/521
f 1483/1/520 1485/1/521 1486/1/520
f 1487/1/522 1488/1/523 1489/1/523
f 1487/1/522 1489/1/523 1490/1/524
f 1491/1/525 1492/1/526 1493/1/525
f 1491/1/525 1493/1/525 1494/1/525
f 1495/1/527 1496/1/527 1497/1/527
f 1495/1/527 1497/1/527 1498/1/527
f 1499/1/528 1500/1/529 1501/1/528
f 1499/1/528 1501/1/528 1502/1/528
f 1503/1/530 1504/1/530 1505/1/530
f 1503/1/530 1505/1/530 1506/1/530
f 1507/1/531 1508/1/531 1509/1/531
f 1507/1/531 1509/1/531 1510/1/531
f 1511/1/532 1512/1/532 1513/1/532
f 1511/1/532 1513/1/532 1514/1/532
f 1515/1/533 1516/1/533 1517/1/533
f 1515/1/533 1517/1/533 1518/1/533
f 1519/1/534 1520/1/534 1521/1/534
f 1519/1/534 1521/1/534 1522/1/534
f 1523/1/535 1524/1/535 1525/1/535
f 1523/1/535 1525/1/535 1526/1/535
f 1527/1/536 1528/1/537 1529/1/537
f 1527/1/536 1529/1/537 1530/1/536
