# Blender 4.5.4 LTS
# www.blender.org
mtllib bush_log.mtl
o Lowpoly_Tree_12_Material_0
v -0.101564 0.209290 0.049797
v -0.103602 0.196205 0.048836
v -0.107668 0.206887 0.042874
v -0.107668 0.206887 0.042874
v -0.103602 0.196205 0.048836
v -0.121716 0.196064 0.052158
v -0.036912 0.160722 0.066827
v -0.014235 0.139716 0.056169
v -0.002972 0.160112 0.074142
v 0.094159 0.212091 0.097141
v 0.087021 0.210698 0.086013
v 0.083741 0.206533 0.089569
v 0.092921 0.209796 0.084541
v 0.087021 0.210698 0.086013
v 0.094159 0.212091 0.097141
v -0.045442 0.164375 0.049440
v -0.042878 0.171595 0.046556
v -0.022730 0.151646 0.035659
v -0.022730 0.151646 0.035659
v -0.042878 0.171595 0.046556
v -0.042546 0.182139 0.052774
v -0.007488 0.145241 0.048665
v -0.000544 0.154397 0.064875
v -0.014235 0.139716 0.056169
v -0.022730 0.151646 0.035659
v -0.005173 0.172083 0.054471
v -0.008254 0.152504 0.042369
v -0.005173 0.172083 0.054471
v -0.022730 0.151646 0.035659
v -0.042546 0.182139 0.052774
v -0.021358 0.093496 0.018881
v -0.020557 0.074782 -0.001034
v -0.021075 0.053770 0.015635
v 0.103541 0.215479 0.095056
v 0.094159 0.212091 0.097141
v 0.137196 0.267173 0.125794
v 0.103541 0.215479 0.095056
v 0.096380 0.198035 0.090309
v 0.092921 0.209796 0.084541
v -0.001020 0.102387 -0.013627
v -0.007728 0.104675 0.003306
v 0.006466 0.097786 -0.008169
v -0.014512 0.091032 -0.006522
v -0.007728 0.104675 0.003306
v -0.001020 0.102387 -0.013627
v -0.003095 0.221520 -0.092881
v -0.011457 0.220342 -0.086628
v -0.003950 0.218606 -0.081542
v 0.022229 0.287305 -0.156960
v 0.029324 0.281955 -0.161676
v 0.022168 0.282567 -0.162063
v 0.029069 0.285625 -0.155468
v 0.029324 0.281955 -0.161676
v 0.022229 0.287305 -0.156960
v 0.006084 0.045203 -0.004143
v -0.004440 0.046165 -0.010800
v 0.007309 0.083953 -0.026801
v -0.013813 0.089756 0.022668
v 0.001784 0.093136 0.017871
v -0.004191 0.091071 0.022908
v -0.021075 0.053770 0.015635
v -0.009937 0.054587 0.021780
v -0.013813 0.089756 0.022668
v -0.013813 0.089756 0.022668
v -0.021358 0.093496 0.018881
v -0.021075 0.053770 0.015635
v -0.023576 0.276581 -0.029928
v -0.029865 0.271186 -0.024258
v -0.022764 0.271849 -0.024743
v -0.030438 0.274864 -0.030420
v -0.029865 0.271186 -0.024258
v -0.023576 0.276581 -0.029928
v 0.007309 0.083953 -0.026801
v 0.012555 0.086519 -0.022538
v 0.006084 0.045203 -0.004143
v -0.008221 0.220099 -0.097219
v -0.011457 0.220342 -0.086628
v -0.003095 0.221520 -0.092881
v -0.046388 0.284206 0.012125
v -0.041904 0.283493 0.015874
v -0.043015 0.281570 0.007947
v -0.215264 0.286138 0.126450
v -0.222152 0.280882 0.126299
v -0.217101 0.281767 0.130077
v -0.219560 0.284355 0.121939
v -0.222152 0.280882 0.126299
v -0.215264 0.286138 0.126450
v -0.110201 0.222887 0.049658
v -0.128816 0.220188 0.068808
v -0.105266 0.218514 0.055298
v -0.128816 0.220188 0.068808
v -0.130711 0.208915 0.075356
v -0.101401 0.199132 0.066858
v 0.137196 0.267173 0.125794
v 0.136248 0.266526 0.130744
v 0.141949 0.263473 0.126077
v 0.001965 0.201258 -0.087562
v -0.003950 0.218606 -0.081542
v -0.003272 0.209382 -0.081703
v -0.012124 0.212597 -0.080450
v -0.011457 0.220342 -0.086628
v -0.009145 0.202499 -0.089969
v -0.112336 0.219587 0.041989
v -0.107668 0.206887 0.042874
v -0.121716 0.196064 0.052158
v -0.016967 0.048111 -0.008536
v -0.020557 0.074782 -0.001034
v -0.009799 0.082774 -0.023911
v 0.009103 0.080072 -0.001289
v 0.001784 0.093136 0.017871
v 0.002464 0.054840 0.018795
v -0.003272 0.209382 -0.081703
v -0.012124 0.212597 -0.080450
v -0.007158 0.200664 -0.080628
v 0.076636 0.193969 0.092958
v 0.095130 0.208391 0.100745
v 0.083741 0.206533 0.089569
v 0.076636 0.193969 0.092958
v 0.089575 0.192955 0.094296
v 0.095130 0.208391 0.100745
v 0.083741 0.206533 0.089569
v 0.095130 0.208391 0.100745
v 0.094159 0.212091 0.097141
v 0.136248 0.266526 0.130744
v 0.137196 0.267173 0.125794
v 0.094159 0.212091 0.097141
v 0.096380 0.198035 0.090309
v 0.103541 0.215479 0.095056
v 0.141949 0.263473 0.126077
v 0.141949 0.263473 0.126077
v 0.140435 0.262043 0.130810
v 0.096380 0.198035 0.090309
v 0.140435 0.262043 0.130810
v 0.136248 0.266526 0.130744
v 0.089575 0.192955 0.094296
v 0.137196 0.267173 0.125794
v 0.141949 0.263473 0.126077
v 0.103541 0.215479 0.095056
v -0.219560 0.284355 0.121939
v -0.174079 0.250339 0.097953
v -0.182067 0.248604 0.095131
v -0.171551 0.248579 0.102800
v -0.128816 0.220188 0.068808
v -0.174079 0.250339 0.097953
v -0.176515 0.239851 0.106644
v -0.130711 0.208915 0.075356
v -0.172918 0.244318 0.106395
v -0.002024 0.113609 0.016256
v 0.001784 0.093136 0.017871
v 0.006466 0.097786 -0.008169
v -0.014235 0.139716 0.056169
v -0.013813 0.089756 0.022668
v -0.004191 0.091071 0.022908
v -0.007728 0.104675 0.003306
v -0.014512 0.091032 -0.006522
v -0.022730 0.151646 0.035659
v -0.029440 0.144396 0.042599
v -0.021358 0.093496 0.018881
v -0.029503 0.145376 0.054864
v -0.007488 0.145241 0.048665
v -0.002024 0.113609 0.016256
v -0.008254 0.152504 0.042369
v -0.121716 0.196064 0.052158
v -0.047909 0.162703 0.057250
v -0.118690 0.192284 0.059404
v -0.105294 0.189256 0.064670
v -0.047909 0.162703 0.057250
v -0.036912 0.160722 0.066827
v -0.041131 0.177495 0.067719
v -0.042546 0.182139 0.052774
v -0.099512 0.204326 0.058507
v -0.101564 0.209290 0.049797
v -0.099512 0.204326 0.058507
v -0.093615 0.199283 0.051467
v 0.076636 0.193969 0.092958
v 0.074697 0.194450 0.084088
v 0.037074 0.174399 0.081720
v 0.040737 0.170504 0.071450
v 0.037074 0.174399 0.081720
v 0.074697 0.194450 0.084088
v 0.084732 0.193420 0.083293
v 0.040737 0.170504 0.071450
v 0.074697 0.194450 0.084088
v 0.043927 0.160657 0.076836
v 0.040737 0.170504 0.071450
v 0.084732 0.193420 0.083293
v 0.084732 0.193420 0.083293
v 0.074697 0.194450 0.084088
v 0.084697 0.203353 0.079640
v 0.043927 0.160657 0.076836
v -0.000544 0.154397 0.064875
v 0.003425 0.160162 0.056235
v -0.005173 0.172083 0.054471
v -0.003186 0.174095 0.069876
v 0.037074 0.174399 0.081720
v -0.004888 0.000000 -0.005203
v -0.025203 0.000000 -0.001646
v -0.016967 0.048111 -0.008536
v 0.015906 0.000000 0.025231
v 0.011668 0.000000 0.005606
v 0.006084 0.045203 -0.004143
v -0.014918 0.000000 0.044844
v 0.004770 0.000000 0.040968
v 0.002464 0.054840 0.018795
v -0.036440 0.000000 0.014313
v -0.032124 0.000000 0.033842
v -0.021075 0.053770 0.015635
v 0.006084 0.045203 -0.004143
v -0.004888 0.000000 -0.005203
v -0.004440 0.046165 -0.010800
v 0.002464 0.054840 0.018795
v 0.015906 0.000000 0.025231
v 0.009103 0.080072 -0.001289
v -0.009937 0.054587 0.021780
v -0.021075 0.053770 0.015635
v -0.014918 0.000000 0.044844
v -0.016967 0.048111 -0.008536
v -0.036440 0.000000 0.014313
v -0.020557 0.074782 -0.001034
v -0.112336 0.219587 0.041989
v -0.110201 0.222887 0.049658
v -0.061059 0.258139 0.020666
v -0.061059 0.258139 0.020666
v -0.105266 0.218514 0.055298
v -0.055252 0.252761 0.020094
v -0.055252 0.252761 0.020094
v -0.105266 0.218514 0.055298
v -0.101564 0.209290 0.049797
v 0.084697 0.203353 0.079640
v 0.092592 0.195329 0.086414
v 0.084732 0.193420 0.083293
v 0.092592 0.195329 0.086414
v 0.084697 0.203353 0.079640
v 0.081179 0.239601 0.046705
v 0.076405 0.284976 0.044466
v 0.077218 0.241769 0.053212
v 0.081214 0.243101 0.053904
v 0.069856 0.285087 0.044226
v 0.077026 0.239779 0.048824
v 0.077218 0.241769 0.053212
v 0.076405 0.284976 0.044466
v 0.081179 0.239601 0.046705
v 0.071883 0.283677 0.038742
v -0.001746 0.086403 -0.029570
v -0.009799 0.082774 -0.023911
v 0.010858 0.128766 -0.060927
v 0.022042 0.127061 -0.066489
v 0.027744 0.128661 -0.062594
v 0.007309 0.083953 -0.026801
v 0.015311 0.125967 -0.065599
v 0.007309 0.083953 -0.026801
v -0.001746 0.086403 -0.029570
v 0.006466 0.097786 -0.008169
v 0.009103 0.080072 -0.001289
v 0.027848 0.132261 -0.056597
v 0.010964 0.132391 -0.055116
v -0.001020 0.102387 -0.013627
v 0.015777 0.136493 -0.052320
v 0.001965 0.201258 -0.087562
v 0.027848 0.132261 -0.056597
v 0.027744 0.128661 -0.062594
v -0.029503 0.145376 0.054864
v -0.014235 0.139716 0.056169
v -0.036912 0.160722 0.066827
v -0.003186 0.174095 0.069876
v -0.041131 0.177495 0.067719
v -0.002972 0.160112 0.074142
v -0.036912 0.160722 0.066827
v -0.002972 0.160112 0.074142
v -0.041131 0.177495 0.067719
v -0.002972 0.160112 0.074142
v -0.014235 0.139716 0.056169
v -0.000544 0.154397 0.064875
v -0.005173 0.172083 0.054471
v -0.042546 0.182139 0.052774
v -0.003186 0.174095 0.069876
v -0.041131 0.177495 0.067719
v -0.003186 0.174095 0.069876
v -0.042546 0.182139 0.052774
v -0.008254 0.152504 0.042369
v -0.005173 0.172083 0.054471
v 0.003425 0.160162 0.056235
v 0.096380 0.198035 0.090309
v 0.140435 0.262043 0.130810
v 0.089575 0.192955 0.094296
v 0.103541 0.215479 0.095056
v 0.092921 0.209796 0.084541
v 0.094159 0.212091 0.097141
v -0.016967 0.048111 -0.008536
v -0.009799 0.082774 -0.023911
v -0.004440 0.046165 -0.010800
v 0.002464 0.054840 0.018795
v 0.001784 0.093136 0.017871
v -0.009937 0.054587 0.021780
v -0.013813 0.089756 0.022668
v -0.009937 0.054587 0.021780
v 0.001784 0.093136 0.017871
v 0.069856 0.285087 0.044226
v 0.076405 0.284976 0.044466
v 0.071883 0.283677 0.038742
v -0.041904 0.283493 0.015874
v -0.039111 0.279885 0.012161
v -0.043015 0.281570 0.007947
v 0.004770 0.000000 0.040968
v -0.014918 0.000000 0.044844
v -0.010154 0.000000 0.019744
v -0.101401 0.199132 0.066858
v -0.130711 0.208915 0.075356
v -0.105294 0.189256 0.064670
v 0.136248 0.266526 0.130744
v 0.140435 0.262043 0.130810
v 0.141949 0.263473 0.126077
v -0.032124 0.000000 0.033842
v -0.036440 0.000000 0.014313
v -0.004888 0.000000 -0.005203
v 0.011668 0.000000 0.005606
v 0.015906 0.000000 0.025231
v 0.001965 0.201258 -0.087562
v 0.001705 0.216570 -0.096275
v -0.003950 0.218606 -0.081542
v -0.003095 0.221520 -0.092881
v -0.003950 0.218606 -0.081542
v 0.001705 0.216570 -0.096275
v 0.001705 0.216570 -0.096275
v 0.001965 0.201258 -0.087562
v -0.003263 0.208056 -0.094691
v -0.009145 0.202499 -0.089969
v -0.011457 0.220342 -0.086628
v -0.008221 0.220099 -0.097219
v -0.105294 0.189256 0.064670
v -0.130711 0.208915 0.075356
v -0.118690 0.192284 0.059404
v -0.139177 0.217087 0.060838
v -0.112336 0.219587 0.041989
v -0.121716 0.196064 0.052158
v -0.009799 0.082774 -0.023911
v -0.020557 0.074782 -0.001034
v -0.014512 0.091032 -0.006522
v 0.006084 0.045203 -0.004143
v 0.012555 0.086519 -0.022538
v 0.009103 0.080072 -0.001289
v 0.009103 0.080072 -0.001289
v 0.006466 0.097786 -0.008169
v 0.001784 0.093136 0.017871
v -0.007158 0.200664 -0.080628
v -0.012124 0.212597 -0.080450
v -0.009145 0.202499 -0.089969
v -0.045442 0.164375 0.049440
v -0.022730 0.151646 0.035659
v -0.029440 0.144396 0.042599
v -0.045442 0.164375 0.049440
v -0.029440 0.144396 0.042599
v -0.029503 0.145376 0.054864
v 0.092592 0.195329 0.086414
v 0.096380 0.198035 0.090309
v 0.089575 0.192955 0.094296
v -0.101401 0.199132 0.066858
v -0.105266 0.218514 0.055298
v -0.128816 0.220188 0.068808
v -0.101401 0.199132 0.066858
v -0.099512 0.204326 0.058507
v -0.105266 0.218514 0.055298
v -0.099512 0.204326 0.058507
v -0.101564 0.209290 0.049797
v -0.105266 0.218514 0.055298
v 0.136248 0.266526 0.130744
v 0.094159 0.212091 0.097141
v 0.095130 0.208391 0.100745
v 0.089575 0.192955 0.094296
v 0.136248 0.266526 0.130744
v 0.095130 0.208391 0.100745
v -0.222152 0.280882 0.126299
v -0.182521 0.239387 0.097721
v -0.180623 0.238125 0.103027
v -0.215264 0.286138 0.126450
v -0.171551 0.248579 0.102800
v -0.174079 0.250339 0.097953
v -0.217101 0.281767 0.130077
v -0.176515 0.239851 0.106644
v -0.172918 0.244318 0.106395
v -0.219560 0.284355 0.121939
v -0.215264 0.286138 0.126450
v -0.174079 0.250339 0.097953
v -0.002024 0.113609 0.016256
v 0.006466 0.097786 -0.008169
v -0.007728 0.104675 0.003306
v -0.029440 0.144396 0.042599
v -0.020557 0.074782 -0.001034
v -0.021358 0.093496 0.018881
v -0.002024 0.113609 0.016256
v -0.007488 0.145241 0.048665
v 0.001784 0.093136 0.017871
v -0.039111 0.279885 0.012161
v -0.055252 0.252761 0.020094
v -0.057140 0.251428 0.012576
v -0.043015 0.281570 0.007947
v -0.039111 0.279885 0.012161
v -0.057140 0.251428 0.012576
v -0.041904 0.283493 0.015874
v -0.061059 0.258139 0.020666
v -0.055252 0.252761 0.020094
v -0.039111 0.279885 0.012161
v -0.041904 0.283493 0.015874
v -0.055252 0.252761 0.020094
v -0.046388 0.284206 0.012125
v -0.062783 0.256900 0.013120
v -0.061059 0.258139 0.020666
v -0.041904 0.283493 0.015874
v -0.046388 0.284206 0.012125
v -0.061059 0.258139 0.020666
v -0.043015 0.281570 0.007947
v -0.057140 0.251428 0.012576
v -0.062783 0.256900 0.013120
v -0.046388 0.284206 0.012125
v -0.043015 0.281570 0.007947
v -0.062783 0.256900 0.013120
v -0.105294 0.189256 0.064670
v -0.118690 0.192284 0.059404
v -0.047909 0.162703 0.057250
v -0.121716 0.196064 0.052158
v -0.045442 0.164375 0.049440
v -0.047909 0.162703 0.057250
v -0.101401 0.199132 0.066858
v -0.041131 0.177495 0.067719
v -0.099512 0.204326 0.058507
v -0.093615 0.199283 0.051467
v -0.099512 0.204326 0.058507
v -0.042546 0.182139 0.052774
v -0.103602 0.196205 0.048836
v -0.101564 0.209290 0.049797
v -0.093615 0.199283 0.051467
v 0.039511 0.164259 0.086290
v 0.076636 0.193969 0.092958
v 0.037074 0.174399 0.081720
v 0.092592 0.195329 0.086414
v 0.043927 0.160657 0.076836
v 0.084732 0.193420 0.083293
v 0.089575 0.192955 0.094296
v 0.043927 0.160657 0.076836
v 0.092592 0.195329 0.086414
v 0.089575 0.192955 0.094296
v 0.039511 0.164259 0.086290
v 0.043927 0.160657 0.076836
v 0.089575 0.192955 0.094296
v 0.076636 0.193969 0.092958
v 0.039511 0.164259 0.086290
v 0.083741 0.206533 0.089569
v 0.074697 0.194450 0.084088
v 0.076636 0.193969 0.092958
v 0.083741 0.206533 0.089569
v 0.084697 0.203353 0.079640
v 0.074697 0.194450 0.084088
v 0.037074 0.174399 0.081720
v 0.040737 0.170504 0.071450
v -0.005173 0.172083 0.054471
v 0.040737 0.170504 0.071450
v 0.043927 0.160657 0.076836
v 0.003425 0.160162 0.056235
v -0.005173 0.172083 0.054471
v 0.040737 0.170504 0.071450
v 0.003425 0.160162 0.056235
v -0.004888 0.000000 -0.005203
v 0.006084 0.045203 -0.004143
v 0.011668 0.000000 0.005606
v 0.015906 0.000000 0.025231
v 0.002464 0.054840 0.018795
v 0.004770 0.000000 0.040968
v -0.014918 0.000000 0.044844
v -0.021075 0.053770 0.015635
v -0.032124 0.000000 0.033842
v -0.036440 0.000000 0.014313
v -0.016967 0.048111 -0.008536
v -0.025203 0.000000 -0.001646
v -0.004440 0.046165 -0.010800
v -0.004888 0.000000 -0.005203
v -0.016967 0.048111 -0.008536
v 0.009103 0.080072 -0.001289
v 0.015906 0.000000 0.025231
v 0.006084 0.045203 -0.004143
v -0.009937 0.054587 0.021780
v -0.014918 0.000000 0.044844
v 0.002464 0.054840 0.018795
v -0.020557 0.074782 -0.001034
v -0.036440 0.000000 0.014313
v -0.021075 0.053770 0.015635
v -0.105266 0.218514 0.055298
v -0.061059 0.258139 0.020666
v -0.110201 0.222887 0.049658
v -0.062783 0.256900 0.013120
v -0.112336 0.219587 0.041989
v -0.061059 0.258139 0.020666
v 0.077026 0.239779 0.048824
v 0.081179 0.239601 0.046705
v 0.084697 0.203353 0.079640
v 0.084223 0.242662 0.050863
v 0.092921 0.209796 0.084541
v 0.096380 0.198035 0.090309
v 0.087021 0.210698 0.086013
v 0.077218 0.241769 0.053212
v 0.083741 0.206533 0.089569
v 0.077218 0.241769 0.053212
v 0.087021 0.210698 0.086013
v 0.081214 0.243101 0.053904
v 0.076405 0.284976 0.044466
v 0.081214 0.243101 0.053904
v 0.084223 0.242662 0.050863
v 0.077026 0.239779 0.048824
v 0.071883 0.283677 0.038742
v 0.081179 0.239601 0.046705
v 0.076405 0.284976 0.044466
v 0.084223 0.242662 0.050863
v 0.081179 0.239601 0.046705
v 0.069856 0.285087 0.044226
v 0.077218 0.241769 0.053212
v 0.076405 0.284976 0.044466
v 0.069856 0.285087 0.044226
v 0.071883 0.283677 0.038742
v 0.077026 0.239779 0.048824
v -0.001020 0.102387 -0.013627
v 0.010964 0.132391 -0.055116
v -0.014512 0.091032 -0.006522
v 0.015311 0.125967 -0.065599
v 0.022042 0.127061 -0.066489
v 0.007309 0.083953 -0.026801
v 0.027744 0.128661 -0.062594
v 0.012555 0.086519 -0.022538
v 0.007309 0.083953 -0.026801
v 0.010858 0.128766 -0.060927
v 0.015311 0.125967 -0.065599
v -0.001746 0.086403 -0.029570
v 0.022682 0.136731 -0.052738
v 0.006466 0.097786 -0.008169
v 0.027848 0.132261 -0.056597
v -0.007158 0.200664 -0.080628
v 0.010964 0.132391 -0.055116
v 0.015777 0.136493 -0.052320
v -0.009145 0.202499 -0.089969
v 0.015311 0.125967 -0.065599
v 0.010858 0.128766 -0.060927
v -0.023576 0.276581 -0.029928
v -0.003950 0.218606 -0.081542
v -0.011457 0.220342 -0.086628
v -0.030438 0.274864 -0.030420
v -0.023576 0.276581 -0.029928
v -0.011457 0.220342 -0.086628
v -0.022764 0.271849 -0.024743
v -0.003272 0.209382 -0.081703
v -0.003950 0.218606 -0.081542
v -0.023576 0.276581 -0.029928
v -0.022764 0.271849 -0.024743
v -0.003950 0.218606 -0.081542
v 0.029324 0.281955 -0.161676
v 0.001705 0.216570 -0.096275
v -0.003263 0.208056 -0.094691
v 0.029069 0.285625 -0.155468
v -0.003095 0.221520 -0.092881
v 0.001705 0.216570 -0.096275
v 0.029324 0.281955 -0.161676
v 0.029069 0.285625 -0.155468
v 0.001705 0.216570 -0.096275
v 0.022229 0.287305 -0.156960
v -0.008221 0.220099 -0.097219
v -0.003095 0.221520 -0.092881
v 0.022168 0.282567 -0.162063
v -0.009145 0.202499 -0.089969
v -0.008221 0.220099 -0.097219
v 0.022229 0.287305 -0.156960
v 0.022168 0.282567 -0.162063
v -0.008221 0.220099 -0.097219
v 0.029069 0.285625 -0.155468
v 0.022229 0.287305 -0.156960
v -0.003095 0.221520 -0.092881
v -0.025203 0.000000 -0.001646
v -0.007488 0.145241 0.048665
v -0.008254 0.152504 0.042369
v 0.003425 0.160162 0.056235
v -0.000544 0.154397 0.064875
v -0.009799 0.082774 -0.023911
v -0.001746 0.086403 -0.029570
v 0.007309 0.083953 -0.026801
v -0.004440 0.046165 -0.010800
v -0.139177 0.217087 0.060838
v -0.128816 0.220188 0.068808
v -0.110201 0.222887 0.049658
v -0.112336 0.219587 0.041989
v -0.029503 0.145376 0.054864
v -0.036912 0.160722 0.066827
v -0.047909 0.162703 0.057250
v -0.045442 0.164375 0.049440
v -0.182067 0.248604 0.095131
v -0.182521 0.239387 0.097721
v -0.222152 0.280882 0.126299
v -0.219560 0.284355 0.121939
v -0.180623 0.238125 0.103027
v -0.176515 0.239851 0.106644
v -0.217101 0.281767 0.130077
v -0.222152 0.280882 0.126299
v -0.172918 0.244318 0.106395
v -0.171551 0.248579 0.102800
v -0.215264 0.286138 0.126450
v -0.217101 0.281767 0.130077
v -0.118690 0.192284 0.059404
v -0.180623 0.238125 0.103027
v -0.182521 0.239387 0.097721
v -0.121716 0.196064 0.052158
v -0.118690 0.192284 0.059404
v -0.130711 0.208915 0.075356
v -0.176515 0.239851 0.106644
v -0.180623 0.238125 0.103027
v -0.139177 0.217087 0.060838
v -0.121716 0.196064 0.052158
v -0.182521 0.239387 0.097721
v -0.182067 0.248604 0.095131
v -0.128816 0.220188 0.068808
v -0.139177 0.217087 0.060838
v -0.182067 0.248604 0.095131
v -0.174079 0.250339 0.097953
v -0.130711 0.208915 0.075356
v -0.128816 0.220188 0.068808
v -0.171551 0.248579 0.102800
v -0.172918 0.244318 0.106395
v -0.020557 0.074782 -0.001034
v -0.029440 0.144396 0.042599
v -0.022730 0.151646 0.035659
v -0.014512 0.091032 -0.006522
v -0.004191 0.091071 0.022908
v 0.001784 0.093136 0.017871
v -0.007488 0.145241 0.048665
v -0.014235 0.139716 0.056169
v -0.013813 0.089756 0.022668
v -0.014235 0.139716 0.056169
v -0.029503 0.145376 0.054864
v -0.021358 0.093496 0.018881
v -0.007728 0.104675 0.003306
v -0.022730 0.151646 0.035659
v -0.008254 0.152504 0.042369
v -0.002024 0.113609 0.016256
v -0.042878 0.171595 0.046556
v -0.103602 0.196205 0.048836
v -0.093615 0.199283 0.051467
v -0.042546 0.182139 0.052774
v -0.042878 0.171595 0.046556
v -0.045442 0.164375 0.049440
v -0.121716 0.196064 0.052158
v -0.103602 0.196205 0.048836
v -0.041131 0.177495 0.067719
v -0.101401 0.199132 0.066858
v -0.105294 0.189256 0.064670
v -0.036912 0.160722 0.066827
v -0.000544 0.154397 0.064875
v 0.043927 0.160657 0.076836
v 0.039511 0.164259 0.086290
v -0.002972 0.160112 0.074142
v -0.002972 0.160112 0.074142
v 0.039511 0.164259 0.086290
v 0.037074 0.174399 0.081720
v -0.003186 0.174095 0.069876
v -0.107668 0.206887 0.042874
v -0.057140 0.251428 0.012576
v -0.055252 0.252761 0.020094
v -0.101564 0.209290 0.049797
v -0.112336 0.219587 0.041989
v -0.062783 0.256900 0.013120
v -0.057140 0.251428 0.012576
v -0.107668 0.206887 0.042874
v 0.087021 0.210698 0.086013
v 0.092921 0.209796 0.084541
v 0.084223 0.242662 0.050863
v 0.081214 0.243101 0.053904
v 0.083741 0.206533 0.089569
v 0.077218 0.241769 0.053212
v 0.077026 0.239779 0.048824
v 0.084697 0.203353 0.079640
v 0.096380 0.198035 0.090309
v 0.092592 0.195329 0.086414
v 0.081179 0.239601 0.046705
v 0.084223 0.242662 0.050863
v -0.009799 0.082774 -0.023911
v -0.014512 0.091032 -0.006522
v 0.010964 0.132391 -0.055116
v 0.010858 0.128766 -0.060927
v 0.012555 0.086519 -0.022538
v 0.027744 0.128661 -0.062594
v 0.027848 0.132261 -0.056597
v 0.009103 0.080072 -0.001289
v 0.006466 0.097786 -0.008169
v 0.022682 0.136731 -0.052738
v 0.015777 0.136493 -0.052320
v -0.001020 0.102387 -0.013627
v 0.022042 0.127061 -0.066489
v 0.015311 0.125967 -0.065599
v -0.009145 0.202499 -0.089969
v -0.003263 0.208056 -0.094691
v 0.022042 0.127061 -0.066489
v -0.003263 0.208056 -0.094691
v 0.001965 0.201258 -0.087562
v 0.027744 0.128661 -0.062594
v 0.027848 0.132261 -0.056597
v 0.001965 0.201258 -0.087562
v -0.003272 0.209382 -0.081703
v 0.022682 0.136731 -0.052738
v 0.015777 0.136493 -0.052320
v 0.022682 0.136731 -0.052738
v -0.003272 0.209382 -0.081703
v -0.007158 0.200664 -0.080628
v 0.010858 0.128766 -0.060927
v 0.010964 0.132391 -0.055116
v -0.007158 0.200664 -0.080628
v -0.009145 0.202499 -0.089969
v -0.003272 0.209382 -0.081703
v -0.022764 0.271849 -0.024743
v -0.029865 0.271186 -0.024258
v -0.012124 0.212597 -0.080450
v -0.012124 0.212597 -0.080450
v -0.029865 0.271186 -0.024258
v -0.030438 0.274864 -0.030420
v -0.011457 0.220342 -0.086628
v -0.003263 0.208056 -0.094691
v -0.009145 0.202499 -0.089969
v 0.022168 0.282567 -0.162063
v 0.029324 0.281955 -0.161676
vn 0.7603 -0.0710 -0.6457
vn -0.1496 -0.5247 -0.8380
vn -0.1799 -0.5926 0.7852
vn -0.6091 0.7347 0.2988
vn 0.1025 0.9768 -0.1880
vn -0.5650 -0.1251 -0.8155
vn 0.0359 0.5068 -0.8613
vn 0.6963 -0.7104 0.1030
vn 0.3532 0.4510 -0.8196
vn 0.1900 0.5715 -0.7983
vn -0.9993 -0.0042 -0.0363
vn -0.3800 0.6429 -0.6651
vn 0.7295 -0.1160 -0.6741
vn 0.4829 0.8726 0.0734
vn -0.7044 0.6108 -0.3616
vn 0.0525 0.9662 0.2523
vn 0.0988 0.7286 -0.6777
vn 0.3062 0.8250 -0.4750
vn 0.4432 -0.4629 -0.7676
vn 0.1374 -0.9630 -0.2318
vn -0.4775 -0.0747 0.8754
vn -0.4768 -0.0749 0.8758
vn -0.0226 0.7367 0.6758
vn -0.2426 0.8229 0.5138
vn 0.6881 -0.3824 -0.6167
vn -0.1999 0.9763 -0.0834
vn 0.3654 0.8916 -0.2676
vn -0.5188 0.6643 0.5380
vn -0.5896 0.7651 0.2590
vn 0.2963 0.8628 0.4097
vn 0.3786 0.4165 0.8265
vn 0.5919 0.7768 0.2148
vn 0.7756 0.0460 0.6296
vn -0.9732 -0.0862 -0.2131
vn -0.4177 -0.2151 -0.8828
vn -0.9047 -0.0019 -0.4261
vn 0.9394 0.0249 0.3419
vn 0.1582 0.0511 0.9861
vn -0.6414 0.5159 0.5679
vn -0.1232 -0.3445 0.9307
vn -0.6694 0.4207 0.6123
vn -0.7698 0.6350 -0.0644
vn 0.6899 -0.0877 -0.7185
vn 0.7986 -0.5971 0.0750
vn -0.2983 -0.2651 0.9169
vn 0.3093 0.3291 -0.8922
vn 0.1138 0.6697 -0.7339
vn 0.5587 0.8293 0.0098
vn 0.4063 -0.2786 0.8702
vn 0.9587 0.1947 0.2072
vn 0.0553 -0.5558 0.8295
vn 0.0316 0.5738 -0.8184
vn -0.9870 -0.1603 0.0078
vn 0.9902 0.1350 0.0351
vn -0.3756 -0.8767 -0.3005
vn -0.3795 -0.8904 0.2516
vn 0.3732 0.8954 0.2429
vn 0.7551 0.6300 0.1811
vn -0.4723 0.8685 0.1503
vn -0.3989 0.8012 -0.4461
vn -0.0191 0.4877 -0.8728
vn 0.4037 -0.3349 -0.8514
vn -0.1091 -0.3434 -0.9328
vn 0.2436 -0.8547 -0.4584
vn 0.0318 0.9905 -0.1334
vn -0.1714 -0.1108 -0.9789
vn 0.9747 0.0750 -0.2105
vn 0.1791 0.3752 0.9095
vn -0.9418 0.2640 0.2081
vn 0.5244 -0.1075 -0.8447
vn 0.7734 0.2576 0.5792
vn -0.4681 0.3798 0.7979
vn -0.8129 0.0536 -0.5799
vn -0.6333 0.7592 -0.1504
vn 0.3857 0.3246 0.8637
vn 0.6464 -0.1824 0.7409
vn 0.4151 -0.3127 -0.8543
vn -0.0535 -0.6744 -0.7365
vn -0.2284 0.1890 0.9551
vn -0.9835 -0.1446 0.1086
vn 0.7780 0.0510 -0.6262
vn -0.3415 -0.4914 -0.8012
vn 0.5403 -0.6624 -0.5189
vn 0.0388 -0.6819 -0.7304
vn 0.7519 0.3329 0.5690
vn -0.7102 0.6518 0.2662
vn 0.9448 0.2734 -0.1806
vn -0.3070 -0.6729 0.6731
vn -0.0283 0.2913 0.9562
vn -0.2113 -0.1049 0.9718
vn 0.4195 -0.7194 0.5535
vn 0.2632 0.9517 -0.1582
vn 0.0690 0.9545 0.2901
vn 0.6179 0.3408 -0.7086
vn 0.6789 -0.6647 0.3120
vn -0.3626 0.9225 -0.1324
vn -0.2196 -0.3573 -0.9078
vn 0.2335 0.0276 0.9720
vn 0.2924 0.0081 0.9563
vn 0.0252 0.9704 -0.2402
vn 0.6098 0.7464 -0.2666
vn -0.0000 -1.0000 -0.0000
vn 0.1800 -0.2799 0.9430
vn 0.6660 0.6278 0.4028
vn 0.9234 0.2015 0.3266
vn 0.7703 0.6012 0.2126
vn 0.4865 -0.4259 -0.7629
vn -0.9545 -0.0693 -0.2901
vn -0.3770 -0.7684 0.5171
vn -0.5618 -0.1292 -0.8171
vn -0.9101 0.2200 -0.3511
vn 0.9867 -0.0962 0.1311
vn 0.9516 0.2236 0.2110
vn -0.9160 -0.3830 0.1196
vn -0.5888 -0.2038 -0.7822
vn -0.7718 -0.6341 0.0467
vn 0.5920 -0.8058 -0.0160
vn 0.4521 0.5217 0.7235
vn 0.7924 0.4212 0.4412
vn 0.9270 0.3749 -0.0048
vn -0.8003 0.2973 0.5208
vn -0.2601 -0.2911 0.9207
vn -0.6937 -0.7161 0.0778
vn 0.6348 0.7710 -0.0510
vn 0.3205 -0.2065 0.9245
vn 0.2777 0.7733 -0.5700
vn -0.0444 0.8313 -0.5540
vn -0.9536 -0.2376 0.1849
vn 0.9832 0.1819 -0.0118
vn 0.8382 -0.5328 -0.1162
vn 0.5942 -0.3868 -0.7052
vn 0.1585 0.0664 0.9851
vn 0.6806 -0.1988 0.7052
vn -0.8504 0.5146 0.1098
vn -0.5021 0.5111 0.6976
vn -0.1658 -0.0733 -0.9834
vn -0.6136 0.3425 -0.7115
vn -0.3455 -0.8548 0.3872
vn -0.3746 -0.8753 -0.3057
vn 0.2748 0.7874 0.5518
vn 0.3038 0.8765 -0.3734
vn 0.2450 0.0330 -0.9690
vn -0.3941 0.2972 0.8697
vn 0.4183 -0.3562 -0.8355
vn 0.5829 -0.8122 -0.0215
vn 0.3778 -0.7926 0.4785
vn -0.1091 -0.0859 0.9903
vn -0.8260 0.5235 0.2090
vn -0.7048 0.6531 -0.2770
vn 0.1452 0.9412 -0.3051
vn 0.4325 -0.3208 -0.8426
vn 0.3481 0.1133 -0.9306
vn 0.5432 -0.1123 -0.8320
vn 0.7885 0.2588 0.5580
vn -0.5009 0.3682 0.7833
vn -0.8163 0.0574 -0.5748
vn -0.1941 -0.1162 -0.9741
vn 0.9224 -0.0485 -0.3831
vn 0.2110 0.3640 0.9072
vn -0.9209 0.2559 0.2940
vn -0.1248 0.7282 0.6739
vn -0.5995 0.8004 0.0055
vn -0.3693 -0.6443 -0.6697
vn 0.9508 0.3053 0.0524
vn -0.1286 0.7005 0.7020
vn -0.3321 0.6332 0.6991
vn 0.7081 0.2316 0.6671
vn -0.4486 -0.2497 -0.8582
vn 0.7870 0.0525 -0.6147
vn -0.0327 0.1977 0.9797
vn -0.9369 -0.1787 -0.3003
vn -0.4275 0.7867 0.4454
vn 0.0135 -0.6797 -0.7333
vn 0.6505 -0.6331 -0.4195
vn -0.7683 -0.2171 -0.6022
vn 0.7366 0.3533 0.5767
vn -0.5853 0.1429 0.7981
vn -0.7709 -0.4033 -0.4930
vn 0.5202 0.6593 -0.5428
vn -0.1219 0.6915 -0.7120
vn 0.9641 0.0663 0.2572
vn 0.9638 0.2541 0.0811
vn 0.8380 -0.5199 -0.1659
vn 0.7225 0.2621 0.6397
vn 0.9575 -0.2294 0.1750
vn -0.5777 0.6727 0.4623
vn -0.8072 -0.1880 -0.5595
vn -0.9472 0.2406 -0.2121
vn 0.0137 0.6950 0.7189
vn 0.8376 -0.4878 -0.2460
vn 0.8376 -0.4878 -0.2459
vn -0.1240 -0.4127 -0.9024
vn -0.1240 -0.4126 -0.9024
vn -0.2597 0.9486 -0.1808
vn -0.2596 0.9486 -0.1808
vn -0.2597 0.9486 -0.1809
vn -0.6632 -0.7283 0.1724
vn -0.6633 -0.7283 0.1723
vn -0.6990 -0.2071 -0.6845
vn -0.3321 -0.6817 0.6520
vn -0.3321 -0.6817 0.6519
vn 0.6504 0.3307 0.6838
vn -0.6195 -0.7818 -0.0710
vn -0.0621 -0.7403 0.6694
vn -0.0622 -0.7403 0.6694
vn -0.0622 -0.7403 0.6693
vn -0.6998 -0.2596 -0.6655
vn -0.6998 -0.2595 -0.6655
vn 0.1353 0.7978 -0.5875
vn 0.1353 0.7978 -0.5876
vn 0.7065 0.2769 0.6513
vn 0.7066 0.2769 0.6512
vn 0.7065 0.2769 0.6512
vn -0.8510 0.2065 -0.4829
vn -0.8509 0.2065 -0.4830
vn 0.7509 -0.2458 0.6130
vn -0.3894 -0.5413 0.7452
vn -0.3893 -0.5412 0.7453
vn -0.3894 -0.5412 0.7453
vn -0.3894 -0.5413 0.7453
vn 0.4057 0.5808 -0.7057
vn 0.1602 0.4495 -0.8788
vn 0.1602 0.4494 -0.8788
vn -0.1658 -0.3206 -0.9326
vn -0.1657 -0.3205 -0.9326
vn -0.1657 -0.3206 -0.9326
vn -0.0682 -0.1154 0.9910
vn -0.0683 -0.1154 0.9910
vn -0.0149 -0.8973 0.4411
vn -0.2804 0.3028 0.9109
vn 0.6166 -0.7745 -0.1409
vn -0.3571 -0.2197 -0.9079
vn 0.4065 0.6919 0.5968
vn 0.4064 0.6919 0.5968
vn 0.4065 0.6918 0.5967
vn -0.9832 -0.1822 0.0133
vn 0.8188 -0.2451 -0.5191
vn 0.8188 -0.2452 -0.5192
vn -0.9338 0.2074 -0.2916
vn -0.9339 0.2072 -0.2915
vn 0.9629 -0.2536 0.0918
vn -0.0027 0.7522 0.6589
vn -0.2088 -0.3683 -0.9060
vn -0.2089 -0.3683 -0.9059
vn 0.7079 -0.0090 -0.7062
vn 0.7080 -0.0090 -0.7062
vn 0.7080 -0.0090 -0.7061
vn 0.8368 0.4426 0.3223
vn 0.8368 0.4426 0.3222
vn -0.1499 0.3357 0.9300
vn -0.1500 0.3357 0.9300
vn -0.9673 -0.1993 0.1571
vn -0.0310 -0.6876 0.7254
vn -0.0309 -0.6876 0.7255
vn -0.9745 -0.1610 -0.1564
vn 0.0089 -0.6723 -0.7402
vt 0.000000 1.000000
s 0
usemtl Material.007
f 1/1/1 2/1/1 3/1/1
f 4/1/2 5/1/2 6/1/2
f 7/1/3 8/1/3 9/1/3
f 10/1/4 11/1/4 12/1/4
f 13/1/5 14/1/5 15/1/5
f 16/1/6 17/1/6 18/1/6
f 19/1/7 20/1/7 21/1/7
f 22/1/8 23/1/8 24/1/8
f 25/1/9 26/1/9 27/1/9
f 28/1/10 29/1/10 30/1/10
f 31/1/11 32/1/11 33/1/11
f 34/1/12 35/1/12 36/1/12
f 37/1/13 38/1/13 39/1/13
f 40/1/14 41/1/14 42/1/14
f 43/1/15 44/1/15 45/1/15
s 1
f 46/1/16 47/1/16 48/1/16
s 0
f 49/1/17 50/1/17 51/1/17
f 52/1/18 53/1/18 54/1/18
f 55/1/19 56/1/19 57/1/19
f 58/1/20 59/1/20 60/1/20
f 61/1/21 62/1/21 63/1/21
f 64/1/22 65/1/22 66/1/22
f 67/1/23 68/1/23 69/1/23
f 70/1/24 71/1/24 72/1/24
f 73/1/25 74/1/25 75/1/25
f 76/1/26 77/1/26 78/1/26
s 1
f 79/1/27 80/1/27 81/1/27
s 0
f 82/1/28 83/1/28 84/1/28
f 85/1/29 86/1/29 87/1/29
f 88/1/30 89/1/30 90/1/30
f 91/1/31 92/1/31 93/1/31
f 94/1/32 95/1/32 96/1/32
f 97/1/33 98/1/33 99/1/33
f 100/1/34 101/1/34 102/1/34
f 103/1/35 104/1/35 105/1/35
f 106/1/36 107/1/36 108/1/36
f 109/1/37 110/1/37 111/1/37
f 112/1/38 113/1/38 114/1/38
f 115/1/39 116/1/39 117/1/39
f 118/1/40 119/1/40 120/1/40
f 121/1/41 122/1/41 123/1/41
f 124/1/42 125/1/42 126/1/42
f 127/1/43 128/1/43 129/1/43
f 130/1/44 131/1/44 132/1/44
f 133/1/45 134/1/45 135/1/45
f 136/1/46 137/1/46 138/1/46
f 139/1/47 140/1/47 141/1/47
f 142/1/48 143/1/48 144/1/48
f 145/1/49 146/1/49 147/1/49
f 148/1/50 149/1/50 150/1/50
f 151/1/51 152/1/51 153/1/51
f 154/1/52 155/1/52 156/1/52
f 157/1/53 158/1/53 159/1/53
f 160/1/54 161/1/54 162/1/54
f 163/1/55 164/1/55 165/1/55
f 166/1/56 167/1/56 168/1/56
f 169/1/57 170/1/57 171/1/57
f 172/1/58 173/1/58 174/1/58
f 175/1/59 176/1/59 177/1/59
f 178/1/60 179/1/60 180/1/60
f 181/1/61 182/1/61 183/1/61
f 184/1/62 185/1/62 186/1/62
f 187/1/63 188/1/63 189/1/63
f 190/1/64 191/1/64 192/1/64
f 193/1/65 194/1/65 195/1/65
f 196/1/66 197/1/66 198/1/66
f 199/1/67 200/1/67 201/1/67
f 202/1/68 203/1/68 204/1/68
f 205/1/69 206/1/69 207/1/69
f 208/1/70 209/1/70 210/1/70
f 211/1/71 212/1/71 213/1/71
f 214/1/72 215/1/72 216/1/72
f 217/1/73 218/1/73 219/1/73
f 220/1/74 221/1/74 222/1/74
f 223/1/75 224/1/75 225/1/75
f 226/1/76 227/1/76 228/1/76
f 229/1/77 230/1/77 231/1/77
f 232/1/78 233/1/78 234/1/78
f 235/1/79 236/1/79 237/1/79
f 238/1/80 239/1/80 240/1/80
f 241/1/81 242/1/81 243/1/81
f 244/1/82 245/1/82 246/1/82
f 247/1/83 248/1/83 249/1/83
f 250/1/84 251/1/84 252/1/84
f 253/1/85 254/1/85 255/1/85
f 256/1/86 257/1/86 258/1/86
f 259/1/87 260/1/87 261/1/87
f 262/1/88 263/1/88 264/1/88
f 265/1/89 266/1/89 267/1/89
f 268/1/90 269/1/90 270/1/90
f 271/1/91 272/1/91 273/1/91
f 274/1/92 275/1/92 276/1/92
f 277/1/93 278/1/93 279/1/93
f 280/1/94 281/1/94 282/1/94
f 283/1/95 284/1/95 285/1/95
f 286/1/96 287/1/96 288/1/96
f 289/1/97 290/1/97 291/1/97
f 292/1/98 293/1/98 294/1/98
f 295/1/99 296/1/99 297/1/99
f 298/1/100 299/1/100 300/1/100
f 301/1/101 302/1/101 303/1/101
f 304/1/102 305/1/102 306/1/102
f 307/1/103 308/1/103 309/1/103
f 310/1/104 311/1/104 312/1/104
f 313/1/102 314/1/102 306/1/102
f 315/1/102 316/1/102 306/1/102
f 316/1/102 317/1/102 306/1/102
f 318/1/105 319/1/105 320/1/105
f 321/1/106 322/1/106 323/1/106
f 324/1/107 325/1/107 326/1/107
f 327/1/108 328/1/108 329/1/108
f 330/1/109 331/1/109 332/1/109
f 333/1/110 334/1/110 335/1/110
f 336/1/111 337/1/111 338/1/111
f 339/1/112 340/1/112 341/1/112
f 342/1/113 343/1/113 344/1/113
f 345/1/114 346/1/114 347/1/114
f 348/1/115 349/1/115 350/1/115
f 351/1/116 352/1/116 353/1/116
f 354/1/117 355/1/117 356/1/117
f 357/1/118 358/1/118 359/1/118
f 360/1/119 361/1/119 362/1/119
f 363/1/120 364/1/120 365/1/120
f 366/1/121 367/1/121 368/1/121
f 369/1/122 370/1/122 371/1/122
f 372/1/123 373/1/123 374/1/123
f 375/1/124 376/1/124 377/1/124
f 378/1/125 379/1/125 380/1/125
f 381/1/126 382/1/126 383/1/126
f 384/1/127 385/1/127 386/1/127
f 387/1/128 388/1/128 389/1/128
f 390/1/129 391/1/129 392/1/129
f 393/1/130 394/1/130 395/1/130
f 396/1/131 397/1/131 398/1/131
f 399/1/132 400/1/132 401/1/132
f 402/1/133 403/1/133 404/1/133
f 405/1/134 406/1/134 407/1/134
f 408/1/135 409/1/135 410/1/135
f 411/1/136 412/1/136 413/1/136
f 414/1/137 415/1/137 416/1/137
f 417/1/138 418/1/138 419/1/138
f 420/1/139 421/1/139 422/1/139
s 1
f 423/1/140 424/1/140 425/1/140
s 0
f 426/1/141 427/1/141 428/1/141
f 429/1/142 430/1/142 431/1/142
f 432/1/143 433/1/143 434/1/143
f 435/1/144 436/1/144 437/1/144
f 438/1/145 439/1/145 440/1/145
f 441/1/146 442/1/146 443/1/146
f 444/1/147 445/1/147 446/1/147
f 447/1/148 448/1/148 449/1/148
f 450/1/149 451/1/149 452/1/149
f 453/1/150 454/1/150 455/1/150
f 456/1/151 457/1/151 458/1/151
f 459/1/152 460/1/152 461/1/152
f 462/1/153 463/1/153 464/1/153
f 465/1/154 466/1/154 467/1/154
f 468/1/155 469/1/155 470/1/155
f 471/1/156 472/1/156 473/1/156
f 474/1/157 475/1/157 476/1/157
f 477/1/158 478/1/158 479/1/158
f 480/1/159 481/1/159 482/1/159
f 483/1/160 484/1/160 485/1/160
f 486/1/161 487/1/161 488/1/161
f 489/1/162 490/1/162 491/1/162
s 1
f 492/1/163 493/1/163 494/1/163
s 0
f 495/1/164 496/1/164 497/1/164
s 1
f 498/1/165 499/1/165 500/1/165
s 0
f 501/1/166 502/1/166 503/1/166
f 504/1/167 505/1/167 506/1/167
f 507/1/168 508/1/168 509/1/168
f 510/1/169 511/1/169 512/1/169
f 513/1/170 514/1/170 515/1/170
f 516/1/171 517/1/171 518/1/171
f 519/1/172 520/1/172 521/1/172
f 522/1/173 523/1/173 524/1/173
f 525/1/174 526/1/174 527/1/174
f 528/1/175 529/1/175 530/1/175
f 531/1/176 532/1/176 533/1/176
f 534/1/177 535/1/177 536/1/177
f 537/1/178 538/1/178 539/1/178
f 540/1/179 541/1/179 542/1/179
f 543/1/180 544/1/180 545/1/180
f 546/1/181 547/1/181 548/1/181
f 549/1/182 550/1/182 551/1/182
f 552/1/183 553/1/183 554/1/183
f 555/1/184 556/1/184 557/1/184
f 558/1/185 559/1/185 560/1/185
f 561/1/186 562/1/186 563/1/186
f 564/1/187 565/1/187 566/1/187
f 567/1/188 568/1/188 569/1/188
f 570/1/189 571/1/189 572/1/189
f 314/1/102 573/1/102 306/1/102
f 317/1/102 304/1/102 306/1/102
f 305/1/102 313/1/102 306/1/102
f 573/1/102 315/1/102 306/1/102
s 1
f 574/1/190 575/1/191 576/1/191
f 574/1/190 576/1/191 577/1/191
f 578/1/192 579/1/192 580/1/192
f 578/1/192 580/1/192 581/1/193
f 582/1/194 583/1/195 584/1/196
f 582/1/194 584/1/196 585/1/196
f 586/1/197 587/1/197 588/1/198
f 586/1/197 588/1/198 589/1/197
f 590/1/199 591/1/199 592/1/199
f 590/1/199 592/1/199 593/1/199
f 594/1/200 595/1/200 596/1/200
f 594/1/200 596/1/200 597/1/201
f 598/1/202 599/1/202 600/1/202
f 598/1/202 600/1/202 601/1/202
f 602/1/203 603/1/203 604/1/203
f 602/1/203 604/1/203 605/1/203
f 606/1/204 607/1/204 608/1/205
f 606/1/204 608/1/205 609/1/206
f 610/1/207 611/1/207 612/1/208
f 610/1/207 612/1/208 613/1/208
f 614/1/209 615/1/209 616/1/209
f 614/1/209 616/1/209 617/1/210
f 618/1/211 619/1/211 620/1/212
f 618/1/211 620/1/212 621/1/213
f 622/1/214 623/1/215 624/1/214
f 622/1/214 624/1/214 625/1/214
f 626/1/216 627/1/216 628/1/216
f 626/1/216 628/1/216 629/1/216
f 630/1/217 631/1/218 632/1/219
f 630/1/217 632/1/219 633/1/220
f 634/1/221 635/1/221 636/1/221
f 634/1/221 636/1/221 637/1/221
f 638/1/222 639/1/222 640/1/223
f 638/1/222 640/1/223 641/1/222
f 642/1/224 643/1/225 644/1/226
f 642/1/224 644/1/226 645/1/224
f 646/1/227 647/1/227 648/1/228
f 646/1/227 648/1/228 649/1/227
f 650/1/229 651/1/229 652/1/229
f 650/1/229 652/1/229 653/1/229
f 654/1/230 655/1/230 656/1/230
f 654/1/230 656/1/230 657/1/230
f 658/1/231 659/1/231 660/1/231
f 658/1/231 660/1/231 661/1/231
f 662/1/232 663/1/232 664/1/232
f 662/1/232 664/1/232 665/1/232
f 666/1/233 667/1/234 668/1/235
f 666/1/233 668/1/235 669/1/235
f 670/1/236 671/1/236 672/1/236
f 670/1/236 672/1/236 673/1/236
f 674/1/237 675/1/238 676/1/237
f 674/1/237 676/1/237 677/1/237
f 678/1/239 679/1/239 680/1/240
f 678/1/239 680/1/240 681/1/239
f 682/1/241 683/1/241 684/1/241
f 682/1/241 684/1/241 685/1/241
f 686/1/242 687/1/242 688/1/242
f 686/1/242 688/1/242 689/1/242
f 690/1/243 691/1/243 692/1/244
f 690/1/243 692/1/244 693/1/244
f 694/1/245 695/1/246 696/1/247
f 694/1/245 696/1/247 697/1/245
f 698/1/248 699/1/249 700/1/249
f 698/1/248 700/1/249 701/1/248
f 702/1/250 703/1/250 704/1/251
f 702/1/250 704/1/251 705/1/251
f 706/1/252 707/1/252 708/1/252
f 706/1/252 708/1/252 709/1/252
f 710/1/253 711/1/254 712/1/254
f 710/1/253 712/1/254 713/1/253
f 714/1/255 715/1/255 716/1/255
f 714/1/255 716/1/255 717/1/255
f 718/1/256 719/1/256 720/1/256
f 718/1/256 720/1/256 721/1/256
