# Blender 4.5.4 LTS
# www.blender.org
mtllib bush_leaves.mtl
o Lowpoly_Tree_12_Material.002_0
v -0.185235 0.476995 0.123694
v -0.328748 0.280882 0.120227
v -0.231427 0.215041 0.149107
v -0.206020 0.522449 0.069928
v -0.307832 0.259550 0.013552
v -0.328748 0.280882 0.120227
v -0.180720 0.266166 0.134058
v -0.185235 0.476995 0.123694
v -0.231427 0.215041 0.149107
v -0.204860 0.517698 0.002455
v -0.173761 0.387229 -0.088898
v -0.307832 0.259550 0.013552
v -0.307832 0.259550 0.013552
v -0.188768 0.220823 -0.070136
v -0.258899 0.198555 0.026450
v -0.277630 0.210882 0.116633
v -0.307832 0.259550 0.013552
v -0.258899 0.198555 0.026450
v -0.024921 0.421254 -0.243665
v 0.025917 0.297791 -0.232684
v -0.162342 0.301374 -0.117767
v -0.173761 0.387229 -0.088898
v -0.157686 0.483528 -0.078558
v -0.024921 0.421254 -0.243665
v -0.031134 0.516787 -0.199456
v 0.171529 0.534659 -0.033926
v 0.159087 0.462228 -0.131003
v -0.031134 0.516787 -0.199456
v 0.159087 0.462228 -0.131003
v 0.139578 0.295649 -0.186233
v 0.025917 0.297791 -0.232684
v 0.086834 0.199826 -0.168395
v -0.004424 0.171672 -0.166296
v -0.162342 0.301374 -0.117767
v -0.004424 0.171672 -0.166296
v -0.188768 0.220823 -0.070136
v 0.139578 0.295649 -0.186233
v 0.324114 0.229962 0.064157
v 0.164709 0.168696 -0.097410
v 0.159087 0.462228 -0.131003
v 0.361677 0.346080 0.062646
v 0.139578 0.295649 -0.186233
v 0.361677 0.346080 0.062646
v 0.175667 0.292197 0.327978
v 0.324114 0.229962 0.064157
v 0.285884 0.454199 0.067981
v 0.283672 0.365598 0.239368
v 0.361677 0.346080 0.062646
v 0.171529 0.534659 -0.033926
v 0.285884 0.454199 0.067981
v 0.159087 0.462228 -0.131003
v 0.171529 0.534659 -0.033926
v 0.230144 0.463964 0.207330
v 0.285884 0.454199 0.067981
v 0.230144 0.463964 0.207330
v 0.043353 0.588191 0.168711
v 0.147983 0.471966 0.285952
v 0.283672 0.365598 0.239368
v 0.147983 0.471966 0.285952
v 0.185148 0.372616 0.354433
v 0.175667 0.292197 0.327978
v 0.087844 0.246676 0.305417
v 0.131459 0.169380 0.193782
v 0.178044 0.136546 0.058293
v 0.175667 0.292197 0.327978
v 0.131459 0.169380 0.193782
v 0.037430 0.284724 0.333181
v -0.171537 0.335720 0.268966
v -0.126609 0.163390 0.190534
v 0.185148 0.372616 0.354433
v -0.085813 0.468151 0.284662
v -0.171537 0.335720 0.268966
v -0.126609 0.163390 0.190534
v -0.155897 0.325234 0.171641
v -0.211499 0.193687 0.193149
v -0.171537 0.335720 0.268966
v -0.180164 0.489297 0.163785
v -0.155897 0.325234 0.171641
v 0.175667 0.292197 0.327978
v 0.185148 0.372616 0.354433
v 0.037430 0.284724 0.333181
v 0.147983 0.471966 0.285952
v -0.075745 0.531295 0.212598
v -0.085813 0.468151 0.284662
v -0.075745 0.531295 0.212598
v -0.180164 0.489297 0.163785
v -0.085813 0.468151 0.284662
v -0.155897 0.325234 0.171641
v -0.185235 0.476995 0.123694
v -0.180720 0.266166 0.134058
v -0.155897 0.325234 0.171641
v -0.180720 0.266166 0.134058
v -0.211499 0.193687 0.193149
v -0.258899 0.198555 0.026450
v 0.032032 0.178095 0.030288
v -0.231427 0.215041 0.149107
v 0.032032 0.178095 0.030288
v 0.042350 0.187485 0.166790
v -0.126609 0.163390 0.190534
v -0.188768 0.220823 -0.070136
v 0.005957 0.149339 -0.091110
v -0.258899 0.198555 0.026450
v 0.164709 0.168696 -0.097410
v 0.032032 0.178095 0.030288
v 0.005957 0.149339 -0.091110
v 0.032032 0.178095 0.030288
v 0.131459 0.169380 0.193782
v 0.042350 0.187485 0.166790
v -0.126609 0.163390 0.190534
v -0.211499 0.193687 0.193149
v -0.231427 0.215041 0.149107
v -0.258899 0.198555 0.026450
v -0.231427 0.215041 0.149107
v -0.277630 0.210882 0.116633
v -0.076700 0.513559 0.105020
v 0.043353 0.588191 0.168711
v 0.075000 0.576606 -0.040972
v -0.076700 0.513559 0.105020
v -0.180164 0.489297 0.163785
v -0.075745 0.531295 0.212598
v 0.075000 0.576606 -0.040972
v 0.043353 0.588191 0.168711
v 0.171529 0.534659 -0.033926
v -0.185235 0.476995 0.123694
v -0.206020 0.522449 0.069928
v -0.328748 0.280882 0.120227
v -0.206020 0.522449 0.069928
v -0.204860 0.517698 0.002455
v -0.307832 0.259550 0.013552
v -0.204860 0.517698 0.002455
v -0.157686 0.483528 -0.078558
v -0.173761 0.387229 -0.088898
v -0.307832 0.259550 0.013552
v -0.173761 0.387229 -0.088898
v -0.162342 0.301374 -0.117767
v -0.307832 0.259550 0.013552
v -0.162342 0.301374 -0.117767
v -0.188768 0.220823 -0.070136
v -0.277630 0.210882 0.116633
v -0.328748 0.280882 0.120227
v -0.307832 0.259550 0.013552
v -0.231427 0.215041 0.149107
v -0.328748 0.280882 0.120227
v -0.277630 0.210882 0.116633
v -0.024921 0.421254 -0.243665
v -0.157686 0.483528 -0.078558
v -0.031134 0.516787 -0.199456
v -0.024921 0.421254 -0.243665
v -0.031134 0.516787 -0.199456
v 0.025917 0.297791 -0.232684
v -0.173761 0.387229 -0.088898
v -0.024921 0.421254 -0.243665
v -0.162342 0.301374 -0.117767
v -0.031134 0.516787 -0.199456
v -0.157686 0.483528 -0.078558
v 0.075000 0.576606 -0.040972
v -0.031134 0.516787 -0.199456
v 0.075000 0.576606 -0.040972
v 0.171529 0.534659 -0.033926
v 0.025917 0.297791 -0.232684
v -0.031134 0.516787 -0.199456
v 0.139578 0.295649 -0.186233
v 0.086834 0.199826 -0.168395
v 0.025917 0.297791 -0.232684
v 0.139578 0.295649 -0.186233
v -0.162342 0.301374 -0.117767
v 0.025917 0.297791 -0.232684
v -0.004424 0.171672 -0.166296
v 0.139578 0.295649 -0.186233
v 0.361677 0.346080 0.062646
v 0.324114 0.229962 0.064157
v 0.159087 0.462228 -0.131003
v 0.285884 0.454199 0.067981
v 0.361677 0.346080 0.062646
v 0.361677 0.346080 0.062646
v 0.283672 0.365598 0.239368
v 0.175667 0.292197 0.327978
v 0.285884 0.454199 0.067981
v 0.230144 0.463964 0.207330
v 0.283672 0.365598 0.239368
v 0.086834 0.199826 -0.168395
v 0.139578 0.295649 -0.186233
v 0.164709 0.168696 -0.097410
v 0.171529 0.534659 -0.033926
v 0.043353 0.588191 0.168711
v 0.230144 0.463964 0.207330
v 0.283672 0.365598 0.239368
v 0.230144 0.463964 0.207330
v 0.147983 0.471966 0.285952
v 0.283672 0.365598 0.239368
v 0.185148 0.372616 0.354433
v 0.175667 0.292197 0.327978
v 0.178044 0.136546 0.058293
v 0.324114 0.229962 0.064157
v 0.175667 0.292197 0.327978
v 0.164709 0.168696 -0.097410
v 0.324114 0.229962 0.064157
v 0.178044 0.136546 0.058293
v 0.037430 0.284724 0.333181
v 0.185148 0.372616 0.354433
v -0.171537 0.335720 0.268966
v 0.185148 0.372616 0.354433
v 0.147983 0.471966 0.285952
v -0.085813 0.468151 0.284662
v -0.126609 0.163390 0.190534
v -0.171537 0.335720 0.268966
v -0.155897 0.325234 0.171641
v -0.171537 0.335720 0.268966
v -0.085813 0.468151 0.284662
v -0.180164 0.489297 0.163785
v 0.087844 0.246676 0.305417
v 0.175667 0.292197 0.327978
v 0.037430 0.284724 0.333181
v 0.147983 0.471966 0.285952
v 0.043353 0.588191 0.168711
v -0.075745 0.531295 0.212598
v -0.155897 0.325234 0.171641
v -0.180164 0.489297 0.163785
v -0.185235 0.476995 0.123694
v -0.211499 0.193687 0.193149
v -0.180720 0.266166 0.134058
v -0.231427 0.215041 0.149107
v 0.087844 0.246676 0.305417
v 0.037430 0.284724 0.333181
v -0.126609 0.163390 0.190534
v -0.258899 0.198555 0.026450
v 0.005957 0.149339 -0.091110
v 0.032032 0.178095 0.030288
v -0.231427 0.215041 0.149107
v 0.032032 0.178095 0.030288
v -0.126609 0.163390 0.190534
v -0.188768 0.220823 -0.070136
v -0.004424 0.171672 -0.166296
v 0.005957 0.149339 -0.091110
v -0.004424 0.171672 -0.166296
v 0.086834 0.199826 -0.168395
v 0.005957 0.149339 -0.091110
v 0.086834 0.199826 -0.168395
v 0.164709 0.168696 -0.097410
v 0.005957 0.149339 -0.091110
v 0.164709 0.168696 -0.097410
v 0.178044 0.136546 0.058293
v 0.032032 0.178095 0.030288
v 0.032032 0.178095 0.030288
v 0.178044 0.136546 0.058293
v 0.131459 0.169380 0.193782
v 0.042350 0.187485 0.166790
v 0.131459 0.169380 0.193782
v 0.087844 0.246676 0.305417
v 0.042350 0.187485 0.166790
v 0.087844 0.246676 0.305417
v -0.126609 0.163390 0.190534
v 0.075000 0.576606 -0.040972
v -0.136709 0.519162 0.010809
v -0.076700 0.513559 0.105020
v -0.136709 0.519162 0.010809
v -0.185235 0.476995 0.123694
v -0.076700 0.513559 0.105020
v 0.075000 0.576606 -0.040972
v -0.157686 0.483528 -0.078558
v -0.136709 0.519162 0.010809
v -0.157686 0.483528 -0.078558
v -0.204860 0.517698 0.002455
v -0.136709 0.519162 0.010809
v -0.204860 0.517698 0.002455
v -0.206020 0.522449 0.069928
v -0.136709 0.519162 0.010809
v -0.136709 0.519162 0.010809
v -0.206020 0.522449 0.069928
v -0.185235 0.476995 0.123694
v -0.076700 0.513559 0.105020
v -0.185235 0.476995 0.123694
v -0.180164 0.489297 0.163785
v 0.043353 0.588191 0.168711
v -0.076700 0.513559 0.105020
v -0.075745 0.531295 0.212598
vn -0.2005 0.1296 0.9711
vn -0.8829 0.3960 -0.2523
vn 0.2349 0.0527 0.9706
vn -0.7320 0.2650 -0.6277
vn -0.5845 -0.5873 -0.5598
vn -0.7703 -0.6335 -0.0734
vn -0.5040 -0.2802 -0.8170
vn -0.7281 0.1922 -0.6580
vn 0.4104 0.7049 -0.5785
vn 0.3903 0.2483 -0.8866
vn 0.1301 -0.4862 -0.8641
vn -0.5034 -0.3114 -0.8060
vn 0.7341 -0.2857 -0.6160
vn 0.7247 0.1389 -0.6749
vn 0.8151 -0.2569 0.5192
vn 0.7905 0.5399 0.2893
vn 0.7469 0.4835 -0.4565
vn 0.4873 0.8628 0.1344
vn 0.4523 0.8016 0.3910
vn 0.6330 0.5857 0.5062
vn 0.2334 -0.7544 0.6135
vn 0.6530 -0.6534 0.3829
vn -0.3616 -0.4627 0.8094
vn -0.2366 0.0381 0.9709
vn 0.0766 0.1293 0.9886
vn -0.9784 -0.1515 -0.1409
vn 0.0528 -0.3177 0.9467
vn -0.0159 0.7531 0.6577
vn -0.5169 0.6783 0.5222
vn -0.8406 0.0086 0.5416
vn -0.9213 0.3889 -0.0028
vn -0.0713 -0.9863 0.1485
vn 0.1488 -0.9872 0.0567
vn -0.3505 -0.8243 -0.4445
vn 0.1265 -0.9710 0.2029
vn -0.2227 -0.9713 0.0836
vn -0.3298 -0.8994 -0.2868
vn -0.0052 -0.9909 0.1344
vn -0.4774 0.8704 -0.1201
vn -0.3068 0.9395 -0.1522
vn 0.3980 0.9174 0.0094
vn -0.6336 0.4526 0.6275
vn -0.9286 0.3686 -0.0419
vn -0.8097 0.1946 -0.5536
vn -0.6858 0.1484 -0.7125
vn -0.6096 -0.2457 -0.7537
vn -0.8079 -0.5879 -0.0409
vn -0.5010 -0.4052 0.7647
vn -0.7018 0.2611 -0.6628
vn 0.8107 0.2885 -0.5095
vn -0.7288 0.1292 -0.6725
vn -0.3530 0.9286 -0.1141
vn 0.3694 0.7603 -0.5343
vn 0.3716 0.2332 -0.8986
vn 0.3482 -0.3533 -0.8683
vn -0.5003 -0.3060 -0.8100
vn 0.7471 -0.2497 -0.6161
vn 0.7248 0.5298 -0.4405
vn 0.7125 -0.5901 0.3797
vn 0.8006 0.5279 0.2833
vn 0.5130 -0.4216 -0.7477
vn 0.5333 0.8379 0.1160
vn 0.6142 0.5259 0.5884
vn 0.7175 -0.2925 0.6322
vn 0.4699 -0.7627 0.4443
vn 0.5323 -0.8189 -0.2147
vn -0.2471 0.1853 0.9511
vn -0.0138 0.5640 0.8257
vn -0.9720 -0.1917 -0.1356
vn -0.6964 0.3785 0.6098
vn 0.0606 -0.5347 0.8429
vn -0.0578 0.6827 0.7284
vn -0.9767 -0.1365 0.1654
vn -0.5059 0.6639 0.5508
vn -0.1199 -0.6839 0.7196
vn -0.0712 -0.9671 0.2444
vn -0.2899 -0.8835 -0.3680
vn -0.3570 -0.9078 -0.2203
vn 0.2740 -0.9110 -0.3084
vn 0.0875 -0.8734 -0.4790
vn -0.2379 -0.9551 -0.1768
vn -0.2941 -0.9471 0.1284
vn -0.3080 -0.8343 0.4573
vn 0.1791 -0.9247 0.3360
vn -0.2128 0.9579 0.1925
vn -0.2748 0.9335 0.2305
vn -0.3155 0.9046 -0.2866
vn 0.0261 0.9264 -0.3755
vn -0.0128 0.9974 -0.0705
vn 0.4406 0.7623 0.4741
vn -0.3464 0.9082 -0.2349
vn -0.4683 0.8725 -0.1397
vt 0.618981 0.972042
vt 0.442802 0.875000
vt 0.376847 0.944953
vt 0.619162 0.875000
vt 0.437847 0.812500
vt 0.442066 1.000000
vt 0.614610 0.812500
vt 0.500000 0.750000
vt 0.375000 0.742208
vt 0.375000 0.812500
vt 0.375000 0.875000
vt 0.500000 0.634014
vt 0.437500 0.601625
vt 0.437500 0.727134
vt 0.566566 0.743275
vt 0.560965 0.620181
vt 0.625000 0.463029
vt 0.562500 0.496789
vt 0.462620 0.496130
vt 0.375000 0.530186
vt 0.375000 0.625000
vt 0.437500 0.375000
vt 0.392628 0.437500
vt 0.500000 0.375000
vt 0.437500 0.257169
vt 0.562500 0.375000
vt 0.500000 0.312500
vt 0.562500 0.312500
vt 0.682358 0.299097
vt 0.562500 0.243577
vt 0.500000 0.245057
vt 0.360720 0.250000
vt 0.375000 0.312500
vt 0.375000 0.375000
vt 0.437500 0.187500
vt 0.500000 0.125000
vt 0.380325 0.125000
vt 0.562500 0.125000
vt 0.500000 0.062500
vt 0.395968 0.062500
vt 0.618858 0.062500
vt 0.625000 0.125000
vt 0.623929 -0.000000
vt 0.442066 -0.000000
vt 0.124565 0.437500
vt 0.299863 0.375000
vt 0.152658 0.303815
vt 0.312500 0.312500
vt 0.250000 0.259662
vt 0.132792 0.500000
vt 0.276077 0.437500
vt 0.187500 0.250000
vt 0.125000 0.375000
vt 0.750000 0.320439
vt 0.687500 0.449689
vt 0.812500 0.250000
vt 0.750000 0.250000
vt 0.625000 0.562500
vt 0.344814 0.500000
vt 0.625000 0.201226
vt 0.375000 -0.000000
vt 0.375000 0.235720
vt 0.250000 0.500000
vt 0.798581 0.410521
vt 0.867957 0.274673
vt 0.806693 0.500000
vt 0.875000 0.437500
vt 0.875000 0.375000
s 0
usemtl Material.006
f 1/1/1 2/2/1 3/3/1
f 4/4/2 5/5/2 6/2/2
f 7/6/3 8/1/3 9/3/3
f 10/7/4 11/8/4 12/5/4
f 13/5/5 14/9/5 15/10/5
f 16/11/6 17/5/6 18/10/6
f 19/12/7 20/13/7 21/14/7
f 22/8/8 23/15/8 24/12/8
f 25/16/9 26/17/9 27/18/9
f 28/16/10 29/18/10 30/19/10
f 31/13/11 32/20/11 33/21/11
f 34/14/12 35/21/12 36/9/12
f 37/19/13 38/22/13 39/23/13
f 40/18/14 41/24/14 42/19/14
f 43/24/15 44/25/15 45/22/15
f 46/26/16 47/27/16 48/24/16
f 49/17/17 50/26/17 51/18/17
f 52/17/18 53/28/18 54/26/18
f 55/28/19 56/29/19 57/30/19
f 58/27/20 59/30/20 60/31/20
f 61/25/21 62/32/21 63/33/21
f 64/34/22 65/25/22 66/33/22
f 67/35/23 68/36/23 69/37/23
f 70/31/24 71/38/24 72/36/24
f 73/37/25 74/39/25 75/40/25
f 76/36/26 77/41/26 78/39/26
f 79/25/27 80/31/27 81/35/27
f 82/30/28 83/42/28 84/38/28
f 85/42/29 86/41/29 87/38/29
f 88/39/30 89/43/30 90/44/30
f 91/39/31 92/44/31 93/40/31
f 94/45/32 95/46/32 96/47/32
f 97/46/33 98/48/33 99/49/33
f 100/50/34 101/51/34 102/45/34
f 103/23/35 104/46/35 105/51/35
f 106/46/36 107/33/36 108/48/36
f 109/49/37 110/52/37 111/47/37
f 112/45/38 113/47/38 114/53/38
f 115/54/39 116/29/39 117/55/39
f 118/54/40 119/56/40 120/57/40
f 121/55/41 122/29/41 123/17/41
f 124/1/42 125/4/42 126/2/42
f 127/4/43 128/7/43 129/5/43
f 130/7/44 131/15/44 132/8/44
f 133/5/45 134/8/45 135/14/45
f 136/5/46 137/14/46 138/9/46
f 139/11/47 140/2/47 141/5/47
f 142/3/48 143/2/48 144/11/48
f 145/12/49 146/15/49 147/16/49
f 148/12/50 149/16/50 150/13/50
f 151/8/51 152/12/51 153/14/51
f 154/16/52 155/15/52 156/58/52
f 157/16/53 158/58/53 159/17/53
f 160/13/54 161/16/54 162/19/54
f 163/20/55 164/13/55 165/19/55
f 166/14/56 167/13/56 168/21/56
f 169/19/57 170/24/57 171/22/57
f 172/18/58 173/26/58 174/24/58
f 175/24/59 176/27/59 177/25/59
f 178/26/60 179/28/60 180/27/60
f 181/59/61 182/19/61 183/23/61
f 184/17/62 185/29/62 186/28/62
f 187/27/63 188/28/63 189/30/63
f 190/27/64 191/31/64 192/25/64
f 193/34/65 194/22/65 195/25/65
f 196/23/66 197/22/66 198/34/66
f 199/35/67 200/31/67 201/36/67
f 202/31/68 203/30/68 204/38/68
f 205/37/69 206/36/69 207/39/69
f 208/36/70 209/38/70 210/41/70
f 211/32/71 212/25/71 213/35/71
f 214/30/72 215/60/72 216/42/72
f 217/39/73 218/41/73 219/43/73
f 220/40/74 221/44/74 222/61/74
f 223/62/75 224/35/75 225/37/75
f 226/45/76 227/51/76 228/46/76
f 229/47/77 230/46/77 231/49/77
f 232/50/78 233/63/78 234/51/78
f 235/63/79 236/59/79 237/51/79
f 238/59/80 239/23/80 240/51/80
f 241/23/81 242/34/81 243/46/81
f 244/46/82 245/34/82 246/33/82
f 247/48/83 248/33/83 249/32/83
f 250/48/84 251/32/84 252/49/84
f 253/55/85 254/64/85 255/54/85
s 1
f 256/64/86 257/65/86 258/54/86
s 0
f 259/55/87 260/66/87 261/64/87
f 262/66/88 263/67/88 264/64/88
f 265/67/89 266/68/89 267/64/89
f 268/64/90 269/68/90 270/65/90
f 271/54/91 272/65/91 273/56/91
f 274/29/92 275/54/92 276/57/92
