# Blender 4.5.4 LTS
# www.blender.org
mtllib tree3_log.mtl
o Lowpoly_Tree_08_Material_0
v 0.089613 0.000000 0.087159
v 0.000969 0.000000 0.124057
v -0.000000 -0.000000 0.000000
v 0.091028 0.385324 -0.003456
v 0.089613 0.000000 0.087159
v 0.125112 0.000000 -0.002591
v 0.000666 0.000000 -0.116629
v 0.087065 0.000000 -0.086980
v -0.000000 -0.000000 0.000000
v 0.000666 0.000000 -0.116629
v -0.089769 0.000000 -0.093304
v -0.044428 0.200724 -0.059856
v 0.063068 0.422257 -0.059621
v 0.091028 0.385324 -0.003456
v 0.087065 0.000000 -0.086980
v 0.014033 0.416833 0.069633
v -0.044197 0.199510 0.055919
v 0.012555 0.188634 0.078355
v 0.071539 0.421051 0.046343
v 0.012555 0.188634 0.078355
v 0.089613 0.000000 0.087159
v -0.044428 0.200724 -0.059856
v -0.066074 0.204445 -0.001958
v -0.056806 0.419038 -0.002442
v -0.025281 0.443378 0.038492
v -0.056806 0.419038 -0.002442
v -0.044197 0.199510 0.055919
v 0.000969 0.000000 0.124057
v -0.090207 0.000000 0.089026
v -0.000000 -0.000000 0.000000
v -0.123450 0.000000 -0.000738
v -0.089769 0.000000 -0.093304
v -0.000000 -0.000000 0.000000
v 0.091028 0.385324 -0.003456
v 0.125112 0.000000 -0.002591
v 0.087065 0.000000 -0.086980
v 0.089613 0.000000 0.087159
v 0.012555 0.188634 0.078355
v 0.000969 0.000000 0.124057
v 0.071539 0.421051 0.046343
v 0.089613 0.000000 0.087159
v 0.091028 0.385324 -0.003456
v 0.071539 0.421051 0.046343
v 0.014033 0.416833 0.069633
v 0.012555 0.188634 0.078355
v -0.044197 0.199510 0.055919
v -0.056806 0.419038 -0.002442
v -0.066074 0.204445 -0.001958
v -0.015402 0.415122 -0.074041
v 0.000666 0.000000 -0.116629
v -0.044428 0.200724 -0.059856
v -0.025281 0.443378 0.038492
v -0.044197 0.199510 0.055919
v 0.014033 0.416833 0.069633
v -0.015402 0.415122 -0.074041
v -0.044428 0.200724 -0.059856
v -0.056806 0.419038 -0.002442
v 0.125112 0.000000 -0.002591
v 0.089613 0.000000 0.087159
v -0.000000 -0.000000 0.000000
v -0.090207 0.000000 0.089026
v -0.123450 0.000000 -0.000738
v -0.000000 -0.000000 0.000000
v 0.087065 0.000000 -0.086980
v 0.125112 0.000000 -0.002591
v -0.000000 -0.000000 0.000000
v -0.089769 0.000000 -0.093304
v 0.000666 0.000000 -0.116629
v -0.000000 -0.000000 0.000000
v -0.056806 0.419038 -0.002442
v -0.025281 0.443378 0.038492
v -0.010909 0.792634 0.027029
v -0.032495 0.775967 -0.001001
v -0.090207 0.000000 0.089026
v 0.000969 0.000000 0.124057
v 0.012555 0.188634 0.078355
v -0.044197 0.199510 0.055919
v -0.015402 0.415122 -0.074041
v -0.056806 0.419038 -0.002442
v -0.032495 0.775967 -0.001001
v -0.004144 0.773285 -0.050028
v -0.025281 0.443378 0.038492
v 0.014033 0.416833 0.069633
v 0.016012 0.774457 0.048353
v -0.010909 0.792634 0.027029
v -0.123450 0.000000 -0.000738
v -0.066074 0.204445 -0.001958
v -0.044428 0.200724 -0.059856
v -0.089769 0.000000 -0.093304
v -0.123450 0.000000 -0.000738
v -0.090207 0.000000 0.089026
v -0.044197 0.199510 0.055919
v -0.066074 0.204445 -0.001958
v 0.000666 0.000000 -0.116629
v -0.015402 0.415122 -0.074041
v 0.063068 0.422257 -0.059621
v 0.087065 0.000000 -0.086980
v 0.091028 0.385324 -0.003456
v 0.063068 0.422257 -0.059621
v 0.049589 0.778171 -0.040154
v 0.068735 0.752881 -0.001695
v 0.063068 0.422257 -0.059621
v -0.015402 0.415122 -0.074041
v -0.004144 0.773285 -0.050028
v 0.049589 0.778171 -0.040154
v 0.071539 0.421051 0.046343
v 0.091028 0.385324 -0.003456
v 0.068735 0.752881 -0.001695
v 0.055389 0.777345 0.032405
v 0.014033 0.416833 0.069633
v 0.071539 0.421051 0.046343
v 0.055389 0.777345 0.032405
v 0.016012 0.774457 0.048353
vn -0.0000 -1.0000 -0.0000
vn 0.9267 0.0828 0.3665
vn -0.2440 0.2128 -0.9461
vn 0.9120 0.0779 -0.4028
vn -0.3611 0.0380 0.9318
vn 0.1355 0.1014 0.9856
vn -0.9351 0.0396 -0.3521
vn -0.8169 0.1039 0.5673
vn 0.9087 0.0795 -0.4097
vn 0.3768 0.1962 0.9053
vn 0.9452 0.0715 0.3186
vn 0.3731 0.0330 0.9272
vn -0.9335 0.0411 0.3563
vn -0.6953 0.0467 -0.7172
vn -0.5741 0.1026 0.8123
vn -0.8607 0.0833 -0.5023
vn -0.8060 0.0525 0.5895
vn -0.3369 0.2351 0.9117
vn -0.8626 0.0608 -0.5022
vn -0.5988 0.0509 0.7993
vn -0.9051 0.2564 -0.3392
vn -0.9051 0.2564 -0.3391
vn -0.9017 0.2601 0.3453
vn 0.2534 0.0926 -0.9629
vn 0.2533 0.0926 -0.9629
vn 0.9082 0.0571 -0.4146
vn 0.1751 0.0604 -0.9827
vn 0.9427 0.0556 0.3290
vn 0.3715 0.0531 0.9269
vt 0.000000 1.000000
s 0
usemtl Material.004
f 1/1/1 2/1/1 3/1/1
f 4/1/2 5/1/2 6/1/2
f 7/1/1 8/1/1 9/1/1
f 10/1/3 11/1/3 12/1/3
f 13/1/4 14/1/4 15/1/4
f 16/1/5 17/1/5 18/1/5
f 19/1/6 20/1/6 21/1/6
f 22/1/7 23/1/7 24/1/7
f 25/1/8 26/1/8 27/1/8
f 28/1/1 29/1/1 30/1/1
f 31/1/1 32/1/1 33/1/1
f 34/1/9 35/1/9 36/1/9
f 37/1/10 38/1/10 39/1/10
f 40/1/11 41/1/11 42/1/11
f 43/1/12 44/1/12 45/1/12
f 46/1/13 47/1/13 48/1/13
f 49/1/14 50/1/14 51/1/14
f 52/1/15 53/1/15 54/1/15
f 55/1/16 56/1/16 57/1/16
f 58/1/1 59/1/1 60/1/1
f 61/1/1 62/1/1 63/1/1
f 64/1/1 65/1/1 66/1/1
f 67/1/1 68/1/1 69/1/1
f 70/1/17 71/1/17 72/1/17
f 70/1/17 72/1/17 73/1/17
s 1
f 74/1/18 75/1/18 76/1/18
f 74/1/18 76/1/18 77/1/18
s 0
f 78/1/19 79/1/19 80/1/19
f 78/1/19 80/1/19 81/1/19
f 82/1/20 83/1/20 84/1/20
f 82/1/20 84/1/20 85/1/20
s 1
f 86/1/21 87/1/21 88/1/21
f 86/1/21 88/1/21 89/1/22
f 90/1/23 91/1/23 92/1/23
f 90/1/23 92/1/23 93/1/23
f 94/1/24 95/1/24 96/1/25
f 94/1/24 96/1/25 97/1/24
s 0
f 98/1/26 99/1/26 100/1/26
f 98/1/26 100/1/26 101/1/26
f 102/1/27 103/1/27 104/1/27
f 102/1/27 104/1/27 105/1/27
f 106/1/28 107/1/28 108/1/28
f 106/1/28 108/1/28 109/1/28
f 110/1/29 111/1/29 112/1/29
f 110/1/29 112/1/29 113/1/29
