# Blender 4.5.4 LTS
# www.blender.org
mtllib tree4_apples.mtl
o Lowpoly_Tree_05_Material.003_0
v -0.062443 0.916614 -0.181976
v -0.039730 0.933966 -0.165474
v -0.071119 0.933966 -0.155275
v -0.039730 0.933966 -0.165474
v -0.062443 0.916614 -0.181976
v -0.039730 0.933966 -0.198478
v -0.062443 0.916614 -0.181976
v -0.071119 0.933966 -0.155275
v -0.090519 0.933966 -0.181976
v -0.062443 0.916614 -0.181976
v -0.090519 0.933966 -0.181976
v -0.071119 0.933966 -0.208678
v -0.062443 0.916614 -0.181976
v -0.071119 0.933966 -0.208678
v -0.039730 0.933966 -0.198478
v -0.039730 0.933966 -0.165474
v -0.039730 0.933966 -0.198478
v -0.034367 0.962042 -0.181976
v -0.071119 0.933966 -0.155275
v -0.039730 0.933966 -0.165474
v -0.053768 0.962042 -0.155275
v -0.090519 0.933966 -0.181976
v -0.071119 0.933966 -0.155275
v -0.085157 0.962042 -0.165474
v -0.071119 0.933966 -0.208678
v -0.090519 0.933966 -0.181976
v -0.085157 0.962042 -0.198478
v -0.039730 0.933966 -0.198478
v -0.071119 0.933966 -0.208678
v -0.053768 0.962042 -0.208678
v -0.039730 0.933966 -0.165474
v -0.034367 0.962042 -0.181976
v -0.053768 0.962042 -0.155275
v -0.071119 0.933966 -0.155275
v -0.053768 0.962042 -0.155275
v -0.085157 0.962042 -0.165474
v -0.090519 0.933966 -0.181976
v -0.085157 0.962042 -0.165474
v -0.085157 0.962042 -0.198478
v -0.071119 0.933966 -0.208678
v -0.085157 0.962042 -0.198478
v -0.053768 0.962042 -0.208678
v -0.039730 0.933966 -0.198478
v -0.053768 0.962042 -0.208678
v -0.034367 0.962042 -0.181976
v -0.053768 0.962042 -0.155275
v -0.034367 0.962042 -0.181976
v -0.062443 0.979393 -0.181976
v -0.085157 0.962042 -0.165474
v -0.053768 0.962042 -0.155275
v -0.062443 0.979393 -0.181976
v -0.085157 0.962042 -0.198478
v -0.085157 0.962042 -0.165474
v -0.062443 0.979393 -0.181976
v -0.053768 0.962042 -0.208678
v -0.085157 0.962042 -0.198478
v -0.062443 0.979393 -0.181976
v -0.034367 0.962042 -0.181976
v -0.053768 0.962042 -0.208678
v -0.062443 0.979393 -0.181976
v -0.165398 0.862230 -0.249301
v -0.142684 0.879582 -0.232798
v -0.174074 0.879582 -0.222599
v -0.142684 0.879582 -0.232798
v -0.165398 0.862230 -0.249301
v -0.142684 0.879582 -0.265803
v -0.165398 0.862230 -0.249301
v -0.174074 0.879582 -0.222599
v -0.193474 0.879582 -0.249301
v -0.165398 0.862230 -0.249301
v -0.193474 0.879582 -0.249301
v -0.174074 0.879582 -0.276002
v -0.165398 0.862230 -0.249301
v -0.174074 0.879582 -0.276002
v -0.142684 0.879582 -0.265803
v -0.142684 0.879582 -0.232798
v -0.142684 0.879582 -0.265803
v -0.137322 0.907658 -0.249301
v -0.174074 0.879582 -0.222599
v -0.142684 0.879582 -0.232798
v -0.156722 0.907658 -0.222599
v -0.193474 0.879582 -0.249301
v -0.174074 0.879582 -0.222599
v -0.188112 0.907658 -0.232798
v -0.174074 0.879582 -0.276002
v -0.193474 0.879582 -0.249301
v -0.188112 0.907658 -0.265803
v -0.142684 0.879582 -0.265803
v -0.174074 0.879582 -0.276002
v -0.156722 0.907658 -0.276002
v -0.142684 0.879582 -0.232798
v -0.137322 0.907658 -0.249301
v -0.156722 0.907658 -0.222599
v -0.174074 0.879582 -0.222599
v -0.156722 0.907658 -0.222599
v -0.188112 0.907658 -0.232798
v -0.193474 0.879582 -0.249301
v -0.188112 0.907658 -0.232798
v -0.188112 0.907658 -0.265803
v -0.174074 0.879582 -0.276002
v -0.188112 0.907658 -0.265803
v -0.156722 0.907658 -0.276002
v -0.142684 0.879582 -0.265803
v -0.156722 0.907658 -0.276002
v -0.137322 0.907658 -0.249301
v -0.156722 0.907658 -0.222599
v -0.137322 0.907658 -0.249301
v -0.165398 0.925010 -0.249301
v -0.188112 0.907658 -0.232798
v -0.156722 0.907658 -0.222599
v -0.165398 0.925010 -0.249301
v -0.188112 0.907658 -0.265803
v -0.188112 0.907658 -0.232798
v -0.165398 0.925010 -0.249301
v -0.156722 0.907658 -0.276002
v -0.188112 0.907658 -0.265803
v -0.165398 0.925010 -0.249301
v -0.137322 0.907658 -0.249301
v -0.156722 0.907658 -0.276002
v -0.165398 0.925010 -0.249301
v 0.095854 1.054218 -0.256177
v 0.118568 1.071570 -0.239675
v 0.087179 1.071570 -0.229476
v 0.118568 1.071570 -0.239675
v 0.095854 1.054218 -0.256177
v 0.118568 1.071570 -0.272679
v 0.095854 1.054218 -0.256177
v 0.087179 1.071570 -0.229476
v 0.067779 1.071570 -0.256177
v 0.095854 1.054218 -0.256177
v 0.067779 1.071570 -0.256177
v 0.087179 1.071570 -0.282879
v 0.095854 1.054218 -0.256177
v 0.087179 1.071570 -0.282879
v 0.118568 1.071570 -0.272679
v 0.118568 1.071570 -0.239675
v 0.118568 1.071570 -0.272679
v 0.123930 1.099646 -0.256177
v 0.087179 1.071570 -0.229476
v 0.118568 1.071570 -0.239675
v 0.104530 1.099646 -0.229476
v 0.067779 1.071570 -0.256177
v 0.087179 1.071570 -0.229476
v 0.073141 1.099646 -0.239675
v 0.087179 1.071570 -0.282879
v 0.067779 1.071570 -0.256177
v 0.073141 1.099646 -0.272679
v 0.118568 1.071570 -0.272679
v 0.087179 1.071570 -0.282879
v 0.104530 1.099646 -0.282879
v 0.118568 1.071570 -0.239675
v 0.123930 1.099646 -0.256177
v 0.104530 1.099646 -0.229476
v 0.087179 1.071570 -0.229476
v 0.104530 1.099646 -0.229476
v 0.073141 1.099646 -0.239675
v 0.067779 1.071570 -0.256177
v 0.073141 1.099646 -0.239675
v 0.073141 1.099646 -0.272679
v 0.087179 1.071570 -0.282879
v 0.073141 1.099646 -0.272679
v 0.104530 1.099646 -0.282879
v 0.118568 1.071570 -0.272679
v 0.104530 1.099646 -0.282879
v 0.123930 1.099646 -0.256177
v 0.104530 1.099646 -0.229476
v 0.123930 1.099646 -0.256177
v 0.095854 1.116998 -0.256177
v 0.073141 1.099646 -0.239675
v 0.104530 1.099646 -0.229476
v 0.095854 1.116998 -0.256177
v 0.073141 1.099646 -0.272679
v 0.073141 1.099646 -0.239675
v 0.095854 1.116998 -0.256177
v 0.104530 1.099646 -0.282879
v 0.073141 1.099646 -0.272679
v 0.095854 1.116998 -0.256177
v 0.123930 1.099646 -0.256177
v 0.104530 1.099646 -0.282879
v 0.095854 1.116998 -0.256177
v 0.283651 1.084680 0.287037
v 0.306365 1.102031 0.303540
v 0.274976 1.102031 0.313739
v 0.306365 1.102031 0.303540
v 0.283651 1.084680 0.287037
v 0.306365 1.102031 0.270535
v 0.283651 1.084680 0.287037
v 0.274976 1.102031 0.313739
v 0.255576 1.102031 0.287037
v 0.283651 1.084680 0.287037
v 0.255576 1.102031 0.287037
v 0.274976 1.102031 0.260336
v 0.283651 1.084680 0.287037
v 0.274976 1.102031 0.260336
v 0.306365 1.102031 0.270535
v 0.306365 1.102031 0.303540
v 0.306365 1.102031 0.270535
v 0.311727 1.130107 0.287037
v 0.274976 1.102031 0.313739
v 0.306365 1.102031 0.303540
v 0.292327 1.130107 0.313739
v 0.255576 1.102031 0.287037
v 0.274976 1.102031 0.313739
v 0.260938 1.130107 0.303540
v 0.274976 1.102031 0.260336
v 0.255576 1.102031 0.287037
v 0.260938 1.130107 0.270535
v 0.306365 1.102031 0.270535
v 0.274976 1.102031 0.260336
v 0.292327 1.130107 0.260336
v 0.306365 1.102031 0.303540
v 0.311727 1.130107 0.287037
v 0.292327 1.130107 0.313739
v 0.274976 1.102031 0.313739
v 0.292327 1.130107 0.313739
v 0.260938 1.130107 0.303540
v 0.255576 1.102031 0.287037
v 0.260938 1.130107 0.303540
v 0.260938 1.130107 0.270535
v 0.274976 1.102031 0.260336
v 0.260938 1.130107 0.270535
v 0.292327 1.130107 0.260336
v 0.306365 1.102031 0.270535
v 0.292327 1.130107 0.260336
v 0.311727 1.130107 0.287037
v 0.292327 1.130107 0.313739
v 0.311727 1.130107 0.287037
v 0.283651 1.147459 0.287037
v 0.260938 1.130107 0.303540
v 0.292327 1.130107 0.313739
v 0.283651 1.147459 0.287037
v 0.260938 1.130107 0.270535
v 0.260938 1.130107 0.303540
v 0.283651 1.147459 0.287037
v 0.292327 1.130107 0.260336
v 0.260938 1.130107 0.270535
v 0.283651 1.147459 0.287037
v 0.311727 1.130107 0.287037
v 0.292327 1.130107 0.260336
v 0.283651 1.147459 0.287037
v 0.585671 0.908487 -0.041634
v 0.608385 0.925839 -0.025132
v 0.576995 0.925839 -0.014932
v 0.608385 0.925839 -0.025132
v 0.585671 0.908487 -0.041634
v 0.608385 0.925839 -0.058136
v 0.585671 0.908487 -0.041634
v 0.576995 0.925839 -0.014932
v 0.557595 0.925839 -0.041634
v 0.585671 0.908487 -0.041634
v 0.557595 0.925839 -0.041634
v 0.576995 0.925839 -0.068335
v 0.585671 0.908487 -0.041634
v 0.576995 0.925839 -0.068335
v 0.608385 0.925839 -0.058136
v 0.608385 0.925839 -0.025132
v 0.608385 0.925839 -0.058136
v 0.613747 0.953915 -0.041634
v 0.576995 0.925839 -0.014932
v 0.608385 0.925839 -0.025132
v 0.594347 0.953915 -0.014932
v 0.557595 0.925839 -0.041634
v 0.576995 0.925839 -0.014932
v 0.562957 0.953915 -0.025132
v 0.576995 0.925839 -0.068335
v 0.557595 0.925839 -0.041634
v 0.562957 0.953915 -0.058136
v 0.608385 0.925839 -0.058136
v 0.576995 0.925839 -0.068335
v 0.594347 0.953915 -0.068335
v 0.608385 0.925839 -0.025132
v 0.613747 0.953915 -0.041634
v 0.594347 0.953915 -0.014932
v 0.576995 0.925839 -0.014932
v 0.594347 0.953915 -0.014932
v 0.562957 0.953915 -0.025132
v 0.557595 0.925839 -0.041634
v 0.562957 0.953915 -0.025132
v 0.562957 0.953915 -0.058136
v 0.576995 0.925839 -0.068335
v 0.562957 0.953915 -0.058136
v 0.594347 0.953915 -0.068335
v 0.608385 0.925839 -0.058136
v 0.594347 0.953915 -0.068335
v 0.613747 0.953915 -0.041634
v 0.594347 0.953915 -0.014932
v 0.613747 0.953915 -0.041634
v 0.585671 0.971267 -0.041634
v 0.562957 0.953915 -0.025132
v 0.594347 0.953915 -0.014932
v 0.585671 0.971267 -0.041634
v 0.562957 0.953915 -0.058136
v 0.562957 0.953915 -0.025132
v 0.585671 0.971267 -0.041634
v 0.594347 0.953915 -0.068335
v 0.562957 0.953915 -0.058136
v 0.585671 0.971267 -0.041634
v 0.613747 0.953915 -0.041634
v 0.594347 0.953915 -0.068335
v 0.585671 0.971267 -0.041634
v 0.427731 1.002113 -0.111569
v 0.450444 1.019465 -0.095067
v 0.419055 1.019465 -0.084868
v 0.450444 1.019465 -0.095067
v 0.427731 1.002113 -0.111569
v 0.450444 1.019465 -0.128072
v 0.427731 1.002113 -0.111569
v 0.419055 1.019465 -0.084868
v 0.399655 1.019465 -0.111569
v 0.427731 1.002113 -0.111569
v 0.399655 1.019465 -0.111569
v 0.419055 1.019465 -0.138271
v 0.427731 1.002113 -0.111569
v 0.419055 1.019465 -0.138271
v 0.450444 1.019465 -0.128072
v 0.450444 1.019465 -0.095067
v 0.450444 1.019465 -0.128072
v 0.455806 1.047541 -0.111569
v 0.419055 1.019465 -0.084868
v 0.450444 1.019465 -0.095067
v 0.436406 1.047541 -0.084868
v 0.399655 1.019465 -0.111569
v 0.419055 1.019465 -0.084868
v 0.405017 1.047541 -0.095067
v 0.419055 1.019465 -0.138271
v 0.399655 1.019465 -0.111569
v 0.405017 1.047541 -0.128072
v 0.450444 1.019465 -0.128072
v 0.419055 1.019465 -0.138271
v 0.436406 1.047541 -0.138271
v 0.450444 1.019465 -0.095067
v 0.455806 1.047541 -0.111569
v 0.436406 1.047541 -0.084868
v 0.419055 1.019465 -0.084868
v 0.436406 1.047541 -0.084868
v 0.405017 1.047541 -0.095067
v 0.399655 1.019465 -0.111569
v 0.405017 1.047541 -0.095067
v 0.405017 1.047541 -0.128072
v 0.419055 1.019465 -0.138271
v 0.405017 1.047541 -0.128072
v 0.436406 1.047541 -0.138271
v 0.450444 1.019465 -0.128072
v 0.436406 1.047541 -0.138271
v 0.455806 1.047541 -0.111569
v 0.436406 1.047541 -0.084868
v 0.455806 1.047541 -0.111569
v 0.427731 1.064893 -0.111569
v 0.405017 1.047541 -0.095067
v 0.436406 1.047541 -0.084868
v 0.427731 1.064893 -0.111569
v 0.405017 1.047541 -0.128072
v 0.405017 1.047541 -0.095067
v 0.427731 1.064893 -0.111569
v 0.436406 1.047541 -0.138271
v 0.405017 1.047541 -0.128072
v 0.427731 1.064893 -0.111569
v 0.455806 1.047541 -0.111569
v 0.436406 1.047541 -0.138271
v 0.427731 1.064893 -0.111569
v 0.396678 0.976860 -0.002053
v 0.419392 0.994212 0.014450
v 0.388002 0.994212 0.024649
v 0.419392 0.994212 0.014450
v 0.396678 0.976860 -0.002053
v 0.419392 0.994212 -0.018555
v 0.396678 0.976860 -0.002053
v 0.388002 0.994212 0.024649
v 0.368602 0.994212 -0.002053
v 0.396678 0.976860 -0.002053
v 0.368602 0.994212 -0.002053
v 0.388002 0.994212 -0.028754
v 0.396678 0.976860 -0.002053
v 0.388002 0.994212 -0.028754
v 0.419392 0.994212 -0.018555
v 0.419392 0.994212 0.014450
v 0.419392 0.994212 -0.018555
v 0.424754 1.022288 -0.002053
v 0.388002 0.994212 0.024649
v 0.419392 0.994212 0.014450
v 0.405354 1.022288 0.024649
v 0.368602 0.994212 -0.002053
v 0.388002 0.994212 0.024649
v 0.373964 1.022288 0.014450
v 0.388002 0.994212 -0.028754
v 0.368602 0.994212 -0.002053
v 0.373964 1.022288 -0.018555
v 0.419392 0.994212 -0.018555
v 0.388002 0.994212 -0.028754
v 0.405354 1.022288 -0.028754
v 0.419392 0.994212 0.014450
v 0.424754 1.022288 -0.002053
v 0.405354 1.022288 0.024649
v 0.388002 0.994212 0.024649
v 0.405354 1.022288 0.024649
v 0.373964 1.022288 0.014450
v 0.368602 0.994212 -0.002053
v 0.373964 1.022288 0.014450
v 0.373964 1.022288 -0.018555
v 0.388002 0.994212 -0.028754
v 0.373964 1.022288 -0.018555
v 0.405354 1.022288 -0.028754
v 0.419392 0.994212 -0.018555
v 0.405354 1.022288 -0.028754
v 0.424754 1.022288 -0.002053
v 0.405354 1.022288 0.024649
v 0.424754 1.022288 -0.002053
v 0.396678 1.039639 -0.002053
v 0.373964 1.022288 0.014450
v 0.405354 1.022288 0.024649
v 0.396678 1.039639 -0.002053
v 0.373964 1.022288 -0.018555
v 0.373964 1.022288 0.014450
v 0.396678 1.039639 -0.002053
v 0.405354 1.022288 -0.028754
v 0.373964 1.022288 -0.018555
v 0.396678 1.039639 -0.002053
v 0.424754 1.022288 -0.002053
v 0.405354 1.022288 -0.028754
v 0.396678 1.039639 -0.002053
v 0.344408 0.977568 -0.258880
v 0.367122 0.994919 -0.242378
v 0.335732 0.994919 -0.232178
v 0.367122 0.994919 -0.242378
v 0.344408 0.977568 -0.258880
v 0.367122 0.994919 -0.275382
v 0.344408 0.977568 -0.258880
v 0.335732 0.994919 -0.232178
v 0.316332 0.994919 -0.258880
v 0.344408 0.977568 -0.258880
v 0.316332 0.994919 -0.258880
v 0.335732 0.994919 -0.285581
v 0.344408 0.977568 -0.258880
v 0.335732 0.994919 -0.285581
v 0.367122 0.994919 -0.275382
v 0.367122 0.994919 -0.242378
v 0.367122 0.994919 -0.275382
v 0.372484 1.022995 -0.258880
v 0.335732 0.994919 -0.232178
v 0.367122 0.994919 -0.242378
v 0.353084 1.022995 -0.232178
v 0.316332 0.994919 -0.258880
v 0.335732 0.994919 -0.232178
v 0.321694 1.022995 -0.242378
v 0.335732 0.994919 -0.285581
v 0.316332 0.994919 -0.258880
v 0.321694 1.022995 -0.275382
v 0.367122 0.994919 -0.275382
v 0.335732 0.994919 -0.285581
v 0.353084 1.022995 -0.285581
v 0.367122 0.994919 -0.242378
v 0.372484 1.022995 -0.258880
v 0.353084 1.022995 -0.232178
v 0.335732 0.994919 -0.232178
v 0.353084 1.022995 -0.232178
v 0.321694 1.022995 -0.242378
v 0.316332 0.994919 -0.258880
v 0.321694 1.022995 -0.242378
v 0.321694 1.022995 -0.275382
v 0.335732 0.994919 -0.285581
v 0.321694 1.022995 -0.275382
v 0.353084 1.022995 -0.285581
v 0.367122 0.994919 -0.275382
v 0.353084 1.022995 -0.285581
v 0.372484 1.022995 -0.258880
v 0.353084 1.022995 -0.232178
v 0.372484 1.022995 -0.258880
v 0.344408 1.040347 -0.258880
v 0.321694 1.022995 -0.242378
v 0.353084 1.022995 -0.232178
v 0.344408 1.040347 -0.258880
v 0.321694 1.022995 -0.275382
v 0.321694 1.022995 -0.242378
v 0.344408 1.040347 -0.258880
v 0.353084 1.022995 -0.285581
v 0.321694 1.022995 -0.275382
v 0.344408 1.040347 -0.258880
v 0.372484 1.022995 -0.258880
v 0.353084 1.022995 -0.285581
v 0.344408 1.040347 -0.258880
v -0.357667 0.803378 -0.220346
v -0.334953 0.820729 -0.203844
v -0.366343 0.820729 -0.193645
v -0.334953 0.820729 -0.203844
v -0.357667 0.803378 -0.220346
v -0.334953 0.820729 -0.236848
v -0.357667 0.803378 -0.220346
v -0.366343 0.820729 -0.193645
v -0.385743 0.820729 -0.220346
v -0.357667 0.803378 -0.220346
v -0.385743 0.820729 -0.220346
v -0.366343 0.820729 -0.247048
v -0.357667 0.803378 -0.220346
v -0.366343 0.820729 -0.247048
v -0.334953 0.820729 -0.236848
v -0.334953 0.820729 -0.203844
v -0.334953 0.820729 -0.236848
v -0.329591 0.848805 -0.220346
v -0.366343 0.820729 -0.193645
v -0.334953 0.820729 -0.203844
v -0.348991 0.848805 -0.193645
v -0.385743 0.820729 -0.220346
v -0.366343 0.820729 -0.193645
v -0.380381 0.848805 -0.203844
v -0.366343 0.820729 -0.247048
v -0.385743 0.820729 -0.220346
v -0.380381 0.848805 -0.236848
v -0.334953 0.820729 -0.236848
v -0.366343 0.820729 -0.247048
v -0.348991 0.848805 -0.247048
v -0.334953 0.820729 -0.203844
v -0.329591 0.848805 -0.220346
v -0.348991 0.848805 -0.193645
v -0.366343 0.820729 -0.193645
v -0.348991 0.848805 -0.193645
v -0.380381 0.848805 -0.203844
v -0.385743 0.820729 -0.220346
v -0.380381 0.848805 -0.203844
v -0.380381 0.848805 -0.236848
v -0.366343 0.820729 -0.247048
v -0.380381 0.848805 -0.236848
v -0.348991 0.848805 -0.247048
v -0.334953 0.820729 -0.236848
v -0.348991 0.848805 -0.247048
v -0.329591 0.848805 -0.220346
v -0.348991 0.848805 -0.193645
v -0.329591 0.848805 -0.220346
v -0.357667 0.866157 -0.220346
v -0.380381 0.848805 -0.203844
v -0.348991 0.848805 -0.193645
v -0.357667 0.866157 -0.220346
v -0.380381 0.848805 -0.236848
v -0.380381 0.848805 -0.203844
v -0.357667 0.866157 -0.220346
v -0.348991 0.848805 -0.247048
v -0.380381 0.848805 -0.236848
v -0.357667 0.866157 -0.220346
v -0.329591 0.848805 -0.220346
v -0.348991 0.848805 -0.247048
v -0.357667 0.866157 -0.220346
v 0.614589 1.041970 0.200097
v 0.637303 1.059322 0.216599
v 0.605914 1.059322 0.226799
v 0.637303 1.059322 0.216599
v 0.614589 1.041970 0.200097
v 0.637303 1.059322 0.183595
v 0.614589 1.041970 0.200097
v 0.605914 1.059322 0.226799
v 0.586514 1.059322 0.200097
v 0.614589 1.041970 0.200097
v 0.586514 1.059322 0.200097
v 0.605914 1.059322 0.173396
v 0.614589 1.041970 0.200097
v 0.605914 1.059322 0.173396
v 0.637303 1.059322 0.183595
v 0.637303 1.059322 0.216599
v 0.637303 1.059322 0.183595
v 0.642665 1.087398 0.200097
v 0.605914 1.059322 0.226799
v 0.637303 1.059322 0.216599
v 0.623265 1.087398 0.226799
v 0.586514 1.059322 0.200097
v 0.605914 1.059322 0.226799
v 0.591876 1.087398 0.216599
v 0.605914 1.059322 0.173396
v 0.586514 1.059322 0.200097
v 0.591876 1.087398 0.183595
v 0.637303 1.059322 0.183595
v 0.605914 1.059322 0.173396
v 0.623265 1.087398 0.173396
v 0.637303 1.059322 0.216599
v 0.642665 1.087398 0.200097
v 0.623265 1.087398 0.226799
v 0.605914 1.059322 0.226799
v 0.623265 1.087398 0.226799
v 0.591876 1.087398 0.216599
v 0.586514 1.059322 0.200097
v 0.591876 1.087398 0.216599
v 0.591876 1.087398 0.183595
v 0.605914 1.059322 0.173396
v 0.591876 1.087398 0.183595
v 0.623265 1.087398 0.173396
v 0.637303 1.059322 0.183595
v 0.623265 1.087398 0.173396
v 0.642665 1.087398 0.200097
v 0.623265 1.087398 0.226799
v 0.642665 1.087398 0.200097
v 0.614589 1.104750 0.200097
v 0.591876 1.087398 0.216599
v 0.623265 1.087398 0.226799
v 0.614589 1.104750 0.200097
v 0.591876 1.087398 0.183595
v 0.591876 1.087398 0.216599
v 0.614589 1.104750 0.200097
v 0.623265 1.087398 0.173396
v 0.591876 1.087398 0.183595
v 0.614589 1.104750 0.200097
v 0.642665 1.087398 0.200097
v 0.623265 1.087398 0.173396
v 0.614589 1.104750 0.200097
v -0.325016 0.894216 -0.007992
v -0.302302 0.911568 0.008510
v -0.333692 0.911568 0.018709
v -0.302302 0.911568 0.008510
v -0.325016 0.894216 -0.007992
v -0.302302 0.911568 -0.024494
v -0.325016 0.894216 -0.007992
v -0.333692 0.911568 0.018709
v -0.353092 0.911568 -0.007992
v -0.325016 0.894216 -0.007992
v -0.353092 0.911568 -0.007992
v -0.333692 0.911568 -0.034693
v -0.325016 0.894216 -0.007992
v -0.333692 0.911568 -0.034693
v -0.302302 0.911568 -0.024494
v -0.302302 0.911568 0.008510
v -0.302302 0.911568 -0.024494
v -0.296940 0.939644 -0.007992
v -0.333692 0.911568 0.018709
v -0.302302 0.911568 0.008510
v -0.316340 0.939644 0.018709
v -0.353092 0.911568 -0.007992
v -0.333692 0.911568 0.018709
v -0.347730 0.939644 0.008510
v -0.333692 0.911568 -0.034693
v -0.353092 0.911568 -0.007992
v -0.347730 0.939644 -0.024494
v -0.302302 0.911568 -0.024494
v -0.333692 0.911568 -0.034693
v -0.316340 0.939644 -0.034693
v -0.302302 0.911568 0.008510
v -0.296940 0.939644 -0.007992
v -0.316340 0.939644 0.018709
v -0.333692 0.911568 0.018709
v -0.316340 0.939644 0.018709
v -0.347730 0.939644 0.008510
v -0.353092 0.911568 -0.007992
v -0.347730 0.939644 0.008510
v -0.347730 0.939644 -0.024494
v -0.333692 0.911568 -0.034693
v -0.347730 0.939644 -0.024494
v -0.316340 0.939644 -0.034693
v -0.302302 0.911568 -0.024494
v -0.316340 0.939644 -0.034693
v -0.296940 0.939644 -0.007992
v -0.316340 0.939644 0.018709
v -0.296940 0.939644 -0.007992
v -0.325016 0.956996 -0.007992
v -0.347730 0.939644 0.008510
v -0.316340 0.939644 0.018709
v -0.325016 0.956996 -0.007992
v -0.347730 0.939644 -0.024494
v -0.347730 0.939644 0.008510
v -0.325016 0.956996 -0.007992
v -0.316340 0.939644 -0.034693
v -0.347730 0.939644 -0.024494
v -0.325016 0.956996 -0.007992
v -0.296940 0.939644 -0.007992
v -0.316340 0.939644 -0.034693
v -0.325016 0.956996 -0.007992
v 0.009803 1.106736 0.264172
v 0.032516 1.124088 0.280674
v 0.001127 1.124088 0.290873
v 0.032516 1.124088 0.280674
v 0.009803 1.106736 0.264172
v 0.032516 1.124088 0.247670
v 0.009803 1.106736 0.264172
v 0.001127 1.124088 0.290873
v -0.018273 1.124088 0.264172
v 0.009803 1.106736 0.264172
v -0.018273 1.124088 0.264172
v 0.001127 1.124088 0.237471
v 0.009803 1.106736 0.264172
v 0.001127 1.124088 0.237471
v 0.032516 1.124088 0.247670
v 0.032516 1.124088 0.280674
v 0.032516 1.124088 0.247670
v 0.037879 1.152164 0.264172
v 0.001127 1.124088 0.290873
v 0.032516 1.124088 0.280674
v 0.018479 1.152164 0.290873
v -0.018273 1.124088 0.264172
v 0.001127 1.124088 0.290873
v -0.012911 1.152164 0.280674
v 0.001127 1.124088 0.237471
v -0.018273 1.124088 0.264172
v -0.012911 1.152164 0.247670
v 0.032516 1.124088 0.247670
v 0.001127 1.124088 0.237471
v 0.018479 1.152164 0.237471
v 0.032516 1.124088 0.280674
v 0.037879 1.152164 0.264172
v 0.018479 1.152164 0.290873
v 0.001127 1.124088 0.290873
v 0.018479 1.152164 0.290873
v -0.012911 1.152164 0.280674
v -0.018273 1.124088 0.264172
v -0.012911 1.152164 0.280674
v -0.012911 1.152164 0.247670
v 0.001127 1.124088 0.237471
v -0.012911 1.152164 0.247670
v 0.018479 1.152164 0.237471
v 0.032516 1.124088 0.247670
v 0.018479 1.152164 0.237471
v 0.037879 1.152164 0.264172
v 0.018479 1.152164 0.290873
v 0.037879 1.152164 0.264172
v 0.009803 1.169515 0.264172
v -0.012911 1.152164 0.280674
v 0.018479 1.152164 0.290873
v 0.009803 1.169515 0.264172
v -0.012911 1.152164 0.247670
v -0.012911 1.152164 0.280674
v 0.009803 1.169515 0.264172
v 0.018479 1.152164 0.237471
v -0.012911 1.152164 0.247670
v 0.009803 1.169515 0.264172
v 0.037879 1.152164 0.264172
v 0.018479 1.152164 0.237471
v 0.009803 1.169515 0.264172
v 0.523613 1.177598 0.393096
v 0.546327 1.194950 0.409598
v 0.514938 1.194950 0.419797
v 0.546327 1.194950 0.409598
v 0.523613 1.177598 0.393096
v 0.546327 1.194950 0.376594
v 0.523613 1.177598 0.393096
v 0.514938 1.194950 0.419797
v 0.495538 1.194950 0.393096
v 0.523613 1.177598 0.393096
v 0.495538 1.194950 0.393096
v 0.514938 1.194950 0.366395
v 0.523613 1.177598 0.393096
v 0.514938 1.194950 0.366395
v 0.546327 1.194950 0.376594
v 0.546327 1.194950 0.409598
v 0.546327 1.194950 0.376594
v 0.551689 1.223026 0.393096
v 0.514938 1.194950 0.419797
v 0.546327 1.194950 0.409598
v 0.532289 1.223026 0.419797
v 0.495538 1.194950 0.393096
v 0.514938 1.194950 0.419797
v 0.500900 1.223026 0.409598
v 0.514938 1.194950 0.366395
v 0.495538 1.194950 0.393096
v 0.500900 1.223026 0.376594
v 0.546327 1.194950 0.376594
v 0.514938 1.194950 0.366395
v 0.532289 1.223026 0.366395
v 0.546327 1.194950 0.409598
v 0.551689 1.223026 0.393096
v 0.532289 1.223026 0.419797
v 0.514938 1.194950 0.419797
v 0.532289 1.223026 0.419797
v 0.500900 1.223026 0.409598
v 0.495538 1.194950 0.393096
v 0.500900 1.223026 0.409598
v 0.500900 1.223026 0.376594
v 0.514938 1.194950 0.366395
v 0.500900 1.223026 0.376594
v 0.532289 1.223026 0.366395
v 0.546327 1.194950 0.376594
v 0.532289 1.223026 0.366395
v 0.551689 1.223026 0.393096
v 0.532289 1.223026 0.419797
v 0.551689 1.223026 0.393096
v 0.523613 1.240377 0.393096
v 0.500900 1.223026 0.409598
v 0.532289 1.223026 0.419797
v 0.523613 1.240377 0.393096
v 0.500900 1.223026 0.376594
v 0.500900 1.223026 0.409598
v 0.523613 1.240377 0.393096
v 0.532289 1.223026 0.366395
v 0.500900 1.223026 0.376594
v 0.523613 1.240377 0.393096
v 0.551689 1.223026 0.393096
v 0.532289 1.223026 0.366395
v 0.523613 1.240377 0.393096
vn 0.1876 -0.7947 0.5774
vn 0.6071 -0.7947 -0.0000
vn -0.4911 -0.7947 0.3568
vn -0.4911 -0.7947 -0.3568
vn 0.1876 -0.7947 -0.5774
vn 0.9822 -0.1876 -0.0000
vn 0.3035 -0.1876 0.9342
vn -0.7946 -0.1876 0.5774
vn -0.7946 -0.1876 -0.5774
vn 0.3035 -0.1876 -0.9342
vn 0.7946 0.1876 0.5774
vn -0.3035 0.1876 0.9342
vn -0.9822 0.1876 -0.0000
vn -0.3035 0.1876 -0.9342
vn 0.7946 0.1876 -0.5774
vn 0.4911 0.7947 0.3568
vn -0.1876 0.7947 0.5774
vn -0.6071 0.7947 -0.0000
vn -0.1876 0.7947 -0.5774
vn 0.4911 0.7947 -0.3568
vn 0.7947 0.1876 0.5774
vn 0.7947 0.1876 -0.5774
vn -0.1876 0.7946 0.5774
vn -0.7947 -0.1876 0.5774
vn -0.7947 -0.1876 -0.5774
vt 0.181819 1.000000
vt 0.272728 0.842539
vt 0.090910 0.842539
vt 0.363637 1.000000
vt 0.454546 0.842539
vt 0.909091 1.000000
vt 1.000000 0.842539
vt 0.818182 0.842539
vt 0.727273 1.000000
vt 0.636364 0.842539
vt 0.545455 1.000000
vt 0.363637 0.685079
vt 0.181819 0.685079
vt 0.909091 0.685079
vt 0.727273 0.685079
vt 0.545455 0.685079
vt 0.000000 0.685079
vt 0.272728 0.527618
vt 0.090910 0.527618
vt 0.818182 0.527618
vt 0.636364 0.527618
vt 0.454546 0.527618
s 0
usemtl Material.005
f 1/1/1 2/2/1 3/3/1
s 1
f 4/2/2 5/4/2 6/5/2
s 0
f 7/6/3 8/7/3 9/8/3
f 10/9/4 11/8/4 12/10/4
f 13/11/5 14/10/5 15/5/5
f 16/2/6 17/5/6 18/12/6
f 19/3/7 20/2/7 21/13/7
s 1
f 22/8/8 23/7/8 24/14/8
s 0
f 25/10/9 26/8/9 27/15/9
f 28/5/10 29/10/10 30/16/10
f 31/2/11 32/12/11 33/13/11
f 34/3/12 35/13/12 36/17/12
f 37/8/13 38/14/13 39/15/13
f 40/10/14 41/15/14 42/16/14
f 43/5/15 44/16/15 45/12/15
f 46/13/16 47/12/16 48/18/16
f 49/17/17 50/13/17 51/19/17
f 52/15/18 53/14/18 54/20/18
f 55/16/19 56/15/19 57/21/19
f 58/12/20 59/16/20 60/22/20
f 61/1/1 62/2/1 63/3/1
f 64/2/2 65/4/2 66/5/2
f 67/6/3 68/7/3 69/8/3
f 70/9/4 71/8/4 72/10/4
f 73/11/5 74/10/5 75/5/5
f 76/2/6 77/5/6 78/12/6
f 79/3/7 80/2/7 81/13/7
f 82/8/8 83/7/8 84/14/8
f 85/10/9 86/8/9 87/15/9
f 88/5/10 89/10/10 90/16/10
f 91/2/11 92/12/11 93/13/11
f 94/3/12 95/13/12 96/17/12
f 97/8/13 98/14/13 99/15/13
f 100/10/14 101/15/14 102/16/14
f 103/5/15 104/16/15 105/12/15
f 106/13/16 107/12/16 108/18/16
f 109/17/17 110/13/17 111/19/17
f 112/15/18 113/14/18 114/20/18
f 115/16/19 116/15/19 117/21/19
f 118/12/20 119/16/20 120/22/20
s 1
f 121/1/1 122/2/1 123/3/1
s 0
f 124/2/2 125/4/2 126/5/2
f 127/6/3 128/7/3 129/8/3
f 130/9/4 131/8/4 132/10/4
f 133/11/5 134/10/5 135/5/5
f 136/2/6 137/5/6 138/12/6
f 139/3/7 140/2/7 141/13/7
f 142/8/8 143/7/8 144/14/8
f 145/10/9 146/8/9 147/15/9
f 148/5/10 149/10/10 150/16/10
f 151/2/21 152/12/21 153/13/21
f 154/3/12 155/13/12 156/17/12
f 157/8/13 158/14/13 159/15/13
f 160/10/14 161/15/14 162/16/14
f 163/5/22 164/16/22 165/12/22
f 166/13/16 167/12/16 168/18/16
f 169/17/17 170/13/17 171/19/17
f 172/15/18 173/14/18 174/20/18
f 175/16/19 176/15/19 177/21/19
f 178/12/20 179/16/20 180/22/20
f 181/1/1 182/2/1 183/3/1
f 184/2/2 185/4/2 186/5/2
f 187/6/3 188/7/3 189/8/3
f 190/9/4 191/8/4 192/10/4
f 193/11/5 194/10/5 195/5/5
f 196/2/6 197/5/6 198/12/6
f 199/3/7 200/2/7 201/13/7
f 202/8/8 203/7/8 204/14/8
f 205/10/9 206/8/9 207/15/9
f 208/5/10 209/10/10 210/16/10
f 211/2/11 212/12/11 213/13/11
f 214/3/12 215/13/12 216/17/12
f 217/8/13 218/14/13 219/15/13
f 220/10/14 221/15/14 222/16/14
f 223/5/22 224/16/22 225/12/22
f 226/13/16 227/12/16 228/18/16
f 229/17/17 230/13/17 231/19/17
f 232/15/18 233/14/18 234/20/18
f 235/16/19 236/15/19 237/21/19
f 238/12/20 239/16/20 240/22/20
f 241/1/1 242/2/1 243/3/1
f 244/2/2 245/4/2 246/5/2
f 247/6/3 248/7/3 249/8/3
f 250/9/4 251/8/4 252/10/4
f 253/11/5 254/10/5 255/5/5
s 1
f 256/2/6 257/5/6 258/12/6
s 0
f 259/3/7 260/2/7 261/13/7
f 262/8/8 263/7/8 264/14/8
f 265/10/9 266/8/9 267/15/9
f 268/5/10 269/10/10 270/16/10
f 271/2/21 272/12/21 273/13/21
f 274/3/12 275/13/12 276/17/12
f 277/8/13 278/14/13 279/15/13
f 280/10/14 281/15/14 282/16/14
f 283/5/22 284/16/22 285/12/22
f 286/13/16 287/12/16 288/18/16
f 289/17/23 290/13/23 291/19/23
f 292/15/18 293/14/18 294/20/18
f 295/16/19 296/15/19 297/21/19
f 298/12/20 299/16/20 300/22/20
f 301/1/1 302/2/1 303/3/1
f 304/2/2 305/4/2 306/5/2
f 307/6/3 308/7/3 309/8/3
f 310/9/4 311/8/4 312/10/4
f 313/11/5 314/10/5 315/5/5
f 316/2/6 317/5/6 318/12/6
f 319/3/7 320/2/7 321/13/7
f 322/8/8 323/7/8 324/14/8
f 325/10/9 326/8/9 327/15/9
f 328/5/10 329/10/10 330/16/10
f 331/2/21 332/12/21 333/13/21
f 334/3/12 335/13/12 336/17/12
f 337/8/13 338/14/13 339/15/13
f 340/10/14 341/15/14 342/16/14
f 343/5/15 344/16/15 345/12/15
f 346/13/16 347/12/16 348/18/16
f 349/17/17 350/13/17 351/19/17
f 352/15/18 353/14/18 354/20/18
f 355/16/19 356/15/19 357/21/19
f 358/12/20 359/16/20 360/22/20
f 361/1/1 362/2/1 363/3/1
f 364/2/2 365/4/2 366/5/2
f 367/6/3 368/7/3 369/8/3
f 370/9/4 371/8/4 372/10/4
f 373/11/5 374/10/5 375/5/5
f 376/2/6 377/5/6 378/12/6
f 379/3/7 380/2/7 381/13/7
f 382/8/8 383/7/8 384/14/8
f 385/10/9 386/8/9 387/15/9
f 388/5/10 389/10/10 390/16/10
f 391/2/11 392/12/11 393/13/11
f 394/3/12 395/13/12 396/17/12
f 397/8/13 398/14/13 399/15/13
f 400/10/14 401/15/14 402/16/14
f 403/5/15 404/16/15 405/12/15
f 406/13/16 407/12/16 408/18/16
f 409/17/17 410/13/17 411/19/17
f 412/15/18 413/14/18 414/20/18
f 415/16/19 416/15/19 417/21/19
f 418/12/20 419/16/20 420/22/20
f 421/1/1 422/2/1 423/3/1
f 424/2/2 425/4/2 426/5/2
f 427/6/3 428/7/3 429/8/3
f 430/9/4 431/8/4 432/10/4
s 1
f 433/11/5 434/10/5 435/5/5
s 0
f 436/2/6 437/5/6 438/12/6
f 439/3/7 440/2/7 441/13/7
f 442/8/24 443/7/24 444/14/24
f 445/10/25 446/8/25 447/15/25
f 448/5/10 449/10/10 450/16/10
f 451/2/11 452/12/11 453/13/11
f 454/3/12 455/13/12 456/17/12
f 457/8/13 458/14/13 459/15/13
f 460/10/14 461/15/14 462/16/14
f 463/5/15 464/16/15 465/12/15
f 466/13/16 467/12/16 468/18/16
f 469/17/17 470/13/17 471/19/17
f 472/15/18 473/14/18 474/20/18
f 475/16/19 476/15/19 477/21/19
f 478/12/20 479/16/20 480/22/20
s 1
f 481/1/1 482/2/1 483/3/1
s 0
f 484/2/2 485/4/2 486/5/2
f 487/6/3 488/7/3 489/8/3
f 490/9/4 491/8/4 492/10/4
s 1
f 493/11/5 494/10/5 495/5/5
s 0
f 496/2/6 497/5/6 498/12/6
f 499/3/7 500/2/7 501/13/7
f 502/8/8 503/7/8 504/14/8
f 505/10/9 506/8/9 507/15/9
f 508/5/10 509/10/10 510/16/10
f 511/2/11 512/12/11 513/13/11
f 514/3/12 515/13/12 516/17/12
f 517/8/13 518/14/13 519/15/13
f 520/10/14 521/15/14 522/16/14
s 1
f 523/5/15 524/16/15 525/12/15
s 0
f 526/13/16 527/12/16 528/18/16
f 529/17/17 530/13/17 531/19/17
f 532/15/18 533/14/18 534/20/18
f 535/16/19 536/15/19 537/21/19
f 538/12/20 539/16/20 540/22/20
f 541/1/1 542/2/1 543/3/1
f 544/2/2 545/4/2 546/5/2
f 547/6/3 548/7/3 549/8/3
f 550/9/4 551/8/4 552/10/4
f 553/11/5 554/10/5 555/5/5
f 556/2/6 557/5/6 558/12/6
f 559/3/7 560/2/7 561/13/7
f 562/8/8 563/7/8 564/14/8
f 565/10/9 566/8/9 567/15/9
f 568/5/10 569/10/10 570/16/10
f 571/2/11 572/12/11 573/13/11
f 574/3/12 575/13/12 576/17/12
f 577/8/13 578/14/13 579/15/13
f 580/10/14 581/15/14 582/16/14
f 583/5/22 584/16/22 585/12/22
f 586/13/16 587/12/16 588/18/16
f 589/17/17 590/13/17 591/19/17
f 592/15/18 593/14/18 594/20/18
f 595/16/19 596/15/19 597/21/19
f 598/12/20 599/16/20 600/22/20
f 601/1/1 602/2/1 603/3/1
f 604/2/2 605/4/2 606/5/2
f 607/6/3 608/7/3 609/8/3
f 610/9/4 611/8/4 612/10/4
f 613/11/5 614/10/5 615/5/5
f 616/2/6 617/5/6 618/12/6
f 619/3/7 620/2/7 621/13/7
f 622/8/8 623/7/8 624/14/8
f 625/10/9 626/8/9 627/15/9
f 628/5/10 629/10/10 630/16/10
f 631/2/11 632/12/11 633/13/11
f 634/3/12 635/13/12 636/17/12
f 637/8/13 638/14/13 639/15/13
f 640/10/14 641/15/14 642/16/14
f 643/5/15 644/16/15 645/12/15
f 646/13/16 647/12/16 648/18/16
f 649/17/17 650/13/17 651/19/17
f 652/15/18 653/14/18 654/20/18
f 655/16/19 656/15/19 657/21/19
f 658/12/20 659/16/20 660/22/20
f 661/1/1 662/2/1 663/3/1
f 664/2/2 665/4/2 666/5/2
f 667/6/3 668/7/3 669/8/3
f 670/9/4 671/8/4 672/10/4
f 673/11/5 674/10/5 675/5/5
f 676/2/6 677/5/6 678/12/6
f 679/3/7 680/2/7 681/13/7
f 682/8/24 683/7/24 684/14/24
f 685/10/25 686/8/25 687/15/25
f 688/5/10 689/10/10 690/16/10
f 691/2/11 692/12/11 693/13/11
f 694/3/12 695/13/12 696/17/12
f 697/8/13 698/14/13 699/15/13
f 700/10/14 701/15/14 702/16/14
f 703/5/15 704/16/15 705/12/15
f 706/13/16 707/12/16 708/18/16
f 709/17/17 710/13/17 711/19/17
f 712/15/18 713/14/18 714/20/18
f 715/16/19 716/15/19 717/21/19
f 718/12/20 719/16/20 720/22/20
f 721/1/1 722/2/1 723/3/1
f 724/2/2 725/4/2 726/5/2
f 727/6/3 728/7/3 729/8/3
f 730/9/4 731/8/4 732/10/4
f 733/11/5 734/10/5 735/5/5
f 736/2/6 737/5/6 738/12/6
f 739/3/7 740/2/7 741/13/7
f 742/8/24 743/7/24 744/14/24
f 745/10/25 746/8/25 747/15/25
f 748/5/10 749/10/10 750/16/10
f 751/2/11 752/12/11 753/13/11
f 754/3/12 755/13/12 756/17/12
f 757/8/13 758/14/13 759/15/13
f 760/10/14 761/15/14 762/16/14
f 763/5/15 764/16/15 765/12/15
f 766/13/16 767/12/16 768/18/16
f 769/17/17 770/13/17 771/19/17
f 772/15/18 773/14/18 774/20/18
f 775/16/19 776/15/19 777/21/19
f 778/12/20 779/16/20 780/22/20
