# Blender 4.5.4 LTS
# www.blender.org
mtllib tree4_leaves.mtl
o Lowpoly_Tree_05_Material.002_0
v -0.070797 1.502388 0.139467
v -0.197908 1.491230 -0.054903
v -0.201799 1.414032 0.133349
v -0.197908 1.491230 -0.054903
v -0.212269 1.311649 -0.352972
v -0.287555 1.279235 0.057411
v -0.132186 1.349629 0.308624
v -0.201799 1.414032 0.133349
v -0.287555 1.279235 0.057411
v -0.070797 1.502388 0.139467
v -0.201799 1.414032 0.133349
v -0.132186 1.349629 0.308624
v 0.031913 1.617694 -0.009282
v -0.197908 1.491230 -0.054903
v -0.070797 1.502388 0.139467
v 0.031913 1.617694 -0.009282
v -0.195753 1.488799 -0.226814
v -0.197908 1.491230 -0.054903
v -0.195753 1.488799 -0.226814
v -0.013643 1.726631 -0.177887
v -0.120550 1.472215 -0.376499
v -0.287555 1.279235 0.057411
v -0.196971 1.200737 -0.315187
v -0.259872 1.171710 -0.044339
v -0.287555 1.279235 0.057411
v -0.259872 1.171710 -0.044339
v -0.214286 1.196430 0.221517
v 0.122488 1.479609 -0.420813
v 0.397821 1.195143 -0.416516
v -0.000078 1.295659 -0.459461
v 0.265372 1.590325 -0.321977
v 0.423588 1.363658 -0.325636
v 0.122488 1.479609 -0.420813
v -0.212269 1.311649 -0.352972
v -0.035868 1.189792 -0.402957
v -0.196971 1.200737 -0.315187
v -0.120550 1.472215 -0.376499
v -0.000078 1.295659 -0.459461
v -0.212269 1.311649 -0.352972
v -0.013643 1.726631 -0.177887
v 0.122488 1.479609 -0.420813
v -0.120550 1.472215 -0.376499
v -0.013643 1.726631 -0.177887
v 0.265372 1.590325 -0.321977
v 0.122488 1.479609 -0.420813
v 0.265372 1.590325 -0.321977
v 0.622676 1.473159 -0.240776
v 0.644106 1.274068 -0.353076
v 0.397821 1.195143 -0.416516
v 0.644106 1.274068 -0.353076
v 0.551768 1.028335 -0.373734
v -0.035868 1.189792 -0.402957
v 0.397821 1.195143 -0.416516
v 0.551768 1.028335 -0.373734
v 0.709758 1.004893 -0.239263
v 0.800269 1.217597 0.028832
v 0.780469 0.954760 0.004354
v 0.800269 1.217597 0.028832
v 0.620211 1.174245 0.343950
v 0.780469 0.954760 0.004354
v 0.551768 1.028335 -0.373734
v 0.748230 1.185997 -0.248243
v 0.709758 1.004893 -0.239263
v 0.622676 1.473159 -0.240776
v 0.748230 1.185997 -0.248243
v 0.644106 1.274068 -0.353076
v 0.793874 1.502106 -0.108863
v 0.800269 1.217597 0.028832
v 0.748230 1.185997 -0.248243
v 0.695451 1.453732 0.003898
v 0.704900 1.390813 0.177267
v 0.800269 1.217597 0.028832
v 0.704900 1.390813 0.177267
v 0.612566 1.320336 0.345781
v 0.729586 1.231353 0.228778
v 0.607174 0.950850 -0.012613
v 0.620211 1.174245 0.343950
v 0.513333 1.099739 0.318719
v 0.709758 1.004893 -0.239263
v 0.607174 0.950850 -0.012613
v 0.575613 0.944320 -0.237803
v 0.384805 1.174132 0.431398
v 0.423267 1.298390 0.409880
v -0.003966 1.279988 0.347834
v 0.423267 1.298390 0.409880
v 0.184742 1.511843 0.234413
v -0.132186 1.349629 0.308624
v 0.513333 1.099739 0.318719
v 0.384805 1.174132 0.431398
v 0.346576 1.110899 0.346586
v 0.620211 1.174245 0.343950
v 0.423267 1.298390 0.409880
v 0.384805 1.174132 0.431398
v 0.612566 1.320336 0.345781
v 0.491543 1.607645 0.193011
v 0.423267 1.298390 0.409880
v 0.184742 1.511843 0.234413
v 0.031913 1.617694 -0.009282
v -0.070797 1.502388 0.139467
v -0.067521 1.195237 0.303344
v -0.132186 1.349629 0.308624
v -0.214286 1.196430 0.221517
v 0.346576 1.110899 0.346586
v -0.003966 1.279988 0.347834
v -0.067521 1.195237 0.303344
v 0.084159 1.092450 -0.221201
v 0.346576 1.110899 0.346586
v -0.130459 1.145227 0.169783
v -0.035868 1.189792 -0.402957
v 0.084159 1.092450 -0.221201
v -0.122819 1.114443 -0.181611
v 0.551768 1.028335 -0.373734
v 0.084159 1.092450 -0.221201
v -0.035868 1.189792 -0.402957
v 0.607174 0.950850 -0.012613
v 0.513333 1.099739 0.318719
v 0.346576 1.110899 0.346586
v 0.346576 1.110899 0.346586
v -0.067521 1.195237 0.303344
v -0.130459 1.145227 0.169783
v -0.122819 1.114443 -0.181611
v -0.214286 1.196430 0.221517
v -0.259872 1.171710 -0.044339
v -0.196971 1.200737 -0.315187
v -0.122819 1.114443 -0.181611
v -0.259872 1.171710 -0.044339
v 0.315501 1.685207 -0.113852
v 0.188875 1.667543 0.001934
v 0.491543 1.607645 0.193011
v 0.622676 1.473159 -0.240776
v 0.553616 1.580690 -0.098924
v 0.793874 1.502106 -0.108863
v 0.622676 1.473159 -0.240776
v 0.315501 1.685207 -0.113852
v 0.553616 1.580690 -0.098924
v 0.315501 1.685207 -0.113852
v 0.031913 1.617694 -0.009282
v 0.188875 1.667543 0.001934
v 0.188875 1.667543 0.001934
v 0.031913 1.617694 -0.009282
v 0.184742 1.511843 0.234413
v 0.491543 1.607645 0.193011
v 0.612566 1.320336 0.345781
v 0.704900 1.390813 0.177267
v 0.553616 1.580690 -0.098924
v 0.704900 1.390813 0.177267
v 0.695451 1.453732 0.003898
v 0.553616 1.580690 -0.098924
v 0.695451 1.453732 0.003898
v 0.793874 1.502106 -0.108863
v -0.201799 1.414032 0.133349
v -0.197908 1.491230 -0.054903
v -0.287555 1.279235 0.057411
v -0.197908 1.491230 -0.054903
v -0.195753 1.488799 -0.226814
v -0.212269 1.311649 -0.352972
v -0.214286 1.196430 0.221517
v -0.132186 1.349629 0.308624
v -0.287555 1.279235 0.057411
v 0.031913 1.617694 -0.009282
v -0.013643 1.726631 -0.177887
v -0.195753 1.488799 -0.226814
v -0.195753 1.488799 -0.226814
v -0.120550 1.472215 -0.376499
v -0.212269 1.311649 -0.352972
v -0.287555 1.279235 0.057411
v -0.212269 1.311649 -0.352972
v -0.196971 1.200737 -0.315187
v 0.122488 1.479609 -0.420813
v 0.423588 1.363658 -0.325636
v 0.397821 1.195143 -0.416516
v -0.212269 1.311649 -0.352972
v -0.000078 1.295659 -0.459461
v -0.035868 1.189792 -0.402957
v -0.120550 1.472215 -0.376499
v 0.122488 1.479609 -0.420813
v -0.000078 1.295659 -0.459461
v 0.423588 1.363658 -0.325636
v 0.265372 1.590325 -0.321977
v 0.644106 1.274068 -0.353076
v 0.397821 1.195143 -0.416516
v 0.423588 1.363658 -0.325636
v 0.644106 1.274068 -0.353076
v -0.035868 1.189792 -0.402957
v -0.000078 1.295659 -0.459461
v 0.397821 1.195143 -0.416516
v 0.709758 1.004893 -0.239263
v 0.748230 1.185997 -0.248243
v 0.800269 1.217597 0.028832
v 0.800269 1.217597 0.028832
v 0.729586 1.231353 0.228778
v 0.620211 1.174245 0.343950
v 0.800269 1.217597 0.028832
v 0.704900 1.390813 0.177267
v 0.729586 1.231353 0.228778
v 0.551768 1.028335 -0.373734
v 0.709758 1.004893 -0.239263
v 0.575613 0.944320 -0.237803
v 0.551768 1.028335 -0.373734
v 0.644106 1.274068 -0.353076
v 0.748230 1.185997 -0.248243
v 0.622676 1.473159 -0.240776
v 0.793874 1.502106 -0.108863
v 0.748230 1.185997 -0.248243
v 0.793874 1.502106 -0.108863
v 0.695451 1.453732 0.003898
v 0.800269 1.217597 0.028832
v 0.729586 1.231353 0.228778
v 0.612566 1.320336 0.345781
v 0.620211 1.174245 0.343950
v 0.607174 0.950850 -0.012613
v 0.780469 0.954760 0.004354
v 0.620211 1.174245 0.343950
v 0.709758 1.004893 -0.239263
v 0.780469 0.954760 0.004354
v 0.607174 0.950850 -0.012613
v 0.491543 1.607645 0.193011
v 0.184742 1.511843 0.234413
v 0.423267 1.298390 0.409880
v -0.003966 1.279988 0.347834
v 0.423267 1.298390 0.409880
v -0.132186 1.349629 0.308624
v 0.513333 1.099739 0.318719
v 0.620211 1.174245 0.343950
v 0.384805 1.174132 0.431398
v 0.620211 1.174245 0.343950
v 0.612566 1.320336 0.345781
v 0.423267 1.298390 0.409880
v -0.132186 1.349629 0.308624
v 0.184742 1.511843 0.234413
v -0.070797 1.502388 0.139467
v -0.067521 1.195237 0.303344
v -0.003966 1.279988 0.347834
v -0.132186 1.349629 0.308624
v 0.346576 1.110899 0.346586
v 0.384805 1.174132 0.431398
v -0.003966 1.279988 0.347834
v 0.084159 1.092450 -0.221201
v 0.575613 0.944320 -0.237803
v 0.607174 0.950850 -0.012613
v -0.122819 1.114443 -0.181611
v 0.084159 1.092450 -0.221201
v -0.130459 1.145227 0.169783
v 0.084159 1.092450 -0.221201
v 0.607174 0.950850 -0.012613
v 0.346576 1.110899 0.346586
v -0.196971 1.200737 -0.315187
v -0.035868 1.189792 -0.402957
v -0.122819 1.114443 -0.181611
v 0.551768 1.028335 -0.373734
v 0.575613 0.944320 -0.237803
v 0.084159 1.092450 -0.221201
v -0.130459 1.145227 0.169783
v -0.067521 1.195237 0.303344
v -0.214286 1.196430 0.221517
v -0.122819 1.114443 -0.181611
v -0.130459 1.145227 0.169783
v -0.214286 1.196430 0.221517
v 0.553616 1.580690 -0.098924
v 0.315501 1.685207 -0.113852
v 0.491543 1.607645 0.193011
v 0.622676 1.473159 -0.240776
v 0.265372 1.590325 -0.321977
v 0.315501 1.685207 -0.113852
v 0.265372 1.590325 -0.321977
v -0.013643 1.726631 -0.177887
v 0.315501 1.685207 -0.113852
v 0.315501 1.685207 -0.113852
v -0.013643 1.726631 -0.177887
v 0.031913 1.617694 -0.009282
v 0.491543 1.607645 0.193011
v 0.188875 1.667543 0.001934
v 0.184742 1.511843 0.234413
v 0.553616 1.580690 -0.098924
v 0.491543 1.607645 0.193011
v 0.704900 1.390813 0.177267
vn -0.5416 0.7816 0.3093
vn -0.9366 0.3183 -0.1467
vn -0.8482 0.2898 0.4434
vn -0.5092 0.7225 0.4677
vn -0.5049 0.8153 0.2834
vn -0.4792 0.8775 -0.0184
vn -0.6817 0.6062 -0.4096
vn -0.9727 -0.0333 -0.2295
vn -0.8917 -0.4104 0.1911
vn 0.1356 0.1164 -0.9839
vn 0.3867 0.2841 -0.8773
vn -0.4674 -0.3422 -0.8152
vn -0.4381 0.1197 -0.8909
vn -0.1557 0.6477 -0.7458
vn -0.0356 0.6907 -0.7223
vn 0.3427 0.4893 -0.8020
vn 0.2536 -0.0140 -0.9672
vn -0.0267 -0.2714 -0.9621
vn 0.9568 -0.0453 -0.2871
vn 0.8694 -0.1103 0.4816
vn 0.6239 -0.1704 -0.7627
vn 0.7954 0.3604 -0.4872
vn 0.9821 -0.0637 -0.1772
vn 0.9054 0.4125 0.1004
vn 0.7787 0.2988 0.5516
vn 0.4281 -0.7728 0.4685
vn 0.4111 -0.9111 -0.0312
vn -0.1494 0.2134 0.9655
vn -0.0973 0.5649 0.8194
vn 0.0434 -0.8102 0.5845
vn 0.3477 0.0545 0.9360
vn 0.2168 0.5280 0.8211
vn -0.2168 0.8384 0.5001
vn -0.4755 -0.2282 0.8496
vn -0.1685 -0.3561 0.9191
vn -0.1005 -0.9918 0.0787
vn -0.1688 -0.9109 -0.3764
vn -0.2342 -0.9129 -0.3343
vn 0.0078 -0.9113 0.4117
vn -0.2231 -0.8737 0.4323
vn -0.2646 -0.9550 0.1342
vn -0.5516 -0.8060 -0.2145
vn 0.0586 0.9753 0.2129
vn 0.2494 0.8263 -0.5050
vn 0.3852 0.8160 -0.4310
vn -0.2872 0.9426 -0.1703
vn -0.2910 0.7973 0.5288
vn 0.6078 0.5570 0.5660
vn 0.5303 0.8058 0.2636
vn 0.2762 0.7721 0.5723
vn -0.8720 0.4589 0.1702
vn -0.9946 0.1026 -0.0139
vn -0.8580 0.1880 0.4780
vn -0.7355 0.4610 0.4966
vn -0.8033 0.3933 -0.4472
vn -0.9612 -0.1980 -0.1920
vn 0.4094 0.3838 -0.8277
vn -0.4459 -0.2995 -0.8435
vn -0.1795 0.3154 -0.9318
vn -0.1616 -0.0969 -0.9821
vn 0.0786 0.4639 -0.8824
vn -0.0219 -0.4650 -0.8851
vn 0.9645 -0.2127 -0.1569
vn 0.6599 -0.6967 0.2812
vn 0.9199 0.2421 0.3085
vn 0.3424 -0.7712 -0.5367
vn 0.6239 -0.1703 -0.7627
vn 0.5600 0.2652 -0.7849
vn 0.6255 0.3512 0.6967
vn 0.7176 0.0288 0.6958
vn -0.0329 -0.8464 0.5315
vn 0.0429 -0.9760 -0.2133
vn -0.0730 0.5834 0.8089
vn -0.1497 0.2612 0.9536
vn 0.2699 -0.6329 0.7257
vn 0.3202 0.0049 0.9473
vn -0.2501 0.7620 0.5973
vn -0.3801 -0.1901 0.9052
vn -0.3263 -0.6814 0.6551
vn -0.2858 -0.9559 0.0678
vn -0.0892 -0.9924 0.0850
vn -0.3232 -0.9292 0.1796
vn -0.2804 -0.8697 -0.4062
vn -0.2690 -0.8397 -0.4718
vn -0.2532 -0.8607 0.4416
vn -0.4904 -0.8690 0.0655
vn 0.4019 0.9157 0.0009
vn 0.3692 0.8088 -0.4577
vn 0.1966 0.8734 -0.4455
vn 0.0001 0.8400 0.5427
vn -0.1820 0.8185 0.5449
vn 0.7132 0.6955 0.0874
vt 0.562500 0.961607
vt 0.524662 0.875000
vt 0.500000 0.937500
vt 0.437500 0.773455
vt 0.437500 0.909630
vt 0.473116 1.000000
vt 0.625000 0.903418
vt 0.516760 0.812500
vt 0.625000 0.796406
vt 0.506573 0.750000
vt 0.375000 0.778673
vt 0.375000 0.875000
vt 0.375000 0.974626
vt 0.515787 0.666880
vt 0.437500 0.562500
vt 0.437500 0.681249
vt 0.581416 0.621764
vt 0.500000 0.562500
vt 0.375000 0.682755
vt 0.628717 0.500000
vt 0.525438 0.500000
vt 0.394053 0.504041
vt 0.437500 0.437500
vt 0.526845 0.375000
vt 0.437500 0.375000
vt 0.437500 0.267695
vt 0.513682 0.437500
vt 0.625000 0.437500
vt 0.625000 0.375000
vt 0.576626 0.312500
vt 0.520964 0.250000
vt 0.500000 0.312500
vt 0.374102 0.375000
vt 0.375000 0.258157
vt 0.372683 0.437500
vt 0.437500 0.187500
vt 0.500000 0.187441
vt 0.437500 0.073147
vt 0.586990 0.074275
vt 0.473116 0.009188
vt 0.375000 0.187500
vt 0.609123 0.187500
vt 0.625000 -0.000000
vt 0.562500 -0.000000
vt 0.375000 0.069144
vt 0.375000 -0.000000
vt 0.250000 0.426185
vt 0.312500 0.250111
vt 0.187249 0.312500
vt 0.192245 0.500000
vt 0.187500 0.414706
vt 0.390011 0.500000
vt 0.194144 0.250000
vt 0.125000 0.275374
vt 0.125000 0.375000
vt 0.125000 0.471327
vt 0.761388 0.424915
vt 0.812500 0.353600
vt 0.688954 0.301813
vt 0.687500 0.422113
vt 0.875000 0.346582
vt 0.800512 0.250000
vt 0.750000 0.500000
vt 0.874413 0.453006
s 0
usemtl Material.003
f 1/1/1 2/2/1 3/3/1
f 4/2/2 5/4/2 6/5/2
f 7/6/3 8/3/3 9/5/3
f 10/1/4 11/3/4 12/6/4
f 13/7/5 14/2/5 15/1/5
f 16/7/6 17/8/6 18/2/6
f 19/8/7 20/9/7 21/10/7
f 22/5/8 23/11/8 24/12/8
f 25/5/9 26/12/9 27/13/9
f 28/14/10 29/15/10 30/16/10
f 31/17/11 32/18/11 33/14/11
f 34/4/12 35/19/12 36/11/12
f 37/10/13 38/16/13 39/4/13
f 40/9/14 41/14/14 42/10/14
f 43/9/15 44/17/15 45/14/15
f 46/17/16 47/20/16 48/21/16
f 49/15/17 50/21/17 51/22/17
f 52/19/18 53/15/18 54/22/18
f 55/23/19 56/24/19 57/25/19
f 58/24/20 59/26/20 60/25/20
s 1
f 61/22/21 62/27/21 63/23/21
s 0
f 64/20/22 65/27/22 66/21/22
f 67/28/23 68/24/23 69/27/23
f 70/29/24 71/30/24 72/24/24
f 73/30/25 74/31/25 75/32/25
f 76/33/26 77/26/26 78/34/26
f 79/23/27 80/33/27 81/35/27
f 82/36/28 83/37/28 84/38/28
s 1
f 85/37/29 86/39/29 87/40/29
s 0
f 88/34/30 89/36/30 90/41/30
f 91/26/31 92/37/31 93/36/31
f 94/31/32 95/42/32 96/37/32
f 97/39/33 98/43/33 99/44/33
f 100/45/34 101/40/34 102/46/34
f 103/41/35 104/38/35 105/45/35
f 106/47/36 107/48/36 108/49/36
f 109/50/37 110/47/37 111/51/37
f 112/52/38 113/47/38 114/50/38
f 115/33/39 116/34/39 117/48/39
f 118/48/40 119/53/40 120/49/40
f 121/51/41 122/54/41 123/55/41
f 124/56/42 125/51/42 126/55/42
f 127/57/43 128/58/43 129/59/43
f 130/20/44 131/60/44 132/28/44
f 133/20/45 134/57/45 135/60/45
f 136/57/46 137/61/46 138/58/46
f 139/58/47 140/61/47 141/62/47
f 142/59/48 143/31/48 144/30/48
f 145/60/49 146/30/49 147/29/49
f 148/60/50 149/29/50 150/28/50
f 151/3/51 152/2/51 153/5/51
f 154/2/52 155/8/52 156/4/52
f 157/13/53 158/6/53 159/5/53
f 160/7/54 161/9/54 162/8/54
f 163/8/55 164/10/55 165/4/55
f 166/5/56 167/4/56 168/11/56
f 169/14/57 170/18/57 171/15/57
f 172/4/58 173/16/58 174/19/58
f 175/10/59 176/14/59 177/16/59
f 178/18/60 179/17/60 180/21/60
f 181/15/61 182/18/61 183/21/61
f 184/19/62 185/16/62 186/15/62
f 187/23/63 188/27/63 189/24/63
f 190/24/64 191/32/64 192/26/64
f 193/24/65 194/30/65 195/32/65
f 196/22/66 197/23/66 198/35/66
f 199/22/67 200/21/67 201/27/67
f 202/20/68 203/28/68 204/27/68
f 205/28/69 206/29/69 207/24/69
f 208/32/70 209/31/70 210/26/70
f 211/33/71 212/25/71 213/26/71
f 214/23/72 215/25/72 216/33/72
f 217/42/73 218/39/73 219/37/73
f 220/38/74 221/37/74 222/40/74
f 223/34/75 224/26/75 225/36/75
f 226/26/76 227/31/76 228/37/76
f 229/40/77 230/39/77 231/44/77
f 232/45/78 233/38/78 234/40/78
f 235/41/79 236/36/79 237/38/79
f 238/47/80 239/35/80 240/33/80
f 241/51/81 242/47/81 243/49/81
f 244/47/82 245/33/82 246/48/82
f 247/56/83 248/50/83 249/51/83
f 250/52/84 251/35/84 252/47/84
f 253/49/85 254/53/85 255/54/85
f 256/51/86 257/49/86 258/54/86
f 259/60/87 260/57/87 261/59/87
f 262/20/88 263/63/88 264/57/88
f 265/63/89 266/64/89 267/57/89
f 268/57/90 269/64/90 270/61/90
f 271/59/91 272/58/91 273/62/91
f 274/60/92 275/59/92 276/30/92
