# Blender 4.5.4 LTS
# www.blender.org
mtllib grass.mtl
o Cone_Material.001_0
v -0.000000 0.054674 0.335223
v 0.042709 0.054674 0.392858
v -0.042709 0.054674 0.392858
v 0.013016 0.238572 0.373142
v -0.001377 0.247894 0.365111
v -0.001690 0.304905 0.418224
v -0.001377 0.247894 0.365111
v -0.011331 0.236968 0.375595
v -0.001690 0.304905 0.418224
v -0.011331 0.236968 0.375595
v 0.013016 0.238572 0.373142
v -0.001690 0.304905 0.418224
v 0.011469 0.054234 0.271540
v 0.062335 0.054234 0.322120
v -0.022117 0.054234 0.334926
v 0.030726 0.302614 0.310485
v 0.015274 0.295465 0.298860
v 0.001871 0.396400 0.293283
v 0.015274 0.295465 0.298860
v 0.007445 0.299028 0.317451
v 0.001871 0.396400 0.293283
v 0.007445 0.299028 0.317451
v 0.030726 0.302614 0.310485
v 0.001871 0.396400 0.293283
v -0.000000 0.054674 0.335223
v -0.000074 0.181574 0.341165
v 0.024046 0.177780 0.369384
v 0.042709 0.054674 0.392858
v -0.042709 0.054674 0.392858
v -0.021188 0.171720 0.370445
v -0.000074 0.181574 0.341165
v -0.000000 0.054674 0.335223
v 0.024046 0.177780 0.369384
v -0.000074 0.181574 0.341165
v -0.020880 0.173610 0.370892
v 0.024046 0.177780 0.369384
v 0.013016 0.238572 0.373142
v -0.011331 0.236968 0.375595
v 0.011469 0.054234 0.271540
v 0.017233 0.213891 0.290195
v 0.044233 0.221748 0.314949
v 0.062335 0.054234 0.322120
v -0.022117 0.054234 0.334926
v 0.000475 0.211612 0.324670
v 0.017233 0.213891 0.290195
v 0.011469 0.054234 0.271540
v 0.000538 0.214117 0.324103
v 0.044233 0.221748 0.314949
v 0.042709 0.054674 0.392858
v 0.024046 0.177780 0.369384
v -0.020880 0.173610 0.370892
v -0.021188 0.171720 0.370445
v -0.042709 0.054674 0.392858
v -0.020880 0.173610 0.370892
v 0.062335 0.054234 0.322120
v 0.000475 0.211612 0.324670
v -0.022117 0.054234 0.334926
v 0.000538 0.214117 0.324103
vn -0.0000 -1.0000 -0.0000
vn 0.6937 0.3357 -0.6372
vn 0.6986 0.3033 -0.6481
vn 0.6477 0.5213 -0.5557
vn -0.8280 0.2232 -0.5143
vn -0.8333 0.2701 -0.4824
vn -0.8351 0.3725 -0.4048
vn 0.1195 -0.5398 0.8333
vn 0.6186 0.0646 -0.7831
vn 0.6119 0.0571 -0.7889
vn 0.5908 0.0339 -0.8061
vn -0.9158 -0.0442 -0.3993
vn -0.9140 -0.0292 -0.4047
vn -0.9217 -0.1423 -0.3609
vn 0.2304 0.1391 0.9631
vn 0.2299 0.1353 0.9638
vn 0.2427 0.2468 0.9382
vn 0.7894 0.0161 -0.6137
vn 0.7892 0.0162 -0.6140
vn -0.8073 0.0312 -0.5893
vn -0.8149 0.0917 -0.5723
vn -0.8136 0.0789 -0.5761
vn 0.7072 0.2154 -0.6734
vn 0.0625 -0.0671 0.9958
vn 0.6917 0.0514 -0.7203
vn 0.6688 0.0627 -0.7408
vn 0.6677 0.0633 -0.7418
vn -0.8864 0.0913 -0.4539
vn -0.8929 0.0710 -0.4446
vn -0.8943 0.0665 -0.4425
vn 0.1901 0.0604 0.9799
vn 0.1912 0.0609 0.9797
vn -0.0004 0.1855 0.9826
vn -0.8200 0.1744 -0.5452
vn 0.1689 0.0513 0.9843
vn -0.9046 0.0299 -0.4252
vt 0.089367 0.557397
vt 0.085355 0.558237
vt 0.087048 0.556673
vt 0.086337 0.547756
vt 0.087036 0.547067
vt 0.083854 0.543973
vt 0.086694 0.547549
vt 0.092662 0.557592
vt 0.088959 0.558601
vt 0.089771 0.557021
vt 0.089293 0.544350
vt 0.090261 0.544584
vt 0.090456 0.538809
vt 0.089342 0.544319
vt 0.088587 0.550661
vt 0.086564 0.551232
vt 0.087414 0.550909
vt 0.087376 0.550814
vt 0.091000 0.549108
vt 0.089085 0.549051
vt 0.089381 0.549035
vt 0.089402 0.548900
s 0
usemtl Material.001
f 1/1/1 2/2/1 3/3/1
s 1
f 4/4/2 5/5/3 6/6/4
f 7/5/5 8/7/6 9/6/7
s 0
f 10/7/8 11/4/8 12/6/8
f 13/8/1 14/9/1 15/10/1
s 1
f 16/11/9 17/12/10 18/13/11
f 19/12/12 20/14/13 21/13/14
f 22/14/15 23/11/16 24/13/17
f 25/1/18 26/15/18 27/16/19
f 25/1/18 27/16/19 28/2/18
f 29/3/20 30/17/21 31/15/22
f 29/3/20 31/15/22 32/1/20
f 33/16/23 34/15/23 5/5/3
f 33/16/23 5/5/3 4/4/2
f 35/18/24 36/16/24 37/4/24
f 35/18/24 37/4/24 38/7/24
f 39/8/25 40/19/26 41/20/27
f 39/8/25 41/20/27 42/9/25
f 43/10/28 44/21/29 45/19/30
f 43/10/28 45/19/30 46/8/28
f 41/20/27 40/19/26 17/12/10
f 41/20/27 17/12/10 16/11/9
f 47/22/31 48/20/32 23/11/16
f 47/22/31 23/11/16 22/14/15
f 50/16/33 53/3/33 49/2/33
f 53/3/33 50/16/33 52/17/33
f 52/17/33 50/16/33 51/18/33
f 7/5/5 54/18/34 8/7/6
f 54/18/34 7/5/5 30/17/21
f 30/17/21 7/5/5 31/15/22
f 48/20/32 57/10/35 55/9/35
f 57/10/35 48/20/32 56/21/35
f 56/21/35 48/20/32 47/22/31
f 58/22/36 45/19/30 44/21/29
f 45/19/30 58/22/36 20/14/13
f 45/19/30 20/14/13 19/12/12
o Cone.002_Material.001_0
v -0.408070 0.054234 0.063903
v -0.365361 0.054234 0.121538
v -0.450779 0.054234 0.121538
v -0.395054 0.298508 0.101822
v -0.409447 0.310891 0.093791
v -0.409760 0.386620 0.146904
v -0.409447 0.310891 0.093791
v -0.419401 0.296378 0.104275
v -0.409760 0.386620 0.146904
v -0.419401 0.296378 0.104275
v -0.395054 0.298508 0.101822
v -0.409760 0.386620 0.146904
v -0.473214 0.054234 0.001788
v -0.418367 0.054234 0.048022
v -0.501483 0.054234 0.067717
v -0.450825 0.302614 0.039021
v -0.467179 0.295466 0.028704
v -0.480995 0.396401 0.024246
v -0.467179 0.295466 0.028704
v -0.473455 0.299028 0.047875
v -0.480995 0.396401 0.024246
v -0.473455 0.299028 0.047875
v -0.450825 0.302614 0.039021
v -0.480995 0.396401 0.024246
v -0.350187 0.054035 0.005878
v -0.307479 0.054035 0.063512
v -0.392896 0.054035 0.063512
v -0.339121 0.270260 0.048799
v -0.347146 0.258513 0.035574
v -0.344147 0.342995 0.000801
v -0.347146 0.258513 0.035574
v -0.362648 0.268645 0.041991
v -0.344147 0.342995 0.000801
v -0.362648 0.268645 0.041991
v -0.339121 0.270260 0.048799
v -0.344147 0.342995 0.000801
v -0.408070 0.054234 0.063903
v -0.408144 0.222798 0.069845
v -0.384024 0.217757 0.098065
v -0.365361 0.054234 0.121538
v -0.450779 0.054234 0.121538
v -0.429259 0.209708 0.099125
v -0.408144 0.222798 0.069845
v -0.408070 0.054234 0.063903
v -0.384024 0.217757 0.098065
v -0.408144 0.222798 0.069845
v -0.428950 0.212219 0.099572
v -0.384024 0.217757 0.098065
v -0.395054 0.298508 0.101822
v -0.419401 0.296378 0.104275
v -0.473214 0.054234 0.001788
v -0.465939 0.213892 0.019907
v -0.436997 0.221749 0.042361
v -0.418367 0.054234 0.048022
v -0.501483 0.054234 0.067717
v -0.479810 0.211612 0.055641
v -0.465939 0.213892 0.019907
v -0.473214 0.054234 0.001788
v -0.479793 0.214117 0.055072
v -0.436997 0.221749 0.042361
v -0.350187 0.054035 0.005878
v -0.349461 0.188121 0.034401
v -0.329231 0.198244 0.063666
v -0.307479 0.054035 0.063512
v -0.392896 0.054035 0.063512
v -0.374858 0.193615 0.062488
v -0.349461 0.188121 0.034401
v -0.350187 0.054035 0.005878
v -0.347146 0.258513 0.035574
v -0.339121 0.270260 0.048799
v -0.374365 0.195605 0.061474
v -0.329231 0.198244 0.063666
v -0.365361 0.054234 0.121538
v -0.384024 0.217757 0.098065
v -0.428950 0.212219 0.099572
v -0.429259 0.209708 0.099125
v -0.450779 0.054234 0.121538
v -0.428950 0.212219 0.099572
v -0.418367 0.054234 0.048022
v -0.479810 0.211612 0.055641
v -0.501483 0.054234 0.067717
v -0.479793 0.214117 0.055072
v -0.473455 0.299028 0.047875
v -0.467179 0.295466 0.028704
v -0.307479 0.054035 0.063512
v -0.329231 0.198244 0.063666
v -0.374365 0.195605 0.061474
v -0.374858 0.193615 0.062488
v -0.392896 0.054035 0.063512
v -0.349461 0.188121 0.034401
v -0.374858 0.193615 0.062488
v -0.374365 0.195605 0.061474
v -0.362648 0.268645 0.041991
v -0.347146 0.258513 0.035574
vn -0.0000 -1.0000 -0.0000
vn 0.7113 0.2592 -0.6533
vn 0.7129 0.2330 -0.6614
vn 0.6895 0.4178 -0.5916
vn -0.8371 0.1698 -0.5200
vn -0.8468 0.2066 -0.4902
vn -0.8614 0.2893 -0.4175
vn 0.1279 -0.4348 0.8914
vn 0.5544 0.0670 -0.8295
vn 0.5442 0.0563 -0.8370
vn 0.5226 0.0339 -0.8519
vn -0.9482 -0.1423 -0.2840
vn 0.3079 0.1323 0.9422
vn 0.3073 0.1273 0.9431
vn 0.3189 0.2468 0.9151
vn 0.9050 -0.1890 -0.3812
vn -0.5284 -0.3070 -0.7915
vn -0.1893 0.3366 0.9224
vn -0.1735 0.3021 0.9373
vn -0.2705 0.5172 0.8120
vn 0.7894 0.0121 -0.6138
vn 0.7894 0.0121 -0.6137
vn -0.8075 0.0235 -0.5894
vn -0.8164 0.0692 -0.5734
vn -0.8146 0.0595 -0.5769
vn 0.7144 0.1638 -0.6803
vn 0.0626 -0.0506 0.9968
vn 0.6302 0.0514 -0.7747
vn 0.6069 0.0622 -0.7923
vn 0.6303 0.0514 -0.7747
vn -0.9206 0.0913 -0.3796
vn -0.9258 0.0733 -0.3709
vn -0.9271 0.0682 -0.3685
vn 0.2687 0.0599 0.9614
vn 0.2693 0.0602 0.9612
vn 0.7970 0.1213 -0.5916
vn 0.8139 0.0702 -0.5768
vn 0.8118 0.0769 -0.5788
vn 0.7972 0.1211 -0.5914
vn -0.7741 0.1156 -0.6224
vn -0.7741 0.1156 -0.6225
vn 0.8347 -0.0085 -0.5507
vn 0.8347 -0.0085 -0.5506
vn -0.1405 0.2298 0.9630
vn -0.0004 0.1407 0.9901
vn -0.8254 0.1322 -0.5488
vn 0.2492 0.0513 0.9671
vn -0.9364 0.0299 -0.3495
vn -0.9365 0.0299 -0.3495
vn -0.0094 0.0054 0.9999
vn -0.0095 0.0055 0.9999
vn -0.6488 -0.0363 -0.7601
vt 0.087502 0.553642
vt 0.084589 0.554319
vt 0.085293 0.553057
vt 0.085270 0.543110
vt 0.085730 0.542434
vt 0.083160 0.539040
vt 0.085362 0.543010
vt 0.090552 0.552690
vt 0.088268 0.553483
vt 0.087922 0.552345
vt 0.088484 0.542458
vt 0.089041 0.542640
vt 0.089168 0.538178
vt 0.088236 0.542451
vt 0.089778 0.554508
vt 0.086814 0.555239
vt 0.087419 0.553876
vt 0.087361 0.544873
vt 0.088062 0.545332
vt 0.089560 0.541391
vt 0.087847 0.544719
vt 0.086959 0.546348
vt 0.085504 0.546838
vt 0.085828 0.546720
vt 0.085802 0.546615
vt 0.089531 0.546134
vt 0.088376 0.546091
vt 0.088069 0.546116
vt 0.088090 0.546010
vt 0.088247 0.548531
vt 0.086710 0.548328
vt 0.087108 0.548000
vt 0.087148 0.547916
s 0
usemtl Material.001
f 59/23/37 60/24/37 61/25/37
s 1
f 62/26/38 63/27/39 64/28/40
f 65/27/41 66/29/42 67/28/43
s 0
f 68/29/44 69/26/44 70/28/44
f 71/30/37 72/31/37 73/32/37
s 1
f 74/33/45 75/34/46 76/35/47
s 0
f 77/34/48 78/36/48 79/35/48
s 1
f 80/36/49 81/33/50 82/35/51
s 0
f 83/37/37 84/38/37 85/39/37
f 86/40/52 87/41/52 88/42/52
f 89/41/53 90/43/53 91/42/53
s 1
f 92/43/54 93/40/55 94/42/56
f 95/23/57 96/44/57 97/45/58
f 95/23/57 97/45/58 98/24/58
f 99/25/59 100/46/60 101/44/61
f 99/25/59 101/44/61 102/23/59
f 103/45/62 104/44/62 63/27/39
f 103/45/62 63/27/39 62/26/38
f 105/47/63 106/45/63 107/26/63
f 105/47/63 107/26/63 108/29/63
f 109/30/64 110/48/65 111/49/65
f 109/30/64 111/49/65 112/31/66
f 113/32/67 114/50/68 115/48/69
f 113/32/67 115/48/69 116/30/67
f 111/49/65 110/48/65 75/34/46
f 111/49/65 75/34/46 74/33/45
f 117/51/70 118/49/71 81/33/50
f 117/51/70 81/33/50 80/36/49
f 119/37/72 120/52/73 121/53/74
f 119/37/72 121/53/74 122/38/75
f 123/39/76 124/54/77 125/52/76
f 123/39/76 125/52/76 126/37/76
f 121/53/74 120/52/73 127/41/78
f 121/53/74 127/41/78 128/40/79
f 129/55/80 130/53/80 93/40/55
f 129/55/80 93/40/55 92/43/54
f 132/45/81 135/25/81 131/24/81
f 135/25/81 132/45/81 134/46/81
f 134/46/81 132/45/81 133/47/81
f 65/27/41 136/47/82 66/29/42
f 136/47/82 65/27/41 100/46/60
f 100/46/60 65/27/41 101/44/61
f 118/49/71 139/32/83 137/31/83
f 139/32/83 118/49/71 138/50/83
f 138/50/83 118/49/71 117/51/70
f 140/51/84 115/48/69 114/50/68
f 115/48/69 140/51/84 141/36/84
f 115/48/69 141/36/84 142/34/85
f 144/53/86 147/39/86 143/38/86
f 147/39/86 144/53/86 146/54/86
f 146/54/86 144/53/86 145/55/87
f 150/55/88 148/52/88 149/54/88
f 148/52/88 150/55/88 151/43/88
f 148/52/88 151/43/88 152/41/88
o Cone.006_Material.001_0
v 0.207899 0.054234 -0.254840
v 0.279549 0.054234 -0.251375
v 0.225439 0.054234 -0.185283
v 0.248289 0.302615 -0.238832
v 0.229030 0.295466 -0.237109
v 0.215343 0.396401 -0.232268
v 0.229030 0.295466 -0.237109
v 0.235675 0.299028 -0.218063
v 0.215343 0.396401 -0.232268
v 0.235675 0.299028 -0.218063
v 0.248289 0.302615 -0.238832
v 0.215343 0.396401 -0.232268
v 0.284374 0.054234 -0.220161
v 0.327083 0.054234 -0.162527
v 0.241665 0.054234 -0.162527
v 0.297390 0.298508 -0.182243
v 0.282997 0.310891 -0.190273
v 0.282684 0.386620 -0.137160
v 0.282997 0.310891 -0.190273
v 0.273043 0.296378 -0.179790
v 0.282684 0.386620 -0.137160
v 0.273043 0.296378 -0.179790
v 0.297390 0.298508 -0.182243
v 0.282684 0.386620 -0.137160
v 0.344369 0.054519 -0.263976
v 0.399432 0.054519 -0.218000
v 0.316410 0.054519 -0.197915
v 0.348750 0.219493 -0.235751
v 0.343648 0.233211 -0.241774
v 0.419397 0.282546 -0.229574
v 0.343648 0.233211 -0.241774
v 0.350562 0.234361 -0.222558
v 0.419397 0.282546 -0.229574
v 0.350562 0.234361 -0.222558
v 0.348750 0.219493 -0.235751
v 0.419397 0.282546 -0.229574
v 0.295080 0.054234 -0.322502
v 0.337789 0.054234 -0.264867
v 0.252371 0.054234 -0.264867
v 0.305137 0.281823 -0.281144
v 0.298730 0.263211 -0.287272
v 0.286693 0.341377 -0.342576
v 0.298730 0.263211 -0.287272
v 0.281918 0.273942 -0.282604
v 0.286693 0.341377 -0.342576
v 0.281918 0.273942 -0.282604
v 0.305137 0.281823 -0.281144
v 0.286693 0.341377 -0.342576
v 0.207899 0.054234 -0.254840
v 0.224677 0.213892 -0.244853
v 0.261306 0.221749 -0.244570
v 0.279549 0.054234 -0.251375
v 0.225439 0.054234 -0.185283
v 0.235337 0.211612 -0.208033
v 0.224677 0.213892 -0.244853
v 0.207899 0.054234 -0.254840
v 0.235005 0.214117 -0.208496
v 0.261306 0.221749 -0.244570
v 0.248289 0.302615 -0.238832
v 0.235675 0.299028 -0.218063
v 0.284374 0.054234 -0.220161
v 0.284300 0.222798 -0.214220
v 0.308420 0.217757 -0.186000
v 0.327083 0.054234 -0.162527
v 0.241665 0.054234 -0.162527
v 0.263186 0.209708 -0.184939
v 0.284300 0.222798 -0.214220
v 0.284374 0.054234 -0.220161
v 0.263494 0.212219 -0.184492
v 0.308420 0.217757 -0.186000
v 0.297390 0.298508 -0.182243
v 0.273043 0.296378 -0.179790
v 0.344369 0.054519 -0.263976
v 0.324260 0.177491 -0.251183
v 0.351839 0.165825 -0.231673
v 0.399432 0.054519 -0.218000
v 0.316410 0.054519 -0.197915
v 0.312909 0.178348 -0.214519
v 0.324260 0.177491 -0.251183
v 0.344369 0.054519 -0.263976
v 0.351839 0.165825 -0.231673
v 0.324260 0.177491 -0.251183
v 0.343648 0.233211 -0.241774
v 0.348750 0.219493 -0.235751
v 0.314532 0.179768 -0.214798
v 0.351839 0.165825 -0.231673
v 0.348750 0.219493 -0.235751
v 0.350562 0.234361 -0.222558
v 0.295080 0.054234 -0.322502
v 0.299903 0.208722 -0.292104
v 0.319462 0.223265 -0.263652
v 0.337789 0.054234 -0.264867
v 0.252371 0.054234 -0.264867
v 0.274532 0.213600 -0.263695
v 0.299903 0.208722 -0.292104
v 0.295080 0.054234 -0.322502
v 0.298730 0.263211 -0.287272
v 0.305137 0.281823 -0.281144
v 0.274786 0.215910 -0.264790
v 0.319462 0.223265 -0.263652
v 0.279549 0.054234 -0.251375
v 0.235337 0.211612 -0.208033
v 0.225439 0.054234 -0.185283
v 0.235005 0.214117 -0.208496
v 0.235675 0.299028 -0.218063
v 0.229030 0.295466 -0.237109
v 0.327083 0.054234 -0.162527
v 0.308420 0.217757 -0.186000
v 0.263494 0.212219 -0.184492
v 0.263186 0.209708 -0.184939
v 0.241665 0.054234 -0.162527
v 0.263494 0.212219 -0.184492
v 0.399432 0.054519 -0.218000
v 0.351839 0.165825 -0.231673
v 0.314532 0.179768 -0.214798
v 0.312909 0.178348 -0.214519
v 0.316410 0.054519 -0.197915
v 0.324260 0.177491 -0.251183
v 0.312909 0.178348 -0.214519
v 0.314532 0.179768 -0.214798
v 0.337789 0.054234 -0.264867
v 0.319462 0.223265 -0.263652
v 0.274786 0.215910 -0.264790
v 0.274532 0.213600 -0.263695
v 0.252371 0.054234 -0.264867
v 0.299903 0.208722 -0.292104
v 0.274532 0.213600 -0.263695
v 0.274786 0.215910 -0.264790
v 0.281918 0.273942 -0.282604
v 0.298730 0.263211 -0.287272
vn -0.0000 -1.0000 -0.0000
vn -0.0620 0.0676 -0.9958
vn -0.0754 0.0562 -0.9956
vn -0.1016 0.0339 -0.9943
vn -0.9260 -0.1423 0.3497
vn 0.8088 0.2468 0.5338
vn 0.7114 0.2578 -0.6538
vn 0.7129 0.2335 -0.6613
vn 0.6895 0.4178 -0.5916
vn -0.8398 0.1795 -0.5123
vn -0.8442 0.1962 -0.4988
vn -0.8614 0.2893 -0.4175
vn 0.1279 -0.4348 0.8914
vn 0.3254 -0.2760 -0.9044
vn -0.8453 0.5332 -0.0353
vn -0.7492 0.6612 0.0394
vn -0.5565 0.8170 0.1513
vn 0.4910 -0.6109 0.6210
vn 0.8889 -0.1653 -0.4272
vn -0.5280 -0.5432 -0.6528
vn -0.1645 0.4277 0.8888
vn -0.1362 0.3643 0.9213
vn -0.2657 0.6511 0.7110
vn 0.0308 0.0514 -0.9982
vn 0.0018 0.0621 -0.9981
vn 0.0023 0.0619 -0.9981
vn -0.9621 0.0913 0.2570
vn -0.9609 0.0729 0.2672
vn -0.9605 0.0681 0.2699
vn 0.7975 0.0603 0.6003
vn 0.7972 0.0601 0.6008
vn 0.8160 0.0740 0.5733
vn 0.7894 0.0121 -0.6137
vn 0.7664 0.0647 -0.6391
vn 0.7674 0.0626 -0.6381
vn -0.8075 0.0235 -0.5894
vn -0.8159 0.0664 -0.5744
vn -0.8154 0.0638 -0.5753
vn 0.0626 -0.0506 0.9968
vn 0.6264 0.1782 -0.7588
vn 0.6263 0.1782 -0.7590
vn -0.9300 -0.0945 -0.3551
vn -0.9300 -0.0944 -0.3551
vn 0.5911 -0.0488 -0.8051
vn 0.5976 -0.0948 0.7962
vn 0.5975 -0.0947 0.7962
vn 0.7994 0.0914 -0.5938
vn 0.7934 0.0719 -0.6045
vn 0.7949 0.0768 -0.6018
vn 0.7995 0.0914 -0.5937
vn -0.7741 0.1289 -0.6198
vn 0.7816 0.0374 -0.6227
vn 0.7815 0.0374 -0.6227
vn -0.1000 0.2827 0.9540
vn -0.1004 0.2826 0.9540
vn 0.7849 0.0513 0.6175
vn -0.9564 0.0299 0.2904
vn -0.9564 0.0299 0.2905
vn -0.0004 0.1407 0.9901
vn -0.0005 0.1407 0.9901
vn -0.8254 0.1322 -0.5489
vn 0.3047 0.1843 0.9344
vn 0.3047 0.1844 0.9344
vn 0.3048 0.1843 0.9344
vn -0.8871 0.4553 -0.0763
vn -0.8871 0.4553 -0.0762
vn -0.0003 -0.0049 1.0000
vn -0.6251 -0.0622 -0.7780
vn -0.6252 -0.0621 -0.7780
vn -0.6252 -0.0622 -0.7780
vt 0.089141 0.554293
vt 0.089169 0.555331
vt 0.086099 0.554573
vt 0.088467 0.543852
vt 0.088349 0.544028
vt 0.088075 0.539386
vt 0.087490 0.543930
vt 0.087743 0.555420
vt 0.085088 0.556120
vt 0.085090 0.554817
vt 0.085881 0.544469
vt 0.086247 0.543769
vt 0.083680 0.540239
vt 0.085755 0.544369
vt 0.089445 0.556020
vt 0.089519 0.557230
vt 0.086175 0.556351
vt 0.088506 0.545582
vt 0.088565 0.544592
vt 0.090611 0.541694
vt 0.088059 0.544672
vt 0.092756 0.555528
vt 0.090223 0.556236
vt 0.089945 0.554917
vt 0.090878 0.545259
vt 0.091145 0.546068
vt 0.093732 0.542274
vt 0.090858 0.545419
vt 0.088708 0.547613
vt 0.088780 0.547631
vt 0.087063 0.547841
vt 0.087083 0.547726
vt 0.087412 0.547838
vt 0.086107 0.548344
vt 0.086033 0.548227
vt 0.086011 0.548117
vt 0.088325 0.548063
vt 0.088470 0.549210
vt 0.086614 0.548174
vt 0.086673 0.548092
vt 0.091376 0.548606
vt 0.090093 0.548161
vt 0.089948 0.548124
vt 0.090000 0.548021
s 0
usemtl Material.001
f 153/56/89 154/57/89 155/58/89
s 1
f 156/59/90 157/60/91 158/61/92
s 0
f 159/60/93 160/62/93 161/61/93
f 162/62/94 163/59/94 164/61/94
f 165/63/89 166/64/89 167/65/89
s 1
f 168/66/95 169/67/96 170/68/97
f 171/67/98 172/69/99 173/68/100
s 0
f 174/69/101 175/66/101 176/68/101
f 177/70/89 178/71/89 179/72/89
s 1
f 180/73/102 181/74/102 182/75/102
f 183/74/103 184/76/104 185/75/105
s 0
f 186/76/106 187/73/106 188/75/106
f 189/77/89 190/78/89 191/79/89
f 192/80/107 193/81/107 194/82/107
f 195/81/108 196/83/108 197/82/108
s 1
f 198/83/109 199/80/110 200/82/111
f 201/56/112 202/84/113 203/85/114
f 201/56/112 203/85/114 204/57/112
f 205/58/115 206/86/116 207/84/117
f 205/58/115 207/84/117 208/56/115
f 203/85/114 202/84/113 157/60/91
f 203/85/114 157/60/91 156/59/90
f 209/87/118 210/85/119 211/59/120
f 209/87/118 211/59/120 212/62/120
f 213/63/121 214/88/122 215/89/123
f 213/63/121 215/89/123 216/64/121
f 217/65/124 218/90/125 219/88/126
f 217/65/124 219/88/126 220/63/124
f 215/89/123 214/88/122 169/67/96
f 215/89/123 169/67/96 168/66/95
f 221/91/127 222/89/127 223/66/127
f 221/91/127 223/66/127 224/69/127
f 225/70/128 226/92/128 227/93/129
f 225/70/128 227/93/129 228/71/128
f 229/72/130 230/94/131 231/92/130
f 229/72/130 231/92/130 232/70/130
f 233/93/132 234/92/132 235/74/132
f 233/93/132 235/74/132 236/73/132
f 237/95/133 238/93/133 239/73/133
f 237/95/133 239/73/133 240/76/134
f 241/77/135 242/96/136 243/97/137
f 241/77/135 243/97/137 244/78/138
f 245/79/139 246/98/139 247/96/139
f 245/79/139 247/96/139 248/77/139
f 243/97/137 242/96/136 249/81/140
f 243/97/137 249/81/140 250/80/141
f 251/99/142 252/97/143 199/80/110
f 251/99/142 199/80/110 198/83/109
f 210/85/119 255/58/144 253/57/144
f 255/58/144 210/85/119 254/86/144
f 254/86/144 210/85/119 209/87/118
f 256/87/145 207/84/117 206/86/116
f 207/84/117 256/87/145 257/62/145
f 207/84/117 257/62/145 258/60/146
f 260/89/147 263/65/148 259/64/147
f 263/65/148 260/89/147 261/91/148
f 263/65/148 261/91/148 262/90/148
f 264/91/149 219/88/126 218/90/125
f 219/88/126 264/91/149 172/69/99
f 219/88/126 172/69/99 171/67/98
f 266/93/150 269/72/151 265/71/151
f 269/72/151 266/93/150 268/94/152
f 268/94/152 266/93/150 267/95/151
f 272/95/153 270/92/154 271/94/153
f 270/92/154 272/95/153 184/76/104
f 270/92/154 184/76/104 183/74/103
f 275/99/155 276/98/155 274/97/155
f 274/97/155 277/79/155 273/78/155
f 277/79/155 274/97/155 276/98/155
f 279/98/156 282/81/157 278/96/158
f 282/81/157 279/98/156 280/99/157
f 282/81/157 280/99/157 281/83/158
o Cone.011_Material.001_0
v -0.160309 0.054234 -0.521147
v -0.088634 0.054234 -0.518247
v -0.142222 0.054234 -0.451730
v -0.122681 0.289614 -0.496233
v -0.137190 0.297449 -0.508605
v -0.098564 0.388522 -0.533183
v -0.137190 0.297449 -0.508605
v -0.136962 0.309091 -0.491752
v -0.098564 0.388522 -0.533183
v -0.136962 0.309091 -0.491752
v -0.122681 0.289614 -0.496233
v -0.098564 0.388522 -0.533183
v -0.199858 0.054234 -0.486633
v -0.157149 0.054234 -0.428998
v -0.242567 0.054234 -0.428998
v -0.186842 0.298508 -0.448714
v -0.201235 0.310891 -0.456744
v -0.201548 0.386620 -0.403631
v -0.201235 0.310891 -0.456744
v -0.211189 0.296378 -0.446261
v -0.201548 0.386620 -0.403631
v -0.211189 0.296378 -0.446261
v -0.186842 0.298508 -0.448714
v -0.201548 0.386620 -0.403631
v -0.287213 0.054234 -0.513529
v -0.216800 0.054234 -0.527230
v -0.253611 0.054234 -0.450152
v -0.244173 0.302614 -0.507603
v -0.262467 0.295466 -0.501341
v -0.274607 0.396401 -0.493380
v -0.262467 0.295466 -0.501341
v -0.251477 0.299028 -0.484426
v -0.274607 0.396401 -0.493380
v -0.251477 0.299028 -0.484426
v -0.244173 0.302614 -0.507603
v -0.274607 0.396401 -0.493380
v -0.190569 0.054234 -0.602480
v -0.135722 0.054234 -0.556246
v -0.218837 0.054234 -0.536551
v -0.164116 0.296366 -0.550737
v -0.181280 0.292105 -0.561331
v -0.189862 0.393644 -0.584692
v -0.181280 0.292105 -0.561331
v -0.187228 0.297575 -0.542508
v -0.189862 0.393644 -0.584692
v -0.187228 0.297575 -0.542508
v -0.164116 0.296366 -0.550737
v -0.189862 0.393644 -0.584692
v -0.160309 0.054234 -0.521147
v -0.154019 0.215756 -0.503005
v -0.116904 0.212047 -0.499513
v -0.088634 0.054234 -0.518247
v -0.142222 0.054234 -0.451730
v -0.146796 0.220061 -0.465538
v -0.154019 0.215756 -0.503005
v -0.160309 0.054234 -0.521147
v -0.116904 0.212047 -0.499513
v -0.154019 0.215756 -0.503005
v -0.137190 0.297449 -0.508605
v -0.122681 0.289614 -0.496233
v -0.146269 0.222339 -0.466603
v -0.116904 0.212047 -0.499513
v -0.199858 0.054234 -0.486633
v -0.199932 0.222798 -0.480691
v -0.175812 0.217757 -0.452471
v -0.157149 0.054234 -0.428998
v -0.242567 0.054234 -0.428998
v -0.221047 0.209708 -0.451410
v -0.199932 0.222798 -0.480691
v -0.199858 0.054234 -0.486633
v -0.220738 0.212219 -0.450963
v -0.175812 0.217757 -0.452471
v -0.186842 0.298508 -0.448714
v -0.211189 0.296378 -0.446261
v -0.287213 0.054234 -0.513529
v -0.268539 0.213892 -0.507826
v -0.232897 0.221748 -0.516276
v -0.216800 0.054234 -0.527230
v -0.253611 0.054234 -0.450152
v -0.249417 0.211612 -0.474605
v -0.268539 0.213892 -0.507826
v -0.287213 0.054234 -0.513529
v -0.249849 0.214117 -0.474976
v -0.232897 0.221748 -0.516276
v -0.190569 0.054234 -0.602480
v -0.184371 0.211493 -0.571011
v -0.154423 0.217104 -0.549213
v -0.135722 0.054234 -0.556246
v -0.218837 0.054234 -0.536551
v -0.197664 0.210770 -0.534993
v -0.184371 0.211493 -0.571011
v -0.190569 0.054234 -0.602480
v -0.181280 0.292105 -0.561331
v -0.164116 0.296366 -0.550737
v -0.197447 0.213259 -0.535593
v -0.154423 0.217104 -0.549213
v -0.164116 0.296366 -0.550737
v -0.187228 0.297575 -0.542508
v -0.088634 0.054234 -0.518247
v -0.146796 0.220061 -0.465538
v -0.142222 0.054234 -0.451730
v -0.154019 0.215756 -0.503005
v -0.146796 0.220061 -0.465538
v -0.146269 0.222339 -0.466603
v -0.157149 0.054234 -0.428998
v -0.175812 0.217757 -0.452471
v -0.220738 0.212219 -0.450963
v -0.221047 0.209708 -0.451410
v -0.242567 0.054234 -0.428998
v -0.220738 0.212219 -0.450963
v -0.216800 0.054234 -0.527230
v -0.249417 0.211612 -0.474605
v -0.253611 0.054234 -0.450152
v -0.249849 0.214117 -0.474976
v -0.251477 0.299028 -0.484426
v -0.262467 0.295466 -0.501341
v -0.135722 0.054234 -0.556246
v -0.197664 0.210770 -0.534993
v -0.218837 0.054234 -0.536551
v -0.197447 0.213259 -0.535593
v -0.187228 0.297575 -0.542508
v -0.181280 0.292105 -0.561331
vn -0.0000 -1.0000 -0.0000
vn 0.4555 -0.4069 -0.7918
vn -0.9679 0.2468 -0.0482
vn -0.9762 0.2170 0.0076
vn -0.9184 0.3312 -0.2163
vn 0.6322 0.1156 0.7662
vn 0.6154 0.1266 0.7780
vn 0.5164 0.1863 0.8358
vn 0.7114 0.2577 -0.6538
vn 0.7128 0.2336 -0.6613
vn 0.6895 0.4178 -0.5916
vn -0.8399 0.1796 -0.5122
vn -0.8442 0.1961 -0.4988
vn -0.8614 0.2893 -0.4175
vn 0.1278 -0.4348 0.8914
vn -0.2981 0.0670 -0.9522
vn -0.3103 0.0563 -0.9490
vn -0.3355 0.0339 -0.9414
vn -0.8161 -0.1423 0.5602
vn 0.9268 0.1323 0.3514
vn 0.9272 0.1273 0.3524
vn 0.9127 0.2468 0.3258
vn 0.5454 -0.1439 -0.8257
vn -0.9550 -0.1407 -0.2609
vn 0.3272 0.3874 0.8619
vn 0.0623 0.1187 -0.9910
vn -0.9731 0.0020 0.2304
vn -0.9731 0.0020 0.2303
vn -0.9731 0.0021 0.2304
vn 0.2867 -0.0338 -0.9574
vn 0.2866 -0.0338 -0.9574
vn 0.7477 0.0725 0.6601
vn 0.7402 0.0736 0.6683
vn 0.7894 0.0121 -0.6137
vn 0.7664 0.0648 -0.6391
vn 0.7674 0.0625 -0.6381
vn -0.8075 0.0235 -0.5894
vn -0.8159 0.0664 -0.5744
vn -0.8154 0.0638 -0.5753
vn 0.0626 -0.0506 0.9968
vn -0.2078 0.0514 -0.9768
vn -0.2362 0.0622 -0.9697
vn -0.8732 0.0913 0.4787
vn -0.8697 0.0733 0.4882
vn -0.8686 0.0682 0.4908
vn 0.9172 0.0599 0.3939
vn 0.9174 0.0602 0.3934
vn 0.6167 0.1177 -0.7784
vn 0.5959 0.0993 -0.7969
vn 0.5929 0.0967 -0.7994
vn 0.6167 0.1177 -0.7783
vn -0.9197 0.1196 -0.3741
vn -0.9261 0.1057 -0.3622
vn -0.9265 0.1047 -0.3613
vn 0.5560 0.0652 -0.8286
vn 0.2796 0.0007 0.9601
vn 0.2797 0.0009 0.9601
vn 0.3116 0.0480 0.9490
vn 0.7700 0.0688 0.6343
vn -0.9811 0.1710 0.0906
vn -0.9811 0.1710 0.0905
vn -0.0005 0.1407 0.9901
vn -0.0004 0.1407 0.9901
vn -0.8254 0.1322 -0.5489
vn 0.9094 0.0513 0.4127
vn -0.8597 0.0299 0.5099
vn 0.2606 -0.0267 0.9651
vn -0.9372 0.0797 -0.3397
vt 0.090897 0.555828
vt 0.091772 0.557157
vt 0.087470 0.556192
vt 0.090449 0.544119
vt 0.090934 0.543543
vt 0.093057 0.538841
vt 0.090034 0.542931
vt 0.088607 0.555170
vt 0.086107 0.555939
vt 0.085255 0.554507
vt 0.087085 0.543058
vt 0.087358 0.542286
vt 0.084642 0.538383
vt 0.086685 0.542951
vt 0.088921 0.553773
vt 0.090455 0.554866
vt 0.086193 0.554322
vt 0.089459 0.542313
vt 0.088911 0.542521
vt 0.088494 0.537423
vt 0.088192 0.542446
vt 0.094664 0.555259
vt 0.093109 0.556248
vt 0.090898 0.554828
vt 0.092485 0.543315
vt 0.092560 0.542716
vt 0.091376 0.538144
vt 0.091872 0.543539
vt 0.090268 0.547680
vt 0.090589 0.548353
vt 0.088358 0.547569
vt 0.088425 0.547455
vt 0.088514 0.546785
vt 0.087315 0.547343
vt 0.086751 0.547218
vt 0.086734 0.547097
vt 0.089059 0.546450
vt 0.089931 0.546446
vt 0.087618 0.546789
vt 0.087635 0.546661
vt 0.094307 0.546865
vt 0.093685 0.547549
vt 0.092456 0.547691
vt 0.092426 0.547570
s 0
usemtl Material.001
f 283/100/159 284/101/159 285/102/159
f 286/103/160 287/104/160 288/105/160
s 1
f 289/104/161 290/106/162 291/105/163
f 292/106/164 293/103/165 294/105/166
s 0
f 295/107/159 296/108/159 297/109/159
s 1
f 298/110/167 299/111/168 300/112/169
f 301/111/170 302/113/171 303/112/172
s 0
f 304/113/173 305/110/173 306/112/173
f 307/114/159 308/115/159 309/116/159
s 1
f 310/117/174 311/118/175 312/119/176
s 0
f 313/118/177 314/120/177 315/119/177
s 1
f 316/120/178 317/117/179 318/119/180
s 0
f 319/121/159 320/122/159 321/123/159
f 322/124/181 323/125/181 324/126/181
f 325/125/182 326/127/182 327/126/182
f 328/127/183 329/124/183 330/126/183
s 1
f 331/100/184 332/128/184 333/129/184
f 331/100/184 333/129/184 334/101/184
f 335/102/185 336/130/186 337/128/187
f 335/102/185 337/128/187 338/100/187
f 339/129/188 340/128/189 341/104/188
f 339/129/188 341/104/188 342/103/189
f 343/131/190 344/129/191 293/103/165
f 343/131/190 293/103/165 292/106/164
f 345/107/192 346/132/193 347/133/194
f 345/107/192 347/133/194 348/108/192
f 349/109/195 350/134/196 351/132/197
f 349/109/195 351/132/197 352/107/195
f 347/133/194 346/132/193 299/111/168
f 347/133/194 299/111/168 298/110/167
f 353/135/198 354/133/198 355/110/198
f 353/135/198 355/110/198 356/113/198
f 357/114/199 358/136/200 359/137/200
f 357/114/199 359/137/200 360/115/199
f 361/116/201 362/138/202 363/136/203
f 361/116/201 363/136/203 364/114/201
f 359/137/200 358/136/200 311/118/175
f 359/137/200 311/118/175 310/117/174
f 365/139/204 366/137/205 317/117/179
f 365/139/204 317/117/179 316/120/178
f 367/121/206 368/140/207 369/141/208
f 367/121/206 369/141/208 370/122/209
f 371/123/210 372/142/211 373/140/212
f 371/123/210 373/140/212 374/121/210
f 369/141/208 368/140/207 375/125/213
f 369/141/208 375/125/213 376/124/213
f 377/143/214 378/141/215 379/124/216
f 377/143/214 379/124/216 380/127/216
f 344/129/191 383/102/217 381/101/217
f 383/102/217 344/129/191 382/130/217
f 382/130/217 344/129/191 343/131/190
f 386/131/218 384/128/219 385/130/219
f 384/128/219 386/131/218 290/106/162
f 384/128/219 290/106/162 289/104/161
f 388/133/220 391/109/220 387/108/221
f 391/109/220 388/133/220 389/135/220
f 391/109/220 389/135/220 390/134/220
f 392/135/222 351/132/197 350/134/196
f 351/132/197 392/135/222 302/113/171
f 351/132/197 302/113/171 301/111/170
f 366/137/205 395/116/223 393/115/223
f 395/116/223 366/137/205 394/138/223
f 394/138/223 366/137/205 365/139/204
f 396/139/224 363/136/203 362/138/202
f 363/136/203 396/139/224 397/120/224
f 363/136/203 397/120/224 398/118/224
f 378/141/215 401/123/225 399/122/225
f 401/123/225 378/141/215 400/142/225
f 400/142/225 378/141/215 377/143/214
f 402/143/226 373/140/212 372/142/211
f 373/140/212 402/143/226 404/125/226
f 404/125/226 402/143/226 403/127/226
