# Blender 4.5.4 LTS
# www.blender.org
mtllib mushroom_cap.mtl
o Pink_Mushroom_Pink_Mushroom_0
v -0.096933 0.277959 0.080863
v -0.035112 0.277959 0.127355
v -0.022689 0.300109 0.091164
v -0.065611 0.300109 0.058886
v -0.065611 0.300109 0.058886
v -0.022689 0.300109 0.091164
v -0.009193 0.308228 0.051842
v -0.031579 0.308228 0.035007
v -0.035112 0.277959 0.127355
v 0.042230 0.277959 0.128630
v 0.031007 0.300109 0.092049
v -0.022689 0.300109 0.091164
v 0.042230 0.277959 0.128630
v 0.105550 0.277959 0.084200
v 0.074969 0.300109 0.061203
v 0.031007 0.300109 0.092049
v 0.107975 0.277959 -0.062913
v 0.046153 0.277959 -0.109404
v 0.033731 0.300109 -0.073213
v 0.076652 0.300109 -0.040935
v 0.105550 0.277959 0.084200
v 0.130662 0.277959 0.011038
v 0.092404 0.300109 0.010407
v 0.074969 0.300109 0.061203
v 0.130662 0.277959 0.011038
v 0.107975 0.277959 -0.062913
v 0.076652 0.300109 -0.040935
v 0.092404 0.300109 0.010407
v 0.046153 0.277959 -0.109404
v -0.031189 0.277959 -0.110679
v -0.019966 0.300109 -0.074098
v 0.033731 0.300109 -0.073213
v -0.031189 0.277959 -0.110679
v -0.094509 0.277959 -0.066249
v -0.063928 0.300109 -0.043252
v -0.019966 0.300109 -0.074098
v -0.094509 0.277959 -0.066249
v -0.119621 0.277959 0.006913
v -0.081363 0.300109 0.007544
v -0.063928 0.300109 -0.043252
v -0.119621 0.277959 0.006913
v -0.096933 0.277959 0.080863
v -0.065611 0.300109 0.058886
v -0.081363 0.300109 0.007544
v -0.147381 0.212517 0.006456
v -0.119660 0.212517 0.096810
v -0.120521 0.223438 0.097414
v -0.148432 0.223438 0.006438
v -0.116698 0.212517 -0.082936
v -0.147381 0.212517 0.006456
v -0.148432 0.223438 0.006438
v -0.117538 0.223438 -0.083568
v -0.039332 0.212517 -0.137221
v -0.116698 0.212517 -0.082936
v -0.117538 0.223438 -0.083568
v -0.039640 0.223438 -0.138226
v 0.055166 0.212517 -0.135664
v -0.039332 0.212517 -0.137221
v -0.039640 0.223438 -0.138226
v 0.055507 0.223438 -0.136658
v 0.158422 0.212517 0.011495
v 0.130702 0.212517 -0.078859
v 0.131562 0.223438 -0.079463
v 0.159473 0.223438 0.011513
v 0.127740 0.212517 0.100887
v 0.158422 0.212517 0.011495
v 0.159473 0.223438 0.011513
v 0.128580 0.223438 0.101519
v 0.130702 0.212517 -0.078859
v 0.055166 0.212517 -0.135664
v 0.055507 0.223438 -0.136658
v 0.131562 0.223438 -0.079463
v 0.050373 0.212517 0.155172
v 0.127740 0.212517 0.100887
v 0.128580 0.223438 0.101519
v 0.050682 0.223438 0.156177
v -0.044125 0.212517 0.153615
v 0.050373 0.212517 0.155172
v 0.050682 0.223438 0.156177
v -0.044466 0.223438 0.154609
v -0.119660 0.212517 0.096810
v -0.044125 0.212517 0.153615
v -0.044466 0.223438 0.154609
v -0.120521 0.223438 0.097414
v -0.065611 0.212082 0.058886
v -0.022689 0.212082 0.091164
v -0.041883 0.206287 0.147084
v -0.114008 0.206287 0.092844
v -0.022689 0.212082 0.091164
v 0.031007 0.212082 0.092049
v 0.048348 0.206287 0.148571
v -0.041883 0.206287 0.147084
v 0.031007 0.212082 0.092049
v 0.074969 0.212082 0.061203
v 0.122221 0.206287 0.096737
v 0.048348 0.206287 0.148571
v 0.076652 0.212082 -0.040935
v 0.033731 0.212082 -0.073213
v 0.052925 0.206287 -0.129133
v 0.125049 0.206287 -0.074893
v 0.074969 0.212082 0.061203
v 0.092404 0.212082 0.010407
v 0.151518 0.206287 0.011381
v 0.122221 0.206287 0.096737
v 0.092404 0.212082 0.010407
v 0.076652 0.212082 -0.040935
v 0.125049 0.206287 -0.074893
v 0.151518 0.206287 0.011381
v 0.033731 0.212082 -0.073213
v -0.019966 0.212082 -0.074098
v -0.037307 0.206287 -0.130620
v 0.052925 0.206287 -0.129133
v -0.019966 0.212082 -0.074098
v -0.063928 0.212082 -0.043252
v -0.111180 0.206287 -0.078786
v -0.037307 0.206287 -0.130620
v -0.063928 0.212082 -0.043252
v -0.081363 0.212082 0.007544
v -0.140477 0.206287 0.006570
v -0.111180 0.206287 -0.078786
v -0.081363 0.212082 0.007544
v -0.065611 0.212082 0.058886
v -0.114008 0.206287 0.092844
v -0.140477 0.206287 0.006570
v -0.148432 0.223438 0.006438
v -0.120521 0.223438 0.097414
v -0.114271 0.245885 0.093029
v -0.140798 0.245885 0.006564
v -0.117538 0.223438 -0.083568
v -0.148432 0.223438 0.006438
v -0.140798 0.245885 0.006564
v -0.111437 0.245885 -0.078979
v -0.039640 0.223438 -0.138226
v -0.117538 0.223438 -0.083568
v -0.111437 0.245885 -0.078979
v -0.037401 0.245885 -0.130927
v 0.055507 0.223438 -0.136658
v -0.039640 0.223438 -0.138226
v -0.037401 0.245885 -0.130927
v 0.053029 0.245885 -0.129437
v 0.159473 0.223438 0.011513
v 0.131562 0.223438 -0.079463
v 0.125313 0.245885 -0.075078
v 0.151840 0.245885 0.011387
v 0.128580 0.223438 0.101519
v 0.159473 0.223438 0.011513
v 0.151840 0.245885 0.011387
v 0.122478 0.245885 0.096930
v 0.131562 0.223438 -0.079463
v 0.055507 0.223438 -0.136658
v 0.053029 0.245885 -0.129437
v 0.125313 0.245885 -0.075078
v 0.050682 0.223438 0.156177
v 0.128580 0.223438 0.101519
v 0.122478 0.245885 0.096930
v 0.048442 0.245885 0.148878
v -0.044466 0.223438 0.154609
v 0.050682 0.223438 0.156177
v 0.048442 0.245885 0.148878
v -0.041988 0.245885 0.147388
v -0.120521 0.223438 0.097414
v -0.044466 0.223438 0.154609
v -0.041988 0.245885 0.147388
v -0.114271 0.245885 0.093029
v -0.140798 0.245885 0.006564
v -0.114271 0.245885 0.093029
v -0.096933 0.277959 0.080863
v -0.119621 0.277959 0.006913
v -0.111437 0.245885 -0.078979
v -0.140798 0.245885 0.006564
v -0.119621 0.277959 0.006913
v -0.094509 0.277959 -0.066249
v -0.037401 0.245885 -0.130927
v -0.111437 0.245885 -0.078979
v -0.094509 0.277959 -0.066249
v -0.031189 0.277959 -0.110679
v 0.053029 0.245885 -0.129437
v -0.037401 0.245885 -0.130927
v -0.031189 0.277959 -0.110679
v 0.046153 0.277959 -0.109404
v 0.151840 0.245885 0.011387
v 0.125313 0.245885 -0.075078
v 0.107975 0.277959 -0.062913
v 0.130662 0.277959 0.011038
v 0.122478 0.245885 0.096930
v 0.151840 0.245885 0.011387
v 0.130662 0.277959 0.011038
v 0.105550 0.277959 0.084200
v 0.125313 0.245885 -0.075078
v 0.053029 0.245885 -0.129437
v 0.046153 0.277959 -0.109404
v 0.107975 0.277959 -0.062913
v 0.048442 0.245885 0.148878
v 0.122478 0.245885 0.096930
v 0.105550 0.277959 0.084200
v 0.042230 0.277959 0.128630
v -0.041988 0.245885 0.147388
v 0.048442 0.245885 0.148878
v 0.042230 0.277959 0.128630
v -0.035112 0.277959 0.127355
v -0.114271 0.245885 0.093029
v -0.041988 0.245885 0.147388
v -0.035112 0.277959 0.127355
v -0.096933 0.277959 0.080863
v 0.074969 0.300109 0.061203
v 0.092404 0.300109 0.010407
v 0.050836 0.308228 0.009722
v 0.041742 0.308228 0.036215
v 0.033731 0.300109 -0.073213
v -0.019966 0.300109 -0.074098
v -0.007772 0.308228 -0.034352
v 0.020234 0.308228 -0.033891
v -0.081363 0.300109 0.007544
v -0.065611 0.300109 0.058886
v -0.031579 0.308228 0.035007
v -0.039794 0.308228 0.008229
v 0.031007 0.300109 0.092049
v 0.074969 0.300109 0.061203
v 0.041742 0.308228 0.036215
v 0.018814 0.308228 0.052303
v 0.076652 0.300109 -0.040935
v 0.033731 0.300109 -0.073213
v 0.020234 0.308228 -0.033891
v 0.042620 0.308228 -0.017056
v -0.063928 0.300109 -0.043252
v -0.081363 0.300109 0.007544
v -0.039794 0.308228 0.008229
v -0.030701 0.308228 -0.018264
v -0.022689 0.300109 0.091164
v 0.031007 0.300109 0.092049
v 0.018814 0.308228 0.052303
v -0.009193 0.308228 0.051842
v 0.092404 0.300109 0.010407
v 0.076652 0.300109 -0.040935
v 0.042620 0.308228 -0.017056
v 0.050836 0.308228 0.009722
v -0.019966 0.300109 -0.074098
v -0.063928 0.300109 -0.043252
v -0.030701 0.308228 -0.018264
v -0.007772 0.308228 -0.034352
v -0.114008 0.206287 0.092844
v -0.041883 0.206287 0.147084
v -0.044125 0.212517 0.153615
v -0.119660 0.212517 0.096810
v -0.041883 0.206287 0.147084
v 0.048348 0.206287 0.148571
v 0.050373 0.212517 0.155172
v -0.044125 0.212517 0.153615
v 0.048348 0.206287 0.148571
v 0.122221 0.206287 0.096737
v 0.127740 0.212517 0.100887
v 0.050373 0.212517 0.155172
v 0.125049 0.206287 -0.074893
v 0.052925 0.206287 -0.129133
v 0.055166 0.212517 -0.135664
v 0.130702 0.212517 -0.078859
v 0.122221 0.206287 0.096737
v 0.151518 0.206287 0.011381
v 0.158422 0.212517 0.011495
v 0.127740 0.212517 0.100887
v 0.151518 0.206287 0.011381
v 0.125049 0.206287 -0.074893
v 0.130702 0.212517 -0.078859
v 0.158422 0.212517 0.011495
v 0.052925 0.206287 -0.129133
v -0.037307 0.206287 -0.130620
v -0.039332 0.212517 -0.137221
v 0.055166 0.212517 -0.135664
v -0.037307 0.206287 -0.130620
v -0.111180 0.206287 -0.078786
v -0.116698 0.212517 -0.082936
v -0.039332 0.212517 -0.137221
v -0.111180 0.206287 -0.078786
v -0.140477 0.206287 0.006570
v -0.147381 0.212517 0.006456
v -0.116698 0.212517 -0.082936
v -0.140477 0.206287 0.006570
v -0.114008 0.206287 0.092844
v -0.119660 0.212517 0.096810
v -0.147381 0.212517 0.006456
v 0.124566 0.269941 0.023574
v 0.131234 0.282854 0.041166
v 0.120939 0.268747 0.037185
v 0.042620 0.308228 -0.017056
v 0.020234 0.308228 -0.033891
v -0.007772 0.308228 -0.034352
v -0.030701 0.308228 -0.018264
v -0.039794 0.308228 0.008229
v -0.031579 0.308228 0.035007
v -0.009193 0.308228 0.051842
v 0.018814 0.308228 0.052303
v 0.041742 0.308228 0.036215
v 0.050836 0.308228 0.009722
vn -0.5800 0.7056 0.4070
vn -0.2301 0.7056 0.6702
vn -0.1233 0.9252 0.3588
vn -0.3106 0.9252 0.2180
vn -0.3105 0.9253 0.2179
vn -0.1232 0.9253 0.3587
vn -0.0375 0.9933 0.1090
vn -0.0944 0.9933 0.0662
vn -0.2300 0.7056 0.6702
vn 0.2078 0.7056 0.6774
vn 0.1112 0.9252 0.3628
vn -0.1231 0.9252 0.3589
vn 0.2079 0.7056 0.6774
vn 0.5663 0.7056 0.4259
vn 0.3032 0.9252 0.2281
vn 0.1114 0.9252 0.3627
vn 0.5800 0.7056 -0.4070
vn 0.2301 0.7056 -0.6702
vn 0.1232 0.9252 -0.3588
vn 0.3105 0.9252 -0.2180
vn 0.5663 0.7056 0.4258
vn 0.7085 0.7056 0.0117
vn 0.3794 0.9252 0.0063
vn 0.3033 0.9252 0.2280
vn 0.7085 0.7056 0.0116
vn 0.5801 0.7056 -0.4069
vn 0.3106 0.9252 -0.2179
vn 0.3794 0.9252 0.0062
vn 0.2300 0.7056 -0.6702
vn -0.2078 0.7056 -0.6774
vn -0.1112 0.9252 -0.3627
vn 0.1231 0.9252 -0.3589
vn -0.2079 0.7056 -0.6774
vn -0.5663 0.7056 -0.4259
vn -0.3032 0.9252 -0.2281
vn -0.1114 0.9252 -0.3627
vn -0.5663 0.7057 -0.4258
vn -0.7085 0.7056 -0.0117
vn -0.3793 0.9252 -0.0063
vn -0.3033 0.9252 -0.2280
vn -0.7085 0.7056 -0.0116
vn -0.5801 0.7056 0.4069
vn -0.3106 0.9252 0.2179
vn -0.3794 0.9252 -0.0062
vn -0.9059 -0.4232 -0.0149
vn -0.7417 -0.4232 0.5204
vn -0.8136 0.1112 0.5708
vn -0.9937 0.1112 -0.0163
vn -0.7241 -0.4232 -0.5446
vn -0.9937 0.1112 -0.0165
vn -0.7943 0.1111 -0.5972
vn -0.2657 -0.4232 -0.8662
vn -0.7942 0.1112 -0.5974
vn -0.2915 0.1112 -0.9501
vn 0.2941 -0.4232 -0.8570
vn -0.2658 -0.4232 -0.8662
vn -0.2914 0.1112 -0.9501
vn 0.3225 0.1111 -0.9400
vn 0.9059 -0.4232 0.0149
vn 0.7417 -0.4232 -0.5204
vn 0.8135 0.1112 -0.5708
vn 0.9937 0.1112 0.0163
vn 0.7241 -0.4232 0.5445
vn 0.9937 0.1112 0.0164
vn 0.7943 0.1112 0.5973
vn 0.3227 0.1112 -0.9400
vn 0.8135 0.1112 -0.5709
vn 0.2658 -0.4232 0.8662
vn 0.7942 0.1112 0.5974
vn 0.2915 0.1112 0.9501
vn -0.2941 -0.4232 0.8570
vn 0.2657 -0.4232 0.8662
vn 0.2914 0.1112 0.9501
vn -0.3226 0.1112 0.9400
vn -0.3227 0.1112 0.9399
vn -0.8135 0.1111 0.5709
vn -0.5063 -0.7858 0.3552
vn -0.2008 -0.7858 0.5850
vn -0.1239 -0.9243 0.3611
vn -0.3125 -0.9243 0.2193
vn 0.1814 -0.7858 0.5913
vn 0.1120 -0.9243 0.3649
vn 0.1813 -0.7858 0.5913
vn 0.4943 -0.7858 0.3717
vn 0.3051 -0.9243 0.2294
vn 0.5063 -0.7858 -0.3552
vn 0.2008 -0.7858 -0.5850
vn 0.1239 -0.9243 -0.3611
vn 0.3125 -0.9243 -0.2193
vn 0.4943 -0.7858 0.3718
vn 0.6184 -0.7858 0.0102
vn 0.3817 -0.9243 0.0063
vn 0.5063 -0.7858 -0.3553
vn 0.2009 -0.7858 -0.5850
vn -0.1814 -0.7858 -0.5913
vn -0.1120 -0.9243 -0.3649
vn -0.4943 -0.7858 -0.3717
vn -0.3051 -0.9243 -0.2294
vn -0.4943 -0.7858 -0.3718
vn -0.6184 -0.7858 -0.0102
vn -0.3817 -0.9243 -0.0063
vn -0.6184 -0.7858 -0.0103
vn -0.5063 -0.7858 0.3553
vn -0.9937 0.1113 -0.0163
vn -0.8135 0.1113 0.5708
vn -0.7389 0.4305 0.5184
vn -0.9025 0.4304 -0.0148
vn -0.7943 0.1113 -0.5972
vn -0.9937 0.1113 -0.0164
vn -0.9025 0.4304 -0.0150
vn -0.7215 0.4305 -0.5424
vn -0.2916 0.1113 -0.9501
vn -0.7942 0.1113 -0.5974
vn -0.7214 0.4304 -0.5426
vn -0.2648 0.4305 -0.8629
vn 0.3226 0.1113 -0.9400
vn -0.2914 0.1113 -0.9501
vn -0.2647 0.4305 -0.8629
vn 0.2929 0.4305 -0.8538
vn 0.9937 0.1113 0.0163
vn 0.8135 0.1113 -0.5708
vn 0.7389 0.4305 -0.5184
vn 0.9025 0.4304 0.0148
vn 0.7943 0.1113 0.5972
vn 0.9937 0.1113 0.0164
vn 0.9025 0.4304 0.0150
vn 0.7215 0.4304 0.5424
vn 0.8135 0.1113 -0.5709
vn 0.2931 0.4304 -0.8537
vn 0.7388 0.4305 -0.5185
vn 0.2916 0.1113 0.9501
vn 0.7942 0.1113 0.5974
vn 0.7214 0.4304 0.5426
vn 0.2649 0.4305 0.8629
vn -0.3226 0.1113 0.9400
vn 0.2914 0.1113 0.9501
vn 0.2647 0.4304 0.8629
vn -0.2930 0.4305 0.8537
vn -0.8135 0.1113 0.5709
vn -0.3227 0.1113 0.9399
vn -0.2931 0.4305 0.8537
vn -0.7388 0.4305 0.5185
vn -0.9025 0.4305 -0.0148
vn -0.7389 0.4305 0.5183
vn -0.5801 0.7056 0.4070
vn -0.7086 0.7055 -0.0116
vn -0.7214 0.4305 -0.5424
vn -0.9025 0.4305 -0.0150
vn -0.7086 0.7056 -0.0117
vn -0.5664 0.7056 -0.4259
vn -0.7213 0.4305 -0.5425
vn -0.5663 0.7056 -0.4260
vn -0.2079 0.7055 -0.6775
vn 0.2929 0.4305 -0.8537
vn -0.2078 0.7055 -0.6775
vn 0.2300 0.7055 -0.6703
vn 0.9025 0.4305 0.0148
vn 0.7389 0.4305 -0.5183
vn 0.5801 0.7056 -0.4070
vn 0.7086 0.7055 0.0116
vn 0.7214 0.4305 0.5424
vn 0.9025 0.4305 0.0150
vn 0.7086 0.7055 0.0118
vn 0.5664 0.7055 0.4259
vn 0.2931 0.4305 -0.8537
vn 0.5801 0.7055 -0.4071
vn 0.2648 0.4305 0.8629
vn 0.7213 0.4305 0.5425
vn 0.5663 0.7056 0.4260
vn 0.2079 0.7055 0.6775
vn 0.2647 0.4305 0.8629
vn 0.2078 0.7055 0.6775
vn -0.2300 0.7055 0.6703
vn -0.2302 0.7055 0.6703
vn -0.5801 0.7055 0.4071
vn 0.3032 0.9253 0.2280
vn 0.3792 0.9253 0.0063
vn 0.1153 0.9933 0.0019
vn 0.0922 0.9933 0.0693
vn 0.1231 0.9253 -0.3587
vn -0.1112 0.9253 -0.3626
vn -0.0338 0.9933 -0.1103
vn 0.0374 0.9933 -0.1091
vn -0.3792 0.9253 -0.0062
vn -0.3106 0.9253 0.2178
vn -0.0945 0.9933 0.0662
vn -0.1153 0.9933 -0.0019
vn 0.1113 0.9253 0.3626
vn 0.3031 0.9253 0.2280
vn 0.0921 0.9933 0.0693
vn 0.0339 0.9933 0.1102
vn 0.3104 0.9253 -0.2179
vn 0.0375 0.9933 -0.1091
vn 0.0944 0.9933 -0.0663
vn -0.3031 0.9253 -0.2279
vn -0.3792 0.9253 -0.0063
vn -0.0922 0.9933 -0.0693
vn -0.1231 0.9253 0.3587
vn 0.1112 0.9253 0.3626
vn 0.0338 0.9933 0.1102
vn -0.0374 0.9933 0.1091
vn 0.3792 0.9253 0.0062
vn 0.3105 0.9253 -0.2178
vn 0.0944 0.9933 -0.0662
vn 0.1153 0.9933 0.0018
vn -0.1113 0.9253 -0.3626
vn -0.3031 0.9253 -0.2280
vn -0.0921 0.9933 -0.0694
vn -0.0339 0.9933 -0.1102
vn -0.3125 -0.9242 0.2193
vn -0.1240 -0.9243 0.3611
vn -0.2942 -0.4232 0.8569
vn -0.1239 -0.9242 0.3611
vn 0.1120 -0.9242 0.3650
vn 0.3051 -0.9243 0.2295
vn 0.7241 -0.4232 0.5446
vn 0.3126 -0.9242 -0.2193
vn 0.1240 -0.9242 -0.3611
vn 0.2942 -0.4232 -0.8569
vn 0.7416 -0.4232 -0.5204
vn 0.9059 -0.4232 0.0150
vn 0.3126 -0.9242 -0.2192
vn -0.1119 -0.9242 -0.3650
vn 0.2941 -0.4232 -0.8569
vn -0.1120 -0.9242 -0.3650
vn -0.3052 -0.9242 -0.2295
vn -0.3052 -0.9242 -0.2294
vn -0.3817 -0.9242 -0.0064
vn -0.9059 -0.4232 -0.0150
vn -0.3818 -0.9242 -0.0063
vn -0.3126 -0.9242 0.2192
vn 0.7771 -0.6104 0.1535
vn 0.8952 0.1779 0.4086
vn 0.4778 -0.5434 0.6902
vn -0.0943 0.9933 0.0661
vn -0.0921 0.9933 -0.0693
vn -0.1152 0.9933 -0.0019
vn -0.0338 0.9933 -0.1101
vn -0.0374 0.9933 0.1089
vn 0.0374 0.9933 -0.1089
vn 0.0338 0.9933 0.1101
vn 0.0943 0.9933 -0.0661
vn 0.0920 0.9933 0.0692
vn 0.1152 0.9933 0.0019
vt 0.685438 0.067174
vt 0.685438 0.068611
vt 0.686230 0.068391
vt 0.686230 0.067394
vt 0.687001 0.074978
vt 0.687001 0.073981
vt 0.686251 0.074219
vt 0.686251 0.074740
vt 0.685438 0.072036
vt 0.685438 0.073473
vt 0.686230 0.073253
vt 0.686230 0.072256
vt 0.694825 0.074870
vt 0.694825 0.073433
vt 0.694033 0.073653
vt 0.694033 0.074650
vt 0.685451 0.064331
vt 0.685451 0.065767
vt 0.686243 0.065548
vt 0.686243 0.064550
vt 0.686230 0.072014
vt 0.686230 0.070578
vt 0.685438 0.070797
vt 0.685438 0.071795
vt 0.693220 0.073433
vt 0.693220 0.074870
vt 0.694012 0.074650
vt 0.694012 0.073653
vt 0.685438 0.069119
vt 0.685438 0.070556
vt 0.686230 0.070336
vt 0.686230 0.069339
vt 0.692407 0.073433
vt 0.692407 0.074870
vt 0.693199 0.074650
vt 0.693199 0.073653
vt 0.690138 0.074064
vt 0.690138 0.072628
vt 0.689346 0.072847
vt 0.689346 0.073845
vt 0.694846 0.073433
vt 0.694846 0.074870
vt 0.695638 0.074650
vt 0.695638 0.073653
vt 0.688263 0.075282
vt 0.688263 0.073526
vt 0.688060 0.073520
vt 0.688060 0.075288
vt 0.683906 0.068936
vt 0.683906 0.067180
vt 0.683703 0.067174
vt 0.683703 0.068942
vt 0.683919 0.066092
vt 0.683919 0.064337
vt 0.683715 0.064331
vt 0.683715 0.066098
vt 0.689325 0.076178
vt 0.689325 0.074423
vt 0.689121 0.074417
vt 0.689121 0.076185
vt 0.687051 0.073976
vt 0.687051 0.075731
vt 0.687255 0.075737
vt 0.687255 0.073970
vt 0.683623 0.070320
vt 0.683623 0.072076
vt 0.683827 0.072082
vt 0.683827 0.070314
vt 0.684256 0.075654
vt 0.684256 0.073899
vt 0.684053 0.073893
vt 0.684053 0.075660
vt 0.683827 0.072647
vt 0.683827 0.074403
vt 0.684031 0.074409
vt 0.684031 0.072641
vt 0.689121 0.072634
vt 0.689121 0.074389
vt 0.689325 0.074395
vt 0.689325 0.072628
vt 0.683827 0.074436
vt 0.683827 0.076192
vt 0.684031 0.076198
vt 0.684031 0.074430
vt 0.691242 0.072267
vt 0.691242 0.071269
vt 0.690192 0.070930
vt 0.690192 0.072606
vt 0.689098 0.070209
vt 0.689098 0.069212
vt 0.688048 0.068872
vt 0.688048 0.070549
vt 0.692313 0.072267
vt 0.692313 0.071269
vt 0.691263 0.070930
vt 0.691263 0.072606
vt 0.688027 0.071907
vt 0.688027 0.070910
vt 0.686977 0.070570
vt 0.686977 0.072246
vt 0.686989 0.064670
vt 0.686989 0.065668
vt 0.688039 0.066007
vt 0.688039 0.064331
vt 0.690170 0.072267
vt 0.690170 0.071269
vt 0.689120 0.070930
vt 0.689120 0.072606
vt 0.689098 0.071907
vt 0.689098 0.070910
vt 0.688048 0.070570
vt 0.688048 0.072246
vt 0.688027 0.070209
vt 0.688027 0.069212
vt 0.686977 0.068872
vt 0.686977 0.070549
vt 0.689098 0.068511
vt 0.689098 0.067514
vt 0.688048 0.067174
vt 0.688048 0.068851
vt 0.688027 0.068511
vt 0.688027 0.067514
vt 0.686977 0.067174
vt 0.686977 0.068851
vt 0.684957 0.068942
vt 0.684957 0.067174
vt 0.684519 0.067218
vt 0.684519 0.068898
vt 0.684970 0.066098
vt 0.684970 0.064331
vt 0.684531 0.064374
vt 0.684531 0.066054
vt 0.685417 0.072676
vt 0.685417 0.070908
vt 0.684979 0.070952
vt 0.684979 0.072632
vt 0.685430 0.066098
vt 0.685430 0.064331
vt 0.684991 0.064374
vt 0.684991 0.066054
vt 0.684979 0.072698
vt 0.684979 0.074465
vt 0.685417 0.074421
vt 0.685417 0.072742
vt 0.684979 0.069119
vt 0.684979 0.070887
vt 0.685417 0.070843
vt 0.685417 0.069163
vt 0.685792 0.073495
vt 0.685792 0.075262
vt 0.686230 0.075218
vt 0.686230 0.073538
vt 0.684519 0.070908
vt 0.684519 0.072676
vt 0.684957 0.072632
vt 0.684957 0.070952
vt 0.684519 0.069119
vt 0.684519 0.070887
vt 0.684957 0.070843
vt 0.684957 0.069163
vt 0.684979 0.067174
vt 0.684979 0.068942
vt 0.685417 0.068898
vt 0.685417 0.067218
vt 0.690159 0.072628
vt 0.690159 0.074308
vt 0.690863 0.074186
vt 0.690863 0.072749
vt 0.686251 0.067174
vt 0.686251 0.068854
vt 0.686955 0.068733
vt 0.686955 0.067296
vt 0.691610 0.072628
vt 0.691610 0.074308
vt 0.692313 0.074186
vt 0.692313 0.072749
vt 0.686968 0.066011
vt 0.686968 0.064331
vt 0.686264 0.064452
vt 0.686264 0.065889
vt 0.686251 0.072279
vt 0.686251 0.073959
vt 0.686955 0.073838
vt 0.686955 0.072401
vt 0.687323 0.072268
vt 0.687323 0.073948
vt 0.688027 0.073827
vt 0.688027 0.072390
vt 0.689098 0.073948
vt 0.689098 0.072268
vt 0.688395 0.072390
vt 0.688395 0.073827
vt 0.691588 0.074308
vt 0.691588 0.072628
vt 0.690885 0.072749
vt 0.690885 0.074186
vt 0.686251 0.070578
vt 0.686251 0.072258
vt 0.686955 0.072136
vt 0.686955 0.070699
vt 0.686955 0.070556
vt 0.686955 0.068876
vt 0.686251 0.068998
vt 0.686251 0.070434
vt 0.688141 0.066036
vt 0.688141 0.067034
vt 0.688891 0.066795
vt 0.688891 0.066275
vt 0.688120 0.067034
vt 0.688120 0.066036
vt 0.687370 0.066275
vt 0.687370 0.066795
vt 0.684667 0.066155
vt 0.684667 0.067153
vt 0.685417 0.066914
vt 0.685417 0.066394
vt 0.689388 0.074086
vt 0.689388 0.075084
vt 0.690138 0.074845
vt 0.690138 0.074325
vt 0.689098 0.074967
vt 0.689098 0.073970
vt 0.688349 0.074208
vt 0.688349 0.074729
vt 0.687348 0.067034
vt 0.687348 0.066036
vt 0.686598 0.066275
vt 0.686598 0.066795
vt 0.685827 0.066036
vt 0.685827 0.067034
vt 0.686577 0.066795
vt 0.686577 0.066275
vt 0.688913 0.066036
vt 0.688913 0.067034
vt 0.689662 0.066795
vt 0.689662 0.066275
vt 0.687277 0.073970
vt 0.687277 0.074967
vt 0.688027 0.074729
vt 0.688027 0.074208
vt 0.683336 0.064370
vt 0.683336 0.066047
vt 0.683504 0.066086
vt 0.683504 0.064331
vt 0.685602 0.073534
vt 0.685602 0.075210
vt 0.685770 0.075250
vt 0.685770 0.073495
vt 0.683637 0.072681
vt 0.683637 0.074357
vt 0.683806 0.074397
vt 0.683806 0.072641
vt 0.683601 0.072030
vt 0.683601 0.070354
vt 0.683433 0.070314
vt 0.683433 0.072070
vt 0.683448 0.072681
vt 0.683448 0.074357
vt 0.683616 0.074397
vt 0.683616 0.072641
vt 0.683526 0.064370
vt 0.683526 0.066047
vt 0.683694 0.066086
vt 0.683694 0.064331
vt 0.683806 0.076146
vt 0.683806 0.074470
vt 0.683637 0.074430
vt 0.683637 0.076186
vt 0.683616 0.076134
vt 0.683616 0.074458
vt 0.683448 0.074418
vt 0.683448 0.076174
vt 0.683491 0.068890
vt 0.683491 0.067214
vt 0.683323 0.067174
vt 0.683323 0.068930
vt 0.683681 0.068890
vt 0.683681 0.067214
vt 0.683513 0.067174
vt 0.683513 0.068930
vt 0.951561 0.037044
vt 0.947914 0.027927
vt 0.947914 0.037044
vt 0.689662 0.064912
vt 0.689357 0.065854
vt 0.689662 0.065433
vt 0.688862 0.066014
vt 0.689357 0.064491
vt 0.688367 0.065854
vt 0.688862 0.064331
vt 0.688061 0.065433
vt 0.688367 0.064491
vt 0.688061 0.064912
s 1
usemtl Pink_Mushroom
f 1/1/1 2/2/2 3/3/3
f 1/1/1 3/3/3 4/4/4
f 5/5/5 6/6/6 7/7/7
f 5/5/5 7/7/7 8/8/8
f 9/9/9 10/10/10 11/11/11
f 9/9/9 11/11/11 12/12/12
f 13/13/13 14/14/14 15/15/15
f 13/13/13 15/15/15 16/16/16
f 17/17/17 18/18/18 19/19/19
f 17/17/17 19/19/19 20/20/20
f 21/21/21 22/22/22 23/23/23
f 21/21/21 23/23/23 24/24/24
f 25/25/25 26/26/26 27/27/27
f 25/25/25 27/27/27 28/28/28
f 29/29/29 30/30/30 31/31/31
f 29/29/29 31/31/31 32/32/32
f 33/33/33 34/34/34 35/35/35
f 33/33/33 35/35/35 36/36/36
f 37/37/37 38/38/38 39/39/39
f 37/37/37 39/39/39 40/40/40
f 41/41/41 42/42/42 43/43/43
f 41/41/41 43/43/43 44/44/44
f 45/45/45 46/46/46 47/47/47
f 45/45/45 47/47/47 48/48/48
f 49/49/49 50/50/45 51/51/50
f 49/49/49 51/51/50 52/52/51
f 53/53/52 54/54/49 55/55/53
f 53/53/52 55/55/53 56/56/54
f 57/57/55 58/58/56 59/59/57
f 57/57/55 59/59/57 60/60/58
f 61/61/59 62/62/60 63/63/61
f 61/61/59 63/63/61 64/64/62
f 65/65/63 66/66/59 67/67/64
f 65/65/63 67/67/64 68/68/65
f 69/69/60 70/70/55 71/71/66
f 69/69/60 71/71/66 72/72/67
f 73/73/68 74/74/63 75/75/69
f 73/73/68 75/75/69 76/76/70
f 77/77/71 78/78/72 79/79/73
f 77/77/71 79/79/73 80/80/74
f 81/81/46 82/82/71 83/83/75
f 81/81/46 83/83/75 84/84/76
f 85/85/77 86/86/78 87/87/79
f 85/85/77 87/87/79 88/88/80
f 89/89/78 90/90/81 91/91/82
f 89/89/78 91/91/82 92/92/79
f 93/93/83 94/94/84 95/95/85
f 93/93/83 95/95/85 96/96/82
f 97/97/86 98/98/87 99/99/88
f 97/97/86 99/99/88 100/100/89
f 101/101/90 102/102/91 103/103/92
f 101/101/90 103/103/92 104/104/85
f 105/105/91 106/106/93 107/107/89
f 105/105/91 107/107/89 108/108/92
f 109/109/94 110/110/95 111/111/96
f 109/109/94 111/111/96 112/112/88
f 113/113/95 114/114/97 115/115/98
f 113/113/95 115/115/98 116/116/96
f 117/117/99 118/118/100 119/119/101
f 117/117/99 119/119/101 120/120/98
f 121/121/102 122/122/103 123/123/80
f 121/121/102 123/123/80 124/124/101
f 125/125/104 126/126/105 127/127/106
f 125/125/104 127/127/106 128/128/107
f 129/129/108 130/130/109 131/131/110
f 129/129/108 131/131/110 132/132/111
f 133/133/112 134/134/113 135/135/114
f 133/133/112 135/135/114 136/136/115
f 137/137/116 138/138/117 139/139/118
f 137/137/116 139/139/118 140/140/119
f 141/141/120 142/142/121 143/143/122
f 141/141/120 143/143/122 144/144/123
f 145/145/124 146/146/125 147/147/126
f 145/145/124 147/147/126 148/148/127
f 149/149/128 150/150/66 151/151/129
f 149/149/128 151/151/129 152/152/130
f 153/153/131 154/154/132 155/155/133
f 153/153/131 155/155/133 156/156/134
f 157/157/135 158/158/136 159/159/137
f 157/157/135 159/159/137 160/160/138
f 161/161/139 162/162/140 163/163/141
f 161/161/139 163/163/141 164/164/142
f 165/165/143 166/166/144 167/167/145
f 165/165/143 167/167/145 168/168/146
f 169/169/147 170/170/148 171/171/149
f 169/169/147 171/171/149 172/172/150
f 173/173/115 174/174/151 175/175/152
f 173/173/115 175/175/152 176/176/153
f 177/177/154 178/178/118 179/179/155
f 177/177/154 179/179/155 180/180/156
f 181/181/157 182/182/158 183/183/159
f 181/181/157 183/183/159 184/184/160
f 185/185/161 186/186/162 187/187/163
f 185/185/161 187/187/163 188/188/164
f 189/189/130 190/190/165 191/191/18
f 189/189/130 191/191/18 192/192/166
f 193/193/167 194/194/168 195/195/169
f 193/193/167 195/195/169 196/196/170
f 197/197/138 198/198/171 199/199/172
f 197/197/138 199/199/172 200/200/173
f 201/201/142 202/202/141 203/203/174
f 201/201/142 203/203/174 204/204/175
f 205/205/176 206/206/177 207/207/178
f 205/205/176 207/207/178 208/208/179
f 209/209/180 210/210/181 211/211/182
f 209/209/180 211/211/182 212/212/183
f 213/213/184 214/214/185 215/215/186
f 213/213/184 215/215/186 216/216/187
f 217/217/188 218/218/189 219/219/190
f 217/217/188 219/219/190 220/220/191
f 221/221/192 222/222/180 223/223/193
f 221/221/192 223/223/193 224/224/194
f 225/225/195 226/226/196 227/227/187
f 225/225/195 227/227/187 228/228/197
f 229/229/198 230/230/199 231/231/200
f 229/229/198 231/231/200 232/232/201
f 233/233/202 234/234/203 235/235/204
f 233/233/202 235/235/204 236/236/205
f 237/237/206 238/238/207 239/239/208
f 237/237/206 239/239/208 240/240/209
f 241/241/210 242/242/211 243/243/212
f 241/241/210 243/243/212 244/244/46
f 245/245/213 246/246/214 247/247/72
f 245/245/213 247/247/72 248/248/71
f 249/249/214 250/250/215 251/251/216
f 249/249/214 251/251/216 252/252/72
f 253/253/217 254/254/218 255/255/219
f 253/253/217 255/255/219 256/256/220
f 257/257/85 258/258/92 259/259/221
f 257/257/85 259/259/221 260/260/216
f 261/261/92 262/262/222 263/263/220
f 261/261/92 263/263/220 264/264/59
f 265/265/218 266/266/223 267/267/52
f 265/265/218 267/267/52 268/268/224
f 269/269/225 270/270/226 271/271/49
f 269/269/225 271/271/49 272/272/52
f 273/273/227 274/274/228 275/275/229
f 273/273/227 275/275/229 276/276/49
f 277/277/230 278/278/231 279/279/46
f 277/277/230 279/279/46 280/280/45
f 281/281/232 282/282/233 283/283/234
f 289/284/235 287/285/236 288/286/237
f 287/285/236 289/284/235 286/287/238
f 286/287/238 289/284/235 290/288/239
f 286/287/238 290/288/239 285/289/240
f 285/289/240 290/288/239 291/290/241
f 285/289/240 291/290/241 284/291/242
f 284/291/242 291/290/241 292/292/243
f 284/291/242 292/292/243 293/293/244
