# Blender 4.5.4 LTS
# www.blender.org
mtllib mushroom_log.mtl
o Pink_Mushroom_Pink_Mushroom_0.001
v 0.040308 0.038292 -0.092374
v 0.033731 0.212082 -0.073213
v 0.076652 0.212082 -0.040935
v 0.093236 0.038292 -0.052571
v 0.093236 0.038292 -0.052571
v 0.076652 0.212082 -0.040935
v 0.092404 0.212082 0.010407
v 0.112660 0.038292 0.010741
v 0.112660 0.038292 0.010741
v 0.092404 0.212082 0.010407
v 0.074969 0.212082 0.061203
v 0.091160 0.038292 0.073379
v 0.091160 0.038292 0.073379
v 0.074969 0.212082 0.061203
v 0.031007 0.212082 0.092049
v 0.036949 0.038292 0.111417
v 0.036949 0.038292 0.111417
v 0.031007 0.212082 0.092049
v -0.022689 0.212082 0.091164
v -0.029266 0.038292 0.110325
v -0.029266 0.038292 0.110325
v -0.022689 0.212082 0.091164
v -0.065611 0.212082 0.058886
v -0.082195 0.038292 0.070522
v -0.082195 0.038292 0.070522
v -0.065611 0.212082 0.058886
v -0.081363 0.212082 0.007544
v -0.101618 0.038292 0.007210
v -0.101618 0.038292 0.007210
v -0.081363 0.212082 0.007544
v -0.063928 0.212082 -0.043252
v -0.080119 0.038292 -0.055428
v -0.080119 0.038292 -0.055428
v -0.063928 0.212082 -0.043252
v -0.019966 0.212082 -0.074098
v -0.025908 0.038292 -0.093465
v -0.025908 0.038292 -0.093465
v -0.019966 0.212082 -0.074098
v 0.033731 0.212082 -0.073213
v 0.040308 0.038292 -0.092374
v 0.038706 0.022079 -0.087708
v 0.089197 0.022079 -0.049737
v 0.067702 0.004340 -0.034655
v 0.030181 0.004340 -0.062871
v 0.107727 0.022079 0.010660
v 0.087217 0.022079 0.070414
v 0.066230 0.004340 0.054631
v 0.081471 0.004340 0.010227
v 0.089197 0.022079 -0.049737
v 0.107727 0.022079 0.010660
v 0.081471 0.004340 0.010227
v 0.067702 0.004340 -0.034655
v -0.024461 0.022079 -0.088749
v 0.038706 0.022079 -0.087708
v 0.030181 0.004340 -0.062871
v -0.016759 0.004340 -0.063645
v -0.076176 0.022079 -0.052462
v -0.024461 0.022079 -0.088749
v -0.016759 0.004340 -0.063645
v -0.055189 0.004340 -0.036680
v -0.096686 0.022079 0.007291
v -0.076176 0.022079 -0.052462
v -0.055189 0.004340 -0.036680
v -0.070430 0.004340 0.007724
v -0.078156 0.022079 0.067688
v -0.096686 0.022079 0.007291
v -0.070430 0.004340 0.007724
v -0.056661 0.004340 0.052606
v -0.027665 0.022079 0.105659
v -0.078156 0.022079 0.067688
v -0.056661 0.004340 0.052606
v -0.019140 0.004340 0.080822
v 0.035502 0.022079 0.106700
v -0.027665 0.022079 0.105659
v -0.019140 0.004340 0.080822
v 0.027800 0.004340 0.081596
v 0.087217 0.022079 0.070414
v 0.035502 0.022079 0.106700
v 0.027800 0.004340 0.081596
v 0.066230 0.004340 0.054631
v 0.091160 0.038292 0.073379
v 0.036949 0.038292 0.111417
v 0.035502 0.022079 0.106700
v 0.087217 0.022079 0.070414
v 0.036949 0.038292 0.111417
v -0.029266 0.038292 0.110325
v -0.027665 0.022079 0.105659
v 0.035502 0.022079 0.106700
v -0.029266 0.038292 0.110325
v -0.082195 0.038292 0.070522
v -0.078156 0.022079 0.067688
v -0.027665 0.022079 0.105659
v -0.082195 0.038292 0.070522
v -0.101618 0.038292 0.007210
v -0.096686 0.022079 0.007291
v -0.078156 0.022079 0.067688
v -0.101618 0.038292 0.007210
v -0.080119 0.038292 -0.055428
v -0.076176 0.022079 -0.052462
v -0.096686 0.022079 0.007291
v -0.080119 0.038292 -0.055428
v -0.025908 0.038292 -0.093465
v -0.024461 0.022079 -0.088749
v -0.076176 0.022079 -0.052462
v -0.025908 0.038292 -0.093465
v 0.040308 0.038292 -0.092374
v 0.038706 0.022079 -0.087708
v -0.024461 0.022079 -0.088749
v 0.093236 0.038292 -0.052571
v 0.112660 0.038292 0.010741
v 0.107727 0.022079 0.010660
v 0.089197 0.022079 -0.049737
v 0.112660 0.038292 0.010741
v 0.091160 0.038292 0.073379
v 0.087217 0.022079 0.070414
v 0.107727 0.022079 0.010660
v 0.040308 0.038292 -0.092374
v 0.093236 0.038292 -0.052571
v 0.089197 0.022079 -0.049737
v 0.038706 0.022079 -0.087708
v -0.063928 0.212082 -0.043252
v -0.081363 0.212082 0.007544
v -0.030701 0.308228 -0.018264
v -0.030701 0.308228 -0.018264
v 0.089927 0.296884 -0.020298
v 0.092642 0.308826 -0.022430
v 0.062809 0.316716 -0.016231
v 0.060094 0.304774 -0.014099
v 0.046639 0.315575 -0.043211
v 0.043924 0.303633 -0.041079
v 0.066479 0.306981 -0.066085
v 0.063764 0.295039 -0.063953
v 0.094910 0.302810 -0.053241
v 0.092195 0.290868 -0.051109
v 0.092642 0.308826 -0.022430
v 0.089927 0.296884 -0.020298
v -0.031742 0.301740 0.029019
v -0.036517 0.320046 0.028876
v -0.081764 0.308326 0.039370
v -0.076990 0.290020 0.039512
v -0.105319 0.301862 -0.001839
v -0.100545 0.283556 -0.001697
v -0.074630 0.309587 -0.037801
v -0.069855 0.291281 -0.037659
v -0.032107 0.320826 -0.018818
v -0.027333 0.302519 -0.018676
v -0.036517 0.320046 0.028876
v -0.031742 0.301740 0.029019
v 0.059216 0.281298 0.096487
v 0.061539 0.298980 0.102673
v 0.014685 0.302007 0.111617
v 0.012362 0.284324 0.105431
v -0.006818 0.318592 0.072285
v -0.009141 0.300910 0.066099
v 0.026746 0.325815 0.039033
v 0.024423 0.308133 0.032847
v 0.068993 0.313694 0.057813
v 0.066670 0.296012 0.051627
v 0.061539 0.298980 0.102673
v 0.059216 0.281298 0.096487
v 0.120939 0.268747 0.037185
v 0.131234 0.282854 0.041166
v 0.119665 0.290692 0.043308
v 0.109370 0.276585 0.039327
v 0.116143 0.296730 0.031020
v 0.105848 0.282623 0.027040
v 0.125534 0.292623 0.021284
v 0.115239 0.278517 0.017303
v 0.134861 0.284047 0.027554
v 0.124566 0.269941 0.023574
v 0.131234 0.282854 0.041166
v 0.009036 0.290973 -0.080562
v 0.008987 0.302618 -0.087557
v -0.007085 0.307194 -0.079827
v -0.007036 0.295548 -0.072832
v -0.020595 0.300710 -0.090526
v -0.020545 0.289065 -0.083531
v -0.012872 0.292128 -0.104868
v -0.012823 0.280482 -0.097873
v 0.005411 0.293307 -0.103034
v 0.005460 0.281662 -0.096039
v 0.008987 0.302618 -0.087557
v 0.009036 0.290973 -0.080562
v -0.012383 0.276067 0.117188
v -0.015983 0.291013 0.124655
v -0.035422 0.284239 0.128842
v -0.031822 0.269293 0.121375
v -0.047726 0.289386 0.112613
v -0.044126 0.274439 0.105145
v -0.035891 0.299340 0.098395
v -0.032292 0.284393 0.090927
v -0.016273 0.300345 0.105838
v -0.012673 0.285399 0.098370
v -0.015983 0.291013 0.124655
v -0.012383 0.276067 0.117188
v 0.030181 0.004340 -0.062871
v 0.067702 0.004340 -0.034655
v 0.081471 0.004340 0.010227
v 0.066230 0.004340 0.054631
v 0.027800 0.004340 0.081596
v -0.019140 0.004340 0.080822
v -0.056661 0.004340 0.052606
v -0.070430 0.004340 0.007724
v -0.055189 0.004340 -0.036680
v -0.016759 0.004340 -0.063645
v -0.030701 0.308228 -0.018264
v 0.062809 0.316716 -0.016231
v 0.092642 0.308826 -0.022430
v 0.094910 0.302810 -0.053241
v 0.066479 0.306981 -0.066085
v 0.046639 0.315575 -0.043211
v -0.081764 0.308326 0.039370
v -0.036517 0.320046 0.028876
v -0.032107 0.320826 -0.018818
v -0.074630 0.309587 -0.037801
v -0.105319 0.301862 -0.001839
v 0.014685 0.302007 0.111617
v 0.061539 0.298980 0.102673
v 0.068993 0.313694 0.057813
v 0.026746 0.325815 0.039033
v -0.006818 0.318592 0.072285
v 0.119665 0.290692 0.043308
v 0.131234 0.282854 0.041166
v 0.134861 0.284047 0.027554
v 0.125534 0.292623 0.021284
v 0.116143 0.296730 0.031020
v -0.007085 0.307194 -0.079827
v 0.008987 0.302618 -0.087557
v 0.005411 0.293307 -0.103034
v -0.012872 0.292128 -0.104868
v -0.020595 0.300710 -0.090526
v -0.035422 0.284239 0.128842
v -0.015983 0.291013 0.124655
v -0.016273 0.300345 0.105838
v -0.035891 0.299340 0.098395
v -0.047726 0.289386 0.112613
vn 0.3235 -0.0861 -0.9423
vn 0.2008 -0.7858 -0.5849
vn 0.5062 -0.7858 -0.3552
vn 0.8155 -0.0861 -0.5723
vn 0.8156 -0.0861 -0.5722
vn 0.5063 -0.7858 -0.3552
vn 0.6183 -0.7858 0.0102
vn 0.9961 -0.0861 0.0164
vn 0.9961 -0.0861 0.0165
vn 0.4943 -0.7858 0.3717
vn 0.7963 -0.0861 0.5988
vn 0.7962 -0.0861 0.5988
vn 0.4942 -0.7858 0.3717
vn 0.1814 -0.7858 0.5912
vn 0.2922 -0.0861 0.9525
vn 0.2921 -0.0861 0.9525
vn 0.1813 -0.7858 0.5912
vn -0.2008 -0.7858 0.5849
vn -0.3234 -0.0861 0.9423
vn -0.5062 -0.7858 0.3552
vn -0.8155 -0.0861 0.5722
vn -0.8156 -0.0862 0.5722
vn -0.5063 -0.7858 0.3552
vn -0.6183 -0.7858 -0.0102
vn -0.9962 -0.0861 -0.0164
vn -0.9961 -0.0861 -0.0164
vn -0.4943 -0.7858 -0.3717
vn -0.7963 -0.0862 -0.5987
vn -0.7963 -0.0861 -0.5988
vn -0.4942 -0.7858 -0.3717
vn -0.1814 -0.7858 -0.5912
vn -0.2922 -0.0862 -0.9525
vn -0.1813 -0.7858 -0.5912
vn 0.3234 -0.0861 -0.9423
vn 0.2680 -0.5644 -0.7808
vn 0.6758 -0.5644 -0.4742
vn 0.2818 -0.9389 -0.1977
vn 0.1118 -0.9389 -0.3256
vn 0.8254 -0.5644 0.0136
vn 0.6598 -0.5644 0.4962
vn 0.2752 -0.9389 0.2069
vn 0.3442 -0.9389 0.0057
vn -0.2421 -0.5644 -0.7892
vn -0.1009 -0.9389 -0.3291
vn -0.6598 -0.5644 -0.4962
vn -0.1010 -0.9389 -0.3291
vn -0.2752 -0.9389 -0.2069
vn -0.8254 -0.5644 -0.0137
vn -0.3442 -0.9389 -0.0057
vn -0.6758 -0.5644 0.4741
vn -0.8254 -0.5644 -0.0136
vn -0.2818 -0.9389 0.1977
vn -0.2680 -0.5644 0.7808
vn -0.6758 -0.5644 0.4742
vn -0.1118 -0.9389 0.3256
vn 0.2421 -0.5644 0.7892
vn -0.2679 -0.5644 0.7808
vn -0.1117 -0.9389 0.3256
vn 0.1010 -0.9389 0.3291
vn 0.2751 -0.9389 0.2069
vn 0.2922 -0.0862 0.9525
vn 0.2422 -0.5644 0.7892
vn -0.3234 -0.0862 0.9423
vn -0.2680 -0.5643 0.7809
vn -0.8155 -0.0862 0.5723
vn -0.6758 -0.5643 0.4742
vn -0.9961 -0.0862 -0.0164
vn -0.8254 -0.5643 -0.0136
vn -0.7963 -0.0862 -0.5988
vn -0.6598 -0.5643 -0.4962
vn -0.7962 -0.0862 -0.5988
vn -0.2422 -0.5644 -0.7892
vn 0.3234 -0.0862 -0.9423
vn 0.2680 -0.5643 -0.7809
vn 0.8156 -0.0862 -0.5722
vn 0.9961 -0.0862 0.0164
vn 0.8254 -0.5643 0.0136
vn 0.7963 -0.0862 0.5988
vn 0.6598 -0.5644 0.4961
vn 0.8155 -0.0862 -0.5723
vn 0.6757 -0.5644 -0.4742
vn 0.7450 -0.0506 0.6652
vn 0.7285 0.5317 0.4321
vn -0.1665 0.7683 0.6181
vn -0.3692 0.2440 0.8967
vn -0.6516 0.7341 -0.1913
vn -0.9732 0.2014 -0.1110
vn -0.0564 0.4763 -0.8775
vn -0.2322 -0.1195 -0.9653
vn 0.7965 0.3511 -0.4922
vn 0.8297 -0.2753 -0.4856
vn 0.7285 0.5316 0.4322
vn 0.7449 -0.0506 0.6652
vn 0.7252 0.1943 0.6605
vn 0.4321 0.7325 0.5261
vn -0.4597 0.5015 0.7329
vn -0.3852 -0.0933 0.9181
vn -0.9240 0.3740 -0.0793
vn -0.9632 -0.2520 -0.0932
vn -0.3191 0.5263 -0.7881
vn -0.2101 -0.0624 -0.9757
vn 0.5190 0.7478 -0.4139
vn 0.8334 0.2134 -0.5098
vn 0.7252 0.1943 0.6606
vn 0.7013 -0.3157 0.6392
vn 0.6365 0.3044 0.7086
vn -0.2891 0.3642 0.8853
vn -0.4512 -0.2413 0.8592
vn -0.7139 0.6918 0.1083
vn -0.9801 0.1666 -0.1082
vn -0.0508 0.8345 -0.5486
vn -0.1546 0.3443 -0.9261
vn 0.7838 0.5951 -0.1775
vn 0.8845 0.0462 -0.4642
vn 0.6365 0.3044 0.7087
vn 0.7012 -0.3157 0.6392
vn 0.4779 -0.5435 0.6901
vn 0.7262 0.0327 0.6867
vn -0.0465 0.5562 0.8298
vn -0.4841 0.1083 0.8683
vn -0.2818 0.9594 0.0090
vn -0.7771 0.6104 -0.1535
vn 0.3455 0.6852 -0.6412
vn 0.0039 0.2689 -0.9632
vn 0.9685 0.1124 -0.2224
vn 0.6780 -0.3062 -0.6682
vn 0.5825 -0.1208 0.8038
vn 0.9078 0.2188 0.3578
vn 0.7270 0.6864 -0.0193
vn -0.0973 0.9210 0.3771
vn -0.1184 0.5109 0.8514
vn -0.7900 0.5886 -0.1716
vn -0.9810 0.0970 0.1683
vn -0.3940 0.1484 -0.9071
vn -0.4879 -0.4510 -0.7474
vn 0.5435 0.2089 -0.8130
vn 0.6794 -0.3757 -0.6302
vn 0.7270 0.6864 -0.0192
vn 0.9078 0.2188 0.3579
vn 0.7989 -0.1036 0.5924
vn 0.5162 0.4377 0.7362
vn -0.3575 0.1333 0.9244
vn -0.2889 -0.4827 0.8268
vn -0.9106 0.3646 0.1948
vn -0.9775 -0.1947 -0.0815
vn -0.3786 0.8120 -0.4442
vn -0.3152 0.3624 -0.8771
vn 0.5032 0.8572 -0.1097
vn 0.7827 0.4186 -0.4606
vn 0.5162 0.4376 0.7362
vn 0.7989 -0.1036 0.5925
vn -0.2751 -0.9389 -0.2069
vn -0.3442 -0.9389 -0.0056
vn 0.1117 -0.9389 -0.3256
vn 0.1010 -0.9389 0.3290
vn -0.0565 0.4762 -0.8775
vn -0.6516 0.7340 -0.1913
vn 0.7965 0.3511 -0.4923
vn 0.7285 0.5316 0.4321
vn -0.4597 0.5014 0.7330
vn -0.3191 0.5263 -0.7882
vn -0.9240 0.3740 -0.0792
vn 0.5191 0.7478 -0.4140
vn 0.4321 0.7324 0.5262
vn -0.2890 0.3641 0.8854
vn -0.0509 0.8345 -0.5486
vn 0.7838 0.5950 -0.1776
vn 0.7262 0.0326 0.6867
vn 0.9685 0.1123 -0.2224
vn 0.3455 0.6851 -0.6413
vn -0.0973 0.9210 0.3772
vn -0.7901 0.5885 -0.1716
vn 0.5435 0.2088 -0.8130
vn -0.3575 0.1332 0.9244
vn -0.3786 0.8120 -0.4443
vn -0.9106 0.3645 0.1949
vt 0.519326 0.063483
vt 0.522574 0.063367
vt 0.522574 0.062369
vt 0.519326 0.062253
vt 0.519890 0.061891
vt 0.523138 0.061775
vt 0.523138 0.060777
vt 0.519890 0.060661
vt 0.752294 0.220141
vt 0.060612 0.244905
vt 0.058918 0.678301
vt 0.750600 0.703065
vt 0.519890 0.060639
vt 0.523138 0.060523
vt 0.523138 0.059525
vt 0.519890 0.059409
vt 0.522596 0.065986
vt 0.525844 0.065870
vt 0.525844 0.064873
vt 0.522596 0.064756
vt 0.519326 0.064735
vt 0.522574 0.064618
vt 0.522574 0.063621
vt 0.519326 0.063505
vt 0.522596 0.067238
vt 0.525844 0.067122
vt 0.525844 0.066124
vt 0.522596 0.066008
vt 0.522596 0.063483
vt 0.525844 0.063367
vt 0.525844 0.062369
vt 0.522596 0.062253
vt 0.522596 0.068490
vt 0.525844 0.068374
vt 0.525844 0.067376
vt 0.522596 0.067260
vt 0.525844 0.063505
vt 0.522596 0.063621
vt 0.522596 0.064618
vt 0.525844 0.064735
vt 0.521338 0.070581
vt 0.521338 0.069408
vt 0.520769 0.069558
vt 0.520769 0.070431
vt 0.514147 0.059409
vt 0.514147 0.060583
vt 0.514716 0.060432
vt 0.514716 0.059560
vt 0.514594 0.067776
vt 0.514594 0.068950
vt 0.515163 0.068799
vt 0.515163 0.067927
vt 0.521360 0.069408
vt 0.521360 0.070581
vt 0.521929 0.070431
vt 0.521929 0.069558
vt 0.514134 0.062253
vt 0.514134 0.063426
vt 0.514703 0.063275
vt 0.514703 0.062403
vt 0.514147 0.060604
vt 0.514147 0.061778
vt 0.514716 0.061627
vt 0.514716 0.060755
vt 0.514134 0.064198
vt 0.514134 0.065371
vt 0.514703 0.065220
vt 0.514703 0.064348
vt 0.522519 0.070581
vt 0.522519 0.069408
vt 0.521950 0.069558
vt 0.521950 0.070431
vt 0.515163 0.070145
vt 0.515163 0.068971
vt 0.514594 0.069122
vt 0.514594 0.069994
vt 0.515754 0.070739
vt 0.515754 0.069565
vt 0.515185 0.069716
vt 0.515185 0.070588
vt 0.517194 0.067347
vt 0.517194 0.068577
vt 0.517507 0.068548
vt 0.517507 0.067375
vt 0.514703 0.066623
vt 0.514703 0.065393
vt 0.514389 0.065421
vt 0.514389 0.066594
vt 0.524218 0.071200
vt 0.524218 0.069970
vt 0.523904 0.069999
vt 0.523904 0.071172
vt 0.525195 0.069970
vt 0.525195 0.071200
vt 0.525508 0.071172
vt 0.525508 0.069999
vt 0.518266 0.067347
vt 0.518266 0.068577
vt 0.518579 0.068548
vt 0.518579 0.067375
vt 0.520747 0.070638
vt 0.520747 0.069408
vt 0.520434 0.069436
vt 0.520434 0.070610
vt 0.514259 0.067719
vt 0.514259 0.068950
vt 0.514572 0.068921
vt 0.514572 0.067748
vt 0.514054 0.065393
vt 0.514054 0.066623
vt 0.514368 0.066594
vt 0.514368 0.065421
vt 0.516011 0.062112
vt 0.516011 0.060882
vt 0.515698 0.060910
vt 0.515698 0.062084
vt 0.525530 0.069970
vt 0.525530 0.071200
vt 0.525844 0.071172
vt 0.525844 0.069999
vt 0.966148 0.037044
vt 0.966148 0.027927
vt 0.962501 0.027927
vt 0.962501 0.037044
vt 0.958855 0.027927
vt 0.958855 0.037044
vt 0.955208 0.027927
vt 0.955208 0.037044
vt 0.951561 0.027927
vt 0.951561 0.037044
vt 0.947914 0.027927
vt 0.947914 0.037044
vt 0.524502 0.059409
vt 0.525844 0.060384
vt 0.525331 0.059679
vt 0.523672 0.059679
vt 0.525844 0.061256
vt 0.523160 0.060384
vt 0.525331 0.061962
vt 0.523160 0.061256
vt 0.524502 0.062231
vt 0.523672 0.061962
vt 0.956635 0.040250
vt 0.949901 0.045143
vt 0.955045 0.045143
vt 0.948311 0.040250
vt 0.952473 0.037227
s 1
usemtl Pink_Mushroom
f 1/1/1 2/2/2 3/3/3
f 1/1/1 3/3/3 4/4/4
f 5/5/5 6/6/6 7/7/7
f 5/5/5 7/7/7 8/8/8
f 9/9/9 10/10/7 11/11/10
f 9/9/9 11/11/10 12/12/11
f 13/13/12 14/14/13 15/15/14
f 13/13/12 15/15/14 16/16/15
f 17/17/16 18/18/17 19/19/18
f 17/17/16 19/19/18 20/20/19
f 21/21/19 22/22/18 23/23/20
f 21/21/19 23/23/20 24/24/21
f 25/25/22 26/26/23 27/27/24
f 25/25/22 27/27/24 28/28/25
f 29/29/26 30/30/24 31/31/27
f 29/29/26 31/31/27 32/32/28
f 33/33/29 34/34/30 35/35/31
f 33/33/29 35/35/31 36/36/32
f 37/37/32 38/38/33 39/39/2
f 37/37/32 39/39/2 40/40/34
f 41/41/35 42/42/36 43/43/37
f 41/41/35 43/43/37 44/44/38
f 45/45/39 46/46/40 47/47/41
f 45/45/39 47/47/41 48/48/42
f 49/49/36 50/50/39 51/51/42
f 49/49/36 51/51/42 52/52/37
f 53/53/43 54/54/35 55/55/38
f 53/53/43 55/55/38 56/56/44
f 57/57/45 58/58/43 59/59/46
f 57/57/45 59/59/46 60/60/47
f 61/61/48 62/62/45 63/63/47
f 61/61/48 63/63/47 64/64/49
f 65/65/50 66/66/51 67/67/49
f 65/65/50 67/67/49 68/68/52
f 69/69/53 70/70/54 71/71/52
f 69/69/53 71/71/52 72/72/55
f 73/73/56 74/74/57 75/75/58
f 73/73/56 75/75/58 76/76/59
f 77/77/40 78/78/56 79/79/59
f 77/77/40 79/79/59 80/80/60
f 81/81/12 82/82/61 83/83/62
f 81/81/12 83/83/62 84/84/40
f 85/85/61 86/86/63 87/87/64
f 85/85/61 87/87/64 88/88/56
f 89/89/63 90/90/65 91/91/66
f 89/89/63 91/91/66 92/92/64
f 93/93/22 94/94/67 95/95/68
f 93/93/22 95/95/68 96/96/54
f 97/97/67 98/98/69 99/99/70
f 97/97/67 99/99/70 100/100/51
f 101/101/71 102/102/32 103/103/72
f 101/101/71 103/103/72 104/104/45
f 105/105/32 106/106/73 107/107/74
f 105/105/32 107/107/74 108/108/43
f 109/109/75 110/110/76 111/111/77
f 109/109/75 111/111/77 112/112/36
f 113/113/9 114/114/78 115/115/79
f 113/113/9 115/115/79 116/116/39
f 117/117/1 118/118/80 119/119/81
f 117/117/1 119/119/81 120/120/74
f 125/121/82 126/122/83 127/123/84
f 125/121/82 127/123/84 128/124/85
f 128/124/85 127/123/84 129/125/86
f 128/124/85 129/125/86 130/126/87
f 130/126/87 129/125/86 131/127/88
f 130/126/87 131/127/88 132/128/89
f 132/128/89 131/127/88 133/129/90
f 132/128/89 133/129/90 134/130/91
f 134/130/91 133/129/90 135/131/92
f 134/130/91 135/131/92 136/132/93
f 137/121/94 138/122/95 139/123/96
f 137/121/94 139/123/96 140/124/97
f 140/124/97 139/123/96 141/125/98
f 140/124/97 141/125/98 142/126/99
f 142/126/99 141/125/98 143/127/100
f 142/126/99 143/127/100 144/128/101
f 144/128/101 143/127/100 145/129/102
f 144/128/101 145/129/102 146/130/103
f 146/130/103 145/129/102 147/131/95
f 146/130/103 147/131/95 148/132/104
f 149/121/105 150/122/106 151/123/107
f 149/121/105 151/123/107 152/124/108
f 152/124/108 151/123/107 153/125/109
f 152/124/108 153/125/109 154/126/110
f 154/126/110 153/125/109 155/127/111
f 154/126/110 155/127/111 156/128/112
f 156/128/112 155/127/111 157/129/113
f 156/128/112 157/129/113 158/130/114
f 158/130/114 157/129/113 159/131/115
f 158/130/114 159/131/115 160/132/116
f 161/121/117 162/122/118 163/123/119
f 161/121/117 163/123/119 164/124/120
f 164/124/120 163/123/119 165/125/121
f 164/124/120 165/125/121 166/126/122
f 166/126/122 165/125/121 167/127/123
f 166/126/122 167/127/123 168/128/124
f 168/128/124 167/127/123 169/129/125
f 168/128/124 169/129/125 170/130/126
f 170/130/126 169/129/125 171/131/127
f 172/121/128 173/122/129 174/123/130
f 172/121/128 174/123/130 175/124/131
f 175/124/131 174/123/130 176/125/132
f 175/124/131 176/125/132 177/126/133
f 177/126/133 176/125/132 178/127/134
f 177/126/133 178/127/134 179/128/135
f 179/128/135 178/127/134 180/129/136
f 179/128/135 180/129/136 181/130/137
f 181/130/137 180/129/136 182/131/138
f 181/130/137 182/131/138 183/132/139
f 184/121/140 185/122/141 186/123/142
f 184/121/140 186/123/142 187/124/143
f 187/124/143 186/123/142 188/125/144
f 187/124/143 188/125/144 189/126/145
f 189/126/145 188/125/144 190/127/146
f 189/126/145 190/127/146 191/128/147
f 191/128/147 190/127/146 192/129/148
f 191/128/147 192/129/148 193/130/149
f 193/130/149 192/129/148 194/131/150
f 193/130/149 194/131/150 195/132/151
f 204/133/152 202/134/52 203/135/153
f 202/134/52 204/133/152 205/136/44
f 202/134/52 205/136/44 201/137/58
f 201/137/58 205/136/44 196/138/154
f 201/137/58 196/138/154 200/139/155
f 200/139/155 196/138/154 197/140/37
f 200/139/155 197/140/37 199/141/60
f 199/141/60 197/140/37 198/142/42
f 207/143/84 210/144/156 211/145/157
f 210/144/156 207/143/84 209/146/158
f 209/146/158 207/143/84 208/147/159
f 212/143/160 215/144/161 216/145/162
f 215/144/161 212/143/160 214/146/163
f 214/146/163 212/143/160 213/147/164
f 217/143/165 220/144/166 221/145/109
f 220/144/166 217/143/165 219/146/167
f 219/146/167 217/143/165 218/147/115
f 223/147/168 226/145/121 222/143/119
f 226/145/121 223/147/168 224/146/169
f 226/145/121 224/146/169 225/144/170
f 227/143/171 230/144/134 231/145/172
f 230/144/134 227/143/171 229/146/173
f 229/146/173 227/143/171 228/147/138
f 232/143/174 235/144/175 236/145/176
f 235/144/175 232/143/174 234/146/148
f 234/146/148 232/143/174 233/147/141
