# Blender 4.5.4 LTS
# www.blender.org
mtllib rock.mtl
o Object_4
v -0.809720 -1.580415 0.797029
v -0.858627 -1.384797 0.847013
v -0.880878 -1.000536 0.879046
v -0.825520 -0.609736 0.825971
v -0.784551 -0.211663 0.783215
v -0.832995 -1.592027 0.590151
v -0.968495 -1.387468 0.591241
v -0.944239 -1.001433 0.577514
v -0.907292 -0.610114 0.578946
v -0.869411 -0.208898 0.581312
v -0.838330 -1.592027 0.199449
v -0.838330 -1.592027 0.199449
v -0.975015 -1.383969 0.199226
v -0.975015 -1.383969 0.199226
v -0.944168 -1.000685 0.197363
v -0.944168 -1.000685 0.197363
v -0.907469 -0.611983 0.196181
v -0.907469 -0.611983 0.196181
v -0.869697 -0.211928 0.194822
v -0.869697 -0.211928 0.194822
v -0.589205 -1.583859 0.812474
v -0.586425 -1.379471 0.925366
v -0.577879 -0.999875 0.944092
v -0.578800 -0.610163 0.907297
v -0.581563 -0.208865 0.869408
v -0.589193 -1.592027 0.588754
v -0.587804 -1.592027 0.199762
v -0.587804 -1.592027 0.199762
v -0.198649 -1.591872 0.829880
v -0.198229 -1.380815 0.958446
v -0.196682 -0.999433 0.944050
v -0.196120 -0.611975 0.907468
v -0.194707 -0.211989 0.869703
v -0.199650 -1.592027 0.587471
v -0.199927 -1.592027 0.199926
v -0.199927 -1.592027 0.199926
v -0.762427 0.187668 0.761098
v -0.730914 0.411524 0.729689
v -0.831618 0.191383 0.583162
v -0.783015 0.564946 0.573803
v -0.740378 0.973797 0.420719
v -0.719151 1.164523 0.368177
v -0.831944 0.187931 0.193194
v -0.831944 0.187931 0.193194
v -0.794331 0.586308 0.192399
v -0.794331 0.586308 0.192399
v -0.756901 0.982753 0.195019
v -0.756901 0.982753 0.195019
v -0.727705 1.180218 0.195445
v -0.727705 1.180218 0.195445
v -0.582105 0.190518 0.825261
v -0.566367 0.560585 0.765612
v -0.430472 0.862265 0.727632
v -0.678110 0.674730 0.680423
v -0.559757 0.985614 0.626773
v -0.537402 1.333111 0.453438
v -0.376517 1.524988 0.360710
v -0.598764 1.386841 0.195936
v -0.598764 1.386841 0.195936
v -0.403794 1.547241 0.193938
v -0.403794 1.547241 0.193938
v -0.192814 0.187618 0.831974
v -0.191302 0.583842 0.794564
v -0.171249 0.987815 0.750314
v -0.038363 1.150470 0.710370
v -0.276976 1.108691 0.702532
v -0.175324 1.364699 0.564445
v -0.309755 1.531239 0.364676
v -0.075021 1.502865 0.324422
v -0.075021 1.502865 0.324422
v -0.193943 1.579612 0.211976
v -0.193943 1.579612 0.211976
v -0.838261 -1.592027 -0.196236
v -0.980427 -1.384723 -0.197956
v -0.943994 -0.998842 -0.197726
v -0.907425 -0.611520 -0.198857
v -0.869686 -0.211806 -0.198085
v -0.798271 -1.566185 -0.584606
v -0.959283 -1.391135 -0.593976
v -0.943726 -0.995998 -0.576048
v -0.907345 -0.610679 -0.578506
v -0.869596 -0.210857 -0.580716
v -0.746951 -1.523625 -0.747617
v -0.827146 -1.378590 -0.828502
v -0.905126 -0.998515 -0.905907
v -0.859119 -0.606371 -0.858424
v -0.822542 -0.208865 -0.821244
v -0.586651 -1.592027 -0.196904
v -0.587583 -1.591365 -0.587362
v -0.588126 -1.579621 -0.808500
v -0.597885 -1.396805 -0.976740
v -0.576068 -0.995973 -0.943723
v -0.578597 -0.610801 -0.907357
v -0.580864 -0.210726 -0.869584
v -0.199056 -1.592027 -0.199003
v -0.196948 -1.592027 -0.586487
v -0.196447 -1.591569 -0.834995
v -0.197871 -1.382180 -0.969876
v -0.197931 -0.998480 -0.943960
v -0.198787 -0.611596 -0.907432
v -0.197939 -0.211805 -0.869686
v -0.831996 0.187386 -0.196025
v -0.794559 0.583895 -0.192248
v -0.748981 0.967004 -0.164003
v -0.720289 1.171456 -0.023109
v -0.831952 0.187852 -0.582424
v -0.794160 0.582873 -0.581147
v -0.733030 0.826104 -0.439863
v -0.786630 0.186759 -0.786022
v -0.756672 0.447154 -0.756953
v -0.678194 1.077201 -0.264779
v -0.554645 1.342237 -0.159709
v -0.398934 1.543651 -0.035721
v -0.689395 0.699707 -0.687144
v -0.579867 0.970343 -0.579690
v -0.445713 1.229349 -0.445297
v -0.582403 0.188262 -0.831913
v -0.582623 0.582657 -0.794676
v -0.450606 0.841884 -0.753188
v -0.194453 1.499393 -0.270303
v -0.197624 1.582520 -0.086501
v -0.188002 1.093739 -0.701062
v -0.191441 1.300141 -0.523060
v -0.195972 0.187708 -0.831965
v -0.193702 0.582124 -0.794726
v -0.189525 0.908608 -0.762524
v 0.200061 -1.592027 0.837169
v 0.199177 -1.386289 0.980573
v 0.194445 -1.001132 0.944211
v 0.192451 -0.611706 0.907443
v 0.191786 -0.211515 0.869658
v 0.200080 -1.592027 0.587833
v 0.200002 -1.592027 0.199996
v 0.200002 -1.592027 0.199996
v 0.589822 -1.592027 0.835968
v 0.593536 -1.392803 0.978354
v 0.578371 -1.002977 0.938286
v 0.580513 -0.607082 0.903520
v 0.582461 -0.206273 0.867488
v 0.589177 -1.592027 0.589453
v 0.587677 -1.592027 0.199958
v 0.587677 -1.592027 0.199958
v 0.808522 -1.589618 0.817843
v 0.851356 -1.391064 0.859872
v 0.816290 -1.004383 0.820090
v 0.783583 -0.610221 0.785318
v 0.758626 -0.210248 0.759156
v 0.825180 -1.592027 0.589956
v 0.972257 -1.394004 0.594771
v 0.941767 -1.002033 0.580041
v 0.906409 -0.606492 0.581671
v 0.868147 -0.206107 0.582721
v 0.832237 -1.591332 0.199181
v 0.832237 -1.591332 0.199181
v 0.973461 -1.385262 0.198346
v 0.973461 -1.385262 0.198346
v 0.944157 -1.000571 0.193531
v 0.944157 -1.000571 0.193531
v 0.907433 -0.611606 0.192204
v 0.907433 -0.611606 0.192204
v 0.869654 -0.211470 0.191686
v 0.869654 -0.211470 0.191686
v 0.191166 0.188407 0.831899
v 0.191150 0.584226 0.794528
v 0.160664 0.978583 0.754875
v 0.012736 1.144438 0.706745
v 0.257746 1.095196 0.694909
v 0.152069 1.267855 0.577179
v 0.153574 1.460073 0.209765
v 0.153574 1.460073 0.209765
v 0.009823 1.540922 0.099568
v 0.584634 0.193914 0.831380
v 0.591271 0.552611 0.795187
v 0.462502 0.857747 0.767283
v 0.698241 0.644617 0.696591
v 0.589401 0.979786 0.604492
v 0.416501 1.199787 0.461106
v 0.619943 1.000083 0.196402
v 0.619943 1.000083 0.196402
v 0.440590 1.236945 0.193172
v 0.440590 1.236945 0.193172
v 0.737310 0.188357 0.737840
v 0.716948 0.389657 0.717698
v 0.831406 0.193607 0.584942
v 0.788151 0.550728 0.588018
v 0.756368 0.814769 0.462708
v 0.832119 0.186083 0.192414
v 0.832119 0.186083 0.192414
v 0.794864 0.580670 0.195733
v 0.794864 0.580670 0.195733
v 0.743284 0.816219 0.197333
v 0.743284 0.816219 0.197333
v 0.199800 -1.592027 -0.199741
v 0.199305 -1.592027 -0.587372
v 0.198484 -1.592025 -0.833663
v 0.198279 -1.384727 -0.973853
v 0.195458 -0.999502 -0.944057
v 0.195331 -0.611568 -0.907430
v 0.194318 -0.212004 -0.869705
v 0.587383 -1.592027 -0.199225
v 0.588578 -1.592027 -0.588586
v 0.589455 -1.592027 -0.823669
v 0.596699 -1.395872 -0.977458
v 0.578600 -0.999421 -0.944049
v 0.578562 -0.608759 -0.907164
v 0.581575 -0.208715 -0.869394
v 0.833219 -1.591331 -0.198468
v 0.970962 -1.383777 -0.198221
v 0.944050 -0.999438 -0.195521
v 0.907425 -0.611520 -0.195411
v 0.869703 -0.211989 -0.194462
v 0.823110 -1.592027 -0.589412
v 0.974063 -1.395036 -0.596026
v 0.944044 -0.999375 -0.578571
v 0.907159 -0.608699 -0.578508
v 0.869405 -0.208836 -0.581320
v 0.784070 -1.563996 -0.785366
v 0.825094 -1.382049 -0.825795
v 0.842414 -0.999322 -0.842335
v 0.819608 -0.608577 -0.819183
v 0.782628 -0.211819 -0.781221
v 0.154421 1.431307 -0.186263
v 0.006246 1.528763 -0.057606
v 0.181707 1.087383 -0.681759
v 0.177780 1.260613 -0.496712
v 0.192602 0.188151 -0.831924
v 0.191320 0.582825 -0.794660
v 0.184794 0.894294 -0.763009
v 0.696509 0.740213 -0.363964
v 0.599445 0.911615 -0.213029
v 0.392337 1.196181 -0.178258
v 0.694058 0.685137 -0.570437
v 0.492100 0.954518 -0.556426
v 0.365674 1.161954 -0.410035
v 0.582928 0.191631 -0.828011
v 0.571885 0.556561 -0.794550
v 0.434787 0.829663 -0.770635
v 0.832326 0.183891 -0.192181
v 0.775962 0.613068 -0.224997
v 0.717624 0.782520 -0.114180
v 0.831768 0.189794 -0.584581
v 0.791718 0.501634 -0.583501
v 0.747113 0.184950 -0.747500
v 0.729606 0.397457 -0.733764
vn -0.9604 -0.2361 0.1482
vn -0.5032 -0.8591 0.0933
vn -0.4385 -0.7440 0.5041
vn -0.6590 -0.2482 0.7100
vn -0.9875 0.0735 0.1395
vn -0.6946 0.0516 0.7176
vn -0.9826 0.1083 0.1512
vn -0.7004 0.1351 0.7008
vn -0.9783 0.0958 0.1836
vn -0.7017 0.1058 0.7045
vn -0.9682 -0.2500 0.0084
vn -0.4738 -0.8806 0.0046
vn -0.9962 0.0867 0.0039
vn -0.9956 0.0940 -0.0000
vn -0.1324 -0.2451 0.9604
vn -0.0745 -0.8398 0.5378
vn -0.1347 0.0376 0.9902
vn -0.1518 0.1081 0.9825
vn -0.1832 0.1001 0.9780
vn -0.0049 -0.9999 0.0160
vn -0.0000 -1.0000 -0.0000
vn -0.0435 -0.2562 0.9656
vn -0.0308 -0.8697 0.4927
vn -0.0176 0.0623 0.9979
vn -0.0000 0.0940 0.9956
vn -0.0020 0.0960 0.9954
vn -0.0027 -1.0000 0.0045
vn -0.9729 0.1102 0.2032
vn -0.6894 0.1292 0.7127
vn -0.9101 0.2036 0.3610
vn -0.6673 0.1942 0.7191
vn -0.9951 0.0983 0.0044
vn -0.9944 0.1050 0.0141
vn -0.9917 0.1271 0.0190
vn -0.9083 0.2349 0.3462
vn -0.9211 0.3877 0.0356
vn -0.8596 0.3707 0.3515
vn -0.1959 0.1227 0.9729
vn -0.3122 0.2048 0.9277
vn -0.6123 0.3045 0.7296
vn -0.5252 0.3558 0.7730
vn -0.2550 0.2304 0.9391
vn -0.5721 0.5843 0.5756
vn -0.7441 0.6652 0.0612
vn -0.4468 0.8910 0.0802
vn -0.3723 0.8127 0.4482
vn -0.0144 0.1041 0.9945
vn -0.0433 0.1167 0.9922
vn -0.1047 0.2451 0.9638
vn -0.2503 0.4079 0.8780
vn -0.0145 0.6825 0.7308
vn 0.0215 0.4492 0.8932
vn -0.0800 0.8657 0.4941
vn 0.2680 0.8615 0.4312
vn 0.0812 0.9767 0.1986
vn -0.9626 -0.2698 -0.0241
vn -0.4711 -0.8816 -0.0295
vn -0.9963 0.0855 -0.0053
vn -0.9205 -0.3331 -0.2041
vn -0.4761 -0.8608 -0.1799
vn -0.9925 0.0453 -0.1133
vn -0.9918 0.1003 -0.0795
vn -0.9907 0.0969 -0.0955
vn -0.6754 -0.3636 -0.6416
vn -0.4811 -0.7687 -0.4215
vn -0.7118 0.0174 -0.7022
vn -0.7018 0.1311 -0.7002
vn -0.7035 0.1190 -0.7007
vn -0.0139 -0.9999 -0.0094
vn -0.0785 -0.9952 -0.0581
vn -0.1949 -0.8683 -0.4562
vn -0.2031 -0.3247 -0.9237
vn -0.1108 0.0534 -0.9924
vn -0.0802 0.1008 -0.9917
vn -0.0971 0.0970 -0.9905
vn -0.0003 -1.0000 -0.0003
vn -0.0046 -1.0000 -0.0069
vn -0.0111 -0.8831 -0.4691
vn -0.0052 -0.2664 -0.9639
vn 0.0006 0.0837 -0.9965
vn -0.0000 0.0940 -0.9956
vn -0.9956 0.0942 -0.0002
vn -0.9925 0.1209 -0.0199
vn -0.9501 0.2679 -0.1599
vn -0.9051 0.3960 -0.1551
vn -0.9884 0.1002 -0.1142
vn -0.9237 0.2545 -0.2862
vn -0.9074 0.3420 -0.2442
vn -0.7028 0.1221 -0.7008
vn -0.6950 0.1905 -0.6934
vn -0.6710 0.6553 -0.3470
vn -0.8010 0.4719 -0.3684
vn -0.7441 0.6652 0.0611
vn -0.4569 0.8588 -0.2317
vn -0.6147 0.5098 -0.6019
vn -0.6648 0.4270 -0.6130
vn -0.5223 0.6366 -0.5674
vn -0.1152 0.0994 -0.9884
vn -0.3008 0.2412 -0.9227
vn -0.2625 0.3505 -0.8990
vn -0.0358 0.9631 -0.2667
vn -0.0950 0.8519 -0.5149
vn -0.1377 0.7461 -0.6514
vn -0.1458 0.5492 -0.8229
vn -0.0067 0.1048 -0.9945
vn -0.0874 0.2905 -0.9529
vn -0.0136 -0.2521 0.9676
vn -0.0103 -0.8823 0.4706
vn -0.0009 0.0871 0.9962
vn 0.0047 0.0927 0.9957
vn 0.0021 0.0930 0.9957
vn 0.1832 -0.2066 0.9611
vn 0.0758 -0.8642 0.4974
vn 0.2339 0.1038 0.9667
vn 0.2585 0.0928 0.9615
vn 0.2708 0.0878 0.9586
vn 0.0016 -1.0000 0.0012
vn 0.0009 -1.0000 -0.0006
vn 0.6943 -0.1771 0.6975
vn 0.4603 -0.7597 0.4593
vn 0.6987 0.1095 0.7070
vn 0.6991 0.0921 0.7091
vn 0.7025 0.0804 0.7071
vn 0.4914 -0.8678 0.0735
vn 0.9581 -0.2199 0.1833
vn 0.9669 0.0949 0.2367
vn 0.9603 0.0945 0.2623
vn 0.9579 0.0896 0.2726
vn 0.4665 -0.8845 -0.0005
vn 0.9655 -0.2605 0.0004
vn 0.9965 0.0838 0.0016
vn 0.9956 0.0936 0.0015
vn 0.9956 0.0938 0.0008
vn 0.0012 0.0943 0.9955
vn 0.0002 0.0979 0.9952
vn 0.0933 0.3033 0.9483
vn 0.0973 0.4671 0.8788
vn 0.2897 0.5808 0.7607
vn 0.3195 0.7257 0.6093
vn 0.4846 0.8548 0.1857
vn 0.3593 0.9314 0.0592
vn 0.2829 0.0935 0.9546
vn 0.3725 0.1606 0.9140
vn 0.2683 0.3092 0.9124
vn 0.7074 0.2791 0.6494
vn 0.6506 0.5686 0.5034
vn 0.5834 0.7325 0.3507
vn 0.7899 0.6119 -0.0404
vn 0.6973 0.7158 0.0365
vn 0.7061 0.0903 0.7023
vn 0.7112 0.1066 0.6949
vn 0.9541 0.0999 0.2825
vn 0.9209 0.1793 0.3462
vn 0.8984 0.4046 0.1709
vn 0.9949 0.1013 -0.0014
vn 0.9863 0.1639 -0.0164
vn 0.9032 0.4270 -0.0434
vn -0.0002 -1.0000 -0.0002
vn -0.0020 -0.8847 -0.4662
vn -0.0040 -0.2597 -0.9657
vn -0.0021 0.0852 -0.9964
vn 0.0010 0.0950 -0.9955
vn 0.0014 -1.0000 -0.0000
vn 0.0011 -1.0000 -0.0002
vn 0.0181 -0.9997 -0.0175
vn 0.1343 -0.8626 -0.4878
vn 0.2212 -0.2502 -0.9426
vn 0.2030 0.0708 -0.9766
vn 0.1824 0.0948 -0.9786
vn 0.2022 0.1018 -0.9740
vn 0.4679 -0.8838 -0.0001
vn 0.9654 -0.2608 -0.0003
vn 0.9965 0.0834 -0.0000
vn 0.9965 0.0838 0.0015
vn 0.9956 0.0940 -0.0000
vn 0.9956 0.0935 0.0014
vn 0.9956 0.0938 0.0007
vn 0.4924 -0.8602 -0.1330
vn 0.9434 -0.2495 -0.2186
vn 0.9771 0.0675 -0.2017
vn 0.9788 0.0946 -0.1817
vn 0.9743 0.0996 -0.2022
vn 0.4820 -0.7341 -0.4783
vn 0.6916 -0.2233 -0.6869
vn 0.7072 0.0532 -0.7050
vn 0.7039 0.1008 -0.7031
vn 0.7023 0.1098 -0.7034
vn 0.4775 0.8290 -0.2912
vn 0.3522 0.9195 -0.1745
vn 0.3748 0.7519 -0.5424
vn 0.2604 0.5975 -0.7584
vn 0.0034 0.0951 -0.9955
vn 0.0027 0.0954 -0.9954
vn 0.1195 0.3203 -0.9398
vn 0.8015 0.5750 -0.1641
vn 0.7180 0.6717 -0.1826
vn 0.6973 0.7158 0.0364
vn 0.7889 0.4978 -0.3604
vn 0.6632 0.6053 -0.4402
vn 0.8372 0.5265 -0.1482
vn 0.6639 0.6684 -0.3352
vn 0.2259 0.0996 -0.9690
vn 0.3911 0.2698 -0.8799
vn 0.3642 0.3958 -0.8430
vn 0.9942 0.1071 -0.0046
vn 0.9535 0.2934 -0.0685
vn 0.8829 0.4535 -0.1215
vn 0.9679 0.1109 -0.2254
vn 0.9018 0.3025 -0.3087
vn 0.6996 0.1076 -0.7064
vn 0.6929 0.1961 -0.6938
vt 0.675472 0.312516
vt 0.692999 0.293679
vt 0.704960 0.307986
vt 0.699836 0.324763
vt 0.658026 0.353370
vt 0.693074 0.360728
vt 0.652626 0.403717
vt 0.686685 0.406008
vt 0.653667 0.459837
vt 0.684141 0.458617
vt 0.632565 0.283551
vt 0.658744 0.253688
vt 0.608652 0.338227
vt 0.596441 0.398387
vt 0.595013 0.462504
vt 0.726529 0.327433
vt 0.723901 0.304378
vt 0.724584 0.365957
vt 0.718344 0.409681
vt 0.713327 0.459875
vt 0.716727 0.281501
vt 0.693131 0.230790
vt 0.766468 0.326947
vt 0.765154 0.299549
vt 0.765747 0.368277
vt 0.764016 0.412859
vt 0.762369 0.461927
vt 0.762113 0.270423
vt 0.754353 0.216065
vt 0.660684 0.516269
vt 0.686415 0.512017
vt 0.672209 0.567978
vt 0.689610 0.542166
vt 0.601710 0.526835
vt 0.618500 0.589247
vt 0.644445 0.647808
vt 0.674940 0.630619
vt 0.661673 0.675324
vt 0.681404 0.658196
vt 0.711503 0.512007
vt 0.712700 0.561067
vt 0.695822 0.578340
vt 0.712183 0.620456
vt 0.730999 0.600731
vt 0.714581 0.672650
vt 0.688786 0.704753
vt 0.724912 0.724876
vt 0.735208 0.702109
vt 0.761522 0.512615
vt 0.761510 0.563424
vt 0.765301 0.615009
vt 0.752147 0.631803
vt 0.765582 0.669545
vt 0.782591 0.635789
vt 0.744405 0.703586
vt 0.780428 0.710366
vt 0.758382 0.729798
vt 0.313578 0.280950
vt 0.282061 0.273572
vt 0.287982 0.215332
vt 0.330213 0.222891
vt 0.358755 0.304668
vt 0.392721 0.250571
vt 0.400463 0.341610
vt 0.448532 0.295473
vt 0.435494 0.390682
vt 0.495372 0.355484
vt 0.297660 0.321686
vt 0.275890 0.316773
vt 0.332360 0.341612
vt 0.361724 0.374625
vt 0.388543 0.417084
vt 0.286213 0.343205
vt 0.273374 0.332750
vt 0.310273 0.365981
vt 0.335982 0.394902
vt 0.362245 0.432054
vt 0.249083 0.274784
vt 0.244300 0.213645
vt 0.255260 0.319580
vt 0.259340 0.339518
vt 0.268759 0.356903
vt 0.288330 0.384777
vt 0.312434 0.413677
vt 0.338888 0.448205
vt 0.198908 0.288451
vt 0.175070 0.227998
vt 0.217636 0.331833
vt 0.228713 0.354807
vt 0.240108 0.374808
vt 0.259227 0.404640
vt 0.280575 0.436585
vt 0.303917 0.471981
vt 0.461602 0.446264
vt 0.525232 0.425825
vt 0.474975 0.505344
vt 0.539771 0.498846
vt 0.480291 0.563851
vt 0.539771 0.572472
vt 0.496897 0.598465
vt 0.532725 0.609084
vt 0.409127 0.464214
vt 0.422162 0.511550
vt 0.441553 0.542623
vt 0.385112 0.473385
vt 0.397590 0.501105
vt 0.464682 0.624083
vt 0.462380 0.580075
vt 0.517401 0.652150
vt 0.461344 0.664450
vt 0.488779 0.689595
vt 0.419029 0.565640
vt 0.408918 0.530020
vt 0.425662 0.604602
vt 0.364288 0.486115
vt 0.387643 0.524260
vt 0.390605 0.557162
vt 0.434799 0.677672
vt 0.419741 0.655736
vt 0.461641 0.717715
vt 0.397714 0.622758
vt 0.380700 0.597111
vt 0.327634 0.509388
vt 0.350674 0.547052
vt 0.369193 0.578472
vt 0.808981 0.327115
vt 0.809714 0.299625
vt 0.809130 0.368390
vt 0.810096 0.413599
vt 0.810623 0.462537
vt 0.812284 0.270078
vt 0.818841 0.213645
vt 0.847407 0.327172
vt 0.849476 0.304896
vt 0.851254 0.366037
vt 0.856992 0.411683
vt 0.860282 0.462226
vt 0.857203 0.280146
vt 0.882372 0.228384
vt 0.871814 0.323949
vt 0.867146 0.308204
vt 0.880679 0.361846
vt 0.886326 0.409352
vt 0.887537 0.462009
vt 0.880326 0.292914
vt 0.897646 0.312891
vt 0.912896 0.355455
vt 0.917849 0.407478
vt 0.916176 0.463494
vt 0.916824 0.252540
vt 0.943054 0.284824
vt 0.964945 0.341717
vt 0.975479 0.402715
vt 0.975479 0.467009
vt 0.810350 0.513034
vt 0.809915 0.563206
vt 0.806981 0.612660
vt 0.789154 0.634991
vt 0.820098 0.628465
vt 0.808993 0.656837
vt 0.821827 0.716590
vt 0.419814 0.716775
vt 0.448096 0.749097
vt 0.399860 0.745103
vt 0.860559 0.514292
vt 0.859450 0.559938
vt 0.843143 0.596517
vt 0.875381 0.574017
vt 0.863772 0.617190
vt 0.849355 0.655584
vt 0.907814 0.655574
vt 0.872742 0.688311
vt 0.884006 0.515246
vt 0.880661 0.541819
vt 0.908107 0.519249
vt 0.895781 0.566463
vt 0.896435 0.604811
vt 0.967068 0.530837
vt 0.947366 0.591914
vt 0.928539 0.626158
vt 0.152207 0.317049
vt 0.108640 0.264901
vt 0.181977 0.353793
vt 0.196630 0.373821
vt 0.209208 0.393389
vt 0.227159 0.424039
vt 0.246261 0.457875
vt 0.267787 0.494631
vt 0.115833 0.354562
vt 0.062871 0.322470
vt 0.154020 0.380734
vt 0.169440 0.394171
vt 0.180607 0.409908
vt 0.195296 0.440833
vt 0.211034 0.476762
vt 0.230499 0.516145
vt 0.101262 0.384232
vt 0.043115 0.361889
vt 0.093534 0.416363
vt 0.031023 0.405662
vt 0.095575 0.468650
vt 0.030721 0.477267
vt 0.112142 0.523029
vt 0.049316 0.549114
vt 0.141672 0.575987
vt 0.088067 0.614570
vt 0.142266 0.398777
vt 0.137437 0.420103
vt 0.141811 0.459770
vt 0.159263 0.501649
vt 0.186253 0.544151
vt 0.157597 0.403972
vt 0.160830 0.418746
vt 0.170484 0.450961
vt 0.185986 0.488336
vt 0.208341 0.528732
vt 0.380662 0.684727
vt 0.410023 0.694169
vt 0.359739 0.644114
vt 0.345622 0.618601
vt 0.290933 0.532232
vt 0.314329 0.569388
vt 0.332795 0.599227
vt 0.283694 0.676647
vt 0.333827 0.688962
vt 0.333196 0.752191
vt 0.277324 0.747849
vt 0.269103 0.620584
vt 0.307238 0.634059
vt 0.263694 0.647484
vt 0.334156 0.657043
vt 0.253907 0.555649
vt 0.277464 0.589094
vt 0.305473 0.605377
vt 0.180644 0.622037
vt 0.137582 0.669304
vt 0.235959 0.656107
vt 0.195543 0.715585
vt 0.253389 0.683629
vt 0.237163 0.735571
vt 0.219472 0.582444
vt 0.247657 0.608163
vt 0.236053 0.567360
vt 0.251855 0.586089
s 1
usemtl Material.002
f 7/1/1 6/2/2 1/3/3
f 7/1/1 1/3/3 2/4/4
f 8/5/5 7/1/1 2/4/4
f 8/5/5 2/4/4 3/6/6
f 9/7/7 8/5/5 3/6/6
f 9/7/7 3/6/6 4/8/8
f 10/9/9 9/7/7 4/8/8
f 10/9/9 4/8/8 5/10/10
f 14/11/11 12/12/12 6/2/2
f 14/11/11 6/2/2 7/1/1
f 16/13/13 14/11/11 7/1/1
f 16/13/13 7/1/1 8/5/5
f 18/14/14 16/13/13 8/5/5
f 18/14/14 8/5/5 9/7/7
f 20/15/14 18/14/14 9/7/7
f 20/15/14 9/7/7 10/9/9
f 22/16/15 2/4/4 1/3/3
f 22/16/15 1/3/3 21/17/16
f 23/18/17 3/6/6 2/4/4
f 23/18/17 2/4/4 22/16/15
f 24/19/18 4/8/8 3/6/6
f 24/19/18 3/6/6 23/18/17
f 25/20/19 5/10/10 4/8/8
f 25/20/19 4/8/8 24/19/18
f 6/2/2 26/21/20 21/17/16
f 6/2/2 21/17/16 1/3/3
f 12/12/12 28/22/21 26/21/20
f 12/12/12 26/21/20 6/2/2
f 30/23/22 22/16/15 21/17/16
f 30/23/22 21/17/16 29/24/23
f 31/25/24 23/18/17 22/16/15
f 31/25/24 22/16/15 30/23/22
f 32/26/25 24/19/18 23/18/17
f 32/26/25 23/18/17 31/25/24
f 33/27/26 25/20/19 24/19/18
f 33/27/26 24/19/18 32/26/25
f 26/21/20 34/28/27 29/24/23
f 26/21/20 29/24/23 21/17/16
f 28/22/21 36/29/21 34/28/27
f 28/22/21 34/28/27 26/21/20
f 39/30/28 10/9/9 5/10/10
f 39/30/28 5/10/10 37/31/29
f 40/32/30 39/30/28 37/31/29
f 40/32/30 37/31/29 38/33/31
f 44/34/32 20/15/14 10/9/9
f 44/34/32 10/9/9 39/30/28
f 46/35/33 44/34/32 39/30/28
f 46/35/33 39/30/28 40/32/30
f 48/36/34 46/35/33 40/32/30
f 48/36/34 40/32/30 41/37/35
f 50/38/36 48/36/34 41/37/35
f 50/38/36 41/37/35 42/39/37
f 51/40/38 37/31/29 5/10/10
f 51/40/38 5/10/10 25/20/19
f 52/41/39 38/33/31 37/31/29
f 52/41/39 37/31/29 51/40/38
f 54/42/40 40/32/30 38/33/31
f 54/42/40 38/33/31 52/41/39
f 55/43/41 54/42/40 52/41/39
f 55/43/41 52/41/39 53/44/42
f 55/43/41 41/37/35 40/32/30
f 55/43/41 40/32/30 54/42/40
f 56/45/43 42/39/37 41/37/35
f 56/45/43 41/37/35 55/43/41
f 59/46/44 50/38/36 42/39/37
f 59/46/44 42/39/37 56/45/43
f 61/47/45 59/46/44 56/45/43
f 61/47/45 56/45/43 57/48/46
f 62/49/47 51/40/38 25/20/19
f 62/49/47 25/20/19 33/27/26
f 63/50/48 52/41/39 51/40/38
f 63/50/48 51/40/38 62/49/47
f 64/51/49 53/44/42 52/41/39
f 64/51/49 52/41/39 63/50/48
f 66/52/50 55/43/41 53/44/42
f 66/52/50 53/44/42 64/51/49
f 67/53/51 66/52/50 64/51/49
f 67/53/51 64/51/49 65/54/52
f 67/53/51 56/45/43 55/43/41
f 67/53/51 55/43/41 66/52/50
f 68/55/53 57/48/46 56/45/43
f 68/55/53 56/45/43 67/53/51
f 70/56/54 72/57/55 68/55/53
f 70/56/54 68/55/53 67/53/51
f 72/57/55 61/47/45 57/48/46
f 72/57/55 57/48/46 68/55/53
f 74/58/56 73/59/57 11/60/12
f 74/58/56 11/60/12 13/61/11
f 75/62/58 74/58/56 13/61/11
f 75/62/58 13/61/11 15/63/13
f 76/64/14 75/62/58 15/63/13
f 76/64/14 15/63/13 17/65/14
s 0
f 77/66/14 76/64/14 17/65/14
f 77/66/14 17/65/14 19/67/14
s 1
f 79/68/59 78/69/60 73/59/57
f 79/68/59 73/59/57 74/58/56
f 80/70/61 79/68/59 74/58/56
f 80/70/61 74/58/56 75/62/58
f 81/71/62 80/70/61 75/62/58
f 81/71/62 75/62/58 76/64/14
f 82/72/63 81/71/62 76/64/14
f 82/72/63 76/64/14 77/66/14
f 84/73/64 83/74/65 78/69/60
f 84/73/64 78/69/60 79/68/59
f 85/75/66 84/73/64 79/68/59
f 85/75/66 79/68/59 80/70/61
f 86/76/67 85/75/66 80/70/61
f 86/76/67 80/70/61 81/71/62
f 87/77/68 86/76/67 81/71/62
f 87/77/68 81/71/62 82/72/63
f 73/59/57 88/78/69 27/79/21
f 73/59/57 27/79/21 11/60/12
f 78/69/60 89/80/70 88/78/69
f 78/69/60 88/78/69 73/59/57
f 83/74/65 90/81/71 89/80/70
f 83/74/65 89/80/70 78/69/60
f 84/73/64 91/82/72 90/81/71
f 84/73/64 90/81/71 83/74/65
f 85/75/66 92/83/73 91/82/72
f 85/75/66 91/82/72 84/73/64
f 86/76/67 93/84/74 92/83/73
f 86/76/67 92/83/73 85/75/66
f 87/77/68 94/85/75 93/84/74
f 87/77/68 93/84/74 86/76/67
f 88/78/69 95/86/76 35/87/21
f 88/78/69 35/87/21 27/79/21
f 89/80/70 96/88/77 95/86/76
f 89/80/70 95/86/76 88/78/69
f 90/81/71 97/89/78 96/88/77
f 90/81/71 96/88/77 89/80/70
f 91/82/72 98/90/79 97/89/78
f 91/82/72 97/89/78 90/81/71
f 92/83/73 99/91/80 98/90/79
f 92/83/73 98/90/79 91/82/72
f 93/84/74 100/92/81 99/91/80
f 93/84/74 99/91/80 92/83/73
f 94/85/75 101/93/81 100/92/81
f 94/85/75 100/92/81 93/84/74
s 0
f 102/94/82 77/66/14 19/67/14
s 1
f 102/94/82 19/67/14 43/95/32
f 103/96/83 102/94/82 43/95/32
f 103/96/83 43/95/32 45/97/33
f 104/98/84 103/96/83 45/97/33
f 104/98/84 45/97/33 47/99/34
f 105/100/85 104/98/84 47/99/34
f 105/100/85 47/99/34 49/101/36
f 106/102/86 82/72/63 77/66/14
f 106/102/86 77/66/14 102/94/82
f 107/103/87 106/102/86 102/94/82
f 107/103/87 102/94/82 103/96/83
f 108/104/88 107/103/87 103/96/83
f 108/104/88 103/96/83 104/98/84
f 109/105/89 87/77/68 82/72/63
f 109/105/89 82/72/63 106/102/86
f 110/106/90 109/105/89 106/102/86
f 110/106/90 106/102/86 107/103/87
f 105/100/85 112/107/91 111/108/92
f 105/100/85 111/108/92 104/98/84
f 112/107/91 105/100/85 49/101/36
f 112/107/91 49/101/36 58/109/93
f 113/110/94 112/107/91 58/109/93
f 113/110/94 58/109/93 60/111/45
f 108/104/88 115/112/95 114/113/96
f 108/104/88 114/113/96 107/103/87
f 115/112/95 108/104/88 104/98/84
f 115/112/95 104/98/84 111/108/92
f 116/114/97 115/112/95 111/108/92
f 116/114/97 111/108/92 112/107/91
f 109/105/89 117/115/98 94/85/75
f 109/105/89 94/85/75 87/77/68
f 110/106/90 118/116/99 117/115/98
f 110/106/90 117/115/98 109/105/89
f 118/116/99 110/106/90 107/103/87
f 118/116/99 107/103/87 114/113/96
f 119/117/100 118/116/99 114/113/96
f 119/117/100 114/113/96 115/112/95
f 113/110/94 121/118/101 120/119/102
f 113/110/94 120/119/102 112/107/91
f 121/118/101 113/110/94 60/111/45
f 121/118/101 60/111/45 71/120/55
f 116/114/97 123/121/103 122/122/104
f 116/114/97 122/122/104 115/112/95
f 123/121/103 116/114/97 112/107/91
f 123/121/103 112/107/91 120/119/102
f 117/115/98 124/123/81 101/93/81
f 117/115/98 101/93/81 94/85/75
f 118/116/99 125/124/105 124/123/81
f 118/116/99 124/123/81 117/115/98
f 119/117/100 126/125/106 125/124/105
f 119/117/100 125/124/105 118/116/99
f 126/125/106 119/117/100 115/112/95
f 126/125/106 115/112/95 122/122/104
f 128/126/107 30/23/22 29/24/23
f 128/126/107 29/24/23 127/127/108
f 129/128/109 31/25/24 30/23/22
f 129/128/109 30/23/22 128/126/107
f 130/129/110 32/26/25 31/25/24
f 130/129/110 31/25/24 129/128/109
f 131/130/111 33/27/26 32/26/25
f 131/130/111 32/26/25 130/129/110
f 34/28/27 132/131/21 127/127/108
f 34/28/27 127/127/108 29/24/23
s 0
f 36/29/21 134/132/21 132/131/21
s 1
f 36/29/21 132/131/21 34/28/27
f 136/133/112 128/126/107 127/127/108
f 136/133/112 127/127/108 135/134/113
f 137/135/114 129/128/109 128/126/107
f 137/135/114 128/126/107 136/133/112
f 138/136/115 130/129/110 129/128/109
f 138/136/115 129/128/109 137/135/114
f 139/137/116 131/130/111 130/129/110
f 139/137/116 130/129/110 138/136/115
f 132/131/21 140/138/117 135/134/113
f 132/131/21 135/134/113 127/127/108
f 134/132/21 142/139/118 140/138/117
f 134/132/21 140/138/117 132/131/21
f 144/140/119 136/133/112 135/134/113
f 144/140/119 135/134/113 143/141/120
f 145/142/121 137/135/114 136/133/112
f 145/142/121 136/133/112 144/140/119
f 146/143/122 138/136/115 137/135/114
f 146/143/122 137/135/114 145/142/121
f 147/144/123 139/137/116 138/136/115
f 147/144/123 138/136/115 146/143/122
f 140/138/117 148/145/124 143/141/120
f 140/138/117 143/141/120 135/134/113
f 148/145/124 149/146/125 144/140/119
f 148/145/124 144/140/119 143/141/120
f 149/146/125 150/147/126 145/142/121
f 149/146/125 145/142/121 144/140/119
f 150/147/126 151/148/127 146/143/122
f 150/147/126 146/143/122 145/142/121
f 151/148/127 152/149/128 147/144/123
f 151/148/127 147/144/123 146/143/122
f 142/139/118 154/150/129 148/145/124
f 142/139/118 148/145/124 140/138/117
f 154/150/129 156/151/130 149/146/125
f 154/150/129 149/146/125 148/145/124
f 156/151/130 158/152/131 150/147/126
f 156/151/130 150/147/126 149/146/125
f 158/152/131 160/153/132 151/148/127
f 158/152/131 151/148/127 150/147/126
f 160/153/132 162/154/133 152/149/128
f 160/153/132 152/149/128 151/148/127
f 163/155/134 62/49/47 33/27/26
f 163/155/134 33/27/26 131/130/111
f 164/156/135 63/50/48 62/49/47
f 164/156/135 62/49/47 163/155/134
f 165/157/136 64/51/49 63/50/48
f 165/157/136 63/50/48 164/156/135
f 166/158/137 65/54/52 64/51/49
f 166/158/137 64/51/49 165/157/136
f 167/159/138 168/160/139 166/158/137
f 167/159/138 166/158/137 165/157/136
f 168/160/139 67/53/51 65/54/52
f 168/160/139 65/54/52 166/158/137
f 170/161/140 70/56/54 67/53/51
f 170/161/140 67/53/51 168/160/139
f 171/162/141 71/120/55 69/163/54
f 171/162/141 69/163/54 169/164/140
f 172/165/142 163/155/134 131/130/111
f 172/165/142 131/130/111 139/137/116
f 173/166/143 164/156/135 163/155/134
f 173/166/143 163/155/134 172/165/142
f 174/167/144 165/157/136 164/156/135
f 174/167/144 164/156/135 173/166/143
f 175/168/145 176/169/146 174/167/144
f 175/168/145 174/167/144 173/166/143
f 176/169/146 167/159/138 165/157/136
f 176/169/146 165/157/136 174/167/144
f 177/170/147 168/160/139 167/159/138
f 177/170/147 167/159/138 176/169/146
f 179/171/148 181/172/149 177/170/147
f 179/171/148 177/170/147 176/169/146
f 181/172/149 170/161/140 168/160/139
f 181/172/149 168/160/139 177/170/147
f 182/173/150 172/165/142 139/137/116
f 182/173/150 139/137/116 147/144/123
f 183/174/151 173/166/143 172/165/142
f 183/174/151 172/165/142 182/173/150
f 152/149/128 184/175/152 182/173/150
f 152/149/128 182/173/150 147/144/123
f 184/175/152 185/176/153 183/174/151
f 184/175/152 183/174/151 182/173/150
f 185/176/153 175/168/145 173/166/143
f 185/176/153 173/166/143 183/174/151
f 186/177/154 176/169/146 175/168/145
f 186/177/154 175/168/145 185/176/153
f 162/154/133 188/178/155 184/175/152
f 162/154/133 184/175/152 152/149/128
f 188/178/155 190/179/156 185/176/153
f 188/178/155 185/176/153 184/175/152
f 190/179/156 192/180/157 186/177/154
f 190/179/156 186/177/154 185/176/153
f 192/180/157 179/171/148 176/169/146
f 192/180/157 176/169/146 186/177/154
s 0
f 95/86/21 193/181/21 133/182/21
f 95/86/21 133/182/21 35/87/21
s 1
f 96/88/77 194/183/158 193/181/21
f 96/88/77 193/181/21 95/86/76
f 97/89/78 195/184/159 194/183/158
f 97/89/78 194/183/158 96/88/77
f 98/90/79 196/185/160 195/184/159
f 98/90/79 195/184/159 97/89/78
f 99/91/80 197/186/161 196/185/160
f 99/91/80 196/185/160 98/90/79
f 100/92/81 198/187/81 197/186/161
f 100/92/81 197/186/161 99/91/80
f 101/93/81 199/188/162 198/187/81
s 0
f 101/93/81 198/187/81 100/92/81
s 1
f 193/181/21 200/189/163 141/190/164
f 193/181/21 141/190/164 133/182/21
f 194/183/158 201/191/165 200/189/163
f 194/183/158 200/189/163 193/181/21
f 195/184/159 202/192/166 201/191/165
f 195/184/159 201/191/165 194/183/158
f 196/185/160 203/193/167 202/192/166
f 196/185/160 202/192/166 195/184/159
f 197/186/161 204/194/168 203/193/167
f 197/186/161 203/193/167 196/185/160
f 198/187/81 205/195/169 204/194/168
f 198/187/81 204/194/168 197/186/161
f 199/188/162 206/196/170 205/195/169
f 199/188/162 205/195/169 198/187/81
f 200/189/163 207/197/171 153/198/129
f 200/189/163 153/198/129 141/190/164
f 207/197/171 208/199/172 155/200/130
f 207/197/171 155/200/130 153/198/129
f 208/199/172 209/201/173 157/202/174
f 208/199/172 157/202/174 155/200/130
f 209/201/173 210/203/175 159/204/176
f 209/201/173 159/204/176 157/202/174
f 210/203/175 211/205/175 161/206/177
f 210/203/175 161/206/177 159/204/176
f 201/191/165 212/207/178 207/197/171
f 201/191/165 207/197/171 200/189/163
f 212/207/178 213/208/179 208/199/172
f 212/207/178 208/199/172 207/197/171
f 213/208/179 214/209/180 209/201/173
f 213/208/179 209/201/173 208/199/172
f 214/209/180 215/210/181 210/203/175
f 214/209/180 210/203/175 209/201/173
f 215/210/181 216/211/182 211/205/175
f 215/210/181 211/205/175 210/203/175
f 202/192/166 217/212/183 212/207/178
f 202/192/166 212/207/178 201/191/165
f 217/212/183 218/213/184 213/208/179
f 217/212/183 213/208/179 212/207/178
f 203/193/167 218/213/184 217/212/183
f 203/193/167 217/212/183 202/192/166
f 218/213/184 219/214/185 214/209/180
f 218/213/184 214/209/180 213/208/179
f 204/194/168 219/214/185 218/213/184
f 204/194/168 218/213/184 203/193/167
f 219/214/185 220/215/186 215/210/181
f 219/214/185 215/210/181 214/209/180
f 205/195/169 220/215/186 219/214/185
f 205/195/169 219/214/185 204/194/168
f 220/215/186 221/216/187 216/211/182
f 220/215/186 216/211/182 215/210/181
f 206/196/170 221/216/187 220/215/186
f 206/196/170 220/215/186 205/195/169
f 222/217/188 223/218/189 171/162/141
f 222/217/188 171/162/141 169/164/140
f 121/118/101 223/218/189 222/217/188
f 121/118/101 222/217/188 120/119/102
f 223/218/189 121/118/101 71/120/55
f 223/218/189 71/120/55 171/162/141
f 123/121/103 225/219/190 224/220/191
f 123/121/103 224/220/191 122/122/104
f 225/219/190 123/121/103 120/119/102
f 225/219/190 120/119/102 222/217/188
f 124/123/81 226/221/192 199/188/162
f 124/123/81 199/188/162 101/93/81
f 125/124/105 227/222/193 226/221/192
f 125/124/105 226/221/192 124/123/81
f 126/125/106 228/223/194 227/222/193
f 126/125/106 227/222/193 125/124/105
f 228/223/194 126/125/106 122/122/104
f 228/223/194 122/122/104 224/220/191
f 230/224/195 231/225/196 180/226/197
f 230/224/195 180/226/197 178/227/148
f 231/225/196 222/217/188 169/164/140
f 231/225/196 169/164/140 180/226/197
f 232/228/198 233/229/199 230/224/195
f 232/228/198 230/224/195 229/230/200
f 233/229/199 234/231/201 231/225/196
f 233/229/199 231/225/196 230/224/195
f 225/219/190 234/231/201 233/229/199
f 225/219/190 233/229/199 224/220/191
f 234/231/201 225/219/190 222/217/188
f 234/231/201 222/217/188 231/225/196
f 226/221/192 235/232/202 206/196/170
f 226/221/192 206/196/170 199/188/162
f 227/222/193 236/233/203 235/232/202
f 227/222/193 235/232/202 226/221/192
f 236/233/203 237/234/204 233/229/199
f 236/233/203 233/229/199 232/228/198
f 228/223/194 237/234/204 236/233/203
f 228/223/194 236/233/203 227/222/193
f 237/234/204 228/223/194 224/220/191
f 237/234/204 224/220/191 233/229/199
f 211/205/175 238/235/205 187/236/155
f 211/205/175 187/236/155 161/206/177
f 238/235/205 239/237/206 189/238/156
f 238/235/205 189/238/156 187/236/155
f 239/237/206 240/239/207 191/240/157
f 239/237/206 191/240/157 189/238/156
f 230/224/195 240/239/207 239/237/206
f 230/224/195 239/237/206 229/230/200
f 240/239/207 230/224/195 178/227/148
f 240/239/207 178/227/148 191/240/157
f 216/211/182 241/241/208 238/235/205
f 216/211/182 238/235/205 211/205/175
f 241/241/208 242/242/209 239/237/206
f 241/241/208 239/237/206 238/235/205
f 242/242/209 232/228/198 229/230/200
f 242/242/209 229/230/200 239/237/206
f 221/216/187 243/243/210 241/241/208
f 221/216/187 241/241/208 216/211/182
f 235/232/202 243/243/210 221/216/187
f 235/232/202 221/216/187 206/196/170
f 243/243/210 244/244/211 242/242/209
f 243/243/210 242/242/209 241/241/208
f 236/233/203 244/244/211 243/243/210
f 236/233/203 243/243/210 235/232/202
f 244/244/211 236/233/203 232/228/198
f 244/244/211 232/228/198 242/242/209
