# Blender 4.5.4 LTS
# www.blender.org
mtllib tree2_leaves.mtl
o Tree_winding_01_Material_0
v -0.809929 4.875735 2.768041
v -0.748587 4.757795 2.604033
v -0.376344 4.864458 2.909553
v -0.145344 4.913030 1.107546
v -0.596445 5.070156 0.980312
v -0.169160 4.974288 0.507484
v -0.145344 4.913030 1.107546
v -0.169160 4.974288 0.507484
v 0.326849 4.880396 0.818448
v -0.145344 4.913030 1.107546
v 0.326849 4.880396 0.818448
v 0.213267 4.925206 1.479410
v -0.809929 4.875735 2.768041
v -0.376344 4.864458 2.909553
v -0.521749 5.097906 2.978277
v -1.727800 4.919029 0.692762
v -1.723184 4.891224 1.234788
v -1.824123 5.070358 0.822089
v 1.525622 4.118714 0.188914
v 1.256632 4.276023 -0.207974
v 1.603288 4.153804 -0.222755
v 1.004619 4.203321 2.440700
v 1.373143 4.433370 1.946634
v 1.481213 4.464547 2.202748
v -0.809929 4.875735 2.768041
v -0.521749 5.097906 2.978277
v -0.999708 5.183835 2.586992
v -1.727800 4.919029 0.692762
v -1.824123 5.070358 0.822089
v -1.688079 5.136874 0.134677
v -0.304105 4.390991 -1.021844
v -0.544841 4.206576 -1.185016
v 0.067797 4.524912 -1.274227
v 1.525622 4.118714 0.188914
v 1.603288 4.153804 -0.222755
v 1.808183 3.906434 0.387384
v 1.004619 4.203321 2.440700
v 1.481213 4.464547 2.202748
v 0.911111 4.253443 2.720750
v 1.134353 4.406875 -1.077626
v 0.691373 4.614682 -1.354208
v 1.062386 5.096386 -1.161734
v 2.030509 4.901328 0.822508
v 1.985871 4.922306 0.326900
v 1.826577 5.413016 0.659655
v 1.864511 5.190133 1.223745
v 2.030509 4.901328 0.822508
v 1.826577 5.413016 0.659655
v 1.826577 5.413016 0.659655
v 1.985871 4.922306 0.326900
v 1.672820 5.432994 -0.052049
v 1.985871 4.922306 0.326900
v 1.807842 4.838416 -0.356346
v 1.672820 5.432994 -0.052049
v 1.672820 5.432994 -0.052049
v 1.807842 4.838416 -0.356346
v 1.383011 5.358561 -0.671169
v 1.807842 4.838416 -0.356346
v 1.492434 4.575387 -0.786305
v 1.383011 5.358561 -0.671169
v 1.383011 5.358561 -0.671169
v 1.492434 4.575387 -0.786305
v 1.062386 5.096386 -1.161734
v 1.492434 4.575387 -0.786305
v 1.134353 4.406875 -1.077626
v 1.062386 5.096386 -1.161734
v 0.893560 4.837297 2.826883
v 1.225468 5.241449 2.394297
v 0.738939 5.484578 2.714101
v 0.911111 4.253443 2.720750
v 1.436085 4.681267 2.406553
v 0.893560 4.837297 2.826883
v 0.893560 4.837297 2.826883
v 1.436085 4.681267 2.406553
v 1.225468 5.241449 2.394297
v 1.436085 4.681267 2.406553
v 1.724202 4.909487 1.859832
v 1.225468 5.241449 2.394297
v 0.911111 4.253443 2.720750
v 1.481213 4.464547 2.202748
v 1.436085 4.681267 2.406553
v 1.481213 4.464547 2.202748
v 1.783507 4.340672 1.900821
v 1.436085 4.681267 2.406553
v 1.724202 4.909487 1.859832
v 1.963805 4.555827 1.406498
v 1.864511 5.190133 1.223745
v 1.963805 4.555827 1.406498
v 2.030509 4.901328 0.822508
v 1.864511 5.190133 1.223745
v 2.027835 3.913079 0.632849
v 2.051498 4.363331 0.097725
v 2.127537 4.324721 0.723456
v 1.808183 3.906434 0.387384
v 1.877651 4.181709 -0.115024
v 2.027835 3.913079 0.632849
v 2.027835 3.913079 0.632849
v 1.877651 4.181709 -0.115024
v 2.051498 4.363331 0.097725
v 1.877651 4.181709 -0.115024
v 1.723299 4.232103 -0.449788
v 2.051498 4.363331 0.097725
v 1.808183 3.906434 0.387384
v 1.603288 4.153804 -0.222755
v 1.877651 4.181709 -0.115024
v 1.603288 4.153804 -0.222755
v 1.539794 3.879068 -0.546509
v 1.877651 4.181709 -0.115024
v 1.877651 4.181709 -0.115024
v 1.539794 3.879068 -0.546509
v 1.723299 4.232103 -0.449788
v 1.539794 3.879068 -0.546509
v 1.348577 3.952699 -0.756959
v 1.723299 4.232103 -0.449788
v 0.880961 3.952758 -1.117201
v 0.691373 4.614682 -1.354208
v 1.134353 4.406875 -1.077626
v 0.463778 4.113409 -1.277591
v 0.289396 4.404262 -1.473911
v 0.880961 3.952758 -1.117201
v 0.067797 4.524912 -1.274227
v -0.149229 4.549870 -1.475901
v 0.463778 4.113409 -1.277591
v 0.880961 3.952758 -1.117201
v 0.289396 4.404262 -1.473911
v 0.691373 4.614682 -1.354208
v 0.463778 4.113409 -1.277591
v -0.149229 4.549870 -1.475901
v 0.289396 4.404262 -1.473911
v -0.149229 4.549870 -1.475901
v -0.341634 4.868673 -1.470102
v 0.289396 4.404262 -1.473911
v 0.067797 4.524912 -1.274227
v -0.544841 4.206576 -1.185016
v -0.149229 4.549870 -1.475901
v -0.544841 4.206576 -1.185016
v -0.770595 4.477382 -1.213124
v -0.149229 4.549870 -1.475901
v -0.149229 4.549870 -1.475901
v -0.770595 4.477382 -1.213124
v -0.341634 4.868673 -1.470102
v -0.770595 4.477382 -1.213124
v -0.838440 5.046307 -1.163585
v -0.341634 4.868673 -1.470102
v 1.481213 4.464547 2.202748
v 1.730577 4.039580 1.710792
v 1.783507 4.340672 1.900821
v 2.010513 3.961581 1.299013
v 2.027835 3.913079 0.632849
v 2.127537 4.324721 0.723456
v 1.783507 4.340672 1.900821
v 1.730577 4.039580 1.710792
v 2.010513 3.961581 1.299013
v 1.730577 4.039580 1.710792
v 1.856754 3.765374 1.065251
v 2.010513 3.961581 1.299013
v 2.010513 3.961581 1.299013
v 1.856754 3.765374 1.065251
v 2.027835 3.913079 0.632849
v 1.856754 3.765374 1.065251
v 1.808183 3.906434 0.387384
v 2.027835 3.913079 0.632849
v 1.481213 4.464547 2.202748
v 1.373143 4.433370 1.946634
v 1.730577 4.039580 1.710792
v 1.373143 4.433370 1.946634
v 1.521202 3.996482 1.400521
v 1.730577 4.039580 1.710792
v 1.730577 4.039580 1.710792
v 1.521202 3.996482 1.400521
v 1.856754 3.765374 1.065251
v 1.521202 3.996482 1.400521
v 1.585421 3.925787 0.769370
v 1.856754 3.765374 1.065251
v 1.856754 3.765374 1.065251
v 1.585421 3.925787 0.769370
v 1.808183 3.906434 0.387384
v 1.585421 3.925787 0.769370
v 1.525622 4.118714 0.188914
v 1.808183 3.906434 0.387384
v 1.539794 3.879068 -0.546509
v 1.055138 3.752079 -0.865862
v 1.348577 3.952699 -0.756959
v 1.603288 4.153804 -0.222755
v 1.215453 3.834830 -0.572370
v 1.539794 3.879068 -0.546509
v 1.348577 3.952699 -0.756959
v 1.055138 3.752079 -0.865862
v 0.880961 3.952758 -1.117201
v 1.055138 3.752079 -0.865862
v 0.463778 4.113409 -1.277591
v 0.880961 3.952758 -1.117201
v 1.539794 3.879068 -0.546509
v 1.215453 3.834830 -0.572370
v 1.055138 3.752079 -0.865862
v 1.215453 3.834830 -0.572370
v 0.661123 4.029549 -0.969395
v 1.055138 3.752079 -0.865862
v 1.055138 3.752079 -0.865862
v 0.661123 4.029549 -0.969395
v 0.463778 4.113409 -1.277591
v 0.661123 4.029549 -0.969395
v 0.067797 4.524912 -1.274227
v 0.463778 4.113409 -1.277591
v 1.603288 4.153804 -0.222755
v 1.256632 4.276023 -0.207974
v 1.215453 3.834830 -0.572370
v 1.256632 4.276023 -0.207974
v 0.776919 4.279887 -0.613119
v 1.215453 3.834830 -0.572370
v 1.215453 3.834830 -0.572370
v 0.776919 4.279887 -0.613119
v 0.661123 4.029549 -0.969395
v 0.776919 4.279887 -0.613119
v 0.258284 4.559454 -0.936947
v 0.661123 4.029549 -0.969395
v 0.661123 4.029549 -0.969395
v 0.258284 4.559454 -0.936947
v 0.067797 4.524912 -1.274227
v 0.258284 4.559454 -0.936947
v -0.304105 4.390991 -1.021844
v 0.067797 4.524912 -1.274227
v -0.770595 4.477382 -1.213124
v -1.235801 4.782701 -0.817841
v -0.838440 5.046307 -1.163585
v -0.544841 4.206576 -1.185016
v -1.080423 4.478810 -0.838009
v -0.770595 4.477382 -1.213124
v -0.770595 4.477382 -1.213124
v -1.080423 4.478810 -0.838009
v -1.235801 4.782701 -0.817841
v -1.080423 4.478810 -0.838009
v -1.464322 4.832084 -0.382166
v -1.235801 4.782701 -0.817841
v -0.544841 4.206576 -1.185016
v -1.210297 4.709662 -0.368532
v -1.080423 4.478810 -0.838009
v -1.080423 4.478810 -0.838009
v -1.210297 4.709662 -0.368532
v -1.464322 4.832084 -0.382166
v -1.210297 4.709662 -0.368532
v -1.514347 5.058715 0.094766
v -1.464322 4.832084 -0.382166
v -1.464322 4.832084 -0.382166
v -1.514347 5.058715 0.094766
v -1.688079 5.136874 0.134677
v -1.514347 5.058715 0.094766
v -1.727800 4.919029 0.692762
v -1.688079 5.136874 0.134677
v 0.289396 4.404262 -1.473911
v -0.341634 4.868673 -1.470102
v 0.246851 4.499780 -1.439213
v 1.062386 5.096386 -1.161734
v 0.691373 4.614682 -1.354208
v 1.014610 5.173738 -1.138787
v 1.724202 4.909487 1.859832
v 1.864511 5.190133 1.223745
v 1.700238 4.924021 1.892510
v 1.383011 5.358561 -0.671169
v 1.014610 5.173738 -1.138787
v 1.410792 5.295363 -0.716286
v -1.824123 5.070358 0.822089
v -1.723184 4.891224 1.234788
v -1.737279 5.071765 1.506445
v -1.723184 4.891224 1.234788
v -1.523502 4.904385 1.849981
v -1.737279 5.071765 1.506445
v -1.737279 5.071765 1.506445
v -1.523502 4.904385 1.849981
v -1.444370 5.164917 2.231064
v -1.523502 4.904385 1.849981
v -1.147268 5.020844 2.404536
v -1.444370 5.164917 2.231064
v -1.444370 5.164917 2.231064
v -1.147268 5.020844 2.404536
v -0.999708 5.183835 2.586992
v -1.147268 5.020844 2.404536
v -0.809929 4.875735 2.768041
v -0.999708 5.183835 2.586992
v 0.396463 5.140682 3.062834
v 0.893560 4.837297 2.826883
v 0.738939 5.484578 2.714101
v 0.396463 5.140682 3.062834
v 0.738939 5.484578 2.714101
v 0.367253 5.133240 2.987294
v -0.027655 4.875936 3.122990
v 0.343656 4.326570 2.965386
v 0.396463 5.140682 3.062834
v 0.396463 5.140682 3.062834
v 0.343656 4.326570 2.965386
v 0.893560 4.837297 2.826883
v 0.343656 4.326570 2.965386
v 0.911111 4.253443 2.720750
v 0.893560 4.837297 2.826883
v -0.521749 5.097906 2.978277
v -0.376344 4.864458 2.909553
v -0.027655 4.875936 3.122990
v -0.376344 4.864458 2.909553
v 0.004521 4.341475 2.934681
v -0.027655 4.875936 3.122990
v -0.027655 4.875936 3.122990
v 0.004521 4.341475 2.934681
v 0.343656 4.326570 2.965386
v 0.004521 4.341475 2.934681
v 0.457610 4.037915 2.766989
v 0.343656 4.326570 2.965386
v 0.343656 4.326570 2.965386
v 0.457610 4.037915 2.766989
v 0.911111 4.253443 2.720750
v 0.457610 4.037915 2.766989
v 1.004619 4.203321 2.440700
v 0.911111 4.253443 2.720750
v 0.457610 4.037915 2.766989
v 1.373143 4.433370 1.946634
v 1.004619 4.203321 2.440700
v 0.567744 4.701050 1.917628
v 1.108202 4.573804 1.630494
v 0.457610 4.037915 2.766989
v 0.213267 4.925206 1.479410
v 0.736666 4.803623 1.209791
v 0.567744 4.701050 1.917628
v 0.457610 4.037915 2.766989
v 1.108202 4.573804 1.630494
v 1.373143 4.433370 1.946634
v 1.108202 4.573804 1.630494
v 1.521202 3.996482 1.400521
v 1.373143 4.433370 1.946634
v 0.567744 4.701050 1.917628
v 0.736666 4.803623 1.209791
v 1.108202 4.573804 1.630494
v 0.736666 4.803623 1.209791
v 1.219765 4.328108 0.982841
v 1.108202 4.573804 1.630494
v 1.108202 4.573804 1.630494
v 1.219765 4.328108 0.982841
v 1.521202 3.996482 1.400521
v 1.219765 4.328108 0.982841
v 1.585421 3.925787 0.769370
v 1.521202 3.996482 1.400521
v 0.213267 4.925206 1.479410
v 0.326849 4.880396 0.818448
v 0.736666 4.803623 1.209791
v 0.326849 4.880396 0.818448
v 0.821014 4.687469 0.551156
v 0.736666 4.803623 1.209791
v 0.736666 4.803623 1.209791
v 0.821014 4.687469 0.551156
v 1.219765 4.328108 0.982841
v 0.821014 4.687469 0.551156
v 1.250816 4.337782 0.348538
v 1.219765 4.328108 0.982841
v 1.219765 4.328108 0.982841
v 1.250816 4.337782 0.348538
v 1.585421 3.925787 0.769370
v 1.250816 4.337782 0.348538
v 1.525622 4.118714 0.188914
v 1.585421 3.925787 0.769370
v 1.250816 4.337782 0.348538
v 1.256632 4.276023 -0.207974
v 1.525622 4.118714 0.188914
v 0.821014 4.687469 0.551156
v 0.846366 4.701345 -0.117345
v 1.250816 4.337782 0.348538
v 0.326849 4.880396 0.818448
v 0.321923 4.866611 0.171107
v 0.821014 4.687469 0.551156
v 1.250816 4.337782 0.348538
v 0.846366 4.701345 -0.117345
v 1.256632 4.276023 -0.207974
v 0.846366 4.701345 -0.117345
v 0.776919 4.279887 -0.613119
v 1.256632 4.276023 -0.207974
v 0.821014 4.687469 0.551156
v 0.321923 4.866611 0.171107
v 0.846366 4.701345 -0.117345
v 0.321923 4.866611 0.171107
v 0.288152 4.830728 -0.505014
v 0.846366 4.701345 -0.117345
v 0.846366 4.701345 -0.117345
v 0.288152 4.830728 -0.505014
v 0.776919 4.279887 -0.613119
v 0.288152 4.830728 -0.505014
v 0.258284 4.559454 -0.936947
v 0.776919 4.279887 -0.613119
v 0.326849 4.880396 0.818448
v -0.169160 4.974288 0.507484
v 0.321923 4.866611 0.171107
v -0.169160 4.974288 0.507484
v -0.240417 4.879310 -0.107611
v 0.321923 4.866611 0.171107
v 0.321923 4.866611 0.171107
v -0.240417 4.879310 -0.107611
v 0.288152 4.830728 -0.505014
v -0.240417 4.879310 -0.107611
v -0.280286 4.691077 -0.638798
v 0.288152 4.830728 -0.505014
v 0.288152 4.830728 -0.505014
v -0.280286 4.691077 -0.638798
v 0.258284 4.559454 -0.936947
v -0.280286 4.691077 -0.638798
v -0.304105 4.390991 -1.021844
v 0.258284 4.559454 -0.936947
v -0.280286 4.691077 -0.638798
v -0.544841 4.206576 -1.185016
v -0.304105 4.390991 -1.021844
v -0.240417 4.879310 -0.107611
v -0.772105 4.789102 -0.282928
v -0.280286 4.691077 -0.638798
v -0.169160 4.974288 0.507484
v -0.689490 5.078462 0.317547
v -0.240417 4.879310 -0.107611
v -0.280286 4.691077 -0.638798
v -0.772105 4.789102 -0.282928
v -0.544841 4.206576 -1.185016
v -0.772105 4.789102 -0.282928
v -1.210297 4.709662 -0.368532
v -0.544841 4.206576 -1.185016
v -0.240417 4.879310 -0.107611
v -0.689490 5.078462 0.317547
v -0.772105 4.789102 -0.282928
v -0.689490 5.078462 0.317547
v -1.189169 5.071089 0.171773
v -0.772105 4.789102 -0.282928
v -0.772105 4.789102 -0.282928
v -1.189169 5.071089 0.171773
v -1.210297 4.709662 -0.368532
v -1.189169 5.071089 0.171773
v -1.514347 5.058715 0.094766
v -1.210297 4.709662 -0.368532
v -0.169160 4.974288 0.507484
v -0.596445 5.070156 0.980312
v -0.689490 5.078462 0.317547
v -0.596445 5.070156 0.980312
v -1.121636 5.000714 0.860533
v -0.689490 5.078462 0.317547
v -0.689490 5.078462 0.317547
v -1.121636 5.000714 0.860533
v -1.189169 5.071089 0.171773
v -1.121636 5.000714 0.860533
v -1.727800 4.919029 0.692762
v -1.189169 5.071089 0.171773
v -1.189169 5.071089 0.171773
v -1.727800 4.919029 0.692762
v -1.514347 5.058715 0.094766
v 0.004521 4.341475 2.934681
v 0.221962 4.367390 2.511494
v 0.457610 4.037915 2.766989
v -0.376344 4.864458 2.909553
v -0.217336 4.827269 2.598215
v 0.004521 4.341475 2.934681
v 0.221962 4.367390 2.511494
v 0.567744 4.701050 1.917628
v 0.457610 4.037915 2.766989
v 0.004521 4.341475 2.934681
v -0.217336 4.827269 2.598215
v 0.221962 4.367390 2.511494
v -0.217336 4.827269 2.598215
v 0.015142 4.889824 2.097323
v 0.221962 4.367390 2.511494
v 0.221962 4.367390 2.511494
v 0.015142 4.889824 2.097323
v 0.567744 4.701050 1.917628
v 0.015142 4.889824 2.097323
v 0.213267 4.925206 1.479410
v 0.567744 4.701050 1.917628
v -0.376344 4.864458 2.909553
v -0.748587 4.757795 2.604033
v -0.217336 4.827269 2.598215
v -0.748587 4.757795 2.604033
v -0.590533 4.773755 2.201618
v -0.217336 4.827269 2.598215
v -0.217336 4.827269 2.598215
v -0.590533 4.773755 2.201618
v 0.015142 4.889824 2.097323
v -0.590533 4.773755 2.201618
v -0.145344 4.913030 1.107546
v 0.015142 4.889824 2.097323
v 0.015142 4.889824 2.097323
v -0.145344 4.913030 1.107546
v 0.213267 4.925206 1.479410
v -1.121636 5.000714 0.860533
v -1.404905 4.905861 1.440001
v -1.727800 4.919029 0.692762
v -0.596445 5.070156 0.980312
v -1.079020 4.980825 2.006184
v -1.121636 5.000714 0.860533
v -1.727800 4.919029 0.692762
v -1.404905 4.905861 1.440001
v -1.723184 4.891224 1.234788
v -1.404905 4.905861 1.440001
v -1.523502 4.904385 1.849981
v -1.723184 4.891224 1.234788
v -1.121636 5.000714 0.860533
v -1.079020 4.980825 2.006184
v -1.404905 4.905861 1.440001
v -1.404905 4.905861 1.440001
v -1.079020 4.980825 2.006184
v -1.523502 4.904385 1.849981
v -1.079020 4.980825 2.006184
v -1.147268 5.020844 2.404536
v -1.523502 4.904385 1.849981
v -0.596445 5.070156 0.980312
v -0.145344 4.913030 1.107546
v -1.079020 4.980825 2.006184
v -0.145344 4.913030 1.107546
v -0.590533 4.773755 2.201618
v -1.079020 4.980825 2.006184
v -0.590533 4.773755 2.201618
v -0.748587 4.757795 2.604033
v -1.079020 4.980825 2.006184
v -1.079020 4.980825 2.006184
v -0.748587 4.757795 2.604033
v -1.147268 5.020844 2.404536
v -0.748587 4.757795 2.604033
v -0.809929 4.875735 2.768041
v -1.147268 5.020844 2.404536
v -1.817159 5.717457 1.697835
v -1.436616 5.723760 2.254593
v -1.367166 6.186339 1.673496
v -1.665852 6.130144 0.697035
v -1.817159 5.717457 1.697835
v -1.367166 6.186339 1.673496
v -1.947432 5.568098 1.091816
v -1.817159 5.717457 1.697835
v -1.665852 6.130144 0.697035
v 0.136115 5.894770 2.998539
v 0.373334 6.149151 2.776303
v -0.100967 6.427024 2.620421
v -0.676450 6.146556 2.880496
v 0.136115 5.894770 2.998539
v -0.100967 6.427024 2.620421
v -0.309880 5.519709 3.262467
v 0.136115 5.894770 2.998539
v -0.676450 6.146556 2.880496
v -0.898236 5.668254 2.911596
v -0.309880 5.519709 3.262467
v -0.676450 6.146556 2.880496
v -0.898236 5.668254 2.911596
v -0.676450 6.146556 2.880496
v -1.206795 6.268207 2.248003
v -1.436616 5.723760 2.254593
v -0.898236 5.668254 2.911596
v -1.206795 6.268207 2.248003
v -1.436616 5.723760 2.254593
v -1.206795 6.268207 2.248003
v -1.367166 6.186339 1.673496
v -1.947432 5.568098 1.091816
v -1.665852 6.130144 0.697035
v -1.685901 6.041913 0.413766
v -1.930545 5.479795 0.292962
v -1.947432 5.568098 1.091816
v -1.685901 6.041913 0.413766
v -1.930545 5.479795 0.292962
v -1.685901 6.041913 0.413766
v -1.467280 5.790533 -0.433801
v -1.685089 5.186241 -0.508133
v -1.930545 5.479795 0.292962
v -1.467280 5.790533 -0.433801
v -1.318761 5.456086 -0.924446
v -1.467280 5.790533 -0.433801
v -0.816088 6.084522 -0.932867
v -1.685089 5.186241 -0.508133
v -1.467280 5.790533 -0.433801
v -1.318761 5.456086 -0.924446
v -1.318761 5.456086 -0.924446
v -0.816088 6.084522 -0.932867
v -0.797036 5.711129 -1.276471
v -0.100967 6.427024 2.620421
v 0.373334 6.149151 2.776303
v 0.299491 6.504820 2.475120
v -0.670176 7.148468 1.516757
v -0.613358 6.779577 2.222215
v -0.286010 6.999431 2.135244
v -1.255060 6.833483 1.556749
v -0.613358 6.779577 2.222215
v -0.670176 7.148468 1.516757
v -0.978799 7.078523 0.763162
v -1.255060 6.833483 1.556749
v -0.670176 7.148468 1.516757
v 0.146236 7.212825 1.128511
v -0.286010 6.999431 2.135244
v 0.462517 6.937322 1.881484
v -0.670176 7.148468 1.516757
v -0.286010 6.999431 2.135244
v 0.146236 7.212825 1.128511
v 0.146236 7.212825 1.128511
v 0.462517 6.937322 1.881484
v 0.714487 7.060960 0.715461
v 0.271697 7.169109 0.659066
v 0.146236 7.212825 1.128511
v 0.714487 7.060960 0.715461
v 0.271697 7.169109 0.659066
v 0.714487 7.060960 0.715461
v 0.823575 6.975946 0.275902
v -1.297682 6.719941 0.267916
v -1.386515 6.711880 1.309997
v -0.978799 7.078523 0.763162
v -0.712498 7.003497 0.033819
v -1.297682 6.719941 0.267916
v -0.978799 7.078523 0.763162
v -1.347437 6.544118 -0.161273
v -1.297682 6.719941 0.267916
v -0.712498 7.003497 0.033819
v -0.639392 6.740034 -0.674232
v -1.347437 6.544118 -0.161273
v -0.712498 7.003497 0.033819
v -0.639392 6.740034 -0.674232
v -0.712498 7.003497 0.033819
v -0.144418 7.094047 -0.232645
v 0.420425 6.693921 -0.868608
v -0.639392 6.740034 -0.674232
v -0.144418 7.094047 -0.232645
v 0.713842 6.940676 -0.159076
v -0.144418 7.094047 -0.232645
v 0.271697 7.169109 0.659066
v 0.420425 6.693921 -0.868608
v -0.144418 7.094047 -0.232645
v 0.713842 6.940676 -0.159076
v 0.713842 6.940676 -0.159076
v 0.271697 7.169109 0.659066
v 0.823575 6.975946 0.275902
v -1.386515 6.711880 1.309997
v -1.255060 6.833483 1.556749
v -0.978799 7.078523 0.763162
v -0.371365 5.559437 -1.603405
v -0.797036 5.711129 -1.276471
v -0.402881 6.163442 -1.209378
v 0.145765 5.964782 -1.481233
v -0.371365 5.559437 -1.603405
v -0.402881 6.163442 -1.209378
v 0.176289 5.255095 -1.784923
v -0.371365 5.559437 -1.603405
v 0.145765 5.964782 -1.481233
v 0.655384 5.617786 -1.560050
v 0.176289 5.255095 -1.784923
v 0.145765 5.964782 -1.481233
v 0.655384 5.617786 -1.560050
v 0.145765 5.964782 -1.481233
v 0.504828 6.324272 -1.092530
v 1.200220 5.892326 -0.885766
v 0.655384 5.617786 -1.560050
v 0.504828 6.324272 -1.092530
v 1.200220 5.892326 -0.885766
v 0.504828 6.324272 -1.092530
v 1.049481 6.453852 -0.272956
v 1.438267 6.085497 -0.229637
v 1.200220 5.892326 -0.885766
v 1.049481 6.453852 -0.272956
v 1.178817 6.542111 0.665280
v 1.438267 6.085497 -0.229637
v 1.049481 6.453852 -0.272956
v 1.669189 6.046279 0.303267
v 1.438267 6.085497 -0.229637
v 1.178817 6.542111 0.665280
v 1.167697 6.300833 1.762791
v 1.604344 5.692437 1.915497
v 1.637471 5.980013 1.439041
v 1.104804 5.988828 2.453698
v 1.604344 5.692437 1.915497
v 1.167697 6.300833 1.762791
v 0.299491 6.504820 2.475120
v 1.104804 5.988828 2.453698
v 1.167697 6.300833 1.762791
v 1.123680 6.486690 1.354167
v 1.637471 5.980013 1.439041
v 1.669189 6.046279 0.303267
v 1.167697 6.300833 1.762791
v 1.637471 5.980013 1.439041
v 1.123680 6.486690 1.354167
v 1.123680 6.486690 1.354167
v 1.669189 6.046279 0.303267
v 1.178817 6.542111 0.665280
v 0.373334 6.149151 2.776303
v 1.104804 5.988828 2.453698
v 0.299491 6.504820 2.475120
v -0.797036 5.711129 -1.276471
v -0.816088 6.084522 -0.932867
v -0.402881 6.163442 -1.209378
v -1.737279 5.071765 1.506445
v -1.444370 5.164917 2.231064
v -1.820775 5.103139 1.562327
v 1.531187 5.851409 1.327997
v 1.990148 5.370073 0.483724
v 1.583184 5.924316 0.591052
v 1.494700 5.572279 1.797692
v 1.933530 5.226611 1.235235
v 1.531187 5.851409 1.327997
v 1.531187 5.851409 1.327997
v 1.933530 5.226611 1.235235
v 1.990148 5.370073 0.483724
v 1.990148 5.370073 0.483724
v 1.791327 5.439008 -0.085488
v 1.583184 5.924316 0.591052
v 0.651617 6.964199 0.963320
v 1.219018 6.627505 0.236649
v 0.780797 6.899854 0.211658
v 1.583184 5.924316 0.591052
v 1.791327 5.439008 -0.085488
v 1.269900 5.959856 -0.313067
v 1.791327 5.439008 -0.085488
v 1.451107 5.354455 -0.733029
v 1.269900 5.959856 -0.313067
v 1.269900 5.959856 -0.313067
v 1.451107 5.354455 -0.733029
v 1.054831 5.810251 -0.810538
v 1.451107 5.354455 -0.733029
v 1.047492 5.246591 -1.226649
v 1.054831 5.810251 -0.810538
v 0.576133 6.845404 1.645497
v 1.100898 6.612546 1.459032
v 0.651617 6.964199 0.963320
v 0.482180 6.570299 2.382271
v 1.131650 6.380623 1.906804
v 0.576133 6.845404 1.645497
v 1.047492 5.246591 -1.226649
v 0.594959 5.542300 -1.391030
v 1.054831 5.810251 -0.810538
v 0.651617 6.964199 0.963320
v 1.100898 6.612546 1.459032
v 1.219018 6.627505 0.236649
v 0.576133 6.845404 1.645497
v 1.131650 6.380623 1.906804
v 1.100898 6.612546 1.459032
v 1.219018 6.627505 0.236649
v 1.169585 6.546245 -0.172202
v 0.780797 6.899854 0.211658
v 1.169585 6.546245 -0.172202
v 0.509902 6.855215 -0.362114
v 0.780797 6.899854 0.211658
v 1.169585 6.546245 -0.172202
v 0.787693 6.360537 -0.999971
v 0.509902 6.855215 -0.362114
v 0.787693 6.360537 -0.999971
v 0.012560 6.617227 -1.001767
v 0.509902 6.855215 -0.362114
v 1.047492 5.246591 -1.226649
v 0.727228 4.646227 -1.493781
v 0.594959 5.542300 -1.391030
v 0.727228 4.646227 -1.493781
v 0.103092 5.175554 -1.634311
v 0.594959 5.542300 -1.391030
v 0.787693 6.360537 -0.999971
v 0.238827 6.022630 -1.527737
v 0.012560 6.617227 -1.001767
v 0.238827 6.022630 -1.527737
v -0.232785 6.211057 -1.307184
v 0.012560 6.617227 -1.001767
v -0.232785 6.211057 -1.307184
v -0.738415 6.655030 -0.623989
v 0.012560 6.617227 -1.001767
v 0.142559 7.155829 -0.109114
v -0.385303 7.358800 0.767366
v 0.288065 7.269754 0.736140
v 0.142559 7.155829 -0.109114
v -0.665676 7.111683 0.051292
v -0.385303 7.358800 0.767366
v -0.665676 7.111683 0.051292
v -1.034865 7.136080 0.864900
v -0.385303 7.358800 0.767366
v -0.232785 6.211057 -1.307184
v -0.968928 6.154481 -0.930116
v -0.738415 6.655030 -0.623989
v -0.968928 6.154481 -0.930116
v -1.063132 6.464864 -0.376371
v -0.738415 6.655030 -0.623989
v -0.385303 7.358800 0.767366
v 0.171032 7.313423 1.200966
v 0.288065 7.269754 0.736140
v -1.034865 7.136080 0.864900
v -0.777597 7.224252 1.406006
v -0.385303 7.358800 0.767366
v -0.385303 7.358800 0.767366
v -0.777597 7.224252 1.406006
v 0.171032 7.313423 1.200966
v -0.350365 6.925625 2.242374
v 0.482180 6.570299 2.382271
v 0.576133 6.845404 1.645497
v -0.934287 6.734063 2.272481
v -0.222489 6.536184 2.838764
v -0.350365 6.925625 2.242374
v -0.350365 6.925625 2.242374
v -0.222489 6.536184 2.838764
v 0.482180 6.570299 2.382271
v -1.485384 5.835240 -0.560763
v -1.063132 6.464864 -0.376371
v -0.968928 6.154481 -0.930116
v -1.485384 5.835240 -0.560763
v -1.720774 6.112298 0.315002
v -1.063132 6.464864 -0.376371
v -1.720774 6.112298 0.315002
v -1.278681 6.668554 0.508834
v -1.063132 6.464864 -0.376371
v 0.704410 5.536367 2.809903
v 0.867389 5.882603 2.456678
v 0.409234 6.018855 2.610211
v 0.704410 5.536367 2.809903
v 1.274239 5.269403 2.396745
v 0.867389 5.882603 2.456678
v 1.274239 5.269403 2.396745
v 1.494700 5.572279 1.797692
v 0.867389 5.882603 2.456678
v 1.274239 5.269403 2.396745
v 1.737044 4.965986 1.927303
v 1.494700 5.572279 1.797692
v 1.737044 4.965986 1.927303
v 1.933530 5.226611 1.235235
v 1.494700 5.572279 1.797692
v 0.254664 4.550177 -1.570704
v 0.103092 5.175554 -1.634311
v 0.727228 4.646227 -1.493781
v 0.254664 4.550177 -1.570704
v -0.380143 4.910614 -1.573073
v 0.103092 5.175554 -1.634311
v -0.380143 4.910614 -1.573073
v -0.424939 5.478580 -1.433334
v 0.103092 5.175554 -1.634311
v -0.380143 4.910614 -1.573073
v -0.893044 5.096737 -1.246799
v -0.424939 5.478580 -1.433334
v -0.893044 5.096737 -1.246799
v -0.770632 5.634560 -1.112485
v -0.424939 5.478580 -1.433334
v -1.720774 6.112298 0.315002
v -1.761160 6.227856 0.933507
v -1.278681 6.668554 0.508834
v -1.761160 6.227856 0.933507
v -1.370972 6.631391 1.198348
v -1.278681 6.668554 0.508834
v -1.773379 5.154542 0.100006
v -1.773024 5.404975 0.299488
v -1.527996 5.126361 -0.444350
v -1.451991 6.287045 1.893979
v -1.171317 6.767830 1.718007
v -1.370972 6.631391 1.198348
v -1.451991 6.287045 1.893979
v -1.155413 6.340772 2.426698
v -1.171317 6.767830 1.718007
v -1.155413 6.340772 2.426698
v -0.934287 6.734063 2.272481
v -1.171317 6.767830 1.718007
v -1.155413 6.340772 2.426698
v -0.534962 6.215230 3.021493
v -0.934287 6.734063 2.272481
v -0.534962 6.215230 3.021493
v -0.222489 6.536184 2.838764
v -0.934287 6.734063 2.272481
v -1.761160 6.227856 0.933507
v -1.451991 6.287045 1.893979
v -1.370972 6.631391 1.198348
v -1.773379 5.154542 0.100006
v -1.916486 5.089206 0.842047
v -1.773024 5.404975 0.299488
v -1.916486 5.089206 0.842047
v -1.811531 5.477886 1.014162
v -1.773024 5.404975 0.299488
v -1.058645 5.228693 2.785173
v -0.819979 5.584617 2.794752
v -1.278379 5.669256 2.385179
v -1.058645 5.228693 2.785173
v -0.540873 5.121557 3.134193
v -0.819979 5.584617 2.794752
v -0.540873 5.121557 3.134193
v -0.259697 5.440435 3.185140
v -0.819979 5.584617 2.794752
v -0.893044 5.096737 -1.246799
v -1.181672 5.384748 -0.827280
v -0.770632 5.634560 -1.112485
v -0.893044 5.096737 -1.246799
v -1.296112 4.817048 -0.885545
v -1.181672 5.384748 -0.827280
v -1.296112 4.817048 -0.885545
v -1.527996 5.126361 -0.444350
v -1.181672 5.384748 -0.827280
v -1.296112 4.817048 -0.885545
v -1.557818 4.825344 -0.417328
v -1.527996 5.126361 -0.444350
v -1.557818 4.825344 -0.417328
v -1.773379 5.154542 0.100006
v -1.527996 5.126361 -0.444350
v -1.916486 5.089206 0.842047
v -1.820775 5.103139 1.562327
v -1.811531 5.477886 1.014162
v -1.811531 5.477886 1.014162
v -1.820775 5.103139 1.562327
v -1.598486 5.594421 1.644139
v -1.820775 5.103139 1.562327
v -1.444370 5.164917 2.231064
v -1.598486 5.594421 1.644139
v -1.598486 5.594421 1.644139
v -1.444370 5.164917 2.231064
v -1.278379 5.669256 2.385179
v -1.444370 5.164917 2.231064
v -1.058645 5.228693 2.785173
v -1.278379 5.669256 2.385179
v 0.141587 5.799435 2.948550
v 0.704410 5.536367 2.809903
v 0.409234 6.018855 2.610211
v -0.259697 5.440435 3.185140
v 0.419420 5.190994 3.126868
v 0.141587 5.799435 2.948550
v -0.540873 5.121557 3.134193
v -0.022373 4.891070 3.240413
v -0.259697 5.440435 3.185140
v 0.141587 5.799435 2.948550
v 0.419420 5.190994 3.126868
v 0.704410 5.536367 2.809903
v -0.259697 5.440435 3.185140
v -0.022373 4.891070 3.240413
v 0.419420 5.190994 3.126868
v 1.436085 4.681267 2.406553
v 1.783507 4.340672 1.900821
v 1.724202 4.909487 1.859832
v 1.783507 4.340672 1.900821
v 1.963805 4.555827 1.406498
v 1.724202 4.909487 1.859832
v 2.127537 4.324721 0.723456
v 1.985871 4.922306 0.326900
v 2.030509 4.901328 0.822508
v 2.127537 4.324721 0.723456
v 2.051498 4.363331 0.097725
v 1.985871 4.922306 0.326900
v 2.051498 4.363331 0.097725
v 1.807842 4.838416 -0.356346
v 1.985871 4.922306 0.326900
v 2.051498 4.363331 0.097725
v 1.723299 4.232103 -0.449788
v 1.807842 4.838416 -0.356346
v 1.723299 4.232103 -0.449788
v 1.492434 4.575387 -0.786305
v 1.807842 4.838416 -0.356346
v 1.723299 4.232103 -0.449788
v 1.348577 3.952699 -0.756959
v 1.492434 4.575387 -0.786305
v 1.348577 3.952699 -0.756959
v 1.134353 4.406875 -1.077626
v 1.492434 4.575387 -0.786305
v 1.963805 4.555827 1.406498
v 2.127537 4.324721 0.723456
v 2.030509 4.901328 0.822508
v 1.783507 4.340672 1.900821
v 2.010513 3.961581 1.299013
v 1.963805 4.555827 1.406498
v 1.963805 4.555827 1.406498
v 2.010513 3.961581 1.299013
v 2.127537 4.324721 0.723456
v 1.348577 3.952699 -0.756959
v 0.880961 3.952758 -1.117201
v 1.134353 4.406875 -1.077626
v 1.672820 5.432994 -0.052049
v 1.383011 5.358561 -0.671169
v 1.410792 5.295363 -0.716286
v -0.027655 4.875936 3.122990
v 0.396463 5.140682 3.062834
v 0.367253 5.133240 2.987294
v 1.225468 5.241449 2.394297
v 1.724202 4.909487 1.859832
v 1.700238 4.924021 1.892510
v 1.383011 5.358561 -0.671169
v 1.062386 5.096386 -1.161734
v 1.014610 5.173738 -1.138787
v 0.289396 4.404262 -1.473911
v 0.246851 4.499780 -1.439213
v 0.691373 4.614682 -1.354208
v -1.444370 5.164917 2.231064
v -0.999708 5.183835 2.586992
v -1.058645 5.228693 2.785173
v 0.288065 7.269754 0.736140
v 0.171032 7.313423 1.200966
v 0.146236 7.212825 1.128511
v 0.271697 7.169109 0.659066
v -0.777597 7.224252 1.406006
v -1.034865 7.136080 0.864900
v -0.978799 7.078523 0.763162
v -0.670176 7.148468 1.516757
v 0.171032 7.313423 1.200966
v -0.777597 7.224252 1.406006
v -0.670176 7.148468 1.516757
v 0.146236 7.212825 1.128511
v -0.665676 7.111683 0.051292
v -0.712498 7.003497 0.033819
v -0.978799 7.078523 0.763162
v -1.034865 7.136080 0.864900
v -0.665676 7.111683 0.051292
v 0.142559 7.155829 -0.109114
v -0.144418 7.094047 -0.232645
v -0.712498 7.003497 0.033819
v 0.142559 7.155829 -0.109114
v 0.288065 7.269754 0.736140
v 0.271697 7.169109 0.659066
v -0.144418 7.094047 -0.232645
v -1.761160 6.227856 0.933507
v -1.665852 6.130144 0.697035
v -1.367166 6.186339 1.673496
v -1.451991 6.287045 1.893979
v 0.787693 6.360537 -0.999971
v 1.169585 6.546245 -0.172202
v 1.049481 6.453852 -0.272956
v 0.504828 6.324272 -1.092530
v 0.482180 6.570299 2.382271
v 0.299491 6.504820 2.475120
v 1.167697 6.300833 1.762791
v 1.131650 6.380623 1.906804
v -0.968928 6.154481 -0.930116
v -0.232785 6.211057 -1.307184
v -0.402881 6.163442 -1.209378
v -0.816088 6.084522 -0.932867
v -1.720774 6.112298 0.315002
v -1.485384 5.835240 -0.560763
v -1.467280 5.790533 -0.433801
v -1.685901 6.041913 0.413766
v -1.155413 6.340772 2.426698
v -1.206795 6.268207 2.248003
v -0.676450 6.146556 2.880496
v -0.534962 6.215230 3.021493
v -0.534962 6.215230 3.021493
v -0.676450 6.146556 2.880496
v -0.100967 6.427024 2.620421
v -0.222489 6.536184 2.838764
v 1.100898 6.612546 1.459032
v 1.123680 6.486690 1.354167
v 1.178817 6.542111 0.665280
v 1.219018 6.627505 0.236649
v 0.238827 6.022630 -1.527737
v 0.787693 6.360537 -0.999971
v 0.504828 6.324272 -1.092530
v 0.145765 5.964782 -1.481233
v -1.451991 6.287045 1.893979
v -1.367166 6.186339 1.673496
v -1.206795 6.268207 2.248003
v -1.155413 6.340772 2.426698
v 1.219018 6.627505 0.236649
v 1.178817 6.542111 0.665280
v 1.049481 6.453852 -0.272956
v 1.169585 6.546245 -0.172202
v -1.720774 6.112298 0.315002
v -1.685901 6.041913 0.413766
v -1.665852 6.130144 0.697035
v -1.761160 6.227856 0.933507
v -0.968928 6.154481 -0.930116
v -0.816088 6.084522 -0.932867
v -1.467280 5.790533 -0.433801
v -1.485384 5.835240 -0.560763
v 1.100898 6.612546 1.459032
v 1.131650 6.380623 1.906804
v 1.167697 6.300833 1.762791
v 1.123680 6.486690 1.354167
v -0.232785 6.211057 -1.307184
v 0.238827 6.022630 -1.527737
v 0.145765 5.964782 -1.481233
v -0.402881 6.163442 -1.209378
v -0.222489 6.536184 2.838764
v -0.100967 6.427024 2.620421
v 0.299491 6.504820 2.475120
v 0.482180 6.570299 2.382271
v 1.274239 5.269403 2.396745
v 1.225468 5.241449 2.394297
v 1.700238 4.924021 1.892510
v 1.737044 4.965986 1.927303
v 1.990148 5.370073 0.483724
v 1.826577 5.413016 0.659655
v 1.672820 5.432994 -0.052049
v 1.791327 5.439008 -0.085488
v -0.380143 4.910614 -1.573073
v -0.341634 4.868673 -1.470102
v -0.838440 5.046307 -1.163585
v -0.893044 5.096737 -1.246799
v -0.540873 5.121557 3.134193
v -0.521749 5.097906 2.978277
v -0.027655 4.875936 3.122990
v -0.022373 4.891070 3.240413
v -1.916486 5.089206 0.842047
v -1.773379 5.154542 0.100006
v -1.688079 5.136874 0.134677
v -1.824123 5.070358 0.822089
v 1.047492 5.246591 -1.226649
v 1.451107 5.354455 -0.733029
v 1.410792 5.295363 -0.716286
v 1.014610 5.173738 -1.138787
v -1.557818 4.825344 -0.417328
v -1.296112 4.817048 -0.885545
v -1.235801 4.782701 -0.817841
v -1.464322 4.832084 -0.382166
v 1.274239 5.269403 2.396745
v 0.704410 5.536367 2.809903
v 0.738939 5.484578 2.714101
v 1.225468 5.241449 2.394297
v 0.254664 4.550177 -1.570704
v 0.246851 4.499780 -1.439213
v -0.341634 4.868673 -1.470102
v -0.380143 4.910614 -1.573073
v 0.727228 4.646227 -1.493781
v 1.047492 5.246591 -1.226649
v 1.014610 5.173738 -1.138787
v 0.691373 4.614682 -1.354208
v 1.737044 4.965986 1.927303
v 1.700238 4.924021 1.892510
v 1.864511 5.190133 1.223745
v 1.933530 5.226611 1.235235
v -1.820775 5.103139 1.562327
v -1.916486 5.089206 0.842047
v -1.824123 5.070358 0.822089
v -1.737279 5.071765 1.506445
v 0.254664 4.550177 -1.570704
v 0.727228 4.646227 -1.493781
v 0.691373 4.614682 -1.354208
v 0.246851 4.499780 -1.439213
v -1.296112 4.817048 -0.885545
v -0.893044 5.096737 -1.246799
v -0.838440 5.046307 -1.163585
v -1.235801 4.782701 -0.817841
v -0.022373 4.891070 3.240413
v -0.027655 4.875936 3.122990
v 0.367253 5.133240 2.987294
v 0.419420 5.190994 3.126868
v -1.557818 4.825344 -0.417328
v -1.464322 4.832084 -0.382166
v -1.688079 5.136874 0.134677
v -1.773379 5.154542 0.100006
v -1.058645 5.228693 2.785173
v -0.999708 5.183835 2.586992
v -0.521749 5.097906 2.978277
v -0.540873 5.121557 3.134193
v 1.933530 5.226611 1.235235
v 1.864511 5.190133 1.223745
v 1.826577 5.413016 0.659655
v 1.990148 5.370073 0.483724
v 0.704410 5.536367 2.809903
v 0.419420 5.190994 3.126868
v 0.367253 5.133240 2.987294
v 0.738939 5.484578 2.714101
v 1.451107 5.354455 -0.733029
v 1.791327 5.439008 -0.085488
v 1.672820 5.432994 -0.052049
v 1.410792 5.295363 -0.716286
v -0.613358 6.779577 2.222215
v -1.255060 6.833483 1.556749
v -1.171317 6.767830 1.718007
v -0.934287 6.734063 2.272481
v -0.613358 6.779577 2.222215
v -0.934287 6.734063 2.272481
v -0.350365 6.925625 2.242374
v -0.286010 6.999431 2.135244
v 0.714487 7.060960 0.715461
v 0.651617 6.964199 0.963320
v 0.780797 6.899854 0.211658
v 0.823575 6.975946 0.275902
v -1.386515 6.711880 1.309997
v -1.370972 6.631391 1.198348
v -1.171317 6.767830 1.718007
v -1.255060 6.833483 1.556749
v 0.713842 6.940676 -0.159076
v 0.823575 6.975946 0.275902
v 0.780797 6.899854 0.211658
v 0.509902 6.855215 -0.362114
v 0.462517 6.937322 1.881484
v -0.286010 6.999431 2.135244
v -0.350365 6.925625 2.242374
v 0.576133 6.845404 1.645497
v -0.639392 6.740034 -0.674232
v 0.420425 6.693921 -0.868608
v 0.012560 6.617227 -1.001767
v -0.738415 6.655030 -0.623989
v -1.386515 6.711880 1.309997
v -1.297682 6.719941 0.267916
v -1.278681 6.668554 0.508834
v -1.370972 6.631391 1.198348
v -1.347437 6.544118 -0.161273
v -0.639392 6.740034 -0.674232
v -0.738415 6.655030 -0.623989
v -1.063132 6.464864 -0.376371
v 0.462517 6.937322 1.881484
v 0.576133 6.845404 1.645497
v 0.651617 6.964199 0.963320
v 0.714487 7.060960 0.715461
v -1.297682 6.719941 0.267916
v -1.347437 6.544118 -0.161273
v -1.063132 6.464864 -0.376371
v -1.278681 6.668554 0.508834
v 0.420425 6.693921 -0.868608
v 0.713842 6.940676 -0.159076
v 0.509902 6.855215 -0.362114
v 0.012560 6.617227 -1.001767
v -1.436616 5.723760 2.254593
v -1.817159 5.717457 1.697835
v -1.598486 5.594421 1.644139
v -1.278379 5.669256 2.385179
v 1.104804 5.988828 2.453698
v 0.867389 5.882603 2.456678
v 1.494700 5.572279 1.797692
v 1.604344 5.692437 1.915497
v 0.655384 5.617786 -1.560050
v 1.200220 5.892326 -0.885766
v 1.054831 5.810251 -0.810538
v 0.594959 5.542300 -1.391030
v -1.930545 5.479795 0.292962
v -1.773024 5.404975 0.299488
v -1.811531 5.477886 1.014162
v -1.947432 5.568098 1.091816
v -1.318761 5.456086 -0.924446
v -0.797036 5.711129 -1.276471
v -0.770632 5.634560 -1.112485
v -1.181672 5.384748 -0.827280
v 1.637471 5.980013 1.439041
v 1.604344 5.692437 1.915497
v 1.494700 5.572279 1.797692
v 1.531187 5.851409 1.327997
v 0.176289 5.255095 -1.784923
v 0.655384 5.617786 -1.560050
v 0.594959 5.542300 -1.391030
v 0.103092 5.175554 -1.634311
v -0.898236 5.668254 2.911596
v -1.436616 5.723760 2.254593
v -1.278379 5.669256 2.385179
v -0.819979 5.584617 2.794752
v -0.309880 5.519709 3.262467
v -0.259697 5.440435 3.185140
v 0.141587 5.799435 2.948550
v 0.136115 5.894770 2.998539
v 1.669189 6.046279 0.303267
v 1.583184 5.924316 0.591052
v 1.269900 5.959856 -0.313067
v 1.438267 6.085497 -0.229637
v -1.318761 5.456086 -0.924446
v -1.181672 5.384748 -0.827280
v -1.527996 5.126361 -0.444350
v -1.685089 5.186241 -0.508133
v 0.373334 6.149151 2.776303
v 0.136115 5.894770 2.998539
v 0.141587 5.799435 2.948550
v 0.409234 6.018855 2.610211
v 1.200220 5.892326 -0.885766
v 1.438267 6.085497 -0.229637
v 1.269900 5.959856 -0.313067
v 1.054831 5.810251 -0.810538
v -0.309880 5.519709 3.262467
v -0.898236 5.668254 2.911596
v -0.819979 5.584617 2.794752
v -0.259697 5.440435 3.185140
v 1.637471 5.980013 1.439041
v 1.531187 5.851409 1.327997
v 1.583184 5.924316 0.591052
v 1.669189 6.046279 0.303267
v 0.373334 6.149151 2.776303
v 0.409234 6.018855 2.610211
v 0.867389 5.882603 2.456678
v 1.104804 5.988828 2.453698
v -0.371365 5.559437 -1.603405
v 0.176289 5.255095 -1.784923
v 0.103092 5.175554 -1.634311
v -0.424939 5.478580 -1.433334
v -1.685089 5.186241 -0.508133
v -1.527996 5.126361 -0.444350
v -1.773024 5.404975 0.299488
v -1.930545 5.479795 0.292962
v -1.947432 5.568098 1.091816
v -1.811531 5.477886 1.014162
v -1.598486 5.594421 1.644139
v -1.817159 5.717457 1.697835
v -0.797036 5.711129 -1.276471
v -0.371365 5.559437 -1.603405
v -0.424939 5.478580 -1.433334
v -0.770632 5.634560 -1.112485
vn -0.1927 -0.8294 0.5244
vn -0.3064 -0.9481 -0.0846
vn -0.1269 -0.9873 -0.0958
vn -0.0308 -0.9976 0.0623
vn -0.2900 -0.4320 0.8540
vn -0.8510 -0.5248 -0.0197
vn -0.3345 -0.9316 -0.1425
vn 0.4478 -0.8905 -0.0806
vn -0.6239 0.0729 0.7781
vn -0.8967 -0.3871 -0.2149
vn 0.4748 -0.8431 0.2523
vn -0.5136 -0.8413 -0.1686
vn 0.5744 -0.7508 0.3262
vn 0.5115 -0.0512 -0.8577
vn 0.9341 0.3502 -0.0693
vn 0.9141 0.3943 0.0943
vn 0.8927 0.4127 -0.1813
vn 0.8971 0.3450 -0.2761
vn 0.8095 0.4025 -0.4273
vn 0.7286 0.1982 -0.6557
vn 0.7692 0.1968 -0.6079
vn 0.6385 -0.0272 -0.7691
vn 0.6205 0.2761 0.7340
vn 0.5841 -0.1281 0.8015
vn 0.6370 0.2554 0.7273
vn 0.7834 0.3064 0.5407
vn 0.6914 -0.4133 0.5926
vn 0.4638 -0.5538 0.6916
vn 0.9230 0.2327 0.3063
vn 0.9473 0.2163 0.2362
vn 0.9698 -0.2061 -0.1306
vn 0.4497 -0.8080 -0.3806
vn 0.8436 -0.4287 -0.3234
vn 0.8481 -0.3007 -0.4363
vn 0.2590 -0.8617 -0.4363
vn -0.1835 -0.7315 0.6567
vn 0.8418 -0.3181 -0.4360
vn 0.6982 -0.1726 -0.6948
vn 0.4588 -0.1802 -0.8701
vn 0.1388 -0.4955 -0.8574
vn -0.5918 -0.5741 0.5658
vn 0.3798 -0.2135 -0.9001
vn -0.2055 -0.6292 -0.7496
vn 0.0132 0.0262 -0.9996
vn 0.3498 -0.8067 -0.4763
vn -0.3267 -0.3629 -0.8727
vn -0.3615 -0.2016 -0.9103
vn -0.5219 0.0120 -0.8529
vn 0.4830 -0.5265 0.6996
vn 0.9688 -0.2441 0.0430
vn 0.6855 -0.4709 0.5552
vn 0.3959 -0.8148 0.4235
vn 0.7445 -0.6641 0.0677
vn 0.2683 -0.9391 -0.2146
vn -0.5876 -0.7354 0.3375
vn -0.5123 -0.7330 0.4475
vn -0.2952 -0.8988 0.3241
vn -0.5399 -0.8408 0.0392
vn -0.3625 -0.9173 -0.1649
vn -0.4740 -0.8491 -0.2334
vn 0.5690 -0.4636 -0.6792
vn 0.0535 -0.7665 0.6400
vn 0.5539 -0.4198 -0.7190
vn -0.0859 -0.8068 -0.5846
vn 0.1156 -0.9707 0.2105
vn -0.5828 -0.6413 0.4991
vn -0.5968 -0.7845 0.1687
vn -0.6943 -0.6702 0.2622
vn -0.1844 -0.6156 0.7662
vn -0.5632 -0.4943 0.6622
vn -0.6064 -0.5444 0.5796
vn -0.6362 -0.5186 0.5712
vn -0.6971 -0.5575 0.4508
vn 0.2959 -0.9527 -0.0695
vn -0.6519 -0.0117 -0.7582
vn -0.6298 -0.5788 -0.5180
vn -0.7278 -0.3323 -0.5999
vn -0.8300 -0.3985 -0.3902
vn -0.2079 -0.8993 0.3847
vn -0.4271 -0.8526 0.3011
vn -0.4215 -0.8354 0.3528
vn -0.3045 -0.8723 0.3826
vn -0.4501 -0.8205 -0.3523
vn 0.3241 0.4472 -0.8337
vn 0.0700 0.3232 -0.9437
vn 0.8003 0.4632 0.3809
vn -0.4592 -0.6410 0.6151
vn -0.9582 -0.2586 0.1221
vn -0.8287 -0.4850 0.2794
vn -0.8679 -0.3073 0.3903
vn -0.6003 -0.5967 0.5326
vn -0.5866 -0.3076 0.7492
vn -0.7448 -0.0687 0.6637
vn 0.5418 0.2682 0.7966
vn -0.6130 0.7735 0.1608
vn 0.2183 -0.1299 0.9672
vn 0.3571 -0.1338 0.9244
vn 0.3742 -0.1550 0.9143
vn -0.4416 -0.4953 0.7481
vn -0.4877 -0.3161 0.8138
vn -0.0996 -0.3360 0.9366
vn -0.0985 -0.5898 0.8015
vn 0.3021 -0.4561 0.8371
vn 0.4344 -0.8503 0.2972
vn 0.0407 -0.9171 -0.3966
vn -0.4659 -0.6671 -0.5813
vn -0.3229 -0.9227 -0.2108
vn 0.0176 -0.9082 -0.4182
vn -0.7089 -0.6319 0.3134
vn -0.3292 -0.9202 -0.2119
vn -0.6499 -0.7410 0.1692
vn -0.7920 -0.6034 0.0925
vn -0.7400 -0.6726 -0.0000
vn -0.2115 -0.9769 0.0299
vn -0.2997 -0.9454 0.1283
vn -0.6917 -0.7212 0.0386
vn -0.6427 -0.7649 -0.0431
vn -0.7515 -0.6581 -0.0468
vn -0.6728 -0.7201 -0.1700
vn -0.5913 -0.8022 0.0828
vn -0.6419 -0.7657 -0.0402
vn -0.3530 -0.9354 0.0226
vn -0.7104 -0.7003 0.0703
vn -0.5097 -0.6190 0.5976
vn -0.3162 -0.9482 -0.0317
vn -0.2675 -0.9614 0.0644
vn -0.5457 -0.5992 0.5858
vn -0.6242 -0.6414 0.4460
vn -0.1995 -0.9796 0.0224
vn -0.1032 -0.9811 0.1635
vn -0.0500 -0.9972 0.0554
vn 0.1544 -0.9349 0.3197
vn 0.0842 -0.8464 0.5258
vn 0.1434 -0.7834 0.6048
vn 0.1910 -0.7784 0.5980
vn 0.0510 -0.9425 0.3302
vn -0.2547 -0.9508 0.1763
vn 0.2560 -0.7814 0.5691
vn 0.0438 -0.8342 0.5497
vn 0.0102 -0.9014 0.4330
vn -0.1165 -0.8884 0.4441
vn 0.0424 -0.8312 0.5544
vn -0.1002 -0.8252 0.5559
vn -0.2019 -0.9793 0.0161
vn 0.1381 -0.9899 -0.0318
vn 0.0456 -0.9933 -0.1060
vn 0.1642 -0.9796 -0.1162
vn 0.0841 -0.9766 -0.1981
vn -0.6075 -0.7103 -0.3556
vn -0.7586 -0.5678 -0.3196
vn -0.3468 -0.7170 -0.6047
vn -0.7001 -0.5941 -0.3961
vn -0.6995 -0.5930 -0.3987
vn -0.4266 -0.6595 -0.6189
vn -0.3677 -0.9142 -0.1702
vn 0.1295 -0.9746 0.1825
vn 0.1298 -0.9915 0.0117
vn 0.1817 -0.9826 -0.0384
vn 0.1793 -0.9824 -0.0521
vn 0.0698 -0.9970 -0.0347
vn 0.1561 -0.9841 -0.0848
vn 0.1360 -0.9905 -0.0223
vn 0.0791 -0.9955 -0.0517
vn 0.0407 -0.9991 0.0082
vn 0.2679 -0.9631 -0.0267
vn 0.1552 -0.9870 0.0413
vn 0.1269 -0.9845 0.1207
vn -0.2688 -0.9404 -0.2083
vn -0.2966 -0.9248 -0.2384
vn -0.3280 -0.9300 -0.1657
vn -0.5473 -0.8369 -0.0097
vn -0.6238 -0.7262 0.2890
vn -0.6400 0.6366 0.4303
vn -0.7056 0.6863 0.1763
vn -0.8721 0.4847 0.0680
vn 0.0937 0.6040 0.7914
vn 0.0693 0.5981 0.7984
vn 0.0447 0.5388 0.8413
vn -0.4447 0.2619 0.8565
vn -0.6807 0.3572 0.6395
vn -0.7217 0.3121 0.6178
vn -0.9023 0.3833 0.1973
vn -0.9094 0.4109 -0.0636
vn -0.9099 0.4099 -0.0645
vn -0.8317 0.4359 -0.3438
vn -0.8498 0.3543 -0.3902
vn -0.6554 0.5169 -0.5507
vn -0.8041 0.3490 -0.4813
vn -0.6387 0.5031 -0.5821
vn 0.1412 0.6567 0.7408
vn -0.4135 0.7928 0.4478
vn -0.3994 0.7988 0.4499
vn -0.4655 0.8783 0.1091
vn 0.1715 0.9463 0.2742
vn 0.0269 0.9755 0.2183
vn 0.3722 0.9111 0.1770
vn 0.2403 0.9703 -0.0261
vn 0.2503 0.9603 -0.1236
vn -0.7073 0.7048 -0.0548
vn -0.5050 0.8202 -0.2688
vn -0.5063 0.8170 -0.2760
vn -0.4764 0.8068 -0.3494
vn -0.3090 0.8805 -0.3595
vn -0.0700 0.8151 -0.5750
vn 0.1874 0.9677 -0.1689
vn 0.1943 0.8988 -0.3929
vn 0.2401 0.9608 -0.1385
vn -0.6730 0.7396 -0.0059
vn -0.4202 0.4803 -0.7699
vn -0.2174 0.5253 -0.8227
vn -0.0880 0.3887 -0.9172
vn 0.1281 0.3948 -0.9098
vn 0.2686 0.5707 -0.7760
vn 0.5309 0.5434 -0.6502
vn 0.5615 0.6743 -0.4797
vn 0.6479 0.6343 -0.4218
vn 0.6882 0.7074 -0.1614
vn 0.6141 0.7607 -0.2101
vn 0.6898 0.5976 0.4087
vn 0.7223 0.6033 0.3382
vn 0.5034 0.7694 0.3933
vn 0.6957 0.7157 0.0612
vn 0.6581 0.7095 0.2518
vn 0.7463 0.6560 0.1125
vn 0.4240 0.6349 0.6458
vn -0.5324 0.5583 -0.6363
vn -0.2173 -0.9532 0.2104
vn 0.8112 0.5736 0.1140
vn 0.8120 0.4719 0.3435
vn 0.8404 0.5171 0.1620
vn 0.7718 0.6048 -0.1964
vn 0.5270 0.8497 0.0178
vn 0.7362 0.6365 -0.2301
vn 0.7221 0.5270 -0.4482
vn 0.7055 0.5342 -0.4657
vn 0.6402 0.4508 -0.6220
vn 0.4562 0.8668 0.2014
vn 0.4939 0.7920 0.3587
vn 0.5612 0.4868 -0.6693
vn 0.5695 0.8194 0.0651
vn 0.4842 0.7901 0.3760
vn 0.5234 0.8214 -0.2265
vn 0.4729 0.8327 -0.2881
vn 0.4805 0.7819 -0.3971
vn 0.2708 0.8142 -0.5135
vn 0.4303 0.1653 -0.8874
vn 0.3415 0.1567 -0.9267
vn 0.2309 0.6925 -0.6835
vn -0.1029 0.6368 -0.7641
vn -0.3007 0.6825 -0.6661
vn 0.1226 0.9806 -0.1533
vn -0.1088 0.9520 -0.2860
vn -0.3434 0.9211 -0.1834
vn -0.3993 0.6051 -0.6888
vn -0.6800 0.5842 -0.4431
vn 0.1281 0.9899 -0.0607
vn -0.3243 0.9459 0.0001
vn -0.0550 0.9833 0.1734
vn 0.3123 0.8762 0.3670
vn -0.2304 0.7914 0.5662
vn 0.2734 0.8312 0.4841
vn -0.6789 0.5852 -0.4435
vn -0.7137 0.5895 -0.3783
vn -0.6853 0.6553 -0.3177
vn 0.4078 0.5509 0.7282
vn 0.6526 0.3683 0.6621
vn 0.7439 0.4448 0.4987
vn 0.7678 0.4118 0.4908
vn 0.8237 0.4124 0.3892
vn 0.1719 -0.0583 -0.9834
vn -0.0621 -0.1159 -0.9913
vn -0.2376 0.2144 -0.9474
vn -0.4832 0.1731 -0.8583
vn -0.5636 0.3186 -0.7621
vn -0.7419 0.6487 -0.1696
vn -0.6994 0.7126 -0.0552
vn -0.8567 0.3221 -0.4029
vn -0.8217 0.5430 0.1731
vn -0.7438 0.5650 0.3571
vn -0.7489 0.5600 0.3543
vn -0.5181 0.5486 0.6562
vn -0.3258 0.6870 0.6496
vn -0.7681 0.6049 0.2100
vn -0.9743 0.1412 -0.1755
vn -0.9526 0.2932 -0.0812
vn -0.5802 0.3695 0.7258
vn -0.4880 0.3052 0.8177
vn -0.4912 0.3026 0.8168
vn -0.6636 0.3199 -0.6762
vn -0.7301 0.2138 -0.6491
vn -0.7925 0.2182 -0.5695
vn -0.8718 0.0426 -0.4880
vn -0.9093 0.0530 -0.4127
vn -0.9704 0.2067 0.1249
vn -0.8995 0.3677 0.2362
vn -0.8413 0.3065 0.4452
vn -0.9088 0.1849 0.3739
vn -0.8220 0.0992 0.5608
vn 0.4350 0.5585 0.7063
vn 0.2110 0.3624 0.9078
vn -0.1944 0.0147 0.9808
vn 0.3975 0.4205 0.8156
vn 0.1425 0.1598 0.9768
vn 0.8551 0.1254 0.5030
vn 0.9139 0.1232 0.3869
vn 0.9806 0.1789 -0.0807
vn 0.9810 0.1600 -0.1093
vn 0.9368 0.2212 -0.2712
vn 0.8614 -0.0421 -0.5062
vn 0.8129 -0.0237 -0.5819
vn 0.7046 -0.1949 -0.6823
vn 0.6717 -0.1889 -0.7163
vn 0.9732 0.1313 0.1889
vn 0.9379 0.0110 0.3468
vn 0.9745 0.0366 0.2212
vn 0.5889 -0.2620 -0.7645
vn -0.6999 -0.5924 0.3989
vn -0.5142 0.8499 0.1151
vn -0.6542 -0.7412 -0.1501
vn 0.5508 0.5312 -0.6438
vn 0.0807 0.3719 -0.9248
vn -0.1093 -0.9760 0.1884
vn 0.8866 -0.3787 0.2655
vn -0.6034 -0.7159 0.3512
vn -0.6033 -0.7160 0.3512
vn -0.6034 -0.7160 0.3511
vn 0.2757 0.3256 0.9044
vn 0.2759 0.3255 0.9044
vn 0.2757 0.3255 0.9045
vn 0.2757 0.3255 0.9044
vn -0.8955 0.2260 -0.3834
vn -0.8956 0.2258 -0.3834
vn -0.8955 0.2258 -0.3834
vn -0.2308 0.8484 -0.4764
vn -0.2308 0.8485 -0.4763
vn -0.2308 0.8484 -0.4763
vn -0.2306 0.8484 -0.4764
vn 0.5066 -0.8593 -0.0703
vn 0.5066 -0.8593 -0.0701
vn -0.4587 -0.8668 0.1956
vn 0.2974 -0.9546 0.0155
vn 0.2974 -0.9546 0.0154
vn 0.2973 -0.9547 0.0155
vn 0.3763 -0.6217 0.6869
vn 0.3763 -0.6218 0.6869
vn 0.3762 -0.6218 0.6869
vn -0.3614 -0.5536 -0.7503
vn -0.3615 -0.5535 -0.7503
vn -0.3614 -0.5535 -0.7504
vn -0.8519 -0.5197 -0.0651
vn -0.8519 -0.5197 -0.0650
vn -0.7136 -0.3710 0.5943
vn -0.7135 -0.3711 0.5943
vn -0.7135 -0.3709 0.5944
vn -0.7136 -0.3709 0.5944
vn 0.6348 -0.7060 0.3140
vn 0.6348 -0.7059 0.3142
vn 0.6348 -0.7060 0.3141
vn 0.9940 0.0595 0.0923
vn 0.1526 -0.8535 0.4983
vn 0.1525 -0.8535 0.4983
vn -0.5058 -0.8060 0.3075
vn -0.5059 -0.8059 0.3075
vn -0.5060 -0.8059 0.3075
vn 0.7321 -0.6811 -0.0114
vn 0.7320 -0.6812 -0.0114
vn -0.7263 -0.6738 0.1359
vn -0.0618 -0.7743 -0.6298
vn -0.0617 -0.7743 -0.6298
vn 0.9705 0.2390 0.0319
vn 0.9705 0.2391 0.0319
vn -0.4563 -0.0747 -0.8867
vn 0.4222 -0.6219 0.6596
vn 0.4221 -0.6219 0.6596
vn 0.4222 -0.6218 0.6597
vn 0.4222 -0.6218 0.6596
vn 0.2585 -0.6811 0.6850
vn 0.2585 -0.6812 0.6850
vn 0.2584 -0.6812 0.6850
vn -0.1497 -0.9884 -0.0274
vn -0.1498 -0.9883 -0.0274
vn -0.4450 -0.8707 -0.2095
vn -0.4449 -0.8707 -0.2094
vn -0.4274 -0.8979 0.1058
vn -0.4274 -0.8979 0.1057
vn -0.1896 -0.9736 -0.1268
vn 0.6379 -0.6636 -0.3907
vn -0.1607 -0.9867 -0.0242
vn -0.1610 -0.9867 -0.0243
vn -0.1609 -0.9867 -0.0243
vn -0.1608 -0.9867 -0.0242
vn 0.0569 -0.7792 0.6242
vn 0.0568 -0.7792 0.6242
vn 0.0568 -0.7793 0.6241
vn -0.4887 -0.8317 -0.2636
vn -0.4887 -0.8317 -0.2635
vn 0.8676 -0.4960 0.0346
vn 0.8677 -0.4960 0.0346
vn 0.8677 -0.4959 0.0346
vn 0.6268 -0.7680 -0.1312
vn 0.6267 -0.7681 -0.1312
vn 0.6267 -0.7682 -0.1312
vn -0.2568 -0.9655 0.0439
vn 0.2578 -0.9356 -0.2413
vn 0.0914 -0.8369 -0.5397
vn 0.5724 -0.8135 0.1028
vn -0.2244 -0.8704 0.4383
vn -0.2243 -0.8704 0.4383
vn -0.2766 -0.9530 0.1234
vn -0.2765 -0.9531 0.1234
vn -0.2134 -0.9404 -0.2649
vn -0.2134 -0.9403 -0.2649
vn -0.2135 -0.9403 -0.2649
vn 0.7934 -0.5724 0.2071
vn 0.7934 -0.5725 0.2069
vn 0.7934 -0.5724 0.2070
vn 0.3751 -0.9268 -0.0152
vn 0.3750 -0.9269 -0.0152
vn 0.3750 -0.9269 -0.0153
vn -0.2325 0.9437 0.2353
vn -0.4185 0.8103 -0.4102
vn -0.4185 0.8102 -0.4104
vn 0.9193 -0.3234 0.2244
vn 0.9192 -0.3236 0.2244
vn 0.9192 -0.3235 0.2244
vn -0.7955 -0.3805 0.4717
vn -0.7955 -0.3804 0.4717
vn -0.7955 -0.3803 0.4717
vn 0.6793 -0.7060 -0.2004
vn 0.6794 -0.7059 -0.2004
vn 0.6794 -0.7058 -0.2004
vn 0.3562 -0.5053 0.7860
vn 0.3564 -0.5052 0.7860
vn 0.3563 -0.5053 0.7860
vn -0.1528 0.7862 -0.5988
vn -0.1528 0.7861 -0.5989
vn -0.1529 0.7861 -0.5988
vn -0.9313 -0.3482 -0.1065
vn -0.9313 -0.3484 -0.1065
vn -0.9313 -0.3483 -0.1065
vn -0.6132 0.0954 -0.7842
vn -0.6132 0.0953 -0.7842
vn 0.9425 0.2663 0.2019
vn 0.9425 0.2662 0.2019
vn 0.9425 0.2662 0.2020
vn -0.4018 -0.8920 0.2069
vn -0.4018 -0.8921 0.2069
vn -0.4018 -0.8921 0.2067
vn 0.0951 -0.9533 0.2868
vn -0.4559 -0.8385 0.2985
vn 0.2704 -0.7319 0.6255
vn 0.2705 -0.7318 0.6255
vn 0.5467 -0.8338 -0.0772
vn 0.5466 -0.8338 -0.0772
vn -0.4747 -0.8769 0.0760
vn -0.4747 -0.8768 0.0760
vn -0.4748 -0.8768 0.0760
vn 0.0909 -0.8410 -0.5333
vn 0.0909 -0.8411 -0.5332
vn 0.8314 -0.5016 -0.2392
vn 0.8314 -0.5016 -0.2393
vn 0.6302 -0.7687 -0.1094
vn 0.6302 -0.7687 -0.1093
vn -0.4875 -0.7997 0.3505
vn 0.6615 -0.2927 0.6905
vn 0.5622 -0.7871 -0.2539
vn -0.0462 -0.8139 -0.5791
vn 0.8217 -0.3084 0.4793
vn 0.8216 -0.3084 0.4794
vn 0.5512 -0.8338 0.0313
vn -0.4509 -0.8078 0.3796
vn -0.4508 -0.8079 0.3796
vn 0.7898 -0.6133 -0.0103
vn 0.1420 -0.6411 0.7542
vn 0.1421 -0.6411 0.7542
vn -0.5514 -0.6383 -0.5372
vn -0.5514 -0.6382 -0.5372
vn -0.5515 -0.6381 -0.5372
vn -0.4224 -0.8854 0.1938
vn -0.4224 -0.8855 0.1938
vn -0.4225 -0.8854 0.1938
vn -0.4081 -0.8626 0.2989
vn -0.6001 -0.7037 -0.3804
vn -0.6001 -0.7036 -0.3804
vt 0.924262 0.153032
vt 0.825049 0.140630
vt 0.806447 0.168534
vt 0.797145 0.171634
vt 0.812647 0.153032
vt 0.908760 0.184036
vt 0.818848 0.146831
s 1
usemtl Material.008
f 1/1/1 2/1/1 3/1/1
f 4/1/2 5/1/2 6/1/2
f 7/1/3 8/1/3 9/1/3
f 10/1/4 11/1/4 12/1/4
f 13/1/5 14/1/5 15/1/5
f 16/1/6 17/1/6 18/1/6
f 19/1/7 20/1/7 21/1/7
f 22/1/8 23/1/8 24/1/8
f 25/1/9 26/1/9 27/1/9
f 28/1/10 29/1/10 30/1/10
f 31/1/11 32/1/11 33/1/11
f 34/1/12 35/1/12 36/1/12
f 37/1/13 38/1/13 39/1/13
f 40/1/14 41/1/14 42/1/14
f 43/1/15 44/1/15 45/1/15
f 46/1/16 47/1/16 48/1/16
f 49/1/17 50/1/17 51/1/17
f 52/1/18 53/1/18 54/1/18
f 55/1/19 56/1/19 57/1/19
f 58/1/20 59/1/20 60/1/20
f 61/1/21 62/1/21 63/1/21
f 64/1/22 65/1/22 66/1/22
f 67/1/23 68/1/23 69/1/23
f 70/1/24 71/1/24 72/1/24
f 73/1/25 74/1/25 75/1/25
f 76/1/26 77/1/26 78/1/26
f 79/1/27 80/1/27 81/1/27
f 82/1/28 83/1/28 84/1/28
f 85/1/29 86/1/29 87/1/29
f 88/1/30 89/1/30 90/1/30
f 91/1/31 92/1/31 93/1/31
f 94/1/32 95/1/32 96/1/32
f 97/1/33 98/1/33 99/1/33
f 100/1/34 101/1/34 102/1/34
f 103/1/35 104/1/35 105/1/35
f 106/1/36 107/1/36 108/1/36
f 109/1/37 110/1/37 111/1/37
f 112/1/38 113/1/38 114/1/38
f 115/1/39 116/1/39 117/1/39
f 118/1/40 119/1/40 120/1/40
f 121/1/41 122/1/41 123/1/41
f 124/1/42 125/1/42 126/1/42
f 127/1/43 128/1/43 129/1/43
f 130/1/44 131/1/44 132/1/44
f 133/1/45 134/1/45 135/1/45
f 136/1/46 137/1/46 138/1/46
f 139/1/47 140/1/47 141/1/47
f 142/1/48 143/1/48 144/1/48
f 145/1/49 146/1/49 147/1/49
f 148/1/50 149/1/50 150/1/50
f 151/1/51 152/1/51 153/1/51
f 154/1/52 155/1/52 156/1/52
f 157/1/53 158/1/53 159/1/53
f 160/1/54 161/1/54 162/1/54
f 163/1/55 164/1/55 165/1/55
f 166/1/56 167/1/56 168/1/56
f 169/1/57 170/1/57 171/1/57
f 172/1/58 173/1/58 174/1/58
f 175/1/59 176/1/59 177/1/59
f 178/1/60 179/1/60 180/1/60
f 181/1/61 182/1/61 183/1/61
f 184/1/62 185/1/62 186/1/62
f 187/1/63 188/1/63 189/1/63
f 190/1/64 191/1/64 192/1/64
f 193/1/65 194/1/65 195/1/65
f 196/1/66 197/1/66 198/1/66
f 199/1/67 200/1/67 201/1/67
f 202/1/68 203/1/68 204/1/68
f 205/1/69 206/1/69 207/1/69
f 208/1/70 209/1/70 210/1/70
f 211/1/71 212/1/71 213/1/71
f 214/1/72 215/1/72 216/1/72
f 217/1/73 218/1/73 219/1/73
f 220/1/74 221/1/74 222/1/74
f 223/1/75 224/1/75 225/1/75
f 226/1/76 227/1/76 228/1/76
f 229/1/77 230/1/77 231/1/77
f 232/1/78 233/1/78 234/1/78
f 235/1/79 236/1/79 237/1/79
f 238/1/80 239/1/80 240/1/80
f 241/1/81 242/1/81 243/1/81
f 244/1/82 245/1/82 246/1/82
f 247/1/83 248/1/83 249/1/83
f 250/1/84 251/1/84 252/1/84
f 253/1/85 254/1/85 255/1/85
f 256/1/86 257/1/86 258/1/86
f 259/1/87 260/1/87 261/1/87
f 262/1/88 263/1/88 264/1/88
f 265/1/89 266/1/89 267/1/89
f 268/1/90 269/1/90 270/1/90
f 271/1/91 272/1/91 273/1/91
f 274/1/92 275/1/92 276/1/92
f 277/1/93 278/1/93 279/1/93
f 280/1/94 281/1/94 282/1/94
f 283/1/95 284/1/95 285/1/95
f 286/1/96 287/1/96 288/1/96
f 289/1/97 290/1/97 291/1/97
f 292/1/98 293/1/98 294/1/98
f 295/1/99 296/1/99 297/1/99
f 298/1/100 299/1/100 300/1/100
f 301/1/101 302/1/101 303/1/101
f 304/1/102 305/1/102 306/1/102
f 307/1/103 308/1/103 309/1/103
f 310/1/104 311/1/104 312/1/104
f 313/1/105 314/1/105 315/1/105
f 316/1/106 317/1/106 318/1/106
f 319/1/107 320/1/107 321/1/107
f 322/1/108 323/1/108 324/1/108
f 325/1/109 326/1/109 327/1/109
f 328/1/110 329/1/110 330/1/110
f 331/1/111 332/1/111 333/1/111
f 334/1/112 335/1/112 336/1/112
f 337/1/113 338/1/113 339/1/113
f 340/1/114 341/1/114 342/1/114
f 343/1/115 344/1/115 345/1/115
f 346/1/116 347/1/116 348/1/116
f 349/1/117 350/1/117 351/1/117
f 352/1/118 353/1/118 354/1/118
f 355/1/119 356/1/119 357/1/119
f 358/1/120 359/1/120 360/1/120
f 361/1/121 362/1/121 363/1/121
f 364/1/122 365/1/122 366/1/122
f 367/1/123 368/1/123 369/1/123
f 370/1/124 371/1/124 372/1/124
f 373/1/125 374/1/125 375/1/125
f 376/1/126 377/1/126 378/1/126
f 379/1/127 380/1/127 381/1/127
f 382/1/128 383/1/128 384/1/128
f 385/1/129 386/1/129 387/1/129
f 388/1/130 389/1/130 390/1/130
f 391/1/131 392/1/131 393/1/131
f 394/1/132 395/1/132 396/1/132
f 397/1/133 398/1/133 399/1/133
f 400/1/134 401/1/134 402/1/134
f 403/1/135 404/1/135 405/1/135
f 406/1/136 407/1/136 408/1/136
f 409/1/137 410/1/137 411/1/137
f 412/1/138 413/1/138 414/1/138
f 415/1/139 416/1/139 417/1/139
f 418/1/140 419/1/140 420/1/140
f 421/1/141 422/1/141 423/1/141
f 424/1/142 425/1/142 426/1/142
f 427/1/143 428/1/143 429/1/143
f 430/1/144 431/1/144 432/1/144
f 433/1/145 434/1/145 435/1/145
f 436/1/146 437/1/146 438/1/146
f 439/1/147 440/1/147 441/1/147
f 442/1/148 443/1/148 444/1/148
f 445/1/149 446/1/149 447/1/149
f 448/1/150 449/1/150 450/1/150
f 451/1/151 452/1/151 453/1/151
f 454/1/152 455/1/152 456/1/152
f 457/1/153 458/1/153 459/1/153
f 460/1/154 461/1/154 462/1/154
f 463/1/155 464/1/155 465/1/155
f 466/1/156 467/1/156 468/1/156
f 469/1/157 470/1/157 471/1/157
f 472/1/158 473/1/158 474/1/158
f 475/1/159 476/1/159 477/1/159
f 478/1/160 479/1/160 480/1/160
f 481/1/161 482/1/161 483/1/161
f 484/1/162 485/1/162 486/1/162
f 487/1/163 488/1/163 489/1/163
f 490/1/164 491/1/164 492/1/164
f 493/1/165 494/1/165 495/1/165
f 496/1/166 497/1/166 498/1/166
f 499/1/167 500/1/167 501/1/167
f 502/1/168 503/1/168 504/1/168
f 505/1/169 506/1/169 507/1/169
f 508/1/170 509/1/170 510/1/170
f 511/1/171 512/1/171 513/1/171
f 514/1/172 515/1/172 516/1/172
f 517/1/173 518/1/173 519/1/173
f 520/1/174 521/1/174 522/1/174
f 523/1/175 524/1/175 525/1/175
f 526/1/176 527/1/176 528/1/176
f 529/1/177 530/1/177 531/1/177
f 532/1/178 533/1/178 534/1/178
f 535/1/179 536/1/179 537/1/179
f 538/1/180 539/1/180 540/1/180
f 541/1/181 542/1/181 543/1/181
f 544/1/182 545/1/182 546/1/182
f 547/1/183 548/1/183 549/1/183
f 550/1/184 551/1/184 552/1/184
f 553/1/185 554/1/185 555/1/185
f 556/1/186 557/1/186 558/1/186
f 559/1/187 560/1/187 561/1/187
f 562/1/188 563/1/188 564/1/188
f 565/1/189 566/1/189 567/1/189
f 568/1/190 569/1/190 570/1/190
f 571/1/191 572/1/191 573/1/191
f 574/1/192 575/1/192 576/1/192
f 577/1/193 578/1/193 579/1/193
f 580/1/194 581/1/194 582/1/194
f 583/1/195 584/1/195 585/1/195
f 586/1/196 587/1/196 588/1/196
f 589/1/197 590/1/197 591/1/197
f 592/1/198 593/1/198 594/1/198
f 595/1/199 596/1/199 597/1/199
f 598/1/200 599/1/200 600/1/200
f 601/1/201 602/1/201 603/1/201
f 604/1/202 605/1/202 606/1/202
f 607/1/203 608/1/203 609/1/203
f 610/1/204 611/1/204 612/1/204
f 613/1/205 614/1/205 615/1/205
f 616/1/206 617/1/206 618/1/206
f 619/1/207 620/1/207 621/1/207
f 622/1/208 623/1/208 624/1/208
f 625/1/209 626/1/209 627/1/209
f 628/1/210 629/1/210 630/1/210
f 631/1/211 632/1/211 633/1/211
f 634/1/212 635/1/212 636/1/212
f 637/1/213 638/1/213 639/1/213
f 640/1/214 641/1/214 642/1/214
f 643/1/215 644/1/215 645/1/215
f 646/1/216 647/1/216 648/1/216
f 649/1/217 650/1/217 651/1/217
f 652/1/218 653/1/218 654/1/218
f 655/1/219 656/1/219 657/1/219
f 658/1/220 659/1/220 660/1/220
f 661/1/221 662/1/221 663/1/221
f 664/1/222 665/1/222 666/1/222
f 667/1/223 668/1/223 669/1/223
f 670/1/224 671/1/224 672/1/224
f 673/1/225 674/1/225 675/1/225
f 676/1/226 677/1/226 678/1/226
f 679/2/227 680/2/227 681/2/227
f 682/3/228 683/3/228 684/3/228
f 685/3/229 686/3/229 687/3/229
f 688/3/230 689/3/230 690/3/230
f 691/3/231 692/3/231 693/3/231
f 694/4/232 695/4/232 696/4/232
f 697/3/233 698/3/233 699/3/233
f 700/3/234 701/3/234 702/3/234
f 703/3/235 704/3/235 705/3/235
f 706/3/236 707/3/236 708/3/236
f 709/4/237 710/4/237 711/4/237
f 712/4/238 713/4/238 714/4/238
f 715/3/239 716/3/239 717/3/239
f 718/4/240 719/4/240 720/4/240
f 721/4/241 722/4/241 723/4/241
f 724/4/242 725/4/242 726/4/242
f 727/4/243 728/4/243 729/4/243
f 730/4/244 731/4/244 732/4/244
f 733/4/245 734/4/245 735/4/245
f 736/3/246 737/3/246 738/3/246
f 739/3/247 740/3/247 741/3/247
f 742/4/248 743/4/248 744/4/248
f 745/4/249 746/4/249 747/4/249
f 748/4/250 749/4/250 750/4/250
f 751/5/251 752/5/251 753/5/251
f 754/5/252 755/5/252 756/5/252
f 757/5/253 758/5/253 759/5/253
f 760/4/254 761/4/254 762/4/254
f 763/4/255 764/4/255 765/4/255
f 766/5/256 767/5/256 768/5/256
f 769/5/257 770/5/257 771/5/257
f 772/5/258 773/5/258 774/5/258
f 775/4/259 776/4/259 777/4/259
f 778/4/260 779/4/260 780/4/260
f 781/4/261 782/4/261 783/4/261
f 784/4/262 785/4/262 786/4/262
f 787/4/263 788/4/263 789/4/263
f 790/4/264 791/4/264 792/4/264
f 793/3/265 794/3/265 795/3/265
f 796/3/266 797/3/266 798/3/266
f 799/3/267 800/3/267 801/3/267
f 802/3/268 803/3/268 804/3/268
f 805/3/269 806/3/269 807/3/269
f 808/3/270 809/3/270 810/3/270
f 811/3/271 812/3/271 813/3/271
f 814/3/272 815/3/272 816/3/272
f 817/3/273 818/3/273 819/3/273
f 820/3/274 821/3/274 822/3/274
f 823/4/275 824/4/275 825/4/275
f 826/4/276 827/4/276 828/4/276
f 829/3/277 830/3/277 831/3/277
f 832/4/278 833/4/278 834/4/278
f 835/4/279 836/4/279 837/4/279
f 838/4/280 839/4/280 840/4/280
f 841/4/281 842/4/281 843/4/281
f 844/4/282 845/4/282 846/4/282
f 847/4/283 848/4/283 849/4/283
f 850/3/284 851/3/284 852/3/284
f 853/3/285 854/3/285 855/3/285
f 856/3/286 857/3/286 858/3/286
f 859/3/287 860/3/287 861/3/287
f 862/3/288 863/3/288 864/3/288
f 865/3/289 866/3/289 867/3/289
f 868/3/290 869/3/290 870/3/290
f 871/3/291 872/3/291 873/3/291
f 874/3/292 875/3/292 876/3/292
f 877/3/293 878/3/293 879/3/293
f 880/3/294 881/3/294 882/3/294
f 883/3/295 884/3/295 885/3/295
f 886/3/296 887/3/296 888/3/296
f 889/3/297 890/3/297 891/3/297
f 892/3/298 893/3/298 894/3/298
f 895/3/299 896/3/299 897/3/299
f 898/3/300 899/3/300 900/3/300
f 901/3/301 902/3/301 903/3/301
f 904/3/302 905/3/302 906/3/302
f 907/3/303 908/3/303 909/3/303
f 910/6/304 911/6/304 912/6/304
f 913/6/305 914/6/305 915/6/305
f 916/6/306 917/6/306 918/6/306
f 919/6/307 920/6/307 921/6/307
f 922/6/308 923/6/308 924/6/308
f 925/6/309 926/6/309 927/6/309
f 928/6/310 929/6/310 930/6/310
f 931/6/311 932/6/311 933/6/311
f 934/6/312 935/6/312 936/6/312
f 937/6/313 938/6/313 939/6/313
f 940/6/314 941/6/314 942/6/314
f 943/6/315 944/6/315 945/6/315
f 946/6/316 947/6/316 948/6/316
f 949/1/317 950/1/317 951/1/317
f 952/1/318 953/1/318 954/1/318
f 955/1/319 956/1/319 957/1/319
f 958/1/320 959/1/320 960/1/320
f 961/1/321 962/1/321 963/1/321
f 964/2/322 965/2/322 966/2/322
f 967/5/323 968/5/323 969/5/323
f 967/5/323 969/5/323 970/5/323
f 971/5/324 972/5/325 973/5/325
f 971/5/324 973/5/325 974/5/326
f 975/5/327 976/5/328 977/5/329
f 975/5/327 977/5/329 978/5/330
f 979/5/331 980/5/332 981/5/332
f 979/5/331 981/5/332 982/5/333
f 983/5/334 984/5/335 985/5/336
f 983/5/334 985/5/336 986/5/337
f 987/5/338 988/5/339 989/5/339
f 987/5/338 989/5/339 990/5/338
f 991/7/340 992/7/340 993/7/340
f 991/7/340 993/7/340 994/7/340
f 995/7/341 996/7/342 997/7/342
f 995/7/341 997/7/342 998/7/343
f 999/7/344 1000/7/345 1001/7/346
f 999/7/344 1001/7/346 1002/7/345
f 1003/7/347 1004/7/348 1005/7/349
f 1003/7/347 1005/7/349 1006/7/347
f 1007/7/350 1008/7/350 1009/7/350
f 1007/7/350 1009/7/350 1010/7/351
f 1011/7/352 1012/7/353 1013/7/354
f 1011/7/352 1013/7/354 1014/7/355
f 1015/7/356 1016/7/356 1017/7/357
f 1015/7/356 1017/7/357 1018/7/358
f 1019/7/359 1020/7/359 1021/7/359
f 1019/7/359 1021/7/359 1022/7/359
f 1023/7/360 1024/7/360 1025/7/361
f 1023/7/360 1025/7/361 1026/7/360
f 1027/7/362 1028/7/362 1029/7/363
f 1027/7/362 1029/7/363 1030/7/364
f 1031/7/365 1032/7/365 1033/7/366
f 1031/7/365 1033/7/366 1034/7/366
f 1035/7/367 1036/7/367 1037/7/367
f 1035/7/367 1037/7/367 1038/7/367
f 1039/7/368 1040/7/368 1041/7/369
f 1039/7/368 1041/7/369 1042/7/369
f 1043/7/370 1044/7/371 1045/7/371
f 1043/7/370 1045/7/371 1046/7/370
f 1047/7/372 1048/7/372 1049/7/372
f 1047/7/372 1049/7/372 1050/7/372
f 1051/7/373 1052/7/374 1053/7/375
f 1051/7/373 1053/7/375 1054/7/376
f 1055/2/377 1056/2/378 1057/2/378
f 1055/2/377 1057/2/378 1058/2/379
f 1059/2/380 1060/2/381 1061/2/380
f 1059/2/380 1061/2/380 1062/2/380
f 1063/2/382 1064/2/383 1065/2/382
f 1063/2/382 1065/2/382 1066/2/382
f 1067/2/384 1068/2/384 1069/2/384
f 1067/2/384 1069/2/384 1070/2/385
f 1071/2/386 1072/2/386 1073/2/386
f 1071/2/386 1073/2/386 1074/2/386
f 1075/2/387 1076/2/387 1077/2/387
f 1075/2/387 1077/2/387 1078/2/387
f 1079/2/388 1080/2/389 1081/2/390
f 1079/2/388 1081/2/390 1082/2/391
f 1083/2/392 1084/2/393 1085/2/394
f 1083/2/392 1085/2/394 1086/2/393
f 1087/2/395 1088/2/395 1089/2/396
f 1087/2/395 1089/2/396 1090/2/395
f 1091/2/397 1092/2/398 1093/2/399
f 1091/2/397 1093/2/399 1094/2/397
f 1095/2/400 1096/2/400 1097/2/401
f 1095/2/400 1097/2/401 1098/2/402
f 1099/2/403 1100/2/403 1101/2/403
f 1099/2/403 1101/2/403 1102/2/403
f 1103/2/404 1104/2/404 1105/2/404
f 1103/2/404 1105/2/404 1106/2/404
f 1107/2/405 1108/2/405 1109/2/405
f 1107/2/405 1109/2/405 1110/2/405
f 1111/2/406 1112/2/406 1113/2/406
f 1111/2/406 1113/2/406 1114/2/406
f 1115/2/407 1116/2/408 1117/2/407
f 1115/2/407 1117/2/407 1118/2/407
f 1119/2/409 1120/2/410 1121/2/409
f 1119/2/409 1121/2/409 1122/2/409
f 1123/2/411 1124/2/412 1125/2/413
f 1123/2/411 1125/2/413 1126/2/411
f 1127/2/414 1128/2/415 1129/2/415
f 1127/2/414 1129/2/415 1130/2/416
f 1131/2/417 1132/2/418 1133/2/418
f 1131/2/417 1133/2/418 1134/2/419
f 1135/1/420 1136/1/420 1137/1/420
f 1135/1/420 1137/1/420 1138/1/420
f 1139/1/421 1140/1/421 1141/1/421
f 1139/1/421 1141/1/421 1142/1/422
f 1143/1/423 1144/1/423 1145/1/424
f 1143/1/423 1145/1/424 1146/1/425
f 1147/1/426 1148/1/427 1149/1/428
f 1147/1/426 1149/1/428 1150/1/428
f 1151/1/429 1152/1/430 1153/1/431
f 1151/1/429 1153/1/431 1154/1/429
f 1155/1/432 1156/1/433 1157/1/432
f 1155/1/432 1157/1/432 1158/1/434
f 1159/1/435 1160/1/436 1161/1/436
f 1159/1/435 1161/1/436 1162/1/437
f 1163/1/438 1164/1/439 1165/1/439
f 1163/1/438 1165/1/439 1166/1/440
f 1167/1/441 1168/1/441 1169/1/441
f 1167/1/441 1169/1/441 1170/1/442
f 1171/1/443 1172/1/444 1173/1/444
f 1171/1/443 1173/1/444 1174/1/445
f 1175/1/446 1176/1/446 1177/1/447
f 1175/1/446 1177/1/447 1178/1/448
f 1179/1/449 1180/1/449 1181/1/449
f 1179/1/449 1181/1/449 1182/1/449
f 1183/1/450 1184/1/450 1185/1/450
f 1183/1/450 1185/1/450 1186/1/450
f 1187/1/451 1188/1/452 1189/1/451
f 1187/1/451 1189/1/451 1190/1/451
f 1191/1/453 1192/1/454 1193/1/454
f 1191/1/453 1193/1/454 1194/1/453
f 1195/1/455 1196/1/456 1197/1/457
f 1195/1/455 1197/1/457 1198/1/457
f 1199/1/458 1200/1/459 1201/1/459
f 1199/1/458 1201/1/459 1202/1/458
f 1203/1/460 1204/1/460 1205/1/461
f 1203/1/460 1205/1/461 1206/1/461
f 1207/1/462 1208/1/462 1209/1/462
f 1207/1/462 1209/1/462 1210/1/463
f 1211/1/464 1212/1/464 1213/1/464
f 1211/1/464 1213/1/464 1214/1/464
f 1215/1/465 1216/1/465 1217/1/465
f 1215/1/465 1217/1/465 1218/1/465
f 1219/1/466 1220/1/466 1221/1/466
f 1219/1/466 1221/1/466 1222/1/466
f 1223/1/467 1224/1/467 1225/1/467
f 1223/1/467 1225/1/467 1226/1/467
f 1227/1/468 1228/1/469 1229/1/469
f 1227/1/468 1229/1/469 1230/1/468
f 1231/1/470 1232/1/470 1233/1/470
f 1231/1/470 1233/1/470 1234/1/470
f 1235/1/471 1236/1/472 1237/1/472
f 1235/1/471 1237/1/472 1238/1/471
f 1239/1/473 1240/1/473 1241/1/473
f 1239/1/473 1241/1/473 1242/1/473
f 1243/1/474 1244/1/474 1245/1/474
f 1243/1/474 1245/1/474 1246/1/475
f 1247/1/476 1248/1/477 1249/1/477
f 1247/1/476 1249/1/477 1250/1/478
f 1251/1/479 1252/1/480 1253/1/479
f 1251/1/479 1253/1/479 1254/1/481
f 1255/1/482 1256/1/482 1257/1/482
f 1255/1/482 1257/1/482 1258/1/482
f 1259/1/483 1260/1/484 1261/1/484
f 1259/1/483 1261/1/484 1262/1/483
