# Blender 4.5.4 LTS
# www.blender.org
mtllib tree2_log.mtl
o Tree_winding_01_Material_0.001
v 0.290475 -3.168775 -1.038242
v 0.153750 -2.994374 -1.036256
v 0.317208 -2.772317 -1.072069
v -0.160702 -1.787684 -0.399220
v 0.031721 -2.674141 -0.899718
v -0.260487 -1.792870 -0.429303
v -0.364899 -1.854108 -0.330236
v -0.105833 -2.722328 -0.673746
v -0.420364 -1.850723 -0.212850
v -0.095762 -1.839980 -0.336253
v -0.147175 -1.825155 -0.182664
v 0.185866 -2.522267 -0.742063
v 0.031721 -2.674141 -0.899718
v -0.103391 -2.689506 -0.768443
v -0.364899 -1.854108 -0.330236
v -0.243806 -1.848788 -0.104613
v -0.027782 -2.695759 -0.590252
v 0.097188 -2.683704 -0.589208
v -0.147175 -1.825155 -0.182664
v 0.097188 -2.683704 -0.589208
v 0.198092 -2.659885 -0.663012
v 0.185866 -2.522267 -0.742063
v 0.198092 -2.659885 -0.663012
v 0.319925 -2.643721 -0.860436
v 0.339880 -3.043364 -0.951672
v 0.289679 -3.181435 -0.755095
v 0.448488 -3.327255 -0.947300
v -0.306283 0.280501 0.851168
v -0.343906 0.285438 0.869393
v -0.256177 0.352361 0.876470
v 0.290475 -3.168775 -1.038242
v 0.133057 -3.265535 -1.051924
v 0.153750 -2.994374 -1.036256
v -0.017375 -3.142273 -0.950260
v -0.081018 -3.680994 -0.845246
v -0.077680 -3.118127 -0.793815
v -0.336367 -1.631610 -0.426632
v -0.246192 -1.652825 -0.480177
v -0.260487 -1.792870 -0.429303
v 0.105064 -3.152779 -0.645897
v 0.041162 -3.690724 -0.619181
v 0.296749 -3.745847 -0.549387
v -0.285872 0.315028 0.954447
v -0.221636 0.301902 1.002243
v -0.226870 0.360592 0.965479
v -0.045815 0.053826 -0.406222
v -0.039998 0.063486 -0.468965
v -0.033987 0.063659 -0.533986
v 0.448488 -3.327255 -0.947300
v 0.554251 -3.853453 -0.647777
v 0.515615 -3.749563 -0.919793
v 0.133057 -3.265535 -1.051924
v -0.051249 -3.768653 -1.088512
v -0.017375 -3.142273 -0.950260
v 0.515615 -3.749563 -0.919793
v 0.554251 -3.853453 -0.647777
v 0.663146 -4.548780 -0.820310
v 0.198092 -2.659885 -0.663012
v 0.391436 -2.705732 -0.861648
v 0.319925 -2.643721 -0.860436
v 0.663146 -4.548780 -0.820310
v 0.494382 -4.497172 -1.163528
v 0.425195 -3.871249 -1.141918
v 0.003567 0.051509 -0.526753
v 0.040689 0.053711 -0.532008
v 0.095543 0.013623 -0.465398
v 0.768999 -2.141753 -1.015736
v 0.744209 -2.114727 -1.117074
v 0.705446 -2.123389 -1.078012
v -0.091805 0.488110 -0.183964
v -0.105902 0.478275 -0.132673
v -0.075585 0.471432 -0.139085
v -0.123240 0.489242 -0.160214
v -0.105902 0.478275 -0.132673
v -0.091805 0.488110 -0.183964
v 0.259748 0.449823 -1.051356
v 0.300658 0.428721 -1.088599
v 0.259410 0.430328 -1.086558
v 0.303149 0.442295 -1.049009
v 0.300658 0.428721 -1.088599
v 0.259748 0.449823 -1.051356
v -0.420364 -1.850723 -0.212850
v -0.397638 -1.819509 -0.105142
v -0.667649 -1.612091 0.098643
v -0.042405 0.600633 1.542044
v -0.008767 0.607311 1.521782
v -0.015695 0.605074 1.517753
v -0.364899 -1.854108 -0.330236
v -0.336367 -1.631610 -0.426632
v -0.260487 -1.792870 -0.429303
v -0.220726 0.318287 0.976163
v -0.199159 0.315034 0.938192
v -0.173236 0.321199 0.925030
v -0.173236 0.321199 0.925030
v -0.133155 0.312304 0.940869
v -0.172835 0.356060 0.900805
v -0.374441 -1.757851 -0.003960
v -0.147175 -1.825155 -0.182664
v -0.318729 -1.704096 -0.010054
v -0.147175 -1.825155 -0.182664
v -0.122686 -1.667562 -0.274086
v -0.096227 -1.582831 -0.272785
v -0.137296 0.388429 -0.303887
v -0.124518 0.372820 -0.284104
v -0.128019 0.389733 -0.318238
v 0.192676 -2.743100 -1.040690
v 0.317208 -2.772317 -1.072069
v 0.153750 -2.994374 -1.036256
v -0.122686 -1.667562 -0.274086
v -0.160702 -1.787684 -0.399220
v -0.152611 -1.655641 -0.401573
v -0.160702 -1.787684 -0.399220
v -0.260487 -1.792870 -0.429303
v -0.246192 -1.652825 -0.480177
v -0.103391 -2.689506 -0.768443
v -0.017375 -3.142273 -0.950260
v -0.077680 -3.118127 -0.793815
v -0.027782 -2.695759 -0.590252
v -0.105833 -2.722328 -0.673746
v 0.105064 -3.152779 -0.645897
v -0.281672 0.344619 0.907085
v -0.343906 0.285438 0.869393
v -0.285872 0.315028 0.954447
v -0.256177 0.352361 0.876470
v -0.220649 0.311226 0.882018
v -0.306283 0.280501 0.851168
v 0.091393 0.066086 -0.354075
v 0.148385 0.062227 -0.406794
v 0.017483 0.118611 -0.370930
v -0.200875 0.281541 1.012497
v -0.221636 0.301902 1.002243
v -0.311153 0.219489 0.954358
v -0.221636 0.301902 1.002243
v -0.285872 0.315028 0.954447
v -0.311153 0.219489 0.954358
v -0.124518 0.372820 -0.284104
v -0.152553 0.319205 -0.301468
v -0.146319 0.362878 -0.334234
v 0.050804 0.105940 -0.484629
v 0.017483 0.118611 -0.370930
v 0.148385 0.062227 -0.406794
v -0.161571 0.350096 -0.277487
v -0.152553 0.319205 -0.301468
v -0.124518 0.372820 -0.284104
v -0.086348 0.570294 -0.372952
v -0.069349 0.573007 -0.329415
v -0.042386 0.565594 -0.371772
v -0.397638 -1.819509 -0.105142
v -0.420364 -1.850723 -0.212850
v -0.027782 -2.695759 -0.590252
v -0.523922 -1.569087 -0.095286
v -0.542594 -1.649567 -0.146212
v -0.671964 -1.520665 0.109246
v -0.347373 -1.622791 -0.026542
v -0.318729 -1.704096 -0.010054
v -0.252071 -1.636098 -0.130456
v -0.667649 -1.612091 0.098643
v -0.397638 -1.819509 -0.105142
v -0.679279 -1.492731 0.375283
v -0.671964 -1.520665 0.109246
v -0.667649 -1.612091 0.098643
v -0.743759 -1.397877 0.371147
v -0.460805 -1.338112 0.314597
v -0.444687 -1.514989 0.259863
v -0.347373 -1.622791 -0.026542
v -0.679279 -1.492731 0.375283
v -0.533947 -1.535042 0.334341
v -0.516477 -1.084209 0.738314
v -0.651343 -1.351144 0.216065
v -0.671964 -1.520665 0.109246
v -0.722369 -1.241244 0.401165
v -0.674258 -0.888917 0.821596
v -0.679279 -1.492731 0.375283
v -0.559724 -0.861044 0.920989
v -0.722369 -1.241244 0.401165
v -0.743759 -1.397877 0.371147
v -0.674258 -0.888917 0.821596
v -0.580973 -0.862451 0.627208
v -0.445306 -0.829145 0.656463
v -0.651343 -1.351144 0.216065
v -0.445306 -0.829145 0.656463
v -0.460805 -1.338112 0.314597
v -0.531381 -1.360389 0.212270
v -0.580973 -0.862451 0.627208
v -0.722369 -1.241244 0.401165
v -0.646761 -0.841479 0.743796
v -0.321086 -0.828335 0.736023
v -0.416392 -1.037435 0.679153
v -0.460805 -1.338112 0.314597
v -0.096227 -1.582831 -0.272785
v -0.122686 -1.667562 -0.274086
v 0.023442 -1.417166 -0.481899
v -0.166515 -1.554462 -0.251836
v -0.332348 -1.553097 -0.205717
v -0.252071 -1.636098 -0.130456
v -0.318802 -1.477159 -0.376087
v -0.336367 -1.631610 -0.426632
v -0.445801 -1.579578 -0.241478
v -0.090638 -1.330687 -0.388649
v -0.196032 -1.354280 -0.410314
v -0.166515 -1.554462 -0.251836
v -0.196032 -1.354280 -0.410314
v -0.318802 -1.477159 -0.376087
v -0.332348 -1.553097 -0.205717
v -0.235992 -1.402268 -0.558520
v -0.318802 -1.477159 -0.376087
v -0.268015 -1.314536 -0.492602
v -0.174731 -0.928687 -0.489415
v -0.196032 -1.354280 -0.410314
v -0.090638 -1.330687 -0.388649
v -0.079961 -0.995695 -0.762827
v -0.138596 -1.413321 -0.599942
v -0.244764 -0.961363 -0.783195
v -0.089704 -0.901428 -0.585698
v -0.174731 -0.928687 -0.489415
v 0.005011 -1.316207 -0.452234
v -0.015924 -1.014553 -0.673833
v 0.005011 -1.316207 -0.452234
v 0.023442 -1.417166 -0.481899
v -0.138596 -1.413321 -0.599942
v -0.235992 -1.402268 -0.558520
v -0.306164 -1.019084 -0.698100
v -0.210568 -0.565511 -0.686073
v -0.089704 -0.901428 -0.585698
v -0.015924 -1.014553 -0.673833
v -0.429088 -0.624032 -0.534618
v -0.362629 -0.916237 -0.606453
v -0.285652 -0.918564 -0.523170
v -0.244764 -0.961363 -0.783195
v -0.306164 -1.019084 -0.698100
v -0.527708 -0.585314 -0.688375
v -0.210568 -0.565511 -0.686073
v -0.079961 -0.995695 -0.762827
v -0.312314 -0.544710 -0.745107
v -0.248243 -0.556910 -0.566714
v -0.312727 -0.618510 -0.528960
v -0.089704 -0.901428 -0.585698
v -0.527708 -0.585314 -0.688375
v -0.362629 -0.916237 -0.606453
v -0.514635 -0.595987 -0.615782
v -0.559724 -0.861044 0.920989
v -0.516477 -1.084209 0.738314
v -0.256508 -0.684429 1.071070
v -0.268108 -0.498906 0.931865
v -0.445306 -0.829145 0.656463
v -0.580973 -0.862451 0.627208
v -0.283355 -0.505367 1.131584
v -0.256508 -0.684429 1.071070
v 0.012306 -0.482462 1.110076
v -0.268108 -0.498906 0.931865
v -0.646761 -0.841479 0.743796
v -0.261368 -0.442133 1.034841
v 0.009516 -0.517536 0.938839
v -0.031538 -0.555243 1.053195
v -0.321086 -0.828335 0.736023
v -0.106356 -0.404988 1.063248
v -0.283355 -0.505367 1.131584
v 0.004295 -0.408116 1.092023
v -0.261368 -0.442133 1.034841
v -0.283355 -0.505367 1.131584
v -0.106356 -0.404988 1.063248
v 0.090893 -0.332521 0.750935
v -0.089285 -0.480166 0.907177
v -0.268108 -0.498906 0.931865
v 0.004295 -0.408116 1.092023
v 0.012306 -0.482462 1.110076
v 0.331269 -0.382082 0.849681
v 0.090893 -0.332521 0.750935
v -0.261368 -0.442133 1.034841
v 0.194801 -0.262141 0.700795
v 0.373595 -0.415044 0.590991
v 0.352032 -0.411707 0.769778
v 0.009516 -0.517536 0.938839
v 0.364900 -0.317335 0.731415
v 0.331269 -0.382082 0.849681
v 0.526493 -0.324841 0.480536
v 0.389164 -0.238178 0.335982
v 0.343198 -0.293363 0.368301
v 0.194801 -0.262141 0.700795
v 0.448466 -0.331664 0.207447
v 0.373595 -0.415044 0.590991
v 0.260682 -0.381027 0.598824
v 0.343198 -0.293363 0.368301
v 0.260682 -0.381027 0.598824
v 0.090893 -0.332521 0.750935
v 0.521535 -0.190086 0.218461
v 0.364900 -0.317335 0.731415
v 0.609361 -0.192052 0.101222
v 0.586327 -0.308311 0.036935
v 0.540654 -0.361683 0.394585
v 0.373595 -0.415044 0.590991
v 0.609361 -0.192052 0.101222
v 0.526493 -0.324841 0.480536
v 0.653189 -0.226263 0.017747
v 0.476991 -0.179091 0.000919
v 0.464657 -0.223603 -0.004392
v 0.389164 -0.238178 0.335982
v 0.512453 -0.260397 -0.086817
v 0.586327 -0.308311 0.036935
v 0.448466 -0.331664 0.207447
v 0.464657 -0.223603 -0.004392
v 0.448466 -0.331664 0.207447
v 0.343198 -0.293363 0.368301
v 0.653189 -0.226263 0.017747
v 0.635567 -0.279021 0.024093
v 0.609426 -0.223612 -0.282599
v 0.456118 -0.152194 -0.302317
v 0.444419 -0.181604 -0.348654
v 0.476991 -0.179091 0.000919
v 0.508425 -0.125983 -0.280282
v 0.476991 -0.179091 0.000919
v 0.521535 -0.190086 0.218461
v 0.534021 -0.219555 -0.412655
v 0.512453 -0.260397 -0.086817
v 0.469127 -0.209149 -0.400865
v 0.444419 -0.181604 -0.348654
v 0.512453 -0.260397 -0.086817
v 0.464657 -0.223603 -0.004392
v 0.609426 -0.223612 -0.282599
v 0.586327 -0.308311 0.036935
v 0.534021 -0.219555 -0.412655
v 0.508425 -0.125983 -0.280282
v 0.609361 -0.192052 0.101222
v 0.554457 -0.135973 -0.304396
v 0.588713 -0.168198 -0.342561
v 0.609426 -0.223612 -0.282599
v 0.550390 -0.180615 -0.411228
v -0.623632 -0.457883 -0.170351
v -0.514635 -0.595987 -0.615782
v -0.429088 -0.624032 -0.534618
v -0.248243 -0.556910 -0.566714
v -0.210568 -0.565511 -0.686073
v -0.492087 -0.320161 -0.217358
v -0.527708 -0.585314 -0.688375
v -0.514635 -0.595987 -0.615782
v -0.750099 -0.414057 -0.121799
v -0.502849 -0.354368 -0.106818
v -0.547836 -0.413680 -0.109275
v -0.248243 -0.556910 -0.566714
v -0.547836 -0.413680 -0.109275
v -0.502849 -0.354368 -0.106818
v -0.647752 -0.254890 0.284405
v -0.674964 -0.188187 0.322560
v -0.604394 -0.306455 -0.229016
v -0.744321 -0.185890 0.303033
v -0.647752 -0.254890 0.284405
v -0.492087 -0.320161 -0.217358
v -0.674964 -0.188187 0.322560
v -0.846916 -0.215452 0.415977
v -0.823749 -0.206989 0.294251
v -0.829246 -0.309091 0.012932
v -0.843079 -0.283795 0.390218
v -0.829246 -0.309091 0.012932
v -0.750099 -0.414057 -0.121799
v -0.697418 -0.273384 0.431834
v -0.647752 -0.254890 0.284405
v -0.633899 -0.132512 0.579755
v -0.843079 -0.283795 0.390218
v -0.771623 -0.311089 0.386415
v -0.722449 -0.180826 0.629818
v -0.722449 -0.180826 0.629818
v -0.697418 -0.273384 0.431834
v -0.589820 -0.031781 0.795265
v -0.773973 -0.119645 0.607316
v -0.766227 -0.108568 0.536018
v -0.846916 -0.215452 0.415977
v -0.763914 -0.148562 0.645878
v -0.846916 -0.215452 0.415977
v -0.843079 -0.283795 0.390218
v -0.589820 -0.031781 0.795265
v -0.633899 -0.132512 0.579755
v -0.532631 0.035150 0.778335
v -0.763914 -0.148562 0.645878
v -0.722449 -0.180826 0.629818
v -0.610020 -0.003521 0.839463
v -0.657585 0.041862 0.800417
v -0.645716 0.070576 0.756015
v -0.773973 -0.119645 0.607316
v -0.627851 0.036197 0.851352
v -0.657585 0.041862 0.800417
v -0.763914 -0.148562 0.645878
v -0.532631 0.035150 0.778335
v -0.551747 0.058675 0.738796
v -0.289771 0.245495 0.854650
v -0.311153 0.219489 0.954358
v -0.627851 0.036197 0.851352
v -0.610020 -0.003521 0.839463
v -0.306283 0.280501 0.851168
v -0.289771 0.245495 0.854650
v -0.600015 0.075909 0.732258
v -0.222137 0.257426 0.952690
v -0.187206 0.272938 0.926910
v -0.008455 0.334330 1.081384
v 0.004657 0.355468 1.185805
v -0.221636 0.301902 1.002243
v -0.200875 0.281541 1.012497
v 0.039359 0.352644 1.191729
v 0.004657 0.355468 1.185805
v -0.222137 0.257426 0.952690
v -0.019378 0.368501 1.187296
v -0.220726 0.318287 0.976163
v -0.221636 0.301902 1.002243
v 0.021327 0.393060 1.120878
v -0.199159 0.315034 0.938192
v -0.010799 0.385710 1.131041
v -0.133155 0.312304 0.940869
v -0.173236 0.321199 0.925030
v 0.021327 0.393060 1.120878
v 0.072289 0.370663 1.208872
v 0.039359 0.352644 1.191729
v -0.008455 0.334330 1.081384
v -0.010799 0.385710 1.131041
v -0.220726 0.318287 0.976163
v -0.008379 0.393781 1.194643
v -0.008455 0.334330 1.081384
v -0.133155 0.312304 0.940869
v 0.058869 0.383778 1.159930
v 0.021327 0.393060 1.120878
v -0.010799 0.385710 1.131041
v 0.054243 0.437753 1.358889
v -0.008379 0.393781 1.194643
v -0.019378 0.368501 1.187296
v 0.041903 0.430287 1.413307
v 0.058869 0.383778 1.159930
v 0.021327 0.393060 1.120878
v 0.081148 0.437031 1.361365
v 0.100699 0.419199 1.389380
v 0.070729 0.406531 1.416631
v 0.072289 0.370663 1.208872
v 0.070729 0.406531 1.416631
v 0.004657 0.355468 1.185805
v 0.039359 0.352644 1.191729
v 0.070729 0.406531 1.416631
v 0.041903 0.430287 1.413307
v 0.004657 0.355468 1.185805
v 0.054243 0.437753 1.358889
v -0.008379 0.393781 1.194643
v 0.036826 0.439077 1.390818
v 0.100699 0.419199 1.389380
v 0.072289 0.370663 1.208872
v 0.058869 0.383778 1.159930
v 0.508425 -0.125983 -0.280282
v 0.554457 -0.135973 -0.304396
v 0.366849 -0.009815 -0.371658
v 0.554457 -0.135973 -0.304396
v 0.588713 -0.168198 -0.342561
v 0.383866 -0.030114 -0.418315
v 0.285693 -0.082734 -0.458721
v 0.324465 -0.072988 -0.485066
v 0.469127 -0.209149 -0.400865
v 0.271042 -0.065361 -0.411843
v 0.469127 -0.209149 -0.400865
v 0.444419 -0.181604 -0.348654
v 0.550390 -0.180615 -0.411228
v 0.534021 -0.219555 -0.412655
v 0.324465 -0.072988 -0.485066
v 0.332269 -0.027429 -0.344246
v 0.296316 -0.050199 -0.363201
v 0.508425 -0.125983 -0.280282
v 0.383866 -0.030114 -0.418315
v 0.550390 -0.180615 -0.411228
v 0.346371 -0.052923 -0.463765
v 0.346371 -0.052923 -0.463765
v 0.324465 -0.072988 -0.485066
v 0.095543 0.013623 -0.465398
v 0.052238 0.061079 -0.338539
v 0.366849 -0.009815 -0.371658
v 0.091393 0.066086 -0.354075
v 0.366849 -0.009815 -0.371658
v 0.383866 -0.030114 -0.418315
v 0.148385 0.062227 -0.406794
v -0.044331 0.070635 -0.354734
v 0.271042 -0.065361 -0.411843
v 0.296316 -0.050199 -0.363201
v -0.045815 0.053826 -0.406222
v 0.028920 0.029508 -0.443016
v 0.271042 -0.065361 -0.411843
v -0.207152 0.221298 -0.275550
v -0.044331 0.070635 -0.354734
v 0.052238 0.061079 -0.338539
v -0.026635 0.084571 -0.426798
v -0.039998 0.063486 -0.468965
v -0.084496 0.115147 -0.403109
v -0.183274 0.235771 -0.278209
v 0.017483 0.118611 -0.370930
v -0.163531 0.234285 -0.300701
v -0.228204 0.221833 -0.347346
v -0.084496 0.115147 -0.403109
v -0.045815 0.053826 -0.406222
v -0.168537 0.237063 -0.331815
v -0.026635 0.084571 -0.426798
v -0.191041 0.229990 -0.354524
v -0.191041 0.229990 -0.354524
v -0.084496 0.115147 -0.403109
v -0.228204 0.221833 -0.347346
v -0.204161 0.357795 -0.293389
v -0.209888 0.355453 -0.331822
v -0.232730 0.220587 -0.298169
v -0.188215 0.349997 -0.278109
v -0.232730 0.220587 -0.298169
v -0.207152 0.221298 -0.275550
v -0.188215 0.349997 -0.278109
v -0.183274 0.235771 -0.278209
v -0.161571 0.350096 -0.277487
v -0.183274 0.235771 -0.278209
v -0.163531 0.234285 -0.300701
v -0.152553 0.319205 -0.301468
v -0.195938 0.356179 -0.349239
v -0.167275 0.364112 -0.351974
v -0.228204 0.221833 -0.347346
v -0.226870 0.360592 0.965479
v -0.220726 0.318287 0.976163
v -0.185384 0.351412 0.959038
v -0.157313 0.562616 0.923954
v -0.281672 0.344619 0.907085
v -0.285872 0.315028 0.954447
v -0.117435 0.524959 0.869210
v -0.172835 0.356060 0.900805
v -0.220649 0.311226 0.882018
v -0.134179 0.566597 0.872703
v -0.117435 0.524959 0.869210
v -0.256177 0.352361 0.876470
v -0.057641 0.623720 0.924096
v -0.106468 0.537466 0.943710
v -0.173236 0.321199 0.925030
v -0.173236 0.321199 0.925030
v -0.172835 0.356060 0.900805
v -0.088542 0.537966 0.891994
v -0.226870 0.360592 0.965479
v -0.185384 0.351412 0.959038
v -0.106468 0.537466 0.943710
v -0.137339 0.545522 0.943261
v -0.157313 0.562616 0.923954
v -0.226870 0.360592 0.965479
v -0.134179 0.566597 0.872703
v -0.281672 0.344619 0.907085
v -0.105321 0.685853 0.923656
v -0.049122 0.684046 0.961086
v -0.106468 0.537466 0.943710
v -0.057641 0.623720 0.924096
v -0.088542 0.537966 0.891994
v -0.117435 0.524959 0.869210
v -0.072452 0.699782 0.911734
v -0.091998 0.694017 0.974565
v -0.157313 0.562616 0.923954
v -0.137339 0.545522 0.943261
v -0.067600 0.684832 0.976510
v -0.091998 0.694017 0.974565
v -0.106468 0.537466 0.943710
v -0.107176 0.701344 0.954801
v -0.105321 0.685853 0.923656
v -0.157313 0.562616 0.923954
v -0.054606 0.115970 -0.739844
v -0.033987 0.063659 -0.533986
v -0.039998 0.063486 -0.468965
v -0.028711 0.093117 -0.518685
v -0.039998 0.063486 -0.468965
v -0.026635 0.084571 -0.426798
v 0.050804 0.105940 -0.484629
v 0.057913 0.084915 -0.514381
v 0.027640 0.130131 -0.782281
v 0.057913 0.084915 -0.514381
v 0.040689 0.053711 -0.532008
v 0.011649 0.113708 -0.818952
v -0.037838 0.108767 -0.803592
v -0.011457 0.107986 -0.825163
v -0.033987 0.063659 -0.533986
v 0.011649 0.113708 -0.818952
v 0.003567 0.051509 -0.526753
v -0.011457 0.107986 -0.825163
v -0.020077 0.152983 -0.753378
v -0.028711 0.093117 -0.518685
v 0.014540 0.103787 -0.470600
v -0.020077 0.152983 -0.753378
v -0.054606 0.115970 -0.739844
v -0.028711 0.093117 -0.518685
v -0.188449 0.382941 -0.300691
v -0.168871 0.387667 -0.305092
v -0.069349 0.573007 -0.329415
v -0.092923 0.560837 -0.340992
v -0.086348 0.570294 -0.372952
v -0.188449 0.382941 -0.300691
v -0.086348 0.570294 -0.372952
v -0.195938 0.356179 -0.349239
v -0.209888 0.355453 -0.331822
v -0.086348 0.570294 -0.372952
v -0.167275 0.364112 -0.351974
v -0.195938 0.356179 -0.349239
v -0.128019 0.389733 -0.318238
v -0.146319 0.362878 -0.334234
v -0.042386 0.565594 -0.371772
v -0.069349 0.573007 -0.329415
v -0.137296 0.388429 -0.303887
v -0.042614 0.564602 -0.331834
v -0.069349 0.573007 -0.329415
v -0.086348 0.570294 -0.372952
v -0.092923 0.560837 -0.340992
v -0.049122 0.684046 0.961086
v -0.057641 0.623720 0.924096
v -0.020837 0.844746 0.931463
v -0.028690 0.831510 0.954587
v -0.067600 0.684832 0.976510
v -0.049122 0.684046 0.961086
v -0.076806 0.854975 0.944823
v -0.069318 0.860201 0.923428
v -0.107176 0.701344 0.954801
v -0.020837 0.844746 0.931463
v -0.044439 0.845961 0.908122
v -0.069318 0.860201 0.923428
v 0.081148 0.437031 1.361365
v 0.054243 0.437753 1.358889
v -0.015695 0.605074 1.517753
v -0.015695 0.605074 1.517753
v 0.036826 0.439077 1.390818
v -0.042405 0.600633 1.542044
v 0.072254 0.499142 1.458811
v 0.081148 0.437031 1.361365
v -0.008767 0.607311 1.521782
v 0.016996 0.584078 1.538383
v 0.003051 0.580560 1.563305
v 0.072254 0.499142 1.458811
v 0.003051 0.580560 1.563305
v 0.016996 0.584078 1.538383
v -0.008767 0.607311 1.521782
v 0.012846 0.205639 -0.878655
v -0.011457 0.107986 -0.825163
v -0.037838 0.108767 -0.803592
v 0.012846 0.205639 -0.878655
v -0.037838 0.108767 -0.803592
v -0.054606 0.115970 -0.739844
v 0.094498 0.310413 -0.902209
v -0.020077 0.152983 -0.753378
v 0.133225 0.335610 -0.909436
v 0.094498 0.310413 -0.902209
v 0.012846 0.205639 -0.878655
v -0.020077 0.152983 -0.753378
v 0.138525 0.304696 -0.962916
v 0.011649 0.113708 -0.818952
v -0.011457 0.107986 -0.825163
v 0.133225 0.335610 -0.909436
v 0.021380 0.146364 -0.761277
v 0.161374 0.334237 -0.916328
v 0.117061 0.304978 -0.958169
v 0.138525 0.304696 -0.962916
v 0.012846 0.205639 -0.878655
v 0.161374 0.334237 -0.916328
v 0.147783 0.290566 -0.921725
v 0.225443 0.369935 -0.989698
v 0.300658 0.428721 -1.088599
v 0.225443 0.369935 -0.989698
v 0.147783 0.290566 -0.921725
v 0.259748 0.449823 -1.051356
v 0.124721 0.334581 -0.955981
v 0.094498 0.310413 -0.902209
v 0.259410 0.430328 -1.086558
v 0.117061 0.304978 -0.958169
v 0.124721 0.334581 -0.955981
v -0.123240 0.489242 -0.160214
v -0.188449 0.382941 -0.300691
v -0.204161 0.357795 -0.293389
v -0.105902 0.478275 -0.132673
v -0.123240 0.489242 -0.160214
v -0.188215 0.349997 -0.278109
v -0.091805 0.488110 -0.183964
v -0.137296 0.388429 -0.303887
v -0.168871 0.387667 -0.305092
v -0.123240 0.489242 -0.160214
v -0.168871 0.387667 -0.305092
v -0.188449 0.382941 -0.300691
v -0.070021 0.473145 -0.177517
v -0.137296 0.388429 -0.303887
v -0.091805 0.488110 -0.183964
v 0.439065 -2.749459 -0.933168
v 0.402378 -2.781029 -1.013014
v 0.817326 -2.450159 -1.232089
v 0.770331 -2.438148 -1.271847
v 0.192676 -2.743100 -1.040690
v 0.724510 -2.410540 -1.271053
v 0.797485 -2.420920 -1.134588
v 0.439065 -2.749459 -0.933168
v 0.829253 -2.438142 -1.172418
v 0.724510 -2.410540 -1.271053
v 0.224807 -2.650223 -1.012092
v 0.694959 -2.387856 -1.231710
v 0.768999 -2.141753 -1.015736
v 0.747287 -2.394274 -1.130900
v 0.797485 -2.420920 -1.134588
v 0.694959 -2.387856 -1.231710
v 0.705622 -2.383056 -1.173921
v 0.705446 -2.123389 -1.078012
v 0.788248 -2.155386 -1.120919
v 0.812919 -2.149877 -1.051441
v 0.817326 -2.450159 -1.232089
v 0.817326 -2.450159 -1.232089
v 0.770331 -2.438148 -1.271847
v 0.788248 -2.155386 -1.120919
v 0.812919 -2.149877 -1.051441
v 0.768999 -2.141753 -1.015736
v 0.829253 -2.438142 -1.172418
v 0.768999 -2.141753 -1.015736
v 0.705446 -2.123389 -1.078012
v 0.747287 -2.394274 -1.130900
v -0.260487 -1.792870 -0.429303
v 0.031721 -2.674141 -0.899718
v -0.364899 -1.854108 -0.330236
v -0.027782 -2.695759 -0.590252
v -0.420364 -1.850723 -0.212850
v -0.105833 -2.722328 -0.673746
v -0.147175 -1.825155 -0.182664
v -0.243806 -1.848788 -0.104613
v 0.097188 -2.683704 -0.589208
v -0.095762 -1.839980 -0.336253
v -0.122686 -1.667562 -0.274086
v -0.147175 -1.825155 -0.182664
v -0.160702 -1.787684 -0.399220
v 0.130533 -2.593133 -0.864234
v 0.031721 -2.674141 -0.899718
v -0.364899 -1.854108 -0.330236
v -0.103391 -2.689506 -0.768443
v -0.105833 -2.722328 -0.673746
v 0.185866 -2.522267 -0.742063
v -0.147175 -1.825155 -0.182664
v 0.198092 -2.659885 -0.663012
v 0.185866 -2.522267 -0.742063
v 0.319925 -2.643721 -0.860436
v 0.130533 -2.593133 -0.864234
v 0.031721 -2.674141 -0.899718
v 0.130533 -2.593133 -0.864234
v 0.224807 -2.650223 -1.012092
v 0.339880 -3.043364 -0.951672
v 0.448488 -3.327255 -0.947300
v 0.290475 -3.168775 -1.038242
v 0.153750 -2.994374 -1.036256
v 0.133057 -3.265535 -1.051924
v -0.017375 -3.142273 -0.950260
v 0.105064 -3.152779 -0.645897
v -0.031581 -3.160463 -0.657037
v 0.041162 -3.690724 -0.619181
v -0.017375 -3.142273 -0.950260
v -0.051249 -3.768653 -1.088512
v -0.081018 -3.680994 -0.845246
v -0.220726 0.318287 0.976163
v -0.226870 0.360592 0.965479
v -0.221636 0.301902 1.002243
v 0.448488 -3.327255 -0.947300
v 0.289679 -3.181435 -0.755095
v 0.554251 -3.853453 -0.647777
v 0.133057 -3.265535 -1.051924
v 0.166916 -3.886607 -1.184354
v -0.051249 -3.768653 -1.088512
v 0.515615 -3.749563 -0.919793
v 0.663146 -4.548780 -0.820310
v 0.425195 -3.871249 -1.141918
v 0.097188 -2.683704 -0.589208
v 0.289679 -3.181435 -0.755095
v 0.198092 -2.659885 -0.663012
v 0.663146 -4.548780 -0.820310
v 0.554251 -3.853453 -0.647777
v 0.608101 -4.483483 -0.450563
v 0.744209 -2.114727 -1.117074
v 0.768999 -2.141753 -1.015736
v 0.812919 -2.149877 -1.051441
v -0.397638 -1.819509 -0.105142
v -0.243806 -1.848788 -0.104613
v -0.374441 -1.757851 -0.003960
v -0.069318 0.860201 0.923428
v -0.076806 0.854975 0.944823
v -0.057315 0.850035 0.967559
v -0.069318 0.860201 0.923428
v -0.057315 0.850035 0.967559
v -0.020837 0.844746 0.931463
v -0.374441 -1.757851 -0.003960
v -0.243806 -1.848788 -0.104613
v -0.147175 -1.825155 -0.182664
v -0.146319 0.362878 -0.334234
v -0.128019 0.389733 -0.318238
v -0.124518 0.372820 -0.284104
v -0.017375 -3.142273 -0.950260
v 0.192676 -2.743100 -1.040690
v 0.153750 -2.994374 -1.036256
v -0.122686 -1.667562 -0.274086
v -0.095762 -1.839980 -0.336253
v -0.160702 -1.787684 -0.399220
v -0.152611 -1.655641 -0.401573
v -0.160702 -1.787684 -0.399220
v -0.246192 -1.652825 -0.480177
v -0.103391 -2.689506 -0.768443
v 0.031721 -2.674141 -0.899718
v -0.017375 -3.142273 -0.950260
v 0.105064 -3.152779 -0.645897
v -0.105833 -2.722328 -0.673746
v -0.031581 -3.160463 -0.657037
v -0.256177 0.352361 0.876470
v -0.343906 0.285438 0.869393
v -0.281672 0.344619 0.907085
v -0.220649 0.311226 0.882018
v -0.172835 0.356060 0.900805
v -0.133155 0.312304 0.940869
v -0.220649 0.311226 0.882018
v -0.133155 0.312304 0.940869
v -0.187206 0.272938 0.926910
v 0.028920 0.029508 -0.443016
v 0.003567 0.051509 -0.526753
v 0.095543 0.013623 -0.465398
v -0.222137 0.257426 0.952690
v -0.200875 0.281541 1.012497
v -0.311153 0.219489 0.954358
v -0.204161 0.357795 -0.293389
v -0.188449 0.382941 -0.300691
v -0.209888 0.355453 -0.331822
v -0.069349 0.573007 -0.329415
v -0.042614 0.564602 -0.331834
v -0.042386 0.565594 -0.371772
v -0.243806 -1.848788 -0.104613
v -0.397638 -1.819509 -0.105142
v -0.027782 -2.695759 -0.590252
v -0.671964 -1.520665 0.109246
v -0.542594 -1.649567 -0.146212
v -0.667649 -1.612091 0.098643
v -0.523922 -1.569087 -0.095286
v -0.445801 -1.579578 -0.241478
v -0.542594 -1.649567 -0.146212
v -0.347373 -1.622791 -0.026542
v -0.444687 -1.514989 0.259863
v -0.318729 -1.704096 -0.010054
v -0.743759 -1.397877 0.371147
v -0.667649 -1.612091 0.098643
v -0.679279 -1.492731 0.375283
v -0.651343 -1.351144 0.216065
v -0.523922 -1.569087 -0.095286
v -0.671964 -1.520665 0.109246
v -0.722369 -1.241244 0.401165
v -0.671964 -1.520665 0.109246
v -0.743759 -1.397877 0.371147
v -0.460805 -1.338112 0.314597
v -0.416392 -1.037435 0.679153
v -0.444687 -1.514989 0.259863
v -0.559724 -0.861044 0.920989
v -0.679279 -1.492731 0.375283
v -0.516477 -1.084209 0.738314
v -0.674258 -0.888917 0.821596
v -0.743759 -1.397877 0.371147
v -0.679279 -1.492731 0.375283
v -0.580973 -0.862451 0.627208
v -0.651343 -1.351144 0.216065
v -0.722369 -1.241244 0.401165
v -0.651343 -1.351144 0.216065
v -0.445306 -0.829145 0.656463
v -0.531381 -1.360389 0.212270
v -0.646761 -0.841479 0.743796
v -0.722369 -1.241244 0.401165
v -0.674258 -0.888917 0.821596
v -0.445306 -0.829145 0.656463
v -0.321086 -0.828335 0.736023
v -0.460805 -1.338112 0.314597
v -0.166515 -1.554462 -0.251836
v -0.252071 -1.636098 -0.130456
v -0.096227 -1.582831 -0.272785
v -0.332348 -1.553097 -0.205717
v -0.318802 -1.477159 -0.376087
v -0.445801 -1.579578 -0.241478
v -0.318802 -1.477159 -0.376087
v -0.235992 -1.402268 -0.558520
v -0.336367 -1.631610 -0.426632
v 0.023442 -1.417166 -0.481899
v 0.005011 -1.316207 -0.452234
v -0.096227 -1.582831 -0.272785
v -0.196032 -1.354280 -0.410314
v -0.268015 -1.314536 -0.492602
v -0.318802 -1.477159 -0.376087
v -0.166515 -1.554462 -0.251836
v -0.196032 -1.354280 -0.410314
v -0.332348 -1.553097 -0.205717
v 0.005011 -1.316207 -0.452234
v -0.174731 -0.928687 -0.489415
v -0.090638 -1.330687 -0.388649
v -0.079961 -0.995695 -0.762827
v -0.035741 -1.420831 -0.546099
v -0.138596 -1.413321 -0.599942
v -0.015924 -1.014553 -0.673833
v -0.089704 -0.901428 -0.585698
v 0.005011 -1.316207 -0.452234
v -0.174731 -0.928687 -0.489415
v -0.285652 -0.918564 -0.523170
v -0.196032 -1.354280 -0.410314
v -0.244764 -0.961363 -0.783195
v -0.138596 -1.413321 -0.599942
v -0.306164 -1.019084 -0.698100
v -0.210568 -0.565511 -0.686073
v -0.015924 -1.014553 -0.673833
v -0.079961 -0.995695 -0.762827
v -0.089704 -0.901428 -0.585698
v -0.312727 -0.618510 -0.528960
v -0.174731 -0.928687 -0.489415
v -0.527708 -0.585314 -0.688375
v -0.306164 -1.019084 -0.698100
v -0.362629 -0.916237 -0.606453
v -0.210568 -0.565511 -0.686073
v -0.248243 -0.556910 -0.566714
v -0.089704 -0.901428 -0.585698
v -0.429088 -0.624032 -0.534618
v -0.514635 -0.595987 -0.615782
v -0.362629 -0.916237 -0.606453
v -0.454499 -0.549693 -0.733703
v -0.244764 -0.961363 -0.783195
v -0.527708 -0.585314 -0.688375
v -0.268108 -0.498906 0.931865
v -0.580973 -0.862451 0.627208
v -0.646761 -0.841479 0.743796
v -0.321086 -0.828335 0.736023
v -0.031538 -0.555243 1.053195
v -0.416392 -1.037435 0.679153
v -0.283355 -0.505367 1.131584
v -0.674258 -0.888917 0.821596
v -0.559724 -0.861044 0.920989
v -0.283355 -0.505367 1.131584
v -0.559724 -0.861044 0.920989
v -0.256508 -0.684429 1.071070
v -0.268108 -0.498906 0.931865
v -0.089285 -0.480166 0.907177
v -0.445306 -0.829145 0.656463
v 0.012306 -0.482462 1.110076
v -0.256508 -0.684429 1.071070
v -0.031538 -0.555243 1.053195
v 0.004295 -0.408116 1.092023
v -0.283355 -0.505367 1.131584
v 0.012306 -0.482462 1.110076
v 0.090893 -0.332521 0.750935
v -0.268108 -0.498906 0.931865
v -0.261368 -0.442133 1.034841
v 0.364900 -0.317335 0.731415
v 0.004295 -0.408116 1.092023
v 0.331269 -0.382082 0.849681
v 0.090893 -0.332521 0.750935
v 0.260682 -0.381027 0.598824
v -0.089285 -0.480166 0.907177
v 0.009516 -0.517536 0.938839
v 0.352032 -0.411707 0.769778
v -0.031538 -0.555243 1.053195
v 0.521535 -0.190086 0.218461
v 0.202640 -0.325561 0.802175
v 0.364900 -0.317335 0.731415
v 0.194801 -0.262141 0.700795
v 0.343198 -0.293363 0.368301
v 0.090893 -0.332521 0.750935
v 0.343198 -0.293363 0.368301
v 0.448466 -0.331664 0.207447
v 0.260682 -0.381027 0.598824
v 0.373595 -0.415044 0.590991
v 0.540654 -0.361683 0.394585
v 0.352032 -0.411707 0.769778
v 0.609361 -0.192052 0.101222
v 0.364900 -0.317335 0.731415
v 0.526493 -0.324841 0.480536
v 0.448466 -0.331664 0.207447
v 0.586327 -0.308311 0.036935
v 0.373595 -0.415044 0.590991
v 0.521535 -0.190086 0.218461
v 0.476991 -0.179091 0.000919
v 0.389164 -0.238178 0.335982
v 0.389164 -0.238178 0.335982
v 0.464657 -0.223603 -0.004392
v 0.343198 -0.293363 0.368301
v 0.464657 -0.223603 -0.004392
v 0.512453 -0.260397 -0.086817
v 0.448466 -0.331664 0.207447
v 0.635567 -0.279021 0.024093
v 0.540654 -0.361683 0.394585
v 0.586327 -0.308311 0.036935
v 0.609426 -0.223612 -0.282599
v 0.635567 -0.279021 0.024093
v 0.586327 -0.308311 0.036935
v 0.508425 -0.125983 -0.280282
v 0.521535 -0.190086 0.218461
v 0.609361 -0.192052 0.101222
v 0.508425 -0.125983 -0.280282
v 0.456118 -0.152194 -0.302317
v 0.476991 -0.179091 0.000919
v 0.476991 -0.179091 0.000919
v 0.444419 -0.181604 -0.348654
v 0.464657 -0.223603 -0.004392
v 0.444419 -0.181604 -0.348654
v 0.469127 -0.209149 -0.400865
v 0.512453 -0.260397 -0.086817
v 0.534021 -0.219555 -0.412655
v 0.586327 -0.308311 0.036935
v 0.512453 -0.260397 -0.086817
v 0.550390 -0.180615 -0.411228
v 0.609426 -0.223612 -0.282599
v 0.534021 -0.219555 -0.412655
v 0.588713 -0.168198 -0.342561
v 0.653189 -0.226263 0.017747
v 0.609426 -0.223612 -0.282599
v -0.248243 -0.556910 -0.566714
v -0.547836 -0.413680 -0.109275
v -0.312727 -0.618510 -0.528960
v -0.623632 -0.457883 -0.170351
v -0.750099 -0.414057 -0.121799
v -0.514635 -0.595987 -0.615782
v -0.750099 -0.414057 -0.121799
v -0.829246 -0.309091 0.012932
v -0.527708 -0.585314 -0.688375
v -0.502849 -0.354368 -0.106818
v -0.248243 -0.556910 -0.566714
v -0.492087 -0.320161 -0.217358
v -0.647752 -0.254890 0.284405
v -0.502849 -0.354368 -0.106818
v -0.492087 -0.320161 -0.217358
v -0.674964 -0.188187 0.322560
v -0.492087 -0.320161 -0.217358
v -0.604394 -0.306455 -0.229016
v -0.829246 -0.309091 0.012932
v -0.823749 -0.206989 0.294251
v -0.726340 -0.302291 -0.181456
v -0.697418 -0.273384 0.431834
v -0.547836 -0.413680 -0.109275
v -0.647752 -0.254890 0.284405
v -0.843079 -0.283795 0.390218
v -0.846916 -0.215452 0.415977
v -0.829246 -0.309091 0.012932
v -0.722449 -0.180826 0.629818
v -0.771623 -0.311089 0.386415
v -0.697418 -0.273384 0.431834
v -0.846916 -0.215452 0.415977
v -0.766227 -0.108568 0.536018
v -0.823749 -0.206989 0.294251
v -0.589820 -0.031781 0.795265
v -0.697418 -0.273384 0.431834
v -0.633899 -0.132512 0.579755
v -0.763914 -0.148562 0.645878
v -0.843079 -0.283795 0.390218
v -0.722449 -0.180826 0.629818
v -0.773973 -0.119645 0.607316
v -0.846916 -0.215452 0.415977
v -0.763914 -0.148562 0.645878
v -0.610020 -0.003521 0.839463
v -0.722449 -0.180826 0.629818
v -0.589820 -0.031781 0.795265
v -0.657585 0.041862 0.800417
v -0.773973 -0.119645 0.607316
v -0.763914 -0.148562 0.645878
v -0.773973 -0.119645 0.607316
v -0.645716 0.070576 0.756015
v -0.766227 -0.108568 0.536018
v -0.627851 0.036197 0.851352
v -0.763914 -0.148562 0.645878
v -0.610020 -0.003521 0.839463
v -0.289771 0.245495 0.854650
v -0.551747 0.058675 0.738796
v -0.600015 0.075909 0.732258
v -0.222137 0.257426 0.952690
v -0.589820 -0.031781 0.795265
v -0.532631 0.035150 0.778335
v -0.627851 0.036197 0.851352
v -0.285872 0.315028 0.954447
v -0.657585 0.041862 0.800417
v -0.311153 0.219489 0.954358
v -0.285872 0.315028 0.954447
v -0.627851 0.036197 0.851352
v -0.222137 0.257426 0.952690
v 0.004657 0.355468 1.185805
v -0.200875 0.281541 1.012497
v -0.008455 0.334330 1.081384
v -0.187206 0.272938 0.926910
v -0.133155 0.312304 0.940869
v 0.039359 0.352644 1.191729
v -0.222137 0.257426 0.952690
v -0.008455 0.334330 1.081384
v 0.004657 0.355468 1.185805
v -0.019378 0.368501 1.187296
v -0.221636 0.301902 1.002243
v -0.220726 0.318287 0.976163
v -0.010799 0.385710 1.131041
v -0.199159 0.315034 0.938192
v 0.021327 0.393060 1.120878
v -0.173236 0.321199 0.925030
v -0.199159 0.315034 0.938192
v -0.019378 0.368501 1.187296
v -0.008379 0.393781 1.194643
v -0.220726 0.318287 0.976163
v 0.072289 0.370663 1.208872
v -0.008455 0.334330 1.081384
v 0.058869 0.383778 1.159930
v 0.058869 0.383778 1.159930
v -0.133155 0.312304 0.940869
v 0.021327 0.393060 1.120878
v 0.054243 0.437753 1.358889
v -0.010799 0.385710 1.131041
v -0.008379 0.393781 1.194643
v 0.004657 0.355468 1.185805
v 0.041903 0.430287 1.413307
v -0.019378 0.368501 1.187296
v 0.081148 0.437031 1.361365
v 0.021327 0.393060 1.120878
v 0.054243 0.437753 1.358889
v 0.072289 0.370663 1.208872
v 0.070729 0.406531 1.416631
v 0.039359 0.352644 1.191729
v 0.036826 0.439077 1.390818
v -0.008379 0.393781 1.194643
v 0.041903 0.430287 1.413307
v 0.100699 0.419199 1.389380
v 0.058869 0.383778 1.159930
v 0.081148 0.437031 1.361365
v 0.366849 -0.009815 -0.371658
v 0.554457 -0.135973 -0.304396
v 0.383866 -0.030114 -0.418315
v 0.508425 -0.125983 -0.280282
v 0.296316 -0.050199 -0.363201
v 0.456118 -0.152194 -0.302317
v 0.271042 -0.065361 -0.411843
v 0.285693 -0.082734 -0.458721
v 0.469127 -0.209149 -0.400865
v 0.324465 -0.072988 -0.485066
v 0.534021 -0.219555 -0.412655
v 0.469127 -0.209149 -0.400865
v 0.383866 -0.030114 -0.418315
v 0.588713 -0.168198 -0.342561
v 0.550390 -0.180615 -0.411228
v 0.332269 -0.027429 -0.344246
v 0.508425 -0.125983 -0.280282
v 0.366849 -0.009815 -0.371658
v 0.346371 -0.052923 -0.463765
v 0.550390 -0.180615 -0.411228
v 0.324465 -0.072988 -0.485066
v 0.271042 -0.065361 -0.411843
v 0.028920 0.029508 -0.443016
v 0.285693 -0.082734 -0.458721
v 0.091393 0.066086 -0.354075
v 0.366849 -0.009815 -0.371658
v 0.148385 0.062227 -0.406794
v 0.052238 0.061079 -0.338539
v 0.332269 -0.027429 -0.344246
v 0.366849 -0.009815 -0.371658
v -0.044331 0.070635 -0.354734
v -0.045815 0.053826 -0.406222
v 0.271042 -0.065361 -0.411843
v 0.132816 0.029669 -0.447391
v 0.346371 -0.052923 -0.463765
v 0.095543 0.013623 -0.465398
v -0.045815 0.053826 -0.406222
v -0.084496 0.115147 -0.403109
v -0.039998 0.063486 -0.468965
v -0.183274 0.235771 -0.278209
v 0.091393 0.066086 -0.354075
v 0.017483 0.118611 -0.370930
v -0.163531 0.234285 -0.300701
v 0.017483 0.118611 -0.370930
v -0.168537 0.237063 -0.331815
v -0.168537 0.237063 -0.331815
v 0.017483 0.118611 -0.370930
v -0.026635 0.084571 -0.426798
v -0.207152 0.221298 -0.275550
v -0.232730 0.220587 -0.298169
v -0.044331 0.070635 -0.354734
v -0.084496 0.115147 -0.403109
v -0.191041 0.229990 -0.354524
v -0.026635 0.084571 -0.426798
v -0.232730 0.220587 -0.298169
v -0.209888 0.355453 -0.331822
v -0.228204 0.221833 -0.347346
v -0.188215 0.349997 -0.278109
v -0.204161 0.357795 -0.293389
v -0.232730 0.220587 -0.298169
v -0.228204 0.221833 -0.347346
v -0.167275 0.364112 -0.351974
v -0.191041 0.229990 -0.354524
v -0.161571 0.350096 -0.277487
v -0.183274 0.235771 -0.278209
v -0.152553 0.319205 -0.301468
v -0.188215 0.349997 -0.278109
v -0.207152 0.221298 -0.275550
v -0.183274 0.235771 -0.278209
v -0.209888 0.355453 -0.331822
v -0.195938 0.356179 -0.349239
v -0.228204 0.221833 -0.347346
v -0.185384 0.351412 0.959038
v -0.220726 0.318287 0.976163
v -0.173236 0.321199 0.925030
v -0.226870 0.360592 0.965479
v -0.157313 0.562616 0.923954
v -0.285872 0.315028 0.954447
v -0.256177 0.352361 0.876470
v -0.117435 0.524959 0.869210
v -0.220649 0.311226 0.882018
v -0.281672 0.344619 0.907085
v -0.134179 0.566597 0.872703
v -0.256177 0.352361 0.876470
v -0.057641 0.623720 0.924096
v -0.173236 0.321199 0.925030
v -0.088542 0.537966 0.891994
v -0.106468 0.537466 0.943710
v -0.185384 0.351412 0.959038
v -0.173236 0.321199 0.925030
v -0.117435 0.524959 0.869210
v -0.088542 0.537966 0.891994
v -0.172835 0.356060 0.900805
v -0.106468 0.537466 0.943710
v -0.137339 0.545522 0.943261
v -0.226870 0.360592 0.965479
v -0.157313 0.562616 0.923954
v -0.105321 0.685853 0.923656
v -0.281672 0.344619 0.907085
v -0.057641 0.623720 0.924096
v -0.088542 0.537966 0.891994
v -0.072452 0.699782 0.911734
v -0.072452 0.699782 0.911734
v -0.117435 0.524959 0.869210
v -0.134179 0.566597 0.872703
v -0.106468 0.537466 0.943710
v -0.091998 0.694017 0.974565
v -0.137339 0.545522 0.943261
v -0.072452 0.699782 0.911734
v -0.134179 0.566597 0.872703
v -0.105321 0.685853 0.923656
v -0.049122 0.684046 0.961086
v -0.067600 0.684832 0.976510
v -0.106468 0.537466 0.943710
v -0.091998 0.694017 0.974565
v -0.107176 0.701344 0.954801
v -0.157313 0.562616 0.923954
v 0.014540 0.103787 -0.470600
v -0.028711 0.093117 -0.518685
v -0.026635 0.084571 -0.426798
v -0.028711 0.093117 -0.518685
v -0.054606 0.115970 -0.739844
v -0.039998 0.063486 -0.468965
v 0.011649 0.113708 -0.818952
v 0.040689 0.053711 -0.532008
v 0.003567 0.051509 -0.526753
v 0.027640 0.130131 -0.782281
v 0.057913 0.084915 -0.514381
v 0.011649 0.113708 -0.818952
v -0.033987 0.063659 -0.533986
v -0.011457 0.107986 -0.825163
v 0.003567 0.051509 -0.526753
v 0.021380 0.146364 -0.761277
v 0.050804 0.105940 -0.484629
v 0.027640 0.130131 -0.782281
v -0.054606 0.115970 -0.739844
v -0.037838 0.108767 -0.803592
v -0.033987 0.063659 -0.533986
v -0.069349 0.573007 -0.329415
v -0.168871 0.387667 -0.305092
v -0.137296 0.388429 -0.303887
v -0.069349 0.573007 -0.329415
v -0.092923 0.560837 -0.340992
v -0.188449 0.382941 -0.300691
v -0.188449 0.382941 -0.300691
v -0.086348 0.570294 -0.372952
v -0.209888 0.355453 -0.331822
v -0.042614 0.564602 -0.331834
v -0.128019 0.389733 -0.318238
v -0.042386 0.565594 -0.371772
v -0.042614 0.564602 -0.331834
v -0.137296 0.388429 -0.303887
v -0.128019 0.389733 -0.318238
v -0.042386 0.565594 -0.371772
v -0.146319 0.362878 -0.334234
v -0.167275 0.364112 -0.351974
v -0.086348 0.570294 -0.372952
v -0.042386 0.565594 -0.371772
v -0.167275 0.364112 -0.351974
v -0.107176 0.701344 0.954801
v -0.069318 0.860201 0.923428
v -0.105321 0.685853 0.923656
v -0.028690 0.831510 0.954587
v -0.049122 0.684046 0.961086
v -0.020837 0.844746 0.931463
v -0.067600 0.684832 0.976510
v -0.057315 0.850035 0.967559
v -0.091998 0.694017 0.974565
v -0.028690 0.831510 0.954587
v -0.057315 0.850035 0.967559
v -0.067600 0.684832 0.976510
v -0.020837 0.844746 0.931463
v -0.057315 0.850035 0.967559
v -0.028690 0.831510 0.954587
v 0.072254 0.499142 1.458811
v 0.100699 0.419199 1.389380
v 0.081148 0.437031 1.361365
v -0.015695 0.605074 1.517753
v 0.054243 0.437753 1.358889
v 0.036826 0.439077 1.390818
v 0.003051 0.580560 1.563305
v -0.024180 0.587887 1.566041
v 0.070729 0.406531 1.416631
v -0.042405 0.600633 1.542044
v 0.036826 0.439077 1.390818
v 0.041903 0.430287 1.413307
v -0.008767 0.607311 1.521782
v 0.081148 0.437031 1.361365
v -0.015695 0.605074 1.517753
v 0.016996 0.584078 1.538383
v 0.072254 0.499142 1.458811
v -0.008767 0.607311 1.521782
v -0.020077 0.152983 -0.753378
v 0.012846 0.205639 -0.878655
v -0.054606 0.115970 -0.739844
v 0.133225 0.335610 -0.909436
v -0.020077 0.152983 -0.753378
v 0.021380 0.146364 -0.761277
v 0.012846 0.205639 -0.878655
v 0.138525 0.304696 -0.962916
v -0.011457 0.107986 -0.825163
v 0.147783 0.290566 -0.921725
v 0.027640 0.130131 -0.782281
v 0.011649 0.113708 -0.818952
v 0.094498 0.310413 -0.902209
v 0.124721 0.334581 -0.955981
v 0.012846 0.205639 -0.878655
v 0.138525 0.304696 -0.962916
v 0.147783 0.290566 -0.921725
v 0.011649 0.113708 -0.818952
v 0.124721 0.334581 -0.955981
v 0.117061 0.304978 -0.958169
v 0.012846 0.205639 -0.878655
v 0.138525 0.304696 -0.962916
v 0.300658 0.428721 -1.088599
v 0.147783 0.290566 -0.921725
v 0.259748 0.449823 -1.051356
v 0.094498 0.310413 -0.902209
v 0.133225 0.335610 -0.909436
v 0.259410 0.430328 -1.086558
v 0.124721 0.334581 -0.955981
v 0.259748 0.449823 -1.051356
v 0.300658 0.428721 -1.088599
v 0.303149 0.442295 -1.049009
v 0.225443 0.369935 -0.989698
v 0.303149 0.442295 -1.049009
v 0.161374 0.334237 -0.916328
v 0.225443 0.369935 -0.989698
v -0.188215 0.349997 -0.278109
v -0.123240 0.489242 -0.160214
v -0.204161 0.357795 -0.293389
v -0.075585 0.471432 -0.139085
v -0.161571 0.350096 -0.277487
v -0.124518 0.372820 -0.284104
v -0.123240 0.489242 -0.160214
v -0.091805 0.488110 -0.183964
v -0.168871 0.387667 -0.305092
v -0.070021 0.473145 -0.177517
v -0.124518 0.372820 -0.284104
v -0.137296 0.388429 -0.303887
v -0.075585 0.471432 -0.139085
v -0.124518 0.372820 -0.284104
v -0.070021 0.473145 -0.177517
v -0.091805 0.488110 -0.183964
v -0.075585 0.471432 -0.139085
v -0.070021 0.473145 -0.177517
v 0.724510 -2.410540 -1.271053
v 0.192676 -2.743100 -1.040690
v 0.224807 -2.650223 -1.012092
v 0.770331 -2.438148 -1.271847
v 0.317208 -2.772317 -1.072069
v 0.192676 -2.743100 -1.040690
v 0.829253 -2.438142 -1.172418
v 0.439065 -2.749459 -0.933168
v 0.817326 -2.450159 -1.232089
v 0.439065 -2.749459 -0.933168
v 0.797485 -2.420920 -1.134588
v 0.391436 -2.705732 -0.861648
v 0.829253 -2.438142 -1.172418
v 0.768999 -2.141753 -1.015736
v 0.797485 -2.420920 -1.134588
v 0.747287 -2.394274 -1.130900
v 0.705446 -2.123389 -1.078012
v 0.705622 -2.383056 -1.173921
v 0.817326 -2.450159 -1.232089
v 0.812919 -2.149877 -1.051441
v 0.829253 -2.438142 -1.172418
v 0.744209 -2.114727 -1.117074
v 0.812919 -2.149877 -1.051441
v 0.788248 -2.155386 -1.120919
v 0.130533 -2.593133 -0.864234
v -0.160702 -1.787684 -0.399220
v -0.095762 -1.839980 -0.336253
v 0.185866 -2.522267 -0.742063
v 0.130533 -2.593133 -0.864234
v 0.319925 -2.643721 -0.860436
v 0.283285 -2.611690 -0.946438
v 0.224807 -2.650223 -1.012092
v -0.081018 -3.680994 -0.845246
v 0.041162 -3.690724 -0.619181
v -0.031581 -3.160463 -0.657037
v -0.077680 -3.118127 -0.793815
v 0.296749 -3.745847 -0.549387
v 0.554251 -3.853453 -0.647777
v 0.289679 -3.181435 -0.755095
v 0.105064 -3.152779 -0.645897
v 0.425195 -3.871249 -1.141918
v 0.290475 -3.168775 -1.038242
v 0.448488 -3.327255 -0.947300
v 0.515615 -3.749563 -0.919793
v 0.166916 -3.886607 -1.184354
v 0.133057 -3.265535 -1.051924
v 0.290475 -3.168775 -1.038242
v 0.425195 -3.871249 -1.141918
v -0.289532 -4.549764 -0.699846
v -0.110591 -4.486162 -0.321149
v 0.041162 -3.690724 -0.619181
v -0.081018 -3.680994 -0.845246
v -0.222889 -4.499962 -1.055197
v -0.289532 -4.549764 -0.699846
v -0.081018 -3.680994 -0.845246
v -0.051249 -3.768653 -1.088512
v 0.271328 -4.463056 -0.279828
v 0.608101 -4.483483 -0.450563
v 0.554251 -3.853453 -0.647777
v 0.296749 -3.745847 -0.549387
v -0.110591 -4.486162 -0.321149
v 0.271328 -4.463056 -0.279828
v 0.296749 -3.745847 -0.549387
v 0.041162 -3.690724 -0.619181
v 0.439065 -2.749459 -0.933168
v 0.391436 -2.705732 -0.861648
v 0.198092 -2.659885 -0.663012
v 0.289679 -3.181435 -0.755095
v -0.222889 -4.499962 -1.055197
v -0.051249 -3.768653 -1.088512
v 0.166916 -3.886607 -1.184354
v 0.130638 -4.476797 -1.213495
v 0.130638 -4.476797 -1.213495
v 0.166916 -3.886607 -1.184354
v 0.425195 -3.871249 -1.141918
v 0.494382 -4.497172 -1.163528
v -0.024180 0.587887 1.566041
v 0.003051 0.580560 1.563305
v -0.008767 0.607311 1.521782
v -0.042405 0.600633 1.542044
v -0.667649 -1.612091 0.098643
v -0.542594 -1.649567 -0.146212
v -0.364899 -1.854108 -0.330236
v -0.420364 -1.850723 -0.212850
v -0.542594 -1.649567 -0.146212
v -0.445801 -1.579578 -0.241478
v -0.336367 -1.631610 -0.426632
v -0.364899 -1.854108 -0.330236
v -0.096227 -1.582831 -0.272785
v -0.252071 -1.636098 -0.130456
v -0.318729 -1.704096 -0.010054
v -0.147175 -1.825155 -0.182664
v 0.202807 -4.524092 -0.739661
v -0.289532 -4.549764 -0.699846
v -0.222889 -4.499962 -1.055197
v 0.130638 -4.476797 -1.213495
v 0.202807 -4.524092 -0.739661
v 0.130638 -4.476797 -1.213495
v 0.494382 -4.497172 -1.163528
v 0.663146 -4.548780 -0.820310
v 0.608101 -4.483483 -0.450563
v 0.271328 -4.463056 -0.279828
v 0.202807 -4.524092 -0.739661
v 0.663146 -4.548780 -0.820310
v -0.110591 -4.486162 -0.321149
v -0.289532 -4.549764 -0.699846
v 0.202807 -4.524092 -0.739661
v 0.271328 -4.463056 -0.279828
v 0.192676 -2.743100 -1.040690
v -0.017375 -3.142273 -0.950260
v 0.031721 -2.674141 -0.899718
v 0.224807 -2.650223 -1.012092
v -0.077680 -3.118127 -0.793815
v -0.031581 -3.160463 -0.657037
v -0.105833 -2.722328 -0.673746
v -0.103391 -2.689506 -0.768443
v 0.105064 -3.152779 -0.645897
v 0.289679 -3.181435 -0.755095
v 0.097188 -2.683704 -0.589208
v -0.027782 -2.695759 -0.590252
v 0.317208 -2.772317 -1.072069
v 0.402378 -2.781029 -1.013014
v 0.339880 -3.043364 -0.951672
v 0.290475 -3.168775 -1.038242
v 0.402378 -2.781029 -1.013014
v 0.439065 -2.749459 -0.933168
v 0.289679 -3.181435 -0.755095
v 0.339880 -3.043364 -0.951672
v -0.187206 0.272938 0.926910
v -0.289771 0.245495 0.854650
v -0.306283 0.280501 0.851168
v -0.220649 0.311226 0.882018
v 0.003567 0.051509 -0.526753
v 0.028920 0.029508 -0.443016
v -0.045815 0.053826 -0.406222
v -0.033987 0.063659 -0.533986
v -0.289771 0.245495 0.854650
v -0.187206 0.272938 0.926910
v -0.222137 0.257426 0.952690
v -0.532631 0.035150 0.778335
v 0.057913 0.084915 -0.514381
v 0.132816 0.029669 -0.447391
v 0.095543 0.013623 -0.465398
v 0.040689 0.053711 -0.532008
v 0.148385 0.062227 -0.406794
v 0.132816 0.029669 -0.447391
v 0.057913 0.084915 -0.514381
v 0.050804 0.105940 -0.484629
v 0.017483 0.118611 -0.370930
v 0.050804 0.105940 -0.484629
v 0.014540 0.103787 -0.470600
v -0.026635 0.084571 -0.426798
v -0.332348 -1.553097 -0.205717
v -0.424357 -1.584575 -0.077072
v -0.347373 -1.622791 -0.026542
v -0.252071 -1.636098 -0.130456
v -0.332348 -1.553097 -0.205717
v -0.445801 -1.579578 -0.241478
v -0.523922 -1.569087 -0.095286
v -0.424357 -1.584575 -0.077072
v -0.374441 -1.757851 -0.003960
v -0.533947 -1.535042 0.334341
v -0.679279 -1.492731 0.375283
v -0.397638 -1.819509 -0.105142
v -0.374441 -1.757851 -0.003960
v -0.318729 -1.704096 -0.010054
v -0.444687 -1.514989 0.259863
v -0.533947 -1.535042 0.334341
v -0.347373 -1.622791 -0.026542
v -0.424357 -1.584575 -0.077072
v -0.531381 -1.360389 0.212270
v -0.460805 -1.338112 0.314597
v -0.424357 -1.584575 -0.077072
v -0.523922 -1.569087 -0.095286
v -0.651343 -1.351144 0.216065
v -0.531381 -1.360389 0.212270
v -0.533947 -1.535042 0.334341
v -0.444687 -1.514989 0.259863
v -0.416392 -1.037435 0.679153
v -0.516477 -1.084209 0.738314
v -0.246192 -1.652825 -0.480177
v -0.138596 -1.413321 -0.599942
v -0.035741 -1.420831 -0.546099
v -0.152611 -1.655641 -0.401573
v -0.152611 -1.655641 -0.401573
v -0.035741 -1.420831 -0.546099
v 0.023442 -1.417166 -0.481899
v -0.122686 -1.667562 -0.274086
v -0.336367 -1.631610 -0.426632
v -0.235992 -1.402268 -0.558520
v -0.138596 -1.413321 -0.599942
v -0.246192 -1.652825 -0.480177
v -0.166515 -1.554462 -0.251836
v -0.096227 -1.582831 -0.272785
v 0.005011 -1.316207 -0.452234
v -0.090638 -1.330687 -0.388649
v -0.035741 -1.420831 -0.546099
v -0.079961 -0.995695 -0.762827
v -0.015924 -1.014553 -0.673833
v 0.023442 -1.417166 -0.481899
v -0.268015 -1.314536 -0.492602
v -0.196032 -1.354280 -0.410314
v -0.285652 -0.918564 -0.523170
v -0.362629 -0.916237 -0.606453
v -0.268015 -1.314536 -0.492602
v -0.362629 -0.916237 -0.606453
v -0.306164 -1.019084 -0.698100
v -0.235992 -1.402268 -0.558520
v -0.285652 -0.918564 -0.523170
v -0.174731 -0.928687 -0.489415
v -0.312727 -0.618510 -0.528960
v -0.429088 -0.624032 -0.534618
v -0.244764 -0.961363 -0.783195
v -0.454499 -0.549693 -0.733703
v -0.312314 -0.544710 -0.745107
v -0.079961 -0.995695 -0.762827
v -0.416392 -1.037435 0.679153
v -0.031538 -0.555243 1.053195
v -0.256508 -0.684429 1.071070
v -0.516477 -1.084209 0.738314
v -0.674258 -0.888917 0.821596
v -0.283355 -0.505367 1.131584
v -0.261368 -0.442133 1.034841
v -0.646761 -0.841479 0.743796
v -0.321086 -0.828335 0.736023
v -0.445306 -0.829145 0.656463
v -0.089285 -0.480166 0.907177
v 0.009516 -0.517536 0.938839
v 0.004295 -0.408116 1.092023
v 0.364900 -0.317335 0.731415
v 0.202640 -0.325561 0.802175
v -0.106356 -0.404988 1.063248
v -0.106356 -0.404988 1.063248
v 0.202640 -0.325561 0.802175
v 0.194801 -0.262141 0.700795
v -0.261368 -0.442133 1.034841
v 0.009516 -0.517536 0.938839
v -0.089285 -0.480166 0.907177
v 0.260682 -0.381027 0.598824
v 0.373595 -0.415044 0.590991
v 0.012306 -0.482462 1.110076
v -0.031538 -0.555243 1.053195
v 0.352032 -0.411707 0.769778
v 0.331269 -0.382082 0.849681
v 0.202640 -0.325561 0.802175
v 0.521535 -0.190086 0.218461
v 0.389164 -0.238178 0.335982
v 0.194801 -0.262141 0.700795
v 0.352032 -0.411707 0.769778
v 0.540654 -0.361683 0.394585
v 0.526493 -0.324841 0.480536
v 0.331269 -0.382082 0.849681
v 0.540654 -0.361683 0.394585
v 0.635567 -0.279021 0.024093
v 0.653189 -0.226263 0.017747
v 0.526493 -0.324841 0.480536
v 0.653189 -0.226263 0.017747
v 0.588713 -0.168198 -0.342561
v 0.554457 -0.135973 -0.304396
v 0.609361 -0.192052 0.101222
v -0.429088 -0.624032 -0.534618
v -0.312727 -0.618510 -0.528960
v -0.547836 -0.413680 -0.109275
v -0.623632 -0.457883 -0.170351
v -0.454499 -0.549693 -0.733703
v -0.726340 -0.302291 -0.181456
v -0.604394 -0.306455 -0.229016
v -0.312314 -0.544710 -0.745107
v -0.312314 -0.544710 -0.745107
v -0.604394 -0.306455 -0.229016
v -0.492087 -0.320161 -0.217358
v -0.210568 -0.565511 -0.686073
v -0.527708 -0.585314 -0.688375
v -0.829246 -0.309091 0.012932
v -0.726340 -0.302291 -0.181456
v -0.454499 -0.549693 -0.733703
v -0.604394 -0.306455 -0.229016
v -0.726340 -0.302291 -0.181456
v -0.823749 -0.206989 0.294251
v -0.744321 -0.185890 0.303033
v -0.750099 -0.414057 -0.121799
v -0.623632 -0.457883 -0.170351
v -0.771623 -0.311089 0.386415
v -0.843079 -0.283795 0.390218
v -0.547836 -0.413680 -0.109275
v -0.697418 -0.273384 0.431834
v -0.771623 -0.311089 0.386415
v -0.623632 -0.457883 -0.170351
v -0.744321 -0.185890 0.303033
v -0.823749 -0.206989 0.294251
v -0.766227 -0.108568 0.536018
v -0.707306 -0.080481 0.524315
v -0.674964 -0.188187 0.322560
v -0.744321 -0.185890 0.303033
v -0.707306 -0.080481 0.524315
v -0.646860 -0.089257 0.546267
v -0.674964 -0.188187 0.322560
v -0.646860 -0.089257 0.546267
v -0.633899 -0.132512 0.579755
v -0.647752 -0.254890 0.284405
v -0.646860 -0.089257 0.546267
v -0.707306 -0.080481 0.524315
v -0.600015 0.075909 0.732258
v -0.551747 0.058675 0.738796
v -0.707306 -0.080481 0.524315
v -0.766227 -0.108568 0.536018
v -0.645716 0.070576 0.756015
v -0.600015 0.075909 0.732258
v -0.646860 -0.089257 0.546267
v -0.551747 0.058675 0.738796
v -0.532631 0.035150 0.778335
v -0.633899 -0.132512 0.579755
v -0.589820 -0.031781 0.795265
v -0.222137 0.257426 0.952690
v -0.311153 0.219489 0.954358
v -0.610020 -0.003521 0.839463
v -0.600015 0.075909 0.732258
v -0.645716 0.070576 0.756015
v -0.343906 0.285438 0.869393
v -0.306283 0.280501 0.851168
v -0.645716 0.070576 0.756015
v -0.657585 0.041862 0.800417
v -0.285872 0.315028 0.954447
v -0.343906 0.285438 0.869393
v 0.444419 -0.181604 -0.348654
v 0.456118 -0.152194 -0.302317
v 0.296316 -0.050199 -0.363201
v 0.271042 -0.065361 -0.411843
v 0.324465 -0.072988 -0.485066
v 0.285693 -0.082734 -0.458721
v 0.028920 0.029508 -0.443016
v 0.095543 0.013623 -0.465398
v 0.296316 -0.050199 -0.363201
v 0.332269 -0.027429 -0.344246
v 0.052238 0.061079 -0.338539
v -0.044331 0.070635 -0.354734
v 0.346371 -0.052923 -0.463765
v 0.132816 0.029669 -0.447391
v 0.148385 0.062227 -0.406794
v 0.383866 -0.030114 -0.418315
v 0.052238 0.061079 -0.338539
v 0.091393 0.066086 -0.354075
v -0.183274 0.235771 -0.278209
v -0.207152 0.221298 -0.275550
v -0.045815 0.053826 -0.406222
v -0.044331 0.070635 -0.354734
v -0.232730 0.220587 -0.298169
v -0.228204 0.221833 -0.347346
v -0.168537 0.237063 -0.331815
v -0.146319 0.362878 -0.334234
v -0.152553 0.319205 -0.301468
v -0.163531 0.234285 -0.300701
v -0.191041 0.229990 -0.354524
v -0.167275 0.364112 -0.351974
v -0.146319 0.362878 -0.334234
v -0.168537 0.237063 -0.331815
v 0.050804 0.105940 -0.484629
v 0.021380 0.146364 -0.761277
v -0.020077 0.152983 -0.753378
v 0.014540 0.103787 -0.470600
v -0.072452 0.699782 0.911734
v -0.044439 0.845961 0.908122
v -0.020837 0.844746 0.931463
v -0.057641 0.623720 0.924096
v -0.105321 0.685853 0.923656
v -0.069318 0.860201 0.923428
v -0.044439 0.845961 0.908122
v -0.072452 0.699782 0.911734
v -0.107176 0.701344 0.954801
v -0.091998 0.694017 0.974565
v -0.057315 0.850035 0.967559
v -0.076806 0.854975 0.944823
v 0.070729 0.406531 1.416631
v 0.100699 0.419199 1.389380
v 0.072254 0.499142 1.458811
v 0.003051 0.580560 1.563305
v 0.041903 0.430287 1.413307
v 0.070729 0.406531 1.416631
v -0.024180 0.587887 1.566041
v -0.042405 0.600633 1.542044
v 0.027640 0.130131 -0.782281
v 0.147783 0.290566 -0.921725
v 0.161374 0.334237 -0.916328
v 0.021380 0.146364 -0.761277
v 0.138525 0.304696 -0.962916
v 0.117061 0.304978 -0.958169
v 0.259410 0.430328 -1.086558
v 0.300658 0.428721 -1.088599
v 0.161374 0.334237 -0.916328
v 0.303149 0.442295 -1.049009
v 0.259748 0.449823 -1.051356
v 0.133225 0.335610 -0.909436
v -0.161571 0.350096 -0.277487
v -0.075585 0.471432 -0.139085
v -0.105902 0.478275 -0.132673
v -0.188215 0.349997 -0.278109
v 0.317208 -2.772317 -1.072069
v 0.770331 -2.438148 -1.271847
v 0.817326 -2.450159 -1.232089
v 0.402378 -2.781029 -1.013014
v 0.319925 -2.643721 -0.860436
v 0.391436 -2.705732 -0.861648
v 0.797485 -2.420920 -1.134588
v 0.747287 -2.394274 -1.130900
v 0.224807 -2.650223 -1.012092
v 0.283285 -2.611690 -0.946438
v 0.705622 -2.383056 -1.173921
v 0.694959 -2.387856 -1.231710
v 0.283285 -2.611690 -0.946438
v 0.319925 -2.643721 -0.860436
v 0.747287 -2.394274 -1.130900
v 0.705622 -2.383056 -1.173921
v 0.724510 -2.410540 -1.271053
v 0.744209 -2.114727 -1.117074
v 0.788248 -2.155386 -1.120919
v 0.770331 -2.438148 -1.271847
v 0.694959 -2.387856 -1.231710
v 0.705446 -2.123389 -1.078012
v 0.744209 -2.114727 -1.117074
v 0.724510 -2.410540 -1.271053
vn -0.1125 -0.0769 -0.9907
vn 0.2227 0.5155 -0.8274
vn -0.9006 -0.1015 -0.4226
vn 0.9328 0.2115 0.2918
vn -0.6977 0.1491 -0.7007
vn 0.0399 -0.4893 0.8712
vn 0.6085 -0.1915 0.7701
vn 0.7795 0.3626 0.5107
vn 0.8353 0.3264 0.4425
vn -0.3214 0.5059 -0.8005
vn 0.0538 0.0535 -0.9971
vn -0.9303 0.0388 -0.3646
vn -0.5367 -0.2392 -0.8092
vn -0.2471 0.0773 0.9659
vn -0.4786 0.4351 0.7627
vn -0.9958 0.0016 -0.0921
vn 0.9851 0.1512 -0.0822
vn -0.4181 0.2173 -0.8821
vn 0.9823 0.1721 -0.0738
vn 0.5973 0.6805 0.4243
vn 0.8982 0.1139 -0.4245
vn -0.0200 -0.8638 -0.5034
vn 0.0352 0.9677 0.2495
vn 0.2633 0.9315 0.2510
vn 0.2160 0.9462 0.2408
vn 0.0101 0.8747 -0.4845
vn 0.1786 0.9272 -0.3291
vn -0.4040 -0.8523 0.3322
vn -0.2520 0.9624 -0.1011
vn -0.5799 -0.2601 -0.7720
vn 0.3532 -0.8936 0.2771
vn -0.1934 0.5614 0.8046
vn 0.4838 -0.4140 0.7711
vn 0.9267 -0.2856 -0.2441
vn 0.4432 0.8205 0.3611
vn -0.2399 0.0200 -0.9706
vn 0.9702 -0.0636 -0.2337
vn 0.2868 -0.3528 -0.8906
vn -0.9343 -0.0350 -0.3547
vn -0.6566 -0.2763 0.7018
vn -0.7467 0.5919 0.3036
vn 0.2954 0.1274 -0.9468
vn 0.4541 0.7782 0.4339
vn -0.4578 -0.0192 0.8888
vn -0.5703 0.1502 0.8076
vn 0.8798 -0.3592 -0.3114
vn 0.3990 0.9169 0.0147
vn 0.4277 -0.4731 0.7702
vn 0.1085 0.9886 -0.1040
vn -0.7982 -0.5123 0.3169
vn -0.6328 0.5135 -0.5796
vn 0.7075 0.3712 0.6013
vn -0.3892 -0.8516 0.3511
vn -0.9662 -0.0157 -0.2575
vn 0.9450 -0.0150 0.3267
vn 0.0153 -0.6676 0.7444
vn -0.7317 0.4249 -0.5330
vn -0.4858 -0.5169 0.7048
vn -0.9908 0.1353 -0.0000
vn 0.0072 0.6432 -0.7657
vn 0.7260 0.3681 -0.5809
vn -0.6847 0.5446 -0.4843
vn 0.8439 -0.4598 0.2764
vn 0.9115 -0.2891 0.2926
vn 0.1825 0.7514 0.6340
vn -0.7943 0.2687 -0.5449
vn -0.2858 0.5685 0.7714
vn -0.6430 0.7172 0.2686
vn -0.9079 -0.0166 -0.4189
vn -0.2381 0.1890 0.9527
vn 0.0382 -0.3678 -0.9291
vn 0.6448 0.3636 0.6724
vn 0.9831 0.1477 0.1082
vn -0.3984 -0.3775 -0.8360
vn 0.8881 0.3915 0.2409
vn -0.7010 -0.3165 0.6391
vn -0.6532 -0.3182 -0.6871
vn 0.5239 0.3012 -0.7968
vn 0.4015 0.1349 0.9059
vn -0.9000 -0.4243 0.0997
vn -0.0126 -0.6348 0.7726
vn 0.0097 0.6374 -0.7705
vn 0.0927 -0.3063 0.9474
vn -0.5025 0.7706 -0.3920
vn 0.6834 -0.7300 0.0046
vn -0.1536 0.7267 0.6696
vn -0.2865 0.8305 0.4777
vn -0.0218 -0.7140 -0.6998
vn 0.5632 0.2518 0.7870
vn -0.6294 0.5144 -0.5824
vn 0.3200 -0.9458 0.0562
vn 0.7497 0.4671 0.4689
vn -0.8056 0.4365 -0.4006
vn -0.2951 -0.9201 -0.2576
vn -0.6009 -0.6517 -0.4629
vn 0.4807 0.8055 0.3466
vn 0.1657 -0.9782 -0.1248
vn 0.8797 0.3549 0.3164
vn -0.9387 0.2835 -0.1961
vn -0.1689 -0.9489 -0.2665
vn -0.7416 -0.5729 -0.3489
vn 0.9341 -0.3287 -0.1390
vn -0.9655 0.2451 0.0882
vn -0.3972 0.9089 0.1273
vn -0.1806 -0.9744 -0.1341
vn -0.6639 -0.7460 -0.0520
vn 0.3294 -0.9183 -0.2196
vn 0.2597 0.9607 0.0977
vn 0.8734 -0.1681 -0.4570
vn -0.4445 -0.8806 0.1642
vn 0.8243 0.5204 0.2227
vn -0.6173 -0.7867 -0.0045
vn 0.6387 -0.5084 0.5775
vn 0.7188 -0.5621 0.4092
vn 0.0881 0.9762 -0.1981
vn 0.9369 0.2333 0.2603
vn -0.8909 0.4323 -0.1395
vn -0.7909 -0.6118 0.0120
vn 0.7989 -0.5680 0.1979
vn -0.2866 -0.8194 0.4964
vn 0.3819 -0.8178 0.4306
vn -0.8013 0.5983 0.0059
vn -0.9030 -0.1950 0.3828
vn 0.7699 -0.6239 0.1342
vn -0.2496 -0.6692 0.6999
vn -0.8585 0.5037 0.0962
vn -0.8585 0.0666 0.5085
vn 0.6232 -0.5019 -0.5998
vn -0.1130 -0.3312 0.9368
vn 0.3354 0.0647 -0.9399
vn 0.3689 -0.9276 -0.0583
vn -0.5871 -0.2041 0.7833
vn -0.1556 -0.8473 0.5078
vn -0.6010 0.6860 0.4100
vn -0.2532 0.9617 -0.1051
vn 0.3983 0.6594 -0.6376
vn 0.5098 -0.8567 -0.0787
vn -0.2265 0.9673 -0.1141
vn 0.7434 0.0477 -0.6672
vn -0.2634 0.9541 -0.1427
vn -0.9217 0.3567 0.1524
vn 0.4889 0.8285 -0.2731
vn 0.4983 -0.8537 0.1511
vn -0.1204 -0.9615 0.2472
vn -0.6220 -0.7079 0.3346
vn -0.2338 0.9578 -0.1673
vn 0.9561 0.2081 -0.2064
vn 0.3974 0.8154 0.4209
vn 0.5890 0.7954 -0.1429
vn -0.2733 -0.6990 -0.6608
vn -0.5866 -0.7972 0.1430
vn 0.2748 -0.0804 -0.9581
vn -0.3996 -0.1249 0.9081
vn 0.5060 0.5277 -0.6823
vn 0.1704 0.6237 -0.7628
vn 0.2192 0.6211 0.7525
vn 0.3403 0.9013 -0.2680
vn -0.2940 -0.8584 0.4203
vn -0.3519 -0.9307 -0.0996
vn -0.1894 -0.6094 0.7699
vn 0.2395 0.8359 -0.4939
vn 0.5969 0.6417 0.4816
vn -0.5263 -0.2914 -0.7988
vn 0.3723 0.7150 -0.5917
vn -0.2268 0.1934 -0.9545
vn -0.9713 0.1976 0.1327
vn -0.6600 0.1119 0.7429
vn -0.0233 -0.0019 0.9997
vn 0.7455 -0.0904 0.6604
vn -0.0976 0.0094 -0.9952
vn 0.2054 0.2676 0.9414
vn -0.8548 0.4708 0.2183
vn 0.5983 -0.3326 -0.7290
vn -0.1038 0.0416 -0.9937
vn 0.7419 -0.2816 0.6085
vn 0.7590 -0.3774 -0.5305
vn 0.1566 0.0149 0.9875
vn -0.4912 0.3344 0.8043
vn -0.7389 0.4079 -0.5362
vn 0.8279 -0.3735 0.4185
vn 0.6087 0.0362 -0.7926
vn -0.6720 0.0494 0.7389
vn -0.1448 -0.1784 0.9732
vn -0.8945 0.3768 -0.2407
vn -0.7916 -0.6064 -0.0748
vn -0.8941 0.4437 0.0615
vn 0.9270 0.3727 -0.0419
vn 0.9004 -0.3985 -0.1744
vn -0.1602 -0.9739 -0.1607
vn 0.2843 -0.9393 -0.1921
vn -0.4442 0.8719 0.2061
vn -0.6938 0.7035 0.1539
vn 0.2166 0.0118 0.9762
vn -0.8843 0.4648 -0.0444
vn -0.7466 0.3173 -0.5848
vn -0.0750 -0.0717 -0.9946
vn 0.8600 -0.4753 -0.1858
vn 0.1187 0.0930 0.9886
vn -0.5095 0.8480 0.1461
vn 0.9853 -0.1655 0.0430
vn 0.6385 -0.0546 0.7677
vn -0.9426 0.1676 -0.2890
vn 0.3340 0.8965 -0.2911
vn 0.0838 0.7043 -0.7049
vn -0.6677 0.3072 -0.6781
vn 0.6200 0.6860 -0.3807
vn 0.8628 0.0963 0.4964
vn 0.4740 0.7955 0.3775
vn -0.6167 -0.2546 -0.7449
vn -0.9229 0.2710 -0.2734
vn -0.4055 0.7663 0.4983
vn -0.7814 0.6215 0.0559
vn 0.3419 -0.6999 -0.6271
vn 0.2276 0.5133 0.8275
vn -0.1955 -0.4796 -0.8554
vn 0.7857 -0.3106 0.5350
vn 0.7963 -0.5307 0.2902
vn -0.6639 0.7469 -0.0375
vn -0.7584 0.2410 -0.6056
vn -0.8488 0.5286 -0.0060
vn -0.8530 -0.0423 0.5201
vn 0.0059 0.7679 -0.6405
vn -0.3064 0.8221 -0.4799
vn 0.5526 0.5258 -0.6467
vn 0.6292 -0.7770 0.0181
vn -0.2052 -0.3139 -0.9270
vn 0.6602 -0.2973 0.6898
vn -0.5713 0.4482 -0.6875
vn -0.1459 -0.4001 0.9048
vn -0.9800 -0.0696 0.1866
vn 0.9138 0.2191 -0.3419
vn 0.6581 0.3217 -0.6807
vn 0.5708 -0.2900 0.7681
vn -0.7140 -0.2388 0.6582
vn -0.7205 0.1252 -0.6820
vn -0.5234 -0.5382 0.6606
vn 0.6440 -0.1699 0.7459
vn 0.9487 0.0349 0.3142
vn -0.0771 0.4774 -0.8753
vn -0.9635 -0.2442 -0.1095
vn 0.9354 0.2349 0.2642
vn 0.2238 0.7957 -0.5629
vn -0.4071 0.7344 -0.5431
vn 0.6531 0.2388 -0.7186
vn -0.5071 0.0882 -0.8574
vn -0.0844 0.0594 0.9947
vn -0.9846 0.0867 -0.1517
vn 0.9731 0.1782 0.1459
vn 0.8330 0.3905 0.3920
vn -0.3114 0.1819 -0.9327
vn 0.8973 0.1125 -0.4269
vn 0.5956 -0.0371 0.8024
vn 0.9845 0.1232 0.1248
vn 0.3130 0.9340 0.1725
vn -0.1592 -0.8264 0.5401
vn -0.0218 0.9729 0.2300
vn 0.2791 0.9496 0.1428
vn 0.6235 0.0309 0.7812
vn 0.8623 -0.4130 -0.2931
vn -0.4894 0.0605 -0.8699
vn 0.7793 0.3167 -0.5407
vn 0.6413 -0.0529 -0.7654
vn -0.6977 0.1488 -0.7007
vn -0.0826 0.0240 0.9963
vn -0.5684 0.7745 -0.2775
vn 0.5435 -0.2429 -0.8035
vn 0.5071 -0.4317 -0.7460
vn -0.2805 -0.9458 -0.1636
vn 0.3857 -0.8951 0.2238
vn -0.8325 0.5465 0.0908
vn 0.3019 0.9530 0.0254
vn -0.1008 -0.5141 0.8518
vn -0.8898 0.0109 -0.4561
vn -0.7692 0.4594 -0.4440
vn 0.9166 0.3587 0.1764
vn -0.8142 -0.5447 0.2008
vn -0.6676 0.4533 -0.5906
vn -0.9201 0.1912 -0.3419
vn 0.9535 0.1649 -0.2522
vn -0.0902 -0.6412 0.7620
vn -0.6766 -0.4340 0.5948
vn -0.6031 0.5626 -0.5655
vn 0.0249 0.6389 -0.7689
vn -0.9412 0.3042 -0.1472
vn 0.4703 0.4822 -0.7392
vn 0.4377 0.5723 0.6934
vn -0.3191 0.8748 0.3646
vn -0.9197 0.2126 -0.3302
vn 0.8644 0.0101 0.5027
vn -0.4256 0.6111 0.6674
vn 0.2138 0.6255 0.7503
vn 0.4941 0.3072 0.8133
vn 0.4068 -0.3810 -0.8303
vn 0.8866 0.3123 0.3413
vn -0.2701 0.1890 0.9441
vn -0.5768 -0.4197 -0.7008
vn 0.7976 0.3320 -0.5036
vn 0.6414 0.3710 0.6715
vn -0.8902 -0.4538 -0.0392
vn 0.8846 0.3932 0.2509
vn -0.7055 -0.3164 0.6342
vn -0.4728 -0.1362 -0.8706
vn -0.4890 0.7678 -0.4140
vn 0.8071 -0.2187 -0.5485
vn -0.6640 0.0754 0.7440
vn -0.2483 -0.3433 0.9058
vn -0.1697 0.6833 -0.7102
vn 0.4473 -0.7023 0.5538
vn 0.0518 0.2409 0.9692
vn -0.5395 0.7518 -0.3792
vn 0.3254 0.7874 0.5236
vn -0.6641 0.0194 -0.7474
vn 0.1693 -0.9525 -0.2533
vn 0.0639 0.9639 0.2586
vn -0.6351 0.6895 -0.3482
vn -0.8106 -0.3886 -0.4380
vn 0.3689 -0.9274 0.0618
vn 0.6169 0.6910 0.3767
vn -0.1264 -0.9639 -0.2342
vn -0.2588 0.9606 0.1015
vn -0.8015 0.5780 -0.1530
vn -0.8464 -0.4455 -0.2919
vn 0.4975 -0.8650 -0.0656
vn 0.4632 -0.8644 -0.1956
vn 0.1828 0.9757 0.1206
vn -0.4820 0.8692 0.1103
vn -0.9626 0.2563 0.0879
vn -0.7489 -0.6627 -0.0048
vn -0.3637 -0.9210 -0.1395
vn 0.8139 -0.3245 -0.4820
vn 0.9675 0.2111 -0.1391
vn 0.7119 -0.3855 0.5870
vn -0.2368 -0.9429 0.2344
vn -0.8982 -0.3672 -0.2416
vn 0.8299 0.5050 0.2371
vn 0.8785 0.4255 0.2172
vn 0.1384 0.9718 -0.1907
vn -0.5648 0.7792 -0.2718
vn 0.9427 -0.1481 0.2990
vn -0.9985 -0.0434 -0.0337
vn 0.1817 -0.8818 0.4352
vn -0.7405 0.6653 -0.0947
vn 0.9071 -0.4207 0.0111
vn -0.3886 -0.7593 0.5220
vn -0.9448 0.0909 0.3147
vn 0.1651 -0.7950 0.5838
vn -0.9035 0.1947 0.3817
vn -0.8281 0.5606 -0.0029
vn -0.5057 -0.4477 0.7375
vn 0.2229 0.2686 -0.9371
vn 0.6671 -0.6582 -0.3488
vn -0.6427 0.6239 0.4446
vn -0.3565 0.0935 0.9296
vn 0.0262 -0.9303 0.3658
vn 0.6017 -0.6742 -0.4283
vn 0.3318 -0.9433 0.0128
vn -0.3415 -0.7013 0.6257
vn -0.1759 0.9673 -0.1827
vn -0.2704 0.9591 -0.0833
vn -0.7327 0.1243 0.6691
vn 0.7850 -0.5098 -0.3519
vn 0.7295 0.1096 -0.6752
vn -0.3776 0.9203 -0.1024
vn -0.4309 -0.8340 0.3448
vn 0.0438 0.9808 -0.1902
vn 0.4093 -0.8986 0.1582
vn -0.9748 0.0073 0.2229
vn 0.8151 0.5314 -0.2306
vn 0.5857 0.7994 -0.1342
vn -0.3740 -0.0328 0.9268
vn -0.5878 -0.8011 0.1132
vn -0.2352 -0.6796 -0.6948
vn 0.6072 0.6503 -0.4565
vn 0.1621 0.7245 0.6700
vn 0.4450 0.3767 -0.8125
vn -0.3801 -0.8997 0.2146
vn 0.2722 0.9354 0.2258
vn 0.2249 0.6657 0.7115
vn -0.3310 -0.8942 0.3015
vn 0.1535 0.5584 -0.8152
vn -0.8388 -0.5211 -0.1580
vn 0.5494 0.8217 0.1514
vn 0.5355 0.8445 -0.0108
vn 0.3010 0.6901 -0.6582
vn -0.4342 -0.7396 0.5143
vn -0.3415 0.0794 -0.9365
vn -0.9856 0.1452 -0.0870
vn -0.6587 0.1112 0.7442
vn -0.2008 0.0542 -0.9781
vn 0.8365 -0.1621 0.5234
vn 0.1084 0.0038 0.9941
vn -0.7718 0.1768 -0.6108
vn 0.6796 -0.4109 0.6078
vn -0.4043 0.3156 0.8584
vn 0.0554 -0.0863 -0.9947
vn -0.7476 0.4166 -0.5172
vn 0.9328 -0.3563 0.0538
vn 0.7898 -0.2905 0.5402
vn 0.6720 -0.3432 -0.6562
vn 0.0148 0.1122 0.9936
vn -0.4638 0.1978 0.8636
vn 0.6951 0.0186 -0.7187
vn 0.2313 0.1733 -0.9573
vn -0.0631 -0.1874 0.9803
vn -0.4652 0.4406 -0.7678
vn 0.5988 -0.3212 0.7337
vn -0.7613 0.1341 0.6344
vn -0.3365 0.9369 0.0947
vn -0.8101 0.5659 0.1533
vn 0.0286 -0.9778 -0.2074
vn 0.8720 -0.4569 -0.1756
vn -0.2746 -0.9472 -0.1654
vn 0.9146 0.4025 -0.0385
vn -0.7068 -0.6993 -0.1069
vn -0.0413 0.1518 0.9875
vn -0.5714 0.4607 0.6792
vn -0.8483 0.5129 0.1313
vn 0.8984 -0.4392 -0.0058
vn 0.8000 -0.3530 0.4851
vn 0.5708 -0.4230 -0.7037
vn 0.0152 -0.1071 -0.9941
vn -0.9673 0.1995 -0.1569
vn 0.9590 -0.1216 0.2561
vn -0.0578 0.0576 0.9967
vn 0.4247 0.0226 0.9050
vn 0.6161 0.5750 0.5383
vn 0.8231 0.5099 -0.2499
vn -0.8727 0.0908 -0.4798
vn -0.1044 -0.6644 0.7401
vn -0.8893 -0.4569 0.0222
vn 0.1599 0.7203 -0.6750
vn 0.7243 0.6595 -0.2010
vn -0.7069 0.6990 0.1080
vn 0.2388 0.5072 0.8281
vn -0.2592 -0.4136 -0.8728
vn 0.7751 -0.6293 -0.0562
vn -0.7948 0.5773 -0.1873
vn 0.6158 -0.6924 -0.3759
vn -0.7211 0.2348 -0.6518
vn 0.3627 -0.8534 -0.3743
vn -0.5015 0.8354 0.2252
vn -0.7359 0.5953 -0.3226
vn 0.7395 -0.6497 0.1762
vn 0.7681 -0.4575 0.4481
vn -0.7282 -0.2120 0.6517
vn 0.5348 -0.7717 0.3443
vn -0.3267 0.8192 -0.4714
vn 0.8614 0.0670 -0.5035
vn 0.8287 -0.5515 0.0954
vn 0.5391 0.8343 0.1152
vn -0.5676 0.4153 -0.7109
vn -0.2804 -0.1831 -0.9423
vn 0.6342 -0.7727 0.0288
vn 0.6763 -0.3358 0.6557
vn 0.6953 -0.2203 0.6842
vn -0.7280 -0.2380 0.6430
vn 0.9637 0.1479 -0.2224
vn 0.6371 0.7169 -0.2831
vn 0.6748 0.5487 -0.4935
vn 0.6749 0.5487 -0.4934
vn 0.0731 0.9934 -0.0884
vn 0.0731 0.9934 -0.0885
vn -0.9088 -0.0628 0.4125
vn 0.4802 0.3057 0.8222
vn 0.4802 0.3057 0.8221
vn 0.7807 0.1806 -0.5983
vn 0.7806 0.1806 -0.5983
vn 0.7807 0.1806 -0.5982
vn 0.0823 0.1852 -0.9793
vn 0.0822 0.1852 -0.9793
vn -0.8655 0.2952 0.4046
vn -0.8655 0.2952 0.4047
vn -0.9631 0.2100 -0.1684
vn 0.4464 0.3014 0.8426
vn 0.4465 0.3013 0.8425
vn 0.4467 0.3012 0.8425
vn -0.1423 0.3623 0.9211
vn -0.1424 0.3623 0.9211
vn 0.7446 -0.0098 0.6674
vn -0.3972 0.0596 -0.9158
vn 0.1471 0.0452 -0.9881
vn 0.1472 0.0452 -0.9881
vn 0.1782 0.8767 0.4468
vn 0.1781 0.8767 0.4468
vn -0.8419 -0.3871 -0.3759
vn -0.8419 -0.3870 -0.3759
vn -0.8034 -0.0448 -0.5937
vn 0.7005 0.1994 0.6853
vn 0.0300 -0.9927 -0.1164
vn 0.0301 -0.9927 -0.1165
vn -0.0581 -0.9930 -0.1030
vn -0.0581 -0.9930 -0.1031
vn -0.0582 -0.9930 -0.1031
vn -0.0084 -0.9886 0.1506
vn -0.0084 -0.9885 0.1507
vn -0.0085 -0.9885 0.1507
vn 0.0547 -0.9899 0.1307
vn 0.0550 -0.9899 0.1309
vn 0.0549 -0.9899 0.1308
vn -0.5972 0.1962 -0.7778
vn -0.5971 0.1962 -0.7778
vn -0.9823 -0.1148 0.1480
vn -0.9823 -0.1148 0.1481
vn -0.9823 -0.1147 0.1480
vn 0.3227 -0.1082 0.9403
vn 0.3226 -0.1082 0.9403
vn 0.7924 -0.1910 -0.5793
vn 0.7925 -0.1910 -0.5792
vn 0.9462 -0.3146 -0.0750
vn 0.9463 -0.3146 -0.0749
vn 0.5172 -0.1972 -0.8328
vn 0.5172 -0.1971 -0.8328
vn -0.3350 -0.9347 -0.1193
vn -0.3349 -0.9347 -0.1193
vn 0.6286 -0.6950 -0.3490
vn 0.6408 -0.1753 -0.7474
vn 0.6407 -0.1754 -0.7475
vn 0.7040 0.5216 -0.4820
vn 0.7040 0.5217 -0.4820
vn -0.3513 0.9275 -0.1276
vn -0.3512 0.9276 -0.1276
vn 0.3685 0.8555 0.3637
vn 0.3686 0.8555 0.3637
vn -0.0612 0.9974 0.0383
vn -0.0891 -0.8485 0.5216
vn -0.0890 -0.8485 0.5216
vn 0.6011 -0.5018 0.6220
vn 0.5167 0.7455 -0.4210
vn 0.1291 0.8220 -0.5547
vn 0.1291 0.8220 -0.5546
vn 0.1290 0.8220 -0.5547
vn 0.6032 -0.5456 0.5818
vn 0.4315 -0.5862 -0.6857
vn 0.4315 -0.5863 -0.6857
vn 0.4315 -0.5863 -0.6856
vn 0.6936 -0.6298 -0.3496
vn 0.6937 -0.6298 -0.3495
vn -0.4712 -0.2457 -0.8471
vn -0.4711 -0.2457 -0.8471
vn 0.4467 0.3654 0.8167
vn 0.4466 0.3654 0.8167
vn 0.7465 -0.2324 -0.6235
vn -0.7409 0.0188 0.6714
vn -0.7409 0.0188 0.6713
vn -0.9415 -0.2657 -0.2073
vn -0.9415 -0.2658 -0.2073
vn -0.1708 0.0036 0.9853
vn 0.0383 0.0971 -0.9945
vn 0.0384 0.0971 -0.9945
vn 0.5049 -0.7336 0.4548
vn -0.7635 0.6210 0.1773
vn 0.4592 0.1265 -0.8793
vn 0.4593 0.1265 -0.8793
vn 0.0269 0.9564 0.2908
vn -0.0873 0.9494 0.3017
vn -0.0872 0.9494 0.3017
vn -0.0873 0.9494 0.3016
vn -0.2251 -0.8353 -0.5017
vn -0.2252 -0.8352 -0.5017
vn 0.5732 -0.6994 0.4270
vn 0.5733 -0.6994 0.4269
vn 0.5732 -0.6994 0.4269
vn 0.1322 0.9633 0.2334
vn 0.1322 0.9634 0.2334
vn 0.1321 0.9633 0.2335
vn 0.8157 -0.4568 0.3548
vn 0.9536 -0.2197 0.2058
vn 0.6569 0.7539 0.0100
vn 0.6570 0.7539 0.0099
vn 0.0703 -0.8862 0.4579
vn -0.1047 0.8834 -0.4568
vn -0.1048 0.8834 -0.4568
vn -0.1047 0.8834 -0.4569
vn 0.2492 0.9188 -0.3060
vn 0.2492 0.9188 -0.3061
vn -0.7802 0.3638 -0.5088
vn -0.1265 0.9634 -0.2362
vn -0.2907 -0.9401 0.1782
vn 0.2749 -0.9093 0.3123
vn 0.2748 -0.9094 0.3123
vn 0.2749 -0.9094 0.3123
vn -0.3228 0.8888 -0.3253
vn -0.3229 0.8888 -0.3253
vn 0.2132 0.8757 -0.4333
vn 0.2131 0.8757 -0.4333
vn 0.9132 0.3430 -0.2201
vn 0.9132 0.3429 -0.2200
vn 0.9132 0.3430 -0.2200
vn 0.3342 0.6613 -0.6715
vn 0.3342 0.6614 -0.6715
vn -0.4026 0.8121 -0.4224
vn 0.9036 -0.0330 -0.4271
vn 0.3176 -0.7330 0.6015
vn -0.2998 0.7513 -0.5879
vn -0.2998 0.7513 -0.5880
vn -0.6280 0.7468 0.2189
vn -0.5951 -0.6132 0.5194
vn -0.3327 -0.7004 -0.6315
vn -0.3327 -0.7004 -0.6314
vn -0.1643 -0.5429 0.8236
vn -0.1643 -0.5429 0.8235
vn 0.2484 0.7377 -0.6278
vn 0.2687 0.0298 0.9628
vn 0.2688 0.0298 0.9627
vn -0.6295 -0.7705 0.1001
vn -0.6296 -0.7705 0.1000
vn -0.6296 -0.7705 0.1001
vn 0.9832 -0.1563 -0.0948
vn 0.9832 -0.1563 -0.0947
vn 0.6850 -0.1208 -0.7185
vn 0.6849 -0.1208 -0.7185
vn 0.0978 0.9844 0.1465
vn 0.0979 0.9844 0.1465
vn 0.5716 -0.0926 -0.8153
vn -0.4250 0.0741 -0.9022
vn -0.4249 0.0741 -0.9022
vn -0.7332 0.1899 0.6529
vn -0.7332 0.1899 0.6530
vn 0.6712 -0.3164 0.6704
vn 0.6712 -0.3164 0.6703
vn -0.6926 -0.6303 0.3507
vn -0.6927 -0.6303 0.3507
vn 0.8610 -0.2896 0.4180
vn -0.1013 -0.6466 -0.7561
vn 0.1319 0.7035 0.6983
vn -0.0204 -0.7448 0.6670
vn -0.0204 -0.7447 0.6670
vn 0.3076 -0.7611 -0.5710
vn 0.3167 0.3869 0.8661
vn 0.3167 0.3869 0.8660
vn -0.4930 0.8696 -0.0292
vn -0.4930 0.8696 -0.0291
vn -0.2349 0.8697 0.4341
vn 0.2844 0.4324 -0.8556
vn 0.2844 0.4324 -0.8557
vn -0.6590 0.3890 -0.6438
vn -0.6591 0.3884 -0.6440
vn -0.6590 0.3890 -0.6437
vt 0.558908 0.562008
vt 0.558907 0.562008
vt 0.558907 0.562008
vt 0.558907 0.562008
vt 0.558907 0.562008
vt 0.558907 0.562008
vt 0.558908 0.562008
s 0
usemtl Material.001
f 1/1/1 2/2/1 3/3/1
f 4/2/2 5/2/2 6/2/2
f 7/2/3 8/2/3 9/2/3
f 10/2/4 11/2/4 12/2/4
f 13/2/5 14/2/5 15/2/5
f 16/4/6 17/2/6 18/2/6
f 19/2/7 20/2/7 21/2/7
f 22/2/8 23/2/8 24/2/8
f 25/2/9 26/4/9 27/2/9
f 28/2/10 29/2/10 30/2/10
f 31/1/11 32/5/11 33/2/11
f 34/2/12 35/2/12 36/2/12
f 37/2/13 38/2/13 39/2/13
f 40/4/14 41/2/14 42/2/14
f 43/2/15 44/2/15 45/2/15
f 46/5/16 47/2/16 48/2/16
f 49/2/17 50/4/17 51/6/17
f 52/5/18 53/2/18 54/2/18
f 55/6/19 56/4/19 57/6/19
f 58/2/20 59/2/20 60/2/20
f 61/6/21 62/2/21 63/2/21
f 64/2/22 65/2/22 66/6/22
f 67/7/23 68/2/23 69/4/23
f 70/7/24 71/3/24 72/2/24
f 73/2/25 74/3/25 75/7/25
f 76/7/26 77/2/26 78/2/26
f 79/7/27 80/2/27 81/7/27
f 82/2/28 83/4/28 84/2/28
f 85/2/29 86/2/29 87/5/29
f 88/2/30 89/2/30 90/2/30
f 91/2/31 92/2/31 93/2/31
f 94/2/32 95/2/32 96/2/32
f 97/3/33 98/2/33 99/2/33
f 100/2/34 101/2/34 102/7/34
f 103/2/35 104/2/35 105/5/35
f 106/2/36 107/3/36 108/2/36
f 109/2/37 110/2/37 111/2/37
f 112/2/38 113/2/38 114/2/38
f 115/2/39 116/2/39 117/2/39
f 118/2/40 119/2/40 120/4/40
f 121/2/41 122/2/41 123/2/41
f 124/2/42 125/2/42 126/2/42
f 127/2/43 128/2/43 129/2/43
f 130/2/44 131/2/44 132/2/44
f 133/2/45 134/2/45 135/2/45
f 136/2/46 137/2/46 138/2/46
f 139/2/47 140/2/47 141/2/47
f 142/4/48 143/2/48 144/2/48
f 145/7/49 146/2/49 147/4/49
f 148/4/50 149/2/50 150/2/50
f 151/2/51 152/2/51 153/4/51
f 154/2/52 155/2/52 156/2/52
f 157/2/53 158/4/53 159/2/53
f 160/4/54 161/2/54 162/2/54
f 163/2/55 164/2/55 165/2/55
f 166/2/56 167/2/56 168/4/56
f 169/2/57 170/4/57 171/2/57
f 172/2/58 173/2/58 174/2/58
f 175/2/59 176/2/59 177/2/59
f 178/2/60 179/2/60 180/2/60
f 181/2/61 182/2/61 183/6/61
f 184/2/62 185/2/62 186/1/62
f 187/2/63 188/4/63 189/2/63
f 190/7/64 191/2/64 192/2/64
f 193/2/65 194/2/65 195/2/65
f 196/6/66 197/2/66 198/2/66
f 199/2/67 200/4/67 201/2/67
f 202/4/68 203/6/68 204/2/68
f 205/2/69 206/6/69 207/2/69
f 208/2/70 209/4/70 210/2/70
f 211/2/71 212/6/71 213/2/71
f 214/4/72 215/2/72 216/2/72
f 217/2/73 218/2/73 219/2/73
f 220/6/74 221/2/74 222/2/74
f 223/7/75 224/4/75 225/2/75
f 226/2/76 227/4/76 228/7/76
f 229/2/77 230/2/77 231/2/77
f 232/7/78 233/2/78 234/2/78
f 235/2/79 236/4/79 237/4/79
f 238/2/80 239/4/80 240/2/80
f 241/2/81 242/4/81 243/7/81
f 244/2/82 245/2/82 246/2/82
f 247/2/83 248/7/83 249/2/83
f 250/2/84 251/1/84 252/7/84
f 253/2/85 254/7/85 255/2/85
f 256/2/86 257/2/86 258/7/86
f 259/7/87 260/2/87 261/2/87
f 262/2/88 263/2/88 264/2/88
f 265/7/89 266/2/89 267/2/89
f 268/2/90 269/7/90 270/2/90
f 271/2/91 272/2/91 273/2/91
f 274/2/92 275/2/92 276/4/92
f 277/2/93 278/7/93 279/2/93
f 280/2/94 281/2/94 282/2/94
f 283/7/95 284/2/95 285/2/95
f 286/2/96 287/2/96 288/2/96
f 289/2/97 290/2/97 291/2/97
f 292/2/98 293/4/98 294/4/98
f 295/2/99 296/2/99 297/2/99
f 298/2/100 299/2/100 300/2/100
f 301/2/101 302/2/101 303/7/101
f 304/4/102 305/6/102 306/2/102
f 307/5/103 308/2/103 309/2/103
f 310/2/104 311/2/104 312/2/104
f 313/2/105 314/2/105 315/5/105
f 316/2/106 317/2/106 318/2/106
f 319/2/107 320/2/107 321/2/107
f 322/2/108 323/2/108 324/2/108
f 325/2/109 326/2/109 327/2/109
f 328/2/110 329/2/110 330/2/110
f 331/2/111 332/7/111 333/2/111
f 334/2/112 335/2/112 336/2/112
f 337/2/113 338/2/113 339/2/113
f 340/2/114 341/2/114 342/2/114
f 343/2/115 344/5/115 345/2/115
f 346/2/116 347/2/116 348/2/116
f 349/2/117 350/2/117 351/2/117
f 352/2/118 353/2/118 354/2/118
f 355/4/119 356/2/119 357/2/119
f 358/2/120 359/2/120 360/2/120
f 361/2/121 362/4/121 363/7/121
f 364/2/122 365/2/122 366/2/122
f 367/2/123 368/2/123 369/2/123
f 370/7/124 371/2/124 372/6/124
f 373/2/125 374/2/125 375/2/125
f 376/6/126 377/2/126 378/2/126
f 379/2/127 380/6/127 381/2/127
s 1
f 382/6/128 383/5/128 384/2/128
s 0
f 385/2/129 386/2/129 387/2/129
f 388/2/130 389/2/130 390/2/130
f 391/4/131 392/7/131 393/2/131
f 394/4/132 395/2/132 396/2/132
f 397/4/133 398/4/133 399/4/133
f 400/2/134 401/2/134 402/2/134
f 403/2/135 404/2/135 405/2/135
f 406/2/136 407/2/136 408/2/136
f 409/4/137 410/4/137 411/2/137
f 412/2/138 413/2/138 414/2/138
f 415/2/139 416/2/139 417/2/139
f 418/2/140 419/2/140 420/7/140
f 421/2/141 422/2/141 423/2/141
f 424/2/142 425/2/142 426/4/142
f 427/6/143 428/2/143 429/4/143
f 430/2/144 431/4/144 432/4/144
f 433/2/145 434/2/145 435/4/145
f 436/7/146 437/2/146 438/2/146
f 439/6/147 440/4/147 441/2/147
f 442/2/148 443/2/148 444/4/148
f 445/2/149 446/2/149 447/2/149
f 448/2/150 449/2/150 450/5/150
f 451/2/151 452/5/151 453/2/151
f 454/2/152 455/2/152 456/2/152
f 457/2/153 458/2/153 459/2/153
f 460/2/154 461/2/154 462/2/154
f 463/2/155 464/2/155 465/6/155
f 466/2/156 467/4/156 468/2/156
f 469/4/157 470/2/157 471/2/157
f 472/7/158 473/2/158 474/2/158
f 475/5/159 476/2/159 477/2/159
f 478/2/160 479/7/160 480/2/160
f 481/2/161 482/2/161 483/2/161
f 484/2/162 485/2/162 486/2/162
f 487/2/163 488/2/163 489/5/163
f 490/6/164 491/2/164 492/2/164
f 493/2/165 494/2/165 495/2/165
f 496/4/166 497/2/166 498/2/166
f 499/4/167 500/2/167 501/2/167
f 502/4/168 503/2/168 504/4/168
f 505/2/169 506/2/169 507/2/169
f 508/2/170 509/6/170 510/2/170
f 511/2/171 512/2/171 513/4/171
f 514/2/172 515/2/172 516/2/172
f 517/2/173 518/2/173 519/2/173
f 520/4/174 521/2/174 522/2/174
f 523/4/175 524/2/175 525/2/175
f 526/2/176 527/2/176 528/2/176
f 529/2/177 530/4/177 531/2/177
f 532/2/178 533/2/178 534/2/178
s 1
f 535/4/179 536/2/179 537/2/179
s 0
f 538/4/180 539/2/180 540/4/180
f 541/2/181 542/2/181 543/7/181
f 544/2/182 545/2/182 546/2/182
f 547/2/183 548/2/183 549/2/183
f 550/2/184 551/2/184 552/2/184
f 553/4/185 554/2/185 555/2/185
f 556/4/186 557/2/186 558/2/186
f 559/2/187 560/4/187 561/7/187
f 562/4/188 563/2/188 564/4/188
f 565/5/189 566/7/189 567/2/189
f 568/4/190 569/2/190 570/7/190
f 571/2/191 572/4/191 573/2/191
f 574/2/192 575/4/192 576/4/192
f 577/4/193 578/2/193 579/2/193
f 580/4/194 581/7/194 582/4/194
f 583/7/195 584/2/195 585/2/195
f 586/7/196 587/6/196 588/2/196
f 589/5/197 590/2/197 591/4/197
f 592/2/198 593/2/198 594/7/198
f 595/2/199 596/7/199 597/4/199
f 598/4/200 599/4/200 600/2/200
f 601/2/201 602/2/201 603/4/201
f 604/2/202 605/2/202 606/2/202
f 607/2/203 608/7/203 609/2/203
f 610/4/204 611/7/204 612/5/204
f 613/5/205 614/2/205 615/2/205
f 616/4/206 617/4/206 618/2/206
f 619/2/207 620/2/207 621/4/207
f 622/2/208 623/2/208 624/2/208
f 625/7/209 626/7/209 627/5/209
f 628/7/210 629/5/210 630/4/210
f 631/7/211 632/2/211 633/3/211
f 634/7/212 635/7/212 636/2/212
f 637/2/213 638/4/213 639/7/213
f 640/3/214 641/4/214 642/4/214
f 643/2/215 644/2/215 645/7/215
f 646/4/216 647/2/216 648/4/216
f 649/2/217 650/4/217 651/2/217
f 652/7/218 653/6/218 654/7/218
f 655/2/219 656/2/219 657/6/219
f 658/2/220 659/4/220 660/4/220
f 661/3/221 662/2/221 663/4/221
f 664/7/222 665/2/222 666/2/222
f 667/2/223 668/2/223 669/4/223
f 670/2/224 671/2/224 672/7/224
f 673/2/225 674/7/225 675/2/225
f 676/2/226 677/2/226 678/2/226
f 679/2/227 680/2/227 681/2/227
f 682/2/228 683/2/228 684/2/228
f 685/7/229 686/2/229 687/2/229
f 688/2/230 689/7/230 690/4/230
f 691/7/231 692/2/231 693/2/231
f 694/2/232 695/2/232 696/7/232
f 697/2/233 698/7/233 699/2/233
f 700/7/234 701/4/234 702/2/234
f 703/2/235 704/2/235 705/2/235
f 706/2/236 707/2/236 708/2/236
f 709/2/237 710/4/237 711/2/237
f 712/2/238 713/2/238 714/2/238
f 715/2/239 716/2/239 717/2/239
f 718/2/240 719/2/240 720/2/240
f 721/2/241 722/2/241 723/2/241
f 724/2/242 725/2/242 726/2/242
f 727/2/243 728/2/243 729/2/243
f 730/2/244 731/2/244 732/1/244
f 733/2/245 734/5/245 735/2/245
f 736/4/246 737/4/246 738/2/246
f 739/2/247 740/2/247 741/2/247
f 742/2/248 743/2/248 744/2/248
f 745/2/249 746/4/249 747/4/249
f 748/5/250 749/5/250 750/2/250
f 751/6/251 752/6/251 753/2/251
f 754/2/252 755/4/252 756/2/252
f 757/6/253 758/4/253 759/2/253
f 760/2/254 761/7/254 762/2/254
f 763/4/255 764/4/255 765/3/255
f 766/2/256 767/2/256 768/4/256
f 769/2/257 770/4/257 771/2/257
f 772/3/258 773/4/258 774/2/258
f 775/2/259 776/5/259 777/2/259
f 778/2/260 779/2/260 780/2/260
f 781/2/261 782/2/261 783/2/261
f 784/2/262 785/2/262 786/2/262
f 787/2/263 788/2/263 789/2/263
f 790/4/264 791/2/264 792/4/264
f 793/2/265 794/2/265 795/2/265
f 796/2/266 797/2/266 798/2/266
f 799/2/267 800/2/267 801/7/267
f 802/2/268 803/2/268 804/6/268
f 805/4/269 806/2/269 807/2/269
f 808/4/270 809/4/270 810/2/270
f 811/2/271 812/7/271 813/4/271
f 814/4/272 815/4/272 816/2/272
f 817/4/273 818/2/273 819/2/273
f 820/2/274 821/2/274 822/2/274
f 823/2/275 824/2/275 825/2/275
f 826/2/276 827/2/276 828/2/276
f 829/2/277 830/2/277 831/4/277
f 832/2/278 833/4/278 834/2/278
f 835/2/279 836/4/279 837/2/279
f 838/2/280 839/2/280 840/4/280
f 841/2/281 842/2/281 843/2/281
f 844/2/282 845/2/282 846/2/282
f 847/2/283 848/2/283 849/6/283
f 850/1/284 851/2/284 852/2/284
f 853/2/285 854/2/285 855/2/285
f 856/2/286 857/2/286 858/7/286
f 859/2/287 860/6/287 861/2/287
f 862/6/288 863/2/288 864/2/288
f 865/2/289 866/2/289 867/7/289
f 868/4/290 869/2/290 870/6/290
f 871/2/291 872/4/291 873/2/291
f 874/2/292 875/2/292 876/2/292
f 877/2/293 878/5/293 879/6/293
f 880/2/294 881/4/294 882/2/294
f 883/2/295 884/7/295 885/4/295
f 886/2/296 887/6/296 888/2/296
f 889/7/297 890/2/297 891/2/297
f 892/4/298 893/4/298 894/2/298
f 895/2/299 896/2/299 897/4/299
f 898/7/300 899/2/300 900/4/300
f 901/2/301 902/2/301 903/4/301
f 904/2/302 905/2/302 906/2/302
f 907/2/303 908/2/303 909/1/303
f 910/2/304 911/7/304 912/4/304
f 913/2/305 914/2/305 915/2/305
f 916/2/306 917/2/306 918/7/306
f 919/2/307 920/2/307 921/2/307
f 922/2/308 923/7/308 924/7/308
f 925/7/309 926/2/309 927/2/309
f 928/2/310 929/2/310 930/7/310
f 931/2/311 932/7/311 933/2/311
f 934/2/312 935/2/312 936/2/312
f 937/2/313 938/2/313 939/7/313
f 940/2/314 941/2/314 942/2/314
f 943/2/315 944/7/315 945/2/315
f 946/7/316 947/2/316 948/2/316
f 949/2/317 950/2/317 951/2/317
f 952/2/318 953/2/318 954/4/318
f 955/2/319 956/2/319 957/2/319
f 958/2/320 959/2/320 960/2/320
f 961/2/321 962/2/321 963/7/321
f 964/2/322 965/2/322 966/2/322
f 967/6/323 968/2/323 969/2/323
f 970/2/324 971/6/324 972/2/324
f 973/2/325 974/2/325 975/2/325
f 976/2/326 977/5/326 978/2/326
f 979/2/327 980/2/327 981/2/327
f 982/2/328 983/5/328 984/2/328
f 985/2/329 986/2/329 987/2/329
f 988/2/330 989/2/330 990/2/330
f 991/2/331 992/4/331 993/2/331
f 994/2/332 995/2/332 996/4/332
f 997/2/333 998/2/333 999/2/333
f 1000/2/334 1001/2/334 1002/2/334
f 1003/2/335 1004/2/335 1005/2/335
f 1006/2/336 1007/2/336 1008/2/336
f 1009/2/337 1010/2/337 1011/5/337
f 1012/2/338 1013/2/338 1014/2/338
f 1015/4/339 1016/2/339 1017/2/339
f 1018/2/340 1019/2/340 1020/2/340
f 1021/2/341 1022/2/341 1023/4/341
f 1024/2/342 1025/2/342 1026/2/342
f 1027/7/343 1028/4/343 1029/2/343
f 1030/2/344 1031/2/344 1032/2/344
f 1033/2/345 1034/2/345 1035/2/345
f 1036/2/346 1037/2/346 1038/7/346
f 1039/6/347 1040/2/347 1041/2/347
f 1042/2/348 1043/2/348 1044/2/348
f 1045/2/349 1046/2/349 1047/2/349
f 1048/2/350 1049/5/350 1050/2/350
f 1051/4/351 1052/7/351 1053/6/351
f 1054/2/352 1055/2/352 1056/6/352
f 1057/2/353 1058/2/353 1059/2/353
f 1060/4/354 1061/4/354 1062/2/354
f 1063/2/355 1064/7/355 1065/2/355
f 1066/4/356 1067/4/356 1068/2/356
f 1069/4/357 1070/2/357 1071/2/357
f 1072/2/358 1073/2/358 1074/2/358
f 1075/2/359 1076/2/359 1077/2/359
f 1078/2/360 1079/2/360 1080/2/360
s 1
f 1081/4/361 1082/2/361 1083/2/361
s 0
f 1084/2/362 1085/2/362 1086/2/362
f 1087/7/363 1088/2/363 1089/2/363
f 1090/4/364 1091/2/364 1092/2/364
f 1093/4/365 1094/2/365 1095/7/365
f 1096/4/366 1097/2/366 1098/4/366
f 1099/2/367 1100/2/367 1101/2/367
f 1102/6/368 1103/2/368 1104/4/368
f 1105/4/369 1106/2/369 1107/2/369
f 1108/2/370 1109/2/370 1110/5/370
f 1111/2/371 1112/2/371 1113/5/371
f 1114/2/372 1115/2/372 1116/5/372
f 1117/2/373 1118/2/373 1119/2/373
f 1120/2/374 1121/2/374 1122/4/374
f 1123/2/375 1124/2/375 1125/2/375
f 1126/2/376 1127/2/376 1128/2/376
f 1129/2/377 1130/4/377 1131/2/377
f 1132/2/378 1133/2/378 1134/4/378
f 1135/7/379 1136/5/379 1137/2/379
f 1138/3/380 1139/2/380 1140/6/380
f 1141/5/381 1142/2/381 1143/2/381
f 1144/2/382 1145/2/382 1146/2/382
f 1147/2/383 1148/2/383 1149/6/383
f 1150/6/384 1151/2/384 1152/2/384
f 1153/2/385 1154/2/385 1155/7/385
f 1156/2/386 1157/2/386 1158/2/386
f 1159/2/387 1160/2/387 1161/2/387
f 1162/4/388 1163/4/388 1164/2/388
f 1165/2/389 1166/6/389 1167/2/389
f 1168/4/390 1169/2/390 1170/2/390
f 1171/4/391 1172/2/391 1173/2/391
f 1174/2/392 1175/2/392 1176/2/392
f 1177/4/393 1178/2/393 1179/2/393
f 1180/2/394 1181/2/394 1182/2/394
f 1183/2/395 1184/2/395 1185/2/395
f 1186/2/396 1187/4/396 1188/2/396
f 1189/4/397 1190/2/397 1191/2/397
f 1192/2/398 1193/4/398 1194/2/398
s 1
f 1195/2/399 1196/2/399 1197/2/399
s 0
f 1198/2/400 1199/2/400 1200/2/400
f 1201/2/401 1202/2/401 1203/2/401
f 1204/4/402 1205/2/402 1206/7/402
f 1207/7/403 1208/2/403 1209/4/403
f 1210/2/404 1211/2/404 1212/2/404
f 1213/7/405 1214/4/405 1215/2/405
f 1216/4/406 1217/2/406 1218/2/406
f 1219/2/407 1220/2/407 1221/2/407
f 1222/2/408 1223/4/408 1224/2/408
f 1225/4/409 1226/4/409 1227/2/409
f 1228/4/410 1229/2/410 1230/2/410
f 1231/7/411 1232/4/411 1233/4/411
f 1234/2/412 1235/7/412 1236/2/412
f 1237/4/413 1238/2/413 1239/7/413
f 1240/4/414 1241/5/414 1242/2/414
f 1243/2/415 1244/2/415 1245/2/415
f 1246/2/416 1247/4/416 1248/4/416
f 1249/4/417 1250/7/417 1251/2/417
f 1252/7/418 1253/5/418 1254/4/418
f 1255/7/419 1256/2/419 1257/5/419
f 1258/4/420 1259/2/420 1260/6/420
f 1261/7/421 1262/4/421 1263/6/421
f 1264/2/422 1265/2/422 1266/2/422
f 1267/2/423 1268/4/423 1269/2/423
f 1270/2/424 1271/4/424 1272/2/424
f 1273/2/425 1274/4/425 1275/2/425
f 1276/2/426 1277/4/426 1278/2/426
f 1279/4/427 1280/6/427 1281/4/427
f 1282/5/428 1283/7/428 1284/2/428
f 1285/2/429 1286/2/429 1287/2/429
f 1288/2/430 1289/2/430 1290/2/430
f 1291/2/431 1292/4/431 1293/5/431
f 1294/2/432 1295/4/432 1296/2/432
f 1297/2/433 1298/7/433 1299/4/433
f 1300/3/434 1301/2/434 1302/4/434
s 1
f 1303/7/435 1304/2/435 1305/7/435
s 0
f 1306/2/436 1307/7/436 1308/4/436
f 1309/7/437 1310/6/437 1311/7/437
f 1312/2/438 1313/2/438 1314/4/438
f 1315/6/439 1316/2/439 1317/7/439
f 1318/2/440 1319/2/440 1320/2/440
f 1321/7/441 1322/7/441 1323/3/441
f 1324/2/442 1325/6/442 1326/7/442
f 1327/2/443 1328/7/443 1329/4/443
f 1330/7/444 1331/4/444 1332/4/444
f 1333/4/445 1334/2/445 1335/4/445
f 1336/2/446 1337/4/446 1338/2/446
f 1339/2/447 1340/7/447 1341/2/447
f 1342/2/448 1343/2/448 1344/2/448
f 1345/2/449 1346/2/449 1347/2/449
f 1348/7/450 1349/2/450 1350/2/450
f 1351/2/451 1352/2/451 1353/2/451
f 1354/2/452 1355/3/452 1356/2/452
f 1357/2/453 1358/2/453 1359/2/453
f 1360/2/454 1361/2/454 1362/2/454
f 1363/2/455 1364/7/455 1365/2/455
f 1366/2/456 1367/4/456 1368/7/456
f 1369/2/457 1370/2/457 1371/2/457
f 1372/2/458 1373/2/458 1374/7/458
s 1
f 1375/2/459 1376/2/460 1377/2/460
f 1375/2/459 1377/2/460 1378/2/459
f 1379/2/461 1380/2/461 1381/2/461
f 1379/2/461 1381/2/461 1382/2/462
f 1383/2/463 1384/2/463 1385/4/463
f 1383/2/463 1385/4/463 1386/2/463
f 1387/2/464 1388/4/464 1389/4/464
f 1387/2/464 1389/4/464 1390/4/465
f 1391/2/466 1392/1/467 1393/2/466
f 1391/2/466 1393/2/466 1394/6/468
f 1395/5/469 1396/5/470 1397/1/470
f 1395/5/469 1397/1/470 1398/2/469
f 1399/2/471 1400/2/471 1401/2/472
f 1399/2/471 1401/2/472 1402/2/472
f 1403/2/473 1404/2/473 1405/2/473
f 1403/2/473 1405/2/473 1406/2/473
f 1407/2/474 1408/2/475 1409/4/476
f 1407/2/474 1409/4/476 1410/2/475
f 1411/2/477 1412/2/477 1413/2/478
f 1411/2/477 1413/2/478 1414/2/478
f 1415/2/479 1416/2/479 1417/2/479
f 1415/2/479 1417/2/479 1418/4/479
f 1419/2/480 1420/2/480 1421/5/480
f 1419/2/480 1421/5/480 1422/4/480
f 1423/4/481 1424/5/482 1425/2/481
f 1423/4/481 1425/2/481 1426/2/482
f 1427/2/483 1428/2/483 1429/2/483
f 1427/2/483 1429/2/483 1430/2/484
f 1431/2/485 1432/2/485 1433/2/486
f 1431/2/485 1433/2/486 1434/2/486
f 1435/2/487 1436/2/487 1437/2/487
f 1435/2/487 1437/2/487 1438/2/487
f 1439/7/488 1440/2/488 1441/2/488
f 1439/7/488 1441/2/488 1442/2/488
f 1443/2/489 1444/2/490 1445/2/489
f 1443/2/489 1445/2/489 1446/4/490
f 1447/2/491 1448/4/492 1449/2/493
f 1447/2/491 1449/2/493 1450/6/492
f 1451/2/494 1452/2/495 1453/2/496
f 1451/2/494 1453/2/496 1454/6/495
f 1455/2/497 1456/2/498 1457/2/499
f 1455/2/497 1457/2/499 1458/2/498
f 1459/2/500 1460/2/500 1461/2/501
f 1459/2/500 1461/2/501 1462/2/501
f 1463/2/502 1464/4/503 1465/2/502
f 1463/2/502 1465/2/502 1466/2/504
f 1467/4/505 1468/4/505 1469/2/506
f 1467/4/505 1469/2/506 1470/2/505
f 1471/3/507 1472/7/507 1473/2/508
f 1471/3/507 1473/2/508 1474/1/508
f 1475/7/509 1476/2/509 1477/4/510
f 1475/7/509 1477/4/510 1478/2/510
f 1479/7/511 1480/2/512 1481/2/512
f 1479/7/511 1481/2/512 1482/2/511
f 1483/2/513 1484/2/513 1485/5/513
f 1483/2/513 1485/5/513 1486/2/514
f 1487/2/515 1488/7/515 1489/4/515
f 1487/2/515 1489/4/515 1490/6/515
f 1491/4/516 1492/3/517 1493/6/517
f 1491/4/516 1493/6/517 1494/2/516
f 1495/2/518 1496/3/518 1497/4/519
f 1495/2/518 1497/4/519 1498/2/519
f 1499/2/520 1500/2/521 1501/2/521
f 1499/2/520 1501/2/521 1502/2/520
f 1503/2/522 1504/2/522 1505/2/522
f 1503/2/522 1505/2/522 1506/2/523
f 1507/2/524 1508/2/524 1509/2/524
f 1507/2/524 1509/2/524 1510/2/524
f 1511/3/525 1512/2/526 1513/2/526
f 1511/3/525 1513/2/526 1514/4/526
f 1515/3/527 1516/2/527 1517/2/527
f 1515/3/527 1517/2/527 1518/2/527
f 1519/2/528 1520/2/528 1521/6/528
f 1519/2/528 1521/6/528 1522/2/528
f 1523/2/529 1524/2/530 1525/2/531
f 1523/2/529 1525/2/531 1526/6/531
f 1527/2/532 1528/2/532 1529/4/532
f 1527/2/532 1529/4/532 1530/4/532
f 1531/2/533 1532/6/533 1533/5/534
f 1531/2/533 1533/5/534 1534/2/535
f 1535/2/536 1536/5/536 1537/2/536
f 1535/2/536 1537/2/536 1538/2/537
f 1539/2/538 1540/2/539 1541/6/539
f 1539/2/538 1541/6/539 1542/2/538
f 1543/2/540 1544/7/541 1545/2/541
f 1543/2/540 1545/2/541 1546/2/540
f 1547/5/542 1548/2/542 1549/2/542
f 1547/5/542 1549/2/542 1550/2/542
f 1551/2/543 1552/4/544 1553/7/543
f 1551/2/543 1553/7/543 1554/4/543
f 1555/2/545 1556/4/546 1557/2/545
f 1555/2/545 1557/2/545 1558/2/545
f 1559/7/547 1560/2/547 1561/4/547
f 1559/7/547 1561/4/547 1562/2/547
f 1563/2/548 1564/2/548 1565/2/548
f 1563/2/548 1565/2/548 1566/2/549
f 1567/4/550 1568/7/550 1569/7/550
f 1567/4/550 1569/7/550 1570/4/550
f 1571/2/551 1572/2/551 1573/7/551
f 1571/2/551 1573/7/551 1574/1/551
f 1575/2/552 1576/2/553 1577/2/552
f 1575/2/552 1577/2/552 1578/2/552
f 1579/7/554 1580/2/554 1581/2/554
f 1579/7/554 1581/2/554 1582/2/554
f 1583/2/555 1584/2/556 1585/2/556
f 1583/2/555 1585/2/556 1586/7/557
f 1587/2/558 1588/2/558 1589/2/559
f 1587/2/558 1589/2/559 1590/2/559
f 1591/2/560 1592/7/561 1593/2/561
f 1591/2/560 1593/2/561 1594/2/562
f 1595/2/563 1596/2/564 1597/2/565
f 1595/2/563 1597/2/565 1598/2/564
f 1599/2/566 1600/2/566 1601/4/566
f 1599/2/566 1601/4/566 1602/2/566
f 1603/2/567 1604/6/567 1605/4/567
f 1603/2/567 1605/4/567 1606/4/567
f 1607/4/568 1608/2/569 1609/2/568
f 1607/4/568 1609/2/568 1610/2/568
f 1611/2/570 1612/4/570 1613/2/570
f 1611/2/570 1613/2/570 1614/2/570
f 1615/2/571 1616/2/572 1617/5/573
f 1615/2/571 1617/5/573 1618/2/571
f 1619/2/574 1620/5/575 1621/2/575
f 1619/2/574 1621/2/575 1622/7/574
f 1623/2/576 1624/2/576 1625/2/576
f 1623/2/576 1625/2/576 1626/2/576
f 1627/5/577 1628/2/577 1629/2/577
f 1627/5/577 1629/2/577 1630/2/577
f 1631/2/578 1632/2/578 1633/2/578
f 1631/2/578 1633/2/578 1634/2/578
f 1635/2/579 1636/4/580 1637/2/580
f 1635/2/579 1637/2/580 1638/2/581
f 1639/2/582 1640/2/582 1641/2/583
f 1639/2/582 1641/2/583 1642/2/583
f 1643/2/584 1644/2/585 1645/2/585
f 1643/2/584 1645/2/585 1646/2/584
f 1647/2/586 1648/2/587 1649/2/587
f 1647/2/586 1649/2/587 1650/2/588
f 1651/2/589 1652/2/590 1653/2/590
f 1651/2/589 1653/2/590 1654/5/590
f 1655/2/591 1656/2/591 1657/2/591
f 1655/2/591 1657/2/591 1658/2/591
f 1659/2/592 1660/5/592 1661/6/592
f 1659/2/592 1661/6/592 1662/2/592
f 1663/7/593 1664/4/593 1665/2/593
f 1663/7/593 1665/2/593 1666/2/593
f 1667/2/594 1668/2/594 1669/2/595
f 1667/2/594 1669/2/595 1670/2/595
f 1671/2/596 1672/6/596 1673/2/596
f 1671/2/596 1673/2/596 1674/2/596
f 1675/2/597 1676/5/597 1677/2/597
f 1675/2/597 1677/2/597 1678/2/597
f 1679/2/598 1680/2/598 1681/2/599
f 1679/2/598 1681/2/599 1682/6/599
f 1683/2/600 1684/2/600 1685/2/600
f 1683/2/600 1685/2/600 1686/7/601
f 1687/2/602 1688/3/602 1689/2/602
f 1687/2/602 1689/2/602 1690/2/602
f 1691/2/603 1692/2/604 1693/2/603
f 1691/2/603 1693/2/603 1694/2/603
f 1695/5/605 1696/7/605 1697/2/606
f 1695/5/605 1697/2/606 1698/2/607
f 1699/6/608 1700/2/609 1701/2/608
f 1699/6/608 1701/2/608 1702/2/608
f 1703/2/610 1704/6/611 1705/2/611
f 1703/2/610 1705/2/611 1706/6/610
f 1707/2/612 1708/4/613 1709/2/613
f 1707/2/612 1709/2/613 1710/2/613
f 1711/7/614 1712/7/614 1713/2/614
f 1711/7/614 1713/2/614 1714/4/614
f 1715/2/615 1716/2/615 1717/7/615
f 1715/2/615 1717/7/615 1718/7/616
f 1719/2/617 1720/2/617 1721/4/617
f 1719/2/617 1721/4/617 1722/2/618
f 1723/2/619 1724/6/620 1725/4/619
f 1723/2/619 1725/4/619 1726/2/619
f 1727/2/621 1728/2/621 1729/2/621
f 1727/2/621 1729/2/621 1730/2/622
f 1731/7/623 1732/2/623 1733/4/623
f 1731/7/623 1733/4/623 1734/4/623
f 1735/2/624 1736/2/624 1737/2/624
f 1735/2/624 1737/2/624 1738/2/624
f 1739/4/625 1740/7/625 1741/7/625
f 1739/4/625 1741/7/625 1742/3/625
f 1743/4/626 1744/2/627 1745/3/626
f 1743/4/626 1745/3/626 1746/4/626
f 1747/3/628 1748/2/628 1749/2/628
f 1747/3/628 1749/2/628 1750/7/628
f 1751/2/629 1752/2/629 1753/2/629
f 1751/2/629 1753/2/629 1754/2/630
f 1755/2/631 1756/2/631 1757/7/632
f 1755/2/631 1757/7/632 1758/2/632
f 1759/2/633 1760/2/633 1761/2/633
f 1759/2/633 1761/2/633 1762/7/633
f 1763/2/634 1764/2/634 1765/7/634
f 1763/2/634 1765/7/634 1766/2/635
f 1767/2/636 1768/4/637 1769/2/638
f 1767/2/636 1769/2/638 1770/2/636
